<?xml version="1.0" encoding="utf-8" standalone="no"?>
<!DOCTYPE svg PUBLIC "-//W3C//DTD SVG 1.1//EN"
  "http://www.w3.org/Graphics/SVG/1.1/DTD/svg11.dtd">
<svg xmlns:xlink="http://www.w3.org/1999/xlink" width="855.651562pt" height="494.836pt" viewBox="0 0 855.651562 494.836" xmlns="http://www.w3.org/2000/svg" version="1.1">
 <metadata>
  <rdf:RDF xmlns:dc="http://purl.org/dc/elements/1.1/" xmlns:cc="http://creativecommons.org/ns#" xmlns:rdf="http://www.w3.org/1999/02/22-rdf-syntax-ns#">
   <cc:Work>
    <dc:type rdf:resource="http://purl.org/dc/dcmitype/StillImage"/>
    <dc:date>2026-04-05T12:36:16.351875</dc:date>
    <dc:format>image/svg+xml</dc:format>
    <dc:creator>
     <cc:Agent>
      <dc:title>Matplotlib v3.10.8, https://matplotlib.org/</dc:title>
     </cc:Agent>
    </dc:creator>
   </cc:Work>
  </rdf:RDF>
 </metadata>
 <defs>
  <style type="text/css">*{stroke-linejoin: round; stroke-linecap: butt}</style>
 </defs>
 <g id="figure_1">
  <g id="patch_1">
   <path d="M 0 494.836 
L 855.651562 494.836 
L 855.651562 0 
L 0 0 
z
" style="fill: #ffffff"/>
  </g>
  <g id="axes_1">
   <g id="patch_2">
    <path d="M 66.821563 455.344125 
L 848.451563 455.344125 
L 848.451563 39.624125 
L 66.821563 39.624125 
z
" style="fill: #ffffff"/>
   </g>
   <g id="matplotlib.axis_1">
    <g id="xtick_1">
     <g id="line2d_1">
      <path d="M 102.350199 455.344125 
L 102.350199 39.624125 
" clip-path="url(#pcf61a8c2d7)" style="fill: none; stroke: #b0b0b0; stroke-opacity: 0.2; stroke-width: 0.8; stroke-linecap: square"/>
     </g>
     <g id="line2d_2">
      <defs>
       <path id="m7c97fa8243" d="M 0 0 
L 0 3.5 
" style="stroke: #000000; stroke-width: 0.8"/>
      </defs>
      <g>
       <use xlink:href="#m7c97fa8243" x="102.350199" y="455.344125" style="stroke: #000000; stroke-width: 0.8"/>
      </g>
     </g>
     <g id="text_1">
      <!-- 0 -->
      <g transform="translate(99.168949 469.942562) scale(0.1 -0.1)">
       <defs>
        <path id="DejaVuSans-30" d="M 2034 4250 
Q 1547 4250 1301 3770 
Q 1056 3291 1056 2328 
Q 1056 1369 1301 889 
Q 1547 409 2034 409 
Q 2525 409 2770 889 
Q 3016 1369 3016 2328 
Q 3016 3291 2770 3770 
Q 2525 4250 2034 4250 
z
M 2034 4750 
Q 2819 4750 3233 4129 
Q 3647 3509 3647 2328 
Q 3647 1150 3233 529 
Q 2819 -91 2034 -91 
Q 1250 -91 836 529 
Q 422 1150 422 2328 
Q 422 3509 836 4129 
Q 1250 4750 2034 4750 
z
" transform="scale(0.015625)"/>
       </defs>
       <use xlink:href="#DejaVuSans-30"/>
      </g>
     </g>
    </g>
    <g id="xtick_2">
     <g id="line2d_3">
      <path d="M 244.464744 455.344125 
L 244.464744 39.624125 
" clip-path="url(#pcf61a8c2d7)" style="fill: none; stroke: #b0b0b0; stroke-opacity: 0.2; stroke-width: 0.8; stroke-linecap: square"/>
     </g>
     <g id="line2d_4">
      <g>
       <use xlink:href="#m7c97fa8243" x="244.464744" y="455.344125" style="stroke: #000000; stroke-width: 0.8"/>
      </g>
     </g>
     <g id="text_2">
      <!-- 1 -->
      <g transform="translate(241.283494 469.942562) scale(0.1 -0.1)">
       <defs>
        <path id="DejaVuSans-31" d="M 794 531 
L 1825 531 
L 1825 4091 
L 703 3866 
L 703 4441 
L 1819 4666 
L 2450 4666 
L 2450 531 
L 3481 531 
L 3481 0 
L 794 0 
L 794 531 
z
" transform="scale(0.015625)"/>
       </defs>
       <use xlink:href="#DejaVuSans-31"/>
      </g>
     </g>
    </g>
    <g id="xtick_3">
     <g id="line2d_5">
      <path d="M 386.57929 455.344125 
L 386.57929 39.624125 
" clip-path="url(#pcf61a8c2d7)" style="fill: none; stroke: #b0b0b0; stroke-opacity: 0.2; stroke-width: 0.8; stroke-linecap: square"/>
     </g>
     <g id="line2d_6">
      <g>
       <use xlink:href="#m7c97fa8243" x="386.57929" y="455.344125" style="stroke: #000000; stroke-width: 0.8"/>
      </g>
     </g>
     <g id="text_3">
      <!-- 2 -->
      <g transform="translate(383.39804 469.942562) scale(0.1 -0.1)">
       <defs>
        <path id="DejaVuSans-32" d="M 1228 531 
L 3431 531 
L 3431 0 
L 469 0 
L 469 531 
Q 828 903 1448 1529 
Q 2069 2156 2228 2338 
Q 2531 2678 2651 2914 
Q 2772 3150 2772 3378 
Q 2772 3750 2511 3984 
Q 2250 4219 1831 4219 
Q 1534 4219 1204 4116 
Q 875 4013 500 3803 
L 500 4441 
Q 881 4594 1212 4672 
Q 1544 4750 1819 4750 
Q 2544 4750 2975 4387 
Q 3406 4025 3406 3419 
Q 3406 3131 3298 2873 
Q 3191 2616 2906 2266 
Q 2828 2175 2409 1742 
Q 1991 1309 1228 531 
z
" transform="scale(0.015625)"/>
       </defs>
       <use xlink:href="#DejaVuSans-32"/>
      </g>
     </g>
    </g>
    <g id="xtick_4">
     <g id="line2d_7">
      <path d="M 528.693835 455.344125 
L 528.693835 39.624125 
" clip-path="url(#pcf61a8c2d7)" style="fill: none; stroke: #b0b0b0; stroke-opacity: 0.2; stroke-width: 0.8; stroke-linecap: square"/>
     </g>
     <g id="line2d_8">
      <g>
       <use xlink:href="#m7c97fa8243" x="528.693835" y="455.344125" style="stroke: #000000; stroke-width: 0.8"/>
      </g>
     </g>
     <g id="text_4">
      <!-- 3 -->
      <g transform="translate(525.512585 469.942562) scale(0.1 -0.1)">
       <defs>
        <path id="DejaVuSans-33" d="M 2597 2516 
Q 3050 2419 3304 2112 
Q 3559 1806 3559 1356 
Q 3559 666 3084 287 
Q 2609 -91 1734 -91 
Q 1441 -91 1130 -33 
Q 819 25 488 141 
L 488 750 
Q 750 597 1062 519 
Q 1375 441 1716 441 
Q 2309 441 2620 675 
Q 2931 909 2931 1356 
Q 2931 1769 2642 2001 
Q 2353 2234 1838 2234 
L 1294 2234 
L 1294 2753 
L 1863 2753 
Q 2328 2753 2575 2939 
Q 2822 3125 2822 3475 
Q 2822 3834 2567 4026 
Q 2313 4219 1838 4219 
Q 1578 4219 1281 4162 
Q 984 4106 628 3988 
L 628 4550 
Q 988 4650 1302 4700 
Q 1616 4750 1894 4750 
Q 2613 4750 3031 4423 
Q 3450 4097 3450 3541 
Q 3450 3153 3228 2886 
Q 3006 2619 2597 2516 
z
" transform="scale(0.015625)"/>
       </defs>
       <use xlink:href="#DejaVuSans-33"/>
      </g>
     </g>
    </g>
    <g id="xtick_5">
     <g id="line2d_9">
      <path d="M 670.808381 455.344125 
L 670.808381 39.624125 
" clip-path="url(#pcf61a8c2d7)" style="fill: none; stroke: #b0b0b0; stroke-opacity: 0.2; stroke-width: 0.8; stroke-linecap: square"/>
     </g>
     <g id="line2d_10">
      <g>
       <use xlink:href="#m7c97fa8243" x="670.808381" y="455.344125" style="stroke: #000000; stroke-width: 0.8"/>
      </g>
     </g>
     <g id="text_5">
      <!-- 4 -->
      <g transform="translate(667.627131 469.942562) scale(0.1 -0.1)">
       <defs>
        <path id="DejaVuSans-34" d="M 2419 4116 
L 825 1625 
L 2419 1625 
L 2419 4116 
z
M 2253 4666 
L 3047 4666 
L 3047 1625 
L 3713 1625 
L 3713 1100 
L 3047 1100 
L 3047 0 
L 2419 0 
L 2419 1100 
L 313 1100 
L 313 1709 
L 2253 4666 
z
" transform="scale(0.015625)"/>
       </defs>
       <use xlink:href="#DejaVuSans-34"/>
      </g>
     </g>
    </g>
    <g id="xtick_6">
     <g id="line2d_11">
      <path d="M 812.922926 455.344125 
L 812.922926 39.624125 
" clip-path="url(#pcf61a8c2d7)" style="fill: none; stroke: #b0b0b0; stroke-opacity: 0.2; stroke-width: 0.8; stroke-linecap: square"/>
     </g>
     <g id="line2d_12">
      <g>
       <use xlink:href="#m7c97fa8243" x="812.922926" y="455.344125" style="stroke: #000000; stroke-width: 0.8"/>
      </g>
     </g>
     <g id="text_6">
      <!-- 5 -->
      <g transform="translate(809.741676 469.942562) scale(0.1 -0.1)">
       <defs>
        <path id="DejaVuSans-35" d="M 691 4666 
L 3169 4666 
L 3169 4134 
L 1269 4134 
L 1269 2991 
Q 1406 3038 1543 3061 
Q 1681 3084 1819 3084 
Q 2600 3084 3056 2656 
Q 3513 2228 3513 1497 
Q 3513 744 3044 326 
Q 2575 -91 1722 -91 
Q 1428 -91 1123 -41 
Q 819 9 494 109 
L 494 744 
Q 775 591 1075 516 
Q 1375 441 1709 441 
Q 2250 441 2565 725 
Q 2881 1009 2881 1497 
Q 2881 1984 2565 2268 
Q 2250 2553 1709 2553 
Q 1456 2553 1204 2497 
Q 953 2441 691 2322 
L 691 4666 
z
" transform="scale(0.015625)"/>
       </defs>
       <use xlink:href="#DejaVuSans-35"/>
      </g>
     </g>
    </g>
    <g id="text_7">
     <!-- Memory fluctuation σ (capacity = 7 ± σ) -->
     <g transform="translate(336.19 485.140375) scale(0.12 -0.12)">
      <defs>
       <path id="DejaVuSans-4d" d="M 628 4666 
L 1569 4666 
L 2759 1491 
L 3956 4666 
L 4897 4666 
L 4897 0 
L 4281 0 
L 4281 4097 
L 3078 897 
L 2444 897 
L 1241 4097 
L 1241 0 
L 628 0 
L 628 4666 
z
" transform="scale(0.015625)"/>
       <path id="DejaVuSans-65" d="M 3597 1894 
L 3597 1613 
L 953 1613 
Q 991 1019 1311 708 
Q 1631 397 2203 397 
Q 2534 397 2845 478 
Q 3156 559 3463 722 
L 3463 178 
Q 3153 47 2828 -22 
Q 2503 -91 2169 -91 
Q 1331 -91 842 396 
Q 353 884 353 1716 
Q 353 2575 817 3079 
Q 1281 3584 2069 3584 
Q 2775 3584 3186 3129 
Q 3597 2675 3597 1894 
z
M 3022 2063 
Q 3016 2534 2758 2815 
Q 2500 3097 2075 3097 
Q 1594 3097 1305 2825 
Q 1016 2553 972 2059 
L 3022 2063 
z
" transform="scale(0.015625)"/>
       <path id="DejaVuSans-6d" d="M 3328 2828 
Q 3544 3216 3844 3400 
Q 4144 3584 4550 3584 
Q 5097 3584 5394 3201 
Q 5691 2819 5691 2113 
L 5691 0 
L 5113 0 
L 5113 2094 
Q 5113 2597 4934 2840 
Q 4756 3084 4391 3084 
Q 3944 3084 3684 2787 
Q 3425 2491 3425 1978 
L 3425 0 
L 2847 0 
L 2847 2094 
Q 2847 2600 2669 2842 
Q 2491 3084 2119 3084 
Q 1678 3084 1418 2786 
Q 1159 2488 1159 1978 
L 1159 0 
L 581 0 
L 581 3500 
L 1159 3500 
L 1159 2956 
Q 1356 3278 1631 3431 
Q 1906 3584 2284 3584 
Q 2666 3584 2933 3390 
Q 3200 3197 3328 2828 
z
" transform="scale(0.015625)"/>
       <path id="DejaVuSans-6f" d="M 1959 3097 
Q 1497 3097 1228 2736 
Q 959 2375 959 1747 
Q 959 1119 1226 758 
Q 1494 397 1959 397 
Q 2419 397 2687 759 
Q 2956 1122 2956 1747 
Q 2956 2369 2687 2733 
Q 2419 3097 1959 3097 
z
M 1959 3584 
Q 2709 3584 3137 3096 
Q 3566 2609 3566 1747 
Q 3566 888 3137 398 
Q 2709 -91 1959 -91 
Q 1206 -91 779 398 
Q 353 888 353 1747 
Q 353 2609 779 3096 
Q 1206 3584 1959 3584 
z
" transform="scale(0.015625)"/>
       <path id="DejaVuSans-72" d="M 2631 2963 
Q 2534 3019 2420 3045 
Q 2306 3072 2169 3072 
Q 1681 3072 1420 2755 
Q 1159 2438 1159 1844 
L 1159 0 
L 581 0 
L 581 3500 
L 1159 3500 
L 1159 2956 
Q 1341 3275 1631 3429 
Q 1922 3584 2338 3584 
Q 2397 3584 2469 3576 
Q 2541 3569 2628 3553 
L 2631 2963 
z
" transform="scale(0.015625)"/>
       <path id="DejaVuSans-79" d="M 2059 -325 
Q 1816 -950 1584 -1140 
Q 1353 -1331 966 -1331 
L 506 -1331 
L 506 -850 
L 844 -850 
Q 1081 -850 1212 -737 
Q 1344 -625 1503 -206 
L 1606 56 
L 191 3500 
L 800 3500 
L 1894 763 
L 2988 3500 
L 3597 3500 
L 2059 -325 
z
" transform="scale(0.015625)"/>
       <path id="DejaVuSans-20" transform="scale(0.015625)"/>
       <path id="DejaVuSans-66" d="M 2375 4863 
L 2375 4384 
L 1825 4384 
Q 1516 4384 1395 4259 
Q 1275 4134 1275 3809 
L 1275 3500 
L 2222 3500 
L 2222 3053 
L 1275 3053 
L 1275 0 
L 697 0 
L 697 3053 
L 147 3053 
L 147 3500 
L 697 3500 
L 697 3744 
Q 697 4328 969 4595 
Q 1241 4863 1831 4863 
L 2375 4863 
z
" transform="scale(0.015625)"/>
       <path id="DejaVuSans-6c" d="M 603 4863 
L 1178 4863 
L 1178 0 
L 603 0 
L 603 4863 
z
" transform="scale(0.015625)"/>
       <path id="DejaVuSans-75" d="M 544 1381 
L 544 3500 
L 1119 3500 
L 1119 1403 
Q 1119 906 1312 657 
Q 1506 409 1894 409 
Q 2359 409 2629 706 
Q 2900 1003 2900 1516 
L 2900 3500 
L 3475 3500 
L 3475 0 
L 2900 0 
L 2900 538 
Q 2691 219 2414 64 
Q 2138 -91 1772 -91 
Q 1169 -91 856 284 
Q 544 659 544 1381 
z
M 1991 3584 
L 1991 3584 
z
" transform="scale(0.015625)"/>
       <path id="DejaVuSans-63" d="M 3122 3366 
L 3122 2828 
Q 2878 2963 2633 3030 
Q 2388 3097 2138 3097 
Q 1578 3097 1268 2742 
Q 959 2388 959 1747 
Q 959 1106 1268 751 
Q 1578 397 2138 397 
Q 2388 397 2633 464 
Q 2878 531 3122 666 
L 3122 134 
Q 2881 22 2623 -34 
Q 2366 -91 2075 -91 
Q 1284 -91 818 406 
Q 353 903 353 1747 
Q 353 2603 823 3093 
Q 1294 3584 2113 3584 
Q 2378 3584 2631 3529 
Q 2884 3475 3122 3366 
z
" transform="scale(0.015625)"/>
       <path id="DejaVuSans-74" d="M 1172 4494 
L 1172 3500 
L 2356 3500 
L 2356 3053 
L 1172 3053 
L 1172 1153 
Q 1172 725 1289 603 
Q 1406 481 1766 481 
L 2356 481 
L 2356 0 
L 1766 0 
Q 1100 0 847 248 
Q 594 497 594 1153 
L 594 3053 
L 172 3053 
L 172 3500 
L 594 3500 
L 594 4494 
L 1172 4494 
z
" transform="scale(0.015625)"/>
       <path id="DejaVuSans-61" d="M 2194 1759 
Q 1497 1759 1228 1600 
Q 959 1441 959 1056 
Q 959 750 1161 570 
Q 1363 391 1709 391 
Q 2188 391 2477 730 
Q 2766 1069 2766 1631 
L 2766 1759 
L 2194 1759 
z
M 3341 1997 
L 3341 0 
L 2766 0 
L 2766 531 
Q 2569 213 2275 61 
Q 1981 -91 1556 -91 
Q 1019 -91 701 211 
Q 384 513 384 1019 
Q 384 1609 779 1909 
Q 1175 2209 1959 2209 
L 2766 2209 
L 2766 2266 
Q 2766 2663 2505 2880 
Q 2244 3097 1772 3097 
Q 1472 3097 1187 3025 
Q 903 2953 641 2809 
L 641 3341 
Q 956 3463 1253 3523 
Q 1550 3584 1831 3584 
Q 2591 3584 2966 3190 
Q 3341 2797 3341 1997 
z
" transform="scale(0.015625)"/>
       <path id="DejaVuSans-69" d="M 603 3500 
L 1178 3500 
L 1178 0 
L 603 0 
L 603 3500 
z
M 603 4863 
L 1178 4863 
L 1178 4134 
L 603 4134 
L 603 4863 
z
" transform="scale(0.015625)"/>
       <path id="DejaVuSans-6e" d="M 3513 2113 
L 3513 0 
L 2938 0 
L 2938 2094 
Q 2938 2591 2744 2837 
Q 2550 3084 2163 3084 
Q 1697 3084 1428 2787 
Q 1159 2491 1159 1978 
L 1159 0 
L 581 0 
L 581 3500 
L 1159 3500 
L 1159 2956 
Q 1366 3272 1645 3428 
Q 1925 3584 2291 3584 
Q 2894 3584 3203 3211 
Q 3513 2838 3513 2113 
z
" transform="scale(0.015625)"/>
       <path id="DejaVuSans-3c3" d="M 1959 3044 
Q 1484 3044 1228 2700 
Q 959 2341 959 1747 
Q 959 1119 1226 758 
Q 1494 397 1959 397 
Q 2419 397 2687 759 
Q 2956 1122 2956 1747 
Q 2956 2319 2688 2700 
Q 2441 3044 1959 3044 
z
M 1959 3500 
L 3869 3500 
L 3869 2925 
L 3225 2925 
Q 3566 2438 3566 1747 
Q 3566 888 3138 400 
Q 2709 -91 1959 -91 
Q 1206 -91 781 400 
Q 353 888 353 1747 
Q 353 2613 781 3097 
Q 1134 3500 1959 3500 
z
" transform="scale(0.015625)"/>
       <path id="DejaVuSans-28" d="M 1984 4856 
Q 1566 4138 1362 3434 
Q 1159 2731 1159 2009 
Q 1159 1288 1364 580 
Q 1569 -128 1984 -844 
L 1484 -844 
Q 1016 -109 783 600 
Q 550 1309 550 2009 
Q 550 2706 781 3412 
Q 1013 4119 1484 4856 
L 1984 4856 
z
" transform="scale(0.015625)"/>
       <path id="DejaVuSans-70" d="M 1159 525 
L 1159 -1331 
L 581 -1331 
L 581 3500 
L 1159 3500 
L 1159 2969 
Q 1341 3281 1617 3432 
Q 1894 3584 2278 3584 
Q 2916 3584 3314 3078 
Q 3713 2572 3713 1747 
Q 3713 922 3314 415 
Q 2916 -91 2278 -91 
Q 1894 -91 1617 61 
Q 1341 213 1159 525 
z
M 3116 1747 
Q 3116 2381 2855 2742 
Q 2594 3103 2138 3103 
Q 1681 3103 1420 2742 
Q 1159 2381 1159 1747 
Q 1159 1113 1420 752 
Q 1681 391 2138 391 
Q 2594 391 2855 752 
Q 3116 1113 3116 1747 
z
" transform="scale(0.015625)"/>
       <path id="DejaVuSans-3d" d="M 678 2906 
L 4684 2906 
L 4684 2381 
L 678 2381 
L 678 2906 
z
M 678 1631 
L 4684 1631 
L 4684 1100 
L 678 1100 
L 678 1631 
z
" transform="scale(0.015625)"/>
       <path id="DejaVuSans-37" d="M 525 4666 
L 3525 4666 
L 3525 4397 
L 1831 0 
L 1172 0 
L 2766 4134 
L 525 4134 
L 525 4666 
z
" transform="scale(0.015625)"/>
       <path id="DejaVuSans-b1" d="M 2944 4013 
L 2944 2803 
L 4684 2803 
L 4684 2272 
L 2944 2272 
L 2944 1063 
L 2419 1063 
L 2419 2272 
L 678 2272 
L 678 2803 
L 2419 2803 
L 2419 4013 
L 2944 4013 
z
M 678 531 
L 4684 531 
L 4684 0 
L 678 0 
L 678 531 
z
" transform="scale(0.015625)"/>
       <path id="DejaVuSans-29" d="M 513 4856 
L 1013 4856 
Q 1481 4119 1714 3412 
Q 1947 2706 1947 2009 
Q 1947 1309 1714 600 
Q 1481 -109 1013 -844 
L 513 -844 
Q 928 -128 1133 580 
Q 1338 1288 1338 2009 
Q 1338 2731 1133 3434 
Q 928 4138 513 4856 
z
" transform="scale(0.015625)"/>
      </defs>
      <use xlink:href="#DejaVuSans-4d"/>
      <use xlink:href="#DejaVuSans-65" transform="translate(86.279297 0)"/>
      <use xlink:href="#DejaVuSans-6d" transform="translate(147.802734 0)"/>
      <use xlink:href="#DejaVuSans-6f" transform="translate(245.214844 0)"/>
      <use xlink:href="#DejaVuSans-72" transform="translate(306.396484 0)"/>
      <use xlink:href="#DejaVuSans-79" transform="translate(347.509766 0)"/>
      <use xlink:href="#DejaVuSans-20" transform="translate(406.689453 0)"/>
      <use xlink:href="#DejaVuSans-66" transform="translate(438.476562 0)"/>
      <use xlink:href="#DejaVuSans-6c" transform="translate(473.681641 0)"/>
      <use xlink:href="#DejaVuSans-75" transform="translate(501.464844 0)"/>
      <use xlink:href="#DejaVuSans-63" transform="translate(564.84375 0)"/>
      <use xlink:href="#DejaVuSans-74" transform="translate(619.824219 0)"/>
      <use xlink:href="#DejaVuSans-75" transform="translate(659.033203 0)"/>
      <use xlink:href="#DejaVuSans-61" transform="translate(722.412109 0)"/>
      <use xlink:href="#DejaVuSans-74" transform="translate(783.691406 0)"/>
      <use xlink:href="#DejaVuSans-69" transform="translate(822.900391 0)"/>
      <use xlink:href="#DejaVuSans-6f" transform="translate(850.683594 0)"/>
      <use xlink:href="#DejaVuSans-6e" transform="translate(911.865234 0)"/>
      <use xlink:href="#DejaVuSans-20" transform="translate(975.244141 0)"/>
      <use xlink:href="#DejaVuSans-3c3" transform="translate(1007.03125 0)"/>
      <use xlink:href="#DejaVuSans-20" transform="translate(1070.410156 0)"/>
      <use xlink:href="#DejaVuSans-28" transform="translate(1102.197266 0)"/>
      <use xlink:href="#DejaVuSans-63" transform="translate(1141.210938 0)"/>
      <use xlink:href="#DejaVuSans-61" transform="translate(1196.191406 0)"/>
      <use xlink:href="#DejaVuSans-70" transform="translate(1257.470703 0)"/>
      <use xlink:href="#DejaVuSans-61" transform="translate(1320.947266 0)"/>
      <use xlink:href="#DejaVuSans-63" transform="translate(1382.226562 0)"/>
      <use xlink:href="#DejaVuSans-69" transform="translate(1437.207031 0)"/>
      <use xlink:href="#DejaVuSans-74" transform="translate(1464.990234 0)"/>
      <use xlink:href="#DejaVuSans-79" transform="translate(1504.199219 0)"/>
      <use xlink:href="#DejaVuSans-20" transform="translate(1563.378906 0)"/>
      <use xlink:href="#DejaVuSans-3d" transform="translate(1595.166016 0)"/>
      <use xlink:href="#DejaVuSans-20" transform="translate(1678.955078 0)"/>
      <use xlink:href="#DejaVuSans-37" transform="translate(1710.742188 0)"/>
      <use xlink:href="#DejaVuSans-20" transform="translate(1774.365234 0)"/>
      <use xlink:href="#DejaVuSans-b1" transform="translate(1806.152344 0)"/>
      <use xlink:href="#DejaVuSans-20" transform="translate(1889.941406 0)"/>
      <use xlink:href="#DejaVuSans-3c3" transform="translate(1921.728516 0)"/>
      <use xlink:href="#DejaVuSans-29" transform="translate(1985.107422 0)"/>
     </g>
    </g>
   </g>
   <g id="matplotlib.axis_2">
    <g id="ytick_1">
     <g id="line2d_13">
      <path d="M 66.821563 439.562004 
L 848.451563 439.562004 
" clip-path="url(#pcf61a8c2d7)" style="fill: none; stroke: #b0b0b0; stroke-opacity: 0.2; stroke-width: 0.8; stroke-linecap: square"/>
     </g>
     <g id="line2d_14">
      <defs>
       <path id="md3ad21419d" d="M 0 0 
L -3.5 0 
" style="stroke: #000000; stroke-width: 0.8"/>
      </defs>
      <g>
       <use xlink:href="#md3ad21419d" x="66.821563" y="439.562004" style="stroke: #000000; stroke-width: 0.8"/>
      </g>
     </g>
     <g id="text_8">
      <!-- −0.020 -->
      <g transform="translate(22.81375 443.361223) scale(0.1 -0.1)">
       <defs>
        <path id="DejaVuSans-2212" d="M 678 2272 
L 4684 2272 
L 4684 1741 
L 678 1741 
L 678 2272 
z
" transform="scale(0.015625)"/>
        <path id="DejaVuSans-2e" d="M 684 794 
L 1344 794 
L 1344 0 
L 684 0 
L 684 794 
z
" transform="scale(0.015625)"/>
       </defs>
       <use xlink:href="#DejaVuSans-2212"/>
       <use xlink:href="#DejaVuSans-30" transform="translate(83.789062 0)"/>
       <use xlink:href="#DejaVuSans-2e" transform="translate(147.412109 0)"/>
       <use xlink:href="#DejaVuSans-30" transform="translate(179.199219 0)"/>
       <use xlink:href="#DejaVuSans-32" transform="translate(242.822266 0)"/>
       <use xlink:href="#DejaVuSans-30" transform="translate(306.445312 0)"/>
      </g>
     </g>
    </g>
    <g id="ytick_2">
     <g id="line2d_15">
      <path d="M 66.821563 367.777758 
L 848.451563 367.777758 
" clip-path="url(#pcf61a8c2d7)" style="fill: none; stroke: #b0b0b0; stroke-opacity: 0.2; stroke-width: 0.8; stroke-linecap: square"/>
     </g>
     <g id="line2d_16">
      <g>
       <use xlink:href="#md3ad21419d" x="66.821563" y="367.777758" style="stroke: #000000; stroke-width: 0.8"/>
      </g>
     </g>
     <g id="text_9">
      <!-- −0.015 -->
      <g transform="translate(22.81375 371.576977) scale(0.1 -0.1)">
       <use xlink:href="#DejaVuSans-2212"/>
       <use xlink:href="#DejaVuSans-30" transform="translate(83.789062 0)"/>
       <use xlink:href="#DejaVuSans-2e" transform="translate(147.412109 0)"/>
       <use xlink:href="#DejaVuSans-30" transform="translate(179.199219 0)"/>
       <use xlink:href="#DejaVuSans-31" transform="translate(242.822266 0)"/>
       <use xlink:href="#DejaVuSans-35" transform="translate(306.445312 0)"/>
      </g>
     </g>
    </g>
    <g id="ytick_3">
     <g id="line2d_17">
      <path d="M 66.821563 295.993512 
L 848.451563 295.993512 
" clip-path="url(#pcf61a8c2d7)" style="fill: none; stroke: #b0b0b0; stroke-opacity: 0.2; stroke-width: 0.8; stroke-linecap: square"/>
     </g>
     <g id="line2d_18">
      <g>
       <use xlink:href="#md3ad21419d" x="66.821563" y="295.993512" style="stroke: #000000; stroke-width: 0.8"/>
      </g>
     </g>
     <g id="text_10">
      <!-- −0.010 -->
      <g transform="translate(22.81375 299.792731) scale(0.1 -0.1)">
       <use xlink:href="#DejaVuSans-2212"/>
       <use xlink:href="#DejaVuSans-30" transform="translate(83.789062 0)"/>
       <use xlink:href="#DejaVuSans-2e" transform="translate(147.412109 0)"/>
       <use xlink:href="#DejaVuSans-30" transform="translate(179.199219 0)"/>
       <use xlink:href="#DejaVuSans-31" transform="translate(242.822266 0)"/>
       <use xlink:href="#DejaVuSans-30" transform="translate(306.445312 0)"/>
      </g>
     </g>
    </g>
    <g id="ytick_4">
     <g id="line2d_19">
      <path d="M 66.821563 224.209266 
L 848.451563 224.209266 
" clip-path="url(#pcf61a8c2d7)" style="fill: none; stroke: #b0b0b0; stroke-opacity: 0.2; stroke-width: 0.8; stroke-linecap: square"/>
     </g>
     <g id="line2d_20">
      <g>
       <use xlink:href="#md3ad21419d" x="66.821563" y="224.209266" style="stroke: #000000; stroke-width: 0.8"/>
      </g>
     </g>
     <g id="text_11">
      <!-- −0.005 -->
      <g transform="translate(22.81375 228.008484) scale(0.1 -0.1)">
       <use xlink:href="#DejaVuSans-2212"/>
       <use xlink:href="#DejaVuSans-30" transform="translate(83.789062 0)"/>
       <use xlink:href="#DejaVuSans-2e" transform="translate(147.412109 0)"/>
       <use xlink:href="#DejaVuSans-30" transform="translate(179.199219 0)"/>
       <use xlink:href="#DejaVuSans-30" transform="translate(242.822266 0)"/>
       <use xlink:href="#DejaVuSans-35" transform="translate(306.445312 0)"/>
      </g>
     </g>
    </g>
    <g id="ytick_5">
     <g id="line2d_21">
      <path d="M 66.821563 152.425019 
L 848.451563 152.425019 
" clip-path="url(#pcf61a8c2d7)" style="fill: none; stroke: #b0b0b0; stroke-opacity: 0.2; stroke-width: 0.8; stroke-linecap: square"/>
     </g>
     <g id="line2d_22">
      <g>
       <use xlink:href="#md3ad21419d" x="66.821563" y="152.425019" style="stroke: #000000; stroke-width: 0.8"/>
      </g>
     </g>
     <g id="text_12">
      <!-- 0.000 -->
      <g transform="translate(31.193438 156.224238) scale(0.1 -0.1)">
       <use xlink:href="#DejaVuSans-30"/>
       <use xlink:href="#DejaVuSans-2e" transform="translate(63.623047 0)"/>
       <use xlink:href="#DejaVuSans-30" transform="translate(95.410156 0)"/>
       <use xlink:href="#DejaVuSans-30" transform="translate(159.033203 0)"/>
       <use xlink:href="#DejaVuSans-30" transform="translate(222.65625 0)"/>
      </g>
     </g>
    </g>
    <g id="ytick_6">
     <g id="line2d_23">
      <path d="M 66.821563 80.640773 
L 848.451563 80.640773 
" clip-path="url(#pcf61a8c2d7)" style="fill: none; stroke: #b0b0b0; stroke-opacity: 0.2; stroke-width: 0.8; stroke-linecap: square"/>
     </g>
     <g id="line2d_24">
      <g>
       <use xlink:href="#md3ad21419d" x="66.821563" y="80.640773" style="stroke: #000000; stroke-width: 0.8"/>
      </g>
     </g>
     <g id="text_13">
      <!-- 0.005 -->
      <g transform="translate(31.193438 84.439992) scale(0.1 -0.1)">
       <use xlink:href="#DejaVuSans-30"/>
       <use xlink:href="#DejaVuSans-2e" transform="translate(63.623047 0)"/>
       <use xlink:href="#DejaVuSans-30" transform="translate(95.410156 0)"/>
       <use xlink:href="#DejaVuSans-30" transform="translate(159.033203 0)"/>
       <use xlink:href="#DejaVuSans-35" transform="translate(222.65625 0)"/>
      </g>
     </g>
    </g>
    <g id="text_14">
     <!-- P2 cond. win rate: Bounded minus Zwick -->
     <g transform="translate(16.318125 369.836312) rotate(-90) scale(0.12 -0.12)">
      <defs>
       <path id="DejaVuSans-50" d="M 1259 4147 
L 1259 2394 
L 2053 2394 
Q 2494 2394 2734 2622 
Q 2975 2850 2975 3272 
Q 2975 3691 2734 3919 
Q 2494 4147 2053 4147 
L 1259 4147 
z
M 628 4666 
L 2053 4666 
Q 2838 4666 3239 4311 
Q 3641 3956 3641 3272 
Q 3641 2581 3239 2228 
Q 2838 1875 2053 1875 
L 1259 1875 
L 1259 0 
L 628 0 
L 628 4666 
z
" transform="scale(0.015625)"/>
       <path id="DejaVuSans-64" d="M 2906 2969 
L 2906 4863 
L 3481 4863 
L 3481 0 
L 2906 0 
L 2906 525 
Q 2725 213 2448 61 
Q 2172 -91 1784 -91 
Q 1150 -91 751 415 
Q 353 922 353 1747 
Q 353 2572 751 3078 
Q 1150 3584 1784 3584 
Q 2172 3584 2448 3432 
Q 2725 3281 2906 2969 
z
M 947 1747 
Q 947 1113 1208 752 
Q 1469 391 1925 391 
Q 2381 391 2643 752 
Q 2906 1113 2906 1747 
Q 2906 2381 2643 2742 
Q 2381 3103 1925 3103 
Q 1469 3103 1208 2742 
Q 947 2381 947 1747 
z
" transform="scale(0.015625)"/>
       <path id="DejaVuSans-77" d="M 269 3500 
L 844 3500 
L 1563 769 
L 2278 3500 
L 2956 3500 
L 3675 769 
L 4391 3500 
L 4966 3500 
L 4050 0 
L 3372 0 
L 2619 2869 
L 1863 0 
L 1184 0 
L 269 3500 
z
" transform="scale(0.015625)"/>
       <path id="DejaVuSans-3a" d="M 750 794 
L 1409 794 
L 1409 0 
L 750 0 
L 750 794 
z
M 750 3309 
L 1409 3309 
L 1409 2516 
L 750 2516 
L 750 3309 
z
" transform="scale(0.015625)"/>
       <path id="DejaVuSans-42" d="M 1259 2228 
L 1259 519 
L 2272 519 
Q 2781 519 3026 730 
Q 3272 941 3272 1375 
Q 3272 1813 3026 2020 
Q 2781 2228 2272 2228 
L 1259 2228 
z
M 1259 4147 
L 1259 2741 
L 2194 2741 
Q 2656 2741 2882 2914 
Q 3109 3088 3109 3444 
Q 3109 3797 2882 3972 
Q 2656 4147 2194 4147 
L 1259 4147 
z
M 628 4666 
L 2241 4666 
Q 2963 4666 3353 4366 
Q 3744 4066 3744 3513 
Q 3744 3084 3544 2831 
Q 3344 2578 2956 2516 
Q 3422 2416 3680 2098 
Q 3938 1781 3938 1306 
Q 3938 681 3513 340 
Q 3088 0 2303 0 
L 628 0 
L 628 4666 
z
" transform="scale(0.015625)"/>
       <path id="DejaVuSans-73" d="M 2834 3397 
L 2834 2853 
Q 2591 2978 2328 3040 
Q 2066 3103 1784 3103 
Q 1356 3103 1142 2972 
Q 928 2841 928 2578 
Q 928 2378 1081 2264 
Q 1234 2150 1697 2047 
L 1894 2003 
Q 2506 1872 2764 1633 
Q 3022 1394 3022 966 
Q 3022 478 2636 193 
Q 2250 -91 1575 -91 
Q 1294 -91 989 -36 
Q 684 19 347 128 
L 347 722 
Q 666 556 975 473 
Q 1284 391 1588 391 
Q 1994 391 2212 530 
Q 2431 669 2431 922 
Q 2431 1156 2273 1281 
Q 2116 1406 1581 1522 
L 1381 1569 
Q 847 1681 609 1914 
Q 372 2147 372 2553 
Q 372 3047 722 3315 
Q 1072 3584 1716 3584 
Q 2034 3584 2315 3537 
Q 2597 3491 2834 3397 
z
" transform="scale(0.015625)"/>
       <path id="DejaVuSans-5a" d="M 359 4666 
L 4025 4666 
L 4025 4184 
L 1075 531 
L 4097 531 
L 4097 0 
L 288 0 
L 288 481 
L 3238 4134 
L 359 4134 
L 359 4666 
z
" transform="scale(0.015625)"/>
       <path id="DejaVuSans-6b" d="M 581 4863 
L 1159 4863 
L 1159 1991 
L 2875 3500 
L 3609 3500 
L 1753 1863 
L 3688 0 
L 2938 0 
L 1159 1709 
L 1159 0 
L 581 0 
L 581 4863 
z
" transform="scale(0.015625)"/>
      </defs>
      <use xlink:href="#DejaVuSans-50"/>
      <use xlink:href="#DejaVuSans-32" transform="translate(60.302734 0)"/>
      <use xlink:href="#DejaVuSans-20" transform="translate(123.925781 0)"/>
      <use xlink:href="#DejaVuSans-63" transform="translate(155.712891 0)"/>
      <use xlink:href="#DejaVuSans-6f" transform="translate(210.693359 0)"/>
      <use xlink:href="#DejaVuSans-6e" transform="translate(271.875 0)"/>
      <use xlink:href="#DejaVuSans-64" transform="translate(335.253906 0)"/>
      <use xlink:href="#DejaVuSans-2e" transform="translate(398.730469 0)"/>
      <use xlink:href="#DejaVuSans-20" transform="translate(430.517578 0)"/>
      <use xlink:href="#DejaVuSans-77" transform="translate(462.304688 0)"/>
      <use xlink:href="#DejaVuSans-69" transform="translate(544.091797 0)"/>
      <use xlink:href="#DejaVuSans-6e" transform="translate(571.875 0)"/>
      <use xlink:href="#DejaVuSans-20" transform="translate(635.253906 0)"/>
      <use xlink:href="#DejaVuSans-72" transform="translate(667.041016 0)"/>
      <use xlink:href="#DejaVuSans-61" transform="translate(708.154297 0)"/>
      <use xlink:href="#DejaVuSans-74" transform="translate(769.433594 0)"/>
      <use xlink:href="#DejaVuSans-65" transform="translate(808.642578 0)"/>
      <use xlink:href="#DejaVuSans-3a" transform="translate(870.166016 0)"/>
      <use xlink:href="#DejaVuSans-20" transform="translate(903.857422 0)"/>
      <use xlink:href="#DejaVuSans-42" transform="translate(935.644531 0)"/>
      <use xlink:href="#DejaVuSans-6f" transform="translate(1004.248047 0)"/>
      <use xlink:href="#DejaVuSans-75" transform="translate(1065.429688 0)"/>
      <use xlink:href="#DejaVuSans-6e" transform="translate(1128.808594 0)"/>
      <use xlink:href="#DejaVuSans-64" transform="translate(1192.1875 0)"/>
      <use xlink:href="#DejaVuSans-65" transform="translate(1255.664062 0)"/>
      <use xlink:href="#DejaVuSans-64" transform="translate(1317.1875 0)"/>
      <use xlink:href="#DejaVuSans-20" transform="translate(1380.664062 0)"/>
      <use xlink:href="#DejaVuSans-6d" transform="translate(1412.451172 0)"/>
      <use xlink:href="#DejaVuSans-69" transform="translate(1509.863281 0)"/>
      <use xlink:href="#DejaVuSans-6e" transform="translate(1537.646484 0)"/>
      <use xlink:href="#DejaVuSans-75" transform="translate(1601.025391 0)"/>
      <use xlink:href="#DejaVuSans-73" transform="translate(1664.404297 0)"/>
      <use xlink:href="#DejaVuSans-20" transform="translate(1716.503906 0)"/>
      <use xlink:href="#DejaVuSans-5a" transform="translate(1748.291016 0)"/>
      <use xlink:href="#DejaVuSans-77" transform="translate(1816.796875 0)"/>
      <use xlink:href="#DejaVuSans-69" transform="translate(1898.583984 0)"/>
      <use xlink:href="#DejaVuSans-63" transform="translate(1926.367188 0)"/>
      <use xlink:href="#DejaVuSans-6b" transform="translate(1981.347656 0)"/>
     </g>
    </g>
   </g>
   <g id="line2d_25">
    <path d="M 102.350199 313.801947 
L 244.464744 436.447761 
L 386.57929 343.15323 
L 528.693835 271.526733 
L 670.808381 221.377876 
L 812.922926 245.089819 
" clip-path="url(#pcf61a8c2d7)" style="fill: none; stroke: #463480; stroke-width: 2; stroke-linecap: square"/>
    <defs>
     <path id="m87f36ed2fc" d="M 0 3.5 
C 0.928211 3.5 1.81853 3.131218 2.474874 2.474874 
C 3.131218 1.81853 3.5 0.928211 3.5 0 
C 3.5 -0.928211 3.131218 -1.81853 2.474874 -2.474874 
C 1.81853 -3.131218 0.928211 -3.5 0 -3.5 
C -0.928211 -3.5 -1.81853 -3.131218 -2.474874 -2.474874 
C -3.131218 -1.81853 -3.5 -0.928211 -3.5 0 
C -3.5 0.928211 -3.131218 1.81853 -2.474874 2.474874 
C -1.81853 3.131218 -0.928211 3.5 0 3.5 
z
" style="stroke: #463480"/>
    </defs>
    <g clip-path="url(#pcf61a8c2d7)">
     <use xlink:href="#m87f36ed2fc" x="102.350199" y="313.801947" style="fill: #463480; stroke: #463480"/>
     <use xlink:href="#m87f36ed2fc" x="244.464744" y="436.447761" style="fill: #463480; stroke: #463480"/>
     <use xlink:href="#m87f36ed2fc" x="386.57929" y="343.15323" style="fill: #463480; stroke: #463480"/>
     <use xlink:href="#m87f36ed2fc" x="528.693835" y="271.526733" style="fill: #463480; stroke: #463480"/>
     <use xlink:href="#m87f36ed2fc" x="670.808381" y="221.377876" style="fill: #463480; stroke: #463480"/>
     <use xlink:href="#m87f36ed2fc" x="812.922926" y="245.089819" style="fill: #463480; stroke: #463480"/>
    </g>
   </g>
   <g id="line2d_26">
    <path d="M 102.350199 58.520489 
L 244.464744 125.981148 
L 386.57929 171.773653 
L 528.693835 176.691072 
L 670.808381 238.783441 
L 812.922926 168.031949 
" clip-path="url(#pcf61a8c2d7)" style="fill: none; stroke: #31668e; stroke-width: 2; stroke-linecap: square"/>
    <defs>
     <path id="m00a3f5b72d" d="M 0 3.5 
C 0.928211 3.5 1.81853 3.131218 2.474874 2.474874 
C 3.131218 1.81853 3.5 0.928211 3.5 0 
C 3.5 -0.928211 3.131218 -1.81853 2.474874 -2.474874 
C 1.81853 -3.131218 0.928211 -3.5 0 -3.5 
C -0.928211 -3.5 -1.81853 -3.131218 -2.474874 -2.474874 
C -3.131218 -1.81853 -3.5 -0.928211 -3.5 0 
C -3.5 0.928211 -3.131218 1.81853 -2.474874 2.474874 
C -1.81853 3.131218 -0.928211 3.5 0 3.5 
z
" style="stroke: #31668e"/>
    </defs>
    <g clip-path="url(#pcf61a8c2d7)">
     <use xlink:href="#m00a3f5b72d" x="102.350199" y="58.520489" style="fill: #31668e; stroke: #31668e"/>
     <use xlink:href="#m00a3f5b72d" x="244.464744" y="125.981148" style="fill: #31668e; stroke: #31668e"/>
     <use xlink:href="#m00a3f5b72d" x="386.57929" y="171.773653" style="fill: #31668e; stroke: #31668e"/>
     <use xlink:href="#m00a3f5b72d" x="528.693835" y="176.691072" style="fill: #31668e; stroke: #31668e"/>
     <use xlink:href="#m00a3f5b72d" x="670.808381" y="238.783441" style="fill: #31668e; stroke: #31668e"/>
     <use xlink:href="#m00a3f5b72d" x="812.922926" y="168.031949" style="fill: #31668e; stroke: #31668e"/>
    </g>
   </g>
   <g id="line2d_27">
    <path d="M 102.350199 122.324951 
L 244.464744 188.108572 
L 386.57929 212.822978 
L 528.693835 187.338127 
L 670.808381 233.27752 
L 812.922926 158.985143 
" clip-path="url(#pcf61a8c2d7)" style="fill: none; stroke: #21918c; stroke-width: 2; stroke-linecap: square"/>
    <defs>
     <path id="m0a1117882b" d="M 0 3.5 
C 0.928211 3.5 1.81853 3.131218 2.474874 2.474874 
C 3.131218 1.81853 3.5 0.928211 3.5 0 
C 3.5 -0.928211 3.131218 -1.81853 2.474874 -2.474874 
C 1.81853 -3.131218 0.928211 -3.5 0 -3.5 
C -0.928211 -3.5 -1.81853 -3.131218 -2.474874 -2.474874 
C -3.131218 -1.81853 -3.5 -0.928211 -3.5 0 
C -3.5 0.928211 -3.131218 1.81853 -2.474874 2.474874 
C -1.81853 3.131218 -0.928211 3.5 0 3.5 
z
" style="stroke: #21918c"/>
    </defs>
    <g clip-path="url(#pcf61a8c2d7)">
     <use xlink:href="#m0a1117882b" x="102.350199" y="122.324951" style="fill: #21918c; stroke: #21918c"/>
     <use xlink:href="#m0a1117882b" x="244.464744" y="188.108572" style="fill: #21918c; stroke: #21918c"/>
     <use xlink:href="#m0a1117882b" x="386.57929" y="212.822978" style="fill: #21918c; stroke: #21918c"/>
     <use xlink:href="#m0a1117882b" x="528.693835" y="187.338127" style="fill: #21918c; stroke: #21918c"/>
     <use xlink:href="#m0a1117882b" x="670.808381" y="233.27752" style="fill: #21918c; stroke: #21918c"/>
     <use xlink:href="#m0a1117882b" x="812.922926" y="158.985143" style="fill: #21918c; stroke: #21918c"/>
    </g>
   </g>
   <g id="line2d_28">
    <path d="M 102.350199 69.637214 
L 244.464744 184.164546 
L 386.57929 164.081721 
L 528.693835 213.401684 
L 670.808381 142.118149 
L 812.922926 122.045301 
" clip-path="url(#pcf61a8c2d7)" style="fill: none; stroke: #38b977; stroke-width: 2; stroke-linecap: square"/>
    <defs>
     <path id="me14118b9df" d="M 0 3.5 
C 0.928211 3.5 1.81853 3.131218 2.474874 2.474874 
C 3.131218 1.81853 3.5 0.928211 3.5 0 
C 3.5 -0.928211 3.131218 -1.81853 2.474874 -2.474874 
C 1.81853 -3.131218 0.928211 -3.5 0 -3.5 
C -0.928211 -3.5 -1.81853 -3.131218 -2.474874 -2.474874 
C -3.131218 -1.81853 -3.5 -0.928211 -3.5 0 
C -3.5 0.928211 -3.131218 1.81853 -2.474874 2.474874 
C -1.81853 3.131218 -0.928211 3.5 0 3.5 
z
" style="stroke: #38b977"/>
    </defs>
    <g clip-path="url(#pcf61a8c2d7)">
     <use xlink:href="#me14118b9df" x="102.350199" y="69.637214" style="fill: #38b977; stroke: #38b977"/>
     <use xlink:href="#me14118b9df" x="244.464744" y="184.164546" style="fill: #38b977; stroke: #38b977"/>
     <use xlink:href="#me14118b9df" x="386.57929" y="164.081721" style="fill: #38b977; stroke: #38b977"/>
     <use xlink:href="#me14118b9df" x="528.693835" y="213.401684" style="fill: #38b977; stroke: #38b977"/>
     <use xlink:href="#me14118b9df" x="670.808381" y="142.118149" style="fill: #38b977; stroke: #38b977"/>
     <use xlink:href="#me14118b9df" x="812.922926" y="122.045301" style="fill: #38b977; stroke: #38b977"/>
    </g>
   </g>
   <g id="line2d_29">
    <path d="M 102.350199 104.503855 
L 244.464744 132.757154 
L 386.57929 239.830291 
L 528.693835 188.571238 
L 670.808381 96.536778 
L 812.922926 218.11852 
" clip-path="url(#pcf61a8c2d7)" style="fill: none; stroke: #9bd93c; stroke-width: 2; stroke-linecap: square"/>
    <defs>
     <path id="md28a0ad601" d="M 0 3.5 
C 0.928211 3.5 1.81853 3.131218 2.474874 2.474874 
C 3.131218 1.81853 3.5 0.928211 3.5 0 
C 3.5 -0.928211 3.131218 -1.81853 2.474874 -2.474874 
C 1.81853 -3.131218 0.928211 -3.5 0 -3.5 
C -0.928211 -3.5 -1.81853 -3.131218 -2.474874 -2.474874 
C -3.131218 -1.81853 -3.5 -0.928211 -3.5 0 
C -3.5 0.928211 -3.131218 1.81853 -2.474874 2.474874 
C -1.81853 3.131218 -0.928211 3.5 0 3.5 
z
" style="stroke: #9bd93c"/>
    </defs>
    <g clip-path="url(#pcf61a8c2d7)">
     <use xlink:href="#md28a0ad601" x="102.350199" y="104.503855" style="fill: #9bd93c; stroke: #9bd93c"/>
     <use xlink:href="#md28a0ad601" x="244.464744" y="132.757154" style="fill: #9bd93c; stroke: #9bd93c"/>
     <use xlink:href="#md28a0ad601" x="386.57929" y="239.830291" style="fill: #9bd93c; stroke: #9bd93c"/>
     <use xlink:href="#md28a0ad601" x="528.693835" y="188.571238" style="fill: #9bd93c; stroke: #9bd93c"/>
     <use xlink:href="#md28a0ad601" x="670.808381" y="96.536778" style="fill: #9bd93c; stroke: #9bd93c"/>
     <use xlink:href="#md28a0ad601" x="812.922926" y="218.11852" style="fill: #9bd93c; stroke: #9bd93c"/>
    </g>
   </g>
   <g id="line2d_30">
    <path d="M 66.821563 152.425019 
L 848.451563 152.425019 
" clip-path="url(#pcf61a8c2d7)" style="fill: none; stroke-dasharray: 5.55,2.4; stroke-dashoffset: 0; stroke: #000000; stroke-opacity: 0.5; stroke-width: 1.5"/>
   </g>
   <g id="patch_3">
    <path d="M 66.821563 455.344125 
L 66.821563 39.624125 
" style="fill: none; stroke: #000000; stroke-width: 0.8; stroke-linejoin: miter; stroke-linecap: square"/>
   </g>
   <g id="patch_4">
    <path d="M 848.451563 455.344125 
L 848.451563 39.624125 
" style="fill: none; stroke: #000000; stroke-width: 0.8; stroke-linejoin: miter; stroke-linecap: square"/>
   </g>
   <g id="patch_5">
    <path d="M 66.821563 455.344125 
L 848.451563 455.344125 
" style="fill: none; stroke: #000000; stroke-width: 0.8; stroke-linejoin: miter; stroke-linecap: square"/>
   </g>
   <g id="patch_6">
    <path d="M 66.821563 39.624125 
L 848.451563 39.624125 
" style="fill: none; stroke: #000000; stroke-width: 0.8; stroke-linejoin: miter; stroke-linecap: square"/>
   </g>
   <g id="text_15">
    <!-- Does Fluctuation Change Which Strategy Is Better? -->
    <g transform="translate(254.7175 17.837812) scale(0.14 -0.14)">
     <defs>
      <path id="DejaVuSans-Bold-44" d="M 1791 3756 
L 1791 909 
L 2222 909 
Q 2959 909 3348 1275 
Q 3738 1641 3738 2338 
Q 3738 3031 3350 3393 
Q 2963 3756 2222 3756 
L 1791 3756 
z
M 588 4666 
L 1856 4666 
Q 2919 4666 3439 4514 
Q 3959 4363 4331 4000 
Q 4659 3684 4818 3271 
Q 4978 2859 4978 2338 
Q 4978 1809 4818 1395 
Q 4659 981 4331 666 
Q 3956 303 3431 151 
Q 2906 0 1856 0 
L 588 0 
L 588 4666 
z
" transform="scale(0.015625)"/>
      <path id="DejaVuSans-Bold-6f" d="M 2203 2784 
Q 1831 2784 1636 2517 
Q 1441 2250 1441 1747 
Q 1441 1244 1636 976 
Q 1831 709 2203 709 
Q 2569 709 2762 976 
Q 2956 1244 2956 1747 
Q 2956 2250 2762 2517 
Q 2569 2784 2203 2784 
z
M 2203 3584 
Q 3106 3584 3614 3096 
Q 4122 2609 4122 1747 
Q 4122 884 3614 396 
Q 3106 -91 2203 -91 
Q 1297 -91 786 396 
Q 275 884 275 1747 
Q 275 2609 786 3096 
Q 1297 3584 2203 3584 
z
" transform="scale(0.015625)"/>
      <path id="DejaVuSans-Bold-65" d="M 4031 1759 
L 4031 1441 
L 1416 1441 
Q 1456 1047 1700 850 
Q 1944 653 2381 653 
Q 2734 653 3104 758 
Q 3475 863 3866 1075 
L 3866 213 
Q 3469 63 3072 -14 
Q 2675 -91 2278 -91 
Q 1328 -91 801 392 
Q 275 875 275 1747 
Q 275 2603 792 3093 
Q 1309 3584 2216 3584 
Q 3041 3584 3536 3087 
Q 4031 2591 4031 1759 
z
M 2881 2131 
Q 2881 2450 2695 2645 
Q 2509 2841 2209 2841 
Q 1884 2841 1681 2658 
Q 1478 2475 1428 2131 
L 2881 2131 
z
" transform="scale(0.015625)"/>
      <path id="DejaVuSans-Bold-73" d="M 3272 3391 
L 3272 2541 
Q 2913 2691 2578 2766 
Q 2244 2841 1947 2841 
Q 1628 2841 1473 2761 
Q 1319 2681 1319 2516 
Q 1319 2381 1436 2309 
Q 1553 2238 1856 2203 
L 2053 2175 
Q 2913 2066 3209 1816 
Q 3506 1566 3506 1031 
Q 3506 472 3093 190 
Q 2681 -91 1863 -91 
Q 1516 -91 1145 -36 
Q 775 19 384 128 
L 384 978 
Q 719 816 1070 734 
Q 1422 653 1784 653 
Q 2113 653 2278 743 
Q 2444 834 2444 1013 
Q 2444 1163 2330 1236 
Q 2216 1309 1875 1350 
L 1678 1375 
Q 931 1469 631 1722 
Q 331 1975 331 2491 
Q 331 3047 712 3315 
Q 1094 3584 1881 3584 
Q 2191 3584 2531 3537 
Q 2872 3491 3272 3391 
z
" transform="scale(0.015625)"/>
      <path id="DejaVuSans-Bold-20" transform="scale(0.015625)"/>
      <path id="DejaVuSans-Bold-46" d="M 588 4666 
L 3834 4666 
L 3834 3756 
L 1791 3756 
L 1791 2888 
L 3713 2888 
L 3713 1978 
L 1791 1978 
L 1791 0 
L 588 0 
L 588 4666 
z
" transform="scale(0.015625)"/>
      <path id="DejaVuSans-Bold-6c" d="M 538 4863 
L 1656 4863 
L 1656 0 
L 538 0 
L 538 4863 
z
" transform="scale(0.015625)"/>
      <path id="DejaVuSans-Bold-75" d="M 500 1363 
L 500 3500 
L 1625 3500 
L 1625 3150 
Q 1625 2866 1622 2436 
Q 1619 2006 1619 1863 
Q 1619 1441 1641 1255 
Q 1663 1069 1716 984 
Q 1784 875 1895 815 
Q 2006 756 2150 756 
Q 2500 756 2700 1025 
Q 2900 1294 2900 1772 
L 2900 3500 
L 4019 3500 
L 4019 0 
L 2900 0 
L 2900 506 
Q 2647 200 2364 54 
Q 2081 -91 1741 -91 
Q 1134 -91 817 281 
Q 500 653 500 1363 
z
" transform="scale(0.015625)"/>
      <path id="DejaVuSans-Bold-63" d="M 3366 3391 
L 3366 2478 
Q 3138 2634 2908 2709 
Q 2678 2784 2431 2784 
Q 1963 2784 1702 2511 
Q 1441 2238 1441 1747 
Q 1441 1256 1702 982 
Q 1963 709 2431 709 
Q 2694 709 2930 787 
Q 3166 866 3366 1019 
L 3366 103 
Q 3103 6 2833 -42 
Q 2563 -91 2291 -91 
Q 1344 -91 809 395 
Q 275 881 275 1747 
Q 275 2613 809 3098 
Q 1344 3584 2291 3584 
Q 2566 3584 2833 3536 
Q 3100 3488 3366 3391 
z
" transform="scale(0.015625)"/>
      <path id="DejaVuSans-Bold-74" d="M 1759 4494 
L 1759 3500 
L 2913 3500 
L 2913 2700 
L 1759 2700 
L 1759 1216 
Q 1759 972 1856 886 
Q 1953 800 2241 800 
L 2816 800 
L 2816 0 
L 1856 0 
Q 1194 0 917 276 
Q 641 553 641 1216 
L 641 2700 
L 84 2700 
L 84 3500 
L 641 3500 
L 641 4494 
L 1759 4494 
z
" transform="scale(0.015625)"/>
      <path id="DejaVuSans-Bold-61" d="M 2106 1575 
Q 1756 1575 1579 1456 
Q 1403 1338 1403 1106 
Q 1403 894 1545 773 
Q 1688 653 1941 653 
Q 2256 653 2472 879 
Q 2688 1106 2688 1447 
L 2688 1575 
L 2106 1575 
z
M 3816 1997 
L 3816 0 
L 2688 0 
L 2688 519 
Q 2463 200 2181 54 
Q 1900 -91 1497 -91 
Q 953 -91 614 226 
Q 275 544 275 1050 
Q 275 1666 698 1953 
Q 1122 2241 2028 2241 
L 2688 2241 
L 2688 2328 
Q 2688 2594 2478 2717 
Q 2269 2841 1825 2841 
Q 1466 2841 1156 2769 
Q 847 2697 581 2553 
L 581 3406 
Q 941 3494 1303 3539 
Q 1666 3584 2028 3584 
Q 2975 3584 3395 3211 
Q 3816 2838 3816 1997 
z
" transform="scale(0.015625)"/>
      <path id="DejaVuSans-Bold-69" d="M 538 3500 
L 1656 3500 
L 1656 0 
L 538 0 
L 538 3500 
z
M 538 4863 
L 1656 4863 
L 1656 3950 
L 538 3950 
L 538 4863 
z
" transform="scale(0.015625)"/>
      <path id="DejaVuSans-Bold-6e" d="M 4056 2131 
L 4056 0 
L 2931 0 
L 2931 347 
L 2931 1631 
Q 2931 2084 2911 2256 
Q 2891 2428 2841 2509 
Q 2775 2619 2662 2680 
Q 2550 2741 2406 2741 
Q 2056 2741 1856 2470 
Q 1656 2200 1656 1722 
L 1656 0 
L 538 0 
L 538 3500 
L 1656 3500 
L 1656 2988 
Q 1909 3294 2193 3439 
Q 2478 3584 2822 3584 
Q 3428 3584 3742 3212 
Q 4056 2841 4056 2131 
z
" transform="scale(0.015625)"/>
      <path id="DejaVuSans-Bold-43" d="M 4288 256 
Q 3956 84 3597 -3 
Q 3238 -91 2847 -91 
Q 1681 -91 1000 561 
Q 319 1213 319 2328 
Q 319 3447 1000 4098 
Q 1681 4750 2847 4750 
Q 3238 4750 3597 4662 
Q 3956 4575 4288 4403 
L 4288 3438 
Q 3953 3666 3628 3772 
Q 3303 3878 2944 3878 
Q 2300 3878 1931 3465 
Q 1563 3053 1563 2328 
Q 1563 1606 1931 1193 
Q 2300 781 2944 781 
Q 3303 781 3628 887 
Q 3953 994 4288 1222 
L 4288 256 
z
" transform="scale(0.015625)"/>
      <path id="DejaVuSans-Bold-68" d="M 4056 2131 
L 4056 0 
L 2931 0 
L 2931 347 
L 2931 1625 
Q 2931 2084 2911 2256 
Q 2891 2428 2841 2509 
Q 2775 2619 2662 2680 
Q 2550 2741 2406 2741 
Q 2056 2741 1856 2470 
Q 1656 2200 1656 1722 
L 1656 0 
L 538 0 
L 538 4863 
L 1656 4863 
L 1656 2988 
Q 1909 3294 2193 3439 
Q 2478 3584 2822 3584 
Q 3428 3584 3742 3212 
Q 4056 2841 4056 2131 
z
" transform="scale(0.015625)"/>
      <path id="DejaVuSans-Bold-67" d="M 2919 594 
Q 2688 288 2409 144 
Q 2131 0 1766 0 
Q 1125 0 706 504 
Q 288 1009 288 1791 
Q 288 2575 706 3076 
Q 1125 3578 1766 3578 
Q 2131 3578 2409 3434 
Q 2688 3291 2919 2981 
L 2919 3500 
L 4044 3500 
L 4044 353 
Q 4044 -491 3511 -936 
Q 2978 -1381 1966 -1381 
Q 1638 -1381 1331 -1331 
Q 1025 -1281 716 -1178 
L 716 -306 
Q 1009 -475 1290 -558 
Q 1572 -641 1856 -641 
Q 2406 -641 2662 -400 
Q 2919 -159 2919 353 
L 2919 594 
z
M 2181 2772 
Q 1834 2772 1640 2515 
Q 1447 2259 1447 1791 
Q 1447 1309 1634 1061 
Q 1822 813 2181 813 
Q 2531 813 2725 1069 
Q 2919 1325 2919 1791 
Q 2919 2259 2725 2515 
Q 2531 2772 2181 2772 
z
" transform="scale(0.015625)"/>
      <path id="DejaVuSans-Bold-57" d="M 191 4666 
L 1344 4666 
L 2150 1275 
L 2950 4666 
L 4109 4666 
L 4909 1275 
L 5716 4666 
L 6859 4666 
L 5759 0 
L 4372 0 
L 3525 3547 
L 2688 0 
L 1300 0 
L 191 4666 
z
" transform="scale(0.015625)"/>
      <path id="DejaVuSans-Bold-53" d="M 3834 4519 
L 3834 3531 
Q 3450 3703 3084 3790 
Q 2719 3878 2394 3878 
Q 1963 3878 1756 3759 
Q 1550 3641 1550 3391 
Q 1550 3203 1689 3098 
Q 1828 2994 2194 2919 
L 2706 2816 
Q 3484 2659 3812 2340 
Q 4141 2022 4141 1434 
Q 4141 663 3683 286 
Q 3225 -91 2284 -91 
Q 1841 -91 1394 -6 
Q 947 78 500 244 
L 500 1259 
Q 947 1022 1364 901 
Q 1781 781 2169 781 
Q 2563 781 2772 912 
Q 2981 1044 2981 1288 
Q 2981 1506 2839 1625 
Q 2697 1744 2272 1838 
L 1806 1941 
Q 1106 2091 782 2419 
Q 459 2747 459 3303 
Q 459 4000 909 4375 
Q 1359 4750 2203 4750 
Q 2588 4750 2994 4692 
Q 3400 4634 3834 4519 
z
" transform="scale(0.015625)"/>
      <path id="DejaVuSans-Bold-72" d="M 3138 2547 
Q 2991 2616 2845 2648 
Q 2700 2681 2553 2681 
Q 2122 2681 1889 2404 
Q 1656 2128 1656 1613 
L 1656 0 
L 538 0 
L 538 3500 
L 1656 3500 
L 1656 2925 
Q 1872 3269 2151 3426 
Q 2431 3584 2822 3584 
Q 2878 3584 2943 3579 
Q 3009 3575 3134 3559 
L 3138 2547 
z
" transform="scale(0.015625)"/>
      <path id="DejaVuSans-Bold-79" d="M 78 3500 
L 1197 3500 
L 2138 1125 
L 2938 3500 
L 4056 3500 
L 2584 -331 
Q 2363 -916 2067 -1148 
Q 1772 -1381 1288 -1381 
L 641 -1381 
L 641 -647 
L 991 -647 
Q 1275 -647 1404 -556 
Q 1534 -466 1606 -231 
L 1638 -134 
L 78 3500 
z
" transform="scale(0.015625)"/>
      <path id="DejaVuSans-Bold-49" d="M 588 4666 
L 1791 4666 
L 1791 0 
L 588 0 
L 588 4666 
z
" transform="scale(0.015625)"/>
      <path id="DejaVuSans-Bold-42" d="M 2456 2859 
Q 2741 2859 2887 2984 
Q 3034 3109 3034 3353 
Q 3034 3594 2887 3720 
Q 2741 3847 2456 3847 
L 1791 3847 
L 1791 2859 
L 2456 2859 
z
M 2497 819 
Q 2859 819 3042 972 
Q 3225 1125 3225 1434 
Q 3225 1738 3044 1889 
Q 2863 2041 2497 2041 
L 1791 2041 
L 1791 819 
L 2497 819 
z
M 3616 2497 
Q 4003 2384 4215 2081 
Q 4428 1778 4428 1338 
Q 4428 663 3972 331 
Q 3516 0 2584 0 
L 588 0 
L 588 4666 
L 2394 4666 
Q 3366 4666 3802 4372 
Q 4238 4078 4238 3431 
Q 4238 3091 4078 2852 
Q 3919 2613 3616 2497 
z
" transform="scale(0.015625)"/>
      <path id="DejaVuSans-Bold-3f" d="M 2216 1575 
L 1088 1575 
L 1088 1728 
Q 1088 1984 1191 2182 
Q 1294 2381 1625 2688 
L 1825 2869 
Q 2003 3031 2086 3175 
Q 2169 3319 2169 3463 
Q 2169 3681 2019 3804 
Q 1869 3928 1600 3928 
Q 1347 3928 1053 3823 
Q 759 3719 441 3513 
L 441 4494 
Q 819 4625 1131 4687 
Q 1444 4750 1734 4750 
Q 2497 4750 2897 4439 
Q 3297 4128 3297 3531 
Q 3297 3225 3175 2983 
Q 3053 2741 2759 2463 
L 2559 2284 
Q 2347 2091 2281 1973 
Q 2216 1856 2216 1716 
L 2216 1575 
z
M 1088 1113 
L 2216 1113 
L 2216 0 
L 1088 0 
L 1088 1113 
z
" transform="scale(0.015625)"/>
     </defs>
     <use xlink:href="#DejaVuSans-Bold-44"/>
     <use xlink:href="#DejaVuSans-Bold-6f" transform="translate(83.007812 0)"/>
     <use xlink:href="#DejaVuSans-Bold-65" transform="translate(151.708984 0)"/>
     <use xlink:href="#DejaVuSans-Bold-73" transform="translate(219.53125 0)"/>
     <use xlink:href="#DejaVuSans-Bold-20" transform="translate(279.052734 0)"/>
     <use xlink:href="#DejaVuSans-Bold-46" transform="translate(313.867188 0)"/>
     <use xlink:href="#DejaVuSans-Bold-6c" transform="translate(382.177734 0)"/>
     <use xlink:href="#DejaVuSans-Bold-75" transform="translate(416.455078 0)"/>
     <use xlink:href="#DejaVuSans-Bold-63" transform="translate(487.646484 0)"/>
     <use xlink:href="#DejaVuSans-Bold-74" transform="translate(546.923828 0)"/>
     <use xlink:href="#DejaVuSans-Bold-75" transform="translate(594.726562 0)"/>
     <use xlink:href="#DejaVuSans-Bold-61" transform="translate(665.917969 0)"/>
     <use xlink:href="#DejaVuSans-Bold-74" transform="translate(733.398438 0)"/>
     <use xlink:href="#DejaVuSans-Bold-69" transform="translate(781.201172 0)"/>
     <use xlink:href="#DejaVuSans-Bold-6f" transform="translate(815.478516 0)"/>
     <use xlink:href="#DejaVuSans-Bold-6e" transform="translate(884.179688 0)"/>
     <use xlink:href="#DejaVuSans-Bold-20" transform="translate(955.371094 0)"/>
     <use xlink:href="#DejaVuSans-Bold-43" transform="translate(990.185547 0)"/>
     <use xlink:href="#DejaVuSans-Bold-68" transform="translate(1063.574219 0)"/>
     <use xlink:href="#DejaVuSans-Bold-61" transform="translate(1134.765625 0)"/>
     <use xlink:href="#DejaVuSans-Bold-6e" transform="translate(1202.246094 0)"/>
     <use xlink:href="#DejaVuSans-Bold-67" transform="translate(1273.4375 0)"/>
     <use xlink:href="#DejaVuSans-Bold-65" transform="translate(1345.019531 0)"/>
     <use xlink:href="#DejaVuSans-Bold-20" transform="translate(1412.841797 0)"/>
     <use xlink:href="#DejaVuSans-Bold-57" transform="translate(1447.65625 0)"/>
     <use xlink:href="#DejaVuSans-Bold-68" transform="translate(1557.958984 0)"/>
     <use xlink:href="#DejaVuSans-Bold-69" transform="translate(1629.150391 0)"/>
     <use xlink:href="#DejaVuSans-Bold-63" transform="translate(1663.427734 0)"/>
     <use xlink:href="#DejaVuSans-Bold-68" transform="translate(1722.705078 0)"/>
     <use xlink:href="#DejaVuSans-Bold-20" transform="translate(1793.896484 0)"/>
     <use xlink:href="#DejaVuSans-Bold-53" transform="translate(1828.710938 0)"/>
     <use xlink:href="#DejaVuSans-Bold-74" transform="translate(1900.732422 0)"/>
     <use xlink:href="#DejaVuSans-Bold-72" transform="translate(1948.535156 0)"/>
     <use xlink:href="#DejaVuSans-Bold-61" transform="translate(1997.851562 0)"/>
     <use xlink:href="#DejaVuSans-Bold-74" transform="translate(2065.332031 0)"/>
     <use xlink:href="#DejaVuSans-Bold-65" transform="translate(2113.134766 0)"/>
     <use xlink:href="#DejaVuSans-Bold-67" transform="translate(2180.957031 0)"/>
     <use xlink:href="#DejaVuSans-Bold-79" transform="translate(2252.539062 0)"/>
     <use xlink:href="#DejaVuSans-Bold-20" transform="translate(2317.724609 0)"/>
     <use xlink:href="#DejaVuSans-Bold-49" transform="translate(2352.539062 0)"/>
     <use xlink:href="#DejaVuSans-Bold-73" transform="translate(2389.746094 0)"/>
     <use xlink:href="#DejaVuSans-Bold-20" transform="translate(2449.267578 0)"/>
     <use xlink:href="#DejaVuSans-Bold-42" transform="translate(2484.082031 0)"/>
     <use xlink:href="#DejaVuSans-Bold-65" transform="translate(2560.302734 0)"/>
     <use xlink:href="#DejaVuSans-Bold-74" transform="translate(2628.125 0)"/>
     <use xlink:href="#DejaVuSans-Bold-74" transform="translate(2675.927734 0)"/>
     <use xlink:href="#DejaVuSans-Bold-65" transform="translate(2723.730469 0)"/>
     <use xlink:href="#DejaVuSans-Bold-72" transform="translate(2791.552734 0)"/>
     <use xlink:href="#DejaVuSans-Bold-3f" transform="translate(2840.869141 0)"/>
    </g>
    <!-- &gt; 0 means Bounded gives P2 more advantage -->
    <g transform="translate(276.022656 33.624125) scale(0.14 -0.14)">
     <defs>
      <path id="DejaVuSans-Bold-3e" d="M 678 3041 
L 678 3822 
L 4684 2375 
L 4684 1638 
L 678 191 
L 678 972 
L 3694 2003 
L 678 3041 
z
" transform="scale(0.015625)"/>
      <path id="DejaVuSans-Bold-30" d="M 2944 2338 
Q 2944 3213 2780 3570 
Q 2616 3928 2228 3928 
Q 1841 3928 1675 3570 
Q 1509 3213 1509 2338 
Q 1509 1453 1675 1090 
Q 1841 728 2228 728 
Q 2613 728 2778 1090 
Q 2944 1453 2944 2338 
z
M 4147 2328 
Q 4147 1169 3647 539 
Q 3147 -91 2228 -91 
Q 1306 -91 806 539 
Q 306 1169 306 2328 
Q 306 3491 806 4120 
Q 1306 4750 2228 4750 
Q 3147 4750 3647 4120 
Q 4147 3491 4147 2328 
z
" transform="scale(0.015625)"/>
      <path id="DejaVuSans-Bold-6d" d="M 3781 2919 
Q 3994 3244 4286 3414 
Q 4578 3584 4928 3584 
Q 5531 3584 5847 3212 
Q 6163 2841 6163 2131 
L 6163 0 
L 5038 0 
L 5038 1825 
Q 5041 1866 5042 1909 
Q 5044 1953 5044 2034 
Q 5044 2406 4934 2573 
Q 4825 2741 4581 2741 
Q 4263 2741 4089 2478 
Q 3916 2216 3909 1719 
L 3909 0 
L 2784 0 
L 2784 1825 
Q 2784 2406 2684 2573 
Q 2584 2741 2328 2741 
Q 2006 2741 1831 2477 
Q 1656 2213 1656 1722 
L 1656 0 
L 531 0 
L 531 3500 
L 1656 3500 
L 1656 2988 
Q 1863 3284 2130 3434 
Q 2397 3584 2719 3584 
Q 3081 3584 3359 3409 
Q 3638 3234 3781 2919 
z
" transform="scale(0.015625)"/>
      <path id="DejaVuSans-Bold-64" d="M 2919 2988 
L 2919 4863 
L 4044 4863 
L 4044 0 
L 2919 0 
L 2919 506 
Q 2688 197 2409 53 
Q 2131 -91 1766 -91 
Q 1119 -91 703 423 
Q 288 938 288 1747 
Q 288 2556 703 3070 
Q 1119 3584 1766 3584 
Q 2128 3584 2408 3439 
Q 2688 3294 2919 2988 
z
M 2181 722 
Q 2541 722 2730 984 
Q 2919 1247 2919 1747 
Q 2919 2247 2730 2509 
Q 2541 2772 2181 2772 
Q 1825 2772 1636 2509 
Q 1447 2247 1447 1747 
Q 1447 1247 1636 984 
Q 1825 722 2181 722 
z
" transform="scale(0.015625)"/>
      <path id="DejaVuSans-Bold-76" d="M 97 3500 
L 1216 3500 
L 2088 1081 
L 2956 3500 
L 4078 3500 
L 2700 0 
L 1472 0 
L 97 3500 
z
" transform="scale(0.015625)"/>
      <path id="DejaVuSans-Bold-50" d="M 588 4666 
L 2584 4666 
Q 3475 4666 3951 4270 
Q 4428 3875 4428 3144 
Q 4428 2409 3951 2014 
Q 3475 1619 2584 1619 
L 1791 1619 
L 1791 0 
L 588 0 
L 588 4666 
z
M 1791 3794 
L 1791 2491 
L 2456 2491 
Q 2806 2491 2997 2661 
Q 3188 2831 3188 3144 
Q 3188 3456 2997 3625 
Q 2806 3794 2456 3794 
L 1791 3794 
z
" transform="scale(0.015625)"/>
      <path id="DejaVuSans-Bold-32" d="M 1844 884 
L 3897 884 
L 3897 0 
L 506 0 
L 506 884 
L 2209 2388 
Q 2438 2594 2547 2791 
Q 2656 2988 2656 3200 
Q 2656 3528 2436 3728 
Q 2216 3928 1850 3928 
Q 1569 3928 1234 3808 
Q 900 3688 519 3450 
L 519 4475 
Q 925 4609 1322 4679 
Q 1719 4750 2100 4750 
Q 2938 4750 3402 4381 
Q 3866 4013 3866 3353 
Q 3866 2972 3669 2642 
Q 3472 2313 2841 1759 
L 1844 884 
z
" transform="scale(0.015625)"/>
     </defs>
     <use xlink:href="#DejaVuSans-Bold-3e"/>
     <use xlink:href="#DejaVuSans-Bold-20" transform="translate(83.789062 0)"/>
     <use xlink:href="#DejaVuSans-Bold-30" transform="translate(118.603516 0)"/>
     <use xlink:href="#DejaVuSans-Bold-20" transform="translate(188.183594 0)"/>
     <use xlink:href="#DejaVuSans-Bold-6d" transform="translate(222.998047 0)"/>
     <use xlink:href="#DejaVuSans-Bold-65" transform="translate(327.197266 0)"/>
     <use xlink:href="#DejaVuSans-Bold-61" transform="translate(395.019531 0)"/>
     <use xlink:href="#DejaVuSans-Bold-6e" transform="translate(462.5 0)"/>
     <use xlink:href="#DejaVuSans-Bold-73" transform="translate(533.691406 0)"/>
     <use xlink:href="#DejaVuSans-Bold-20" transform="translate(593.212891 0)"/>
     <use xlink:href="#DejaVuSans-Bold-42" transform="translate(628.027344 0)"/>
     <use xlink:href="#DejaVuSans-Bold-6f" transform="translate(704.248047 0)"/>
     <use xlink:href="#DejaVuSans-Bold-75" transform="translate(772.949219 0)"/>
     <use xlink:href="#DejaVuSans-Bold-6e" transform="translate(844.140625 0)"/>
     <use xlink:href="#DejaVuSans-Bold-64" transform="translate(915.332031 0)"/>
     <use xlink:href="#DejaVuSans-Bold-65" transform="translate(986.914062 0)"/>
     <use xlink:href="#DejaVuSans-Bold-64" transform="translate(1054.736328 0)"/>
     <use xlink:href="#DejaVuSans-Bold-20" transform="translate(1126.318359 0)"/>
     <use xlink:href="#DejaVuSans-Bold-67" transform="translate(1161.132812 0)"/>
     <use xlink:href="#DejaVuSans-Bold-69" transform="translate(1232.714844 0)"/>
     <use xlink:href="#DejaVuSans-Bold-76" transform="translate(1266.992188 0)"/>
     <use xlink:href="#DejaVuSans-Bold-65" transform="translate(1332.177734 0)"/>
     <use xlink:href="#DejaVuSans-Bold-73" transform="translate(1400 0)"/>
     <use xlink:href="#DejaVuSans-Bold-20" transform="translate(1459.521484 0)"/>
     <use xlink:href="#DejaVuSans-Bold-50" transform="translate(1494.335938 0)"/>
     <use xlink:href="#DejaVuSans-Bold-32" transform="translate(1567.626953 0)"/>
     <use xlink:href="#DejaVuSans-Bold-20" transform="translate(1637.207031 0)"/>
     <use xlink:href="#DejaVuSans-Bold-6d" transform="translate(1672.021484 0)"/>
     <use xlink:href="#DejaVuSans-Bold-6f" transform="translate(1776.220703 0)"/>
     <use xlink:href="#DejaVuSans-Bold-72" transform="translate(1844.921875 0)"/>
     <use xlink:href="#DejaVuSans-Bold-65" transform="translate(1894.238281 0)"/>
     <use xlink:href="#DejaVuSans-Bold-20" transform="translate(1962.060547 0)"/>
     <use xlink:href="#DejaVuSans-Bold-61" transform="translate(1996.875 0)"/>
     <use xlink:href="#DejaVuSans-Bold-64" transform="translate(2064.355469 0)"/>
     <use xlink:href="#DejaVuSans-Bold-76" transform="translate(2135.9375 0)"/>
     <use xlink:href="#DejaVuSans-Bold-61" transform="translate(2201.123047 0)"/>
     <use xlink:href="#DejaVuSans-Bold-6e" transform="translate(2268.603516 0)"/>
     <use xlink:href="#DejaVuSans-Bold-74" transform="translate(2339.794922 0)"/>
     <use xlink:href="#DejaVuSans-Bold-61" transform="translate(2387.597656 0)"/>
     <use xlink:href="#DejaVuSans-Bold-67" transform="translate(2455.078125 0)"/>
     <use xlink:href="#DejaVuSans-Bold-65" transform="translate(2526.660156 0)"/>
    </g>
   </g>
   <g id="legend_1">
    <g id="patch_7">
     <path d="M 682.223438 450.344125 
L 841.451563 450.344125 
Q 843.451563 450.344125 843.451563 448.344125 
L 843.451563 361.275375 
Q 843.451563 359.275375 841.451563 359.275375 
L 682.223438 359.275375 
Q 680.223438 359.275375 680.223438 361.275375 
L 680.223438 448.344125 
Q 680.223438 450.344125 682.223438 450.344125 
z
" style="fill: #ffffff; opacity: 0.8; stroke: #cccccc; stroke-linejoin: miter"/>
    </g>
    <g id="line2d_31">
     <path d="M 684.223438 367.373812 
L 694.223438 367.373812 
L 704.223438 367.373812 
" style="fill: none; stroke: #463480; stroke-width: 2; stroke-linecap: square"/>
     <g>
      <use xlink:href="#m87f36ed2fc" x="694.223438" y="367.373812" style="fill: #463480; stroke: #463480"/>
     </g>
    </g>
    <g id="text_16">
     <!-- n=8 (16 cards) -->
     <g transform="translate(712.223438 370.873812) scale(0.1 -0.1)">
      <defs>
       <path id="DejaVuSans-38" d="M 2034 2216 
Q 1584 2216 1326 1975 
Q 1069 1734 1069 1313 
Q 1069 891 1326 650 
Q 1584 409 2034 409 
Q 2484 409 2743 651 
Q 3003 894 3003 1313 
Q 3003 1734 2745 1975 
Q 2488 2216 2034 2216 
z
M 1403 2484 
Q 997 2584 770 2862 
Q 544 3141 544 3541 
Q 544 4100 942 4425 
Q 1341 4750 2034 4750 
Q 2731 4750 3128 4425 
Q 3525 4100 3525 3541 
Q 3525 3141 3298 2862 
Q 3072 2584 2669 2484 
Q 3125 2378 3379 2068 
Q 3634 1759 3634 1313 
Q 3634 634 3220 271 
Q 2806 -91 2034 -91 
Q 1263 -91 848 271 
Q 434 634 434 1313 
Q 434 1759 690 2068 
Q 947 2378 1403 2484 
z
M 1172 3481 
Q 1172 3119 1398 2916 
Q 1625 2713 2034 2713 
Q 2441 2713 2670 2916 
Q 2900 3119 2900 3481 
Q 2900 3844 2670 4047 
Q 2441 4250 2034 4250 
Q 1625 4250 1398 4047 
Q 1172 3844 1172 3481 
z
" transform="scale(0.015625)"/>
       <path id="DejaVuSans-36" d="M 2113 2584 
Q 1688 2584 1439 2293 
Q 1191 2003 1191 1497 
Q 1191 994 1439 701 
Q 1688 409 2113 409 
Q 2538 409 2786 701 
Q 3034 994 3034 1497 
Q 3034 2003 2786 2293 
Q 2538 2584 2113 2584 
z
M 3366 4563 
L 3366 3988 
Q 3128 4100 2886 4159 
Q 2644 4219 2406 4219 
Q 1781 4219 1451 3797 
Q 1122 3375 1075 2522 
Q 1259 2794 1537 2939 
Q 1816 3084 2150 3084 
Q 2853 3084 3261 2657 
Q 3669 2231 3669 1497 
Q 3669 778 3244 343 
Q 2819 -91 2113 -91 
Q 1303 -91 875 529 
Q 447 1150 447 2328 
Q 447 3434 972 4092 
Q 1497 4750 2381 4750 
Q 2619 4750 2861 4703 
Q 3103 4656 3366 4563 
z
" transform="scale(0.015625)"/>
      </defs>
      <use xlink:href="#DejaVuSans-6e"/>
      <use xlink:href="#DejaVuSans-3d" transform="translate(63.378906 0)"/>
      <use xlink:href="#DejaVuSans-38" transform="translate(147.167969 0)"/>
      <use xlink:href="#DejaVuSans-20" transform="translate(210.791016 0)"/>
      <use xlink:href="#DejaVuSans-28" transform="translate(242.578125 0)"/>
      <use xlink:href="#DejaVuSans-31" transform="translate(281.591797 0)"/>
      <use xlink:href="#DejaVuSans-36" transform="translate(345.214844 0)"/>
      <use xlink:href="#DejaVuSans-20" transform="translate(408.837891 0)"/>
      <use xlink:href="#DejaVuSans-63" transform="translate(440.625 0)"/>
      <use xlink:href="#DejaVuSans-61" transform="translate(495.605469 0)"/>
      <use xlink:href="#DejaVuSans-72" transform="translate(556.884766 0)"/>
      <use xlink:href="#DejaVuSans-64" transform="translate(596.248047 0)"/>
      <use xlink:href="#DejaVuSans-73" transform="translate(659.724609 0)"/>
      <use xlink:href="#DejaVuSans-29" transform="translate(711.824219 0)"/>
     </g>
    </g>
    <g id="line2d_32">
     <path d="M 684.223438 382.051937 
L 694.223438 382.051937 
L 704.223438 382.051937 
" style="fill: none; stroke: #31668e; stroke-width: 2; stroke-linecap: square"/>
     <g>
      <use xlink:href="#m00a3f5b72d" x="694.223438" y="382.051937" style="fill: #31668e; stroke: #31668e"/>
     </g>
    </g>
    <g id="text_17">
     <!-- n=12 (24 cards) -->
     <g transform="translate(712.223438 385.551937) scale(0.1 -0.1)">
      <use xlink:href="#DejaVuSans-6e"/>
      <use xlink:href="#DejaVuSans-3d" transform="translate(63.378906 0)"/>
      <use xlink:href="#DejaVuSans-31" transform="translate(147.167969 0)"/>
      <use xlink:href="#DejaVuSans-32" transform="translate(210.791016 0)"/>
      <use xlink:href="#DejaVuSans-20" transform="translate(274.414062 0)"/>
      <use xlink:href="#DejaVuSans-28" transform="translate(306.201172 0)"/>
      <use xlink:href="#DejaVuSans-32" transform="translate(345.214844 0)"/>
      <use xlink:href="#DejaVuSans-34" transform="translate(408.837891 0)"/>
      <use xlink:href="#DejaVuSans-20" transform="translate(472.460938 0)"/>
      <use xlink:href="#DejaVuSans-63" transform="translate(504.248047 0)"/>
      <use xlink:href="#DejaVuSans-61" transform="translate(559.228516 0)"/>
      <use xlink:href="#DejaVuSans-72" transform="translate(620.507812 0)"/>
      <use xlink:href="#DejaVuSans-64" transform="translate(659.871094 0)"/>
      <use xlink:href="#DejaVuSans-73" transform="translate(723.347656 0)"/>
      <use xlink:href="#DejaVuSans-29" transform="translate(775.447266 0)"/>
     </g>
    </g>
    <g id="line2d_33">
     <path d="M 684.223438 396.730062 
L 694.223438 396.730062 
L 704.223438 396.730062 
" style="fill: none; stroke: #21918c; stroke-width: 2; stroke-linecap: square"/>
     <g>
      <use xlink:href="#m0a1117882b" x="694.223438" y="396.730062" style="fill: #21918c; stroke: #21918c"/>
     </g>
    </g>
    <g id="text_18">
     <!-- n=16 (32 cards) -->
     <g transform="translate(712.223438 400.230062) scale(0.1 -0.1)">
      <use xlink:href="#DejaVuSans-6e"/>
      <use xlink:href="#DejaVuSans-3d" transform="translate(63.378906 0)"/>
      <use xlink:href="#DejaVuSans-31" transform="translate(147.167969 0)"/>
      <use xlink:href="#DejaVuSans-36" transform="translate(210.791016 0)"/>
      <use xlink:href="#DejaVuSans-20" transform="translate(274.414062 0)"/>
      <use xlink:href="#DejaVuSans-28" transform="translate(306.201172 0)"/>
      <use xlink:href="#DejaVuSans-33" transform="translate(345.214844 0)"/>
      <use xlink:href="#DejaVuSans-32" transform="translate(408.837891 0)"/>
      <use xlink:href="#DejaVuSans-20" transform="translate(472.460938 0)"/>
      <use xlink:href="#DejaVuSans-63" transform="translate(504.248047 0)"/>
      <use xlink:href="#DejaVuSans-61" transform="translate(559.228516 0)"/>
      <use xlink:href="#DejaVuSans-72" transform="translate(620.507812 0)"/>
      <use xlink:href="#DejaVuSans-64" transform="translate(659.871094 0)"/>
      <use xlink:href="#DejaVuSans-73" transform="translate(723.347656 0)"/>
      <use xlink:href="#DejaVuSans-29" transform="translate(775.447266 0)"/>
     </g>
    </g>
    <g id="line2d_34">
     <path d="M 684.223438 411.408187 
L 694.223438 411.408187 
L 704.223438 411.408187 
" style="fill: none; stroke: #38b977; stroke-width: 2; stroke-linecap: square"/>
     <g>
      <use xlink:href="#me14118b9df" x="694.223438" y="411.408187" style="fill: #38b977; stroke: #38b977"/>
     </g>
    </g>
    <g id="text_19">
     <!-- n=24 (48 cards) -->
     <g transform="translate(712.223438 414.908187) scale(0.1 -0.1)">
      <use xlink:href="#DejaVuSans-6e"/>
      <use xlink:href="#DejaVuSans-3d" transform="translate(63.378906 0)"/>
      <use xlink:href="#DejaVuSans-32" transform="translate(147.167969 0)"/>
      <use xlink:href="#DejaVuSans-34" transform="translate(210.791016 0)"/>
      <use xlink:href="#DejaVuSans-20" transform="translate(274.414062 0)"/>
      <use xlink:href="#DejaVuSans-28" transform="translate(306.201172 0)"/>
      <use xlink:href="#DejaVuSans-34" transform="translate(345.214844 0)"/>
      <use xlink:href="#DejaVuSans-38" transform="translate(408.837891 0)"/>
      <use xlink:href="#DejaVuSans-20" transform="translate(472.460938 0)"/>
      <use xlink:href="#DejaVuSans-63" transform="translate(504.248047 0)"/>
      <use xlink:href="#DejaVuSans-61" transform="translate(559.228516 0)"/>
      <use xlink:href="#DejaVuSans-72" transform="translate(620.507812 0)"/>
      <use xlink:href="#DejaVuSans-64" transform="translate(659.871094 0)"/>
      <use xlink:href="#DejaVuSans-73" transform="translate(723.347656 0)"/>
      <use xlink:href="#DejaVuSans-29" transform="translate(775.447266 0)"/>
     </g>
    </g>
    <g id="line2d_35">
     <path d="M 684.223438 426.086312 
L 694.223438 426.086312 
L 704.223438 426.086312 
" style="fill: none; stroke: #9bd93c; stroke-width: 2; stroke-linecap: square"/>
     <g>
      <use xlink:href="#md28a0ad601" x="694.223438" y="426.086312" style="fill: #9bd93c; stroke: #9bd93c"/>
     </g>
    </g>
    <g id="text_20">
     <!-- n=36 (72 cards) -->
     <g transform="translate(712.223438 429.586312) scale(0.1 -0.1)">
      <use xlink:href="#DejaVuSans-6e"/>
      <use xlink:href="#DejaVuSans-3d" transform="translate(63.378906 0)"/>
      <use xlink:href="#DejaVuSans-33" transform="translate(147.167969 0)"/>
      <use xlink:href="#DejaVuSans-36" transform="translate(210.791016 0)"/>
      <use xlink:href="#DejaVuSans-20" transform="translate(274.414062 0)"/>
      <use xlink:href="#DejaVuSans-28" transform="translate(306.201172 0)"/>
      <use xlink:href="#DejaVuSans-37" transform="translate(345.214844 0)"/>
      <use xlink:href="#DejaVuSans-32" transform="translate(408.837891 0)"/>
      <use xlink:href="#DejaVuSans-20" transform="translate(472.460938 0)"/>
      <use xlink:href="#DejaVuSans-63" transform="translate(504.248047 0)"/>
      <use xlink:href="#DejaVuSans-61" transform="translate(559.228516 0)"/>
      <use xlink:href="#DejaVuSans-72" transform="translate(620.507812 0)"/>
      <use xlink:href="#DejaVuSans-64" transform="translate(659.871094 0)"/>
      <use xlink:href="#DejaVuSans-73" transform="translate(723.347656 0)"/>
      <use xlink:href="#DejaVuSans-29" transform="translate(775.447266 0)"/>
     </g>
    </g>
    <g id="line2d_36">
     <path d="M 684.223438 440.764437 
L 694.223438 440.764437 
L 704.223438 440.764437 
" style="fill: none; stroke-dasharray: 5.55,2.4; stroke-dashoffset: 0; stroke: #000000; stroke-opacity: 0.5; stroke-width: 1.5"/>
    </g>
    <g id="text_21">
     <!-- Equal (Bounded = Zwick) -->
     <g transform="translate(712.223438 444.264437) scale(0.1 -0.1)">
      <defs>
       <path id="DejaVuSans-45" d="M 628 4666 
L 3578 4666 
L 3578 4134 
L 1259 4134 
L 1259 2753 
L 3481 2753 
L 3481 2222 
L 1259 2222 
L 1259 531 
L 3634 531 
L 3634 0 
L 628 0 
L 628 4666 
z
" transform="scale(0.015625)"/>
       <path id="DejaVuSans-71" d="M 947 1747 
Q 947 1113 1208 752 
Q 1469 391 1925 391 
Q 2381 391 2643 752 
Q 2906 1113 2906 1747 
Q 2906 2381 2643 2742 
Q 2381 3103 1925 3103 
Q 1469 3103 1208 2742 
Q 947 2381 947 1747 
z
M 2906 525 
Q 2725 213 2448 61 
Q 2172 -91 1784 -91 
Q 1150 -91 751 415 
Q 353 922 353 1747 
Q 353 2572 751 3078 
Q 1150 3584 1784 3584 
Q 2172 3584 2448 3432 
Q 2725 3281 2906 2969 
L 2906 3500 
L 3481 3500 
L 3481 -1331 
L 2906 -1331 
L 2906 525 
z
" transform="scale(0.015625)"/>
      </defs>
      <use xlink:href="#DejaVuSans-45"/>
      <use xlink:href="#DejaVuSans-71" transform="translate(63.183594 0)"/>
      <use xlink:href="#DejaVuSans-75" transform="translate(126.660156 0)"/>
      <use xlink:href="#DejaVuSans-61" transform="translate(190.039062 0)"/>
      <use xlink:href="#DejaVuSans-6c" transform="translate(251.318359 0)"/>
      <use xlink:href="#DejaVuSans-20" transform="translate(279.101562 0)"/>
      <use xlink:href="#DejaVuSans-28" transform="translate(310.888672 0)"/>
      <use xlink:href="#DejaVuSans-42" transform="translate(349.902344 0)"/>
      <use xlink:href="#DejaVuSans-6f" transform="translate(418.505859 0)"/>
      <use xlink:href="#DejaVuSans-75" transform="translate(479.6875 0)"/>
      <use xlink:href="#DejaVuSans-6e" transform="translate(543.066406 0)"/>
      <use xlink:href="#DejaVuSans-64" transform="translate(606.445312 0)"/>
      <use xlink:href="#DejaVuSans-65" transform="translate(669.921875 0)"/>
      <use xlink:href="#DejaVuSans-64" transform="translate(731.445312 0)"/>
      <use xlink:href="#DejaVuSans-20" transform="translate(794.921875 0)"/>
      <use xlink:href="#DejaVuSans-3d" transform="translate(826.708984 0)"/>
      <use xlink:href="#DejaVuSans-20" transform="translate(910.498047 0)"/>
      <use xlink:href="#DejaVuSans-5a" transform="translate(942.285156 0)"/>
      <use xlink:href="#DejaVuSans-77" transform="translate(1010.791016 0)"/>
      <use xlink:href="#DejaVuSans-69" transform="translate(1092.578125 0)"/>
      <use xlink:href="#DejaVuSans-63" transform="translate(1120.361328 0)"/>
      <use xlink:href="#DejaVuSans-6b" transform="translate(1175.341797 0)"/>
      <use xlink:href="#DejaVuSans-29" transform="translate(1233.251953 0)"/>
     </g>
    </g>
   </g>
  </g>
 </g>
 <defs>
  <clipPath id="pcf61a8c2d7">
   <rect x="66.821563" y="39.624125" width="781.63" height="415.72"/>
  </clipPath>
 </defs>
</svg>
