<?xml version="1.0" encoding="utf-8" standalone="no"?>
<!DOCTYPE svg PUBLIC "-//W3C//DTD SVG 1.1//EN"
  "http://www.w3.org/Graphics/SVG/1.1/DTD/svg11.dtd">
<svg xmlns:xlink="http://www.w3.org/1999/xlink" width="855.516875pt" height="494.889687pt" viewBox="0 0 855.516875 494.889687" xmlns="http://www.w3.org/2000/svg" version="1.1">
 <metadata>
  <rdf:RDF xmlns:dc="http://purl.org/dc/elements/1.1/" xmlns:cc="http://creativecommons.org/ns#" xmlns:rdf="http://www.w3.org/1999/02/22-rdf-syntax-ns#">
   <cc:Work>
    <dc:type rdf:resource="http://purl.org/dc/dcmitype/StillImage"/>
    <dc:date>2026-04-01T03:25:03.431380</dc:date>
    <dc:format>image/svg+xml</dc:format>
    <dc:creator>
     <cc:Agent>
      <dc:title>Matplotlib v3.10.8, https://matplotlib.org/</dc:title>
     </cc:Agent>
    </dc:creator>
   </cc:Work>
  </rdf:RDF>
 </metadata>
 <defs>
  <style type="text/css">*{stroke-linejoin: round; stroke-linecap: butt}</style>
 </defs>
 <g id="figure_1">
  <g id="patch_1">
   <path d="M 0 494.889687 
L 855.516875 494.889687 
L 855.516875 0 
L 0 0 
z
" style="fill: #ffffff"/>
  </g>
  <g id="axes_1">
   <g id="patch_2">
    <path d="M 45.716875 455.397812 
L 848.316875 455.397812 
L 848.316875 23.837812 
L 45.716875 23.837812 
z
" style="fill: #ffffff"/>
   </g>
   <g id="matplotlib.axis_1">
    <g id="xtick_1">
     <g id="line2d_1">
      <path d="M 82.198693 455.397812 
L 82.198693 23.837812 
" clip-path="url(#p990942a8f4)" style="fill: none; stroke: #b0b0b0; stroke-opacity: 0.2; stroke-width: 0.8; stroke-linecap: square"/>
     </g>
     <g id="line2d_2">
      <defs>
       <path id="m84ca7c8aa3" d="M 0 0 
L 0 3.5 
" style="stroke: #000000; stroke-width: 0.8"/>
      </defs>
      <g>
       <use xlink:href="#m84ca7c8aa3" x="82.198693" y="455.397812" style="stroke: #000000; stroke-width: 0.8"/>
      </g>
     </g>
     <g id="text_1">
      <!-- 0 -->
      <g transform="translate(79.017443 469.99625) scale(0.1 -0.1)">
       <defs>
        <path id="DejaVuSans-30" d="M 2034 4250 
Q 1547 4250 1301 3770 
Q 1056 3291 1056 2328 
Q 1056 1369 1301 889 
Q 1547 409 2034 409 
Q 2525 409 2770 889 
Q 3016 1369 3016 2328 
Q 3016 3291 2770 3770 
Q 2525 4250 2034 4250 
z
M 2034 4750 
Q 2819 4750 3233 4129 
Q 3647 3509 3647 2328 
Q 3647 1150 3233 529 
Q 2819 -91 2034 -91 
Q 1250 -91 836 529 
Q 422 1150 422 2328 
Q 422 3509 836 4129 
Q 1250 4750 2034 4750 
z
" transform="scale(0.015625)"/>
       </defs>
       <use xlink:href="#DejaVuSans-30"/>
      </g>
     </g>
    </g>
    <g id="xtick_2">
     <g id="line2d_3">
      <path d="M 228.125966 455.397812 
L 228.125966 23.837812 
" clip-path="url(#p990942a8f4)" style="fill: none; stroke: #b0b0b0; stroke-opacity: 0.2; stroke-width: 0.8; stroke-linecap: square"/>
     </g>
     <g id="line2d_4">
      <g>
       <use xlink:href="#m84ca7c8aa3" x="228.125966" y="455.397812" style="stroke: #000000; stroke-width: 0.8"/>
      </g>
     </g>
     <g id="text_2">
      <!-- 1 -->
      <g transform="translate(224.944716 469.99625) scale(0.1 -0.1)">
       <defs>
        <path id="DejaVuSans-31" d="M 794 531 
L 1825 531 
L 1825 4091 
L 703 3866 
L 703 4441 
L 1819 4666 
L 2450 4666 
L 2450 531 
L 3481 531 
L 3481 0 
L 794 0 
L 794 531 
z
" transform="scale(0.015625)"/>
       </defs>
       <use xlink:href="#DejaVuSans-31"/>
      </g>
     </g>
    </g>
    <g id="xtick_3">
     <g id="line2d_5">
      <path d="M 374.053239 455.397812 
L 374.053239 23.837812 
" clip-path="url(#p990942a8f4)" style="fill: none; stroke: #b0b0b0; stroke-opacity: 0.2; stroke-width: 0.8; stroke-linecap: square"/>
     </g>
     <g id="line2d_6">
      <g>
       <use xlink:href="#m84ca7c8aa3" x="374.053239" y="455.397812" style="stroke: #000000; stroke-width: 0.8"/>
      </g>
     </g>
     <g id="text_3">
      <!-- 2 -->
      <g transform="translate(370.871989 469.99625) scale(0.1 -0.1)">
       <defs>
        <path id="DejaVuSans-32" d="M 1228 531 
L 3431 531 
L 3431 0 
L 469 0 
L 469 531 
Q 828 903 1448 1529 
Q 2069 2156 2228 2338 
Q 2531 2678 2651 2914 
Q 2772 3150 2772 3378 
Q 2772 3750 2511 3984 
Q 2250 4219 1831 4219 
Q 1534 4219 1204 4116 
Q 875 4013 500 3803 
L 500 4441 
Q 881 4594 1212 4672 
Q 1544 4750 1819 4750 
Q 2544 4750 2975 4387 
Q 3406 4025 3406 3419 
Q 3406 3131 3298 2873 
Q 3191 2616 2906 2266 
Q 2828 2175 2409 1742 
Q 1991 1309 1228 531 
z
" transform="scale(0.015625)"/>
       </defs>
       <use xlink:href="#DejaVuSans-32"/>
      </g>
     </g>
    </g>
    <g id="xtick_4">
     <g id="line2d_7">
      <path d="M 519.980511 455.397812 
L 519.980511 23.837812 
" clip-path="url(#p990942a8f4)" style="fill: none; stroke: #b0b0b0; stroke-opacity: 0.2; stroke-width: 0.8; stroke-linecap: square"/>
     </g>
     <g id="line2d_8">
      <g>
       <use xlink:href="#m84ca7c8aa3" x="519.980511" y="455.397812" style="stroke: #000000; stroke-width: 0.8"/>
      </g>
     </g>
     <g id="text_4">
      <!-- 3 -->
      <g transform="translate(516.799261 469.99625) scale(0.1 -0.1)">
       <defs>
        <path id="DejaVuSans-33" d="M 2597 2516 
Q 3050 2419 3304 2112 
Q 3559 1806 3559 1356 
Q 3559 666 3084 287 
Q 2609 -91 1734 -91 
Q 1441 -91 1130 -33 
Q 819 25 488 141 
L 488 750 
Q 750 597 1062 519 
Q 1375 441 1716 441 
Q 2309 441 2620 675 
Q 2931 909 2931 1356 
Q 2931 1769 2642 2001 
Q 2353 2234 1838 2234 
L 1294 2234 
L 1294 2753 
L 1863 2753 
Q 2328 2753 2575 2939 
Q 2822 3125 2822 3475 
Q 2822 3834 2567 4026 
Q 2313 4219 1838 4219 
Q 1578 4219 1281 4162 
Q 984 4106 628 3988 
L 628 4550 
Q 988 4650 1302 4700 
Q 1616 4750 1894 4750 
Q 2613 4750 3031 4423 
Q 3450 4097 3450 3541 
Q 3450 3153 3228 2886 
Q 3006 2619 2597 2516 
z
" transform="scale(0.015625)"/>
       </defs>
       <use xlink:href="#DejaVuSans-33"/>
      </g>
     </g>
    </g>
    <g id="xtick_5">
     <g id="line2d_9">
      <path d="M 665.907784 455.397812 
L 665.907784 23.837812 
" clip-path="url(#p990942a8f4)" style="fill: none; stroke: #b0b0b0; stroke-opacity: 0.2; stroke-width: 0.8; stroke-linecap: square"/>
     </g>
     <g id="line2d_10">
      <g>
       <use xlink:href="#m84ca7c8aa3" x="665.907784" y="455.397812" style="stroke: #000000; stroke-width: 0.8"/>
      </g>
     </g>
     <g id="text_5">
      <!-- 4 -->
      <g transform="translate(662.726534 469.99625) scale(0.1 -0.1)">
       <defs>
        <path id="DejaVuSans-34" d="M 2419 4116 
L 825 1625 
L 2419 1625 
L 2419 4116 
z
M 2253 4666 
L 3047 4666 
L 3047 1625 
L 3713 1625 
L 3713 1100 
L 3047 1100 
L 3047 0 
L 2419 0 
L 2419 1100 
L 313 1100 
L 313 1709 
L 2253 4666 
z
" transform="scale(0.015625)"/>
       </defs>
       <use xlink:href="#DejaVuSans-34"/>
      </g>
     </g>
    </g>
    <g id="xtick_6">
     <g id="line2d_11">
      <path d="M 811.835057 455.397812 
L 811.835057 23.837812 
" clip-path="url(#p990942a8f4)" style="fill: none; stroke: #b0b0b0; stroke-opacity: 0.2; stroke-width: 0.8; stroke-linecap: square"/>
     </g>
     <g id="line2d_12">
      <g>
       <use xlink:href="#m84ca7c8aa3" x="811.835057" y="455.397812" style="stroke: #000000; stroke-width: 0.8"/>
      </g>
     </g>
     <g id="text_6">
      <!-- 5 -->
      <g transform="translate(808.653807 469.99625) scale(0.1 -0.1)">
       <defs>
        <path id="DejaVuSans-35" d="M 691 4666 
L 3169 4666 
L 3169 4134 
L 1269 4134 
L 1269 2991 
Q 1406 3038 1543 3061 
Q 1681 3084 1819 3084 
Q 2600 3084 3056 2656 
Q 3513 2228 3513 1497 
Q 3513 744 3044 326 
Q 2575 -91 1722 -91 
Q 1428 -91 1123 -41 
Q 819 9 494 109 
L 494 744 
Q 775 591 1075 516 
Q 1375 441 1709 441 
Q 2250 441 2565 725 
Q 2881 1009 2881 1497 
Q 2881 1984 2565 2268 
Q 2250 2553 1709 2553 
Q 1456 2553 1204 2497 
Q 953 2441 691 2322 
L 691 4666 
z
" transform="scale(0.015625)"/>
       </defs>
       <use xlink:href="#DejaVuSans-35"/>
      </g>
     </g>
    </g>
    <g id="text_7">
     <!-- Fluctuation σ -->
     <g transform="translate(407.76375 485.194062) scale(0.12 -0.12)">
      <defs>
       <path id="DejaVuSans-46" d="M 628 4666 
L 3309 4666 
L 3309 4134 
L 1259 4134 
L 1259 2759 
L 3109 2759 
L 3109 2228 
L 1259 2228 
L 1259 0 
L 628 0 
L 628 4666 
z
" transform="scale(0.015625)"/>
       <path id="DejaVuSans-6c" d="M 603 4863 
L 1178 4863 
L 1178 0 
L 603 0 
L 603 4863 
z
" transform="scale(0.015625)"/>
       <path id="DejaVuSans-75" d="M 544 1381 
L 544 3500 
L 1119 3500 
L 1119 1403 
Q 1119 906 1312 657 
Q 1506 409 1894 409 
Q 2359 409 2629 706 
Q 2900 1003 2900 1516 
L 2900 3500 
L 3475 3500 
L 3475 0 
L 2900 0 
L 2900 538 
Q 2691 219 2414 64 
Q 2138 -91 1772 -91 
Q 1169 -91 856 284 
Q 544 659 544 1381 
z
M 1991 3584 
L 1991 3584 
z
" transform="scale(0.015625)"/>
       <path id="DejaVuSans-63" d="M 3122 3366 
L 3122 2828 
Q 2878 2963 2633 3030 
Q 2388 3097 2138 3097 
Q 1578 3097 1268 2742 
Q 959 2388 959 1747 
Q 959 1106 1268 751 
Q 1578 397 2138 397 
Q 2388 397 2633 464 
Q 2878 531 3122 666 
L 3122 134 
Q 2881 22 2623 -34 
Q 2366 -91 2075 -91 
Q 1284 -91 818 406 
Q 353 903 353 1747 
Q 353 2603 823 3093 
Q 1294 3584 2113 3584 
Q 2378 3584 2631 3529 
Q 2884 3475 3122 3366 
z
" transform="scale(0.015625)"/>
       <path id="DejaVuSans-74" d="M 1172 4494 
L 1172 3500 
L 2356 3500 
L 2356 3053 
L 1172 3053 
L 1172 1153 
Q 1172 725 1289 603 
Q 1406 481 1766 481 
L 2356 481 
L 2356 0 
L 1766 0 
Q 1100 0 847 248 
Q 594 497 594 1153 
L 594 3053 
L 172 3053 
L 172 3500 
L 594 3500 
L 594 4494 
L 1172 4494 
z
" transform="scale(0.015625)"/>
       <path id="DejaVuSans-61" d="M 2194 1759 
Q 1497 1759 1228 1600 
Q 959 1441 959 1056 
Q 959 750 1161 570 
Q 1363 391 1709 391 
Q 2188 391 2477 730 
Q 2766 1069 2766 1631 
L 2766 1759 
L 2194 1759 
z
M 3341 1997 
L 3341 0 
L 2766 0 
L 2766 531 
Q 2569 213 2275 61 
Q 1981 -91 1556 -91 
Q 1019 -91 701 211 
Q 384 513 384 1019 
Q 384 1609 779 1909 
Q 1175 2209 1959 2209 
L 2766 2209 
L 2766 2266 
Q 2766 2663 2505 2880 
Q 2244 3097 1772 3097 
Q 1472 3097 1187 3025 
Q 903 2953 641 2809 
L 641 3341 
Q 956 3463 1253 3523 
Q 1550 3584 1831 3584 
Q 2591 3584 2966 3190 
Q 3341 2797 3341 1997 
z
" transform="scale(0.015625)"/>
       <path id="DejaVuSans-69" d="M 603 3500 
L 1178 3500 
L 1178 0 
L 603 0 
L 603 3500 
z
M 603 4863 
L 1178 4863 
L 1178 4134 
L 603 4134 
L 603 4863 
z
" transform="scale(0.015625)"/>
       <path id="DejaVuSans-6f" d="M 1959 3097 
Q 1497 3097 1228 2736 
Q 959 2375 959 1747 
Q 959 1119 1226 758 
Q 1494 397 1959 397 
Q 2419 397 2687 759 
Q 2956 1122 2956 1747 
Q 2956 2369 2687 2733 
Q 2419 3097 1959 3097 
z
M 1959 3584 
Q 2709 3584 3137 3096 
Q 3566 2609 3566 1747 
Q 3566 888 3137 398 
Q 2709 -91 1959 -91 
Q 1206 -91 779 398 
Q 353 888 353 1747 
Q 353 2609 779 3096 
Q 1206 3584 1959 3584 
z
" transform="scale(0.015625)"/>
       <path id="DejaVuSans-6e" d="M 3513 2113 
L 3513 0 
L 2938 0 
L 2938 2094 
Q 2938 2591 2744 2837 
Q 2550 3084 2163 3084 
Q 1697 3084 1428 2787 
Q 1159 2491 1159 1978 
L 1159 0 
L 581 0 
L 581 3500 
L 1159 3500 
L 1159 2956 
Q 1366 3272 1645 3428 
Q 1925 3584 2291 3584 
Q 2894 3584 3203 3211 
Q 3513 2838 3513 2113 
z
" transform="scale(0.015625)"/>
       <path id="DejaVuSans-20" transform="scale(0.015625)"/>
       <path id="DejaVuSans-3c3" d="M 1959 3044 
Q 1484 3044 1228 2700 
Q 959 2341 959 1747 
Q 959 1119 1226 758 
Q 1494 397 1959 397 
Q 2419 397 2687 759 
Q 2956 1122 2956 1747 
Q 2956 2319 2688 2700 
Q 2441 3044 1959 3044 
z
M 1959 3500 
L 3869 3500 
L 3869 2925 
L 3225 2925 
Q 3566 2438 3566 1747 
Q 3566 888 3138 400 
Q 2709 -91 1959 -91 
Q 1206 -91 781 400 
Q 353 888 353 1747 
Q 353 2613 781 3097 
Q 1134 3500 1959 3500 
z
" transform="scale(0.015625)"/>
      </defs>
      <use xlink:href="#DejaVuSans-46"/>
      <use xlink:href="#DejaVuSans-6c" transform="translate(57.519531 0)"/>
      <use xlink:href="#DejaVuSans-75" transform="translate(85.302734 0)"/>
      <use xlink:href="#DejaVuSans-63" transform="translate(148.681641 0)"/>
      <use xlink:href="#DejaVuSans-74" transform="translate(203.662109 0)"/>
      <use xlink:href="#DejaVuSans-75" transform="translate(242.871094 0)"/>
      <use xlink:href="#DejaVuSans-61" transform="translate(306.25 0)"/>
      <use xlink:href="#DejaVuSans-74" transform="translate(367.529297 0)"/>
      <use xlink:href="#DejaVuSans-69" transform="translate(406.738281 0)"/>
      <use xlink:href="#DejaVuSans-6f" transform="translate(434.521484 0)"/>
      <use xlink:href="#DejaVuSans-6e" transform="translate(495.703125 0)"/>
      <use xlink:href="#DejaVuSans-20" transform="translate(559.082031 0)"/>
      <use xlink:href="#DejaVuSans-3c3" transform="translate(590.869141 0)"/>
     </g>
    </g>
   </g>
   <g id="matplotlib.axis_2">
    <g id="ytick_1">
     <g id="line2d_13">
      <path d="M 45.716875 423.599456 
L 848.316875 423.599456 
" clip-path="url(#p990942a8f4)" style="fill: none; stroke: #b0b0b0; stroke-opacity: 0.2; stroke-width: 0.8; stroke-linecap: square"/>
     </g>
     <g id="line2d_14">
      <defs>
       <path id="mfab3f83452" d="M 0 0 
L -3.5 0 
" style="stroke: #000000; stroke-width: 0.8"/>
      </defs>
      <g>
       <use xlink:href="#mfab3f83452" x="45.716875" y="423.599456" style="stroke: #000000; stroke-width: 0.8"/>
      </g>
     </g>
     <g id="text_8">
      <!-- 0.0 -->
      <g transform="translate(22.81375 427.398675) scale(0.1 -0.1)">
       <defs>
        <path id="DejaVuSans-2e" d="M 684 794 
L 1344 794 
L 1344 0 
L 684 0 
L 684 794 
z
" transform="scale(0.015625)"/>
       </defs>
       <use xlink:href="#DejaVuSans-30"/>
       <use xlink:href="#DejaVuSans-2e" transform="translate(63.623047 0)"/>
       <use xlink:href="#DejaVuSans-30" transform="translate(95.410156 0)"/>
      </g>
     </g>
    </g>
    <g id="ytick_2">
     <g id="line2d_15">
      <path d="M 45.716875 359.076189 
L 848.316875 359.076189 
" clip-path="url(#p990942a8f4)" style="fill: none; stroke: #b0b0b0; stroke-opacity: 0.2; stroke-width: 0.8; stroke-linecap: square"/>
     </g>
     <g id="line2d_16">
      <g>
       <use xlink:href="#mfab3f83452" x="45.716875" y="359.076189" style="stroke: #000000; stroke-width: 0.8"/>
      </g>
     </g>
     <g id="text_9">
      <!-- 0.5 -->
      <g transform="translate(22.81375 362.875408) scale(0.1 -0.1)">
       <use xlink:href="#DejaVuSans-30"/>
       <use xlink:href="#DejaVuSans-2e" transform="translate(63.623047 0)"/>
       <use xlink:href="#DejaVuSans-35" transform="translate(95.410156 0)"/>
      </g>
     </g>
    </g>
    <g id="ytick_3">
     <g id="line2d_17">
      <path d="M 45.716875 294.552922 
L 848.316875 294.552922 
" clip-path="url(#p990942a8f4)" style="fill: none; stroke: #b0b0b0; stroke-opacity: 0.2; stroke-width: 0.8; stroke-linecap: square"/>
     </g>
     <g id="line2d_18">
      <g>
       <use xlink:href="#mfab3f83452" x="45.716875" y="294.552922" style="stroke: #000000; stroke-width: 0.8"/>
      </g>
     </g>
     <g id="text_10">
      <!-- 1.0 -->
      <g transform="translate(22.81375 298.352141) scale(0.1 -0.1)">
       <use xlink:href="#DejaVuSans-31"/>
       <use xlink:href="#DejaVuSans-2e" transform="translate(63.623047 0)"/>
       <use xlink:href="#DejaVuSans-30" transform="translate(95.410156 0)"/>
      </g>
     </g>
    </g>
    <g id="ytick_4">
     <g id="line2d_19">
      <path d="M 45.716875 230.029655 
L 848.316875 230.029655 
" clip-path="url(#p990942a8f4)" style="fill: none; stroke: #b0b0b0; stroke-opacity: 0.2; stroke-width: 0.8; stroke-linecap: square"/>
     </g>
     <g id="line2d_20">
      <g>
       <use xlink:href="#mfab3f83452" x="45.716875" y="230.029655" style="stroke: #000000; stroke-width: 0.8"/>
      </g>
     </g>
     <g id="text_11">
      <!-- 1.5 -->
      <g transform="translate(22.81375 233.828874) scale(0.1 -0.1)">
       <use xlink:href="#DejaVuSans-31"/>
       <use xlink:href="#DejaVuSans-2e" transform="translate(63.623047 0)"/>
       <use xlink:href="#DejaVuSans-35" transform="translate(95.410156 0)"/>
      </g>
     </g>
    </g>
    <g id="ytick_5">
     <g id="line2d_21">
      <path d="M 45.716875 165.506388 
L 848.316875 165.506388 
" clip-path="url(#p990942a8f4)" style="fill: none; stroke: #b0b0b0; stroke-opacity: 0.2; stroke-width: 0.8; stroke-linecap: square"/>
     </g>
     <g id="line2d_22">
      <g>
       <use xlink:href="#mfab3f83452" x="45.716875" y="165.506388" style="stroke: #000000; stroke-width: 0.8"/>
      </g>
     </g>
     <g id="text_12">
      <!-- 2.0 -->
      <g transform="translate(22.81375 169.305607) scale(0.1 -0.1)">
       <use xlink:href="#DejaVuSans-32"/>
       <use xlink:href="#DejaVuSans-2e" transform="translate(63.623047 0)"/>
       <use xlink:href="#DejaVuSans-30" transform="translate(95.410156 0)"/>
      </g>
     </g>
    </g>
    <g id="ytick_6">
     <g id="line2d_23">
      <path d="M 45.716875 100.983121 
L 848.316875 100.983121 
" clip-path="url(#p990942a8f4)" style="fill: none; stroke: #b0b0b0; stroke-opacity: 0.2; stroke-width: 0.8; stroke-linecap: square"/>
     </g>
     <g id="line2d_24">
      <g>
       <use xlink:href="#mfab3f83452" x="45.716875" y="100.983121" style="stroke: #000000; stroke-width: 0.8"/>
      </g>
     </g>
     <g id="text_13">
      <!-- 2.5 -->
      <g transform="translate(22.81375 104.78234) scale(0.1 -0.1)">
       <use xlink:href="#DejaVuSans-32"/>
       <use xlink:href="#DejaVuSans-2e" transform="translate(63.623047 0)"/>
       <use xlink:href="#DejaVuSans-35" transform="translate(95.410156 0)"/>
      </g>
     </g>
    </g>
    <g id="ytick_7">
     <g id="line2d_25">
      <path d="M 45.716875 36.459854 
L 848.316875 36.459854 
" clip-path="url(#p990942a8f4)" style="fill: none; stroke: #b0b0b0; stroke-opacity: 0.2; stroke-width: 0.8; stroke-linecap: square"/>
     </g>
     <g id="line2d_26">
      <g>
       <use xlink:href="#mfab3f83452" x="45.716875" y="36.459854" style="stroke: #000000; stroke-width: 0.8"/>
      </g>
     </g>
     <g id="text_14">
      <!-- 3.0 -->
      <g transform="translate(22.81375 40.259073) scale(0.1 -0.1)">
       <use xlink:href="#DejaVuSans-33"/>
       <use xlink:href="#DejaVuSans-2e" transform="translate(63.623047 0)"/>
       <use xlink:href="#DejaVuSans-30" transform="translate(95.410156 0)"/>
      </g>
     </g>
    </g>
    <g id="text_15">
     <!-- Miller player expected gain over Zwick player -->
     <g transform="translate(16.318125 376.704687) rotate(-90) scale(0.12 -0.12)">
      <defs>
       <path id="DejaVuSans-4d" d="M 628 4666 
L 1569 4666 
L 2759 1491 
L 3956 4666 
L 4897 4666 
L 4897 0 
L 4281 0 
L 4281 4097 
L 3078 897 
L 2444 897 
L 1241 4097 
L 1241 0 
L 628 0 
L 628 4666 
z
" transform="scale(0.015625)"/>
       <path id="DejaVuSans-65" d="M 3597 1894 
L 3597 1613 
L 953 1613 
Q 991 1019 1311 708 
Q 1631 397 2203 397 
Q 2534 397 2845 478 
Q 3156 559 3463 722 
L 3463 178 
Q 3153 47 2828 -22 
Q 2503 -91 2169 -91 
Q 1331 -91 842 396 
Q 353 884 353 1716 
Q 353 2575 817 3079 
Q 1281 3584 2069 3584 
Q 2775 3584 3186 3129 
Q 3597 2675 3597 1894 
z
M 3022 2063 
Q 3016 2534 2758 2815 
Q 2500 3097 2075 3097 
Q 1594 3097 1305 2825 
Q 1016 2553 972 2059 
L 3022 2063 
z
" transform="scale(0.015625)"/>
       <path id="DejaVuSans-72" d="M 2631 2963 
Q 2534 3019 2420 3045 
Q 2306 3072 2169 3072 
Q 1681 3072 1420 2755 
Q 1159 2438 1159 1844 
L 1159 0 
L 581 0 
L 581 3500 
L 1159 3500 
L 1159 2956 
Q 1341 3275 1631 3429 
Q 1922 3584 2338 3584 
Q 2397 3584 2469 3576 
Q 2541 3569 2628 3553 
L 2631 2963 
z
" transform="scale(0.015625)"/>
       <path id="DejaVuSans-70" d="M 1159 525 
L 1159 -1331 
L 581 -1331 
L 581 3500 
L 1159 3500 
L 1159 2969 
Q 1341 3281 1617 3432 
Q 1894 3584 2278 3584 
Q 2916 3584 3314 3078 
Q 3713 2572 3713 1747 
Q 3713 922 3314 415 
Q 2916 -91 2278 -91 
Q 1894 -91 1617 61 
Q 1341 213 1159 525 
z
M 3116 1747 
Q 3116 2381 2855 2742 
Q 2594 3103 2138 3103 
Q 1681 3103 1420 2742 
Q 1159 2381 1159 1747 
Q 1159 1113 1420 752 
Q 1681 391 2138 391 
Q 2594 391 2855 752 
Q 3116 1113 3116 1747 
z
" transform="scale(0.015625)"/>
       <path id="DejaVuSans-79" d="M 2059 -325 
Q 1816 -950 1584 -1140 
Q 1353 -1331 966 -1331 
L 506 -1331 
L 506 -850 
L 844 -850 
Q 1081 -850 1212 -737 
Q 1344 -625 1503 -206 
L 1606 56 
L 191 3500 
L 800 3500 
L 1894 763 
L 2988 3500 
L 3597 3500 
L 2059 -325 
z
" transform="scale(0.015625)"/>
       <path id="DejaVuSans-78" d="M 3513 3500 
L 2247 1797 
L 3578 0 
L 2900 0 
L 1881 1375 
L 863 0 
L 184 0 
L 1544 1831 
L 300 3500 
L 978 3500 
L 1906 2253 
L 2834 3500 
L 3513 3500 
z
" transform="scale(0.015625)"/>
       <path id="DejaVuSans-64" d="M 2906 2969 
L 2906 4863 
L 3481 4863 
L 3481 0 
L 2906 0 
L 2906 525 
Q 2725 213 2448 61 
Q 2172 -91 1784 -91 
Q 1150 -91 751 415 
Q 353 922 353 1747 
Q 353 2572 751 3078 
Q 1150 3584 1784 3584 
Q 2172 3584 2448 3432 
Q 2725 3281 2906 2969 
z
M 947 1747 
Q 947 1113 1208 752 
Q 1469 391 1925 391 
Q 2381 391 2643 752 
Q 2906 1113 2906 1747 
Q 2906 2381 2643 2742 
Q 2381 3103 1925 3103 
Q 1469 3103 1208 2742 
Q 947 2381 947 1747 
z
" transform="scale(0.015625)"/>
       <path id="DejaVuSans-67" d="M 2906 1791 
Q 2906 2416 2648 2759 
Q 2391 3103 1925 3103 
Q 1463 3103 1205 2759 
Q 947 2416 947 1791 
Q 947 1169 1205 825 
Q 1463 481 1925 481 
Q 2391 481 2648 825 
Q 2906 1169 2906 1791 
z
M 3481 434 
Q 3481 -459 3084 -895 
Q 2688 -1331 1869 -1331 
Q 1566 -1331 1297 -1286 
Q 1028 -1241 775 -1147 
L 775 -588 
Q 1028 -725 1275 -790 
Q 1522 -856 1778 -856 
Q 2344 -856 2625 -561 
Q 2906 -266 2906 331 
L 2906 616 
Q 2728 306 2450 153 
Q 2172 0 1784 0 
Q 1141 0 747 490 
Q 353 981 353 1791 
Q 353 2603 747 3093 
Q 1141 3584 1784 3584 
Q 2172 3584 2450 3431 
Q 2728 3278 2906 2969 
L 2906 3500 
L 3481 3500 
L 3481 434 
z
" transform="scale(0.015625)"/>
       <path id="DejaVuSans-76" d="M 191 3500 
L 800 3500 
L 1894 563 
L 2988 3500 
L 3597 3500 
L 2284 0 
L 1503 0 
L 191 3500 
z
" transform="scale(0.015625)"/>
       <path id="DejaVuSans-5a" d="M 359 4666 
L 4025 4666 
L 4025 4184 
L 1075 531 
L 4097 531 
L 4097 0 
L 288 0 
L 288 481 
L 3238 4134 
L 359 4134 
L 359 4666 
z
" transform="scale(0.015625)"/>
       <path id="DejaVuSans-77" d="M 269 3500 
L 844 3500 
L 1563 769 
L 2278 3500 
L 2956 3500 
L 3675 769 
L 4391 3500 
L 4966 3500 
L 4050 0 
L 3372 0 
L 2619 2869 
L 1863 0 
L 1184 0 
L 269 3500 
z
" transform="scale(0.015625)"/>
       <path id="DejaVuSans-6b" d="M 581 4863 
L 1159 4863 
L 1159 1991 
L 2875 3500 
L 3609 3500 
L 1753 1863 
L 3688 0 
L 2938 0 
L 1159 1709 
L 1159 0 
L 581 0 
L 581 4863 
z
" transform="scale(0.015625)"/>
      </defs>
      <use xlink:href="#DejaVuSans-4d"/>
      <use xlink:href="#DejaVuSans-69" transform="translate(86.279297 0)"/>
      <use xlink:href="#DejaVuSans-6c" transform="translate(114.0625 0)"/>
      <use xlink:href="#DejaVuSans-6c" transform="translate(141.845703 0)"/>
      <use xlink:href="#DejaVuSans-65" transform="translate(169.628906 0)"/>
      <use xlink:href="#DejaVuSans-72" transform="translate(231.152344 0)"/>
      <use xlink:href="#DejaVuSans-20" transform="translate(272.265625 0)"/>
      <use xlink:href="#DejaVuSans-70" transform="translate(304.052734 0)"/>
      <use xlink:href="#DejaVuSans-6c" transform="translate(367.529297 0)"/>
      <use xlink:href="#DejaVuSans-61" transform="translate(395.3125 0)"/>
      <use xlink:href="#DejaVuSans-79" transform="translate(456.591797 0)"/>
      <use xlink:href="#DejaVuSans-65" transform="translate(515.771484 0)"/>
      <use xlink:href="#DejaVuSans-72" transform="translate(577.294922 0)"/>
      <use xlink:href="#DejaVuSans-20" transform="translate(618.408203 0)"/>
      <use xlink:href="#DejaVuSans-65" transform="translate(650.195312 0)"/>
      <use xlink:href="#DejaVuSans-78" transform="translate(709.96875 0)"/>
      <use xlink:href="#DejaVuSans-70" transform="translate(769.148438 0)"/>
      <use xlink:href="#DejaVuSans-65" transform="translate(832.625 0)"/>
      <use xlink:href="#DejaVuSans-63" transform="translate(894.148438 0)"/>
      <use xlink:href="#DejaVuSans-74" transform="translate(949.128906 0)"/>
      <use xlink:href="#DejaVuSans-65" transform="translate(988.337891 0)"/>
      <use xlink:href="#DejaVuSans-64" transform="translate(1049.861328 0)"/>
      <use xlink:href="#DejaVuSans-20" transform="translate(1113.337891 0)"/>
      <use xlink:href="#DejaVuSans-67" transform="translate(1145.125 0)"/>
      <use xlink:href="#DejaVuSans-61" transform="translate(1208.601562 0)"/>
      <use xlink:href="#DejaVuSans-69" transform="translate(1269.880859 0)"/>
      <use xlink:href="#DejaVuSans-6e" transform="translate(1297.664062 0)"/>
      <use xlink:href="#DejaVuSans-20" transform="translate(1361.042969 0)"/>
      <use xlink:href="#DejaVuSans-6f" transform="translate(1392.830078 0)"/>
      <use xlink:href="#DejaVuSans-76" transform="translate(1454.011719 0)"/>
      <use xlink:href="#DejaVuSans-65" transform="translate(1513.191406 0)"/>
      <use xlink:href="#DejaVuSans-72" transform="translate(1574.714844 0)"/>
      <use xlink:href="#DejaVuSans-20" transform="translate(1615.828125 0)"/>
      <use xlink:href="#DejaVuSans-5a" transform="translate(1647.615234 0)"/>
      <use xlink:href="#DejaVuSans-77" transform="translate(1716.121094 0)"/>
      <use xlink:href="#DejaVuSans-69" transform="translate(1797.908203 0)"/>
      <use xlink:href="#DejaVuSans-63" transform="translate(1825.691406 0)"/>
      <use xlink:href="#DejaVuSans-6b" transform="translate(1880.671875 0)"/>
      <use xlink:href="#DejaVuSans-20" transform="translate(1938.582031 0)"/>
      <use xlink:href="#DejaVuSans-70" transform="translate(1970.369141 0)"/>
      <use xlink:href="#DejaVuSans-6c" transform="translate(2033.845703 0)"/>
      <use xlink:href="#DejaVuSans-61" transform="translate(2061.628906 0)"/>
      <use xlink:href="#DejaVuSans-79" transform="translate(2122.908203 0)"/>
      <use xlink:href="#DejaVuSans-65" transform="translate(2182.087891 0)"/>
      <use xlink:href="#DejaVuSans-72" transform="translate(2243.611328 0)"/>
     </g>
    </g>
   </g>
   <g id="line2d_27">
    <path d="M 82.198693 412.153028 
L 228.125966 426.24491 
L 374.053239 425.651296 
L 519.980511 421.637949 
L 665.907784 432.219765 
L 811.835057 425.986817 
" clip-path="url(#p990942a8f4)" style="fill: none; stroke: #463480; stroke-width: 2; stroke-linecap: square"/>
    <defs>
     <path id="m7a9c98adda" d="M 0 3 
C 0.795609 3 1.55874 2.683901 2.12132 2.12132 
C 2.683901 1.55874 3 0.795609 3 0 
C 3 -0.795609 2.683901 -1.55874 2.12132 -2.12132 
C 1.55874 -2.683901 0.795609 -3 0 -3 
C -0.795609 -3 -1.55874 -2.683901 -2.12132 -2.12132 
C -2.683901 -1.55874 -3 -0.795609 -3 0 
C -3 0.795609 -2.683901 1.55874 -2.12132 2.12132 
C -1.55874 2.683901 -0.795609 3 0 3 
z
" style="stroke: #463480"/>
    </defs>
    <g clip-path="url(#p990942a8f4)">
     <use xlink:href="#m7a9c98adda" x="82.198693" y="412.153028" style="fill: #463480; stroke: #463480"/>
     <use xlink:href="#m7a9c98adda" x="228.125966" y="426.24491" style="fill: #463480; stroke: #463480"/>
     <use xlink:href="#m7a9c98adda" x="374.053239" y="425.651296" style="fill: #463480; stroke: #463480"/>
     <use xlink:href="#m7a9c98adda" x="519.980511" y="421.637949" style="fill: #463480; stroke: #463480"/>
     <use xlink:href="#m7a9c98adda" x="665.907784" y="432.219765" style="fill: #463480; stroke: #463480"/>
     <use xlink:href="#m7a9c98adda" x="811.835057" y="425.986817" style="fill: #463480; stroke: #463480"/>
    </g>
   </g>
   <g id="line2d_28">
    <path d="M 82.198693 414.114536 
L 228.125966 416.992274 
L 374.053239 423.741407 
L 519.980511 435.781449 
L 665.907784 429.458169 
L 811.835057 428.916173 
" clip-path="url(#p990942a8f4)" style="fill: none; stroke-dasharray: 5.55,2.4; stroke-dashoffset: 0; stroke: #463480; stroke-opacity: 0.7; stroke-width: 1.5"/>
    <defs>
     <path id="mb3c0e83dbc" d="M -2.5 2.5 
L 2.5 2.5 
L 2.5 -2.5 
L -2.5 -2.5 
z
" style="stroke: #463480; stroke-opacity: 0.7; stroke-linejoin: miter"/>
    </defs>
    <g clip-path="url(#p990942a8f4)">
     <use xlink:href="#mb3c0e83dbc" x="82.198693" y="414.114536" style="fill: #463480; fill-opacity: 0.7; stroke: #463480; stroke-opacity: 0.7; stroke-linejoin: miter"/>
     <use xlink:href="#mb3c0e83dbc" x="228.125966" y="416.992274" style="fill: #463480; fill-opacity: 0.7; stroke: #463480; stroke-opacity: 0.7; stroke-linejoin: miter"/>
     <use xlink:href="#mb3c0e83dbc" x="374.053239" y="423.741407" style="fill: #463480; fill-opacity: 0.7; stroke: #463480; stroke-opacity: 0.7; stroke-linejoin: miter"/>
     <use xlink:href="#mb3c0e83dbc" x="519.980511" y="435.781449" style="fill: #463480; fill-opacity: 0.7; stroke: #463480; stroke-opacity: 0.7; stroke-linejoin: miter"/>
     <use xlink:href="#mb3c0e83dbc" x="665.907784" y="429.458169" style="fill: #463480; fill-opacity: 0.7; stroke: #463480; stroke-opacity: 0.7; stroke-linejoin: miter"/>
     <use xlink:href="#mb3c0e83dbc" x="811.835057" y="428.916173" style="fill: #463480; fill-opacity: 0.7; stroke: #463480; stroke-opacity: 0.7; stroke-linejoin: miter"/>
    </g>
   </g>
   <g id="line2d_29">
    <path d="M 82.198693 383.42727 
L 228.125966 395.235028 
L 374.053239 392.266958 
L 519.980511 392.783144 
L 665.907784 400.706601 
L 811.835057 403.132676 
" clip-path="url(#p990942a8f4)" style="fill: none; stroke: #31668e; stroke-width: 2; stroke-linecap: square"/>
    <defs>
     <path id="mc7106df825" d="M 0 3 
C 0.795609 3 1.55874 2.683901 2.12132 2.12132 
C 2.683901 1.55874 3 0.795609 3 0 
C 3 -0.795609 2.683901 -1.55874 2.12132 -2.12132 
C 1.55874 -2.683901 0.795609 -3 0 -3 
C -0.795609 -3 -1.55874 -2.683901 -2.12132 -2.12132 
C -2.683901 -1.55874 -3 -0.795609 -3 0 
C -3 0.795609 -2.683901 1.55874 -2.12132 2.12132 
C -1.55874 2.683901 -0.795609 3 0 3 
z
" style="stroke: #31668e"/>
    </defs>
    <g clip-path="url(#p990942a8f4)">
     <use xlink:href="#mc7106df825" x="82.198693" y="383.42727" style="fill: #31668e; stroke: #31668e"/>
     <use xlink:href="#mc7106df825" x="228.125966" y="395.235028" style="fill: #31668e; stroke: #31668e"/>
     <use xlink:href="#mc7106df825" x="374.053239" y="392.266958" style="fill: #31668e; stroke: #31668e"/>
     <use xlink:href="#mc7106df825" x="519.980511" y="392.783144" style="fill: #31668e; stroke: #31668e"/>
     <use xlink:href="#mc7106df825" x="665.907784" y="400.706601" style="fill: #31668e; stroke: #31668e"/>
     <use xlink:href="#mc7106df825" x="811.835057" y="403.132676" style="fill: #31668e; stroke: #31668e"/>
    </g>
   </g>
   <g id="line2d_30">
    <path d="M 82.198693 365.618848 
L 228.125966 377.439511 
L 374.053239 390.782922 
L 519.980511 388.292324 
L 665.907784 400.151701 
L 811.835057 398.267621 
" clip-path="url(#p990942a8f4)" style="fill: none; stroke-dasharray: 5.55,2.4; stroke-dashoffset: 0; stroke: #31668e; stroke-opacity: 0.7; stroke-width: 1.5"/>
    <defs>
     <path id="m494ae43432" d="M -2.5 2.5 
L 2.5 2.5 
L 2.5 -2.5 
L -2.5 -2.5 
z
" style="stroke: #31668e; stroke-opacity: 0.7; stroke-linejoin: miter"/>
    </defs>
    <g clip-path="url(#p990942a8f4)">
     <use xlink:href="#m494ae43432" x="82.198693" y="365.618848" style="fill: #31668e; fill-opacity: 0.7; stroke: #31668e; stroke-opacity: 0.7; stroke-linejoin: miter"/>
     <use xlink:href="#m494ae43432" x="228.125966" y="377.439511" style="fill: #31668e; fill-opacity: 0.7; stroke: #31668e; stroke-opacity: 0.7; stroke-linejoin: miter"/>
     <use xlink:href="#m494ae43432" x="374.053239" y="390.782922" style="fill: #31668e; fill-opacity: 0.7; stroke: #31668e; stroke-opacity: 0.7; stroke-linejoin: miter"/>
     <use xlink:href="#m494ae43432" x="519.980511" y="388.292324" style="fill: #31668e; fill-opacity: 0.7; stroke: #31668e; stroke-opacity: 0.7; stroke-linejoin: miter"/>
     <use xlink:href="#m494ae43432" x="665.907784" y="400.151701" style="fill: #31668e; fill-opacity: 0.7; stroke: #31668e; stroke-opacity: 0.7; stroke-linejoin: miter"/>
     <use xlink:href="#m494ae43432" x="811.835057" y="398.267621" style="fill: #31668e; fill-opacity: 0.7; stroke: #31668e; stroke-opacity: 0.7; stroke-linejoin: miter"/>
    </g>
   </g>
   <g id="line2d_31">
    <path d="M 82.198693 334.002447 
L 228.125966 347.526524 
L 374.053239 349.836457 
L 519.980511 355.411267 
L 665.907784 348.249185 
L 811.835057 362.702397 
" clip-path="url(#p990942a8f4)" style="fill: none; stroke: #21918c; stroke-width: 2; stroke-linecap: square"/>
    <defs>
     <path id="m48d5777cca" d="M 0 3 
C 0.795609 3 1.55874 2.683901 2.12132 2.12132 
C 2.683901 1.55874 3 0.795609 3 0 
C 3 -0.795609 2.683901 -1.55874 2.12132 -2.12132 
C 1.55874 -2.683901 0.795609 -3 0 -3 
C -0.795609 -3 -1.55874 -2.683901 -2.12132 -2.12132 
C -2.683901 -1.55874 -3 -0.795609 -3 0 
C -3 0.795609 -2.683901 1.55874 -2.12132 2.12132 
C -1.55874 2.683901 -0.795609 3 0 3 
z
" style="stroke: #21918c"/>
    </defs>
    <g clip-path="url(#p990942a8f4)">
     <use xlink:href="#m48d5777cca" x="82.198693" y="334.002447" style="fill: #21918c; stroke: #21918c"/>
     <use xlink:href="#m48d5777cca" x="228.125966" y="347.526524" style="fill: #21918c; stroke: #21918c"/>
     <use xlink:href="#m48d5777cca" x="374.053239" y="349.836457" style="fill: #21918c; stroke: #21918c"/>
     <use xlink:href="#m48d5777cca" x="519.980511" y="355.411267" style="fill: #21918c; stroke: #21918c"/>
     <use xlink:href="#m48d5777cca" x="665.907784" y="348.249185" style="fill: #21918c; stroke: #21918c"/>
     <use xlink:href="#m48d5777cca" x="811.835057" y="362.702397" style="fill: #21918c; stroke: #21918c"/>
    </g>
   </g>
   <g id="line2d_32">
    <path d="M 82.198693 313.974425 
L 228.125966 336.170429 
L 374.053239 335.809099 
L 519.980511 343.267989 
L 665.907784 358.831001 
L 811.835057 352.017344 
" clip-path="url(#p990942a8f4)" style="fill: none; stroke-dasharray: 5.55,2.4; stroke-dashoffset: 0; stroke: #21918c; stroke-opacity: 0.7; stroke-width: 1.5"/>
    <defs>
     <path id="m3137948d8e" d="M -2.5 2.5 
L 2.5 2.5 
L 2.5 -2.5 
L -2.5 -2.5 
z
" style="stroke: #21918c; stroke-opacity: 0.7; stroke-linejoin: miter"/>
    </defs>
    <g clip-path="url(#p990942a8f4)">
     <use xlink:href="#m3137948d8e" x="82.198693" y="313.974425" style="fill: #21918c; fill-opacity: 0.7; stroke: #21918c; stroke-opacity: 0.7; stroke-linejoin: miter"/>
     <use xlink:href="#m3137948d8e" x="228.125966" y="336.170429" style="fill: #21918c; fill-opacity: 0.7; stroke: #21918c; stroke-opacity: 0.7; stroke-linejoin: miter"/>
     <use xlink:href="#m3137948d8e" x="374.053239" y="335.809099" style="fill: #21918c; fill-opacity: 0.7; stroke: #21918c; stroke-opacity: 0.7; stroke-linejoin: miter"/>
     <use xlink:href="#m3137948d8e" x="519.980511" y="343.267989" style="fill: #21918c; fill-opacity: 0.7; stroke: #21918c; stroke-opacity: 0.7; stroke-linejoin: miter"/>
     <use xlink:href="#m3137948d8e" x="665.907784" y="358.831001" style="fill: #21918c; fill-opacity: 0.7; stroke: #21918c; stroke-opacity: 0.7; stroke-linejoin: miter"/>
     <use xlink:href="#m3137948d8e" x="811.835057" y="352.017344" style="fill: #21918c; fill-opacity: 0.7; stroke: #21918c; stroke-opacity: 0.7; stroke-linejoin: miter"/>
    </g>
   </g>
   <g id="line2d_33">
    <path d="M 82.198693 218.583227 
L 228.125966 242.779453 
L 374.053239 242.276171 
L 519.980511 258.32956 
L 665.907784 255.980913 
L 811.835057 281.79022 
" clip-path="url(#p990942a8f4)" style="fill: none; stroke: #38b977; stroke-width: 2; stroke-linecap: square"/>
    <defs>
     <path id="m04b7b47326" d="M 0 3 
C 0.795609 3 1.55874 2.683901 2.12132 2.12132 
C 2.683901 1.55874 3 0.795609 3 0 
C 3 -0.795609 2.683901 -1.55874 2.12132 -2.12132 
C 1.55874 -2.683901 0.795609 -3 0 -3 
C -0.795609 -3 -1.55874 -2.683901 -2.12132 -2.12132 
C -2.683901 -1.55874 -3 -0.795609 -3 0 
C -3 0.795609 -2.683901 1.55874 -2.12132 2.12132 
C -1.55874 2.683901 -0.795609 3 0 3 
z
" style="stroke: #38b977"/>
    </defs>
    <g clip-path="url(#p990942a8f4)">
     <use xlink:href="#m04b7b47326" x="82.198693" y="218.583227" style="fill: #38b977; stroke: #38b977"/>
     <use xlink:href="#m04b7b47326" x="228.125966" y="242.779453" style="fill: #38b977; stroke: #38b977"/>
     <use xlink:href="#m04b7b47326" x="374.053239" y="242.276171" style="fill: #38b977; stroke: #38b977"/>
     <use xlink:href="#m04b7b47326" x="519.980511" y="258.32956" style="fill: #38b977; stroke: #38b977"/>
     <use xlink:href="#m04b7b47326" x="665.907784" y="255.980913" style="fill: #38b977; stroke: #38b977"/>
     <use xlink:href="#m04b7b47326" x="811.835057" y="281.79022" style="fill: #38b977; stroke: #38b977"/>
    </g>
   </g>
   <g id="line2d_34">
    <path d="M 82.198693 203.523497 
L 228.125966 233.552625 
L 374.053239 246.547611 
L 519.980511 248.857544 
L 665.907784 260.420114 
L 811.835057 280.822371 
" clip-path="url(#p990942a8f4)" style="fill: none; stroke-dasharray: 5.55,2.4; stroke-dashoffset: 0; stroke: #38b977; stroke-opacity: 0.7; stroke-width: 1.5"/>
    <defs>
     <path id="m6a95a1f888" d="M -2.5 2.5 
L 2.5 2.5 
L 2.5 -2.5 
L -2.5 -2.5 
z
" style="stroke: #38b977; stroke-opacity: 0.7; stroke-linejoin: miter"/>
    </defs>
    <g clip-path="url(#p990942a8f4)">
     <use xlink:href="#m6a95a1f888" x="82.198693" y="203.523497" style="fill: #38b977; fill-opacity: 0.7; stroke: #38b977; stroke-opacity: 0.7; stroke-linejoin: miter"/>
     <use xlink:href="#m6a95a1f888" x="228.125966" y="233.552625" style="fill: #38b977; fill-opacity: 0.7; stroke: #38b977; stroke-opacity: 0.7; stroke-linejoin: miter"/>
     <use xlink:href="#m6a95a1f888" x="374.053239" y="246.547611" style="fill: #38b977; fill-opacity: 0.7; stroke: #38b977; stroke-opacity: 0.7; stroke-linejoin: miter"/>
     <use xlink:href="#m6a95a1f888" x="519.980511" y="248.857544" style="fill: #38b977; fill-opacity: 0.7; stroke: #38b977; stroke-opacity: 0.7; stroke-linejoin: miter"/>
     <use xlink:href="#m6a95a1f888" x="665.907784" y="260.420114" style="fill: #38b977; fill-opacity: 0.7; stroke: #38b977; stroke-opacity: 0.7; stroke-linejoin: miter"/>
     <use xlink:href="#m6a95a1f888" x="811.835057" y="280.822371" style="fill: #38b977; fill-opacity: 0.7; stroke: #38b977; stroke-opacity: 0.7; stroke-linejoin: miter"/>
    </g>
   </g>
   <g id="line2d_35">
    <path d="M 82.198693 43.454176 
L 228.125966 97.744053 
L 374.053239 119.720678 
L 519.980511 125.21806 
L 665.907784 119.165778 
L 811.835057 150.743465 
" clip-path="url(#p990942a8f4)" style="fill: none; stroke: #9bd93c; stroke-width: 2; stroke-linecap: square"/>
    <defs>
     <path id="m942716d6ea" d="M 0 3 
C 0.795609 3 1.55874 2.683901 2.12132 2.12132 
C 2.683901 1.55874 3 0.795609 3 0 
C 3 -0.795609 2.683901 -1.55874 2.12132 -2.12132 
C 1.55874 -2.683901 0.795609 -3 0 -3 
C -0.795609 -3 -1.55874 -2.683901 -2.12132 -2.12132 
C -2.683901 -1.55874 -3 -0.795609 -3 0 
C -3 0.795609 -2.683901 1.55874 -2.12132 2.12132 
C -1.55874 2.683901 -0.795609 3 0 3 
z
" style="stroke: #9bd93c"/>
    </defs>
    <g clip-path="url(#p990942a8f4)">
     <use xlink:href="#m942716d6ea" x="82.198693" y="43.454176" style="fill: #9bd93c; stroke: #9bd93c"/>
     <use xlink:href="#m942716d6ea" x="228.125966" y="97.744053" style="fill: #9bd93c; stroke: #9bd93c"/>
     <use xlink:href="#m942716d6ea" x="374.053239" y="119.720678" style="fill: #9bd93c; stroke: #9bd93c"/>
     <use xlink:href="#m942716d6ea" x="519.980511" y="125.21806" style="fill: #9bd93c; stroke: #9bd93c"/>
     <use xlink:href="#m942716d6ea" x="665.907784" y="119.165778" style="fill: #9bd93c; stroke: #9bd93c"/>
     <use xlink:href="#m942716d6ea" x="811.835057" y="150.743465" style="fill: #9bd93c; stroke: #9bd93c"/>
    </g>
   </g>
   <g id="line2d_36">
    <path d="M 82.198693 46.577102 
L 228.125966 87.22676 
L 374.053239 110.661611 
L 519.980511 119.785201 
L 665.907784 131.076773 
L 811.835057 147.981869 
" clip-path="url(#p990942a8f4)" style="fill: none; stroke-dasharray: 5.55,2.4; stroke-dashoffset: 0; stroke: #9bd93c; stroke-opacity: 0.7; stroke-width: 1.5"/>
    <defs>
     <path id="md1a8b0f129" d="M -2.5 2.5 
L 2.5 2.5 
L 2.5 -2.5 
L -2.5 -2.5 
z
" style="stroke: #9bd93c; stroke-opacity: 0.7; stroke-linejoin: miter"/>
    </defs>
    <g clip-path="url(#p990942a8f4)">
     <use xlink:href="#md1a8b0f129" x="82.198693" y="46.577102" style="fill: #9bd93c; fill-opacity: 0.7; stroke: #9bd93c; stroke-opacity: 0.7; stroke-linejoin: miter"/>
     <use xlink:href="#md1a8b0f129" x="228.125966" y="87.22676" style="fill: #9bd93c; fill-opacity: 0.7; stroke: #9bd93c; stroke-opacity: 0.7; stroke-linejoin: miter"/>
     <use xlink:href="#md1a8b0f129" x="374.053239" y="110.661611" style="fill: #9bd93c; fill-opacity: 0.7; stroke: #9bd93c; stroke-opacity: 0.7; stroke-linejoin: miter"/>
     <use xlink:href="#md1a8b0f129" x="519.980511" y="119.785201" style="fill: #9bd93c; fill-opacity: 0.7; stroke: #9bd93c; stroke-opacity: 0.7; stroke-linejoin: miter"/>
     <use xlink:href="#md1a8b0f129" x="665.907784" y="131.076773" style="fill: #9bd93c; fill-opacity: 0.7; stroke: #9bd93c; stroke-opacity: 0.7; stroke-linejoin: miter"/>
     <use xlink:href="#md1a8b0f129" x="811.835057" y="147.981869" style="fill: #9bd93c; fill-opacity: 0.7; stroke: #9bd93c; stroke-opacity: 0.7; stroke-linejoin: miter"/>
    </g>
   </g>
   <g id="line2d_37">
    <path d="M 45.716875 423.599456 
L 848.316875 423.599456 
" clip-path="url(#p990942a8f4)" style="fill: none; stroke-dasharray: 5.55,2.4; stroke-dashoffset: 0; stroke: #000000; stroke-opacity: 0.5; stroke-width: 1.5"/>
   </g>
   <g id="patch_3">
    <path d="M 45.716875 455.397812 
L 45.716875 23.837812 
" style="fill: none; stroke: #000000; stroke-width: 0.8; stroke-linejoin: miter; stroke-linecap: square"/>
   </g>
   <g id="patch_4">
    <path d="M 848.316875 455.397812 
L 848.316875 23.837812 
" style="fill: none; stroke: #000000; stroke-width: 0.8; stroke-linejoin: miter; stroke-linecap: square"/>
   </g>
   <g id="patch_5">
    <path d="M 45.716875 455.397812 
L 848.316875 455.397812 
" style="fill: none; stroke: #000000; stroke-width: 0.8; stroke-linejoin: miter; stroke-linecap: square"/>
   </g>
   <g id="patch_6">
    <path d="M 45.716875 23.837812 
L 848.316875 23.837812 
" style="fill: none; stroke: #000000; stroke-width: 0.8; stroke-linejoin: miter; stroke-linecap: square"/>
   </g>
   <g id="text_16">
    <!-- How Much Does Miller Beat Zwick? (by board size and fluctuation) -->
    <g transform="translate(185.318594 17.837812) scale(0.14 -0.14)">
     <defs>
      <path id="DejaVuSans-Bold-48" d="M 588 4666 
L 1791 4666 
L 1791 2888 
L 3566 2888 
L 3566 4666 
L 4769 4666 
L 4769 0 
L 3566 0 
L 3566 1978 
L 1791 1978 
L 1791 0 
L 588 0 
L 588 4666 
z
" transform="scale(0.015625)"/>
      <path id="DejaVuSans-Bold-6f" d="M 2203 2784 
Q 1831 2784 1636 2517 
Q 1441 2250 1441 1747 
Q 1441 1244 1636 976 
Q 1831 709 2203 709 
Q 2569 709 2762 976 
Q 2956 1244 2956 1747 
Q 2956 2250 2762 2517 
Q 2569 2784 2203 2784 
z
M 2203 3584 
Q 3106 3584 3614 3096 
Q 4122 2609 4122 1747 
Q 4122 884 3614 396 
Q 3106 -91 2203 -91 
Q 1297 -91 786 396 
Q 275 884 275 1747 
Q 275 2609 786 3096 
Q 1297 3584 2203 3584 
z
" transform="scale(0.015625)"/>
      <path id="DejaVuSans-Bold-77" d="M 225 3500 
L 1313 3500 
L 1900 1088 
L 2491 3500 
L 3425 3500 
L 4013 1113 
L 4603 3500 
L 5691 3500 
L 4769 0 
L 3547 0 
L 2956 2406 
L 2369 0 
L 1147 0 
L 225 3500 
z
" transform="scale(0.015625)"/>
      <path id="DejaVuSans-Bold-20" transform="scale(0.015625)"/>
      <path id="DejaVuSans-Bold-4d" d="M 588 4666 
L 2119 4666 
L 3181 2169 
L 4250 4666 
L 5778 4666 
L 5778 0 
L 4641 0 
L 4641 3413 
L 3566 897 
L 2803 897 
L 1728 3413 
L 1728 0 
L 588 0 
L 588 4666 
z
" transform="scale(0.015625)"/>
      <path id="DejaVuSans-Bold-75" d="M 500 1363 
L 500 3500 
L 1625 3500 
L 1625 3150 
Q 1625 2866 1622 2436 
Q 1619 2006 1619 1863 
Q 1619 1441 1641 1255 
Q 1663 1069 1716 984 
Q 1784 875 1895 815 
Q 2006 756 2150 756 
Q 2500 756 2700 1025 
Q 2900 1294 2900 1772 
L 2900 3500 
L 4019 3500 
L 4019 0 
L 2900 0 
L 2900 506 
Q 2647 200 2364 54 
Q 2081 -91 1741 -91 
Q 1134 -91 817 281 
Q 500 653 500 1363 
z
" transform="scale(0.015625)"/>
      <path id="DejaVuSans-Bold-63" d="M 3366 3391 
L 3366 2478 
Q 3138 2634 2908 2709 
Q 2678 2784 2431 2784 
Q 1963 2784 1702 2511 
Q 1441 2238 1441 1747 
Q 1441 1256 1702 982 
Q 1963 709 2431 709 
Q 2694 709 2930 787 
Q 3166 866 3366 1019 
L 3366 103 
Q 3103 6 2833 -42 
Q 2563 -91 2291 -91 
Q 1344 -91 809 395 
Q 275 881 275 1747 
Q 275 2613 809 3098 
Q 1344 3584 2291 3584 
Q 2566 3584 2833 3536 
Q 3100 3488 3366 3391 
z
" transform="scale(0.015625)"/>
      <path id="DejaVuSans-Bold-68" d="M 4056 2131 
L 4056 0 
L 2931 0 
L 2931 347 
L 2931 1625 
Q 2931 2084 2911 2256 
Q 2891 2428 2841 2509 
Q 2775 2619 2662 2680 
Q 2550 2741 2406 2741 
Q 2056 2741 1856 2470 
Q 1656 2200 1656 1722 
L 1656 0 
L 538 0 
L 538 4863 
L 1656 4863 
L 1656 2988 
Q 1909 3294 2193 3439 
Q 2478 3584 2822 3584 
Q 3428 3584 3742 3212 
Q 4056 2841 4056 2131 
z
" transform="scale(0.015625)"/>
      <path id="DejaVuSans-Bold-44" d="M 1791 3756 
L 1791 909 
L 2222 909 
Q 2959 909 3348 1275 
Q 3738 1641 3738 2338 
Q 3738 3031 3350 3393 
Q 2963 3756 2222 3756 
L 1791 3756 
z
M 588 4666 
L 1856 4666 
Q 2919 4666 3439 4514 
Q 3959 4363 4331 4000 
Q 4659 3684 4818 3271 
Q 4978 2859 4978 2338 
Q 4978 1809 4818 1395 
Q 4659 981 4331 666 
Q 3956 303 3431 151 
Q 2906 0 1856 0 
L 588 0 
L 588 4666 
z
" transform="scale(0.015625)"/>
      <path id="DejaVuSans-Bold-65" d="M 4031 1759 
L 4031 1441 
L 1416 1441 
Q 1456 1047 1700 850 
Q 1944 653 2381 653 
Q 2734 653 3104 758 
Q 3475 863 3866 1075 
L 3866 213 
Q 3469 63 3072 -14 
Q 2675 -91 2278 -91 
Q 1328 -91 801 392 
Q 275 875 275 1747 
Q 275 2603 792 3093 
Q 1309 3584 2216 3584 
Q 3041 3584 3536 3087 
Q 4031 2591 4031 1759 
z
M 2881 2131 
Q 2881 2450 2695 2645 
Q 2509 2841 2209 2841 
Q 1884 2841 1681 2658 
Q 1478 2475 1428 2131 
L 2881 2131 
z
" transform="scale(0.015625)"/>
      <path id="DejaVuSans-Bold-73" d="M 3272 3391 
L 3272 2541 
Q 2913 2691 2578 2766 
Q 2244 2841 1947 2841 
Q 1628 2841 1473 2761 
Q 1319 2681 1319 2516 
Q 1319 2381 1436 2309 
Q 1553 2238 1856 2203 
L 2053 2175 
Q 2913 2066 3209 1816 
Q 3506 1566 3506 1031 
Q 3506 472 3093 190 
Q 2681 -91 1863 -91 
Q 1516 -91 1145 -36 
Q 775 19 384 128 
L 384 978 
Q 719 816 1070 734 
Q 1422 653 1784 653 
Q 2113 653 2278 743 
Q 2444 834 2444 1013 
Q 2444 1163 2330 1236 
Q 2216 1309 1875 1350 
L 1678 1375 
Q 931 1469 631 1722 
Q 331 1975 331 2491 
Q 331 3047 712 3315 
Q 1094 3584 1881 3584 
Q 2191 3584 2531 3537 
Q 2872 3491 3272 3391 
z
" transform="scale(0.015625)"/>
      <path id="DejaVuSans-Bold-69" d="M 538 3500 
L 1656 3500 
L 1656 0 
L 538 0 
L 538 3500 
z
M 538 4863 
L 1656 4863 
L 1656 3950 
L 538 3950 
L 538 4863 
z
" transform="scale(0.015625)"/>
      <path id="DejaVuSans-Bold-6c" d="M 538 4863 
L 1656 4863 
L 1656 0 
L 538 0 
L 538 4863 
z
" transform="scale(0.015625)"/>
      <path id="DejaVuSans-Bold-72" d="M 3138 2547 
Q 2991 2616 2845 2648 
Q 2700 2681 2553 2681 
Q 2122 2681 1889 2404 
Q 1656 2128 1656 1613 
L 1656 0 
L 538 0 
L 538 3500 
L 1656 3500 
L 1656 2925 
Q 1872 3269 2151 3426 
Q 2431 3584 2822 3584 
Q 2878 3584 2943 3579 
Q 3009 3575 3134 3559 
L 3138 2547 
z
" transform="scale(0.015625)"/>
      <path id="DejaVuSans-Bold-42" d="M 2456 2859 
Q 2741 2859 2887 2984 
Q 3034 3109 3034 3353 
Q 3034 3594 2887 3720 
Q 2741 3847 2456 3847 
L 1791 3847 
L 1791 2859 
L 2456 2859 
z
M 2497 819 
Q 2859 819 3042 972 
Q 3225 1125 3225 1434 
Q 3225 1738 3044 1889 
Q 2863 2041 2497 2041 
L 1791 2041 
L 1791 819 
L 2497 819 
z
M 3616 2497 
Q 4003 2384 4215 2081 
Q 4428 1778 4428 1338 
Q 4428 663 3972 331 
Q 3516 0 2584 0 
L 588 0 
L 588 4666 
L 2394 4666 
Q 3366 4666 3802 4372 
Q 4238 4078 4238 3431 
Q 4238 3091 4078 2852 
Q 3919 2613 3616 2497 
z
" transform="scale(0.015625)"/>
      <path id="DejaVuSans-Bold-61" d="M 2106 1575 
Q 1756 1575 1579 1456 
Q 1403 1338 1403 1106 
Q 1403 894 1545 773 
Q 1688 653 1941 653 
Q 2256 653 2472 879 
Q 2688 1106 2688 1447 
L 2688 1575 
L 2106 1575 
z
M 3816 1997 
L 3816 0 
L 2688 0 
L 2688 519 
Q 2463 200 2181 54 
Q 1900 -91 1497 -91 
Q 953 -91 614 226 
Q 275 544 275 1050 
Q 275 1666 698 1953 
Q 1122 2241 2028 2241 
L 2688 2241 
L 2688 2328 
Q 2688 2594 2478 2717 
Q 2269 2841 1825 2841 
Q 1466 2841 1156 2769 
Q 847 2697 581 2553 
L 581 3406 
Q 941 3494 1303 3539 
Q 1666 3584 2028 3584 
Q 2975 3584 3395 3211 
Q 3816 2838 3816 1997 
z
" transform="scale(0.015625)"/>
      <path id="DejaVuSans-Bold-74" d="M 1759 4494 
L 1759 3500 
L 2913 3500 
L 2913 2700 
L 1759 2700 
L 1759 1216 
Q 1759 972 1856 886 
Q 1953 800 2241 800 
L 2816 800 
L 2816 0 
L 1856 0 
Q 1194 0 917 276 
Q 641 553 641 1216 
L 641 2700 
L 84 2700 
L 84 3500 
L 641 3500 
L 641 4494 
L 1759 4494 
z
" transform="scale(0.015625)"/>
      <path id="DejaVuSans-Bold-5a" d="M 359 4666 
L 4281 4666 
L 4281 3938 
L 1778 909 
L 4353 909 
L 4353 0 
L 288 0 
L 288 728 
L 2791 3756 
L 359 3756 
L 359 4666 
z
" transform="scale(0.015625)"/>
      <path id="DejaVuSans-Bold-6b" d="M 538 4863 
L 1656 4863 
L 1656 2216 
L 2944 3500 
L 4244 3500 
L 2534 1894 
L 4378 0 
L 3022 0 
L 1656 1459 
L 1656 0 
L 538 0 
L 538 4863 
z
" transform="scale(0.015625)"/>
      <path id="DejaVuSans-Bold-3f" d="M 2216 1575 
L 1088 1575 
L 1088 1728 
Q 1088 1984 1191 2182 
Q 1294 2381 1625 2688 
L 1825 2869 
Q 2003 3031 2086 3175 
Q 2169 3319 2169 3463 
Q 2169 3681 2019 3804 
Q 1869 3928 1600 3928 
Q 1347 3928 1053 3823 
Q 759 3719 441 3513 
L 441 4494 
Q 819 4625 1131 4687 
Q 1444 4750 1734 4750 
Q 2497 4750 2897 4439 
Q 3297 4128 3297 3531 
Q 3297 3225 3175 2983 
Q 3053 2741 2759 2463 
L 2559 2284 
Q 2347 2091 2281 1973 
Q 2216 1856 2216 1716 
L 2216 1575 
z
M 1088 1113 
L 2216 1113 
L 2216 0 
L 1088 0 
L 1088 1113 
z
" transform="scale(0.015625)"/>
      <path id="DejaVuSans-Bold-28" d="M 2413 -844 
L 1484 -844 
Q 1006 -72 778 623 
Q 550 1319 550 2003 
Q 550 2688 779 3389 
Q 1009 4091 1484 4856 
L 2413 4856 
Q 2013 4116 1813 3408 
Q 1613 2700 1613 2009 
Q 1613 1319 1811 609 
Q 2009 -100 2413 -844 
z
" transform="scale(0.015625)"/>
      <path id="DejaVuSans-Bold-62" d="M 2400 722 
Q 2759 722 2948 984 
Q 3138 1247 3138 1747 
Q 3138 2247 2948 2509 
Q 2759 2772 2400 2772 
Q 2041 2772 1848 2508 
Q 1656 2244 1656 1747 
Q 1656 1250 1848 986 
Q 2041 722 2400 722 
z
M 1656 2988 
Q 1888 3294 2169 3439 
Q 2450 3584 2816 3584 
Q 3463 3584 3878 3070 
Q 4294 2556 4294 1747 
Q 4294 938 3878 423 
Q 3463 -91 2816 -91 
Q 2450 -91 2169 54 
Q 1888 200 1656 506 
L 1656 0 
L 538 0 
L 538 4863 
L 1656 4863 
L 1656 2988 
z
" transform="scale(0.015625)"/>
      <path id="DejaVuSans-Bold-79" d="M 78 3500 
L 1197 3500 
L 2138 1125 
L 2938 3500 
L 4056 3500 
L 2584 -331 
Q 2363 -916 2067 -1148 
Q 1772 -1381 1288 -1381 
L 641 -1381 
L 641 -647 
L 991 -647 
Q 1275 -647 1404 -556 
Q 1534 -466 1606 -231 
L 1638 -134 
L 78 3500 
z
" transform="scale(0.015625)"/>
      <path id="DejaVuSans-Bold-64" d="M 2919 2988 
L 2919 4863 
L 4044 4863 
L 4044 0 
L 2919 0 
L 2919 506 
Q 2688 197 2409 53 
Q 2131 -91 1766 -91 
Q 1119 -91 703 423 
Q 288 938 288 1747 
Q 288 2556 703 3070 
Q 1119 3584 1766 3584 
Q 2128 3584 2408 3439 
Q 2688 3294 2919 2988 
z
M 2181 722 
Q 2541 722 2730 984 
Q 2919 1247 2919 1747 
Q 2919 2247 2730 2509 
Q 2541 2772 2181 2772 
Q 1825 2772 1636 2509 
Q 1447 2247 1447 1747 
Q 1447 1247 1636 984 
Q 1825 722 2181 722 
z
" transform="scale(0.015625)"/>
      <path id="DejaVuSans-Bold-7a" d="M 366 3500 
L 3419 3500 
L 3419 2719 
L 1575 800 
L 3419 800 
L 3419 0 
L 288 0 
L 288 781 
L 2131 2700 
L 366 2700 
L 366 3500 
z
" transform="scale(0.015625)"/>
      <path id="DejaVuSans-Bold-6e" d="M 4056 2131 
L 4056 0 
L 2931 0 
L 2931 347 
L 2931 1631 
Q 2931 2084 2911 2256 
Q 2891 2428 2841 2509 
Q 2775 2619 2662 2680 
Q 2550 2741 2406 2741 
Q 2056 2741 1856 2470 
Q 1656 2200 1656 1722 
L 1656 0 
L 538 0 
L 538 3500 
L 1656 3500 
L 1656 2988 
Q 1909 3294 2193 3439 
Q 2478 3584 2822 3584 
Q 3428 3584 3742 3212 
Q 4056 2841 4056 2131 
z
" transform="scale(0.015625)"/>
      <path id="DejaVuSans-Bold-66" d="M 2841 4863 
L 2841 4128 
L 2222 4128 
Q 1984 4128 1890 4042 
Q 1797 3956 1797 3744 
L 1797 3500 
L 2753 3500 
L 2753 2700 
L 1797 2700 
L 1797 0 
L 678 0 
L 678 2700 
L 122 2700 
L 122 3500 
L 678 3500 
L 678 3744 
Q 678 4316 997 4589 
Q 1316 4863 1984 4863 
L 2841 4863 
z
" transform="scale(0.015625)"/>
      <path id="DejaVuSans-Bold-29" d="M 513 -844 
Q 913 -100 1113 609 
Q 1313 1319 1313 2009 
Q 1313 2700 1113 3408 
Q 913 4116 513 4856 
L 1441 4856 
Q 1916 4091 2145 3389 
Q 2375 2688 2375 2003 
Q 2375 1319 2147 623 
Q 1919 -72 1441 -844 
L 513 -844 
z
" transform="scale(0.015625)"/>
     </defs>
     <use xlink:href="#DejaVuSans-Bold-48"/>
     <use xlink:href="#DejaVuSans-Bold-6f" transform="translate(83.691406 0)"/>
     <use xlink:href="#DejaVuSans-Bold-77" transform="translate(152.392578 0)"/>
     <use xlink:href="#DejaVuSans-Bold-20" transform="translate(244.775391 0)"/>
     <use xlink:href="#DejaVuSans-Bold-4d" transform="translate(279.589844 0)"/>
     <use xlink:href="#DejaVuSans-Bold-75" transform="translate(379.101562 0)"/>
     <use xlink:href="#DejaVuSans-Bold-63" transform="translate(450.292969 0)"/>
     <use xlink:href="#DejaVuSans-Bold-68" transform="translate(509.570312 0)"/>
     <use xlink:href="#DejaVuSans-Bold-20" transform="translate(580.761719 0)"/>
     <use xlink:href="#DejaVuSans-Bold-44" transform="translate(615.576172 0)"/>
     <use xlink:href="#DejaVuSans-Bold-6f" transform="translate(698.583984 0)"/>
     <use xlink:href="#DejaVuSans-Bold-65" transform="translate(767.285156 0)"/>
     <use xlink:href="#DejaVuSans-Bold-73" transform="translate(835.107422 0)"/>
     <use xlink:href="#DejaVuSans-Bold-20" transform="translate(894.628906 0)"/>
     <use xlink:href="#DejaVuSans-Bold-4d" transform="translate(929.443359 0)"/>
     <use xlink:href="#DejaVuSans-Bold-69" transform="translate(1028.955078 0)"/>
     <use xlink:href="#DejaVuSans-Bold-6c" transform="translate(1063.232422 0)"/>
     <use xlink:href="#DejaVuSans-Bold-6c" transform="translate(1097.509766 0)"/>
     <use xlink:href="#DejaVuSans-Bold-65" transform="translate(1131.787109 0)"/>
     <use xlink:href="#DejaVuSans-Bold-72" transform="translate(1199.609375 0)"/>
     <use xlink:href="#DejaVuSans-Bold-20" transform="translate(1248.925781 0)"/>
     <use xlink:href="#DejaVuSans-Bold-42" transform="translate(1283.740234 0)"/>
     <use xlink:href="#DejaVuSans-Bold-65" transform="translate(1359.960938 0)"/>
     <use xlink:href="#DejaVuSans-Bold-61" transform="translate(1427.783203 0)"/>
     <use xlink:href="#DejaVuSans-Bold-74" transform="translate(1495.263672 0)"/>
     <use xlink:href="#DejaVuSans-Bold-20" transform="translate(1543.066406 0)"/>
     <use xlink:href="#DejaVuSans-Bold-5a" transform="translate(1577.880859 0)"/>
     <use xlink:href="#DejaVuSans-Bold-77" transform="translate(1650.390625 0)"/>
     <use xlink:href="#DejaVuSans-Bold-69" transform="translate(1742.773438 0)"/>
     <use xlink:href="#DejaVuSans-Bold-63" transform="translate(1777.050781 0)"/>
     <use xlink:href="#DejaVuSans-Bold-6b" transform="translate(1836.328125 0)"/>
     <use xlink:href="#DejaVuSans-Bold-3f" transform="translate(1902.832031 0)"/>
     <use xlink:href="#DejaVuSans-Bold-20" transform="translate(1960.839844 0)"/>
     <use xlink:href="#DejaVuSans-Bold-28" transform="translate(1995.654297 0)"/>
     <use xlink:href="#DejaVuSans-Bold-62" transform="translate(2041.357422 0)"/>
     <use xlink:href="#DejaVuSans-Bold-79" transform="translate(2112.939453 0)"/>
     <use xlink:href="#DejaVuSans-Bold-20" transform="translate(2178.125 0)"/>
     <use xlink:href="#DejaVuSans-Bold-62" transform="translate(2212.939453 0)"/>
     <use xlink:href="#DejaVuSans-Bold-6f" transform="translate(2284.521484 0)"/>
     <use xlink:href="#DejaVuSans-Bold-61" transform="translate(2353.222656 0)"/>
     <use xlink:href="#DejaVuSans-Bold-72" transform="translate(2420.703125 0)"/>
     <use xlink:href="#DejaVuSans-Bold-64" transform="translate(2470.019531 0)"/>
     <use xlink:href="#DejaVuSans-Bold-20" transform="translate(2541.601562 0)"/>
     <use xlink:href="#DejaVuSans-Bold-73" transform="translate(2576.416016 0)"/>
     <use xlink:href="#DejaVuSans-Bold-69" transform="translate(2635.9375 0)"/>
     <use xlink:href="#DejaVuSans-Bold-7a" transform="translate(2670.214844 0)"/>
     <use xlink:href="#DejaVuSans-Bold-65" transform="translate(2728.417969 0)"/>
     <use xlink:href="#DejaVuSans-Bold-20" transform="translate(2796.240234 0)"/>
     <use xlink:href="#DejaVuSans-Bold-61" transform="translate(2831.054688 0)"/>
     <use xlink:href="#DejaVuSans-Bold-6e" transform="translate(2898.535156 0)"/>
     <use xlink:href="#DejaVuSans-Bold-64" transform="translate(2969.726562 0)"/>
     <use xlink:href="#DejaVuSans-Bold-20" transform="translate(3041.308594 0)"/>
     <use xlink:href="#DejaVuSans-Bold-66" transform="translate(3076.123047 0)"/>
     <use xlink:href="#DejaVuSans-Bold-6c" transform="translate(3119.628906 0)"/>
     <use xlink:href="#DejaVuSans-Bold-75" transform="translate(3153.90625 0)"/>
     <use xlink:href="#DejaVuSans-Bold-63" transform="translate(3225.097656 0)"/>
     <use xlink:href="#DejaVuSans-Bold-74" transform="translate(3284.375 0)"/>
     <use xlink:href="#DejaVuSans-Bold-75" transform="translate(3332.177734 0)"/>
     <use xlink:href="#DejaVuSans-Bold-61" transform="translate(3403.369141 0)"/>
     <use xlink:href="#DejaVuSans-Bold-74" transform="translate(3470.849609 0)"/>
     <use xlink:href="#DejaVuSans-Bold-69" transform="translate(3518.652344 0)"/>
     <use xlink:href="#DejaVuSans-Bold-6f" transform="translate(3552.929688 0)"/>
     <use xlink:href="#DejaVuSans-Bold-6e" transform="translate(3621.630859 0)"/>
     <use xlink:href="#DejaVuSans-Bold-29" transform="translate(3692.822266 0)"/>
    </g>
   </g>
   <g id="legend_1">
    <g id="patch_7">
     <path d="M 516.786875 88.950312 
L 842.716875 88.950312 
Q 844.316875 88.950312 844.316875 87.350312 
L 844.316875 29.437812 
Q 844.316875 27.837812 842.716875 27.837812 
L 516.786875 27.837812 
Q 515.186875 27.837812 515.186875 29.437812 
L 515.186875 87.350312 
Q 515.186875 88.950312 516.786875 88.950312 
z
" style="fill: #ffffff; opacity: 0.8; stroke: #cccccc; stroke-linejoin: miter"/>
    </g>
    <g id="line2d_38">
     <path d="M 518.386875 34.316562 
L 526.386875 34.316562 
L 534.386875 34.316562 
" style="fill: none; stroke: #463480; stroke-width: 2; stroke-linecap: square"/>
     <g>
      <use xlink:href="#m7a9c98adda" x="526.386875" y="34.316562" style="fill: #463480; stroke: #463480"/>
     </g>
    </g>
    <g id="text_17">
     <!-- n=8: Miller P1 gain vs Zwick P2 -->
     <g transform="translate(540.786875 37.116562) scale(0.08 -0.08)">
      <defs>
       <path id="DejaVuSans-3d" d="M 678 2906 
L 4684 2906 
L 4684 2381 
L 678 2381 
L 678 2906 
z
M 678 1631 
L 4684 1631 
L 4684 1100 
L 678 1100 
L 678 1631 
z
" transform="scale(0.015625)"/>
       <path id="DejaVuSans-38" d="M 2034 2216 
Q 1584 2216 1326 1975 
Q 1069 1734 1069 1313 
Q 1069 891 1326 650 
Q 1584 409 2034 409 
Q 2484 409 2743 651 
Q 3003 894 3003 1313 
Q 3003 1734 2745 1975 
Q 2488 2216 2034 2216 
z
M 1403 2484 
Q 997 2584 770 2862 
Q 544 3141 544 3541 
Q 544 4100 942 4425 
Q 1341 4750 2034 4750 
Q 2731 4750 3128 4425 
Q 3525 4100 3525 3541 
Q 3525 3141 3298 2862 
Q 3072 2584 2669 2484 
Q 3125 2378 3379 2068 
Q 3634 1759 3634 1313 
Q 3634 634 3220 271 
Q 2806 -91 2034 -91 
Q 1263 -91 848 271 
Q 434 634 434 1313 
Q 434 1759 690 2068 
Q 947 2378 1403 2484 
z
M 1172 3481 
Q 1172 3119 1398 2916 
Q 1625 2713 2034 2713 
Q 2441 2713 2670 2916 
Q 2900 3119 2900 3481 
Q 2900 3844 2670 4047 
Q 2441 4250 2034 4250 
Q 1625 4250 1398 4047 
Q 1172 3844 1172 3481 
z
" transform="scale(0.015625)"/>
       <path id="DejaVuSans-3a" d="M 750 794 
L 1409 794 
L 1409 0 
L 750 0 
L 750 794 
z
M 750 3309 
L 1409 3309 
L 1409 2516 
L 750 2516 
L 750 3309 
z
" transform="scale(0.015625)"/>
       <path id="DejaVuSans-50" d="M 1259 4147 
L 1259 2394 
L 2053 2394 
Q 2494 2394 2734 2622 
Q 2975 2850 2975 3272 
Q 2975 3691 2734 3919 
Q 2494 4147 2053 4147 
L 1259 4147 
z
M 628 4666 
L 2053 4666 
Q 2838 4666 3239 4311 
Q 3641 3956 3641 3272 
Q 3641 2581 3239 2228 
Q 2838 1875 2053 1875 
L 1259 1875 
L 1259 0 
L 628 0 
L 628 4666 
z
" transform="scale(0.015625)"/>
       <path id="DejaVuSans-73" d="M 2834 3397 
L 2834 2853 
Q 2591 2978 2328 3040 
Q 2066 3103 1784 3103 
Q 1356 3103 1142 2972 
Q 928 2841 928 2578 
Q 928 2378 1081 2264 
Q 1234 2150 1697 2047 
L 1894 2003 
Q 2506 1872 2764 1633 
Q 3022 1394 3022 966 
Q 3022 478 2636 193 
Q 2250 -91 1575 -91 
Q 1294 -91 989 -36 
Q 684 19 347 128 
L 347 722 
Q 666 556 975 473 
Q 1284 391 1588 391 
Q 1994 391 2212 530 
Q 2431 669 2431 922 
Q 2431 1156 2273 1281 
Q 2116 1406 1581 1522 
L 1381 1569 
Q 847 1681 609 1914 
Q 372 2147 372 2553 
Q 372 3047 722 3315 
Q 1072 3584 1716 3584 
Q 2034 3584 2315 3537 
Q 2597 3491 2834 3397 
z
" transform="scale(0.015625)"/>
      </defs>
      <use xlink:href="#DejaVuSans-6e"/>
      <use xlink:href="#DejaVuSans-3d" transform="translate(63.378906 0)"/>
      <use xlink:href="#DejaVuSans-38" transform="translate(147.167969 0)"/>
      <use xlink:href="#DejaVuSans-3a" transform="translate(210.791016 0)"/>
      <use xlink:href="#DejaVuSans-20" transform="translate(244.482422 0)"/>
      <use xlink:href="#DejaVuSans-4d" transform="translate(276.269531 0)"/>
      <use xlink:href="#DejaVuSans-69" transform="translate(362.548828 0)"/>
      <use xlink:href="#DejaVuSans-6c" transform="translate(390.332031 0)"/>
      <use xlink:href="#DejaVuSans-6c" transform="translate(418.115234 0)"/>
      <use xlink:href="#DejaVuSans-65" transform="translate(445.898438 0)"/>
      <use xlink:href="#DejaVuSans-72" transform="translate(507.421875 0)"/>
      <use xlink:href="#DejaVuSans-20" transform="translate(548.535156 0)"/>
      <use xlink:href="#DejaVuSans-50" transform="translate(580.322266 0)"/>
      <use xlink:href="#DejaVuSans-31" transform="translate(640.625 0)"/>
      <use xlink:href="#DejaVuSans-20" transform="translate(704.248047 0)"/>
      <use xlink:href="#DejaVuSans-67" transform="translate(736.035156 0)"/>
      <use xlink:href="#DejaVuSans-61" transform="translate(799.511719 0)"/>
      <use xlink:href="#DejaVuSans-69" transform="translate(860.791016 0)"/>
      <use xlink:href="#DejaVuSans-6e" transform="translate(888.574219 0)"/>
      <use xlink:href="#DejaVuSans-20" transform="translate(951.953125 0)"/>
      <use xlink:href="#DejaVuSans-76" transform="translate(983.740234 0)"/>
      <use xlink:href="#DejaVuSans-73" transform="translate(1042.919922 0)"/>
      <use xlink:href="#DejaVuSans-20" transform="translate(1095.019531 0)"/>
      <use xlink:href="#DejaVuSans-5a" transform="translate(1126.806641 0)"/>
      <use xlink:href="#DejaVuSans-77" transform="translate(1195.3125 0)"/>
      <use xlink:href="#DejaVuSans-69" transform="translate(1277.099609 0)"/>
      <use xlink:href="#DejaVuSans-63" transform="translate(1304.882812 0)"/>
      <use xlink:href="#DejaVuSans-6b" transform="translate(1359.863281 0)"/>
      <use xlink:href="#DejaVuSans-20" transform="translate(1417.773438 0)"/>
      <use xlink:href="#DejaVuSans-50" transform="translate(1449.560547 0)"/>
      <use xlink:href="#DejaVuSans-32" transform="translate(1509.863281 0)"/>
     </g>
    </g>
    <g id="line2d_39">
     <path d="M 518.386875 46.059062 
L 526.386875 46.059062 
L 534.386875 46.059062 
" style="fill: none; stroke-dasharray: 5.55,2.4; stroke-dashoffset: 0; stroke: #463480; stroke-opacity: 0.7; stroke-width: 1.5"/>
     <g>
      <use xlink:href="#mb3c0e83dbc" x="526.386875" y="46.059062" style="fill: #463480; fill-opacity: 0.7; stroke: #463480; stroke-opacity: 0.7; stroke-linejoin: miter"/>
     </g>
    </g>
    <g id="text_18">
     <!-- n=8: Miller P2 gain vs Zwick P1 -->
     <g transform="translate(540.786875 48.859062) scale(0.08 -0.08)">
      <use xlink:href="#DejaVuSans-6e"/>
      <use xlink:href="#DejaVuSans-3d" transform="translate(63.378906 0)"/>
      <use xlink:href="#DejaVuSans-38" transform="translate(147.167969 0)"/>
      <use xlink:href="#DejaVuSans-3a" transform="translate(210.791016 0)"/>
      <use xlink:href="#DejaVuSans-20" transform="translate(244.482422 0)"/>
      <use xlink:href="#DejaVuSans-4d" transform="translate(276.269531 0)"/>
      <use xlink:href="#DejaVuSans-69" transform="translate(362.548828 0)"/>
      <use xlink:href="#DejaVuSans-6c" transform="translate(390.332031 0)"/>
      <use xlink:href="#DejaVuSans-6c" transform="translate(418.115234 0)"/>
      <use xlink:href="#DejaVuSans-65" transform="translate(445.898438 0)"/>
      <use xlink:href="#DejaVuSans-72" transform="translate(507.421875 0)"/>
      <use xlink:href="#DejaVuSans-20" transform="translate(548.535156 0)"/>
      <use xlink:href="#DejaVuSans-50" transform="translate(580.322266 0)"/>
      <use xlink:href="#DejaVuSans-32" transform="translate(640.625 0)"/>
      <use xlink:href="#DejaVuSans-20" transform="translate(704.248047 0)"/>
      <use xlink:href="#DejaVuSans-67" transform="translate(736.035156 0)"/>
      <use xlink:href="#DejaVuSans-61" transform="translate(799.511719 0)"/>
      <use xlink:href="#DejaVuSans-69" transform="translate(860.791016 0)"/>
      <use xlink:href="#DejaVuSans-6e" transform="translate(888.574219 0)"/>
      <use xlink:href="#DejaVuSans-20" transform="translate(951.953125 0)"/>
      <use xlink:href="#DejaVuSans-76" transform="translate(983.740234 0)"/>
      <use xlink:href="#DejaVuSans-73" transform="translate(1042.919922 0)"/>
      <use xlink:href="#DejaVuSans-20" transform="translate(1095.019531 0)"/>
      <use xlink:href="#DejaVuSans-5a" transform="translate(1126.806641 0)"/>
      <use xlink:href="#DejaVuSans-77" transform="translate(1195.3125 0)"/>
      <use xlink:href="#DejaVuSans-69" transform="translate(1277.099609 0)"/>
      <use xlink:href="#DejaVuSans-63" transform="translate(1304.882812 0)"/>
      <use xlink:href="#DejaVuSans-6b" transform="translate(1359.863281 0)"/>
      <use xlink:href="#DejaVuSans-20" transform="translate(1417.773438 0)"/>
      <use xlink:href="#DejaVuSans-50" transform="translate(1449.560547 0)"/>
      <use xlink:href="#DejaVuSans-31" transform="translate(1509.863281 0)"/>
     </g>
    </g>
    <g id="line2d_40">
     <path d="M 518.386875 57.801562 
L 526.386875 57.801562 
L 534.386875 57.801562 
" style="fill: none; stroke: #31668e; stroke-width: 2; stroke-linecap: square"/>
     <g>
      <use xlink:href="#mc7106df825" x="526.386875" y="57.801562" style="fill: #31668e; stroke: #31668e"/>
     </g>
    </g>
    <g id="text_19">
     <!-- n=12: Miller P1 gain vs Zwick P2 -->
     <g transform="translate(540.786875 60.601562) scale(0.08 -0.08)">
      <use xlink:href="#DejaVuSans-6e"/>
      <use xlink:href="#DejaVuSans-3d" transform="translate(63.378906 0)"/>
      <use xlink:href="#DejaVuSans-31" transform="translate(147.167969 0)"/>
      <use xlink:href="#DejaVuSans-32" transform="translate(210.791016 0)"/>
      <use xlink:href="#DejaVuSans-3a" transform="translate(274.414062 0)"/>
      <use xlink:href="#DejaVuSans-20" transform="translate(308.105469 0)"/>
      <use xlink:href="#DejaVuSans-4d" transform="translate(339.892578 0)"/>
      <use xlink:href="#DejaVuSans-69" transform="translate(426.171875 0)"/>
      <use xlink:href="#DejaVuSans-6c" transform="translate(453.955078 0)"/>
      <use xlink:href="#DejaVuSans-6c" transform="translate(481.738281 0)"/>
      <use xlink:href="#DejaVuSans-65" transform="translate(509.521484 0)"/>
      <use xlink:href="#DejaVuSans-72" transform="translate(571.044922 0)"/>
      <use xlink:href="#DejaVuSans-20" transform="translate(612.158203 0)"/>
      <use xlink:href="#DejaVuSans-50" transform="translate(643.945312 0)"/>
      <use xlink:href="#DejaVuSans-31" transform="translate(704.248047 0)"/>
      <use xlink:href="#DejaVuSans-20" transform="translate(767.871094 0)"/>
      <use xlink:href="#DejaVuSans-67" transform="translate(799.658203 0)"/>
      <use xlink:href="#DejaVuSans-61" transform="translate(863.134766 0)"/>
      <use xlink:href="#DejaVuSans-69" transform="translate(924.414062 0)"/>
      <use xlink:href="#DejaVuSans-6e" transform="translate(952.197266 0)"/>
      <use xlink:href="#DejaVuSans-20" transform="translate(1015.576172 0)"/>
      <use xlink:href="#DejaVuSans-76" transform="translate(1047.363281 0)"/>
      <use xlink:href="#DejaVuSans-73" transform="translate(1106.542969 0)"/>
      <use xlink:href="#DejaVuSans-20" transform="translate(1158.642578 0)"/>
      <use xlink:href="#DejaVuSans-5a" transform="translate(1190.429688 0)"/>
      <use xlink:href="#DejaVuSans-77" transform="translate(1258.935547 0)"/>
      <use xlink:href="#DejaVuSans-69" transform="translate(1340.722656 0)"/>
      <use xlink:href="#DejaVuSans-63" transform="translate(1368.505859 0)"/>
      <use xlink:href="#DejaVuSans-6b" transform="translate(1423.486328 0)"/>
      <use xlink:href="#DejaVuSans-20" transform="translate(1481.396484 0)"/>
      <use xlink:href="#DejaVuSans-50" transform="translate(1513.183594 0)"/>
      <use xlink:href="#DejaVuSans-32" transform="translate(1573.486328 0)"/>
     </g>
    </g>
    <g id="line2d_41">
     <path d="M 518.386875 69.544062 
L 526.386875 69.544062 
L 534.386875 69.544062 
" style="fill: none; stroke-dasharray: 5.55,2.4; stroke-dashoffset: 0; stroke: #31668e; stroke-opacity: 0.7; stroke-width: 1.5"/>
     <g>
      <use xlink:href="#m494ae43432" x="526.386875" y="69.544062" style="fill: #31668e; fill-opacity: 0.7; stroke: #31668e; stroke-opacity: 0.7; stroke-linejoin: miter"/>
     </g>
    </g>
    <g id="text_20">
     <!-- n=12: Miller P2 gain vs Zwick P1 -->
     <g transform="translate(540.786875 72.344062) scale(0.08 -0.08)">
      <use xlink:href="#DejaVuSans-6e"/>
      <use xlink:href="#DejaVuSans-3d" transform="translate(63.378906 0)"/>
      <use xlink:href="#DejaVuSans-31" transform="translate(147.167969 0)"/>
      <use xlink:href="#DejaVuSans-32" transform="translate(210.791016 0)"/>
      <use xlink:href="#DejaVuSans-3a" transform="translate(274.414062 0)"/>
      <use xlink:href="#DejaVuSans-20" transform="translate(308.105469 0)"/>
      <use xlink:href="#DejaVuSans-4d" transform="translate(339.892578 0)"/>
      <use xlink:href="#DejaVuSans-69" transform="translate(426.171875 0)"/>
      <use xlink:href="#DejaVuSans-6c" transform="translate(453.955078 0)"/>
      <use xlink:href="#DejaVuSans-6c" transform="translate(481.738281 0)"/>
      <use xlink:href="#DejaVuSans-65" transform="translate(509.521484 0)"/>
      <use xlink:href="#DejaVuSans-72" transform="translate(571.044922 0)"/>
      <use xlink:href="#DejaVuSans-20" transform="translate(612.158203 0)"/>
      <use xlink:href="#DejaVuSans-50" transform="translate(643.945312 0)"/>
      <use xlink:href="#DejaVuSans-32" transform="translate(704.248047 0)"/>
      <use xlink:href="#DejaVuSans-20" transform="translate(767.871094 0)"/>
      <use xlink:href="#DejaVuSans-67" transform="translate(799.658203 0)"/>
      <use xlink:href="#DejaVuSans-61" transform="translate(863.134766 0)"/>
      <use xlink:href="#DejaVuSans-69" transform="translate(924.414062 0)"/>
      <use xlink:href="#DejaVuSans-6e" transform="translate(952.197266 0)"/>
      <use xlink:href="#DejaVuSans-20" transform="translate(1015.576172 0)"/>
      <use xlink:href="#DejaVuSans-76" transform="translate(1047.363281 0)"/>
      <use xlink:href="#DejaVuSans-73" transform="translate(1106.542969 0)"/>
      <use xlink:href="#DejaVuSans-20" transform="translate(1158.642578 0)"/>
      <use xlink:href="#DejaVuSans-5a" transform="translate(1190.429688 0)"/>
      <use xlink:href="#DejaVuSans-77" transform="translate(1258.935547 0)"/>
      <use xlink:href="#DejaVuSans-69" transform="translate(1340.722656 0)"/>
      <use xlink:href="#DejaVuSans-63" transform="translate(1368.505859 0)"/>
      <use xlink:href="#DejaVuSans-6b" transform="translate(1423.486328 0)"/>
      <use xlink:href="#DejaVuSans-20" transform="translate(1481.396484 0)"/>
      <use xlink:href="#DejaVuSans-50" transform="translate(1513.183594 0)"/>
      <use xlink:href="#DejaVuSans-31" transform="translate(1573.486328 0)"/>
     </g>
    </g>
    <g id="line2d_42">
     <path d="M 518.386875 81.286562 
L 526.386875 81.286562 
L 534.386875 81.286562 
" style="fill: none; stroke: #21918c; stroke-width: 2; stroke-linecap: square"/>
     <g>
      <use xlink:href="#m48d5777cca" x="526.386875" y="81.286562" style="fill: #21918c; stroke: #21918c"/>
     </g>
    </g>
    <g id="text_21">
     <!-- n=16: Miller P1 gain vs Zwick P2 -->
     <g transform="translate(540.786875 84.086562) scale(0.08 -0.08)">
      <defs>
       <path id="DejaVuSans-36" d="M 2113 2584 
Q 1688 2584 1439 2293 
Q 1191 2003 1191 1497 
Q 1191 994 1439 701 
Q 1688 409 2113 409 
Q 2538 409 2786 701 
Q 3034 994 3034 1497 
Q 3034 2003 2786 2293 
Q 2538 2584 2113 2584 
z
M 3366 4563 
L 3366 3988 
Q 3128 4100 2886 4159 
Q 2644 4219 2406 4219 
Q 1781 4219 1451 3797 
Q 1122 3375 1075 2522 
Q 1259 2794 1537 2939 
Q 1816 3084 2150 3084 
Q 2853 3084 3261 2657 
Q 3669 2231 3669 1497 
Q 3669 778 3244 343 
Q 2819 -91 2113 -91 
Q 1303 -91 875 529 
Q 447 1150 447 2328 
Q 447 3434 972 4092 
Q 1497 4750 2381 4750 
Q 2619 4750 2861 4703 
Q 3103 4656 3366 4563 
z
" transform="scale(0.015625)"/>
      </defs>
      <use xlink:href="#DejaVuSans-6e"/>
      <use xlink:href="#DejaVuSans-3d" transform="translate(63.378906 0)"/>
      <use xlink:href="#DejaVuSans-31" transform="translate(147.167969 0)"/>
      <use xlink:href="#DejaVuSans-36" transform="translate(210.791016 0)"/>
      <use xlink:href="#DejaVuSans-3a" transform="translate(274.414062 0)"/>
      <use xlink:href="#DejaVuSans-20" transform="translate(308.105469 0)"/>
      <use xlink:href="#DejaVuSans-4d" transform="translate(339.892578 0)"/>
      <use xlink:href="#DejaVuSans-69" transform="translate(426.171875 0)"/>
      <use xlink:href="#DejaVuSans-6c" transform="translate(453.955078 0)"/>
      <use xlink:href="#DejaVuSans-6c" transform="translate(481.738281 0)"/>
      <use xlink:href="#DejaVuSans-65" transform="translate(509.521484 0)"/>
      <use xlink:href="#DejaVuSans-72" transform="translate(571.044922 0)"/>
      <use xlink:href="#DejaVuSans-20" transform="translate(612.158203 0)"/>
      <use xlink:href="#DejaVuSans-50" transform="translate(643.945312 0)"/>
      <use xlink:href="#DejaVuSans-31" transform="translate(704.248047 0)"/>
      <use xlink:href="#DejaVuSans-20" transform="translate(767.871094 0)"/>
      <use xlink:href="#DejaVuSans-67" transform="translate(799.658203 0)"/>
      <use xlink:href="#DejaVuSans-61" transform="translate(863.134766 0)"/>
      <use xlink:href="#DejaVuSans-69" transform="translate(924.414062 0)"/>
      <use xlink:href="#DejaVuSans-6e" transform="translate(952.197266 0)"/>
      <use xlink:href="#DejaVuSans-20" transform="translate(1015.576172 0)"/>
      <use xlink:href="#DejaVuSans-76" transform="translate(1047.363281 0)"/>
      <use xlink:href="#DejaVuSans-73" transform="translate(1106.542969 0)"/>
      <use xlink:href="#DejaVuSans-20" transform="translate(1158.642578 0)"/>
      <use xlink:href="#DejaVuSans-5a" transform="translate(1190.429688 0)"/>
      <use xlink:href="#DejaVuSans-77" transform="translate(1258.935547 0)"/>
      <use xlink:href="#DejaVuSans-69" transform="translate(1340.722656 0)"/>
      <use xlink:href="#DejaVuSans-63" transform="translate(1368.505859 0)"/>
      <use xlink:href="#DejaVuSans-6b" transform="translate(1423.486328 0)"/>
      <use xlink:href="#DejaVuSans-20" transform="translate(1481.396484 0)"/>
      <use xlink:href="#DejaVuSans-50" transform="translate(1513.183594 0)"/>
      <use xlink:href="#DejaVuSans-32" transform="translate(1573.486328 0)"/>
     </g>
    </g>
    <g id="line2d_43">
     <path d="M 687.751875 34.316562 
L 695.751875 34.316562 
L 703.751875 34.316562 
" style="fill: none; stroke-dasharray: 5.55,2.4; stroke-dashoffset: 0; stroke: #21918c; stroke-opacity: 0.7; stroke-width: 1.5"/>
     <g>
      <use xlink:href="#m3137948d8e" x="695.751875" y="34.316562" style="fill: #21918c; fill-opacity: 0.7; stroke: #21918c; stroke-opacity: 0.7; stroke-linejoin: miter"/>
     </g>
    </g>
    <g id="text_22">
     <!-- n=16: Miller P2 gain vs Zwick P1 -->
     <g transform="translate(710.151875 37.116562) scale(0.08 -0.08)">
      <use xlink:href="#DejaVuSans-6e"/>
      <use xlink:href="#DejaVuSans-3d" transform="translate(63.378906 0)"/>
      <use xlink:href="#DejaVuSans-31" transform="translate(147.167969 0)"/>
      <use xlink:href="#DejaVuSans-36" transform="translate(210.791016 0)"/>
      <use xlink:href="#DejaVuSans-3a" transform="translate(274.414062 0)"/>
      <use xlink:href="#DejaVuSans-20" transform="translate(308.105469 0)"/>
      <use xlink:href="#DejaVuSans-4d" transform="translate(339.892578 0)"/>
      <use xlink:href="#DejaVuSans-69" transform="translate(426.171875 0)"/>
      <use xlink:href="#DejaVuSans-6c" transform="translate(453.955078 0)"/>
      <use xlink:href="#DejaVuSans-6c" transform="translate(481.738281 0)"/>
      <use xlink:href="#DejaVuSans-65" transform="translate(509.521484 0)"/>
      <use xlink:href="#DejaVuSans-72" transform="translate(571.044922 0)"/>
      <use xlink:href="#DejaVuSans-20" transform="translate(612.158203 0)"/>
      <use xlink:href="#DejaVuSans-50" transform="translate(643.945312 0)"/>
      <use xlink:href="#DejaVuSans-32" transform="translate(704.248047 0)"/>
      <use xlink:href="#DejaVuSans-20" transform="translate(767.871094 0)"/>
      <use xlink:href="#DejaVuSans-67" transform="translate(799.658203 0)"/>
      <use xlink:href="#DejaVuSans-61" transform="translate(863.134766 0)"/>
      <use xlink:href="#DejaVuSans-69" transform="translate(924.414062 0)"/>
      <use xlink:href="#DejaVuSans-6e" transform="translate(952.197266 0)"/>
      <use xlink:href="#DejaVuSans-20" transform="translate(1015.576172 0)"/>
      <use xlink:href="#DejaVuSans-76" transform="translate(1047.363281 0)"/>
      <use xlink:href="#DejaVuSans-73" transform="translate(1106.542969 0)"/>
      <use xlink:href="#DejaVuSans-20" transform="translate(1158.642578 0)"/>
      <use xlink:href="#DejaVuSans-5a" transform="translate(1190.429688 0)"/>
      <use xlink:href="#DejaVuSans-77" transform="translate(1258.935547 0)"/>
      <use xlink:href="#DejaVuSans-69" transform="translate(1340.722656 0)"/>
      <use xlink:href="#DejaVuSans-63" transform="translate(1368.505859 0)"/>
      <use xlink:href="#DejaVuSans-6b" transform="translate(1423.486328 0)"/>
      <use xlink:href="#DejaVuSans-20" transform="translate(1481.396484 0)"/>
      <use xlink:href="#DejaVuSans-50" transform="translate(1513.183594 0)"/>
      <use xlink:href="#DejaVuSans-31" transform="translate(1573.486328 0)"/>
     </g>
    </g>
    <g id="line2d_44">
     <path d="M 687.751875 46.059062 
L 695.751875 46.059062 
L 703.751875 46.059062 
" style="fill: none; stroke: #38b977; stroke-width: 2; stroke-linecap: square"/>
     <g>
      <use xlink:href="#m04b7b47326" x="695.751875" y="46.059062" style="fill: #38b977; stroke: #38b977"/>
     </g>
    </g>
    <g id="text_23">
     <!-- n=24: Miller P1 gain vs Zwick P2 -->
     <g transform="translate(710.151875 48.859062) scale(0.08 -0.08)">
      <use xlink:href="#DejaVuSans-6e"/>
      <use xlink:href="#DejaVuSans-3d" transform="translate(63.378906 0)"/>
      <use xlink:href="#DejaVuSans-32" transform="translate(147.167969 0)"/>
      <use xlink:href="#DejaVuSans-34" transform="translate(210.791016 0)"/>
      <use xlink:href="#DejaVuSans-3a" transform="translate(274.414062 0)"/>
      <use xlink:href="#DejaVuSans-20" transform="translate(308.105469 0)"/>
      <use xlink:href="#DejaVuSans-4d" transform="translate(339.892578 0)"/>
      <use xlink:href="#DejaVuSans-69" transform="translate(426.171875 0)"/>
      <use xlink:href="#DejaVuSans-6c" transform="translate(453.955078 0)"/>
      <use xlink:href="#DejaVuSans-6c" transform="translate(481.738281 0)"/>
      <use xlink:href="#DejaVuSans-65" transform="translate(509.521484 0)"/>
      <use xlink:href="#DejaVuSans-72" transform="translate(571.044922 0)"/>
      <use xlink:href="#DejaVuSans-20" transform="translate(612.158203 0)"/>
      <use xlink:href="#DejaVuSans-50" transform="translate(643.945312 0)"/>
      <use xlink:href="#DejaVuSans-31" transform="translate(704.248047 0)"/>
      <use xlink:href="#DejaVuSans-20" transform="translate(767.871094 0)"/>
      <use xlink:href="#DejaVuSans-67" transform="translate(799.658203 0)"/>
      <use xlink:href="#DejaVuSans-61" transform="translate(863.134766 0)"/>
      <use xlink:href="#DejaVuSans-69" transform="translate(924.414062 0)"/>
      <use xlink:href="#DejaVuSans-6e" transform="translate(952.197266 0)"/>
      <use xlink:href="#DejaVuSans-20" transform="translate(1015.576172 0)"/>
      <use xlink:href="#DejaVuSans-76" transform="translate(1047.363281 0)"/>
      <use xlink:href="#DejaVuSans-73" transform="translate(1106.542969 0)"/>
      <use xlink:href="#DejaVuSans-20" transform="translate(1158.642578 0)"/>
      <use xlink:href="#DejaVuSans-5a" transform="translate(1190.429688 0)"/>
      <use xlink:href="#DejaVuSans-77" transform="translate(1258.935547 0)"/>
      <use xlink:href="#DejaVuSans-69" transform="translate(1340.722656 0)"/>
      <use xlink:href="#DejaVuSans-63" transform="translate(1368.505859 0)"/>
      <use xlink:href="#DejaVuSans-6b" transform="translate(1423.486328 0)"/>
      <use xlink:href="#DejaVuSans-20" transform="translate(1481.396484 0)"/>
      <use xlink:href="#DejaVuSans-50" transform="translate(1513.183594 0)"/>
      <use xlink:href="#DejaVuSans-32" transform="translate(1573.486328 0)"/>
     </g>
    </g>
    <g id="line2d_45">
     <path d="M 687.751875 57.801562 
L 695.751875 57.801562 
L 703.751875 57.801562 
" style="fill: none; stroke-dasharray: 5.55,2.4; stroke-dashoffset: 0; stroke: #38b977; stroke-opacity: 0.7; stroke-width: 1.5"/>
     <g>
      <use xlink:href="#m6a95a1f888" x="695.751875" y="57.801562" style="fill: #38b977; fill-opacity: 0.7; stroke: #38b977; stroke-opacity: 0.7; stroke-linejoin: miter"/>
     </g>
    </g>
    <g id="text_24">
     <!-- n=24: Miller P2 gain vs Zwick P1 -->
     <g transform="translate(710.151875 60.601562) scale(0.08 -0.08)">
      <use xlink:href="#DejaVuSans-6e"/>
      <use xlink:href="#DejaVuSans-3d" transform="translate(63.378906 0)"/>
      <use xlink:href="#DejaVuSans-32" transform="translate(147.167969 0)"/>
      <use xlink:href="#DejaVuSans-34" transform="translate(210.791016 0)"/>
      <use xlink:href="#DejaVuSans-3a" transform="translate(274.414062 0)"/>
      <use xlink:href="#DejaVuSans-20" transform="translate(308.105469 0)"/>
      <use xlink:href="#DejaVuSans-4d" transform="translate(339.892578 0)"/>
      <use xlink:href="#DejaVuSans-69" transform="translate(426.171875 0)"/>
      <use xlink:href="#DejaVuSans-6c" transform="translate(453.955078 0)"/>
      <use xlink:href="#DejaVuSans-6c" transform="translate(481.738281 0)"/>
      <use xlink:href="#DejaVuSans-65" transform="translate(509.521484 0)"/>
      <use xlink:href="#DejaVuSans-72" transform="translate(571.044922 0)"/>
      <use xlink:href="#DejaVuSans-20" transform="translate(612.158203 0)"/>
      <use xlink:href="#DejaVuSans-50" transform="translate(643.945312 0)"/>
      <use xlink:href="#DejaVuSans-32" transform="translate(704.248047 0)"/>
      <use xlink:href="#DejaVuSans-20" transform="translate(767.871094 0)"/>
      <use xlink:href="#DejaVuSans-67" transform="translate(799.658203 0)"/>
      <use xlink:href="#DejaVuSans-61" transform="translate(863.134766 0)"/>
      <use xlink:href="#DejaVuSans-69" transform="translate(924.414062 0)"/>
      <use xlink:href="#DejaVuSans-6e" transform="translate(952.197266 0)"/>
      <use xlink:href="#DejaVuSans-20" transform="translate(1015.576172 0)"/>
      <use xlink:href="#DejaVuSans-76" transform="translate(1047.363281 0)"/>
      <use xlink:href="#DejaVuSans-73" transform="translate(1106.542969 0)"/>
      <use xlink:href="#DejaVuSans-20" transform="translate(1158.642578 0)"/>
      <use xlink:href="#DejaVuSans-5a" transform="translate(1190.429688 0)"/>
      <use xlink:href="#DejaVuSans-77" transform="translate(1258.935547 0)"/>
      <use xlink:href="#DejaVuSans-69" transform="translate(1340.722656 0)"/>
      <use xlink:href="#DejaVuSans-63" transform="translate(1368.505859 0)"/>
      <use xlink:href="#DejaVuSans-6b" transform="translate(1423.486328 0)"/>
      <use xlink:href="#DejaVuSans-20" transform="translate(1481.396484 0)"/>
      <use xlink:href="#DejaVuSans-50" transform="translate(1513.183594 0)"/>
      <use xlink:href="#DejaVuSans-31" transform="translate(1573.486328 0)"/>
     </g>
    </g>
    <g id="line2d_46">
     <path d="M 687.751875 69.544062 
L 695.751875 69.544062 
L 703.751875 69.544062 
" style="fill: none; stroke: #9bd93c; stroke-width: 2; stroke-linecap: square"/>
     <g>
      <use xlink:href="#m942716d6ea" x="695.751875" y="69.544062" style="fill: #9bd93c; stroke: #9bd93c"/>
     </g>
    </g>
    <g id="text_25">
     <!-- n=36: Miller P1 gain vs Zwick P2 -->
     <g transform="translate(710.151875 72.344062) scale(0.08 -0.08)">
      <use xlink:href="#DejaVuSans-6e"/>
      <use xlink:href="#DejaVuSans-3d" transform="translate(63.378906 0)"/>
      <use xlink:href="#DejaVuSans-33" transform="translate(147.167969 0)"/>
      <use xlink:href="#DejaVuSans-36" transform="translate(210.791016 0)"/>
      <use xlink:href="#DejaVuSans-3a" transform="translate(274.414062 0)"/>
      <use xlink:href="#DejaVuSans-20" transform="translate(308.105469 0)"/>
      <use xlink:href="#DejaVuSans-4d" transform="translate(339.892578 0)"/>
      <use xlink:href="#DejaVuSans-69" transform="translate(426.171875 0)"/>
      <use xlink:href="#DejaVuSans-6c" transform="translate(453.955078 0)"/>
      <use xlink:href="#DejaVuSans-6c" transform="translate(481.738281 0)"/>
      <use xlink:href="#DejaVuSans-65" transform="translate(509.521484 0)"/>
      <use xlink:href="#DejaVuSans-72" transform="translate(571.044922 0)"/>
      <use xlink:href="#DejaVuSans-20" transform="translate(612.158203 0)"/>
      <use xlink:href="#DejaVuSans-50" transform="translate(643.945312 0)"/>
      <use xlink:href="#DejaVuSans-31" transform="translate(704.248047 0)"/>
      <use xlink:href="#DejaVuSans-20" transform="translate(767.871094 0)"/>
      <use xlink:href="#DejaVuSans-67" transform="translate(799.658203 0)"/>
      <use xlink:href="#DejaVuSans-61" transform="translate(863.134766 0)"/>
      <use xlink:href="#DejaVuSans-69" transform="translate(924.414062 0)"/>
      <use xlink:href="#DejaVuSans-6e" transform="translate(952.197266 0)"/>
      <use xlink:href="#DejaVuSans-20" transform="translate(1015.576172 0)"/>
      <use xlink:href="#DejaVuSans-76" transform="translate(1047.363281 0)"/>
      <use xlink:href="#DejaVuSans-73" transform="translate(1106.542969 0)"/>
      <use xlink:href="#DejaVuSans-20" transform="translate(1158.642578 0)"/>
      <use xlink:href="#DejaVuSans-5a" transform="translate(1190.429688 0)"/>
      <use xlink:href="#DejaVuSans-77" transform="translate(1258.935547 0)"/>
      <use xlink:href="#DejaVuSans-69" transform="translate(1340.722656 0)"/>
      <use xlink:href="#DejaVuSans-63" transform="translate(1368.505859 0)"/>
      <use xlink:href="#DejaVuSans-6b" transform="translate(1423.486328 0)"/>
      <use xlink:href="#DejaVuSans-20" transform="translate(1481.396484 0)"/>
      <use xlink:href="#DejaVuSans-50" transform="translate(1513.183594 0)"/>
      <use xlink:href="#DejaVuSans-32" transform="translate(1573.486328 0)"/>
     </g>
    </g>
    <g id="line2d_47">
     <path d="M 687.751875 81.286562 
L 695.751875 81.286562 
L 703.751875 81.286562 
" style="fill: none; stroke-dasharray: 5.55,2.4; stroke-dashoffset: 0; stroke: #9bd93c; stroke-opacity: 0.7; stroke-width: 1.5"/>
     <g>
      <use xlink:href="#md1a8b0f129" x="695.751875" y="81.286562" style="fill: #9bd93c; fill-opacity: 0.7; stroke: #9bd93c; stroke-opacity: 0.7; stroke-linejoin: miter"/>
     </g>
    </g>
    <g id="text_26">
     <!-- n=36: Miller P2 gain vs Zwick P1 -->
     <g transform="translate(710.151875 84.086562) scale(0.08 -0.08)">
      <use xlink:href="#DejaVuSans-6e"/>
      <use xlink:href="#DejaVuSans-3d" transform="translate(63.378906 0)"/>
      <use xlink:href="#DejaVuSans-33" transform="translate(147.167969 0)"/>
      <use xlink:href="#DejaVuSans-36" transform="translate(210.791016 0)"/>
      <use xlink:href="#DejaVuSans-3a" transform="translate(274.414062 0)"/>
      <use xlink:href="#DejaVuSans-20" transform="translate(308.105469 0)"/>
      <use xlink:href="#DejaVuSans-4d" transform="translate(339.892578 0)"/>
      <use xlink:href="#DejaVuSans-69" transform="translate(426.171875 0)"/>
      <use xlink:href="#DejaVuSans-6c" transform="translate(453.955078 0)"/>
      <use xlink:href="#DejaVuSans-6c" transform="translate(481.738281 0)"/>
      <use xlink:href="#DejaVuSans-65" transform="translate(509.521484 0)"/>
      <use xlink:href="#DejaVuSans-72" transform="translate(571.044922 0)"/>
      <use xlink:href="#DejaVuSans-20" transform="translate(612.158203 0)"/>
      <use xlink:href="#DejaVuSans-50" transform="translate(643.945312 0)"/>
      <use xlink:href="#DejaVuSans-32" transform="translate(704.248047 0)"/>
      <use xlink:href="#DejaVuSans-20" transform="translate(767.871094 0)"/>
      <use xlink:href="#DejaVuSans-67" transform="translate(799.658203 0)"/>
      <use xlink:href="#DejaVuSans-61" transform="translate(863.134766 0)"/>
      <use xlink:href="#DejaVuSans-69" transform="translate(924.414062 0)"/>
      <use xlink:href="#DejaVuSans-6e" transform="translate(952.197266 0)"/>
      <use xlink:href="#DejaVuSans-20" transform="translate(1015.576172 0)"/>
      <use xlink:href="#DejaVuSans-76" transform="translate(1047.363281 0)"/>
      <use xlink:href="#DejaVuSans-73" transform="translate(1106.542969 0)"/>
      <use xlink:href="#DejaVuSans-20" transform="translate(1158.642578 0)"/>
      <use xlink:href="#DejaVuSans-5a" transform="translate(1190.429688 0)"/>
      <use xlink:href="#DejaVuSans-77" transform="translate(1258.935547 0)"/>
      <use xlink:href="#DejaVuSans-69" transform="translate(1340.722656 0)"/>
      <use xlink:href="#DejaVuSans-63" transform="translate(1368.505859 0)"/>
      <use xlink:href="#DejaVuSans-6b" transform="translate(1423.486328 0)"/>
      <use xlink:href="#DejaVuSans-20" transform="translate(1481.396484 0)"/>
      <use xlink:href="#DejaVuSans-50" transform="translate(1513.183594 0)"/>
      <use xlink:href="#DejaVuSans-31" transform="translate(1573.486328 0)"/>
     </g>
    </g>
   </g>
  </g>
 </g>
 <defs>
  <clipPath id="p990942a8f4">
   <rect x="45.716875" y="23.837812" width="802.6" height="431.56"/>
  </clipPath>
 </defs>
</svg>
