<?xml version="1.0" encoding="utf-8" standalone="no"?>
<!DOCTYPE svg PUBLIC "-//W3C//DTD SVG 1.1//EN"
  "http://www.w3.org/Graphics/SVG/1.1/DTD/svg11.dtd">
<svg xmlns:xlink="http://www.w3.org/1999/xlink" width="855.435937pt" height="494.889687pt" viewBox="0 0 855.435937 494.889687" xmlns="http://www.w3.org/2000/svg" version="1.1">
 <metadata>
  <rdf:RDF xmlns:dc="http://purl.org/dc/elements/1.1/" xmlns:cc="http://creativecommons.org/ns#" xmlns:rdf="http://www.w3.org/1999/02/22-rdf-syntax-ns#">
   <cc:Work>
    <dc:type rdf:resource="http://purl.org/dc/dcmitype/StillImage"/>
    <dc:date>2026-04-01T03:20:37.959548</dc:date>
    <dc:format>image/svg+xml</dc:format>
    <dc:creator>
     <cc:Agent>
      <dc:title>Matplotlib v3.10.8, https://matplotlib.org/</dc:title>
     </cc:Agent>
    </dc:creator>
   </cc:Work>
  </rdf:RDF>
 </metadata>
 <defs>
  <style type="text/css">*{stroke-linejoin: round; stroke-linecap: butt}</style>
 </defs>
 <g id="figure_1">
  <g id="patch_1">
   <path d="M 0 494.889687 
L 855.435937 494.889687 
L 855.435937 0 
L 0 0 
z
" style="fill: #ffffff"/>
  </g>
  <g id="axes_1">
   <g id="patch_2">
    <path d="M 44.555938 455.397812 
L 848.235937 455.397812 
L 848.235937 23.837812 
L 44.555938 23.837812 
z
" style="fill: #ffffff"/>
   </g>
   <g id="matplotlib.axis_1">
    <g id="xtick_1">
     <g id="line2d_1">
      <path d="M 133.27386 455.397812 
L 133.27386 23.837812 
" clip-path="url(#pe432f463c0)" style="fill: none; stroke: #b0b0b0; stroke-opacity: 0.2; stroke-width: 0.8; stroke-linecap: square"/>
     </g>
     <g id="line2d_2">
      <defs>
       <path id="m2ca3371e21" d="M 0 0 
L 0 3.5 
" style="stroke: #000000; stroke-width: 0.8"/>
      </defs>
      <g>
       <use xlink:href="#m2ca3371e21" x="133.27386" y="455.397812" style="stroke: #000000; stroke-width: 0.8"/>
      </g>
     </g>
     <g id="text_1">
      <!-- 10 -->
      <g transform="translate(126.91136 469.99625) scale(0.1 -0.1)">
       <defs>
        <path id="DejaVuSans-31" d="M 794 531 
L 1825 531 
L 1825 4091 
L 703 3866 
L 703 4441 
L 1819 4666 
L 2450 4666 
L 2450 531 
L 3481 531 
L 3481 0 
L 794 0 
L 794 531 
z
" transform="scale(0.015625)"/>
        <path id="DejaVuSans-30" d="M 2034 4250 
Q 1547 4250 1301 3770 
Q 1056 3291 1056 2328 
Q 1056 1369 1301 889 
Q 1547 409 2034 409 
Q 2525 409 2770 889 
Q 3016 1369 3016 2328 
Q 3016 3291 2770 3770 
Q 2525 4250 2034 4250 
z
M 2034 4750 
Q 2819 4750 3233 4129 
Q 3647 3509 3647 2328 
Q 3647 1150 3233 529 
Q 2819 -91 2034 -91 
Q 1250 -91 836 529 
Q 422 1150 422 2328 
Q 422 3509 836 4129 
Q 1250 4750 2034 4750 
z
" transform="scale(0.015625)"/>
       </defs>
       <use xlink:href="#DejaVuSans-31"/>
       <use xlink:href="#DejaVuSans-30" transform="translate(63.623047 0)"/>
      </g>
     </g>
    </g>
    <g id="xtick_2">
     <g id="line2d_3">
      <path d="M 263.741392 455.397812 
L 263.741392 23.837812 
" clip-path="url(#pe432f463c0)" style="fill: none; stroke: #b0b0b0; stroke-opacity: 0.2; stroke-width: 0.8; stroke-linecap: square"/>
     </g>
     <g id="line2d_4">
      <g>
       <use xlink:href="#m2ca3371e21" x="263.741392" y="455.397812" style="stroke: #000000; stroke-width: 0.8"/>
      </g>
     </g>
     <g id="text_2">
      <!-- 15 -->
      <g transform="translate(257.378892 469.99625) scale(0.1 -0.1)">
       <defs>
        <path id="DejaVuSans-35" d="M 691 4666 
L 3169 4666 
L 3169 4134 
L 1269 4134 
L 1269 2991 
Q 1406 3038 1543 3061 
Q 1681 3084 1819 3084 
Q 2600 3084 3056 2656 
Q 3513 2228 3513 1497 
Q 3513 744 3044 326 
Q 2575 -91 1722 -91 
Q 1428 -91 1123 -41 
Q 819 9 494 109 
L 494 744 
Q 775 591 1075 516 
Q 1375 441 1709 441 
Q 2250 441 2565 725 
Q 2881 1009 2881 1497 
Q 2881 1984 2565 2268 
Q 2250 2553 1709 2553 
Q 1456 2553 1204 2497 
Q 953 2441 691 2322 
L 691 4666 
z
" transform="scale(0.015625)"/>
       </defs>
       <use xlink:href="#DejaVuSans-31"/>
       <use xlink:href="#DejaVuSans-35" transform="translate(63.623047 0)"/>
      </g>
     </g>
    </g>
    <g id="xtick_3">
     <g id="line2d_5">
      <path d="M 394.208925 455.397812 
L 394.208925 23.837812 
" clip-path="url(#pe432f463c0)" style="fill: none; stroke: #b0b0b0; stroke-opacity: 0.2; stroke-width: 0.8; stroke-linecap: square"/>
     </g>
     <g id="line2d_6">
      <g>
       <use xlink:href="#m2ca3371e21" x="394.208925" y="455.397812" style="stroke: #000000; stroke-width: 0.8"/>
      </g>
     </g>
     <g id="text_3">
      <!-- 20 -->
      <g transform="translate(387.846425 469.99625) scale(0.1 -0.1)">
       <defs>
        <path id="DejaVuSans-32" d="M 1228 531 
L 3431 531 
L 3431 0 
L 469 0 
L 469 531 
Q 828 903 1448 1529 
Q 2069 2156 2228 2338 
Q 2531 2678 2651 2914 
Q 2772 3150 2772 3378 
Q 2772 3750 2511 3984 
Q 2250 4219 1831 4219 
Q 1534 4219 1204 4116 
Q 875 4013 500 3803 
L 500 4441 
Q 881 4594 1212 4672 
Q 1544 4750 1819 4750 
Q 2544 4750 2975 4387 
Q 3406 4025 3406 3419 
Q 3406 3131 3298 2873 
Q 3191 2616 2906 2266 
Q 2828 2175 2409 1742 
Q 1991 1309 1228 531 
z
" transform="scale(0.015625)"/>
       </defs>
       <use xlink:href="#DejaVuSans-32"/>
       <use xlink:href="#DejaVuSans-30" transform="translate(63.623047 0)"/>
      </g>
     </g>
    </g>
    <g id="xtick_4">
     <g id="line2d_7">
      <path d="M 524.676457 455.397812 
L 524.676457 23.837812 
" clip-path="url(#pe432f463c0)" style="fill: none; stroke: #b0b0b0; stroke-opacity: 0.2; stroke-width: 0.8; stroke-linecap: square"/>
     </g>
     <g id="line2d_8">
      <g>
       <use xlink:href="#m2ca3371e21" x="524.676457" y="455.397812" style="stroke: #000000; stroke-width: 0.8"/>
      </g>
     </g>
     <g id="text_4">
      <!-- 25 -->
      <g transform="translate(518.313957 469.99625) scale(0.1 -0.1)">
       <use xlink:href="#DejaVuSans-32"/>
       <use xlink:href="#DejaVuSans-35" transform="translate(63.623047 0)"/>
      </g>
     </g>
    </g>
    <g id="xtick_5">
     <g id="line2d_9">
      <path d="M 655.143989 455.397812 
L 655.143989 23.837812 
" clip-path="url(#pe432f463c0)" style="fill: none; stroke: #b0b0b0; stroke-opacity: 0.2; stroke-width: 0.8; stroke-linecap: square"/>
     </g>
     <g id="line2d_10">
      <g>
       <use xlink:href="#m2ca3371e21" x="655.143989" y="455.397812" style="stroke: #000000; stroke-width: 0.8"/>
      </g>
     </g>
     <g id="text_5">
      <!-- 30 -->
      <g transform="translate(648.781489 469.99625) scale(0.1 -0.1)">
       <defs>
        <path id="DejaVuSans-33" d="M 2597 2516 
Q 3050 2419 3304 2112 
Q 3559 1806 3559 1356 
Q 3559 666 3084 287 
Q 2609 -91 1734 -91 
Q 1441 -91 1130 -33 
Q 819 25 488 141 
L 488 750 
Q 750 597 1062 519 
Q 1375 441 1716 441 
Q 2309 441 2620 675 
Q 2931 909 2931 1356 
Q 2931 1769 2642 2001 
Q 2353 2234 1838 2234 
L 1294 2234 
L 1294 2753 
L 1863 2753 
Q 2328 2753 2575 2939 
Q 2822 3125 2822 3475 
Q 2822 3834 2567 4026 
Q 2313 4219 1838 4219 
Q 1578 4219 1281 4162 
Q 984 4106 628 3988 
L 628 4550 
Q 988 4650 1302 4700 
Q 1616 4750 1894 4750 
Q 2613 4750 3031 4423 
Q 3450 4097 3450 3541 
Q 3450 3153 3228 2886 
Q 3006 2619 2597 2516 
z
" transform="scale(0.015625)"/>
       </defs>
       <use xlink:href="#DejaVuSans-33"/>
       <use xlink:href="#DejaVuSans-30" transform="translate(63.623047 0)"/>
      </g>
     </g>
    </g>
    <g id="xtick_6">
     <g id="line2d_11">
      <path d="M 785.611522 455.397812 
L 785.611522 23.837812 
" clip-path="url(#pe432f463c0)" style="fill: none; stroke: #b0b0b0; stroke-opacity: 0.2; stroke-width: 0.8; stroke-linecap: square"/>
     </g>
     <g id="line2d_12">
      <g>
       <use xlink:href="#m2ca3371e21" x="785.611522" y="455.397812" style="stroke: #000000; stroke-width: 0.8"/>
      </g>
     </g>
     <g id="text_6">
      <!-- 35 -->
      <g transform="translate(779.249022 469.99625) scale(0.1 -0.1)">
       <use xlink:href="#DejaVuSans-33"/>
       <use xlink:href="#DejaVuSans-35" transform="translate(63.623047 0)"/>
      </g>
     </g>
    </g>
    <g id="text_7">
     <!-- Board size n (pairs) -->
     <g transform="translate(388.177187 485.194062) scale(0.12 -0.12)">
      <defs>
       <path id="DejaVuSans-42" d="M 1259 2228 
L 1259 519 
L 2272 519 
Q 2781 519 3026 730 
Q 3272 941 3272 1375 
Q 3272 1813 3026 2020 
Q 2781 2228 2272 2228 
L 1259 2228 
z
M 1259 4147 
L 1259 2741 
L 2194 2741 
Q 2656 2741 2882 2914 
Q 3109 3088 3109 3444 
Q 3109 3797 2882 3972 
Q 2656 4147 2194 4147 
L 1259 4147 
z
M 628 4666 
L 2241 4666 
Q 2963 4666 3353 4366 
Q 3744 4066 3744 3513 
Q 3744 3084 3544 2831 
Q 3344 2578 2956 2516 
Q 3422 2416 3680 2098 
Q 3938 1781 3938 1306 
Q 3938 681 3513 340 
Q 3088 0 2303 0 
L 628 0 
L 628 4666 
z
" transform="scale(0.015625)"/>
       <path id="DejaVuSans-6f" d="M 1959 3097 
Q 1497 3097 1228 2736 
Q 959 2375 959 1747 
Q 959 1119 1226 758 
Q 1494 397 1959 397 
Q 2419 397 2687 759 
Q 2956 1122 2956 1747 
Q 2956 2369 2687 2733 
Q 2419 3097 1959 3097 
z
M 1959 3584 
Q 2709 3584 3137 3096 
Q 3566 2609 3566 1747 
Q 3566 888 3137 398 
Q 2709 -91 1959 -91 
Q 1206 -91 779 398 
Q 353 888 353 1747 
Q 353 2609 779 3096 
Q 1206 3584 1959 3584 
z
" transform="scale(0.015625)"/>
       <path id="DejaVuSans-61" d="M 2194 1759 
Q 1497 1759 1228 1600 
Q 959 1441 959 1056 
Q 959 750 1161 570 
Q 1363 391 1709 391 
Q 2188 391 2477 730 
Q 2766 1069 2766 1631 
L 2766 1759 
L 2194 1759 
z
M 3341 1997 
L 3341 0 
L 2766 0 
L 2766 531 
Q 2569 213 2275 61 
Q 1981 -91 1556 -91 
Q 1019 -91 701 211 
Q 384 513 384 1019 
Q 384 1609 779 1909 
Q 1175 2209 1959 2209 
L 2766 2209 
L 2766 2266 
Q 2766 2663 2505 2880 
Q 2244 3097 1772 3097 
Q 1472 3097 1187 3025 
Q 903 2953 641 2809 
L 641 3341 
Q 956 3463 1253 3523 
Q 1550 3584 1831 3584 
Q 2591 3584 2966 3190 
Q 3341 2797 3341 1997 
z
" transform="scale(0.015625)"/>
       <path id="DejaVuSans-72" d="M 2631 2963 
Q 2534 3019 2420 3045 
Q 2306 3072 2169 3072 
Q 1681 3072 1420 2755 
Q 1159 2438 1159 1844 
L 1159 0 
L 581 0 
L 581 3500 
L 1159 3500 
L 1159 2956 
Q 1341 3275 1631 3429 
Q 1922 3584 2338 3584 
Q 2397 3584 2469 3576 
Q 2541 3569 2628 3553 
L 2631 2963 
z
" transform="scale(0.015625)"/>
       <path id="DejaVuSans-64" d="M 2906 2969 
L 2906 4863 
L 3481 4863 
L 3481 0 
L 2906 0 
L 2906 525 
Q 2725 213 2448 61 
Q 2172 -91 1784 -91 
Q 1150 -91 751 415 
Q 353 922 353 1747 
Q 353 2572 751 3078 
Q 1150 3584 1784 3584 
Q 2172 3584 2448 3432 
Q 2725 3281 2906 2969 
z
M 947 1747 
Q 947 1113 1208 752 
Q 1469 391 1925 391 
Q 2381 391 2643 752 
Q 2906 1113 2906 1747 
Q 2906 2381 2643 2742 
Q 2381 3103 1925 3103 
Q 1469 3103 1208 2742 
Q 947 2381 947 1747 
z
" transform="scale(0.015625)"/>
       <path id="DejaVuSans-20" transform="scale(0.015625)"/>
       <path id="DejaVuSans-73" d="M 2834 3397 
L 2834 2853 
Q 2591 2978 2328 3040 
Q 2066 3103 1784 3103 
Q 1356 3103 1142 2972 
Q 928 2841 928 2578 
Q 928 2378 1081 2264 
Q 1234 2150 1697 2047 
L 1894 2003 
Q 2506 1872 2764 1633 
Q 3022 1394 3022 966 
Q 3022 478 2636 193 
Q 2250 -91 1575 -91 
Q 1294 -91 989 -36 
Q 684 19 347 128 
L 347 722 
Q 666 556 975 473 
Q 1284 391 1588 391 
Q 1994 391 2212 530 
Q 2431 669 2431 922 
Q 2431 1156 2273 1281 
Q 2116 1406 1581 1522 
L 1381 1569 
Q 847 1681 609 1914 
Q 372 2147 372 2553 
Q 372 3047 722 3315 
Q 1072 3584 1716 3584 
Q 2034 3584 2315 3537 
Q 2597 3491 2834 3397 
z
" transform="scale(0.015625)"/>
       <path id="DejaVuSans-69" d="M 603 3500 
L 1178 3500 
L 1178 0 
L 603 0 
L 603 3500 
z
M 603 4863 
L 1178 4863 
L 1178 4134 
L 603 4134 
L 603 4863 
z
" transform="scale(0.015625)"/>
       <path id="DejaVuSans-7a" d="M 353 3500 
L 3084 3500 
L 3084 2975 
L 922 459 
L 3084 459 
L 3084 0 
L 275 0 
L 275 525 
L 2438 3041 
L 353 3041 
L 353 3500 
z
" transform="scale(0.015625)"/>
       <path id="DejaVuSans-65" d="M 3597 1894 
L 3597 1613 
L 953 1613 
Q 991 1019 1311 708 
Q 1631 397 2203 397 
Q 2534 397 2845 478 
Q 3156 559 3463 722 
L 3463 178 
Q 3153 47 2828 -22 
Q 2503 -91 2169 -91 
Q 1331 -91 842 396 
Q 353 884 353 1716 
Q 353 2575 817 3079 
Q 1281 3584 2069 3584 
Q 2775 3584 3186 3129 
Q 3597 2675 3597 1894 
z
M 3022 2063 
Q 3016 2534 2758 2815 
Q 2500 3097 2075 3097 
Q 1594 3097 1305 2825 
Q 1016 2553 972 2059 
L 3022 2063 
z
" transform="scale(0.015625)"/>
       <path id="DejaVuSans-6e" d="M 3513 2113 
L 3513 0 
L 2938 0 
L 2938 2094 
Q 2938 2591 2744 2837 
Q 2550 3084 2163 3084 
Q 1697 3084 1428 2787 
Q 1159 2491 1159 1978 
L 1159 0 
L 581 0 
L 581 3500 
L 1159 3500 
L 1159 2956 
Q 1366 3272 1645 3428 
Q 1925 3584 2291 3584 
Q 2894 3584 3203 3211 
Q 3513 2838 3513 2113 
z
" transform="scale(0.015625)"/>
       <path id="DejaVuSans-28" d="M 1984 4856 
Q 1566 4138 1362 3434 
Q 1159 2731 1159 2009 
Q 1159 1288 1364 580 
Q 1569 -128 1984 -844 
L 1484 -844 
Q 1016 -109 783 600 
Q 550 1309 550 2009 
Q 550 2706 781 3412 
Q 1013 4119 1484 4856 
L 1984 4856 
z
" transform="scale(0.015625)"/>
       <path id="DejaVuSans-70" d="M 1159 525 
L 1159 -1331 
L 581 -1331 
L 581 3500 
L 1159 3500 
L 1159 2969 
Q 1341 3281 1617 3432 
Q 1894 3584 2278 3584 
Q 2916 3584 3314 3078 
Q 3713 2572 3713 1747 
Q 3713 922 3314 415 
Q 2916 -91 2278 -91 
Q 1894 -91 1617 61 
Q 1341 213 1159 525 
z
M 3116 1747 
Q 3116 2381 2855 2742 
Q 2594 3103 2138 3103 
Q 1681 3103 1420 2742 
Q 1159 2381 1159 1747 
Q 1159 1113 1420 752 
Q 1681 391 2138 391 
Q 2594 391 2855 752 
Q 3116 1113 3116 1747 
z
" transform="scale(0.015625)"/>
       <path id="DejaVuSans-29" d="M 513 4856 
L 1013 4856 
Q 1481 4119 1714 3412 
Q 1947 2706 1947 2009 
Q 1947 1309 1714 600 
Q 1481 -109 1013 -844 
L 513 -844 
Q 928 -128 1133 580 
Q 1338 1288 1338 2009 
Q 1338 2731 1133 3434 
Q 928 4138 513 4856 
z
" transform="scale(0.015625)"/>
      </defs>
      <use xlink:href="#DejaVuSans-42"/>
      <use xlink:href="#DejaVuSans-6f" transform="translate(68.603516 0)"/>
      <use xlink:href="#DejaVuSans-61" transform="translate(129.785156 0)"/>
      <use xlink:href="#DejaVuSans-72" transform="translate(191.064453 0)"/>
      <use xlink:href="#DejaVuSans-64" transform="translate(230.427734 0)"/>
      <use xlink:href="#DejaVuSans-20" transform="translate(293.904297 0)"/>
      <use xlink:href="#DejaVuSans-73" transform="translate(325.691406 0)"/>
      <use xlink:href="#DejaVuSans-69" transform="translate(377.791016 0)"/>
      <use xlink:href="#DejaVuSans-7a" transform="translate(405.574219 0)"/>
      <use xlink:href="#DejaVuSans-65" transform="translate(458.064453 0)"/>
      <use xlink:href="#DejaVuSans-20" transform="translate(519.587891 0)"/>
      <use xlink:href="#DejaVuSans-6e" transform="translate(551.375 0)"/>
      <use xlink:href="#DejaVuSans-20" transform="translate(614.753906 0)"/>
      <use xlink:href="#DejaVuSans-28" transform="translate(646.541016 0)"/>
      <use xlink:href="#DejaVuSans-70" transform="translate(685.554688 0)"/>
      <use xlink:href="#DejaVuSans-61" transform="translate(749.03125 0)"/>
      <use xlink:href="#DejaVuSans-69" transform="translate(810.310547 0)"/>
      <use xlink:href="#DejaVuSans-72" transform="translate(838.09375 0)"/>
      <use xlink:href="#DejaVuSans-73" transform="translate(879.207031 0)"/>
      <use xlink:href="#DejaVuSans-29" transform="translate(931.306641 0)"/>
     </g>
    </g>
   </g>
   <g id="matplotlib.axis_2">
    <g id="ytick_1">
     <g id="line2d_13">
      <path d="M 44.555938 436.264041 
L 848.235937 436.264041 
" clip-path="url(#pe432f463c0)" style="fill: none; stroke: #b0b0b0; stroke-opacity: 0.2; stroke-width: 0.8; stroke-linecap: square"/>
     </g>
     <g id="line2d_14">
      <defs>
       <path id="mb6a066da4c" d="M 0 0 
L -3.5 0 
" style="stroke: #000000; stroke-width: 0.8"/>
      </defs>
      <g>
       <use xlink:href="#mb6a066da4c" x="44.555938" y="436.264041" style="stroke: #000000; stroke-width: 0.8"/>
      </g>
     </g>
     <g id="text_8">
      <!-- −3 -->
      <g transform="translate(22.81375 440.06326) scale(0.1 -0.1)">
       <defs>
        <path id="DejaVuSans-2212" d="M 678 2272 
L 4684 2272 
L 4684 1741 
L 678 1741 
L 678 2272 
z
" transform="scale(0.015625)"/>
       </defs>
       <use xlink:href="#DejaVuSans-2212"/>
       <use xlink:href="#DejaVuSans-33" transform="translate(83.789062 0)"/>
      </g>
     </g>
    </g>
    <g id="ytick_2">
     <g id="line2d_15">
      <path d="M 44.555938 369.23736 
L 848.235937 369.23736 
" clip-path="url(#pe432f463c0)" style="fill: none; stroke: #b0b0b0; stroke-opacity: 0.2; stroke-width: 0.8; stroke-linecap: square"/>
     </g>
     <g id="line2d_16">
      <g>
       <use xlink:href="#mb6a066da4c" x="44.555938" y="369.23736" style="stroke: #000000; stroke-width: 0.8"/>
      </g>
     </g>
     <g id="text_9">
      <!-- −2 -->
      <g transform="translate(22.81375 373.036579) scale(0.1 -0.1)">
       <use xlink:href="#DejaVuSans-2212"/>
       <use xlink:href="#DejaVuSans-32" transform="translate(83.789062 0)"/>
      </g>
     </g>
    </g>
    <g id="ytick_3">
     <g id="line2d_17">
      <path d="M 44.555938 302.210679 
L 848.235937 302.210679 
" clip-path="url(#pe432f463c0)" style="fill: none; stroke: #b0b0b0; stroke-opacity: 0.2; stroke-width: 0.8; stroke-linecap: square"/>
     </g>
     <g id="line2d_18">
      <g>
       <use xlink:href="#mb6a066da4c" x="44.555938" y="302.210679" style="stroke: #000000; stroke-width: 0.8"/>
      </g>
     </g>
     <g id="text_10">
      <!-- −1 -->
      <g transform="translate(22.81375 306.009897) scale(0.1 -0.1)">
       <use xlink:href="#DejaVuSans-2212"/>
       <use xlink:href="#DejaVuSans-31" transform="translate(83.789062 0)"/>
      </g>
     </g>
    </g>
    <g id="ytick_4">
     <g id="line2d_19">
      <path d="M 44.555938 235.183998 
L 848.235937 235.183998 
" clip-path="url(#pe432f463c0)" style="fill: none; stroke: #b0b0b0; stroke-opacity: 0.2; stroke-width: 0.8; stroke-linecap: square"/>
     </g>
     <g id="line2d_20">
      <g>
       <use xlink:href="#mb6a066da4c" x="44.555938" y="235.183998" style="stroke: #000000; stroke-width: 0.8"/>
      </g>
     </g>
     <g id="text_11">
      <!-- 0 -->
      <g transform="translate(31.193438 238.983216) scale(0.1 -0.1)">
       <use xlink:href="#DejaVuSans-30"/>
      </g>
     </g>
    </g>
    <g id="ytick_5">
     <g id="line2d_21">
      <path d="M 44.555938 168.157316 
L 848.235937 168.157316 
" clip-path="url(#pe432f463c0)" style="fill: none; stroke: #b0b0b0; stroke-opacity: 0.2; stroke-width: 0.8; stroke-linecap: square"/>
     </g>
     <g id="line2d_22">
      <g>
       <use xlink:href="#mb6a066da4c" x="44.555938" y="168.157316" style="stroke: #000000; stroke-width: 0.8"/>
      </g>
     </g>
     <g id="text_12">
      <!-- 1 -->
      <g transform="translate(31.193438 171.956535) scale(0.1 -0.1)">
       <use xlink:href="#DejaVuSans-31"/>
      </g>
     </g>
    </g>
    <g id="ytick_6">
     <g id="line2d_23">
      <path d="M 44.555938 101.130635 
L 848.235937 101.130635 
" clip-path="url(#pe432f463c0)" style="fill: none; stroke: #b0b0b0; stroke-opacity: 0.2; stroke-width: 0.8; stroke-linecap: square"/>
     </g>
     <g id="line2d_24">
      <g>
       <use xlink:href="#mb6a066da4c" x="44.555938" y="101.130635" style="stroke: #000000; stroke-width: 0.8"/>
      </g>
     </g>
     <g id="text_13">
      <!-- 2 -->
      <g transform="translate(31.193438 104.929854) scale(0.1 -0.1)">
       <use xlink:href="#DejaVuSans-32"/>
      </g>
     </g>
    </g>
    <g id="ytick_7">
     <g id="line2d_25">
      <path d="M 44.555938 34.103954 
L 848.235937 34.103954 
" clip-path="url(#pe432f463c0)" style="fill: none; stroke: #b0b0b0; stroke-opacity: 0.2; stroke-width: 0.8; stroke-linecap: square"/>
     </g>
     <g id="line2d_26">
      <g>
       <use xlink:href="#mb6a066da4c" x="44.555938" y="34.103954" style="stroke: #000000; stroke-width: 0.8"/>
      </g>
     </g>
     <g id="text_14">
      <!-- 3 -->
      <g transform="translate(31.193438 37.903173) scale(0.1 -0.1)">
       <use xlink:href="#DejaVuSans-33"/>
      </g>
     </g>
    </g>
    <g id="text_15">
     <!-- P1 expected gain (&lt; 0 = P2 advantage) -->
     <g transform="translate(16.318125 359.184687) rotate(-90) scale(0.12 -0.12)">
      <defs>
       <path id="DejaVuSans-50" d="M 1259 4147 
L 1259 2394 
L 2053 2394 
Q 2494 2394 2734 2622 
Q 2975 2850 2975 3272 
Q 2975 3691 2734 3919 
Q 2494 4147 2053 4147 
L 1259 4147 
z
M 628 4666 
L 2053 4666 
Q 2838 4666 3239 4311 
Q 3641 3956 3641 3272 
Q 3641 2581 3239 2228 
Q 2838 1875 2053 1875 
L 1259 1875 
L 1259 0 
L 628 0 
L 628 4666 
z
" transform="scale(0.015625)"/>
       <path id="DejaVuSans-78" d="M 3513 3500 
L 2247 1797 
L 3578 0 
L 2900 0 
L 1881 1375 
L 863 0 
L 184 0 
L 1544 1831 
L 300 3500 
L 978 3500 
L 1906 2253 
L 2834 3500 
L 3513 3500 
z
" transform="scale(0.015625)"/>
       <path id="DejaVuSans-63" d="M 3122 3366 
L 3122 2828 
Q 2878 2963 2633 3030 
Q 2388 3097 2138 3097 
Q 1578 3097 1268 2742 
Q 959 2388 959 1747 
Q 959 1106 1268 751 
Q 1578 397 2138 397 
Q 2388 397 2633 464 
Q 2878 531 3122 666 
L 3122 134 
Q 2881 22 2623 -34 
Q 2366 -91 2075 -91 
Q 1284 -91 818 406 
Q 353 903 353 1747 
Q 353 2603 823 3093 
Q 1294 3584 2113 3584 
Q 2378 3584 2631 3529 
Q 2884 3475 3122 3366 
z
" transform="scale(0.015625)"/>
       <path id="DejaVuSans-74" d="M 1172 4494 
L 1172 3500 
L 2356 3500 
L 2356 3053 
L 1172 3053 
L 1172 1153 
Q 1172 725 1289 603 
Q 1406 481 1766 481 
L 2356 481 
L 2356 0 
L 1766 0 
Q 1100 0 847 248 
Q 594 497 594 1153 
L 594 3053 
L 172 3053 
L 172 3500 
L 594 3500 
L 594 4494 
L 1172 4494 
z
" transform="scale(0.015625)"/>
       <path id="DejaVuSans-67" d="M 2906 1791 
Q 2906 2416 2648 2759 
Q 2391 3103 1925 3103 
Q 1463 3103 1205 2759 
Q 947 2416 947 1791 
Q 947 1169 1205 825 
Q 1463 481 1925 481 
Q 2391 481 2648 825 
Q 2906 1169 2906 1791 
z
M 3481 434 
Q 3481 -459 3084 -895 
Q 2688 -1331 1869 -1331 
Q 1566 -1331 1297 -1286 
Q 1028 -1241 775 -1147 
L 775 -588 
Q 1028 -725 1275 -790 
Q 1522 -856 1778 -856 
Q 2344 -856 2625 -561 
Q 2906 -266 2906 331 
L 2906 616 
Q 2728 306 2450 153 
Q 2172 0 1784 0 
Q 1141 0 747 490 
Q 353 981 353 1791 
Q 353 2603 747 3093 
Q 1141 3584 1784 3584 
Q 2172 3584 2450 3431 
Q 2728 3278 2906 2969 
L 2906 3500 
L 3481 3500 
L 3481 434 
z
" transform="scale(0.015625)"/>
       <path id="DejaVuSans-3c" d="M 4684 3150 
L 1459 2003 
L 4684 863 
L 4684 294 
L 678 1747 
L 678 2266 
L 4684 3719 
L 4684 3150 
z
" transform="scale(0.015625)"/>
       <path id="DejaVuSans-3d" d="M 678 2906 
L 4684 2906 
L 4684 2381 
L 678 2381 
L 678 2906 
z
M 678 1631 
L 4684 1631 
L 4684 1100 
L 678 1100 
L 678 1631 
z
" transform="scale(0.015625)"/>
       <path id="DejaVuSans-76" d="M 191 3500 
L 800 3500 
L 1894 563 
L 2988 3500 
L 3597 3500 
L 2284 0 
L 1503 0 
L 191 3500 
z
" transform="scale(0.015625)"/>
      </defs>
      <use xlink:href="#DejaVuSans-50"/>
      <use xlink:href="#DejaVuSans-31" transform="translate(60.302734 0)"/>
      <use xlink:href="#DejaVuSans-20" transform="translate(123.925781 0)"/>
      <use xlink:href="#DejaVuSans-65" transform="translate(155.712891 0)"/>
      <use xlink:href="#DejaVuSans-78" transform="translate(215.486328 0)"/>
      <use xlink:href="#DejaVuSans-70" transform="translate(274.666016 0)"/>
      <use xlink:href="#DejaVuSans-65" transform="translate(338.142578 0)"/>
      <use xlink:href="#DejaVuSans-63" transform="translate(399.666016 0)"/>
      <use xlink:href="#DejaVuSans-74" transform="translate(454.646484 0)"/>
      <use xlink:href="#DejaVuSans-65" transform="translate(493.855469 0)"/>
      <use xlink:href="#DejaVuSans-64" transform="translate(555.378906 0)"/>
      <use xlink:href="#DejaVuSans-20" transform="translate(618.855469 0)"/>
      <use xlink:href="#DejaVuSans-67" transform="translate(650.642578 0)"/>
      <use xlink:href="#DejaVuSans-61" transform="translate(714.119141 0)"/>
      <use xlink:href="#DejaVuSans-69" transform="translate(775.398438 0)"/>
      <use xlink:href="#DejaVuSans-6e" transform="translate(803.181641 0)"/>
      <use xlink:href="#DejaVuSans-20" transform="translate(866.560547 0)"/>
      <use xlink:href="#DejaVuSans-28" transform="translate(898.347656 0)"/>
      <use xlink:href="#DejaVuSans-3c" transform="translate(937.361328 0)"/>
      <use xlink:href="#DejaVuSans-20" transform="translate(1021.150391 0)"/>
      <use xlink:href="#DejaVuSans-30" transform="translate(1052.9375 0)"/>
      <use xlink:href="#DejaVuSans-20" transform="translate(1116.560547 0)"/>
      <use xlink:href="#DejaVuSans-3d" transform="translate(1148.347656 0)"/>
      <use xlink:href="#DejaVuSans-20" transform="translate(1232.136719 0)"/>
      <use xlink:href="#DejaVuSans-50" transform="translate(1263.923828 0)"/>
      <use xlink:href="#DejaVuSans-32" transform="translate(1324.226562 0)"/>
      <use xlink:href="#DejaVuSans-20" transform="translate(1387.849609 0)"/>
      <use xlink:href="#DejaVuSans-61" transform="translate(1419.636719 0)"/>
      <use xlink:href="#DejaVuSans-64" transform="translate(1480.916016 0)"/>
      <use xlink:href="#DejaVuSans-76" transform="translate(1544.392578 0)"/>
      <use xlink:href="#DejaVuSans-61" transform="translate(1603.572266 0)"/>
      <use xlink:href="#DejaVuSans-6e" transform="translate(1664.851562 0)"/>
      <use xlink:href="#DejaVuSans-74" transform="translate(1728.230469 0)"/>
      <use xlink:href="#DejaVuSans-61" transform="translate(1767.439453 0)"/>
      <use xlink:href="#DejaVuSans-67" transform="translate(1828.71875 0)"/>
      <use xlink:href="#DejaVuSans-65" transform="translate(1892.195312 0)"/>
      <use xlink:href="#DejaVuSans-29" transform="translate(1953.71875 0)"/>
     </g>
    </g>
   </g>
   <g id="line2d_27">
    <path d="M 81.086847 238.38117 
L 185.460873 234.446704 
L 289.834899 235.183998 
L 498.58295 239.098356 
L 811.705028 241.048832 
" clip-path="url(#pe432f463c0)" style="fill: none; stroke: #e7298a; stroke-width: 2; stroke-linecap: square"/>
    <defs>
     <path id="m528d9f45fa" d="M 0 3.5 
C 0.928211 3.5 1.81853 3.131218 2.474874 2.474874 
C 3.131218 1.81853 3.5 0.928211 3.5 0 
C 3.5 -0.928211 3.131218 -1.81853 2.474874 -2.474874 
C 1.81853 -3.131218 0.928211 -3.5 0 -3.5 
C -0.928211 -3.5 -1.81853 -3.131218 -2.474874 -2.474874 
C -3.131218 -1.81853 -3.5 -0.928211 -3.5 0 
C -3.5 0.928211 -3.131218 1.81853 -2.474874 2.474874 
C -1.81853 3.131218 -0.928211 3.5 0 3.5 
z
" style="stroke: #e7298a"/>
    </defs>
    <g clip-path="url(#pe432f463c0)">
     <use xlink:href="#m528d9f45fa" x="81.086847" y="238.38117" style="fill: #e7298a; stroke: #e7298a"/>
     <use xlink:href="#m528d9f45fa" x="185.460873" y="234.446704" style="fill: #e7298a; stroke: #e7298a"/>
     <use xlink:href="#m528d9f45fa" x="289.834899" y="235.183998" style="fill: #e7298a; stroke: #e7298a"/>
     <use xlink:href="#m528d9f45fa" x="498.58295" y="239.098356" style="fill: #e7298a; stroke: #e7298a"/>
     <use xlink:href="#m528d9f45fa" x="811.705028" y="241.048832" style="fill: #e7298a; stroke: #e7298a"/>
    </g>
   </g>
   <g id="line2d_28">
    <path d="M 81.086847 235.06335 
L 185.460873 233.742924 
L 289.834899 235.478915 
L 498.58295 230.049754 
L 811.705028 230.914398 
" clip-path="url(#pe432f463c0)" style="fill: none; stroke: #2166ac; stroke-width: 2; stroke-linecap: square"/>
    <defs>
     <path id="m4207736142" d="M 0 3.5 
C 0.928211 3.5 1.81853 3.131218 2.474874 2.474874 
C 3.131218 1.81853 3.5 0.928211 3.5 0 
C 3.5 -0.928211 3.131218 -1.81853 2.474874 -2.474874 
C 1.81853 -3.131218 0.928211 -3.5 0 -3.5 
C -0.928211 -3.5 -1.81853 -3.131218 -2.474874 -2.474874 
C -3.131218 -1.81853 -3.5 -0.928211 -3.5 0 
C -3.5 0.928211 -3.131218 1.81853 -2.474874 2.474874 
C -1.81853 3.131218 -0.928211 3.5 0 3.5 
z
" style="stroke: #2166ac"/>
    </defs>
    <g clip-path="url(#pe432f463c0)">
     <use xlink:href="#m4207736142" x="81.086847" y="235.06335" style="fill: #2166ac; stroke: #2166ac"/>
     <use xlink:href="#m4207736142" x="185.460873" y="233.742924" style="fill: #2166ac; stroke: #2166ac"/>
     <use xlink:href="#m4207736142" x="289.834899" y="235.478915" style="fill: #2166ac; stroke: #2166ac"/>
     <use xlink:href="#m4207736142" x="498.58295" y="230.049754" style="fill: #2166ac; stroke: #2166ac"/>
     <use xlink:href="#m4207736142" x="811.705028" y="230.914398" style="fill: #2166ac; stroke: #2166ac"/>
    </g>
   </g>
   <g id="line2d_29">
    <path d="M 81.086847 231.350071 
L 185.460873 213.547785 
L 289.834899 188.761318 
L 498.58295 127.74693 
L 811.705028 43.454176 
" clip-path="url(#pe432f463c0)" style="fill: none; stroke: #4dac26; stroke-width: 2; stroke-linecap: square"/>
    <defs>
     <path id="m3b871adaaf" d="M 0 3.5 
C 0.928211 3.5 1.81853 3.131218 2.474874 2.474874 
C 3.131218 1.81853 3.5 0.928211 3.5 0 
C 3.5 -0.928211 3.131218 -1.81853 2.474874 -2.474874 
C 1.81853 -3.131218 0.928211 -3.5 0 -3.5 
C -0.928211 -3.5 -1.81853 -3.131218 -2.474874 -2.474874 
C -3.131218 -1.81853 -3.5 -0.928211 -3.5 0 
C -3.5 0.928211 -3.131218 1.81853 -2.474874 2.474874 
C -1.81853 3.131218 -0.928211 3.5 0 3.5 
z
" style="stroke: #4dac26"/>
    </defs>
    <g clip-path="url(#pe432f463c0)">
     <use xlink:href="#m3b871adaaf" x="81.086847" y="231.350071" style="fill: #4dac26; stroke: #4dac26"/>
     <use xlink:href="#m3b871adaaf" x="185.460873" y="213.547785" style="fill: #4dac26; stroke: #4dac26"/>
     <use xlink:href="#m3b871adaaf" x="289.834899" y="188.761318" style="fill: #4dac26; stroke: #4dac26"/>
     <use xlink:href="#m3b871adaaf" x="498.58295" y="127.74693" style="fill: #4dac26; stroke: #4dac26"/>
     <use xlink:href="#m3b871adaaf" x="811.705028" y="43.454176" style="fill: #4dac26; stroke: #4dac26"/>
    </g>
   </g>
   <g id="line2d_30">
    <path d="M 81.086847 240.030027 
L 185.460873 262.242669 
L 289.834899 291.017223 
L 498.58295 345.697589 
L 811.705028 435.781449 
" clip-path="url(#pe432f463c0)" style="fill: none; stroke: #d6604d; stroke-width: 2; stroke-linecap: square"/>
    <defs>
     <path id="m16ee2a5d77" d="M 0 3.5 
C 0.928211 3.5 1.81853 3.131218 2.474874 2.474874 
C 3.131218 1.81853 3.5 0.928211 3.5 0 
C 3.5 -0.928211 3.131218 -1.81853 2.474874 -2.474874 
C 1.81853 -3.131218 0.928211 -3.5 0 -3.5 
C -0.928211 -3.5 -1.81853 -3.131218 -2.474874 -2.474874 
C -3.131218 -1.81853 -3.5 -0.928211 -3.5 0 
C -3.5 0.928211 -3.131218 1.81853 -2.474874 2.474874 
C -1.81853 3.131218 -0.928211 3.5 0 3.5 
z
" style="stroke: #d6604d"/>
    </defs>
    <g clip-path="url(#pe432f463c0)">
     <use xlink:href="#m16ee2a5d77" x="81.086847" y="240.030027" style="fill: #d6604d; stroke: #d6604d"/>
     <use xlink:href="#m16ee2a5d77" x="185.460873" y="262.242669" style="fill: #d6604d; stroke: #d6604d"/>
     <use xlink:href="#m16ee2a5d77" x="289.834899" y="291.017223" style="fill: #d6604d; stroke: #d6604d"/>
     <use xlink:href="#m16ee2a5d77" x="498.58295" y="345.697589" style="fill: #d6604d; stroke: #d6604d"/>
     <use xlink:href="#m16ee2a5d77" x="811.705028" y="435.781449" style="fill: #d6604d; stroke: #d6604d"/>
    </g>
   </g>
   <g id="line2d_31">
    <path d="M 44.555938 235.183998 
L 848.235937 235.183998 
" clip-path="url(#pe432f463c0)" style="fill: none; stroke-dasharray: 5.55,2.4; stroke-dashoffset: 0; stroke: #000000; stroke-opacity: 0.5; stroke-width: 1.5"/>
   </g>
   <g id="patch_3">
    <path d="M 44.555938 455.397812 
L 44.555938 23.837812 
" style="fill: none; stroke: #000000; stroke-width: 0.8; stroke-linejoin: miter; stroke-linecap: square"/>
   </g>
   <g id="patch_4">
    <path d="M 848.235937 455.397812 
L 848.235937 23.837812 
" style="fill: none; stroke: #000000; stroke-width: 0.8; stroke-linejoin: miter; stroke-linecap: square"/>
   </g>
   <g id="patch_5">
    <path d="M 44.555937 455.397812 
L 848.235937 455.397812 
" style="fill: none; stroke: #000000; stroke-width: 0.8; stroke-linejoin: miter; stroke-linecap: square"/>
   </g>
   <g id="patch_6">
    <path d="M 44.555937 23.837812 
L 848.235937 23.837812 
" style="fill: none; stroke: #000000; stroke-width: 0.8; stroke-linejoin: miter; stroke-linecap: square"/>
   </g>
   <g id="text_16">
    <!-- Expected Gain: Miller-Optimal vs Zwick (M=7) -->
    <g transform="translate(265.278594 17.837812) scale(0.14 -0.14)">
     <defs>
      <path id="DejaVuSans-Bold-45" d="M 588 4666 
L 3834 4666 
L 3834 3756 
L 1791 3756 
L 1791 2888 
L 3713 2888 
L 3713 1978 
L 1791 1978 
L 1791 909 
L 3903 909 
L 3903 0 
L 588 0 
L 588 4666 
z
" transform="scale(0.015625)"/>
      <path id="DejaVuSans-Bold-78" d="M 1422 1791 
L 159 3500 
L 1344 3500 
L 2059 2463 
L 2784 3500 
L 3969 3500 
L 2706 1797 
L 4031 0 
L 2847 0 
L 2059 1106 
L 1281 0 
L 97 0 
L 1422 1791 
z
" transform="scale(0.015625)"/>
      <path id="DejaVuSans-Bold-70" d="M 1656 506 
L 1656 -1331 
L 538 -1331 
L 538 3500 
L 1656 3500 
L 1656 2988 
Q 1888 3294 2169 3439 
Q 2450 3584 2816 3584 
Q 3463 3584 3878 3070 
Q 4294 2556 4294 1747 
Q 4294 938 3878 423 
Q 3463 -91 2816 -91 
Q 2450 -91 2169 54 
Q 1888 200 1656 506 
z
M 2400 2772 
Q 2041 2772 1848 2508 
Q 1656 2244 1656 1747 
Q 1656 1250 1848 986 
Q 2041 722 2400 722 
Q 2759 722 2948 984 
Q 3138 1247 3138 1747 
Q 3138 2247 2948 2509 
Q 2759 2772 2400 2772 
z
" transform="scale(0.015625)"/>
      <path id="DejaVuSans-Bold-65" d="M 4031 1759 
L 4031 1441 
L 1416 1441 
Q 1456 1047 1700 850 
Q 1944 653 2381 653 
Q 2734 653 3104 758 
Q 3475 863 3866 1075 
L 3866 213 
Q 3469 63 3072 -14 
Q 2675 -91 2278 -91 
Q 1328 -91 801 392 
Q 275 875 275 1747 
Q 275 2603 792 3093 
Q 1309 3584 2216 3584 
Q 3041 3584 3536 3087 
Q 4031 2591 4031 1759 
z
M 2881 2131 
Q 2881 2450 2695 2645 
Q 2509 2841 2209 2841 
Q 1884 2841 1681 2658 
Q 1478 2475 1428 2131 
L 2881 2131 
z
" transform="scale(0.015625)"/>
      <path id="DejaVuSans-Bold-63" d="M 3366 3391 
L 3366 2478 
Q 3138 2634 2908 2709 
Q 2678 2784 2431 2784 
Q 1963 2784 1702 2511 
Q 1441 2238 1441 1747 
Q 1441 1256 1702 982 
Q 1963 709 2431 709 
Q 2694 709 2930 787 
Q 3166 866 3366 1019 
L 3366 103 
Q 3103 6 2833 -42 
Q 2563 -91 2291 -91 
Q 1344 -91 809 395 
Q 275 881 275 1747 
Q 275 2613 809 3098 
Q 1344 3584 2291 3584 
Q 2566 3584 2833 3536 
Q 3100 3488 3366 3391 
z
" transform="scale(0.015625)"/>
      <path id="DejaVuSans-Bold-74" d="M 1759 4494 
L 1759 3500 
L 2913 3500 
L 2913 2700 
L 1759 2700 
L 1759 1216 
Q 1759 972 1856 886 
Q 1953 800 2241 800 
L 2816 800 
L 2816 0 
L 1856 0 
Q 1194 0 917 276 
Q 641 553 641 1216 
L 641 2700 
L 84 2700 
L 84 3500 
L 641 3500 
L 641 4494 
L 1759 4494 
z
" transform="scale(0.015625)"/>
      <path id="DejaVuSans-Bold-64" d="M 2919 2988 
L 2919 4863 
L 4044 4863 
L 4044 0 
L 2919 0 
L 2919 506 
Q 2688 197 2409 53 
Q 2131 -91 1766 -91 
Q 1119 -91 703 423 
Q 288 938 288 1747 
Q 288 2556 703 3070 
Q 1119 3584 1766 3584 
Q 2128 3584 2408 3439 
Q 2688 3294 2919 2988 
z
M 2181 722 
Q 2541 722 2730 984 
Q 2919 1247 2919 1747 
Q 2919 2247 2730 2509 
Q 2541 2772 2181 2772 
Q 1825 2772 1636 2509 
Q 1447 2247 1447 1747 
Q 1447 1247 1636 984 
Q 1825 722 2181 722 
z
" transform="scale(0.015625)"/>
      <path id="DejaVuSans-Bold-20" transform="scale(0.015625)"/>
      <path id="DejaVuSans-Bold-47" d="M 4781 347 
Q 4331 128 3847 18 
Q 3363 -91 2847 -91 
Q 1681 -91 1000 561 
Q 319 1213 319 2328 
Q 319 3456 1012 4103 
Q 1706 4750 2913 4750 
Q 3378 4750 3804 4662 
Q 4231 4575 4609 4403 
L 4609 3438 
Q 4219 3659 3833 3768 
Q 3447 3878 3059 3878 
Q 2341 3878 1952 3476 
Q 1563 3075 1563 2328 
Q 1563 1588 1938 1184 
Q 2313 781 3003 781 
Q 3191 781 3352 804 
Q 3513 828 3641 878 
L 3641 1784 
L 2906 1784 
L 2906 2591 
L 4781 2591 
L 4781 347 
z
" transform="scale(0.015625)"/>
      <path id="DejaVuSans-Bold-61" d="M 2106 1575 
Q 1756 1575 1579 1456 
Q 1403 1338 1403 1106 
Q 1403 894 1545 773 
Q 1688 653 1941 653 
Q 2256 653 2472 879 
Q 2688 1106 2688 1447 
L 2688 1575 
L 2106 1575 
z
M 3816 1997 
L 3816 0 
L 2688 0 
L 2688 519 
Q 2463 200 2181 54 
Q 1900 -91 1497 -91 
Q 953 -91 614 226 
Q 275 544 275 1050 
Q 275 1666 698 1953 
Q 1122 2241 2028 2241 
L 2688 2241 
L 2688 2328 
Q 2688 2594 2478 2717 
Q 2269 2841 1825 2841 
Q 1466 2841 1156 2769 
Q 847 2697 581 2553 
L 581 3406 
Q 941 3494 1303 3539 
Q 1666 3584 2028 3584 
Q 2975 3584 3395 3211 
Q 3816 2838 3816 1997 
z
" transform="scale(0.015625)"/>
      <path id="DejaVuSans-Bold-69" d="M 538 3500 
L 1656 3500 
L 1656 0 
L 538 0 
L 538 3500 
z
M 538 4863 
L 1656 4863 
L 1656 3950 
L 538 3950 
L 538 4863 
z
" transform="scale(0.015625)"/>
      <path id="DejaVuSans-Bold-6e" d="M 4056 2131 
L 4056 0 
L 2931 0 
L 2931 347 
L 2931 1631 
Q 2931 2084 2911 2256 
Q 2891 2428 2841 2509 
Q 2775 2619 2662 2680 
Q 2550 2741 2406 2741 
Q 2056 2741 1856 2470 
Q 1656 2200 1656 1722 
L 1656 0 
L 538 0 
L 538 3500 
L 1656 3500 
L 1656 2988 
Q 1909 3294 2193 3439 
Q 2478 3584 2822 3584 
Q 3428 3584 3742 3212 
Q 4056 2841 4056 2131 
z
" transform="scale(0.015625)"/>
      <path id="DejaVuSans-Bold-3a" d="M 716 3500 
L 1844 3500 
L 1844 2291 
L 716 2291 
L 716 3500 
z
M 716 1209 
L 1844 1209 
L 1844 0 
L 716 0 
L 716 1209 
z
" transform="scale(0.015625)"/>
      <path id="DejaVuSans-Bold-4d" d="M 588 4666 
L 2119 4666 
L 3181 2169 
L 4250 4666 
L 5778 4666 
L 5778 0 
L 4641 0 
L 4641 3413 
L 3566 897 
L 2803 897 
L 1728 3413 
L 1728 0 
L 588 0 
L 588 4666 
z
" transform="scale(0.015625)"/>
      <path id="DejaVuSans-Bold-6c" d="M 538 4863 
L 1656 4863 
L 1656 0 
L 538 0 
L 538 4863 
z
" transform="scale(0.015625)"/>
      <path id="DejaVuSans-Bold-72" d="M 3138 2547 
Q 2991 2616 2845 2648 
Q 2700 2681 2553 2681 
Q 2122 2681 1889 2404 
Q 1656 2128 1656 1613 
L 1656 0 
L 538 0 
L 538 3500 
L 1656 3500 
L 1656 2925 
Q 1872 3269 2151 3426 
Q 2431 3584 2822 3584 
Q 2878 3584 2943 3579 
Q 3009 3575 3134 3559 
L 3138 2547 
z
" transform="scale(0.015625)"/>
      <path id="DejaVuSans-Bold-2d" d="M 347 2297 
L 2309 2297 
L 2309 1388 
L 347 1388 
L 347 2297 
z
" transform="scale(0.015625)"/>
      <path id="DejaVuSans-Bold-4f" d="M 2719 3878 
Q 2169 3878 1866 3472 
Q 1563 3066 1563 2328 
Q 1563 1594 1866 1187 
Q 2169 781 2719 781 
Q 3272 781 3575 1187 
Q 3878 1594 3878 2328 
Q 3878 3066 3575 3472 
Q 3272 3878 2719 3878 
z
M 2719 4750 
Q 3844 4750 4481 4106 
Q 5119 3463 5119 2328 
Q 5119 1197 4481 553 
Q 3844 -91 2719 -91 
Q 1597 -91 958 553 
Q 319 1197 319 2328 
Q 319 3463 958 4106 
Q 1597 4750 2719 4750 
z
" transform="scale(0.015625)"/>
      <path id="DejaVuSans-Bold-6d" d="M 3781 2919 
Q 3994 3244 4286 3414 
Q 4578 3584 4928 3584 
Q 5531 3584 5847 3212 
Q 6163 2841 6163 2131 
L 6163 0 
L 5038 0 
L 5038 1825 
Q 5041 1866 5042 1909 
Q 5044 1953 5044 2034 
Q 5044 2406 4934 2573 
Q 4825 2741 4581 2741 
Q 4263 2741 4089 2478 
Q 3916 2216 3909 1719 
L 3909 0 
L 2784 0 
L 2784 1825 
Q 2784 2406 2684 2573 
Q 2584 2741 2328 2741 
Q 2006 2741 1831 2477 
Q 1656 2213 1656 1722 
L 1656 0 
L 531 0 
L 531 3500 
L 1656 3500 
L 1656 2988 
Q 1863 3284 2130 3434 
Q 2397 3584 2719 3584 
Q 3081 3584 3359 3409 
Q 3638 3234 3781 2919 
z
" transform="scale(0.015625)"/>
      <path id="DejaVuSans-Bold-76" d="M 97 3500 
L 1216 3500 
L 2088 1081 
L 2956 3500 
L 4078 3500 
L 2700 0 
L 1472 0 
L 97 3500 
z
" transform="scale(0.015625)"/>
      <path id="DejaVuSans-Bold-73" d="M 3272 3391 
L 3272 2541 
Q 2913 2691 2578 2766 
Q 2244 2841 1947 2841 
Q 1628 2841 1473 2761 
Q 1319 2681 1319 2516 
Q 1319 2381 1436 2309 
Q 1553 2238 1856 2203 
L 2053 2175 
Q 2913 2066 3209 1816 
Q 3506 1566 3506 1031 
Q 3506 472 3093 190 
Q 2681 -91 1863 -91 
Q 1516 -91 1145 -36 
Q 775 19 384 128 
L 384 978 
Q 719 816 1070 734 
Q 1422 653 1784 653 
Q 2113 653 2278 743 
Q 2444 834 2444 1013 
Q 2444 1163 2330 1236 
Q 2216 1309 1875 1350 
L 1678 1375 
Q 931 1469 631 1722 
Q 331 1975 331 2491 
Q 331 3047 712 3315 
Q 1094 3584 1881 3584 
Q 2191 3584 2531 3537 
Q 2872 3491 3272 3391 
z
" transform="scale(0.015625)"/>
      <path id="DejaVuSans-Bold-5a" d="M 359 4666 
L 4281 4666 
L 4281 3938 
L 1778 909 
L 4353 909 
L 4353 0 
L 288 0 
L 288 728 
L 2791 3756 
L 359 3756 
L 359 4666 
z
" transform="scale(0.015625)"/>
      <path id="DejaVuSans-Bold-77" d="M 225 3500 
L 1313 3500 
L 1900 1088 
L 2491 3500 
L 3425 3500 
L 4013 1113 
L 4603 3500 
L 5691 3500 
L 4769 0 
L 3547 0 
L 2956 2406 
L 2369 0 
L 1147 0 
L 225 3500 
z
" transform="scale(0.015625)"/>
      <path id="DejaVuSans-Bold-6b" d="M 538 4863 
L 1656 4863 
L 1656 2216 
L 2944 3500 
L 4244 3500 
L 2534 1894 
L 4378 0 
L 3022 0 
L 1656 1459 
L 1656 0 
L 538 0 
L 538 4863 
z
" transform="scale(0.015625)"/>
      <path id="DejaVuSans-Bold-28" d="M 2413 -844 
L 1484 -844 
Q 1006 -72 778 623 
Q 550 1319 550 2003 
Q 550 2688 779 3389 
Q 1009 4091 1484 4856 
L 2413 4856 
Q 2013 4116 1813 3408 
Q 1613 2700 1613 2009 
Q 1613 1319 1811 609 
Q 2009 -100 2413 -844 
z
" transform="scale(0.015625)"/>
      <path id="DejaVuSans-Bold-3d" d="M 678 3084 
L 4684 3084 
L 4684 2350 
L 678 2350 
L 678 3084 
z
M 678 1663 
L 4684 1663 
L 4684 922 
L 678 922 
L 678 1663 
z
" transform="scale(0.015625)"/>
      <path id="DejaVuSans-Bold-37" d="M 428 4666 
L 3944 4666 
L 3944 3988 
L 2125 0 
L 953 0 
L 2675 3781 
L 428 3781 
L 428 4666 
z
" transform="scale(0.015625)"/>
      <path id="DejaVuSans-Bold-29" d="M 513 -844 
Q 913 -100 1113 609 
Q 1313 1319 1313 2009 
Q 1313 2700 1113 3408 
Q 913 4116 513 4856 
L 1441 4856 
Q 1916 4091 2145 3389 
Q 2375 2688 2375 2003 
Q 2375 1319 2147 623 
Q 1919 -72 1441 -844 
L 513 -844 
z
" transform="scale(0.015625)"/>
     </defs>
     <use xlink:href="#DejaVuSans-Bold-45"/>
     <use xlink:href="#DejaVuSans-Bold-78" transform="translate(68.310547 0)"/>
     <use xlink:href="#DejaVuSans-Bold-70" transform="translate(132.8125 0)"/>
     <use xlink:href="#DejaVuSans-Bold-65" transform="translate(204.394531 0)"/>
     <use xlink:href="#DejaVuSans-Bold-63" transform="translate(272.216797 0)"/>
     <use xlink:href="#DejaVuSans-Bold-74" transform="translate(331.494141 0)"/>
     <use xlink:href="#DejaVuSans-Bold-65" transform="translate(379.296875 0)"/>
     <use xlink:href="#DejaVuSans-Bold-64" transform="translate(447.119141 0)"/>
     <use xlink:href="#DejaVuSans-Bold-20" transform="translate(518.701172 0)"/>
     <use xlink:href="#DejaVuSans-Bold-47" transform="translate(553.515625 0)"/>
     <use xlink:href="#DejaVuSans-Bold-61" transform="translate(635.595703 0)"/>
     <use xlink:href="#DejaVuSans-Bold-69" transform="translate(703.076172 0)"/>
     <use xlink:href="#DejaVuSans-Bold-6e" transform="translate(737.353516 0)"/>
     <use xlink:href="#DejaVuSans-Bold-3a" transform="translate(808.544922 0)"/>
     <use xlink:href="#DejaVuSans-Bold-20" transform="translate(848.535156 0)"/>
     <use xlink:href="#DejaVuSans-Bold-4d" transform="translate(883.349609 0)"/>
     <use xlink:href="#DejaVuSans-Bold-69" transform="translate(982.861328 0)"/>
     <use xlink:href="#DejaVuSans-Bold-6c" transform="translate(1017.138672 0)"/>
     <use xlink:href="#DejaVuSans-Bold-6c" transform="translate(1051.416016 0)"/>
     <use xlink:href="#DejaVuSans-Bold-65" transform="translate(1085.693359 0)"/>
     <use xlink:href="#DejaVuSans-Bold-72" transform="translate(1153.515625 0)"/>
     <use xlink:href="#DejaVuSans-Bold-2d" transform="translate(1202.832031 0)"/>
     <use xlink:href="#DejaVuSans-Bold-4f" transform="translate(1244.335938 0)"/>
     <use xlink:href="#DejaVuSans-Bold-70" transform="translate(1329.345703 0)"/>
     <use xlink:href="#DejaVuSans-Bold-74" transform="translate(1400.927734 0)"/>
     <use xlink:href="#DejaVuSans-Bold-69" transform="translate(1448.730469 0)"/>
     <use xlink:href="#DejaVuSans-Bold-6d" transform="translate(1483.007812 0)"/>
     <use xlink:href="#DejaVuSans-Bold-61" transform="translate(1587.207031 0)"/>
     <use xlink:href="#DejaVuSans-Bold-6c" transform="translate(1654.6875 0)"/>
     <use xlink:href="#DejaVuSans-Bold-20" transform="translate(1688.964844 0)"/>
     <use xlink:href="#DejaVuSans-Bold-76" transform="translate(1723.779297 0)"/>
     <use xlink:href="#DejaVuSans-Bold-73" transform="translate(1788.964844 0)"/>
     <use xlink:href="#DejaVuSans-Bold-20" transform="translate(1848.486328 0)"/>
     <use xlink:href="#DejaVuSans-Bold-5a" transform="translate(1883.300781 0)"/>
     <use xlink:href="#DejaVuSans-Bold-77" transform="translate(1955.810547 0)"/>
     <use xlink:href="#DejaVuSans-Bold-69" transform="translate(2048.193359 0)"/>
     <use xlink:href="#DejaVuSans-Bold-63" transform="translate(2082.470703 0)"/>
     <use xlink:href="#DejaVuSans-Bold-6b" transform="translate(2141.748047 0)"/>
     <use xlink:href="#DejaVuSans-Bold-20" transform="translate(2208.251953 0)"/>
     <use xlink:href="#DejaVuSans-Bold-28" transform="translate(2243.066406 0)"/>
     <use xlink:href="#DejaVuSans-Bold-4d" transform="translate(2288.769531 0)"/>
     <use xlink:href="#DejaVuSans-Bold-3d" transform="translate(2388.28125 0)"/>
     <use xlink:href="#DejaVuSans-Bold-37" transform="translate(2472.070312 0)"/>
     <use xlink:href="#DejaVuSans-Bold-29" transform="translate(2541.650391 0)"/>
    </g>
   </g>
   <g id="legend_1">
    <g id="patch_7">
     <path d="M 51.555938 90.550312 
L 183.674688 90.550312 
Q 185.674688 90.550312 185.674688 88.550312 
L 185.674688 30.837812 
Q 185.674688 28.837812 183.674688 28.837812 
L 51.555938 28.837812 
Q 49.555938 28.837812 49.555938 30.837812 
L 49.555938 88.550312 
Q 49.555938 90.550312 51.555938 90.550312 
z
" style="fill: #ffffff; opacity: 0.8; stroke: #cccccc; stroke-linejoin: miter"/>
    </g>
    <g id="line2d_32">
     <path d="M 53.555938 36.93625 
L 63.555938 36.93625 
L 73.555937 36.93625 
" style="fill: none; stroke: #e7298a; stroke-width: 2; stroke-linecap: square"/>
     <g>
      <use xlink:href="#m528d9f45fa" x="63.555938" y="36.93625" style="fill: #e7298a; stroke: #e7298a"/>
     </g>
    </g>
    <g id="text_17">
     <!-- Miller v Miller -->
     <g transform="translate(81.555937 40.43625) scale(0.1 -0.1)">
      <defs>
       <path id="DejaVuSans-4d" d="M 628 4666 
L 1569 4666 
L 2759 1491 
L 3956 4666 
L 4897 4666 
L 4897 0 
L 4281 0 
L 4281 4097 
L 3078 897 
L 2444 897 
L 1241 4097 
L 1241 0 
L 628 0 
L 628 4666 
z
" transform="scale(0.015625)"/>
       <path id="DejaVuSans-6c" d="M 603 4863 
L 1178 4863 
L 1178 0 
L 603 0 
L 603 4863 
z
" transform="scale(0.015625)"/>
      </defs>
      <use xlink:href="#DejaVuSans-4d"/>
      <use xlink:href="#DejaVuSans-69" transform="translate(86.279297 0)"/>
      <use xlink:href="#DejaVuSans-6c" transform="translate(114.0625 0)"/>
      <use xlink:href="#DejaVuSans-6c" transform="translate(141.845703 0)"/>
      <use xlink:href="#DejaVuSans-65" transform="translate(169.628906 0)"/>
      <use xlink:href="#DejaVuSans-72" transform="translate(231.152344 0)"/>
      <use xlink:href="#DejaVuSans-20" transform="translate(272.265625 0)"/>
      <use xlink:href="#DejaVuSans-76" transform="translate(304.052734 0)"/>
      <use xlink:href="#DejaVuSans-20" transform="translate(363.232422 0)"/>
      <use xlink:href="#DejaVuSans-4d" transform="translate(395.019531 0)"/>
      <use xlink:href="#DejaVuSans-69" transform="translate(481.298828 0)"/>
      <use xlink:href="#DejaVuSans-6c" transform="translate(509.082031 0)"/>
      <use xlink:href="#DejaVuSans-6c" transform="translate(536.865234 0)"/>
      <use xlink:href="#DejaVuSans-65" transform="translate(564.648438 0)"/>
      <use xlink:href="#DejaVuSans-72" transform="translate(626.171875 0)"/>
     </g>
    </g>
    <g id="line2d_33">
     <path d="M 53.555938 51.614375 
L 63.555938 51.614375 
L 73.555937 51.614375 
" style="fill: none; stroke: #2166ac; stroke-width: 2; stroke-linecap: square"/>
     <g>
      <use xlink:href="#m4207736142" x="63.555938" y="51.614375" style="fill: #2166ac; stroke: #2166ac"/>
     </g>
    </g>
    <g id="text_18">
     <!-- Zwick v Zwick -->
     <g transform="translate(81.555937 55.114375) scale(0.1 -0.1)">
      <defs>
       <path id="DejaVuSans-5a" d="M 359 4666 
L 4025 4666 
L 4025 4184 
L 1075 531 
L 4097 531 
L 4097 0 
L 288 0 
L 288 481 
L 3238 4134 
L 359 4134 
L 359 4666 
z
" transform="scale(0.015625)"/>
       <path id="DejaVuSans-77" d="M 269 3500 
L 844 3500 
L 1563 769 
L 2278 3500 
L 2956 3500 
L 3675 769 
L 4391 3500 
L 4966 3500 
L 4050 0 
L 3372 0 
L 2619 2869 
L 1863 0 
L 1184 0 
L 269 3500 
z
" transform="scale(0.015625)"/>
       <path id="DejaVuSans-6b" d="M 581 4863 
L 1159 4863 
L 1159 1991 
L 2875 3500 
L 3609 3500 
L 1753 1863 
L 3688 0 
L 2938 0 
L 1159 1709 
L 1159 0 
L 581 0 
L 581 4863 
z
" transform="scale(0.015625)"/>
      </defs>
      <use xlink:href="#DejaVuSans-5a"/>
      <use xlink:href="#DejaVuSans-77" transform="translate(68.505859 0)"/>
      <use xlink:href="#DejaVuSans-69" transform="translate(150.292969 0)"/>
      <use xlink:href="#DejaVuSans-63" transform="translate(178.076172 0)"/>
      <use xlink:href="#DejaVuSans-6b" transform="translate(233.056641 0)"/>
      <use xlink:href="#DejaVuSans-20" transform="translate(290.966797 0)"/>
      <use xlink:href="#DejaVuSans-76" transform="translate(322.753906 0)"/>
      <use xlink:href="#DejaVuSans-20" transform="translate(381.933594 0)"/>
      <use xlink:href="#DejaVuSans-5a" transform="translate(413.720703 0)"/>
      <use xlink:href="#DejaVuSans-77" transform="translate(482.226562 0)"/>
      <use xlink:href="#DejaVuSans-69" transform="translate(564.013672 0)"/>
      <use xlink:href="#DejaVuSans-63" transform="translate(591.796875 0)"/>
      <use xlink:href="#DejaVuSans-6b" transform="translate(646.777344 0)"/>
     </g>
    </g>
    <g id="line2d_34">
     <path d="M 53.555938 66.2925 
L 63.555938 66.2925 
L 73.555937 66.2925 
" style="fill: none; stroke: #4dac26; stroke-width: 2; stroke-linecap: square"/>
     <g>
      <use xlink:href="#m3b871adaaf" x="63.555938" y="66.2925" style="fill: #4dac26; stroke: #4dac26"/>
     </g>
    </g>
    <g id="text_19">
     <!-- P1:Miller v P2:Zwick -->
     <g transform="translate(81.555937 69.7925) scale(0.1 -0.1)">
      <defs>
       <path id="DejaVuSans-3a" d="M 750 794 
L 1409 794 
L 1409 0 
L 750 0 
L 750 794 
z
M 750 3309 
L 1409 3309 
L 1409 2516 
L 750 2516 
L 750 3309 
z
" transform="scale(0.015625)"/>
      </defs>
      <use xlink:href="#DejaVuSans-50"/>
      <use xlink:href="#DejaVuSans-31" transform="translate(60.302734 0)"/>
      <use xlink:href="#DejaVuSans-3a" transform="translate(123.925781 0)"/>
      <use xlink:href="#DejaVuSans-4d" transform="translate(157.617188 0)"/>
      <use xlink:href="#DejaVuSans-69" transform="translate(243.896484 0)"/>
      <use xlink:href="#DejaVuSans-6c" transform="translate(271.679688 0)"/>
      <use xlink:href="#DejaVuSans-6c" transform="translate(299.462891 0)"/>
      <use xlink:href="#DejaVuSans-65" transform="translate(327.246094 0)"/>
      <use xlink:href="#DejaVuSans-72" transform="translate(388.769531 0)"/>
      <use xlink:href="#DejaVuSans-20" transform="translate(429.882812 0)"/>
      <use xlink:href="#DejaVuSans-76" transform="translate(461.669922 0)"/>
      <use xlink:href="#DejaVuSans-20" transform="translate(520.849609 0)"/>
      <use xlink:href="#DejaVuSans-50" transform="translate(552.636719 0)"/>
      <use xlink:href="#DejaVuSans-32" transform="translate(612.939453 0)"/>
      <use xlink:href="#DejaVuSans-3a" transform="translate(676.5625 0)"/>
      <use xlink:href="#DejaVuSans-5a" transform="translate(710.253906 0)"/>
      <use xlink:href="#DejaVuSans-77" transform="translate(778.759766 0)"/>
      <use xlink:href="#DejaVuSans-69" transform="translate(860.546875 0)"/>
      <use xlink:href="#DejaVuSans-63" transform="translate(888.330078 0)"/>
      <use xlink:href="#DejaVuSans-6b" transform="translate(943.310547 0)"/>
     </g>
    </g>
    <g id="line2d_35">
     <path d="M 53.555938 80.970625 
L 63.555938 80.970625 
L 73.555937 80.970625 
" style="fill: none; stroke: #d6604d; stroke-width: 2; stroke-linecap: square"/>
     <g>
      <use xlink:href="#m16ee2a5d77" x="63.555938" y="80.970625" style="fill: #d6604d; stroke: #d6604d"/>
     </g>
    </g>
    <g id="text_20">
     <!-- P1:Zwick v P2:Miller -->
     <g transform="translate(81.555937 84.470625) scale(0.1 -0.1)">
      <use xlink:href="#DejaVuSans-50"/>
      <use xlink:href="#DejaVuSans-31" transform="translate(60.302734 0)"/>
      <use xlink:href="#DejaVuSans-3a" transform="translate(123.925781 0)"/>
      <use xlink:href="#DejaVuSans-5a" transform="translate(157.617188 0)"/>
      <use xlink:href="#DejaVuSans-77" transform="translate(226.123047 0)"/>
      <use xlink:href="#DejaVuSans-69" transform="translate(307.910156 0)"/>
      <use xlink:href="#DejaVuSans-63" transform="translate(335.693359 0)"/>
      <use xlink:href="#DejaVuSans-6b" transform="translate(390.673828 0)"/>
      <use xlink:href="#DejaVuSans-20" transform="translate(448.583984 0)"/>
      <use xlink:href="#DejaVuSans-76" transform="translate(480.371094 0)"/>
      <use xlink:href="#DejaVuSans-20" transform="translate(539.550781 0)"/>
      <use xlink:href="#DejaVuSans-50" transform="translate(571.337891 0)"/>
      <use xlink:href="#DejaVuSans-32" transform="translate(631.640625 0)"/>
      <use xlink:href="#DejaVuSans-3a" transform="translate(695.263672 0)"/>
      <use xlink:href="#DejaVuSans-4d" transform="translate(728.955078 0)"/>
      <use xlink:href="#DejaVuSans-69" transform="translate(815.234375 0)"/>
      <use xlink:href="#DejaVuSans-6c" transform="translate(843.017578 0)"/>
      <use xlink:href="#DejaVuSans-6c" transform="translate(870.800781 0)"/>
      <use xlink:href="#DejaVuSans-65" transform="translate(898.583984 0)"/>
      <use xlink:href="#DejaVuSans-72" transform="translate(960.107422 0)"/>
     </g>
    </g>
   </g>
  </g>
 </g>
 <defs>
  <clipPath id="pe432f463c0">
   <rect x="44.555938" y="23.837812" width="803.68" height="431.56"/>
  </clipPath>
 </defs>
</svg>
