<?xml version="1.0" encoding="utf-8" standalone="no"?>
<!DOCTYPE svg PUBLIC "-//W3C//DTD SVG 1.1//EN"
  "http://www.w3.org/Graphics/SVG/1.1/DTD/svg11.dtd">
<svg xmlns:xlink="http://www.w3.org/1999/xlink" width="855.965625pt" height="494.836pt" viewBox="0 0 855.965625 494.836" xmlns="http://www.w3.org/2000/svg" version="1.1">
 <metadata>
  <rdf:RDF xmlns:dc="http://purl.org/dc/elements/1.1/" xmlns:cc="http://creativecommons.org/ns#" xmlns:rdf="http://www.w3.org/1999/02/22-rdf-syntax-ns#">
   <cc:Work>
    <dc:type rdf:resource="http://purl.org/dc/dcmitype/StillImage"/>
    <dc:date>2026-04-01T03:20:37.828133</dc:date>
    <dc:format>image/svg+xml</dc:format>
    <dc:creator>
     <cc:Agent>
      <dc:title>Matplotlib v3.10.8, https://matplotlib.org/</dc:title>
     </cc:Agent>
    </dc:creator>
   </cc:Work>
  </rdf:RDF>
 </metadata>
 <defs>
  <style type="text/css">*{stroke-linejoin: round; stroke-linecap: butt}</style>
 </defs>
 <g id="figure_1">
  <g id="patch_1">
   <path d="M 0 494.836 
L 855.965625 494.836 
L 855.965625 0 
L 0 0 
z
" style="fill: #ffffff"/>
  </g>
  <g id="axes_1">
   <g id="patch_2">
    <path d="M 52.465625 455.344125 
L 848.765625 455.344125 
L 848.765625 39.624125 
L 52.465625 39.624125 
z
" style="fill: #ffffff"/>
   </g>
   <g id="FillBetweenPolyCollection_1">
    <defs>
     <path id="m148bb87732" d="M 88.66108 -352.751268 
L 88.66108 -255.583752 
L 192.076664 -201.775979 
L 295.492248 -209.287104 
L 502.323417 -227.839479 
L 812.57017 -221.332197 
L 812.57017 -294.011486 
L 812.57017 -294.011486 
L 502.323417 -301.890836 
L 295.492248 -286.308136 
L 192.076664 -282.615794 
L 88.66108 -352.751268 
z
" style="stroke: #e7298a; stroke-opacity: 0.1"/>
    </defs>
    <g clip-path="url(#pc952f4a4c9)">
     <use xlink:href="#m148bb87732" x="0" y="494.836" style="fill: #e7298a; fill-opacity: 0.1; stroke: #e7298a; stroke-opacity: 0.1"/>
    </g>
   </g>
   <g id="FillBetweenPolyCollection_2">
    <defs>
     <path id="mba02199242" d="M 88.66108 -283.805751 
L 88.66108 -206.395356 
L 192.076664 -182.628046 
L 295.492248 -229.076447 
L 502.323417 -198.625729 
L 812.57017 -190.973533 
L 812.57017 -261.495924 
L 812.57017 -261.495924 
L 502.323417 -269.807112 
L 295.492248 -301.156925 
L 192.076664 -256.094673 
L 88.66108 -283.805751 
z
" style="stroke: #2166ac; stroke-opacity: 0.1"/>
    </defs>
    <g clip-path="url(#pc952f4a4c9)">
     <use xlink:href="#mba02199242" x="0" y="494.836" style="fill: #2166ac; fill-opacity: 0.1; stroke: #2166ac; stroke-opacity: 0.1"/>
    </g>
   </g>
   <g id="FillBetweenPolyCollection_3">
    <path d="M 88.66108 269.15375 
L 88.66108 342.562452 
L 192.076664 434.771508 
L 295.492248 553.911749 
L 502.323417 778.766769 
L 812.57017 942.408457 
L 812.57017 878.037508 
L 812.57017 878.037508 
L 502.323417 711.331417 
L 295.492248 483.699528 
L 192.076664 363.436685 
L 88.66108 269.15375 
z
" clip-path="url(#pc952f4a4c9)" style="fill: #4dac26; fill-opacity: 0.1; stroke: #4dac26; stroke-opacity: 0.1"/>
   </g>
   <g id="FillBetweenPolyCollection_4">
    <path d="M 88.66108 140.182051 
L 88.66108 213.434291 
L 192.076664 101.047758 
L 295.492248 -47.706389 
L 502.323417 -220.038624 
L 812.57017 -386.631023 
L 812.57017 -450.89265 
L 812.57017 -450.89265 
L 502.323417 -287.232127 
L 295.492248 -117.126807 
L 192.076664 29.921417 
L 88.66108 140.182051 
z
" clip-path="url(#pc952f4a4c9)" style="fill: #d6604d; fill-opacity: 0.1; stroke: #d6604d; stroke-opacity: 0.1"/>
   </g>
   <g id="matplotlib.axis_1">
    <g id="xtick_1">
     <g id="line2d_1">
      <path d="M 140.368872 455.344125 
L 140.368872 39.624125 
" clip-path="url(#pc952f4a4c9)" style="fill: none; stroke: #b0b0b0; stroke-opacity: 0.2; stroke-width: 0.8; stroke-linecap: square"/>
     </g>
     <g id="line2d_2">
      <defs>
       <path id="mb5609a2090" d="M 0 0 
L 0 3.5 
" style="stroke: #000000; stroke-width: 0.8"/>
      </defs>
      <g>
       <use xlink:href="#mb5609a2090" x="140.368872" y="455.344125" style="stroke: #000000; stroke-width: 0.8"/>
      </g>
     </g>
     <g id="text_1">
      <!-- 10 -->
      <g transform="translate(134.006372 469.942562) scale(0.1 -0.1)">
       <defs>
        <path id="DejaVuSans-31" d="M 794 531 
L 1825 531 
L 1825 4091 
L 703 3866 
L 703 4441 
L 1819 4666 
L 2450 4666 
L 2450 531 
L 3481 531 
L 3481 0 
L 794 0 
L 794 531 
z
" transform="scale(0.015625)"/>
        <path id="DejaVuSans-30" d="M 2034 4250 
Q 1547 4250 1301 3770 
Q 1056 3291 1056 2328 
Q 1056 1369 1301 889 
Q 1547 409 2034 409 
Q 2525 409 2770 889 
Q 3016 1369 3016 2328 
Q 3016 3291 2770 3770 
Q 2525 4250 2034 4250 
z
M 2034 4750 
Q 2819 4750 3233 4129 
Q 3647 3509 3647 2328 
Q 3647 1150 3233 529 
Q 2819 -91 2034 -91 
Q 1250 -91 836 529 
Q 422 1150 422 2328 
Q 422 3509 836 4129 
Q 1250 4750 2034 4750 
z
" transform="scale(0.015625)"/>
       </defs>
       <use xlink:href="#DejaVuSans-31"/>
       <use xlink:href="#DejaVuSans-30" transform="translate(63.623047 0)"/>
      </g>
     </g>
    </g>
    <g id="xtick_2">
     <g id="line2d_3">
      <path d="M 269.638352 455.344125 
L 269.638352 39.624125 
" clip-path="url(#pc952f4a4c9)" style="fill: none; stroke: #b0b0b0; stroke-opacity: 0.2; stroke-width: 0.8; stroke-linecap: square"/>
     </g>
     <g id="line2d_4">
      <g>
       <use xlink:href="#mb5609a2090" x="269.638352" y="455.344125" style="stroke: #000000; stroke-width: 0.8"/>
      </g>
     </g>
     <g id="text_2">
      <!-- 15 -->
      <g transform="translate(263.275852 469.942562) scale(0.1 -0.1)">
       <defs>
        <path id="DejaVuSans-35" d="M 691 4666 
L 3169 4666 
L 3169 4134 
L 1269 4134 
L 1269 2991 
Q 1406 3038 1543 3061 
Q 1681 3084 1819 3084 
Q 2600 3084 3056 2656 
Q 3513 2228 3513 1497 
Q 3513 744 3044 326 
Q 2575 -91 1722 -91 
Q 1428 -91 1123 -41 
Q 819 9 494 109 
L 494 744 
Q 775 591 1075 516 
Q 1375 441 1709 441 
Q 2250 441 2565 725 
Q 2881 1009 2881 1497 
Q 2881 1984 2565 2268 
Q 2250 2553 1709 2553 
Q 1456 2553 1204 2497 
Q 953 2441 691 2322 
L 691 4666 
z
" transform="scale(0.015625)"/>
       </defs>
       <use xlink:href="#DejaVuSans-31"/>
       <use xlink:href="#DejaVuSans-35" transform="translate(63.623047 0)"/>
      </g>
     </g>
    </g>
    <g id="xtick_3">
     <g id="line2d_5">
      <path d="M 398.907833 455.344125 
L 398.907833 39.624125 
" clip-path="url(#pc952f4a4c9)" style="fill: none; stroke: #b0b0b0; stroke-opacity: 0.2; stroke-width: 0.8; stroke-linecap: square"/>
     </g>
     <g id="line2d_6">
      <g>
       <use xlink:href="#mb5609a2090" x="398.907833" y="455.344125" style="stroke: #000000; stroke-width: 0.8"/>
      </g>
     </g>
     <g id="text_3">
      <!-- 20 -->
      <g transform="translate(392.545333 469.942562) scale(0.1 -0.1)">
       <defs>
        <path id="DejaVuSans-32" d="M 1228 531 
L 3431 531 
L 3431 0 
L 469 0 
L 469 531 
Q 828 903 1448 1529 
Q 2069 2156 2228 2338 
Q 2531 2678 2651 2914 
Q 2772 3150 2772 3378 
Q 2772 3750 2511 3984 
Q 2250 4219 1831 4219 
Q 1534 4219 1204 4116 
Q 875 4013 500 3803 
L 500 4441 
Q 881 4594 1212 4672 
Q 1544 4750 1819 4750 
Q 2544 4750 2975 4387 
Q 3406 4025 3406 3419 
Q 3406 3131 3298 2873 
Q 3191 2616 2906 2266 
Q 2828 2175 2409 1742 
Q 1991 1309 1228 531 
z
" transform="scale(0.015625)"/>
       </defs>
       <use xlink:href="#DejaVuSans-32"/>
       <use xlink:href="#DejaVuSans-30" transform="translate(63.623047 0)"/>
      </g>
     </g>
    </g>
    <g id="xtick_4">
     <g id="line2d_7">
      <path d="M 528.177313 455.344125 
L 528.177313 39.624125 
" clip-path="url(#pc952f4a4c9)" style="fill: none; stroke: #b0b0b0; stroke-opacity: 0.2; stroke-width: 0.8; stroke-linecap: square"/>
     </g>
     <g id="line2d_8">
      <g>
       <use xlink:href="#mb5609a2090" x="528.177313" y="455.344125" style="stroke: #000000; stroke-width: 0.8"/>
      </g>
     </g>
     <g id="text_4">
      <!-- 25 -->
      <g transform="translate(521.814813 469.942562) scale(0.1 -0.1)">
       <use xlink:href="#DejaVuSans-32"/>
       <use xlink:href="#DejaVuSans-35" transform="translate(63.623047 0)"/>
      </g>
     </g>
    </g>
    <g id="xtick_5">
     <g id="line2d_9">
      <path d="M 657.446794 455.344125 
L 657.446794 39.624125 
" clip-path="url(#pc952f4a4c9)" style="fill: none; stroke: #b0b0b0; stroke-opacity: 0.2; stroke-width: 0.8; stroke-linecap: square"/>
     </g>
     <g id="line2d_10">
      <g>
       <use xlink:href="#mb5609a2090" x="657.446794" y="455.344125" style="stroke: #000000; stroke-width: 0.8"/>
      </g>
     </g>
     <g id="text_5">
      <!-- 30 -->
      <g transform="translate(651.084294 469.942562) scale(0.1 -0.1)">
       <defs>
        <path id="DejaVuSans-33" d="M 2597 2516 
Q 3050 2419 3304 2112 
Q 3559 1806 3559 1356 
Q 3559 666 3084 287 
Q 2609 -91 1734 -91 
Q 1441 -91 1130 -33 
Q 819 25 488 141 
L 488 750 
Q 750 597 1062 519 
Q 1375 441 1716 441 
Q 2309 441 2620 675 
Q 2931 909 2931 1356 
Q 2931 1769 2642 2001 
Q 2353 2234 1838 2234 
L 1294 2234 
L 1294 2753 
L 1863 2753 
Q 2328 2753 2575 2939 
Q 2822 3125 2822 3475 
Q 2822 3834 2567 4026 
Q 2313 4219 1838 4219 
Q 1578 4219 1281 4162 
Q 984 4106 628 3988 
L 628 4550 
Q 988 4650 1302 4700 
Q 1616 4750 1894 4750 
Q 2613 4750 3031 4423 
Q 3450 4097 3450 3541 
Q 3450 3153 3228 2886 
Q 3006 2619 2597 2516 
z
" transform="scale(0.015625)"/>
       </defs>
       <use xlink:href="#DejaVuSans-33"/>
       <use xlink:href="#DejaVuSans-30" transform="translate(63.623047 0)"/>
      </g>
     </g>
    </g>
    <g id="xtick_6">
     <g id="line2d_11">
      <path d="M 786.716274 455.344125 
L 786.716274 39.624125 
" clip-path="url(#pc952f4a4c9)" style="fill: none; stroke: #b0b0b0; stroke-opacity: 0.2; stroke-width: 0.8; stroke-linecap: square"/>
     </g>
     <g id="line2d_12">
      <g>
       <use xlink:href="#mb5609a2090" x="786.716274" y="455.344125" style="stroke: #000000; stroke-width: 0.8"/>
      </g>
     </g>
     <g id="text_6">
      <!-- 35 -->
      <g transform="translate(780.353774 469.942562) scale(0.1 -0.1)">
       <use xlink:href="#DejaVuSans-33"/>
       <use xlink:href="#DejaVuSans-35" transform="translate(63.623047 0)"/>
      </g>
     </g>
    </g>
    <g id="text_7">
     <!-- Board size n (pairs) -->
     <g transform="translate(392.396875 485.140375) scale(0.12 -0.12)">
      <defs>
       <path id="DejaVuSans-42" d="M 1259 2228 
L 1259 519 
L 2272 519 
Q 2781 519 3026 730 
Q 3272 941 3272 1375 
Q 3272 1813 3026 2020 
Q 2781 2228 2272 2228 
L 1259 2228 
z
M 1259 4147 
L 1259 2741 
L 2194 2741 
Q 2656 2741 2882 2914 
Q 3109 3088 3109 3444 
Q 3109 3797 2882 3972 
Q 2656 4147 2194 4147 
L 1259 4147 
z
M 628 4666 
L 2241 4666 
Q 2963 4666 3353 4366 
Q 3744 4066 3744 3513 
Q 3744 3084 3544 2831 
Q 3344 2578 2956 2516 
Q 3422 2416 3680 2098 
Q 3938 1781 3938 1306 
Q 3938 681 3513 340 
Q 3088 0 2303 0 
L 628 0 
L 628 4666 
z
" transform="scale(0.015625)"/>
       <path id="DejaVuSans-6f" d="M 1959 3097 
Q 1497 3097 1228 2736 
Q 959 2375 959 1747 
Q 959 1119 1226 758 
Q 1494 397 1959 397 
Q 2419 397 2687 759 
Q 2956 1122 2956 1747 
Q 2956 2369 2687 2733 
Q 2419 3097 1959 3097 
z
M 1959 3584 
Q 2709 3584 3137 3096 
Q 3566 2609 3566 1747 
Q 3566 888 3137 398 
Q 2709 -91 1959 -91 
Q 1206 -91 779 398 
Q 353 888 353 1747 
Q 353 2609 779 3096 
Q 1206 3584 1959 3584 
z
" transform="scale(0.015625)"/>
       <path id="DejaVuSans-61" d="M 2194 1759 
Q 1497 1759 1228 1600 
Q 959 1441 959 1056 
Q 959 750 1161 570 
Q 1363 391 1709 391 
Q 2188 391 2477 730 
Q 2766 1069 2766 1631 
L 2766 1759 
L 2194 1759 
z
M 3341 1997 
L 3341 0 
L 2766 0 
L 2766 531 
Q 2569 213 2275 61 
Q 1981 -91 1556 -91 
Q 1019 -91 701 211 
Q 384 513 384 1019 
Q 384 1609 779 1909 
Q 1175 2209 1959 2209 
L 2766 2209 
L 2766 2266 
Q 2766 2663 2505 2880 
Q 2244 3097 1772 3097 
Q 1472 3097 1187 3025 
Q 903 2953 641 2809 
L 641 3341 
Q 956 3463 1253 3523 
Q 1550 3584 1831 3584 
Q 2591 3584 2966 3190 
Q 3341 2797 3341 1997 
z
" transform="scale(0.015625)"/>
       <path id="DejaVuSans-72" d="M 2631 2963 
Q 2534 3019 2420 3045 
Q 2306 3072 2169 3072 
Q 1681 3072 1420 2755 
Q 1159 2438 1159 1844 
L 1159 0 
L 581 0 
L 581 3500 
L 1159 3500 
L 1159 2956 
Q 1341 3275 1631 3429 
Q 1922 3584 2338 3584 
Q 2397 3584 2469 3576 
Q 2541 3569 2628 3553 
L 2631 2963 
z
" transform="scale(0.015625)"/>
       <path id="DejaVuSans-64" d="M 2906 2969 
L 2906 4863 
L 3481 4863 
L 3481 0 
L 2906 0 
L 2906 525 
Q 2725 213 2448 61 
Q 2172 -91 1784 -91 
Q 1150 -91 751 415 
Q 353 922 353 1747 
Q 353 2572 751 3078 
Q 1150 3584 1784 3584 
Q 2172 3584 2448 3432 
Q 2725 3281 2906 2969 
z
M 947 1747 
Q 947 1113 1208 752 
Q 1469 391 1925 391 
Q 2381 391 2643 752 
Q 2906 1113 2906 1747 
Q 2906 2381 2643 2742 
Q 2381 3103 1925 3103 
Q 1469 3103 1208 2742 
Q 947 2381 947 1747 
z
" transform="scale(0.015625)"/>
       <path id="DejaVuSans-20" transform="scale(0.015625)"/>
       <path id="DejaVuSans-73" d="M 2834 3397 
L 2834 2853 
Q 2591 2978 2328 3040 
Q 2066 3103 1784 3103 
Q 1356 3103 1142 2972 
Q 928 2841 928 2578 
Q 928 2378 1081 2264 
Q 1234 2150 1697 2047 
L 1894 2003 
Q 2506 1872 2764 1633 
Q 3022 1394 3022 966 
Q 3022 478 2636 193 
Q 2250 -91 1575 -91 
Q 1294 -91 989 -36 
Q 684 19 347 128 
L 347 722 
Q 666 556 975 473 
Q 1284 391 1588 391 
Q 1994 391 2212 530 
Q 2431 669 2431 922 
Q 2431 1156 2273 1281 
Q 2116 1406 1581 1522 
L 1381 1569 
Q 847 1681 609 1914 
Q 372 2147 372 2553 
Q 372 3047 722 3315 
Q 1072 3584 1716 3584 
Q 2034 3584 2315 3537 
Q 2597 3491 2834 3397 
z
" transform="scale(0.015625)"/>
       <path id="DejaVuSans-69" d="M 603 3500 
L 1178 3500 
L 1178 0 
L 603 0 
L 603 3500 
z
M 603 4863 
L 1178 4863 
L 1178 4134 
L 603 4134 
L 603 4863 
z
" transform="scale(0.015625)"/>
       <path id="DejaVuSans-7a" d="M 353 3500 
L 3084 3500 
L 3084 2975 
L 922 459 
L 3084 459 
L 3084 0 
L 275 0 
L 275 525 
L 2438 3041 
L 353 3041 
L 353 3500 
z
" transform="scale(0.015625)"/>
       <path id="DejaVuSans-65" d="M 3597 1894 
L 3597 1613 
L 953 1613 
Q 991 1019 1311 708 
Q 1631 397 2203 397 
Q 2534 397 2845 478 
Q 3156 559 3463 722 
L 3463 178 
Q 3153 47 2828 -22 
Q 2503 -91 2169 -91 
Q 1331 -91 842 396 
Q 353 884 353 1716 
Q 353 2575 817 3079 
Q 1281 3584 2069 3584 
Q 2775 3584 3186 3129 
Q 3597 2675 3597 1894 
z
M 3022 2063 
Q 3016 2534 2758 2815 
Q 2500 3097 2075 3097 
Q 1594 3097 1305 2825 
Q 1016 2553 972 2059 
L 3022 2063 
z
" transform="scale(0.015625)"/>
       <path id="DejaVuSans-6e" d="M 3513 2113 
L 3513 0 
L 2938 0 
L 2938 2094 
Q 2938 2591 2744 2837 
Q 2550 3084 2163 3084 
Q 1697 3084 1428 2787 
Q 1159 2491 1159 1978 
L 1159 0 
L 581 0 
L 581 3500 
L 1159 3500 
L 1159 2956 
Q 1366 3272 1645 3428 
Q 1925 3584 2291 3584 
Q 2894 3584 3203 3211 
Q 3513 2838 3513 2113 
z
" transform="scale(0.015625)"/>
       <path id="DejaVuSans-28" d="M 1984 4856 
Q 1566 4138 1362 3434 
Q 1159 2731 1159 2009 
Q 1159 1288 1364 580 
Q 1569 -128 1984 -844 
L 1484 -844 
Q 1016 -109 783 600 
Q 550 1309 550 2009 
Q 550 2706 781 3412 
Q 1013 4119 1484 4856 
L 1984 4856 
z
" transform="scale(0.015625)"/>
       <path id="DejaVuSans-70" d="M 1159 525 
L 1159 -1331 
L 581 -1331 
L 581 3500 
L 1159 3500 
L 1159 2969 
Q 1341 3281 1617 3432 
Q 1894 3584 2278 3584 
Q 2916 3584 3314 3078 
Q 3713 2572 3713 1747 
Q 3713 922 3314 415 
Q 2916 -91 2278 -91 
Q 1894 -91 1617 61 
Q 1341 213 1159 525 
z
M 3116 1747 
Q 3116 2381 2855 2742 
Q 2594 3103 2138 3103 
Q 1681 3103 1420 2742 
Q 1159 2381 1159 1747 
Q 1159 1113 1420 752 
Q 1681 391 2138 391 
Q 2594 391 2855 752 
Q 3116 1113 3116 1747 
z
" transform="scale(0.015625)"/>
       <path id="DejaVuSans-29" d="M 513 4856 
L 1013 4856 
Q 1481 4119 1714 3412 
Q 1947 2706 1947 2009 
Q 1947 1309 1714 600 
Q 1481 -109 1013 -844 
L 513 -844 
Q 928 -128 1133 580 
Q 1338 1288 1338 2009 
Q 1338 2731 1133 3434 
Q 928 4138 513 4856 
z
" transform="scale(0.015625)"/>
      </defs>
      <use xlink:href="#DejaVuSans-42"/>
      <use xlink:href="#DejaVuSans-6f" transform="translate(68.603516 0)"/>
      <use xlink:href="#DejaVuSans-61" transform="translate(129.785156 0)"/>
      <use xlink:href="#DejaVuSans-72" transform="translate(191.064453 0)"/>
      <use xlink:href="#DejaVuSans-64" transform="translate(230.427734 0)"/>
      <use xlink:href="#DejaVuSans-20" transform="translate(293.904297 0)"/>
      <use xlink:href="#DejaVuSans-73" transform="translate(325.691406 0)"/>
      <use xlink:href="#DejaVuSans-69" transform="translate(377.791016 0)"/>
      <use xlink:href="#DejaVuSans-7a" transform="translate(405.574219 0)"/>
      <use xlink:href="#DejaVuSans-65" transform="translate(458.064453 0)"/>
      <use xlink:href="#DejaVuSans-20" transform="translate(519.587891 0)"/>
      <use xlink:href="#DejaVuSans-6e" transform="translate(551.375 0)"/>
      <use xlink:href="#DejaVuSans-20" transform="translate(614.753906 0)"/>
      <use xlink:href="#DejaVuSans-28" transform="translate(646.541016 0)"/>
      <use xlink:href="#DejaVuSans-70" transform="translate(685.554688 0)"/>
      <use xlink:href="#DejaVuSans-61" transform="translate(749.03125 0)"/>
      <use xlink:href="#DejaVuSans-69" transform="translate(810.310547 0)"/>
      <use xlink:href="#DejaVuSans-72" transform="translate(838.09375 0)"/>
      <use xlink:href="#DejaVuSans-73" transform="translate(879.207031 0)"/>
      <use xlink:href="#DejaVuSans-29" transform="translate(931.306641 0)"/>
     </g>
    </g>
   </g>
   <g id="matplotlib.axis_2">
    <g id="ytick_1">
     <g id="line2d_13">
      <path d="M 52.465625 455.344125 
L 848.765625 455.344125 
" clip-path="url(#pc952f4a4c9)" style="fill: none; stroke: #b0b0b0; stroke-opacity: 0.2; stroke-width: 0.8; stroke-linecap: square"/>
     </g>
     <g id="line2d_14">
      <defs>
       <path id="ma1c3e4faef" d="M 0 0 
L -3.5 0 
" style="stroke: #000000; stroke-width: 0.8"/>
      </defs>
      <g>
       <use xlink:href="#ma1c3e4faef" x="52.465625" y="455.344125" style="stroke: #000000; stroke-width: 0.8"/>
      </g>
     </g>
     <g id="text_8">
      <!-- 0.44 -->
      <g transform="translate(23.2 459.143344) scale(0.1 -0.1)">
       <defs>
        <path id="DejaVuSans-2e" d="M 684 794 
L 1344 794 
L 1344 0 
L 684 0 
L 684 794 
z
" transform="scale(0.015625)"/>
        <path id="DejaVuSans-34" d="M 2419 4116 
L 825 1625 
L 2419 1625 
L 2419 4116 
z
M 2253 4666 
L 3047 4666 
L 3047 1625 
L 3713 1625 
L 3713 1100 
L 3047 1100 
L 3047 0 
L 2419 0 
L 2419 1100 
L 313 1100 
L 313 1709 
L 2253 4666 
z
" transform="scale(0.015625)"/>
       </defs>
       <use xlink:href="#DejaVuSans-30"/>
       <use xlink:href="#DejaVuSans-2e" transform="translate(63.623047 0)"/>
       <use xlink:href="#DejaVuSans-34" transform="translate(95.410156 0)"/>
       <use xlink:href="#DejaVuSans-34" transform="translate(159.033203 0)"/>
      </g>
     </g>
    </g>
    <g id="ytick_2">
     <g id="line2d_15">
      <path d="M 52.465625 386.057458 
L 848.765625 386.057458 
" clip-path="url(#pc952f4a4c9)" style="fill: none; stroke: #b0b0b0; stroke-opacity: 0.2; stroke-width: 0.8; stroke-linecap: square"/>
     </g>
     <g id="line2d_16">
      <g>
       <use xlink:href="#ma1c3e4faef" x="52.465625" y="386.057458" style="stroke: #000000; stroke-width: 0.8"/>
      </g>
     </g>
     <g id="text_9">
      <!-- 0.46 -->
      <g transform="translate(23.2 389.856677) scale(0.1 -0.1)">
       <defs>
        <path id="DejaVuSans-36" d="M 2113 2584 
Q 1688 2584 1439 2293 
Q 1191 2003 1191 1497 
Q 1191 994 1439 701 
Q 1688 409 2113 409 
Q 2538 409 2786 701 
Q 3034 994 3034 1497 
Q 3034 2003 2786 2293 
Q 2538 2584 2113 2584 
z
M 3366 4563 
L 3366 3988 
Q 3128 4100 2886 4159 
Q 2644 4219 2406 4219 
Q 1781 4219 1451 3797 
Q 1122 3375 1075 2522 
Q 1259 2794 1537 2939 
Q 1816 3084 2150 3084 
Q 2853 3084 3261 2657 
Q 3669 2231 3669 1497 
Q 3669 778 3244 343 
Q 2819 -91 2113 -91 
Q 1303 -91 875 529 
Q 447 1150 447 2328 
Q 447 3434 972 4092 
Q 1497 4750 2381 4750 
Q 2619 4750 2861 4703 
Q 3103 4656 3366 4563 
z
" transform="scale(0.015625)"/>
       </defs>
       <use xlink:href="#DejaVuSans-30"/>
       <use xlink:href="#DejaVuSans-2e" transform="translate(63.623047 0)"/>
       <use xlink:href="#DejaVuSans-34" transform="translate(95.410156 0)"/>
       <use xlink:href="#DejaVuSans-36" transform="translate(159.033203 0)"/>
      </g>
     </g>
    </g>
    <g id="ytick_3">
     <g id="line2d_17">
      <path d="M 52.465625 316.770792 
L 848.765625 316.770792 
" clip-path="url(#pc952f4a4c9)" style="fill: none; stroke: #b0b0b0; stroke-opacity: 0.2; stroke-width: 0.8; stroke-linecap: square"/>
     </g>
     <g id="line2d_18">
      <g>
       <use xlink:href="#ma1c3e4faef" x="52.465625" y="316.770792" style="stroke: #000000; stroke-width: 0.8"/>
      </g>
     </g>
     <g id="text_10">
      <!-- 0.48 -->
      <g transform="translate(23.2 320.57001) scale(0.1 -0.1)">
       <defs>
        <path id="DejaVuSans-38" d="M 2034 2216 
Q 1584 2216 1326 1975 
Q 1069 1734 1069 1313 
Q 1069 891 1326 650 
Q 1584 409 2034 409 
Q 2484 409 2743 651 
Q 3003 894 3003 1313 
Q 3003 1734 2745 1975 
Q 2488 2216 2034 2216 
z
M 1403 2484 
Q 997 2584 770 2862 
Q 544 3141 544 3541 
Q 544 4100 942 4425 
Q 1341 4750 2034 4750 
Q 2731 4750 3128 4425 
Q 3525 4100 3525 3541 
Q 3525 3141 3298 2862 
Q 3072 2584 2669 2484 
Q 3125 2378 3379 2068 
Q 3634 1759 3634 1313 
Q 3634 634 3220 271 
Q 2806 -91 2034 -91 
Q 1263 -91 848 271 
Q 434 634 434 1313 
Q 434 1759 690 2068 
Q 947 2378 1403 2484 
z
M 1172 3481 
Q 1172 3119 1398 2916 
Q 1625 2713 2034 2713 
Q 2441 2713 2670 2916 
Q 2900 3119 2900 3481 
Q 2900 3844 2670 4047 
Q 2441 4250 2034 4250 
Q 1625 4250 1398 4047 
Q 1172 3844 1172 3481 
z
" transform="scale(0.015625)"/>
       </defs>
       <use xlink:href="#DejaVuSans-30"/>
       <use xlink:href="#DejaVuSans-2e" transform="translate(63.623047 0)"/>
       <use xlink:href="#DejaVuSans-34" transform="translate(95.410156 0)"/>
       <use xlink:href="#DejaVuSans-38" transform="translate(159.033203 0)"/>
      </g>
     </g>
    </g>
    <g id="ytick_4">
     <g id="line2d_19">
      <path d="M 52.465625 247.484125 
L 848.765625 247.484125 
" clip-path="url(#pc952f4a4c9)" style="fill: none; stroke: #b0b0b0; stroke-opacity: 0.2; stroke-width: 0.8; stroke-linecap: square"/>
     </g>
     <g id="line2d_20">
      <g>
       <use xlink:href="#ma1c3e4faef" x="52.465625" y="247.484125" style="stroke: #000000; stroke-width: 0.8"/>
      </g>
     </g>
     <g id="text_11">
      <!-- 0.50 -->
      <g transform="translate(23.2 251.283344) scale(0.1 -0.1)">
       <use xlink:href="#DejaVuSans-30"/>
       <use xlink:href="#DejaVuSans-2e" transform="translate(63.623047 0)"/>
       <use xlink:href="#DejaVuSans-35" transform="translate(95.410156 0)"/>
       <use xlink:href="#DejaVuSans-30" transform="translate(159.033203 0)"/>
      </g>
     </g>
    </g>
    <g id="ytick_5">
     <g id="line2d_21">
      <path d="M 52.465625 178.197458 
L 848.765625 178.197458 
" clip-path="url(#pc952f4a4c9)" style="fill: none; stroke: #b0b0b0; stroke-opacity: 0.2; stroke-width: 0.8; stroke-linecap: square"/>
     </g>
     <g id="line2d_22">
      <g>
       <use xlink:href="#ma1c3e4faef" x="52.465625" y="178.197458" style="stroke: #000000; stroke-width: 0.8"/>
      </g>
     </g>
     <g id="text_12">
      <!-- 0.52 -->
      <g transform="translate(23.2 181.996677) scale(0.1 -0.1)">
       <use xlink:href="#DejaVuSans-30"/>
       <use xlink:href="#DejaVuSans-2e" transform="translate(63.623047 0)"/>
       <use xlink:href="#DejaVuSans-35" transform="translate(95.410156 0)"/>
       <use xlink:href="#DejaVuSans-32" transform="translate(159.033203 0)"/>
      </g>
     </g>
    </g>
    <g id="ytick_6">
     <g id="line2d_23">
      <path d="M 52.465625 108.910792 
L 848.765625 108.910792 
" clip-path="url(#pc952f4a4c9)" style="fill: none; stroke: #b0b0b0; stroke-opacity: 0.2; stroke-width: 0.8; stroke-linecap: square"/>
     </g>
     <g id="line2d_24">
      <g>
       <use xlink:href="#ma1c3e4faef" x="52.465625" y="108.910792" style="stroke: #000000; stroke-width: 0.8"/>
      </g>
     </g>
     <g id="text_13">
      <!-- 0.54 -->
      <g transform="translate(23.2 112.71001) scale(0.1 -0.1)">
       <use xlink:href="#DejaVuSans-30"/>
       <use xlink:href="#DejaVuSans-2e" transform="translate(63.623047 0)"/>
       <use xlink:href="#DejaVuSans-35" transform="translate(95.410156 0)"/>
       <use xlink:href="#DejaVuSans-34" transform="translate(159.033203 0)"/>
      </g>
     </g>
    </g>
    <g id="ytick_7">
     <g id="line2d_25">
      <path d="M 52.465625 39.624125 
L 848.765625 39.624125 
" clip-path="url(#pc952f4a4c9)" style="fill: none; stroke: #b0b0b0; stroke-opacity: 0.2; stroke-width: 0.8; stroke-linecap: square"/>
     </g>
     <g id="line2d_26">
      <g>
       <use xlink:href="#ma1c3e4faef" x="52.465625" y="39.624125" style="stroke: #000000; stroke-width: 0.8"/>
      </g>
     </g>
     <g id="text_14">
      <!-- 0.56 -->
      <g transform="translate(23.2 43.423344) scale(0.1 -0.1)">
       <use xlink:href="#DejaVuSans-30"/>
       <use xlink:href="#DejaVuSans-2e" transform="translate(63.623047 0)"/>
       <use xlink:href="#DejaVuSans-35" transform="translate(95.410156 0)"/>
       <use xlink:href="#DejaVuSans-36" transform="translate(159.033203 0)"/>
      </g>
     </g>
    </g>
    <g id="text_15">
     <!-- P(P2 wins | someone wins) -->
     <g transform="translate(16.370625 327.370375) rotate(-90) scale(0.12 -0.12)">
      <defs>
       <path id="DejaVuSans-50" d="M 1259 4147 
L 1259 2394 
L 2053 2394 
Q 2494 2394 2734 2622 
Q 2975 2850 2975 3272 
Q 2975 3691 2734 3919 
Q 2494 4147 2053 4147 
L 1259 4147 
z
M 628 4666 
L 2053 4666 
Q 2838 4666 3239 4311 
Q 3641 3956 3641 3272 
Q 3641 2581 3239 2228 
Q 2838 1875 2053 1875 
L 1259 1875 
L 1259 0 
L 628 0 
L 628 4666 
z
" transform="scale(0.015625)"/>
       <path id="DejaVuSans-77" d="M 269 3500 
L 844 3500 
L 1563 769 
L 2278 3500 
L 2956 3500 
L 3675 769 
L 4391 3500 
L 4966 3500 
L 4050 0 
L 3372 0 
L 2619 2869 
L 1863 0 
L 1184 0 
L 269 3500 
z
" transform="scale(0.015625)"/>
       <path id="DejaVuSans-7c" d="M 1344 4891 
L 1344 -1509 
L 813 -1509 
L 813 4891 
L 1344 4891 
z
" transform="scale(0.015625)"/>
       <path id="DejaVuSans-6d" d="M 3328 2828 
Q 3544 3216 3844 3400 
Q 4144 3584 4550 3584 
Q 5097 3584 5394 3201 
Q 5691 2819 5691 2113 
L 5691 0 
L 5113 0 
L 5113 2094 
Q 5113 2597 4934 2840 
Q 4756 3084 4391 3084 
Q 3944 3084 3684 2787 
Q 3425 2491 3425 1978 
L 3425 0 
L 2847 0 
L 2847 2094 
Q 2847 2600 2669 2842 
Q 2491 3084 2119 3084 
Q 1678 3084 1418 2786 
Q 1159 2488 1159 1978 
L 1159 0 
L 581 0 
L 581 3500 
L 1159 3500 
L 1159 2956 
Q 1356 3278 1631 3431 
Q 1906 3584 2284 3584 
Q 2666 3584 2933 3390 
Q 3200 3197 3328 2828 
z
" transform="scale(0.015625)"/>
      </defs>
      <use xlink:href="#DejaVuSans-50"/>
      <use xlink:href="#DejaVuSans-28" transform="translate(60.302734 0)"/>
      <use xlink:href="#DejaVuSans-50" transform="translate(99.316406 0)"/>
      <use xlink:href="#DejaVuSans-32" transform="translate(159.619141 0)"/>
      <use xlink:href="#DejaVuSans-20" transform="translate(223.242188 0)"/>
      <use xlink:href="#DejaVuSans-77" transform="translate(255.029297 0)"/>
      <use xlink:href="#DejaVuSans-69" transform="translate(336.816406 0)"/>
      <use xlink:href="#DejaVuSans-6e" transform="translate(364.599609 0)"/>
      <use xlink:href="#DejaVuSans-73" transform="translate(427.978516 0)"/>
      <use xlink:href="#DejaVuSans-20" transform="translate(480.078125 0)"/>
      <use xlink:href="#DejaVuSans-7c" transform="translate(511.865234 0)"/>
      <use xlink:href="#DejaVuSans-20" transform="translate(545.556641 0)"/>
      <use xlink:href="#DejaVuSans-73" transform="translate(577.34375 0)"/>
      <use xlink:href="#DejaVuSans-6f" transform="translate(629.443359 0)"/>
      <use xlink:href="#DejaVuSans-6d" transform="translate(690.625 0)"/>
      <use xlink:href="#DejaVuSans-65" transform="translate(788.037109 0)"/>
      <use xlink:href="#DejaVuSans-6f" transform="translate(849.560547 0)"/>
      <use xlink:href="#DejaVuSans-6e" transform="translate(910.742188 0)"/>
      <use xlink:href="#DejaVuSans-65" transform="translate(974.121094 0)"/>
      <use xlink:href="#DejaVuSans-20" transform="translate(1035.644531 0)"/>
      <use xlink:href="#DejaVuSans-77" transform="translate(1067.431641 0)"/>
      <use xlink:href="#DejaVuSans-69" transform="translate(1149.21875 0)"/>
      <use xlink:href="#DejaVuSans-6e" transform="translate(1177.001953 0)"/>
      <use xlink:href="#DejaVuSans-73" transform="translate(1240.380859 0)"/>
      <use xlink:href="#DejaVuSans-29" transform="translate(1292.480469 0)"/>
     </g>
    </g>
   </g>
   <g id="line2d_27">
    <path d="M 88.66108 190.66849 
L 192.076664 252.640114 
L 295.492248 247.03838 
L 502.323417 229.970842 
L 812.57017 237.164159 
" clip-path="url(#pc952f4a4c9)" style="fill: none; stroke: #e7298a; stroke-width: 2; stroke-linecap: square"/>
    <defs>
     <path id="m651248b0e5" d="M 0 3.5 
C 0.928211 3.5 1.81853 3.131218 2.474874 2.474874 
C 3.131218 1.81853 3.5 0.928211 3.5 0 
C 3.5 -0.928211 3.131218 -1.81853 2.474874 -2.474874 
C 1.81853 -3.131218 0.928211 -3.5 0 -3.5 
C -0.928211 -3.5 -1.81853 -3.131218 -2.474874 -2.474874 
C -3.131218 -1.81853 -3.5 -0.928211 -3.5 0 
C -3.5 0.928211 -3.131218 1.81853 -2.474874 2.474874 
C -1.81853 3.131218 -0.928211 3.5 0 3.5 
z
" style="stroke: #e7298a"/>
    </defs>
    <g clip-path="url(#pc952f4a4c9)">
     <use xlink:href="#m651248b0e5" x="88.66108" y="190.66849" style="fill: #e7298a; stroke: #e7298a"/>
     <use xlink:href="#m651248b0e5" x="192.076664" y="252.640114" style="fill: #e7298a; stroke: #e7298a"/>
     <use xlink:href="#m651248b0e5" x="295.492248" y="247.03838" style="fill: #e7298a; stroke: #e7298a"/>
     <use xlink:href="#m651248b0e5" x="502.323417" y="229.970842" style="fill: #e7298a; stroke: #e7298a"/>
     <use xlink:href="#m651248b0e5" x="812.57017" y="237.164159" style="fill: #e7298a; stroke: #e7298a"/>
    </g>
   </g>
   <g id="line2d_28">
    <path d="M 88.66108 249.735446 
L 192.076664 275.47464 
L 295.492248 229.719314 
L 502.323417 260.619579 
L 812.57017 268.601272 
" clip-path="url(#pc952f4a4c9)" style="fill: none; stroke: #2166ac; stroke-width: 2; stroke-linecap: square"/>
    <defs>
     <path id="mfa6c1a3789" d="M 0 3.5 
C 0.928211 3.5 1.81853 3.131218 2.474874 2.474874 
C 3.131218 1.81853 3.5 0.928211 3.5 0 
C 3.5 -0.928211 3.131218 -1.81853 2.474874 -2.474874 
C 1.81853 -3.131218 0.928211 -3.5 0 -3.5 
C -0.928211 -3.5 -1.81853 -3.131218 -2.474874 -2.474874 
C -3.131218 -1.81853 -3.5 -0.928211 -3.5 0 
C -3.5 0.928211 -3.131218 1.81853 -2.474874 2.474874 
C -1.81853 3.131218 -0.928211 3.5 0 3.5 
z
" style="stroke: #2166ac"/>
    </defs>
    <g clip-path="url(#pc952f4a4c9)">
     <use xlink:href="#mfa6c1a3789" x="88.66108" y="249.735446" style="fill: #2166ac; stroke: #2166ac"/>
     <use xlink:href="#mfa6c1a3789" x="192.076664" y="275.47464" style="fill: #2166ac; stroke: #2166ac"/>
     <use xlink:href="#mfa6c1a3789" x="295.492248" y="229.719314" style="fill: #2166ac; stroke: #2166ac"/>
     <use xlink:href="#mfa6c1a3789" x="502.323417" y="260.619579" style="fill: #2166ac; stroke: #2166ac"/>
     <use xlink:href="#mfa6c1a3789" x="812.57017" y="268.601272" style="fill: #2166ac; stroke: #2166ac"/>
    </g>
   </g>
   <g id="line2d_29">
    <path d="M 88.66108 305.858101 
L 192.076664 399.104097 
L 275.647737 495.836 
" clip-path="url(#pc952f4a4c9)" style="fill: none; stroke: #4dac26; stroke-width: 2; stroke-linecap: square"/>
    <defs>
     <path id="ma37697f834" d="M 0 3.5 
C 0.928211 3.5 1.81853 3.131218 2.474874 2.474874 
C 3.131218 1.81853 3.5 0.928211 3.5 0 
C 3.5 -0.928211 3.131218 -1.81853 2.474874 -2.474874 
C 1.81853 -3.131218 0.928211 -3.5 0 -3.5 
C -0.928211 -3.5 -1.81853 -3.131218 -2.474874 -2.474874 
C -3.131218 -1.81853 -3.5 -0.928211 -3.5 0 
C -3.5 0.928211 -3.131218 1.81853 -2.474874 2.474874 
C -1.81853 3.131218 -0.928211 3.5 0 3.5 
z
" style="stroke: #4dac26"/>
    </defs>
    <g clip-path="url(#pc952f4a4c9)">
     <use xlink:href="#ma37697f834" x="88.66108" y="305.858101" style="fill: #4dac26; stroke: #4dac26"/>
     <use xlink:href="#ma37697f834" x="192.076664" y="399.104097" style="fill: #4dac26; stroke: #4dac26"/>
     <use xlink:href="#ma37697f834" x="295.492248" y="518.805638" style="fill: #4dac26; stroke: #4dac26"/>
     <use xlink:href="#ma37697f834" x="502.323417" y="745.049093" style="fill: #4dac26; stroke: #4dac26"/>
     <use xlink:href="#ma37697f834" x="812.57017" y="910.222982" style="fill: #4dac26; stroke: #4dac26"/>
    </g>
   </g>
   <g id="line2d_30">
    <path d="M 88.66108 176.808171 
L 192.076664 65.484587 
L 238.56407 -1 
" clip-path="url(#pc952f4a4c9)" style="fill: none; stroke: #d6604d; stroke-width: 2; stroke-linecap: square"/>
    <defs>
     <path id="m3dbeaf01cb" d="M 0 3.5 
C 0.928211 3.5 1.81853 3.131218 2.474874 2.474874 
C 3.131218 1.81853 3.5 0.928211 3.5 0 
C 3.5 -0.928211 3.131218 -1.81853 2.474874 -2.474874 
C 1.81853 -3.131218 0.928211 -3.5 0 -3.5 
C -0.928211 -3.5 -1.81853 -3.131218 -2.474874 -2.474874 
C -3.131218 -1.81853 -3.5 -0.928211 -3.5 0 
C -3.5 0.928211 -3.131218 1.81853 -2.474874 2.474874 
C -1.81853 3.131218 -0.928211 3.5 0 3.5 
z
" style="stroke: #d6604d"/>
    </defs>
    <g clip-path="url(#pc952f4a4c9)">
     <use xlink:href="#m3dbeaf01cb" x="88.66108" y="176.808171" style="fill: #d6604d; stroke: #d6604d"/>
     <use xlink:href="#m3dbeaf01cb" x="192.076664" y="65.484587" style="fill: #d6604d; stroke: #d6604d"/>
     <use xlink:href="#m3dbeaf01cb" x="238.56407" y="-1" style="fill: #d6604d; stroke: #d6604d"/>
    </g>
   </g>
   <g id="line2d_31">
    <path d="M 52.465625 247.484125 
L 848.765625 247.484125 
" clip-path="url(#pc952f4a4c9)" style="fill: none; stroke-dasharray: 5.55,2.4; stroke-dashoffset: 0; stroke: #000000; stroke-opacity: 0.5; stroke-width: 1.5"/>
   </g>
   <g id="patch_3">
    <path d="M 52.465625 455.344125 
L 52.465625 39.624125 
" style="fill: none; stroke: #000000; stroke-width: 0.8; stroke-linejoin: miter; stroke-linecap: square"/>
   </g>
   <g id="patch_4">
    <path d="M 848.765625 455.344125 
L 848.765625 39.624125 
" style="fill: none; stroke: #000000; stroke-width: 0.8; stroke-linejoin: miter; stroke-linecap: square"/>
   </g>
   <g id="patch_5">
    <path d="M 52.465625 455.344125 
L 848.765625 455.344125 
" style="fill: none; stroke: #000000; stroke-width: 0.8; stroke-linejoin: miter; stroke-linecap: square"/>
   </g>
   <g id="patch_6">
    <path d="M 52.465625 39.624125 
L 848.765625 39.624125 
" style="fill: none; stroke: #000000; stroke-width: 0.8; stroke-linejoin: miter; stroke-linecap: square"/>
   </g>
   <g id="text_16">
    <!-- Miller-Optimal vs Zwick Strategy (M=7, 10000 games/point) -->
    <g transform="translate(213.732344 17.837812) scale(0.14 -0.14)">
     <defs>
      <path id="DejaVuSans-Bold-4d" d="M 588 4666 
L 2119 4666 
L 3181 2169 
L 4250 4666 
L 5778 4666 
L 5778 0 
L 4641 0 
L 4641 3413 
L 3566 897 
L 2803 897 
L 1728 3413 
L 1728 0 
L 588 0 
L 588 4666 
z
" transform="scale(0.015625)"/>
      <path id="DejaVuSans-Bold-69" d="M 538 3500 
L 1656 3500 
L 1656 0 
L 538 0 
L 538 3500 
z
M 538 4863 
L 1656 4863 
L 1656 3950 
L 538 3950 
L 538 4863 
z
" transform="scale(0.015625)"/>
      <path id="DejaVuSans-Bold-6c" d="M 538 4863 
L 1656 4863 
L 1656 0 
L 538 0 
L 538 4863 
z
" transform="scale(0.015625)"/>
      <path id="DejaVuSans-Bold-65" d="M 4031 1759 
L 4031 1441 
L 1416 1441 
Q 1456 1047 1700 850 
Q 1944 653 2381 653 
Q 2734 653 3104 758 
Q 3475 863 3866 1075 
L 3866 213 
Q 3469 63 3072 -14 
Q 2675 -91 2278 -91 
Q 1328 -91 801 392 
Q 275 875 275 1747 
Q 275 2603 792 3093 
Q 1309 3584 2216 3584 
Q 3041 3584 3536 3087 
Q 4031 2591 4031 1759 
z
M 2881 2131 
Q 2881 2450 2695 2645 
Q 2509 2841 2209 2841 
Q 1884 2841 1681 2658 
Q 1478 2475 1428 2131 
L 2881 2131 
z
" transform="scale(0.015625)"/>
      <path id="DejaVuSans-Bold-72" d="M 3138 2547 
Q 2991 2616 2845 2648 
Q 2700 2681 2553 2681 
Q 2122 2681 1889 2404 
Q 1656 2128 1656 1613 
L 1656 0 
L 538 0 
L 538 3500 
L 1656 3500 
L 1656 2925 
Q 1872 3269 2151 3426 
Q 2431 3584 2822 3584 
Q 2878 3584 2943 3579 
Q 3009 3575 3134 3559 
L 3138 2547 
z
" transform="scale(0.015625)"/>
      <path id="DejaVuSans-Bold-2d" d="M 347 2297 
L 2309 2297 
L 2309 1388 
L 347 1388 
L 347 2297 
z
" transform="scale(0.015625)"/>
      <path id="DejaVuSans-Bold-4f" d="M 2719 3878 
Q 2169 3878 1866 3472 
Q 1563 3066 1563 2328 
Q 1563 1594 1866 1187 
Q 2169 781 2719 781 
Q 3272 781 3575 1187 
Q 3878 1594 3878 2328 
Q 3878 3066 3575 3472 
Q 3272 3878 2719 3878 
z
M 2719 4750 
Q 3844 4750 4481 4106 
Q 5119 3463 5119 2328 
Q 5119 1197 4481 553 
Q 3844 -91 2719 -91 
Q 1597 -91 958 553 
Q 319 1197 319 2328 
Q 319 3463 958 4106 
Q 1597 4750 2719 4750 
z
" transform="scale(0.015625)"/>
      <path id="DejaVuSans-Bold-70" d="M 1656 506 
L 1656 -1331 
L 538 -1331 
L 538 3500 
L 1656 3500 
L 1656 2988 
Q 1888 3294 2169 3439 
Q 2450 3584 2816 3584 
Q 3463 3584 3878 3070 
Q 4294 2556 4294 1747 
Q 4294 938 3878 423 
Q 3463 -91 2816 -91 
Q 2450 -91 2169 54 
Q 1888 200 1656 506 
z
M 2400 2772 
Q 2041 2772 1848 2508 
Q 1656 2244 1656 1747 
Q 1656 1250 1848 986 
Q 2041 722 2400 722 
Q 2759 722 2948 984 
Q 3138 1247 3138 1747 
Q 3138 2247 2948 2509 
Q 2759 2772 2400 2772 
z
" transform="scale(0.015625)"/>
      <path id="DejaVuSans-Bold-74" d="M 1759 4494 
L 1759 3500 
L 2913 3500 
L 2913 2700 
L 1759 2700 
L 1759 1216 
Q 1759 972 1856 886 
Q 1953 800 2241 800 
L 2816 800 
L 2816 0 
L 1856 0 
Q 1194 0 917 276 
Q 641 553 641 1216 
L 641 2700 
L 84 2700 
L 84 3500 
L 641 3500 
L 641 4494 
L 1759 4494 
z
" transform="scale(0.015625)"/>
      <path id="DejaVuSans-Bold-6d" d="M 3781 2919 
Q 3994 3244 4286 3414 
Q 4578 3584 4928 3584 
Q 5531 3584 5847 3212 
Q 6163 2841 6163 2131 
L 6163 0 
L 5038 0 
L 5038 1825 
Q 5041 1866 5042 1909 
Q 5044 1953 5044 2034 
Q 5044 2406 4934 2573 
Q 4825 2741 4581 2741 
Q 4263 2741 4089 2478 
Q 3916 2216 3909 1719 
L 3909 0 
L 2784 0 
L 2784 1825 
Q 2784 2406 2684 2573 
Q 2584 2741 2328 2741 
Q 2006 2741 1831 2477 
Q 1656 2213 1656 1722 
L 1656 0 
L 531 0 
L 531 3500 
L 1656 3500 
L 1656 2988 
Q 1863 3284 2130 3434 
Q 2397 3584 2719 3584 
Q 3081 3584 3359 3409 
Q 3638 3234 3781 2919 
z
" transform="scale(0.015625)"/>
      <path id="DejaVuSans-Bold-61" d="M 2106 1575 
Q 1756 1575 1579 1456 
Q 1403 1338 1403 1106 
Q 1403 894 1545 773 
Q 1688 653 1941 653 
Q 2256 653 2472 879 
Q 2688 1106 2688 1447 
L 2688 1575 
L 2106 1575 
z
M 3816 1997 
L 3816 0 
L 2688 0 
L 2688 519 
Q 2463 200 2181 54 
Q 1900 -91 1497 -91 
Q 953 -91 614 226 
Q 275 544 275 1050 
Q 275 1666 698 1953 
Q 1122 2241 2028 2241 
L 2688 2241 
L 2688 2328 
Q 2688 2594 2478 2717 
Q 2269 2841 1825 2841 
Q 1466 2841 1156 2769 
Q 847 2697 581 2553 
L 581 3406 
Q 941 3494 1303 3539 
Q 1666 3584 2028 3584 
Q 2975 3584 3395 3211 
Q 3816 2838 3816 1997 
z
" transform="scale(0.015625)"/>
      <path id="DejaVuSans-Bold-20" transform="scale(0.015625)"/>
      <path id="DejaVuSans-Bold-76" d="M 97 3500 
L 1216 3500 
L 2088 1081 
L 2956 3500 
L 4078 3500 
L 2700 0 
L 1472 0 
L 97 3500 
z
" transform="scale(0.015625)"/>
      <path id="DejaVuSans-Bold-73" d="M 3272 3391 
L 3272 2541 
Q 2913 2691 2578 2766 
Q 2244 2841 1947 2841 
Q 1628 2841 1473 2761 
Q 1319 2681 1319 2516 
Q 1319 2381 1436 2309 
Q 1553 2238 1856 2203 
L 2053 2175 
Q 2913 2066 3209 1816 
Q 3506 1566 3506 1031 
Q 3506 472 3093 190 
Q 2681 -91 1863 -91 
Q 1516 -91 1145 -36 
Q 775 19 384 128 
L 384 978 
Q 719 816 1070 734 
Q 1422 653 1784 653 
Q 2113 653 2278 743 
Q 2444 834 2444 1013 
Q 2444 1163 2330 1236 
Q 2216 1309 1875 1350 
L 1678 1375 
Q 931 1469 631 1722 
Q 331 1975 331 2491 
Q 331 3047 712 3315 
Q 1094 3584 1881 3584 
Q 2191 3584 2531 3537 
Q 2872 3491 3272 3391 
z
" transform="scale(0.015625)"/>
      <path id="DejaVuSans-Bold-5a" d="M 359 4666 
L 4281 4666 
L 4281 3938 
L 1778 909 
L 4353 909 
L 4353 0 
L 288 0 
L 288 728 
L 2791 3756 
L 359 3756 
L 359 4666 
z
" transform="scale(0.015625)"/>
      <path id="DejaVuSans-Bold-77" d="M 225 3500 
L 1313 3500 
L 1900 1088 
L 2491 3500 
L 3425 3500 
L 4013 1113 
L 4603 3500 
L 5691 3500 
L 4769 0 
L 3547 0 
L 2956 2406 
L 2369 0 
L 1147 0 
L 225 3500 
z
" transform="scale(0.015625)"/>
      <path id="DejaVuSans-Bold-63" d="M 3366 3391 
L 3366 2478 
Q 3138 2634 2908 2709 
Q 2678 2784 2431 2784 
Q 1963 2784 1702 2511 
Q 1441 2238 1441 1747 
Q 1441 1256 1702 982 
Q 1963 709 2431 709 
Q 2694 709 2930 787 
Q 3166 866 3366 1019 
L 3366 103 
Q 3103 6 2833 -42 
Q 2563 -91 2291 -91 
Q 1344 -91 809 395 
Q 275 881 275 1747 
Q 275 2613 809 3098 
Q 1344 3584 2291 3584 
Q 2566 3584 2833 3536 
Q 3100 3488 3366 3391 
z
" transform="scale(0.015625)"/>
      <path id="DejaVuSans-Bold-6b" d="M 538 4863 
L 1656 4863 
L 1656 2216 
L 2944 3500 
L 4244 3500 
L 2534 1894 
L 4378 0 
L 3022 0 
L 1656 1459 
L 1656 0 
L 538 0 
L 538 4863 
z
" transform="scale(0.015625)"/>
      <path id="DejaVuSans-Bold-53" d="M 3834 4519 
L 3834 3531 
Q 3450 3703 3084 3790 
Q 2719 3878 2394 3878 
Q 1963 3878 1756 3759 
Q 1550 3641 1550 3391 
Q 1550 3203 1689 3098 
Q 1828 2994 2194 2919 
L 2706 2816 
Q 3484 2659 3812 2340 
Q 4141 2022 4141 1434 
Q 4141 663 3683 286 
Q 3225 -91 2284 -91 
Q 1841 -91 1394 -6 
Q 947 78 500 244 
L 500 1259 
Q 947 1022 1364 901 
Q 1781 781 2169 781 
Q 2563 781 2772 912 
Q 2981 1044 2981 1288 
Q 2981 1506 2839 1625 
Q 2697 1744 2272 1838 
L 1806 1941 
Q 1106 2091 782 2419 
Q 459 2747 459 3303 
Q 459 4000 909 4375 
Q 1359 4750 2203 4750 
Q 2588 4750 2994 4692 
Q 3400 4634 3834 4519 
z
" transform="scale(0.015625)"/>
      <path id="DejaVuSans-Bold-67" d="M 2919 594 
Q 2688 288 2409 144 
Q 2131 0 1766 0 
Q 1125 0 706 504 
Q 288 1009 288 1791 
Q 288 2575 706 3076 
Q 1125 3578 1766 3578 
Q 2131 3578 2409 3434 
Q 2688 3291 2919 2981 
L 2919 3500 
L 4044 3500 
L 4044 353 
Q 4044 -491 3511 -936 
Q 2978 -1381 1966 -1381 
Q 1638 -1381 1331 -1331 
Q 1025 -1281 716 -1178 
L 716 -306 
Q 1009 -475 1290 -558 
Q 1572 -641 1856 -641 
Q 2406 -641 2662 -400 
Q 2919 -159 2919 353 
L 2919 594 
z
M 2181 2772 
Q 1834 2772 1640 2515 
Q 1447 2259 1447 1791 
Q 1447 1309 1634 1061 
Q 1822 813 2181 813 
Q 2531 813 2725 1069 
Q 2919 1325 2919 1791 
Q 2919 2259 2725 2515 
Q 2531 2772 2181 2772 
z
" transform="scale(0.015625)"/>
      <path id="DejaVuSans-Bold-79" d="M 78 3500 
L 1197 3500 
L 2138 1125 
L 2938 3500 
L 4056 3500 
L 2584 -331 
Q 2363 -916 2067 -1148 
Q 1772 -1381 1288 -1381 
L 641 -1381 
L 641 -647 
L 991 -647 
Q 1275 -647 1404 -556 
Q 1534 -466 1606 -231 
L 1638 -134 
L 78 3500 
z
" transform="scale(0.015625)"/>
      <path id="DejaVuSans-Bold-28" d="M 2413 -844 
L 1484 -844 
Q 1006 -72 778 623 
Q 550 1319 550 2003 
Q 550 2688 779 3389 
Q 1009 4091 1484 4856 
L 2413 4856 
Q 2013 4116 1813 3408 
Q 1613 2700 1613 2009 
Q 1613 1319 1811 609 
Q 2009 -100 2413 -844 
z
" transform="scale(0.015625)"/>
      <path id="DejaVuSans-Bold-3d" d="M 678 3084 
L 4684 3084 
L 4684 2350 
L 678 2350 
L 678 3084 
z
M 678 1663 
L 4684 1663 
L 4684 922 
L 678 922 
L 678 1663 
z
" transform="scale(0.015625)"/>
      <path id="DejaVuSans-Bold-37" d="M 428 4666 
L 3944 4666 
L 3944 3988 
L 2125 0 
L 953 0 
L 2675 3781 
L 428 3781 
L 428 4666 
z
" transform="scale(0.015625)"/>
      <path id="DejaVuSans-Bold-2c" d="M 653 1209 
L 1778 1209 
L 1778 256 
L 1006 -909 
L 341 -909 
L 653 256 
L 653 1209 
z
" transform="scale(0.015625)"/>
      <path id="DejaVuSans-Bold-31" d="M 750 831 
L 1813 831 
L 1813 3847 
L 722 3622 
L 722 4441 
L 1806 4666 
L 2950 4666 
L 2950 831 
L 4013 831 
L 4013 0 
L 750 0 
L 750 831 
z
" transform="scale(0.015625)"/>
      <path id="DejaVuSans-Bold-30" d="M 2944 2338 
Q 2944 3213 2780 3570 
Q 2616 3928 2228 3928 
Q 1841 3928 1675 3570 
Q 1509 3213 1509 2338 
Q 1509 1453 1675 1090 
Q 1841 728 2228 728 
Q 2613 728 2778 1090 
Q 2944 1453 2944 2338 
z
M 4147 2328 
Q 4147 1169 3647 539 
Q 3147 -91 2228 -91 
Q 1306 -91 806 539 
Q 306 1169 306 2328 
Q 306 3491 806 4120 
Q 1306 4750 2228 4750 
Q 3147 4750 3647 4120 
Q 4147 3491 4147 2328 
z
" transform="scale(0.015625)"/>
      <path id="DejaVuSans-Bold-2f" d="M 1644 4666 
L 2338 4666 
L 691 -594 
L 0 -594 
L 1644 4666 
z
" transform="scale(0.015625)"/>
      <path id="DejaVuSans-Bold-6f" d="M 2203 2784 
Q 1831 2784 1636 2517 
Q 1441 2250 1441 1747 
Q 1441 1244 1636 976 
Q 1831 709 2203 709 
Q 2569 709 2762 976 
Q 2956 1244 2956 1747 
Q 2956 2250 2762 2517 
Q 2569 2784 2203 2784 
z
M 2203 3584 
Q 3106 3584 3614 3096 
Q 4122 2609 4122 1747 
Q 4122 884 3614 396 
Q 3106 -91 2203 -91 
Q 1297 -91 786 396 
Q 275 884 275 1747 
Q 275 2609 786 3096 
Q 1297 3584 2203 3584 
z
" transform="scale(0.015625)"/>
      <path id="DejaVuSans-Bold-6e" d="M 4056 2131 
L 4056 0 
L 2931 0 
L 2931 347 
L 2931 1631 
Q 2931 2084 2911 2256 
Q 2891 2428 2841 2509 
Q 2775 2619 2662 2680 
Q 2550 2741 2406 2741 
Q 2056 2741 1856 2470 
Q 1656 2200 1656 1722 
L 1656 0 
L 538 0 
L 538 3500 
L 1656 3500 
L 1656 2988 
Q 1909 3294 2193 3439 
Q 2478 3584 2822 3584 
Q 3428 3584 3742 3212 
Q 4056 2841 4056 2131 
z
" transform="scale(0.015625)"/>
      <path id="DejaVuSans-Bold-29" d="M 513 -844 
Q 913 -100 1113 609 
Q 1313 1319 1313 2009 
Q 1313 2700 1113 3408 
Q 913 4116 513 4856 
L 1441 4856 
Q 1916 4091 2145 3389 
Q 2375 2688 2375 2003 
Q 2375 1319 2147 623 
Q 1919 -72 1441 -844 
L 513 -844 
z
" transform="scale(0.015625)"/>
     </defs>
     <use xlink:href="#DejaVuSans-Bold-4d"/>
     <use xlink:href="#DejaVuSans-Bold-69" transform="translate(99.511719 0)"/>
     <use xlink:href="#DejaVuSans-Bold-6c" transform="translate(133.789062 0)"/>
     <use xlink:href="#DejaVuSans-Bold-6c" transform="translate(168.066406 0)"/>
     <use xlink:href="#DejaVuSans-Bold-65" transform="translate(202.34375 0)"/>
     <use xlink:href="#DejaVuSans-Bold-72" transform="translate(270.166016 0)"/>
     <use xlink:href="#DejaVuSans-Bold-2d" transform="translate(319.482422 0)"/>
     <use xlink:href="#DejaVuSans-Bold-4f" transform="translate(360.986328 0)"/>
     <use xlink:href="#DejaVuSans-Bold-70" transform="translate(445.996094 0)"/>
     <use xlink:href="#DejaVuSans-Bold-74" transform="translate(517.578125 0)"/>
     <use xlink:href="#DejaVuSans-Bold-69" transform="translate(565.380859 0)"/>
     <use xlink:href="#DejaVuSans-Bold-6d" transform="translate(599.658203 0)"/>
     <use xlink:href="#DejaVuSans-Bold-61" transform="translate(703.857422 0)"/>
     <use xlink:href="#DejaVuSans-Bold-6c" transform="translate(771.337891 0)"/>
     <use xlink:href="#DejaVuSans-Bold-20" transform="translate(805.615234 0)"/>
     <use xlink:href="#DejaVuSans-Bold-76" transform="translate(840.429688 0)"/>
     <use xlink:href="#DejaVuSans-Bold-73" transform="translate(905.615234 0)"/>
     <use xlink:href="#DejaVuSans-Bold-20" transform="translate(965.136719 0)"/>
     <use xlink:href="#DejaVuSans-Bold-5a" transform="translate(999.951172 0)"/>
     <use xlink:href="#DejaVuSans-Bold-77" transform="translate(1072.460938 0)"/>
     <use xlink:href="#DejaVuSans-Bold-69" transform="translate(1164.84375 0)"/>
     <use xlink:href="#DejaVuSans-Bold-63" transform="translate(1199.121094 0)"/>
     <use xlink:href="#DejaVuSans-Bold-6b" transform="translate(1258.398438 0)"/>
     <use xlink:href="#DejaVuSans-Bold-20" transform="translate(1324.902344 0)"/>
     <use xlink:href="#DejaVuSans-Bold-53" transform="translate(1359.716797 0)"/>
     <use xlink:href="#DejaVuSans-Bold-74" transform="translate(1431.738281 0)"/>
     <use xlink:href="#DejaVuSans-Bold-72" transform="translate(1479.541016 0)"/>
     <use xlink:href="#DejaVuSans-Bold-61" transform="translate(1528.857422 0)"/>
     <use xlink:href="#DejaVuSans-Bold-74" transform="translate(1596.337891 0)"/>
     <use xlink:href="#DejaVuSans-Bold-65" transform="translate(1644.140625 0)"/>
     <use xlink:href="#DejaVuSans-Bold-67" transform="translate(1711.962891 0)"/>
     <use xlink:href="#DejaVuSans-Bold-79" transform="translate(1783.544922 0)"/>
     <use xlink:href="#DejaVuSans-Bold-20" transform="translate(1848.730469 0)"/>
     <use xlink:href="#DejaVuSans-Bold-28" transform="translate(1883.544922 0)"/>
     <use xlink:href="#DejaVuSans-Bold-4d" transform="translate(1929.248047 0)"/>
     <use xlink:href="#DejaVuSans-Bold-3d" transform="translate(2028.759766 0)"/>
     <use xlink:href="#DejaVuSans-Bold-37" transform="translate(2112.548828 0)"/>
     <use xlink:href="#DejaVuSans-Bold-2c" transform="translate(2182.128906 0)"/>
     <use xlink:href="#DejaVuSans-Bold-20" transform="translate(2220.117188 0)"/>
     <use xlink:href="#DejaVuSans-Bold-31" transform="translate(2254.931641 0)"/>
     <use xlink:href="#DejaVuSans-Bold-30" transform="translate(2324.511719 0)"/>
     <use xlink:href="#DejaVuSans-Bold-30" transform="translate(2394.091797 0)"/>
     <use xlink:href="#DejaVuSans-Bold-30" transform="translate(2463.671875 0)"/>
     <use xlink:href="#DejaVuSans-Bold-30" transform="translate(2533.251953 0)"/>
     <use xlink:href="#DejaVuSans-Bold-20" transform="translate(2602.832031 0)"/>
     <use xlink:href="#DejaVuSans-Bold-67" transform="translate(2637.646484 0)"/>
     <use xlink:href="#DejaVuSans-Bold-61" transform="translate(2709.228516 0)"/>
     <use xlink:href="#DejaVuSans-Bold-6d" transform="translate(2776.708984 0)"/>
     <use xlink:href="#DejaVuSans-Bold-65" transform="translate(2880.908203 0)"/>
     <use xlink:href="#DejaVuSans-Bold-73" transform="translate(2948.730469 0)"/>
     <use xlink:href="#DejaVuSans-Bold-2f" transform="translate(3008.251953 0)"/>
     <use xlink:href="#DejaVuSans-Bold-70" transform="translate(3044.775391 0)"/>
     <use xlink:href="#DejaVuSans-Bold-6f" transform="translate(3116.357422 0)"/>
     <use xlink:href="#DejaVuSans-Bold-69" transform="translate(3185.058594 0)"/>
     <use xlink:href="#DejaVuSans-Bold-6e" transform="translate(3219.335938 0)"/>
     <use xlink:href="#DejaVuSans-Bold-74" transform="translate(3290.527344 0)"/>
     <use xlink:href="#DejaVuSans-Bold-29" transform="translate(3338.330078 0)"/>
    </g>
    <!-- Who wins under limited memory? -->
    <g transform="translate(318.342969 33.624125) scale(0.14 -0.14)">
     <defs>
      <path id="DejaVuSans-Bold-57" d="M 191 4666 
L 1344 4666 
L 2150 1275 
L 2950 4666 
L 4109 4666 
L 4909 1275 
L 5716 4666 
L 6859 4666 
L 5759 0 
L 4372 0 
L 3525 3547 
L 2688 0 
L 1300 0 
L 191 4666 
z
" transform="scale(0.015625)"/>
      <path id="DejaVuSans-Bold-68" d="M 4056 2131 
L 4056 0 
L 2931 0 
L 2931 347 
L 2931 1625 
Q 2931 2084 2911 2256 
Q 2891 2428 2841 2509 
Q 2775 2619 2662 2680 
Q 2550 2741 2406 2741 
Q 2056 2741 1856 2470 
Q 1656 2200 1656 1722 
L 1656 0 
L 538 0 
L 538 4863 
L 1656 4863 
L 1656 2988 
Q 1909 3294 2193 3439 
Q 2478 3584 2822 3584 
Q 3428 3584 3742 3212 
Q 4056 2841 4056 2131 
z
" transform="scale(0.015625)"/>
      <path id="DejaVuSans-Bold-75" d="M 500 1363 
L 500 3500 
L 1625 3500 
L 1625 3150 
Q 1625 2866 1622 2436 
Q 1619 2006 1619 1863 
Q 1619 1441 1641 1255 
Q 1663 1069 1716 984 
Q 1784 875 1895 815 
Q 2006 756 2150 756 
Q 2500 756 2700 1025 
Q 2900 1294 2900 1772 
L 2900 3500 
L 4019 3500 
L 4019 0 
L 2900 0 
L 2900 506 
Q 2647 200 2364 54 
Q 2081 -91 1741 -91 
Q 1134 -91 817 281 
Q 500 653 500 1363 
z
" transform="scale(0.015625)"/>
      <path id="DejaVuSans-Bold-64" d="M 2919 2988 
L 2919 4863 
L 4044 4863 
L 4044 0 
L 2919 0 
L 2919 506 
Q 2688 197 2409 53 
Q 2131 -91 1766 -91 
Q 1119 -91 703 423 
Q 288 938 288 1747 
Q 288 2556 703 3070 
Q 1119 3584 1766 3584 
Q 2128 3584 2408 3439 
Q 2688 3294 2919 2988 
z
M 2181 722 
Q 2541 722 2730 984 
Q 2919 1247 2919 1747 
Q 2919 2247 2730 2509 
Q 2541 2772 2181 2772 
Q 1825 2772 1636 2509 
Q 1447 2247 1447 1747 
Q 1447 1247 1636 984 
Q 1825 722 2181 722 
z
" transform="scale(0.015625)"/>
      <path id="DejaVuSans-Bold-3f" d="M 2216 1575 
L 1088 1575 
L 1088 1728 
Q 1088 1984 1191 2182 
Q 1294 2381 1625 2688 
L 1825 2869 
Q 2003 3031 2086 3175 
Q 2169 3319 2169 3463 
Q 2169 3681 2019 3804 
Q 1869 3928 1600 3928 
Q 1347 3928 1053 3823 
Q 759 3719 441 3513 
L 441 4494 
Q 819 4625 1131 4687 
Q 1444 4750 1734 4750 
Q 2497 4750 2897 4439 
Q 3297 4128 3297 3531 
Q 3297 3225 3175 2983 
Q 3053 2741 2759 2463 
L 2559 2284 
Q 2347 2091 2281 1973 
Q 2216 1856 2216 1716 
L 2216 1575 
z
M 1088 1113 
L 2216 1113 
L 2216 0 
L 1088 0 
L 1088 1113 
z
" transform="scale(0.015625)"/>
     </defs>
     <use xlink:href="#DejaVuSans-Bold-57"/>
     <use xlink:href="#DejaVuSans-Bold-68" transform="translate(110.302734 0)"/>
     <use xlink:href="#DejaVuSans-Bold-6f" transform="translate(181.494141 0)"/>
     <use xlink:href="#DejaVuSans-Bold-20" transform="translate(250.195312 0)"/>
     <use xlink:href="#DejaVuSans-Bold-77" transform="translate(285.009766 0)"/>
     <use xlink:href="#DejaVuSans-Bold-69" transform="translate(377.392578 0)"/>
     <use xlink:href="#DejaVuSans-Bold-6e" transform="translate(411.669922 0)"/>
     <use xlink:href="#DejaVuSans-Bold-73" transform="translate(482.861328 0)"/>
     <use xlink:href="#DejaVuSans-Bold-20" transform="translate(542.382812 0)"/>
     <use xlink:href="#DejaVuSans-Bold-75" transform="translate(577.197266 0)"/>
     <use xlink:href="#DejaVuSans-Bold-6e" transform="translate(648.388672 0)"/>
     <use xlink:href="#DejaVuSans-Bold-64" transform="translate(719.580078 0)"/>
     <use xlink:href="#DejaVuSans-Bold-65" transform="translate(791.162109 0)"/>
     <use xlink:href="#DejaVuSans-Bold-72" transform="translate(858.984375 0)"/>
     <use xlink:href="#DejaVuSans-Bold-20" transform="translate(908.300781 0)"/>
     <use xlink:href="#DejaVuSans-Bold-6c" transform="translate(943.115234 0)"/>
     <use xlink:href="#DejaVuSans-Bold-69" transform="translate(977.392578 0)"/>
     <use xlink:href="#DejaVuSans-Bold-6d" transform="translate(1011.669922 0)"/>
     <use xlink:href="#DejaVuSans-Bold-69" transform="translate(1115.869141 0)"/>
     <use xlink:href="#DejaVuSans-Bold-74" transform="translate(1150.146484 0)"/>
     <use xlink:href="#DejaVuSans-Bold-65" transform="translate(1197.949219 0)"/>
     <use xlink:href="#DejaVuSans-Bold-64" transform="translate(1265.771484 0)"/>
     <use xlink:href="#DejaVuSans-Bold-20" transform="translate(1337.353516 0)"/>
     <use xlink:href="#DejaVuSans-Bold-6d" transform="translate(1372.167969 0)"/>
     <use xlink:href="#DejaVuSans-Bold-65" transform="translate(1476.367188 0)"/>
     <use xlink:href="#DejaVuSans-Bold-6d" transform="translate(1544.189453 0)"/>
     <use xlink:href="#DejaVuSans-Bold-6f" transform="translate(1648.388672 0)"/>
     <use xlink:href="#DejaVuSans-Bold-72" transform="translate(1717.089844 0)"/>
     <use xlink:href="#DejaVuSans-Bold-79" transform="translate(1766.40625 0)"/>
     <use xlink:href="#DejaVuSans-Bold-3f" transform="translate(1831.591797 0)"/>
    </g>
   </g>
   <g id="legend_1">
    <g id="patch_7">
     <path d="M 709.646875 106.336625 
L 841.765625 106.336625 
Q 843.765625 106.336625 843.765625 104.336625 
L 843.765625 46.624125 
Q 843.765625 44.624125 841.765625 44.624125 
L 709.646875 44.624125 
Q 707.646875 44.624125 707.646875 46.624125 
L 707.646875 104.336625 
Q 707.646875 106.336625 709.646875 106.336625 
z
" style="fill: #ffffff; opacity: 0.8; stroke: #cccccc; stroke-linejoin: miter"/>
    </g>
    <g id="line2d_32">
     <path d="M 711.646875 52.722562 
L 721.646875 52.722562 
L 731.646875 52.722562 
" style="fill: none; stroke: #e7298a; stroke-width: 2; stroke-linecap: square"/>
     <g>
      <use xlink:href="#m651248b0e5" x="721.646875" y="52.722562" style="fill: #e7298a; stroke: #e7298a"/>
     </g>
    </g>
    <g id="text_17">
     <!-- Miller v Miller -->
     <g transform="translate(739.646875 56.222562) scale(0.1 -0.1)">
      <defs>
       <path id="DejaVuSans-4d" d="M 628 4666 
L 1569 4666 
L 2759 1491 
L 3956 4666 
L 4897 4666 
L 4897 0 
L 4281 0 
L 4281 4097 
L 3078 897 
L 2444 897 
L 1241 4097 
L 1241 0 
L 628 0 
L 628 4666 
z
" transform="scale(0.015625)"/>
       <path id="DejaVuSans-6c" d="M 603 4863 
L 1178 4863 
L 1178 0 
L 603 0 
L 603 4863 
z
" transform="scale(0.015625)"/>
       <path id="DejaVuSans-76" d="M 191 3500 
L 800 3500 
L 1894 563 
L 2988 3500 
L 3597 3500 
L 2284 0 
L 1503 0 
L 191 3500 
z
" transform="scale(0.015625)"/>
      </defs>
      <use xlink:href="#DejaVuSans-4d"/>
      <use xlink:href="#DejaVuSans-69" transform="translate(86.279297 0)"/>
      <use xlink:href="#DejaVuSans-6c" transform="translate(114.0625 0)"/>
      <use xlink:href="#DejaVuSans-6c" transform="translate(141.845703 0)"/>
      <use xlink:href="#DejaVuSans-65" transform="translate(169.628906 0)"/>
      <use xlink:href="#DejaVuSans-72" transform="translate(231.152344 0)"/>
      <use xlink:href="#DejaVuSans-20" transform="translate(272.265625 0)"/>
      <use xlink:href="#DejaVuSans-76" transform="translate(304.052734 0)"/>
      <use xlink:href="#DejaVuSans-20" transform="translate(363.232422 0)"/>
      <use xlink:href="#DejaVuSans-4d" transform="translate(395.019531 0)"/>
      <use xlink:href="#DejaVuSans-69" transform="translate(481.298828 0)"/>
      <use xlink:href="#DejaVuSans-6c" transform="translate(509.082031 0)"/>
      <use xlink:href="#DejaVuSans-6c" transform="translate(536.865234 0)"/>
      <use xlink:href="#DejaVuSans-65" transform="translate(564.648438 0)"/>
      <use xlink:href="#DejaVuSans-72" transform="translate(626.171875 0)"/>
     </g>
    </g>
    <g id="line2d_33">
     <path d="M 711.646875 67.400688 
L 721.646875 67.400688 
L 731.646875 67.400688 
" style="fill: none; stroke: #2166ac; stroke-width: 2; stroke-linecap: square"/>
     <g>
      <use xlink:href="#mfa6c1a3789" x="721.646875" y="67.400688" style="fill: #2166ac; stroke: #2166ac"/>
     </g>
    </g>
    <g id="text_18">
     <!-- Zwick v Zwick -->
     <g transform="translate(739.646875 70.900688) scale(0.1 -0.1)">
      <defs>
       <path id="DejaVuSans-5a" d="M 359 4666 
L 4025 4666 
L 4025 4184 
L 1075 531 
L 4097 531 
L 4097 0 
L 288 0 
L 288 481 
L 3238 4134 
L 359 4134 
L 359 4666 
z
" transform="scale(0.015625)"/>
       <path id="DejaVuSans-63" d="M 3122 3366 
L 3122 2828 
Q 2878 2963 2633 3030 
Q 2388 3097 2138 3097 
Q 1578 3097 1268 2742 
Q 959 2388 959 1747 
Q 959 1106 1268 751 
Q 1578 397 2138 397 
Q 2388 397 2633 464 
Q 2878 531 3122 666 
L 3122 134 
Q 2881 22 2623 -34 
Q 2366 -91 2075 -91 
Q 1284 -91 818 406 
Q 353 903 353 1747 
Q 353 2603 823 3093 
Q 1294 3584 2113 3584 
Q 2378 3584 2631 3529 
Q 2884 3475 3122 3366 
z
" transform="scale(0.015625)"/>
       <path id="DejaVuSans-6b" d="M 581 4863 
L 1159 4863 
L 1159 1991 
L 2875 3500 
L 3609 3500 
L 1753 1863 
L 3688 0 
L 2938 0 
L 1159 1709 
L 1159 0 
L 581 0 
L 581 4863 
z
" transform="scale(0.015625)"/>
      </defs>
      <use xlink:href="#DejaVuSans-5a"/>
      <use xlink:href="#DejaVuSans-77" transform="translate(68.505859 0)"/>
      <use xlink:href="#DejaVuSans-69" transform="translate(150.292969 0)"/>
      <use xlink:href="#DejaVuSans-63" transform="translate(178.076172 0)"/>
      <use xlink:href="#DejaVuSans-6b" transform="translate(233.056641 0)"/>
      <use xlink:href="#DejaVuSans-20" transform="translate(290.966797 0)"/>
      <use xlink:href="#DejaVuSans-76" transform="translate(322.753906 0)"/>
      <use xlink:href="#DejaVuSans-20" transform="translate(381.933594 0)"/>
      <use xlink:href="#DejaVuSans-5a" transform="translate(413.720703 0)"/>
      <use xlink:href="#DejaVuSans-77" transform="translate(482.226562 0)"/>
      <use xlink:href="#DejaVuSans-69" transform="translate(564.013672 0)"/>
      <use xlink:href="#DejaVuSans-63" transform="translate(591.796875 0)"/>
      <use xlink:href="#DejaVuSans-6b" transform="translate(646.777344 0)"/>
     </g>
    </g>
    <g id="line2d_34">
     <path d="M 711.646875 82.078812 
L 721.646875 82.078812 
L 731.646875 82.078812 
" style="fill: none; stroke: #4dac26; stroke-width: 2; stroke-linecap: square"/>
     <g>
      <use xlink:href="#ma37697f834" x="721.646875" y="82.078812" style="fill: #4dac26; stroke: #4dac26"/>
     </g>
    </g>
    <g id="text_19">
     <!-- P1:Miller v P2:Zwick -->
     <g transform="translate(739.646875 85.578812) scale(0.1 -0.1)">
      <defs>
       <path id="DejaVuSans-3a" d="M 750 794 
L 1409 794 
L 1409 0 
L 750 0 
L 750 794 
z
M 750 3309 
L 1409 3309 
L 1409 2516 
L 750 2516 
L 750 3309 
z
" transform="scale(0.015625)"/>
      </defs>
      <use xlink:href="#DejaVuSans-50"/>
      <use xlink:href="#DejaVuSans-31" transform="translate(60.302734 0)"/>
      <use xlink:href="#DejaVuSans-3a" transform="translate(123.925781 0)"/>
      <use xlink:href="#DejaVuSans-4d" transform="translate(157.617188 0)"/>
      <use xlink:href="#DejaVuSans-69" transform="translate(243.896484 0)"/>
      <use xlink:href="#DejaVuSans-6c" transform="translate(271.679688 0)"/>
      <use xlink:href="#DejaVuSans-6c" transform="translate(299.462891 0)"/>
      <use xlink:href="#DejaVuSans-65" transform="translate(327.246094 0)"/>
      <use xlink:href="#DejaVuSans-72" transform="translate(388.769531 0)"/>
      <use xlink:href="#DejaVuSans-20" transform="translate(429.882812 0)"/>
      <use xlink:href="#DejaVuSans-76" transform="translate(461.669922 0)"/>
      <use xlink:href="#DejaVuSans-20" transform="translate(520.849609 0)"/>
      <use xlink:href="#DejaVuSans-50" transform="translate(552.636719 0)"/>
      <use xlink:href="#DejaVuSans-32" transform="translate(612.939453 0)"/>
      <use xlink:href="#DejaVuSans-3a" transform="translate(676.5625 0)"/>
      <use xlink:href="#DejaVuSans-5a" transform="translate(710.253906 0)"/>
      <use xlink:href="#DejaVuSans-77" transform="translate(778.759766 0)"/>
      <use xlink:href="#DejaVuSans-69" transform="translate(860.546875 0)"/>
      <use xlink:href="#DejaVuSans-63" transform="translate(888.330078 0)"/>
      <use xlink:href="#DejaVuSans-6b" transform="translate(943.310547 0)"/>
     </g>
    </g>
    <g id="line2d_35">
     <path d="M 711.646875 96.756937 
L 721.646875 96.756937 
L 731.646875 96.756937 
" style="fill: none; stroke: #d6604d; stroke-width: 2; stroke-linecap: square"/>
     <g>
      <use xlink:href="#m3dbeaf01cb" x="721.646875" y="96.756937" style="fill: #d6604d; stroke: #d6604d"/>
     </g>
    </g>
    <g id="text_20">
     <!-- P1:Zwick v P2:Miller -->
     <g transform="translate(739.646875 100.256937) scale(0.1 -0.1)">
      <use xlink:href="#DejaVuSans-50"/>
      <use xlink:href="#DejaVuSans-31" transform="translate(60.302734 0)"/>
      <use xlink:href="#DejaVuSans-3a" transform="translate(123.925781 0)"/>
      <use xlink:href="#DejaVuSans-5a" transform="translate(157.617188 0)"/>
      <use xlink:href="#DejaVuSans-77" transform="translate(226.123047 0)"/>
      <use xlink:href="#DejaVuSans-69" transform="translate(307.910156 0)"/>
      <use xlink:href="#DejaVuSans-63" transform="translate(335.693359 0)"/>
      <use xlink:href="#DejaVuSans-6b" transform="translate(390.673828 0)"/>
      <use xlink:href="#DejaVuSans-20" transform="translate(448.583984 0)"/>
      <use xlink:href="#DejaVuSans-76" transform="translate(480.371094 0)"/>
      <use xlink:href="#DejaVuSans-20" transform="translate(539.550781 0)"/>
      <use xlink:href="#DejaVuSans-50" transform="translate(571.337891 0)"/>
      <use xlink:href="#DejaVuSans-32" transform="translate(631.640625 0)"/>
      <use xlink:href="#DejaVuSans-3a" transform="translate(695.263672 0)"/>
      <use xlink:href="#DejaVuSans-4d" transform="translate(728.955078 0)"/>
      <use xlink:href="#DejaVuSans-69" transform="translate(815.234375 0)"/>
      <use xlink:href="#DejaVuSans-6c" transform="translate(843.017578 0)"/>
      <use xlink:href="#DejaVuSans-6c" transform="translate(870.800781 0)"/>
      <use xlink:href="#DejaVuSans-65" transform="translate(898.583984 0)"/>
      <use xlink:href="#DejaVuSans-72" transform="translate(960.107422 0)"/>
     </g>
    </g>
   </g>
  </g>
 </g>
 <defs>
  <clipPath id="pc952f4a4c9">
   <rect x="52.465625" y="39.624125" width="796.3" height="415.72"/>
  </clipPath>
 </defs>
</svg>
