<?xml version="1.0" encoding="utf-8" standalone="no"?>
<!DOCTYPE svg PUBLIC "-//W3C//DTD SVG 1.1//EN"
  "http://www.w3.org/Graphics/SVG/1.1/DTD/svg11.dtd">
<svg xmlns:xlink="http://www.w3.org/1999/xlink" width="1143.607553pt" height="425.090625pt" viewBox="0 0 1143.607553 425.090625" xmlns="http://www.w3.org/2000/svg" version="1.1">
 <metadata>
  <rdf:RDF xmlns:dc="http://purl.org/dc/elements/1.1/" xmlns:cc="http://creativecommons.org/ns#" xmlns:rdf="http://www.w3.org/1999/02/22-rdf-syntax-ns#">
   <cc:Work>
    <dc:type rdf:resource="http://purl.org/dc/dcmitype/StillImage"/>
    <dc:date>2026-03-28T21:39:11.251816</dc:date>
    <dc:format>image/svg+xml</dc:format>
    <dc:creator>
     <cc:Agent>
      <dc:title>Matplotlib v3.10.8, https://matplotlib.org/</dc:title>
     </cc:Agent>
    </dc:creator>
   </cc:Work>
  </rdf:RDF>
 </metadata>
 <defs>
  <style type="text/css">*{stroke-linejoin: round; stroke-linecap: butt}</style>
 </defs>
 <g id="figure_1">
  <g id="patch_1">
   <path d="M 0 425.090625 
L 1143.607553 425.090625 
L 1143.607553 0 
L 0 0 
z
" style="fill: #ffffff"/>
  </g>
  <g id="axes_1">
   <g id="patch_2">
    <path d="M 38.70625 388.6 
L 557.192736 388.6 
L 557.192736 62.81475 
L 38.70625 62.81475 
z
" style="fill: #ffffff"/>
   </g>
   <g id="matplotlib.axis_1">
    <g id="xtick_1">
     <g id="line2d_1">
      <path d="M 41.780281 388.6 
L 41.780281 62.81475 
" clip-path="url(#pf85e73fbf0)" style="fill: none; stroke: #cccccc; stroke-width: 0.8; stroke-linecap: round"/>
     </g>
     <g id="text_1">
      <!-- 2000 -->
      <g style="fill: #262626" transform="translate(30.658406 402.757812) scale(0.1 -0.1)">
       <defs>
        <path id="ArialMT-32" d="M 3222 541 
L 3222 0 
L 194 0 
Q 188 203 259 391 
Q 375 700 629 1000 
Q 884 1300 1366 1694 
Q 2113 2306 2375 2664 
Q 2638 3022 2638 3341 
Q 2638 3675 2398 3904 
Q 2159 4134 1775 4134 
Q 1369 4134 1125 3890 
Q 881 3647 878 3216 
L 300 3275 
Q 359 3922 746 4261 
Q 1134 4600 1788 4600 
Q 2447 4600 2831 4234 
Q 3216 3869 3216 3328 
Q 3216 3053 3103 2787 
Q 2991 2522 2730 2228 
Q 2469 1934 1863 1422 
Q 1356 997 1212 845 
Q 1069 694 975 541 
L 3222 541 
z
" transform="scale(0.015625)"/>
        <path id="ArialMT-30" d="M 266 2259 
Q 266 3072 433 3567 
Q 600 4063 929 4331 
Q 1259 4600 1759 4600 
Q 2128 4600 2406 4451 
Q 2684 4303 2865 4023 
Q 3047 3744 3150 3342 
Q 3253 2941 3253 2259 
Q 3253 1453 3087 958 
Q 2922 463 2592 192 
Q 2263 -78 1759 -78 
Q 1097 -78 719 397 
Q 266 969 266 2259 
z
M 844 2259 
Q 844 1131 1108 757 
Q 1372 384 1759 384 
Q 2147 384 2411 759 
Q 2675 1134 2675 2259 
Q 2675 3391 2411 3762 
Q 2147 4134 1753 4134 
Q 1366 4134 1134 3806 
Q 844 3388 844 2259 
z
" transform="scale(0.015625)"/>
       </defs>
       <use xlink:href="#ArialMT-32"/>
       <use xlink:href="#ArialMT-30" transform="translate(55.615234 0)"/>
       <use xlink:href="#ArialMT-30" transform="translate(111.230469 0)"/>
       <use xlink:href="#ArialMT-30" transform="translate(166.845703 0)"/>
      </g>
     </g>
    </g>
    <g id="xtick_2">
     <g id="line2d_2">
      <path d="M 144.247965 388.6 
L 144.247965 62.81475 
" clip-path="url(#pf85e73fbf0)" style="fill: none; stroke: #cccccc; stroke-width: 0.8; stroke-linecap: round"/>
     </g>
     <g id="text_2">
      <!-- 2005 -->
      <g style="fill: #262626" transform="translate(133.12609 402.757812) scale(0.1 -0.1)">
       <defs>
        <path id="ArialMT-35" d="M 266 1200 
L 856 1250 
Q 922 819 1161 601 
Q 1400 384 1738 384 
Q 2144 384 2425 690 
Q 2706 997 2706 1503 
Q 2706 1984 2436 2262 
Q 2166 2541 1728 2541 
Q 1456 2541 1237 2417 
Q 1019 2294 894 2097 
L 366 2166 
L 809 4519 
L 3088 4519 
L 3088 3981 
L 1259 3981 
L 1013 2750 
Q 1425 3038 1878 3038 
Q 2478 3038 2890 2622 
Q 3303 2206 3303 1553 
Q 3303 931 2941 478 
Q 2500 -78 1738 -78 
Q 1113 -78 717 272 
Q 322 622 266 1200 
z
" transform="scale(0.015625)"/>
       </defs>
       <use xlink:href="#ArialMT-32"/>
       <use xlink:href="#ArialMT-30" transform="translate(55.615234 0)"/>
       <use xlink:href="#ArialMT-30" transform="translate(111.230469 0)"/>
       <use xlink:href="#ArialMT-35" transform="translate(166.845703 0)"/>
      </g>
     </g>
    </g>
    <g id="xtick_3">
     <g id="line2d_3">
      <path d="M 246.71565 388.6 
L 246.71565 62.81475 
" clip-path="url(#pf85e73fbf0)" style="fill: none; stroke: #cccccc; stroke-width: 0.8; stroke-linecap: round"/>
     </g>
     <g id="text_3">
      <!-- 2010 -->
      <g style="fill: #262626" transform="translate(235.593775 402.757812) scale(0.1 -0.1)">
       <defs>
        <path id="ArialMT-31" d="M 2384 0 
L 1822 0 
L 1822 3584 
Q 1619 3391 1289 3197 
Q 959 3003 697 2906 
L 697 3450 
Q 1169 3672 1522 3987 
Q 1875 4303 2022 4600 
L 2384 4600 
L 2384 0 
z
" transform="scale(0.015625)"/>
       </defs>
       <use xlink:href="#ArialMT-32"/>
       <use xlink:href="#ArialMT-30" transform="translate(55.615234 0)"/>
       <use xlink:href="#ArialMT-31" transform="translate(111.230469 0)"/>
       <use xlink:href="#ArialMT-30" transform="translate(166.845703 0)"/>
      </g>
     </g>
    </g>
    <g id="xtick_4">
     <g id="line2d_4">
      <path d="M 349.183335 388.6 
L 349.183335 62.81475 
" clip-path="url(#pf85e73fbf0)" style="fill: none; stroke: #cccccc; stroke-width: 0.8; stroke-linecap: round"/>
     </g>
     <g id="text_4">
      <!-- 2015 -->
      <g style="fill: #262626" transform="translate(338.06146 402.757812) scale(0.1 -0.1)">
       <use xlink:href="#ArialMT-32"/>
       <use xlink:href="#ArialMT-30" transform="translate(55.615234 0)"/>
       <use xlink:href="#ArialMT-31" transform="translate(111.230469 0)"/>
       <use xlink:href="#ArialMT-35" transform="translate(166.845703 0)"/>
      </g>
     </g>
    </g>
    <g id="xtick_5">
     <g id="line2d_5">
      <path d="M 451.65102 388.6 
L 451.65102 62.81475 
" clip-path="url(#pf85e73fbf0)" style="fill: none; stroke: #cccccc; stroke-width: 0.8; stroke-linecap: round"/>
     </g>
     <g id="text_5">
      <!-- 2020 -->
      <g style="fill: #262626" transform="translate(440.529145 402.757812) scale(0.1 -0.1)">
       <use xlink:href="#ArialMT-32"/>
       <use xlink:href="#ArialMT-30" transform="translate(55.615234 0)"/>
       <use xlink:href="#ArialMT-32" transform="translate(111.230469 0)"/>
       <use xlink:href="#ArialMT-30" transform="translate(166.845703 0)"/>
      </g>
     </g>
    </g>
    <g id="xtick_6">
     <g id="line2d_6">
      <path d="M 554.118705 388.6 
L 554.118705 62.81475 
" clip-path="url(#pf85e73fbf0)" style="fill: none; stroke: #cccccc; stroke-width: 0.8; stroke-linecap: round"/>
     </g>
     <g id="text_6">
      <!-- 2025 -->
      <g style="fill: #262626" transform="translate(542.99683 402.757812) scale(0.1 -0.1)">
       <use xlink:href="#ArialMT-32"/>
       <use xlink:href="#ArialMT-30" transform="translate(55.615234 0)"/>
       <use xlink:href="#ArialMT-32" transform="translate(111.230469 0)"/>
       <use xlink:href="#ArialMT-35" transform="translate(166.845703 0)"/>
      </g>
     </g>
    </g>
    <g id="text_7">
     <!-- Year -->
     <g style="fill: #262626" transform="translate(287.844805 415.903125) scale(0.1 -0.1)">
      <defs>
       <path id="ArialMT-59" d="M 1784 0 
L 1784 1941 
L 19 4581 
L 756 4581 
L 1659 3200 
Q 1909 2813 2125 2425 
Q 2331 2784 2625 3234 
L 3513 4581 
L 4219 4581 
L 2391 1941 
L 2391 0 
L 1784 0 
z
" transform="scale(0.015625)"/>
       <path id="ArialMT-65" d="M 2694 1069 
L 3275 997 
Q 3138 488 2766 206 
Q 2394 -75 1816 -75 
Q 1088 -75 661 373 
Q 234 822 234 1631 
Q 234 2469 665 2931 
Q 1097 3394 1784 3394 
Q 2450 3394 2872 2941 
Q 3294 2488 3294 1666 
Q 3294 1616 3291 1516 
L 816 1516 
Q 847 969 1125 678 
Q 1403 388 1819 388 
Q 2128 388 2347 550 
Q 2566 713 2694 1069 
z
M 847 1978 
L 2700 1978 
Q 2663 2397 2488 2606 
Q 2219 2931 1791 2931 
Q 1403 2931 1139 2672 
Q 875 2413 847 1978 
z
" transform="scale(0.015625)"/>
       <path id="ArialMT-61" d="M 2588 409 
Q 2275 144 1986 34 
Q 1697 -75 1366 -75 
Q 819 -75 525 192 
Q 231 459 231 875 
Q 231 1119 342 1320 
Q 453 1522 633 1644 
Q 813 1766 1038 1828 
Q 1203 1872 1538 1913 
Q 2219 1994 2541 2106 
Q 2544 2222 2544 2253 
Q 2544 2597 2384 2738 
Q 2169 2928 1744 2928 
Q 1347 2928 1158 2789 
Q 969 2650 878 2297 
L 328 2372 
Q 403 2725 575 2942 
Q 747 3159 1072 3276 
Q 1397 3394 1825 3394 
Q 2250 3394 2515 3294 
Q 2781 3194 2906 3042 
Q 3031 2891 3081 2659 
Q 3109 2516 3109 2141 
L 3109 1391 
Q 3109 606 3145 398 
Q 3181 191 3288 0 
L 2700 0 
Q 2613 175 2588 409 
z
M 2541 1666 
Q 2234 1541 1622 1453 
Q 1275 1403 1131 1340 
Q 988 1278 909 1158 
Q 831 1038 831 891 
Q 831 666 1001 516 
Q 1172 366 1500 366 
Q 1825 366 2078 508 
Q 2331 650 2450 897 
Q 2541 1088 2541 1459 
L 2541 1666 
z
" transform="scale(0.015625)"/>
       <path id="ArialMT-72" d="M 416 0 
L 416 3319 
L 922 3319 
L 922 2816 
Q 1116 3169 1280 3281 
Q 1444 3394 1641 3394 
Q 1925 3394 2219 3213 
L 2025 2691 
Q 1819 2813 1613 2813 
Q 1428 2813 1281 2702 
Q 1134 2591 1072 2394 
Q 978 2094 978 1738 
L 978 0 
L 416 0 
z
" transform="scale(0.015625)"/>
      </defs>
      <use xlink:href="#ArialMT-59"/>
      <use xlink:href="#ArialMT-65" transform="translate(57.574219 0)"/>
      <use xlink:href="#ArialMT-61" transform="translate(113.189453 0)"/>
      <use xlink:href="#ArialMT-72" transform="translate(168.804688 0)"/>
     </g>
    </g>
   </g>
   <g id="matplotlib.axis_2">
    <g id="ytick_1">
     <g id="line2d_7">
      <path d="M 38.70625 369.789304 
L 557.192736 369.789304 
" clip-path="url(#pf85e73fbf0)" style="fill: none; stroke: #cccccc; stroke-width: 0.8; stroke-linecap: round"/>
     </g>
     <g id="text_8">
      <!-- 20 -->
      <g style="fill: #262626" transform="translate(20.584375 373.36821) scale(0.1 -0.1)">
       <use xlink:href="#ArialMT-32"/>
       <use xlink:href="#ArialMT-30" transform="translate(55.615234 0)"/>
      </g>
     </g>
    </g>
    <g id="ytick_2">
     <g id="line2d_8">
      <path d="M 38.70625 329.766546 
L 557.192736 329.766546 
" clip-path="url(#pf85e73fbf0)" style="fill: none; stroke: #cccccc; stroke-width: 0.8; stroke-linecap: round"/>
     </g>
     <g id="text_9">
      <!-- 25 -->
      <g style="fill: #262626" transform="translate(20.584375 333.345452) scale(0.1 -0.1)">
       <use xlink:href="#ArialMT-32"/>
       <use xlink:href="#ArialMT-35" transform="translate(55.615234 0)"/>
      </g>
     </g>
    </g>
    <g id="ytick_3">
     <g id="line2d_9">
      <path d="M 38.70625 289.743788 
L 557.192736 289.743788 
" clip-path="url(#pf85e73fbf0)" style="fill: none; stroke: #cccccc; stroke-width: 0.8; stroke-linecap: round"/>
     </g>
     <g id="text_10">
      <!-- 30 -->
      <g style="fill: #262626" transform="translate(20.584375 293.322694) scale(0.1 -0.1)">
       <defs>
        <path id="ArialMT-33" d="M 269 1209 
L 831 1284 
Q 928 806 1161 595 
Q 1394 384 1728 384 
Q 2125 384 2398 659 
Q 2672 934 2672 1341 
Q 2672 1728 2419 1979 
Q 2166 2231 1775 2231 
Q 1616 2231 1378 2169 
L 1441 2663 
Q 1497 2656 1531 2656 
Q 1891 2656 2178 2843 
Q 2466 3031 2466 3422 
Q 2466 3731 2256 3934 
Q 2047 4138 1716 4138 
Q 1388 4138 1169 3931 
Q 950 3725 888 3313 
L 325 3413 
Q 428 3978 793 4289 
Q 1159 4600 1703 4600 
Q 2078 4600 2393 4439 
Q 2709 4278 2876 4000 
Q 3044 3722 3044 3409 
Q 3044 3113 2884 2869 
Q 2725 2625 2413 2481 
Q 2819 2388 3044 2092 
Q 3269 1797 3269 1353 
Q 3269 753 2831 336 
Q 2394 -81 1725 -81 
Q 1122 -81 723 278 
Q 325 638 269 1209 
z
" transform="scale(0.015625)"/>
       </defs>
       <use xlink:href="#ArialMT-33"/>
       <use xlink:href="#ArialMT-30" transform="translate(55.615234 0)"/>
      </g>
     </g>
    </g>
    <g id="ytick_4">
     <g id="line2d_10">
      <path d="M 38.70625 249.72103 
L 557.192736 249.72103 
" clip-path="url(#pf85e73fbf0)" style="fill: none; stroke: #cccccc; stroke-width: 0.8; stroke-linecap: round"/>
     </g>
     <g id="text_11">
      <!-- 35 -->
      <g style="fill: #262626" transform="translate(20.584375 253.299936) scale(0.1 -0.1)">
       <use xlink:href="#ArialMT-33"/>
       <use xlink:href="#ArialMT-35" transform="translate(55.615234 0)"/>
      </g>
     </g>
    </g>
    <g id="ytick_5">
     <g id="line2d_11">
      <path d="M 38.70625 209.698272 
L 557.192736 209.698272 
" clip-path="url(#pf85e73fbf0)" style="fill: none; stroke: #cccccc; stroke-width: 0.8; stroke-linecap: round"/>
     </g>
     <g id="text_12">
      <!-- 40 -->
      <g style="fill: #262626" transform="translate(20.584375 213.277178) scale(0.1 -0.1)">
       <defs>
        <path id="ArialMT-34" d="M 2069 0 
L 2069 1097 
L 81 1097 
L 81 1613 
L 2172 4581 
L 2631 4581 
L 2631 1613 
L 3250 1613 
L 3250 1097 
L 2631 1097 
L 2631 0 
L 2069 0 
z
M 2069 1613 
L 2069 3678 
L 634 1613 
L 2069 1613 
z
" transform="scale(0.015625)"/>
       </defs>
       <use xlink:href="#ArialMT-34"/>
       <use xlink:href="#ArialMT-30" transform="translate(55.615234 0)"/>
      </g>
     </g>
    </g>
    <g id="ytick_6">
     <g id="line2d_12">
      <path d="M 38.70625 169.675514 
L 557.192736 169.675514 
" clip-path="url(#pf85e73fbf0)" style="fill: none; stroke: #cccccc; stroke-width: 0.8; stroke-linecap: round"/>
     </g>
     <g id="text_13">
      <!-- 45 -->
      <g style="fill: #262626" transform="translate(20.584375 173.25442) scale(0.1 -0.1)">
       <use xlink:href="#ArialMT-34"/>
       <use xlink:href="#ArialMT-35" transform="translate(55.615234 0)"/>
      </g>
     </g>
    </g>
    <g id="ytick_7">
     <g id="line2d_13">
      <path d="M 38.70625 129.652756 
L 557.192736 129.652756 
" clip-path="url(#pf85e73fbf0)" style="fill: none; stroke: #cccccc; stroke-width: 0.8; stroke-linecap: round"/>
     </g>
     <g id="text_14">
      <!-- 50 -->
      <g style="fill: #262626" transform="translate(20.584375 133.231662) scale(0.1 -0.1)">
       <use xlink:href="#ArialMT-35"/>
       <use xlink:href="#ArialMT-30" transform="translate(55.615234 0)"/>
      </g>
     </g>
    </g>
    <g id="ytick_8">
     <g id="line2d_14">
      <path d="M 38.70625 89.629998 
L 557.192736 89.629998 
" clip-path="url(#pf85e73fbf0)" style="fill: none; stroke: #cccccc; stroke-width: 0.8; stroke-linecap: round"/>
     </g>
     <g id="text_15">
      <!-- 55 -->
      <g style="fill: #262626" transform="translate(20.584375 93.208904) scale(0.1 -0.1)">
       <use xlink:href="#ArialMT-35"/>
       <use xlink:href="#ArialMT-35" transform="translate(55.615234 0)"/>
      </g>
     </g>
    </g>
    <g id="text_16">
     <!-- Annual Mean (µg/m³) -->
     <g style="fill: #262626" transform="translate(14.479688 272.769875) rotate(-90) scale(0.1 -0.1)">
      <defs>
       <path id="ArialMT-41" d="M -9 0 
L 1750 4581 
L 2403 4581 
L 4278 0 
L 3588 0 
L 3053 1388 
L 1138 1388 
L 634 0 
L -9 0 
z
M 1313 1881 
L 2866 1881 
L 2388 3150 
Q 2169 3728 2063 4100 
Q 1975 3659 1816 3225 
L 1313 1881 
z
" transform="scale(0.015625)"/>
       <path id="ArialMT-6e" d="M 422 0 
L 422 3319 
L 928 3319 
L 928 2847 
Q 1294 3394 1984 3394 
Q 2284 3394 2536 3286 
Q 2788 3178 2913 3003 
Q 3038 2828 3088 2588 
Q 3119 2431 3119 2041 
L 3119 0 
L 2556 0 
L 2556 2019 
Q 2556 2363 2490 2533 
Q 2425 2703 2258 2804 
Q 2091 2906 1866 2906 
Q 1506 2906 1245 2678 
Q 984 2450 984 1813 
L 984 0 
L 422 0 
z
" transform="scale(0.015625)"/>
       <path id="ArialMT-75" d="M 2597 0 
L 2597 488 
Q 2209 -75 1544 -75 
Q 1250 -75 995 37 
Q 741 150 617 320 
Q 494 491 444 738 
Q 409 903 409 1263 
L 409 3319 
L 972 3319 
L 972 1478 
Q 972 1038 1006 884 
Q 1059 663 1231 536 
Q 1403 409 1656 409 
Q 1909 409 2131 539 
Q 2353 669 2445 892 
Q 2538 1116 2538 1541 
L 2538 3319 
L 3100 3319 
L 3100 0 
L 2597 0 
z
" transform="scale(0.015625)"/>
       <path id="ArialMT-6c" d="M 409 0 
L 409 4581 
L 972 4581 
L 972 0 
L 409 0 
z
" transform="scale(0.015625)"/>
       <path id="ArialMT-20" transform="scale(0.015625)"/>
       <path id="ArialMT-4d" d="M 475 0 
L 475 4581 
L 1388 4581 
L 2472 1338 
Q 2622 884 2691 659 
Q 2769 909 2934 1394 
L 4031 4581 
L 4847 4581 
L 4847 0 
L 4263 0 
L 4263 3834 
L 2931 0 
L 2384 0 
L 1059 3900 
L 1059 0 
L 475 0 
z
" transform="scale(0.015625)"/>
       <path id="ArialMT-28" d="M 1497 -1347 
Q 1031 -759 709 28 
Q 388 816 388 1659 
Q 388 2403 628 3084 
Q 909 3875 1497 4659 
L 1900 4659 
Q 1522 4009 1400 3731 
Q 1209 3300 1100 2831 
Q 966 2247 966 1656 
Q 966 153 1900 -1347 
L 1497 -1347 
z
" transform="scale(0.015625)"/>
       <path id="ArialMT-b5" d="M 3181 3319 
L 3181 0 
L 2678 0 
L 2678 394 
Q 2516 144 2356 50 
Q 2138 -78 1847 -78 
Q 1588 -78 1388 25 
Q 1238 103 1056 334 
L 1056 -1272 
L 500 -1272 
L 500 3319 
L 1056 3319 
L 1056 1913 
Q 1056 1147 1137 920 
Q 1219 694 1401 562 
Q 1584 431 1822 431 
Q 2072 431 2269 568 
Q 2466 706 2547 923 
Q 2628 1141 2628 1903 
L 2628 3319 
L 3181 3319 
z
" transform="scale(0.015625)"/>
       <path id="ArialMT-67" d="M 319 -275 
L 866 -356 
Q 900 -609 1056 -725 
Q 1266 -881 1628 -881 
Q 2019 -881 2231 -725 
Q 2444 -569 2519 -288 
Q 2563 -116 2559 434 
Q 2191 0 1641 0 
Q 956 0 581 494 
Q 206 988 206 1678 
Q 206 2153 378 2554 
Q 550 2956 876 3175 
Q 1203 3394 1644 3394 
Q 2231 3394 2613 2919 
L 2613 3319 
L 3131 3319 
L 3131 450 
Q 3131 -325 2973 -648 
Q 2816 -972 2473 -1159 
Q 2131 -1347 1631 -1347 
Q 1038 -1347 672 -1080 
Q 306 -813 319 -275 
z
M 784 1719 
Q 784 1066 1043 766 
Q 1303 466 1694 466 
Q 2081 466 2343 764 
Q 2606 1063 2606 1700 
Q 2606 2309 2336 2618 
Q 2066 2928 1684 2928 
Q 1309 2928 1046 2623 
Q 784 2319 784 1719 
z
" transform="scale(0.015625)"/>
       <path id="ArialMT-2f" d="M 0 -78 
L 1328 4659 
L 1778 4659 
L 453 -78 
L 0 -78 
z
" transform="scale(0.015625)"/>
       <path id="ArialMT-6d" d="M 422 0 
L 422 3319 
L 925 3319 
L 925 2853 
Q 1081 3097 1340 3245 
Q 1600 3394 1931 3394 
Q 2300 3394 2536 3241 
Q 2772 3088 2869 2813 
Q 3263 3394 3894 3394 
Q 4388 3394 4653 3120 
Q 4919 2847 4919 2278 
L 4919 0 
L 4359 0 
L 4359 2091 
Q 4359 2428 4304 2576 
Q 4250 2725 4106 2815 
Q 3963 2906 3769 2906 
Q 3419 2906 3187 2673 
Q 2956 2441 2956 1928 
L 2956 0 
L 2394 0 
L 2394 2156 
Q 2394 2531 2256 2718 
Q 2119 2906 1806 2906 
Q 1569 2906 1367 2781 
Q 1166 2656 1075 2415 
Q 984 2175 984 1722 
L 984 0 
L 422 0 
z
" transform="scale(0.015625)"/>
       <path id="ArialMT-b3" d="M 103 2903 
L 559 2950 
Q 622 2763 722 2694 
Q 856 2600 1041 2600 
Q 1263 2600 1397 2722 
Q 1531 2844 1531 3016 
Q 1531 3172 1418 3265 
Q 1306 3359 1034 3359 
Q 997 3359 931 3353 
Q 888 3350 863 3350 
L 931 3694 
Q 1184 3691 1301 3784 
Q 1419 3878 1419 4013 
Q 1419 4128 1325 4209 
Q 1231 4291 1047 4291 
Q 872 4291 773 4222 
Q 675 4153 603 3972 
L 156 4044 
Q 284 4375 479 4506 
Q 675 4638 1050 4638 
Q 1500 4638 1704 4470 
Q 1909 4303 1909 4053 
Q 1909 3881 1798 3747 
Q 1688 3613 1478 3553 
Q 1756 3484 1887 3326 
Q 2019 3169 2019 2956 
Q 2019 2666 1772 2450 
Q 1525 2234 1069 2234 
Q 631 2234 400 2407 
Q 169 2581 103 2903 
z
" transform="scale(0.015625)"/>
       <path id="ArialMT-29" d="M 791 -1347 
L 388 -1347 
Q 1322 153 1322 1656 
Q 1322 2244 1188 2822 
Q 1081 3291 891 3722 
Q 769 4003 388 4659 
L 791 4659 
Q 1378 3875 1659 3084 
Q 1900 2403 1900 1659 
Q 1900 816 1576 28 
Q 1253 -759 791 -1347 
z
" transform="scale(0.015625)"/>
      </defs>
      <use xlink:href="#ArialMT-41"/>
      <use xlink:href="#ArialMT-6e" transform="translate(66.699219 0)"/>
      <use xlink:href="#ArialMT-6e" transform="translate(122.314453 0)"/>
      <use xlink:href="#ArialMT-75" transform="translate(177.929688 0)"/>
      <use xlink:href="#ArialMT-61" transform="translate(233.544922 0)"/>
      <use xlink:href="#ArialMT-6c" transform="translate(289.160156 0)"/>
      <use xlink:href="#ArialMT-20" transform="translate(311.376953 0)"/>
      <use xlink:href="#ArialMT-4d" transform="translate(339.160156 0)"/>
      <use xlink:href="#ArialMT-65" transform="translate(422.460938 0)"/>
      <use xlink:href="#ArialMT-61" transform="translate(478.076172 0)"/>
      <use xlink:href="#ArialMT-6e" transform="translate(533.691406 0)"/>
      <use xlink:href="#ArialMT-20" transform="translate(589.306641 0)"/>
      <use xlink:href="#ArialMT-28" transform="translate(617.089844 0)"/>
      <use xlink:href="#ArialMT-b5" transform="translate(650.390625 0)"/>
      <use xlink:href="#ArialMT-67" transform="translate(708.007812 0)"/>
      <use xlink:href="#ArialMT-2f" transform="translate(763.623047 0)"/>
      <use xlink:href="#ArialMT-6d" transform="translate(791.40625 0)"/>
      <use xlink:href="#ArialMT-b3" transform="translate(874.707031 0)"/>
      <use xlink:href="#ArialMT-29" transform="translate(908.007812 0)"/>
     </g>
    </g>
   </g>
   <g id="patch_3">
    <path d="M 349.183335 388.6 
L 533.625168 388.6 
L 533.625168 62.81475 
L 349.183335 62.81475 
z
" clip-path="url(#pf85e73fbf0)" style="fill: #008000; opacity: 0.05; stroke: #008000; stroke-linejoin: miter"/>
   </g>
   <g id="FillBetweenPolyCollection_1">
    <defs>
     <path id="ma96d410f96" d="M 349.183335 -262.584023 
L 349.183335 -255.415111 
L 369.676872 -231.401456 
L 390.170409 -211.390077 
L 410.663946 -215.392353 
L 431.157483 -159.360492 
L 451.65102 -103.328631 
L 472.144557 -91.321803 
L 492.638094 -87.319528 
L 513.131631 -51.299045 
L 533.625168 -51.299045 
L 533.625168 -221.101094 
L 533.625168 -221.101094 
L 513.131631 -225.710308 
L 492.638094 -230.319522 
L 472.144557 -234.928737 
L 451.65102 -239.537951 
L 431.157483 -244.147165 
L 410.663946 -248.75638 
L 390.170409 -253.365594 
L 369.676872 -257.974808 
L 349.183335 -262.584023 
z
" style="stroke: #008000; stroke-opacity: 0.2"/>
    </defs>
    <g clip-path="url(#pf85e73fbf0)">
     <use xlink:href="#ma96d410f96" x="0" y="425.090625" style="fill: #008000; fill-opacity: 0.2; stroke: #008000; stroke-opacity: 0.2"/>
    </g>
   </g>
   <g id="line2d_15">
    <path d="M 62.273818 97.977602 
L 82.767355 102.586816 
L 103.260891 107.19603 
L 123.754428 111.805245 
L 144.247965 116.414459 
L 164.741502 121.023673 
L 185.235039 125.632888 
L 205.728576 130.242102 
L 226.222113 134.851316 
L 246.71565 139.460531 
L 267.209187 144.069745 
L 287.702724 148.678959 
L 308.196261 153.288174 
L 328.689798 157.897388 
L 349.183335 162.506602 
L 369.676872 167.115817 
L 390.170409 171.725031 
L 410.663946 176.334245 
L 431.157483 180.94346 
L 451.65102 185.552674 
L 472.144557 190.161888 
L 492.638094 194.771103 
L 513.131631 199.380317 
L 533.625168 203.989531 
" clip-path="url(#pf85e73fbf0)" style="fill: none; stroke-dasharray: 7.4,3.2; stroke-dashoffset: 0; stroke: #e74c3c; stroke-width: 2"/>
   </g>
   <g id="line2d_16">
    <path d="M 349.183335 388.6 
L 349.183335 62.81475 
" clip-path="url(#pf85e73fbf0)" style="fill: none; stroke-dasharray: 5.55,2.4; stroke-dashoffset: 0; stroke: #808080; stroke-opacity: 0.5; stroke-width: 1.5"/>
   </g>
   <g id="line2d_17">
    <path d="M 38.70625 209.698272 
L 557.192736 209.698272 
" clip-path="url(#pf85e73fbf0)" style="fill: none; stroke-dasharray: 1.5,2.475; stroke-dashoffset: 0; stroke: #dc143c; stroke-opacity: 0.3; stroke-width: 1.5"/>
   </g>
   <g id="patch_4">
    <path d="M 38.70625 388.6 
L 38.70625 62.81475 
" style="fill: none; stroke: #cccccc; stroke-width: 0.8; stroke-linejoin: miter; stroke-linecap: square"/>
   </g>
   <g id="patch_5">
    <path d="M 557.192736 388.6 
L 557.192736 62.81475 
" style="fill: none; stroke: #cccccc; stroke-width: 0.8; stroke-linejoin: miter; stroke-linecap: square"/>
   </g>
   <g id="patch_6">
    <path d="M 38.70625 388.6 
L 557.192736 388.6 
" style="fill: none; stroke: #cccccc; stroke-width: 0.8; stroke-linejoin: miter; stroke-linecap: square"/>
   </g>
   <g id="patch_7">
    <path d="M 38.70625 62.81475 
L 557.192736 62.81475 
" style="fill: none; stroke: #cccccc; stroke-width: 0.8; stroke-linejoin: miter; stroke-linecap: square"/>
   </g>
   <g id="text_17">
    <!-- NO2 — Counterfactual Analysis -->
    <g style="fill: #262626" transform="translate(207.825743 56.81475) scale(0.12 -0.12)">
     <defs>
      <path id="Arial-BoldMT-4e" d="M 475 0 
L 475 4581 
L 1375 4581 
L 3250 1522 
L 3250 4581 
L 4109 4581 
L 4109 0 
L 3181 0 
L 1334 2988 
L 1334 0 
L 475 0 
z
" transform="scale(0.015625)"/>
      <path id="Arial-BoldMT-4f" d="M 278 2263 
Q 278 2963 488 3438 
Q 644 3788 914 4066 
Q 1184 4344 1506 4478 
Q 1934 4659 2494 4659 
Q 3506 4659 4114 4031 
Q 4722 3403 4722 2284 
Q 4722 1175 4119 548 
Q 3516 -78 2506 -78 
Q 1484 -78 881 545 
Q 278 1169 278 2263 
z
M 1231 2294 
Q 1231 1516 1590 1114 
Q 1950 713 2503 713 
Q 3056 713 3411 1111 
Q 3766 1509 3766 2306 
Q 3766 3094 3420 3481 
Q 3075 3869 2503 3869 
Q 1931 3869 1581 3476 
Q 1231 3084 1231 2294 
z
" transform="scale(0.015625)"/>
      <path id="Arial-BoldMT-32" d="M 3238 816 
L 3238 0 
L 159 0 
Q 209 463 459 877 
Q 709 1291 1447 1975 
Q 2041 2528 2175 2725 
Q 2356 2997 2356 3263 
Q 2356 3556 2198 3714 
Q 2041 3872 1763 3872 
Q 1488 3872 1325 3706 
Q 1163 3541 1138 3156 
L 263 3244 
Q 341 3969 753 4284 
Q 1166 4600 1784 4600 
Q 2463 4600 2850 4234 
Q 3238 3869 3238 3325 
Q 3238 3016 3127 2736 
Q 3016 2456 2775 2150 
Q 2616 1947 2200 1565 
Q 1784 1184 1673 1059 
Q 1563 934 1494 816 
L 3238 816 
z
" transform="scale(0.015625)"/>
      <path id="Arial-BoldMT-20" transform="scale(0.015625)"/>
      <path id="Arial-BoldMT-2014" d="M 0 1331 
L 0 1988 
L 6400 1988 
L 6400 1331 
L 0 1331 
z
" transform="scale(0.015625)"/>
      <path id="Arial-BoldMT-43" d="M 3397 1684 
L 4294 1400 
Q 4088 650 3608 286 
Q 3128 -78 2391 -78 
Q 1478 -78 890 545 
Q 303 1169 303 2250 
Q 303 3394 893 4026 
Q 1484 4659 2447 4659 
Q 3288 4659 3813 4163 
Q 4125 3869 4281 3319 
L 3366 3100 
Q 3284 3456 3026 3662 
Q 2769 3869 2400 3869 
Q 1891 3869 1573 3503 
Q 1256 3138 1256 2319 
Q 1256 1450 1568 1081 
Q 1881 713 2381 713 
Q 2750 713 3015 947 
Q 3281 1181 3397 1684 
z
" transform="scale(0.015625)"/>
      <path id="Arial-BoldMT-6f" d="M 256 1706 
Q 256 2144 472 2553 
Q 688 2963 1083 3178 
Q 1478 3394 1966 3394 
Q 2719 3394 3200 2905 
Q 3681 2416 3681 1669 
Q 3681 916 3195 420 
Q 2709 -75 1972 -75 
Q 1516 -75 1102 131 
Q 688 338 472 736 
Q 256 1134 256 1706 
z
M 1156 1659 
Q 1156 1166 1390 903 
Q 1625 641 1969 641 
Q 2313 641 2545 903 
Q 2778 1166 2778 1666 
Q 2778 2153 2545 2415 
Q 2313 2678 1969 2678 
Q 1625 2678 1390 2415 
Q 1156 2153 1156 1659 
z
" transform="scale(0.015625)"/>
      <path id="Arial-BoldMT-75" d="M 2644 0 
L 2644 497 
Q 2463 231 2167 78 
Q 1872 -75 1544 -75 
Q 1209 -75 943 72 
Q 678 219 559 484 
Q 441 750 441 1219 
L 441 3319 
L 1319 3319 
L 1319 1794 
Q 1319 1094 1367 936 
Q 1416 778 1544 686 
Q 1672 594 1869 594 
Q 2094 594 2272 717 
Q 2450 841 2515 1023 
Q 2581 1206 2581 1919 
L 2581 3319 
L 3459 3319 
L 3459 0 
L 2644 0 
z
" transform="scale(0.015625)"/>
      <path id="Arial-BoldMT-6e" d="M 3478 0 
L 2600 0 
L 2600 1694 
Q 2600 2231 2544 2389 
Q 2488 2547 2361 2634 
Q 2234 2722 2056 2722 
Q 1828 2722 1647 2597 
Q 1466 2472 1398 2265 
Q 1331 2059 1331 1503 
L 1331 0 
L 453 0 
L 453 3319 
L 1269 3319 
L 1269 2831 
Q 1703 3394 2363 3394 
Q 2653 3394 2893 3289 
Q 3134 3184 3257 3021 
Q 3381 2859 3429 2653 
Q 3478 2447 3478 2063 
L 3478 0 
z
" transform="scale(0.015625)"/>
      <path id="Arial-BoldMT-74" d="M 1981 3319 
L 1981 2619 
L 1381 2619 
L 1381 1281 
Q 1381 875 1398 808 
Q 1416 741 1477 697 
Q 1538 653 1625 653 
Q 1747 653 1978 738 
L 2053 56 
Q 1747 -75 1359 -75 
Q 1122 -75 931 4 
Q 741 84 652 211 
Q 563 338 528 553 
Q 500 706 500 1172 
L 500 2619 
L 97 2619 
L 97 3319 
L 500 3319 
L 500 3978 
L 1381 4491 
L 1381 3319 
L 1981 3319 
z
" transform="scale(0.015625)"/>
      <path id="Arial-BoldMT-65" d="M 2381 1056 
L 3256 909 
Q 3088 428 2723 176 
Q 2359 -75 1813 -75 
Q 947 -75 531 491 
Q 203 944 203 1634 
Q 203 2459 634 2926 
Q 1066 3394 1725 3394 
Q 2466 3394 2894 2905 
Q 3322 2416 3303 1406 
L 1103 1406 
Q 1113 1016 1316 798 
Q 1519 581 1822 581 
Q 2028 581 2168 693 
Q 2309 806 2381 1056 
z
M 2431 1944 
Q 2422 2325 2234 2523 
Q 2047 2722 1778 2722 
Q 1491 2722 1303 2513 
Q 1116 2303 1119 1944 
L 2431 1944 
z
" transform="scale(0.015625)"/>
      <path id="Arial-BoldMT-72" d="M 1300 0 
L 422 0 
L 422 3319 
L 1238 3319 
L 1238 2847 
Q 1447 3181 1614 3287 
Q 1781 3394 1994 3394 
Q 2294 3394 2572 3228 
L 2300 2463 
Q 2078 2606 1888 2606 
Q 1703 2606 1575 2504 
Q 1447 2403 1373 2137 
Q 1300 1872 1300 1025 
L 1300 0 
z
" transform="scale(0.015625)"/>
      <path id="Arial-BoldMT-66" d="M 75 3319 
L 563 3319 
L 563 3569 
Q 563 3988 652 4194 
Q 741 4400 980 4529 
Q 1219 4659 1584 4659 
Q 1959 4659 2319 4547 
L 2200 3934 
Q 1991 3984 1797 3984 
Q 1606 3984 1523 3895 
Q 1441 3806 1441 3553 
L 1441 3319 
L 2097 3319 
L 2097 2628 
L 1441 2628 
L 1441 0 
L 563 0 
L 563 2628 
L 75 2628 
L 75 3319 
z
" transform="scale(0.015625)"/>
      <path id="Arial-BoldMT-61" d="M 1116 2306 
L 319 2450 
Q 453 2931 781 3162 
Q 1109 3394 1756 3394 
Q 2344 3394 2631 3255 
Q 2919 3116 3036 2902 
Q 3153 2688 3153 2116 
L 3144 1091 
Q 3144 653 3186 445 
Q 3228 238 3344 0 
L 2475 0 
Q 2441 88 2391 259 
Q 2369 338 2359 363 
Q 2134 144 1878 34 
Q 1622 -75 1331 -75 
Q 819 -75 523 203 
Q 228 481 228 906 
Q 228 1188 362 1408 
Q 497 1628 739 1745 
Q 981 1863 1438 1950 
Q 2053 2066 2291 2166 
L 2291 2253 
Q 2291 2506 2166 2614 
Q 2041 2722 1694 2722 
Q 1459 2722 1328 2630 
Q 1197 2538 1116 2306 
z
M 2291 1594 
Q 2122 1538 1756 1459 
Q 1391 1381 1278 1306 
Q 1106 1184 1106 997 
Q 1106 813 1243 678 
Q 1381 544 1594 544 
Q 1831 544 2047 700 
Q 2206 819 2256 991 
Q 2291 1103 2291 1419 
L 2291 1594 
z
" transform="scale(0.015625)"/>
      <path id="Arial-BoldMT-63" d="M 3353 2338 
L 2488 2181 
Q 2444 2441 2289 2572 
Q 2134 2703 1888 2703 
Q 1559 2703 1364 2476 
Q 1169 2250 1169 1719 
Q 1169 1128 1367 884 
Q 1566 641 1900 641 
Q 2150 641 2309 783 
Q 2469 925 2534 1272 
L 3397 1125 
Q 3263 531 2881 228 
Q 2500 -75 1859 -75 
Q 1131 -75 698 384 
Q 266 844 266 1656 
Q 266 2478 700 2936 
Q 1134 3394 1875 3394 
Q 2481 3394 2839 3133 
Q 3197 2872 3353 2338 
z
" transform="scale(0.015625)"/>
      <path id="Arial-BoldMT-6c" d="M 459 0 
L 459 4581 
L 1338 4581 
L 1338 0 
L 459 0 
z
" transform="scale(0.015625)"/>
      <path id="Arial-BoldMT-41" d="M 4597 0 
L 3591 0 
L 3191 1041 
L 1359 1041 
L 981 0 
L 0 0 
L 1784 4581 
L 2763 4581 
L 4597 0 
z
M 2894 1813 
L 2263 3513 
L 1644 1813 
L 2894 1813 
z
" transform="scale(0.015625)"/>
      <path id="Arial-BoldMT-79" d="M 44 3319 
L 978 3319 
L 1772 963 
L 2547 3319 
L 3456 3319 
L 2284 125 
L 2075 -453 
Q 1959 -744 1854 -897 
Q 1750 -1050 1614 -1145 
Q 1478 -1241 1279 -1294 
Q 1081 -1347 831 -1347 
Q 578 -1347 334 -1294 
L 256 -606 
Q 463 -647 628 -647 
Q 934 -647 1081 -467 
Q 1228 -288 1306 -9 
L 44 3319 
z
" transform="scale(0.015625)"/>
      <path id="Arial-BoldMT-73" d="M 150 947 
L 1031 1081 
Q 1088 825 1259 692 
Q 1431 559 1741 559 
Q 2081 559 2253 684 
Q 2369 772 2369 919 
Q 2369 1019 2306 1084 
Q 2241 1147 2013 1200 
Q 950 1434 666 1628 
Q 272 1897 272 2375 
Q 272 2806 612 3100 
Q 953 3394 1669 3394 
Q 2350 3394 2681 3172 
Q 3013 2950 3138 2516 
L 2309 2363 
Q 2256 2556 2107 2659 
Q 1959 2763 1684 2763 
Q 1338 2763 1188 2666 
Q 1088 2597 1088 2488 
Q 1088 2394 1175 2328 
Q 1294 2241 1995 2081 
Q 2697 1922 2975 1691 
Q 3250 1456 3250 1038 
Q 3250 581 2869 253 
Q 2488 -75 1741 -75 
Q 1063 -75 667 200 
Q 272 475 150 947 
z
" transform="scale(0.015625)"/>
      <path id="Arial-BoldMT-69" d="M 459 3769 
L 459 4581 
L 1338 4581 
L 1338 3769 
L 459 3769 
z
M 459 0 
L 459 3319 
L 1338 3319 
L 1338 0 
L 459 0 
z
" transform="scale(0.015625)"/>
     </defs>
     <use xlink:href="#Arial-BoldMT-4e"/>
     <use xlink:href="#Arial-BoldMT-4f" transform="translate(72.216797 0)"/>
     <use xlink:href="#Arial-BoldMT-32" transform="translate(150 0)"/>
     <use xlink:href="#Arial-BoldMT-20" transform="translate(205.615234 0)"/>
     <use xlink:href="#Arial-BoldMT-2014" transform="translate(233.398438 0)"/>
     <use xlink:href="#Arial-BoldMT-20" transform="translate(333.398438 0)"/>
     <use xlink:href="#Arial-BoldMT-43" transform="translate(361.181641 0)"/>
     <use xlink:href="#Arial-BoldMT-6f" transform="translate(433.398438 0)"/>
     <use xlink:href="#Arial-BoldMT-75" transform="translate(494.482422 0)"/>
     <use xlink:href="#Arial-BoldMT-6e" transform="translate(555.566406 0)"/>
     <use xlink:href="#Arial-BoldMT-74" transform="translate(616.650391 0)"/>
     <use xlink:href="#Arial-BoldMT-65" transform="translate(649.951172 0)"/>
     <use xlink:href="#Arial-BoldMT-72" transform="translate(705.566406 0)"/>
     <use xlink:href="#Arial-BoldMT-66" transform="translate(744.482422 0)"/>
     <use xlink:href="#Arial-BoldMT-61" transform="translate(777.783203 0)"/>
     <use xlink:href="#Arial-BoldMT-63" transform="translate(833.398438 0)"/>
     <use xlink:href="#Arial-BoldMT-74" transform="translate(889.013672 0)"/>
     <use xlink:href="#Arial-BoldMT-75" transform="translate(922.314453 0)"/>
     <use xlink:href="#Arial-BoldMT-61" transform="translate(983.398438 0)"/>
     <use xlink:href="#Arial-BoldMT-6c" transform="translate(1039.013672 0)"/>
     <use xlink:href="#Arial-BoldMT-20" transform="translate(1066.796875 0)"/>
     <use xlink:href="#Arial-BoldMT-41" transform="translate(1090.830078 0)"/>
     <use xlink:href="#Arial-BoldMT-6e" transform="translate(1163.046875 0)"/>
     <use xlink:href="#Arial-BoldMT-61" transform="translate(1224.130859 0)"/>
     <use xlink:href="#Arial-BoldMT-6c" transform="translate(1279.746094 0)"/>
     <use xlink:href="#Arial-BoldMT-79" transform="translate(1307.529297 0)"/>
     <use xlink:href="#Arial-BoldMT-73" transform="translate(1363.144531 0)"/>
     <use xlink:href="#Arial-BoldMT-69" transform="translate(1418.759766 0)"/>
     <use xlink:href="#Arial-BoldMT-73" transform="translate(1446.542969 0)"/>
    </g>
   </g>
   <g id="PathCollection_1">
    <defs>
     <path id="m7d7f376f89" d="M 0 3.162278 
C 0.838646 3.162278 1.643056 2.82908 2.236068 2.236068 
C 2.82908 1.643056 3.162278 0.838646 3.162278 0 
C 3.162278 -0.838646 2.82908 -1.643056 2.236068 -2.236068 
C 1.643056 -2.82908 0.838646 -3.162278 0 -3.162278 
C -0.838646 -3.162278 -1.643056 -2.82908 -2.236068 -2.236068 
C -2.82908 -1.643056 -3.162278 -0.838646 -3.162278 0 
C -3.162278 0.838646 -2.82908 1.643056 -2.236068 2.236068 
C -1.643056 2.82908 -0.838646 3.162278 0 3.162278 
z
" style="stroke: #000080"/>
    </defs>
    <g clip-path="url(#pf85e73fbf0)">
     <use xlink:href="#m7d7f376f89" x="62.273818" y="137.657307" style="fill: #000080; stroke: #000080"/>
     <use xlink:href="#m7d7f376f89" x="82.767355" y="121.648204" style="fill: #000080; stroke: #000080"/>
     <use xlink:href="#m7d7f376f89" x="103.260891" y="77.62317" style="fill: #000080; stroke: #000080"/>
     <use xlink:href="#m7d7f376f89" x="123.754428" y="101.636825" style="fill: #000080; stroke: #000080"/>
     <use xlink:href="#m7d7f376f89" x="144.247965" y="89.629998" style="fill: #000080; stroke: #000080"/>
     <use xlink:href="#m7d7f376f89" x="164.741502" y="117.645928" style="fill: #000080; stroke: #000080"/>
     <use xlink:href="#m7d7f376f89" x="185.235039" y="129.652756" style="fill: #000080; stroke: #000080"/>
     <use xlink:href="#m7d7f376f89" x="205.728576" y="133.655032" style="fill: #000080; stroke: #000080"/>
     <use xlink:href="#m7d7f376f89" x="226.222113" y="109.641377" style="fill: #000080; stroke: #000080"/>
     <use xlink:href="#m7d7f376f89" x="246.71565" y="137.657307" style="fill: #000080; stroke: #000080"/>
     <use xlink:href="#m7d7f376f89" x="267.209187" y="145.661859" style="fill: #000080; stroke: #000080"/>
     <use xlink:href="#m7d7f376f89" x="287.702724" y="157.668686" style="fill: #000080; stroke: #000080"/>
     <use xlink:href="#m7d7f376f89" x="308.196261" y="165.673238" style="fill: #000080; stroke: #000080"/>
     <use xlink:href="#m7d7f376f89" x="328.689798" y="165.673238" style="fill: #000080; stroke: #000080"/>
     <use xlink:href="#m7d7f376f89" x="349.183335" y="169.675514" style="fill: #000080; stroke: #000080"/>
     <use xlink:href="#m7d7f376f89" x="369.676872" y="193.689169" style="fill: #000080; stroke: #000080"/>
     <use xlink:href="#m7d7f376f89" x="390.170409" y="213.700548" style="fill: #000080; stroke: #000080"/>
     <use xlink:href="#m7d7f376f89" x="410.663946" y="209.698272" style="fill: #000080; stroke: #000080"/>
     <use xlink:href="#m7d7f376f89" x="431.157483" y="265.730133" style="fill: #000080; stroke: #000080"/>
     <use xlink:href="#m7d7f376f89" x="451.65102" y="321.761994" style="fill: #000080; stroke: #000080"/>
     <use xlink:href="#m7d7f376f89" x="472.144557" y="333.768822" style="fill: #000080; stroke: #000080"/>
     <use xlink:href="#m7d7f376f89" x="492.638094" y="337.771097" style="fill: #000080; stroke: #000080"/>
     <use xlink:href="#m7d7f376f89" x="513.131631" y="373.79158" style="fill: #000080; stroke: #000080"/>
     <use xlink:href="#m7d7f376f89" x="533.625168" y="373.79158" style="fill: #000080; stroke: #000080"/>
    </g>
   </g>
   <g id="legend_1">
    <g id="patch_8">
     <path d="M 44.30625 384.6 
L 208.19125 384.6 
Q 209.79125 384.6 209.79125 383 
L 209.79125 349.66 
Q 209.79125 348.06 208.19125 348.06 
L 44.30625 348.06 
Q 42.70625 348.06 42.70625 349.66 
L 42.70625 383 
Q 42.70625 384.6 44.30625 384.6 
z
" style="fill: #ffffff; opacity: 0.8; stroke: #cccccc; stroke-linejoin: miter"/>
    </g>
    <g id="PathCollection_2">
     <g>
      <use xlink:href="#m7d7f376f89" x="53.90625" y="354.88625" style="fill: #000080; stroke: #000080"/>
     </g>
    </g>
    <g id="text_18">
     <!-- Observed -->
     <g style="fill: #262626" transform="translate(68.30625 356.98625) scale(0.08 -0.08)">
      <defs>
       <path id="ArialMT-4f" d="M 309 2231 
Q 309 3372 921 4017 
Q 1534 4663 2503 4663 
Q 3138 4663 3647 4359 
Q 4156 4056 4423 3514 
Q 4691 2972 4691 2284 
Q 4691 1588 4409 1038 
Q 4128 488 3612 205 
Q 3097 -78 2500 -78 
Q 1853 -78 1343 234 
Q 834 547 571 1087 
Q 309 1628 309 2231 
z
M 934 2222 
Q 934 1394 1379 917 
Q 1825 441 2497 441 
Q 3181 441 3623 922 
Q 4066 1403 4066 2288 
Q 4066 2847 3877 3264 
Q 3688 3681 3323 3911 
Q 2959 4141 2506 4141 
Q 1863 4141 1398 3698 
Q 934 3256 934 2222 
z
" transform="scale(0.015625)"/>
       <path id="ArialMT-62" d="M 941 0 
L 419 0 
L 419 4581 
L 981 4581 
L 981 2947 
Q 1338 3394 1891 3394 
Q 2197 3394 2470 3270 
Q 2744 3147 2920 2923 
Q 3097 2700 3197 2384 
Q 3297 2069 3297 1709 
Q 3297 856 2875 390 
Q 2453 -75 1863 -75 
Q 1275 -75 941 416 
L 941 0 
z
M 934 1684 
Q 934 1088 1097 822 
Q 1363 388 1816 388 
Q 2184 388 2453 708 
Q 2722 1028 2722 1663 
Q 2722 2313 2464 2622 
Q 2206 2931 1841 2931 
Q 1472 2931 1203 2611 
Q 934 2291 934 1684 
z
" transform="scale(0.015625)"/>
       <path id="ArialMT-73" d="M 197 991 
L 753 1078 
Q 800 744 1014 566 
Q 1228 388 1613 388 
Q 2000 388 2187 545 
Q 2375 703 2375 916 
Q 2375 1106 2209 1216 
Q 2094 1291 1634 1406 
Q 1016 1563 777 1677 
Q 538 1791 414 1992 
Q 291 2194 291 2438 
Q 291 2659 392 2848 
Q 494 3038 669 3163 
Q 800 3259 1026 3326 
Q 1253 3394 1513 3394 
Q 1903 3394 2198 3281 
Q 2494 3169 2634 2976 
Q 2775 2784 2828 2463 
L 2278 2388 
Q 2241 2644 2061 2787 
Q 1881 2931 1553 2931 
Q 1166 2931 1000 2803 
Q 834 2675 834 2503 
Q 834 2394 903 2306 
Q 972 2216 1119 2156 
Q 1203 2125 1616 2013 
Q 2213 1853 2448 1751 
Q 2684 1650 2818 1456 
Q 2953 1263 2953 975 
Q 2953 694 2789 445 
Q 2625 197 2315 61 
Q 2006 -75 1616 -75 
Q 969 -75 630 194 
Q 291 463 197 991 
z
" transform="scale(0.015625)"/>
       <path id="ArialMT-76" d="M 1344 0 
L 81 3319 
L 675 3319 
L 1388 1331 
Q 1503 1009 1600 663 
Q 1675 925 1809 1294 
L 2547 3319 
L 3125 3319 
L 1869 0 
L 1344 0 
z
" transform="scale(0.015625)"/>
       <path id="ArialMT-64" d="M 2575 0 
L 2575 419 
Q 2259 -75 1647 -75 
Q 1250 -75 917 144 
Q 584 363 401 755 
Q 219 1147 219 1656 
Q 219 2153 384 2558 
Q 550 2963 881 3178 
Q 1213 3394 1622 3394 
Q 1922 3394 2156 3267 
Q 2391 3141 2538 2938 
L 2538 4581 
L 3097 4581 
L 3097 0 
L 2575 0 
z
M 797 1656 
Q 797 1019 1065 703 
Q 1334 388 1700 388 
Q 2069 388 2326 689 
Q 2584 991 2584 1609 
Q 2584 2291 2321 2609 
Q 2059 2928 1675 2928 
Q 1300 2928 1048 2622 
Q 797 2316 797 1656 
z
" transform="scale(0.015625)"/>
      </defs>
      <use xlink:href="#ArialMT-4f"/>
      <use xlink:href="#ArialMT-62" transform="translate(77.783203 0)"/>
      <use xlink:href="#ArialMT-73" transform="translate(133.398438 0)"/>
      <use xlink:href="#ArialMT-65" transform="translate(183.398438 0)"/>
      <use xlink:href="#ArialMT-72" transform="translate(239.013672 0)"/>
      <use xlink:href="#ArialMT-76" transform="translate(272.314453 0)"/>
      <use xlink:href="#ArialMT-65" transform="translate(322.314453 0)"/>
      <use xlink:href="#ArialMT-64" transform="translate(377.929688 0)"/>
     </g>
    </g>
    <g id="line2d_18">
     <path d="M 45.90625 365.6 
L 53.90625 365.6 
L 61.90625 365.6 
" style="fill: none; stroke-dasharray: 7.4,3.2; stroke-dashoffset: 0; stroke: #e74c3c; stroke-width: 2"/>
    </g>
    <g id="text_19">
     <!-- Counterfactual (pre-trend extrapolated) -->
     <g style="fill: #262626" transform="translate(68.30625 368.4) scale(0.08 -0.08)">
      <defs>
       <path id="ArialMT-43" d="M 3763 1606 
L 4369 1453 
Q 4178 706 3683 314 
Q 3188 -78 2472 -78 
Q 1731 -78 1267 223 
Q 803 525 561 1097 
Q 319 1669 319 2325 
Q 319 3041 592 3573 
Q 866 4106 1370 4382 
Q 1875 4659 2481 4659 
Q 3169 4659 3637 4309 
Q 4106 3959 4291 3325 
L 3694 3184 
Q 3534 3684 3231 3912 
Q 2928 4141 2469 4141 
Q 1941 4141 1586 3887 
Q 1231 3634 1087 3207 
Q 944 2781 944 2328 
Q 944 1744 1114 1308 
Q 1284 872 1643 656 
Q 2003 441 2422 441 
Q 2931 441 3284 734 
Q 3638 1028 3763 1606 
z
" transform="scale(0.015625)"/>
       <path id="ArialMT-6f" d="M 213 1659 
Q 213 2581 725 3025 
Q 1153 3394 1769 3394 
Q 2453 3394 2887 2945 
Q 3322 2497 3322 1706 
Q 3322 1066 3130 698 
Q 2938 331 2570 128 
Q 2203 -75 1769 -75 
Q 1072 -75 642 372 
Q 213 819 213 1659 
z
M 791 1659 
Q 791 1022 1069 705 
Q 1347 388 1769 388 
Q 2188 388 2466 706 
Q 2744 1025 2744 1678 
Q 2744 2294 2464 2611 
Q 2184 2928 1769 2928 
Q 1347 2928 1069 2612 
Q 791 2297 791 1659 
z
" transform="scale(0.015625)"/>
       <path id="ArialMT-74" d="M 1650 503 
L 1731 6 
Q 1494 -44 1306 -44 
Q 1000 -44 831 53 
Q 663 150 594 308 
Q 525 466 525 972 
L 525 2881 
L 113 2881 
L 113 3319 
L 525 3319 
L 525 4141 
L 1084 4478 
L 1084 3319 
L 1650 3319 
L 1650 2881 
L 1084 2881 
L 1084 941 
Q 1084 700 1114 631 
Q 1144 563 1211 522 
Q 1278 481 1403 481 
Q 1497 481 1650 503 
z
" transform="scale(0.015625)"/>
       <path id="ArialMT-66" d="M 556 0 
L 556 2881 
L 59 2881 
L 59 3319 
L 556 3319 
L 556 3672 
Q 556 4006 616 4169 
Q 697 4388 901 4523 
Q 1106 4659 1475 4659 
Q 1713 4659 2000 4603 
L 1916 4113 
Q 1741 4144 1584 4144 
Q 1328 4144 1222 4034 
Q 1116 3925 1116 3625 
L 1116 3319 
L 1763 3319 
L 1763 2881 
L 1116 2881 
L 1116 0 
L 556 0 
z
" transform="scale(0.015625)"/>
       <path id="ArialMT-63" d="M 2588 1216 
L 3141 1144 
Q 3050 572 2676 248 
Q 2303 -75 1759 -75 
Q 1078 -75 664 370 
Q 250 816 250 1647 
Q 250 2184 428 2587 
Q 606 2991 970 3192 
Q 1334 3394 1763 3394 
Q 2303 3394 2647 3120 
Q 2991 2847 3088 2344 
L 2541 2259 
Q 2463 2594 2264 2762 
Q 2066 2931 1784 2931 
Q 1359 2931 1093 2626 
Q 828 2322 828 1663 
Q 828 994 1084 691 
Q 1341 388 1753 388 
Q 2084 388 2306 591 
Q 2528 794 2588 1216 
z
" transform="scale(0.015625)"/>
       <path id="ArialMT-70" d="M 422 -1272 
L 422 3319 
L 934 3319 
L 934 2888 
Q 1116 3141 1344 3267 
Q 1572 3394 1897 3394 
Q 2322 3394 2647 3175 
Q 2972 2956 3137 2557 
Q 3303 2159 3303 1684 
Q 3303 1175 3120 767 
Q 2938 359 2589 142 
Q 2241 -75 1856 -75 
Q 1575 -75 1351 44 
Q 1128 163 984 344 
L 984 -1272 
L 422 -1272 
z
M 931 1641 
Q 931 1000 1190 694 
Q 1450 388 1819 388 
Q 2194 388 2461 705 
Q 2728 1022 2728 1688 
Q 2728 2322 2467 2637 
Q 2206 2953 1844 2953 
Q 1484 2953 1207 2617 
Q 931 2281 931 1641 
z
" transform="scale(0.015625)"/>
       <path id="ArialMT-2d" d="M 203 1375 
L 203 1941 
L 1931 1941 
L 1931 1375 
L 203 1375 
z
" transform="scale(0.015625)"/>
       <path id="ArialMT-78" d="M 47 0 
L 1259 1725 
L 138 3319 
L 841 3319 
L 1350 2541 
Q 1494 2319 1581 2169 
Q 1719 2375 1834 2534 
L 2394 3319 
L 3066 3319 
L 1919 1756 
L 3153 0 
L 2463 0 
L 1781 1031 
L 1600 1309 
L 728 0 
L 47 0 
z
" transform="scale(0.015625)"/>
      </defs>
      <use xlink:href="#ArialMT-43"/>
      <use xlink:href="#ArialMT-6f" transform="translate(72.216797 0)"/>
      <use xlink:href="#ArialMT-75" transform="translate(127.832031 0)"/>
      <use xlink:href="#ArialMT-6e" transform="translate(183.447266 0)"/>
      <use xlink:href="#ArialMT-74" transform="translate(239.0625 0)"/>
      <use xlink:href="#ArialMT-65" transform="translate(266.845703 0)"/>
      <use xlink:href="#ArialMT-72" transform="translate(322.460938 0)"/>
      <use xlink:href="#ArialMT-66" transform="translate(355.761719 0)"/>
      <use xlink:href="#ArialMT-61" transform="translate(383.544922 0)"/>
      <use xlink:href="#ArialMT-63" transform="translate(439.160156 0)"/>
      <use xlink:href="#ArialMT-74" transform="translate(489.160156 0)"/>
      <use xlink:href="#ArialMT-75" transform="translate(516.943359 0)"/>
      <use xlink:href="#ArialMT-61" transform="translate(572.558594 0)"/>
      <use xlink:href="#ArialMT-6c" transform="translate(628.173828 0)"/>
      <use xlink:href="#ArialMT-20" transform="translate(650.390625 0)"/>
      <use xlink:href="#ArialMT-28" transform="translate(678.173828 0)"/>
      <use xlink:href="#ArialMT-70" transform="translate(711.474609 0)"/>
      <use xlink:href="#ArialMT-72" transform="translate(767.089844 0)"/>
      <use xlink:href="#ArialMT-65" transform="translate(800.390625 0)"/>
      <use xlink:href="#ArialMT-2d" transform="translate(856.005859 0)"/>
      <use xlink:href="#ArialMT-74" transform="translate(889.306641 0)"/>
      <use xlink:href="#ArialMT-72" transform="translate(917.089844 0)"/>
      <use xlink:href="#ArialMT-65" transform="translate(950.390625 0)"/>
      <use xlink:href="#ArialMT-6e" transform="translate(1006.005859 0)"/>
      <use xlink:href="#ArialMT-64" transform="translate(1061.621094 0)"/>
      <use xlink:href="#ArialMT-20" transform="translate(1117.236328 0)"/>
      <use xlink:href="#ArialMT-65" transform="translate(1145.019531 0)"/>
      <use xlink:href="#ArialMT-78" transform="translate(1200.634766 0)"/>
      <use xlink:href="#ArialMT-74" transform="translate(1250.634766 0)"/>
      <use xlink:href="#ArialMT-72" transform="translate(1278.417969 0)"/>
      <use xlink:href="#ArialMT-61" transform="translate(1311.71875 0)"/>
      <use xlink:href="#ArialMT-70" transform="translate(1367.333984 0)"/>
      <use xlink:href="#ArialMT-6f" transform="translate(1422.949219 0)"/>
      <use xlink:href="#ArialMT-6c" transform="translate(1478.564453 0)"/>
      <use xlink:href="#ArialMT-61" transform="translate(1500.78125 0)"/>
      <use xlink:href="#ArialMT-74" transform="translate(1556.396484 0)"/>
      <use xlink:href="#ArialMT-65" transform="translate(1584.179688 0)"/>
      <use xlink:href="#ArialMT-64" transform="translate(1639.794922 0)"/>
      <use xlink:href="#ArialMT-29" transform="translate(1695.410156 0)"/>
     </g>
    </g>
    <g id="patch_9">
     <path d="M 45.90625 379.81 
L 61.90625 379.81 
L 61.90625 374.21 
L 45.90625 374.21 
z
" style="fill: #008000; fill-opacity: 0.2; stroke: #008000; stroke-opacity: 0.2; stroke-linejoin: miter"/>
    </g>
    <g id="text_20">
     <!-- Reduction vs counterfactual -->
     <g style="fill: #262626" transform="translate(68.30625 379.81) scale(0.08 -0.08)">
      <defs>
       <path id="ArialMT-52" d="M 503 0 
L 503 4581 
L 2534 4581 
Q 3147 4581 3465 4457 
Q 3784 4334 3975 4021 
Q 4166 3709 4166 3331 
Q 4166 2844 3850 2509 
Q 3534 2175 2875 2084 
Q 3116 1969 3241 1856 
Q 3506 1613 3744 1247 
L 4541 0 
L 3778 0 
L 3172 953 
Q 2906 1366 2734 1584 
Q 2563 1803 2427 1890 
Q 2291 1978 2150 2013 
Q 2047 2034 1813 2034 
L 1109 2034 
L 1109 0 
L 503 0 
z
M 1109 2559 
L 2413 2559 
Q 2828 2559 3062 2645 
Q 3297 2731 3419 2920 
Q 3541 3109 3541 3331 
Q 3541 3656 3305 3865 
Q 3069 4075 2559 4075 
L 1109 4075 
L 1109 2559 
z
" transform="scale(0.015625)"/>
       <path id="ArialMT-69" d="M 425 3934 
L 425 4581 
L 988 4581 
L 988 3934 
L 425 3934 
z
M 425 0 
L 425 3319 
L 988 3319 
L 988 0 
L 425 0 
z
" transform="scale(0.015625)"/>
      </defs>
      <use xlink:href="#ArialMT-52"/>
      <use xlink:href="#ArialMT-65" transform="translate(72.216797 0)"/>
      <use xlink:href="#ArialMT-64" transform="translate(127.832031 0)"/>
      <use xlink:href="#ArialMT-75" transform="translate(183.447266 0)"/>
      <use xlink:href="#ArialMT-63" transform="translate(239.0625 0)"/>
      <use xlink:href="#ArialMT-74" transform="translate(289.0625 0)"/>
      <use xlink:href="#ArialMT-69" transform="translate(316.845703 0)"/>
      <use xlink:href="#ArialMT-6f" transform="translate(339.0625 0)"/>
      <use xlink:href="#ArialMT-6e" transform="translate(394.677734 0)"/>
      <use xlink:href="#ArialMT-20" transform="translate(450.292969 0)"/>
      <use xlink:href="#ArialMT-76" transform="translate(478.076172 0)"/>
      <use xlink:href="#ArialMT-73" transform="translate(528.076172 0)"/>
      <use xlink:href="#ArialMT-20" transform="translate(578.076172 0)"/>
      <use xlink:href="#ArialMT-63" transform="translate(605.859375 0)"/>
      <use xlink:href="#ArialMT-6f" transform="translate(655.859375 0)"/>
      <use xlink:href="#ArialMT-75" transform="translate(711.474609 0)"/>
      <use xlink:href="#ArialMT-6e" transform="translate(767.089844 0)"/>
      <use xlink:href="#ArialMT-74" transform="translate(822.705078 0)"/>
      <use xlink:href="#ArialMT-65" transform="translate(850.488281 0)"/>
      <use xlink:href="#ArialMT-72" transform="translate(906.103516 0)"/>
      <use xlink:href="#ArialMT-66" transform="translate(939.404297 0)"/>
      <use xlink:href="#ArialMT-61" transform="translate(967.1875 0)"/>
      <use xlink:href="#ArialMT-63" transform="translate(1022.802734 0)"/>
      <use xlink:href="#ArialMT-74" transform="translate(1072.802734 0)"/>
      <use xlink:href="#ArialMT-75" transform="translate(1100.585938 0)"/>
      <use xlink:href="#ArialMT-61" transform="translate(1156.201172 0)"/>
      <use xlink:href="#ArialMT-6c" transform="translate(1211.816406 0)"/>
     </g>
    </g>
   </g>
  </g>
  <g id="axes_2">
   <g id="patch_10">
    <path d="M 608.941699 388.6 
L 1127.428185 388.6 
L 1127.428185 62.81475 
L 608.941699 62.81475 
z
" style="fill: #ffffff"/>
   </g>
   <g id="matplotlib.axis_3">
    <g id="xtick_7">
     <g id="line2d_19">
      <path d="M 696.784451 388.6 
L 696.784451 62.81475 
" clip-path="url(#p689b09e195)" style="fill: none; stroke: #cccccc; stroke-width: 0.8; stroke-linecap: round"/>
     </g>
     <g id="text_21">
      <!-- 2005 -->
      <g style="fill: #262626" transform="translate(685.662576 402.757812) scale(0.1 -0.1)">
       <use xlink:href="#ArialMT-32"/>
       <use xlink:href="#ArialMT-30" transform="translate(55.615234 0)"/>
       <use xlink:href="#ArialMT-30" transform="translate(111.230469 0)"/>
       <use xlink:href="#ArialMT-35" transform="translate(166.845703 0)"/>
      </g>
     </g>
    </g>
    <g id="xtick_8">
     <g id="line2d_20">
      <path d="M 803.909758 388.6 
L 803.909758 62.81475 
" clip-path="url(#p689b09e195)" style="fill: none; stroke: #cccccc; stroke-width: 0.8; stroke-linecap: round"/>
     </g>
     <g id="text_22">
      <!-- 2010 -->
      <g style="fill: #262626" transform="translate(792.787883 402.757812) scale(0.1 -0.1)">
       <use xlink:href="#ArialMT-32"/>
       <use xlink:href="#ArialMT-30" transform="translate(55.615234 0)"/>
       <use xlink:href="#ArialMT-31" transform="translate(111.230469 0)"/>
       <use xlink:href="#ArialMT-30" transform="translate(166.845703 0)"/>
      </g>
     </g>
    </g>
    <g id="xtick_9">
     <g id="line2d_21">
      <path d="M 911.035065 388.6 
L 911.035065 62.81475 
" clip-path="url(#p689b09e195)" style="fill: none; stroke: #cccccc; stroke-width: 0.8; stroke-linecap: round"/>
     </g>
     <g id="text_23">
      <!-- 2015 -->
      <g style="fill: #262626" transform="translate(899.91319 402.757812) scale(0.1 -0.1)">
       <use xlink:href="#ArialMT-32"/>
       <use xlink:href="#ArialMT-30" transform="translate(55.615234 0)"/>
       <use xlink:href="#ArialMT-31" transform="translate(111.230469 0)"/>
       <use xlink:href="#ArialMT-35" transform="translate(166.845703 0)"/>
      </g>
     </g>
    </g>
    <g id="xtick_10">
     <g id="line2d_22">
      <path d="M 1018.160372 388.6 
L 1018.160372 62.81475 
" clip-path="url(#p689b09e195)" style="fill: none; stroke: #cccccc; stroke-width: 0.8; stroke-linecap: round"/>
     </g>
     <g id="text_24">
      <!-- 2020 -->
      <g style="fill: #262626" transform="translate(1007.038497 402.757812) scale(0.1 -0.1)">
       <use xlink:href="#ArialMT-32"/>
       <use xlink:href="#ArialMT-30" transform="translate(55.615234 0)"/>
       <use xlink:href="#ArialMT-32" transform="translate(111.230469 0)"/>
       <use xlink:href="#ArialMT-30" transform="translate(166.845703 0)"/>
      </g>
     </g>
    </g>
    <g id="xtick_11">
     <g id="line2d_23">
      <path d="M 1125.285678 388.6 
L 1125.285678 62.81475 
" clip-path="url(#p689b09e195)" style="fill: none; stroke: #cccccc; stroke-width: 0.8; stroke-linecap: round"/>
     </g>
     <g id="text_25">
      <!-- 2025 -->
      <g style="fill: #262626" transform="translate(1114.163803 402.757812) scale(0.1 -0.1)">
       <use xlink:href="#ArialMT-32"/>
       <use xlink:href="#ArialMT-30" transform="translate(55.615234 0)"/>
       <use xlink:href="#ArialMT-32" transform="translate(111.230469 0)"/>
       <use xlink:href="#ArialMT-35" transform="translate(166.845703 0)"/>
      </g>
     </g>
    </g>
    <g id="text_26">
     <!-- Year -->
     <g style="fill: #262626" transform="translate(858.080254 415.903125) scale(0.1 -0.1)">
      <use xlink:href="#ArialMT-59"/>
      <use xlink:href="#ArialMT-65" transform="translate(57.574219 0)"/>
      <use xlink:href="#ArialMT-61" transform="translate(113.189453 0)"/>
      <use xlink:href="#ArialMT-72" transform="translate(168.804688 0)"/>
     </g>
    </g>
   </g>
   <g id="matplotlib.axis_4">
    <g id="ytick_9">
     <g id="line2d_24">
      <path d="M 608.941699 373.739928 
L 1127.428185 373.739928 
" clip-path="url(#p689b09e195)" style="fill: none; stroke: #cccccc; stroke-width: 0.8; stroke-linecap: round"/>
     </g>
     <g id="text_27">
      <!-- 10 -->
      <g style="fill: #262626" transform="translate(590.819824 377.318835) scale(0.1 -0.1)">
       <use xlink:href="#ArialMT-31"/>
       <use xlink:href="#ArialMT-30" transform="translate(55.615234 0)"/>
      </g>
     </g>
    </g>
    <g id="ytick_10">
     <g id="line2d_25">
      <path d="M 608.941699 326.737268 
L 1127.428185 326.737268 
" clip-path="url(#p689b09e195)" style="fill: none; stroke: #cccccc; stroke-width: 0.8; stroke-linecap: round"/>
     </g>
     <g id="text_28">
      <!-- 15 -->
      <g style="fill: #262626" transform="translate(590.819824 330.316175) scale(0.1 -0.1)">
       <use xlink:href="#ArialMT-31"/>
       <use xlink:href="#ArialMT-35" transform="translate(55.615234 0)"/>
      </g>
     </g>
    </g>
    <g id="ytick_11">
     <g id="line2d_26">
      <path d="M 608.941699 279.734608 
L 1127.428185 279.734608 
" clip-path="url(#p689b09e195)" style="fill: none; stroke: #cccccc; stroke-width: 0.8; stroke-linecap: round"/>
     </g>
     <g id="text_29">
      <!-- 20 -->
      <g style="fill: #262626" transform="translate(590.819824 283.313515) scale(0.1 -0.1)">
       <use xlink:href="#ArialMT-32"/>
       <use xlink:href="#ArialMT-30" transform="translate(55.615234 0)"/>
      </g>
     </g>
    </g>
    <g id="ytick_12">
     <g id="line2d_27">
      <path d="M 608.941699 232.731948 
L 1127.428185 232.731948 
" clip-path="url(#p689b09e195)" style="fill: none; stroke: #cccccc; stroke-width: 0.8; stroke-linecap: round"/>
     </g>
     <g id="text_30">
      <!-- 25 -->
      <g style="fill: #262626" transform="translate(590.819824 236.310855) scale(0.1 -0.1)">
       <use xlink:href="#ArialMT-32"/>
       <use xlink:href="#ArialMT-35" transform="translate(55.615234 0)"/>
      </g>
     </g>
    </g>
    <g id="ytick_13">
     <g id="line2d_28">
      <path d="M 608.941699 185.729288 
L 1127.428185 185.729288 
" clip-path="url(#p689b09e195)" style="fill: none; stroke: #cccccc; stroke-width: 0.8; stroke-linecap: round"/>
     </g>
     <g id="text_31">
      <!-- 30 -->
      <g style="fill: #262626" transform="translate(590.819824 189.308195) scale(0.1 -0.1)">
       <use xlink:href="#ArialMT-33"/>
       <use xlink:href="#ArialMT-30" transform="translate(55.615234 0)"/>
      </g>
     </g>
    </g>
    <g id="ytick_14">
     <g id="line2d_29">
      <path d="M 608.941699 138.726628 
L 1127.428185 138.726628 
" clip-path="url(#p689b09e195)" style="fill: none; stroke: #cccccc; stroke-width: 0.8; stroke-linecap: round"/>
     </g>
     <g id="text_32">
      <!-- 35 -->
      <g style="fill: #262626" transform="translate(590.819824 142.305535) scale(0.1 -0.1)">
       <use xlink:href="#ArialMT-33"/>
       <use xlink:href="#ArialMT-35" transform="translate(55.615234 0)"/>
      </g>
     </g>
    </g>
    <g id="ytick_15">
     <g id="line2d_30">
      <path d="M 608.941699 91.723968 
L 1127.428185 91.723968 
" clip-path="url(#p689b09e195)" style="fill: none; stroke: #cccccc; stroke-width: 0.8; stroke-linecap: round"/>
     </g>
     <g id="text_33">
      <!-- 40 -->
      <g style="fill: #262626" transform="translate(590.819824 95.302875) scale(0.1 -0.1)">
       <use xlink:href="#ArialMT-34"/>
       <use xlink:href="#ArialMT-30" transform="translate(55.615234 0)"/>
      </g>
     </g>
    </g>
    <g id="text_34">
     <!-- Annual Mean (µg/m³) -->
     <g style="fill: #262626" transform="translate(584.715136 272.769875) rotate(-90) scale(0.1 -0.1)">
      <use xlink:href="#ArialMT-41"/>
      <use xlink:href="#ArialMT-6e" transform="translate(66.699219 0)"/>
      <use xlink:href="#ArialMT-6e" transform="translate(122.314453 0)"/>
      <use xlink:href="#ArialMT-75" transform="translate(177.929688 0)"/>
      <use xlink:href="#ArialMT-61" transform="translate(233.544922 0)"/>
      <use xlink:href="#ArialMT-6c" transform="translate(289.160156 0)"/>
      <use xlink:href="#ArialMT-20" transform="translate(311.376953 0)"/>
      <use xlink:href="#ArialMT-4d" transform="translate(339.160156 0)"/>
      <use xlink:href="#ArialMT-65" transform="translate(422.460938 0)"/>
      <use xlink:href="#ArialMT-61" transform="translate(478.076172 0)"/>
      <use xlink:href="#ArialMT-6e" transform="translate(533.691406 0)"/>
      <use xlink:href="#ArialMT-20" transform="translate(589.306641 0)"/>
      <use xlink:href="#ArialMT-28" transform="translate(617.089844 0)"/>
      <use xlink:href="#ArialMT-b5" transform="translate(650.390625 0)"/>
      <use xlink:href="#ArialMT-67" transform="translate(708.007812 0)"/>
      <use xlink:href="#ArialMT-2f" transform="translate(763.623047 0)"/>
      <use xlink:href="#ArialMT-6d" transform="translate(791.40625 0)"/>
      <use xlink:href="#ArialMT-b3" transform="translate(874.707031 0)"/>
      <use xlink:href="#ArialMT-29" transform="translate(908.007812 0)"/>
     </g>
    </g>
   </g>
   <g id="patch_11">
    <path d="M 911.035065 388.6 
L 1103.860617 388.6 
L 1103.860617 62.81475 
L 911.035065 62.81475 
z
" clip-path="url(#p689b09e195)" style="fill: #008000; opacity: 0.05; stroke: #008000; stroke-linejoin: miter"/>
   </g>
   <g id="FillBetweenPolyCollection_2">
    <defs>
     <path id="m2d72d5ee5b" d="M 911.035065 -152.406416 
L 911.035065 -178.257879 
L 932.460126 -154.756549 
L 953.885187 -154.756549 
L 975.310249 -145.356017 
L 996.73531 -117.154421 
L 1018.160372 -98.353357 
L 1039.585433 -103.053623 
L 1061.010494 -103.053623 
L 1082.435556 -93.653091 
L 1103.860617 -84.252559 
L 1103.860617 -51.299045 
L 1103.860617 -51.299045 
L 1082.435556 -62.533198 
L 1061.010494 -73.76735 
L 1039.585433 -85.001502 
L 1018.160372 -96.235654 
L 996.73531 -107.469807 
L 975.310249 -118.703959 
L 953.885187 -129.938111 
L 932.460126 -141.172263 
L 911.035065 -152.406416 
z
" style="stroke: #008000; stroke-opacity: 0.2"/>
    </defs>
    <g clip-path="url(#p689b09e195)">
     <use xlink:href="#m2d72d5ee5b" x="0" y="425.090625" style="fill: #008000; fill-opacity: 0.2; stroke: #008000; stroke-opacity: 0.2"/>
    </g>
   </g>
   <g id="line2d_31">
    <path d="M 632.509267 126.64023 
L 653.934328 137.874382 
L 675.359389 149.108535 
L 696.784451 160.342687 
L 718.209512 171.576839 
L 739.634573 182.810991 
L 761.059635 194.045144 
L 782.484696 205.279296 
L 803.909758 216.513448 
L 825.334819 227.7476 
L 846.75988 238.981753 
L 868.184942 250.215905 
L 889.610003 261.450057 
L 911.035065 272.684209 
L 932.460126 283.918362 
L 953.885187 295.152514 
L 975.310249 306.386666 
L 996.73531 317.620818 
L 1018.160372 328.854971 
L 1039.585433 340.089123 
L 1061.010494 351.323275 
L 1082.435556 362.557427 
L 1103.860617 373.79158 
" clip-path="url(#p689b09e195)" style="fill: none; stroke-dasharray: 7.4,3.2; stroke-dashoffset: 0; stroke: #e74c3c; stroke-width: 2"/>
   </g>
   <g id="line2d_32">
    <path d="M 911.035065 388.6 
L 911.035065 62.81475 
" clip-path="url(#p689b09e195)" style="fill: none; stroke-dasharray: 5.55,2.4; stroke-dashoffset: 0; stroke: #808080; stroke-opacity: 0.5; stroke-width: 1.5"/>
   </g>
   <g id="patch_12">
    <path d="M 608.941699 388.6 
L 608.941699 62.81475 
" style="fill: none; stroke: #cccccc; stroke-width: 0.8; stroke-linejoin: miter; stroke-linecap: square"/>
   </g>
   <g id="patch_13">
    <path d="M 1127.428185 388.6 
L 1127.428185 62.81475 
" style="fill: none; stroke: #cccccc; stroke-width: 0.8; stroke-linejoin: miter; stroke-linecap: square"/>
   </g>
   <g id="patch_14">
    <path d="M 608.941699 388.6 
L 1127.428185 388.6 
" style="fill: none; stroke: #cccccc; stroke-width: 0.8; stroke-linejoin: miter; stroke-linecap: square"/>
   </g>
   <g id="patch_15">
    <path d="M 608.941699 62.81475 
L 1127.428185 62.81475 
" style="fill: none; stroke: #cccccc; stroke-width: 0.8; stroke-linejoin: miter; stroke-linecap: square"/>
   </g>
   <g id="text_35">
    <!-- PM10 — Counterfactual Analysis -->
    <g style="fill: #262626" transform="translate(774.724629 56.81475) scale(0.12 -0.12)">
     <defs>
      <path id="Arial-BoldMT-50" d="M 466 0 
L 466 4581 
L 1950 4581 
Q 2794 4581 3050 4513 
Q 3444 4409 3709 4064 
Q 3975 3719 3975 3172 
Q 3975 2750 3822 2462 
Q 3669 2175 3433 2011 
Q 3197 1847 2953 1794 
Q 2622 1728 1994 1728 
L 1391 1728 
L 1391 0 
L 466 0 
z
M 1391 3806 
L 1391 2506 
L 1897 2506 
Q 2444 2506 2628 2578 
Q 2813 2650 2917 2803 
Q 3022 2956 3022 3159 
Q 3022 3409 2875 3571 
Q 2728 3734 2503 3775 
Q 2338 3806 1838 3806 
L 1391 3806 
z
" transform="scale(0.015625)"/>
      <path id="Arial-BoldMT-4d" d="M 453 0 
L 453 4581 
L 1838 4581 
L 2669 1456 
L 3491 4581 
L 4878 4581 
L 4878 0 
L 4019 0 
L 4019 3606 
L 3109 0 
L 2219 0 
L 1313 3606 
L 1313 0 
L 453 0 
z
" transform="scale(0.015625)"/>
      <path id="Arial-BoldMT-31" d="M 2519 0 
L 1641 0 
L 1641 3309 
Q 1159 2859 506 2644 
L 506 3441 
Q 850 3553 1253 3867 
Q 1656 4181 1806 4600 
L 2519 4600 
L 2519 0 
z
" transform="scale(0.015625)"/>
      <path id="Arial-BoldMT-30" d="M 1756 4600 
Q 2422 4600 2797 4125 
Q 3244 3563 3244 2259 
Q 3244 959 2794 391 
Q 2422 -78 1756 -78 
Q 1088 -78 678 436 
Q 269 950 269 2269 
Q 269 3563 719 4131 
Q 1091 4600 1756 4600 
z
M 1756 3872 
Q 1597 3872 1472 3770 
Q 1347 3669 1278 3406 
Q 1188 3066 1188 2259 
Q 1188 1453 1269 1151 
Q 1350 850 1473 750 
Q 1597 650 1756 650 
Q 1916 650 2041 751 
Q 2166 853 2234 1116 
Q 2325 1453 2325 2259 
Q 2325 3066 2244 3367 
Q 2163 3669 2039 3770 
Q 1916 3872 1756 3872 
z
" transform="scale(0.015625)"/>
     </defs>
     <use xlink:href="#Arial-BoldMT-50"/>
     <use xlink:href="#Arial-BoldMT-4d" transform="translate(66.699219 0)"/>
     <use xlink:href="#Arial-BoldMT-31" transform="translate(150 0)"/>
     <use xlink:href="#Arial-BoldMT-30" transform="translate(205.615234 0)"/>
     <use xlink:href="#Arial-BoldMT-20" transform="translate(261.230469 0)"/>
     <use xlink:href="#Arial-BoldMT-2014" transform="translate(289.013672 0)"/>
     <use xlink:href="#Arial-BoldMT-20" transform="translate(389.013672 0)"/>
     <use xlink:href="#Arial-BoldMT-43" transform="translate(416.796875 0)"/>
     <use xlink:href="#Arial-BoldMT-6f" transform="translate(489.013672 0)"/>
     <use xlink:href="#Arial-BoldMT-75" transform="translate(550.097656 0)"/>
     <use xlink:href="#Arial-BoldMT-6e" transform="translate(611.181641 0)"/>
     <use xlink:href="#Arial-BoldMT-74" transform="translate(672.265625 0)"/>
     <use xlink:href="#Arial-BoldMT-65" transform="translate(705.566406 0)"/>
     <use xlink:href="#Arial-BoldMT-72" transform="translate(761.181641 0)"/>
     <use xlink:href="#Arial-BoldMT-66" transform="translate(800.097656 0)"/>
     <use xlink:href="#Arial-BoldMT-61" transform="translate(833.398438 0)"/>
     <use xlink:href="#Arial-BoldMT-63" transform="translate(889.013672 0)"/>
     <use xlink:href="#Arial-BoldMT-74" transform="translate(944.628906 0)"/>
     <use xlink:href="#Arial-BoldMT-75" transform="translate(977.929688 0)"/>
     <use xlink:href="#Arial-BoldMT-61" transform="translate(1039.013672 0)"/>
     <use xlink:href="#Arial-BoldMT-6c" transform="translate(1094.628906 0)"/>
     <use xlink:href="#Arial-BoldMT-20" transform="translate(1122.412109 0)"/>
     <use xlink:href="#Arial-BoldMT-41" transform="translate(1146.445312 0)"/>
     <use xlink:href="#Arial-BoldMT-6e" transform="translate(1218.662109 0)"/>
     <use xlink:href="#Arial-BoldMT-61" transform="translate(1279.746094 0)"/>
     <use xlink:href="#Arial-BoldMT-6c" transform="translate(1335.361328 0)"/>
     <use xlink:href="#Arial-BoldMT-79" transform="translate(1363.144531 0)"/>
     <use xlink:href="#Arial-BoldMT-73" transform="translate(1418.759766 0)"/>
     <use xlink:href="#Arial-BoldMT-69" transform="translate(1474.375 0)"/>
     <use xlink:href="#Arial-BoldMT-73" transform="translate(1502.158203 0)"/>
    </g>
   </g>
   <g id="PathCollection_3">
    <g clip-path="url(#p689b09e195)">
     <use xlink:href="#m7d7f376f89" x="632.509267" y="124.62583" style="fill: #000080; stroke: #000080"/>
     <use xlink:href="#m7d7f376f89" x="653.934328" y="77.62317" style="fill: #000080; stroke: #000080"/>
     <use xlink:href="#m7d7f376f89" x="675.359389" y="176.328756" style="fill: #000080; stroke: #000080"/>
     <use xlink:href="#m7d7f376f89" x="696.784451" y="166.928224" style="fill: #000080; stroke: #000080"/>
     <use xlink:href="#m7d7f376f89" x="718.209512" y="195.12982" style="fill: #000080; stroke: #000080"/>
     <use xlink:href="#m7d7f376f89" x="739.634573" y="209.230618" style="fill: #000080; stroke: #000080"/>
     <use xlink:href="#m7d7f376f89" x="761.059635" y="213.930884" style="fill: #000080; stroke: #000080"/>
     <use xlink:href="#m7d7f376f89" x="782.484696" y="185.729288" style="fill: #000080; stroke: #000080"/>
     <use xlink:href="#m7d7f376f89" x="803.909758" y="213.930884" style="fill: #000080; stroke: #000080"/>
     <use xlink:href="#m7d7f376f89" x="825.334819" y="213.930884" style="fill: #000080; stroke: #000080"/>
     <use xlink:href="#m7d7f376f89" x="846.75988" y="246.832746" style="fill: #000080; stroke: #000080"/>
     <use xlink:href="#m7d7f376f89" x="868.184942" y="246.832746" style="fill: #000080; stroke: #000080"/>
     <use xlink:href="#m7d7f376f89" x="889.610003" y="251.533012" style="fill: #000080; stroke: #000080"/>
     <use xlink:href="#m7d7f376f89" x="911.035065" y="246.832746" style="fill: #000080; stroke: #000080"/>
     <use xlink:href="#m7d7f376f89" x="932.460126" y="270.334076" style="fill: #000080; stroke: #000080"/>
     <use xlink:href="#m7d7f376f89" x="953.885187" y="270.334076" style="fill: #000080; stroke: #000080"/>
     <use xlink:href="#m7d7f376f89" x="975.310249" y="279.734608" style="fill: #000080; stroke: #000080"/>
     <use xlink:href="#m7d7f376f89" x="996.73531" y="307.936204" style="fill: #000080; stroke: #000080"/>
     <use xlink:href="#m7d7f376f89" x="1018.160372" y="326.737268" style="fill: #000080; stroke: #000080"/>
     <use xlink:href="#m7d7f376f89" x="1039.585433" y="322.037002" style="fill: #000080; stroke: #000080"/>
     <use xlink:href="#m7d7f376f89" x="1061.010494" y="322.037002" style="fill: #000080; stroke: #000080"/>
     <use xlink:href="#m7d7f376f89" x="1082.435556" y="331.437534" style="fill: #000080; stroke: #000080"/>
     <use xlink:href="#m7d7f376f89" x="1103.860617" y="340.838066" style="fill: #000080; stroke: #000080"/>
    </g>
   </g>
   <g id="legend_2">
    <g id="patch_16">
     <path d="M 614.541699 384.6 
L 778.426699 384.6 
Q 780.026699 384.6 780.026699 383 
L 780.026699 349.66 
Q 780.026699 348.06 778.426699 348.06 
L 614.541699 348.06 
Q 612.941699 348.06 612.941699 349.66 
L 612.941699 383 
Q 612.941699 384.6 614.541699 384.6 
z
" style="fill: #ffffff; opacity: 0.8; stroke: #cccccc; stroke-linejoin: miter"/>
    </g>
    <g id="PathCollection_4">
     <g>
      <use xlink:href="#m7d7f376f89" x="624.141699" y="354.88625" style="fill: #000080; stroke: #000080"/>
     </g>
    </g>
    <g id="text_36">
     <!-- Observed -->
     <g style="fill: #262626" transform="translate(638.541699 356.98625) scale(0.08 -0.08)">
      <use xlink:href="#ArialMT-4f"/>
      <use xlink:href="#ArialMT-62" transform="translate(77.783203 0)"/>
      <use xlink:href="#ArialMT-73" transform="translate(133.398438 0)"/>
      <use xlink:href="#ArialMT-65" transform="translate(183.398438 0)"/>
      <use xlink:href="#ArialMT-72" transform="translate(239.013672 0)"/>
      <use xlink:href="#ArialMT-76" transform="translate(272.314453 0)"/>
      <use xlink:href="#ArialMT-65" transform="translate(322.314453 0)"/>
      <use xlink:href="#ArialMT-64" transform="translate(377.929688 0)"/>
     </g>
    </g>
    <g id="line2d_33">
     <path d="M 616.141699 365.6 
L 624.141699 365.6 
L 632.141699 365.6 
" style="fill: none; stroke-dasharray: 7.4,3.2; stroke-dashoffset: 0; stroke: #e74c3c; stroke-width: 2"/>
    </g>
    <g id="text_37">
     <!-- Counterfactual (pre-trend extrapolated) -->
     <g style="fill: #262626" transform="translate(638.541699 368.4) scale(0.08 -0.08)">
      <use xlink:href="#ArialMT-43"/>
      <use xlink:href="#ArialMT-6f" transform="translate(72.216797 0)"/>
      <use xlink:href="#ArialMT-75" transform="translate(127.832031 0)"/>
      <use xlink:href="#ArialMT-6e" transform="translate(183.447266 0)"/>
      <use xlink:href="#ArialMT-74" transform="translate(239.0625 0)"/>
      <use xlink:href="#ArialMT-65" transform="translate(266.845703 0)"/>
      <use xlink:href="#ArialMT-72" transform="translate(322.460938 0)"/>
      <use xlink:href="#ArialMT-66" transform="translate(355.761719 0)"/>
      <use xlink:href="#ArialMT-61" transform="translate(383.544922 0)"/>
      <use xlink:href="#ArialMT-63" transform="translate(439.160156 0)"/>
      <use xlink:href="#ArialMT-74" transform="translate(489.160156 0)"/>
      <use xlink:href="#ArialMT-75" transform="translate(516.943359 0)"/>
      <use xlink:href="#ArialMT-61" transform="translate(572.558594 0)"/>
      <use xlink:href="#ArialMT-6c" transform="translate(628.173828 0)"/>
      <use xlink:href="#ArialMT-20" transform="translate(650.390625 0)"/>
      <use xlink:href="#ArialMT-28" transform="translate(678.173828 0)"/>
      <use xlink:href="#ArialMT-70" transform="translate(711.474609 0)"/>
      <use xlink:href="#ArialMT-72" transform="translate(767.089844 0)"/>
      <use xlink:href="#ArialMT-65" transform="translate(800.390625 0)"/>
      <use xlink:href="#ArialMT-2d" transform="translate(856.005859 0)"/>
      <use xlink:href="#ArialMT-74" transform="translate(889.306641 0)"/>
      <use xlink:href="#ArialMT-72" transform="translate(917.089844 0)"/>
      <use xlink:href="#ArialMT-65" transform="translate(950.390625 0)"/>
      <use xlink:href="#ArialMT-6e" transform="translate(1006.005859 0)"/>
      <use xlink:href="#ArialMT-64" transform="translate(1061.621094 0)"/>
      <use xlink:href="#ArialMT-20" transform="translate(1117.236328 0)"/>
      <use xlink:href="#ArialMT-65" transform="translate(1145.019531 0)"/>
      <use xlink:href="#ArialMT-78" transform="translate(1200.634766 0)"/>
      <use xlink:href="#ArialMT-74" transform="translate(1250.634766 0)"/>
      <use xlink:href="#ArialMT-72" transform="translate(1278.417969 0)"/>
      <use xlink:href="#ArialMT-61" transform="translate(1311.71875 0)"/>
      <use xlink:href="#ArialMT-70" transform="translate(1367.333984 0)"/>
      <use xlink:href="#ArialMT-6f" transform="translate(1422.949219 0)"/>
      <use xlink:href="#ArialMT-6c" transform="translate(1478.564453 0)"/>
      <use xlink:href="#ArialMT-61" transform="translate(1500.78125 0)"/>
      <use xlink:href="#ArialMT-74" transform="translate(1556.396484 0)"/>
      <use xlink:href="#ArialMT-65" transform="translate(1584.179688 0)"/>
      <use xlink:href="#ArialMT-64" transform="translate(1639.794922 0)"/>
      <use xlink:href="#ArialMT-29" transform="translate(1695.410156 0)"/>
     </g>
    </g>
    <g id="patch_17">
     <path d="M 616.141699 379.81 
L 632.141699 379.81 
L 632.141699 374.21 
L 616.141699 374.21 
z
" style="fill: #008000; fill-opacity: 0.2; stroke: #008000; stroke-opacity: 0.2; stroke-linejoin: miter"/>
    </g>
    <g id="text_38">
     <!-- Reduction vs counterfactual -->
     <g style="fill: #262626" transform="translate(638.541699 379.81) scale(0.08 -0.08)">
      <use xlink:href="#ArialMT-52"/>
      <use xlink:href="#ArialMT-65" transform="translate(72.216797 0)"/>
      <use xlink:href="#ArialMT-64" transform="translate(127.832031 0)"/>
      <use xlink:href="#ArialMT-75" transform="translate(183.447266 0)"/>
      <use xlink:href="#ArialMT-63" transform="translate(239.0625 0)"/>
      <use xlink:href="#ArialMT-74" transform="translate(289.0625 0)"/>
      <use xlink:href="#ArialMT-69" transform="translate(316.845703 0)"/>
      <use xlink:href="#ArialMT-6f" transform="translate(339.0625 0)"/>
      <use xlink:href="#ArialMT-6e" transform="translate(394.677734 0)"/>
      <use xlink:href="#ArialMT-20" transform="translate(450.292969 0)"/>
      <use xlink:href="#ArialMT-76" transform="translate(478.076172 0)"/>
      <use xlink:href="#ArialMT-73" transform="translate(528.076172 0)"/>
      <use xlink:href="#ArialMT-20" transform="translate(578.076172 0)"/>
      <use xlink:href="#ArialMT-63" transform="translate(605.859375 0)"/>
      <use xlink:href="#ArialMT-6f" transform="translate(655.859375 0)"/>
      <use xlink:href="#ArialMT-75" transform="translate(711.474609 0)"/>
      <use xlink:href="#ArialMT-6e" transform="translate(767.089844 0)"/>
      <use xlink:href="#ArialMT-74" transform="translate(822.705078 0)"/>
      <use xlink:href="#ArialMT-65" transform="translate(850.488281 0)"/>
      <use xlink:href="#ArialMT-72" transform="translate(906.103516 0)"/>
      <use xlink:href="#ArialMT-66" transform="translate(939.404297 0)"/>
      <use xlink:href="#ArialMT-61" transform="translate(967.1875 0)"/>
      <use xlink:href="#ArialMT-63" transform="translate(1022.802734 0)"/>
      <use xlink:href="#ArialMT-74" transform="translate(1072.802734 0)"/>
      <use xlink:href="#ArialMT-75" transform="translate(1100.585938 0)"/>
      <use xlink:href="#ArialMT-61" transform="translate(1156.201172 0)"/>
      <use xlink:href="#ArialMT-6c" transform="translate(1211.816406 0)"/>
     </g>
    </g>
   </g>
  </g>
  <g id="text_39">
   <!-- What If There Were No Interventions? -->
   <g style="fill: #262626" transform="translate(446.951406 17.220937) scale(0.14 -0.14)">
    <defs>
     <path id="Arial-BoldMT-57" d="M 1116 0 
L 22 4581 
L 969 4581 
L 1659 1434 
L 2497 4581 
L 3597 4581 
L 4400 1381 
L 5103 4581 
L 6034 4581 
L 4922 0 
L 3941 0 
L 3028 3425 
L 2119 0 
L 1116 0 
z
" transform="scale(0.015625)"/>
     <path id="Arial-BoldMT-68" d="M 1334 4581 
L 1334 2897 
Q 1759 3394 2350 3394 
Q 2653 3394 2897 3281 
Q 3141 3169 3264 2994 
Q 3388 2819 3433 2606 
Q 3478 2394 3478 1947 
L 3478 0 
L 2600 0 
L 2600 1753 
Q 2600 2275 2550 2415 
Q 2500 2556 2373 2639 
Q 2247 2722 2056 2722 
Q 1838 2722 1666 2615 
Q 1494 2509 1414 2295 
Q 1334 2081 1334 1663 
L 1334 0 
L 456 0 
L 456 4581 
L 1334 4581 
z
" transform="scale(0.015625)"/>
     <path id="Arial-BoldMT-49" d="M 438 0 
L 438 4581 
L 1363 4581 
L 1363 0 
L 438 0 
z
" transform="scale(0.015625)"/>
     <path id="Arial-BoldMT-54" d="M 1497 0 
L 1497 3806 
L 138 3806 
L 138 4581 
L 3778 4581 
L 3778 3806 
L 2422 3806 
L 2422 0 
L 1497 0 
z
" transform="scale(0.015625)"/>
     <path id="Arial-BoldMT-76" d="M 1372 0 
L 34 3319 
L 956 3319 
L 1581 1625 
L 1763 1059 
Q 1834 1275 1853 1344 
Q 1897 1484 1947 1625 
L 2578 3319 
L 3481 3319 
L 2163 0 
L 1372 0 
z
" transform="scale(0.015625)"/>
     <path id="Arial-BoldMT-3f" d="M 2347 1181 
L 1550 1181 
Q 1547 1353 1547 1391 
Q 1547 1778 1675 2028 
Q 1803 2278 2187 2590 
Q 2572 2903 2647 3000 
Q 2763 3153 2763 3338 
Q 2763 3594 2558 3776 
Q 2353 3959 2006 3959 
Q 1672 3959 1447 3768 
Q 1222 3578 1138 3188 
L 331 3288 
Q 366 3847 808 4237 
Q 1250 4628 1969 4628 
Q 2725 4628 3172 4233 
Q 3619 3838 3619 3313 
Q 3619 3022 3455 2762 
Q 3291 2503 2753 2056 
Q 2475 1825 2408 1684 
Q 2341 1544 2347 1181 
z
M 1550 0 
L 1550 878 
L 2428 878 
L 2428 0 
L 1550 0 
z
" transform="scale(0.015625)"/>
    </defs>
    <use xlink:href="#Arial-BoldMT-57"/>
    <use xlink:href="#Arial-BoldMT-68" transform="translate(94.384766 0)"/>
    <use xlink:href="#Arial-BoldMT-61" transform="translate(155.46875 0)"/>
    <use xlink:href="#Arial-BoldMT-74" transform="translate(211.083984 0)"/>
    <use xlink:href="#Arial-BoldMT-20" transform="translate(244.384766 0)"/>
    <use xlink:href="#Arial-BoldMT-49" transform="translate(272.167969 0)"/>
    <use xlink:href="#Arial-BoldMT-66" transform="translate(299.951172 0)"/>
    <use xlink:href="#Arial-BoldMT-20" transform="translate(333.251953 0)"/>
    <use xlink:href="#Arial-BoldMT-54" transform="translate(361.035156 0)"/>
    <use xlink:href="#Arial-BoldMT-68" transform="translate(422.119141 0)"/>
    <use xlink:href="#Arial-BoldMT-65" transform="translate(483.203125 0)"/>
    <use xlink:href="#Arial-BoldMT-72" transform="translate(538.818359 0)"/>
    <use xlink:href="#Arial-BoldMT-65" transform="translate(577.734375 0)"/>
    <use xlink:href="#Arial-BoldMT-20" transform="translate(633.349609 0)"/>
    <use xlink:href="#Arial-BoldMT-57" transform="translate(661.132812 0)"/>
    <use xlink:href="#Arial-BoldMT-65" transform="translate(753.767578 0)"/>
    <use xlink:href="#Arial-BoldMT-72" transform="translate(809.382812 0)"/>
    <use xlink:href="#Arial-BoldMT-65" transform="translate(848.298828 0)"/>
    <use xlink:href="#Arial-BoldMT-20" transform="translate(903.914062 0)"/>
    <use xlink:href="#Arial-BoldMT-4e" transform="translate(931.697266 0)"/>
    <use xlink:href="#Arial-BoldMT-6f" transform="translate(1003.914062 0)"/>
    <use xlink:href="#Arial-BoldMT-20" transform="translate(1064.998047 0)"/>
    <use xlink:href="#Arial-BoldMT-49" transform="translate(1092.78125 0)"/>
    <use xlink:href="#Arial-BoldMT-6e" transform="translate(1120.564453 0)"/>
    <use xlink:href="#Arial-BoldMT-74" transform="translate(1181.648438 0)"/>
    <use xlink:href="#Arial-BoldMT-65" transform="translate(1214.949219 0)"/>
    <use xlink:href="#Arial-BoldMT-72" transform="translate(1270.564453 0)"/>
    <use xlink:href="#Arial-BoldMT-76" transform="translate(1309.480469 0)"/>
    <use xlink:href="#Arial-BoldMT-65" transform="translate(1365.095703 0)"/>
    <use xlink:href="#Arial-BoldMT-6e" transform="translate(1420.710938 0)"/>
    <use xlink:href="#Arial-BoldMT-74" transform="translate(1481.794922 0)"/>
    <use xlink:href="#Arial-BoldMT-69" transform="translate(1515.095703 0)"/>
    <use xlink:href="#Arial-BoldMT-6f" transform="translate(1542.878906 0)"/>
    <use xlink:href="#Arial-BoldMT-6e" transform="translate(1603.962891 0)"/>
    <use xlink:href="#Arial-BoldMT-73" transform="translate(1665.046875 0)"/>
    <use xlink:href="#Arial-BoldMT-3f" transform="translate(1720.662109 0)"/>
   </g>
   <!-- Pre-2015 trend extrapolated vs actual observations -->
   <g style="fill: #262626" transform="translate(402.05625 32.05875) scale(0.14 -0.14)">
    <defs>
     <path id="Arial-BoldMT-2d" d="M 359 1222 
L 359 2100 
L 2084 2100 
L 2084 1222 
L 359 1222 
z
" transform="scale(0.015625)"/>
     <path id="Arial-BoldMT-35" d="M 284 1178 
L 1159 1269 
Q 1197 972 1381 798 
Q 1566 625 1806 625 
Q 2081 625 2272 848 
Q 2463 1072 2463 1522 
Q 2463 1944 2273 2155 
Q 2084 2366 1781 2366 
Q 1403 2366 1103 2031 
L 391 2134 
L 841 4519 
L 3163 4519 
L 3163 3697 
L 1506 3697 
L 1369 2919 
Q 1663 3066 1969 3066 
Q 2553 3066 2959 2641 
Q 3366 2216 3366 1538 
Q 3366 972 3038 528 
Q 2591 -78 1797 -78 
Q 1163 -78 763 262 
Q 363 603 284 1178 
z
" transform="scale(0.015625)"/>
     <path id="Arial-BoldMT-64" d="M 3503 0 
L 2688 0 
L 2688 488 
Q 2484 203 2207 64 
Q 1931 -75 1650 -75 
Q 1078 -75 670 386 
Q 263 847 263 1672 
Q 263 2516 659 2955 
Q 1056 3394 1663 3394 
Q 2219 3394 2625 2931 
L 2625 4581 
L 3503 4581 
L 3503 0 
z
M 1159 1731 
Q 1159 1200 1306 963 
Q 1519 619 1900 619 
Q 2203 619 2415 876 
Q 2628 1134 2628 1647 
Q 2628 2219 2422 2470 
Q 2216 2722 1894 2722 
Q 1581 2722 1370 2473 
Q 1159 2225 1159 1731 
z
" transform="scale(0.015625)"/>
     <path id="Arial-BoldMT-78" d="M 38 0 
L 1234 1709 
L 88 3319 
L 1159 3319 
L 1747 2406 
L 2366 3319 
L 3397 3319 
L 2272 1747 
L 3500 0 
L 2422 0 
L 1747 1028 
L 1066 0 
L 38 0 
z
" transform="scale(0.015625)"/>
     <path id="Arial-BoldMT-70" d="M 434 3319 
L 1253 3319 
L 1253 2831 
Q 1413 3081 1684 3237 
Q 1956 3394 2288 3394 
Q 2866 3394 3269 2941 
Q 3672 2488 3672 1678 
Q 3672 847 3265 386 
Q 2859 -75 2281 -75 
Q 2006 -75 1782 34 
Q 1559 144 1313 409 
L 1313 -1263 
L 434 -1263 
L 434 3319 
z
M 1303 1716 
Q 1303 1156 1525 889 
Q 1747 622 2066 622 
Q 2372 622 2575 867 
Q 2778 1113 2778 1672 
Q 2778 2194 2568 2447 
Q 2359 2700 2050 2700 
Q 1728 2700 1515 2451 
Q 1303 2203 1303 1716 
z
" transform="scale(0.015625)"/>
     <path id="Arial-BoldMT-62" d="M 422 0 
L 422 4581 
L 1300 4581 
L 1300 2931 
Q 1706 3394 2263 3394 
Q 2869 3394 3266 2955 
Q 3663 2516 3663 1694 
Q 3663 844 3258 384 
Q 2853 -75 2275 -75 
Q 1991 -75 1714 67 
Q 1438 209 1238 488 
L 1238 0 
L 422 0 
z
M 1294 1731 
Q 1294 1216 1456 969 
Q 1684 619 2063 619 
Q 2353 619 2558 867 
Q 2763 1116 2763 1650 
Q 2763 2219 2556 2470 
Q 2350 2722 2028 2722 
Q 1713 2722 1503 2476 
Q 1294 2231 1294 1731 
z
" transform="scale(0.015625)"/>
    </defs>
    <use xlink:href="#Arial-BoldMT-50"/>
    <use xlink:href="#Arial-BoldMT-72" transform="translate(66.699219 0)"/>
    <use xlink:href="#Arial-BoldMT-65" transform="translate(105.615234 0)"/>
    <use xlink:href="#Arial-BoldMT-2d" transform="translate(161.230469 0)"/>
    <use xlink:href="#Arial-BoldMT-32" transform="translate(194.53125 0)"/>
    <use xlink:href="#Arial-BoldMT-30" transform="translate(250.146484 0)"/>
    <use xlink:href="#Arial-BoldMT-31" transform="translate(305.761719 0)"/>
    <use xlink:href="#Arial-BoldMT-35" transform="translate(361.376953 0)"/>
    <use xlink:href="#Arial-BoldMT-20" transform="translate(416.992188 0)"/>
    <use xlink:href="#Arial-BoldMT-74" transform="translate(444.775391 0)"/>
    <use xlink:href="#Arial-BoldMT-72" transform="translate(478.076172 0)"/>
    <use xlink:href="#Arial-BoldMT-65" transform="translate(516.992188 0)"/>
    <use xlink:href="#Arial-BoldMT-6e" transform="translate(572.607422 0)"/>
    <use xlink:href="#Arial-BoldMT-64" transform="translate(633.691406 0)"/>
    <use xlink:href="#Arial-BoldMT-20" transform="translate(694.775391 0)"/>
    <use xlink:href="#Arial-BoldMT-65" transform="translate(722.558594 0)"/>
    <use xlink:href="#Arial-BoldMT-78" transform="translate(778.173828 0)"/>
    <use xlink:href="#Arial-BoldMT-74" transform="translate(833.789062 0)"/>
    <use xlink:href="#Arial-BoldMT-72" transform="translate(867.089844 0)"/>
    <use xlink:href="#Arial-BoldMT-61" transform="translate(906.005859 0)"/>
    <use xlink:href="#Arial-BoldMT-70" transform="translate(961.621094 0)"/>
    <use xlink:href="#Arial-BoldMT-6f" transform="translate(1022.705078 0)"/>
    <use xlink:href="#Arial-BoldMT-6c" transform="translate(1083.789062 0)"/>
    <use xlink:href="#Arial-BoldMT-61" transform="translate(1111.572266 0)"/>
    <use xlink:href="#Arial-BoldMT-74" transform="translate(1167.1875 0)"/>
    <use xlink:href="#Arial-BoldMT-65" transform="translate(1200.488281 0)"/>
    <use xlink:href="#Arial-BoldMT-64" transform="translate(1256.103516 0)"/>
    <use xlink:href="#Arial-BoldMT-20" transform="translate(1317.1875 0)"/>
    <use xlink:href="#Arial-BoldMT-76" transform="translate(1344.970703 0)"/>
    <use xlink:href="#Arial-BoldMT-73" transform="translate(1400.585938 0)"/>
    <use xlink:href="#Arial-BoldMT-20" transform="translate(1456.201172 0)"/>
    <use xlink:href="#Arial-BoldMT-61" transform="translate(1483.984375 0)"/>
    <use xlink:href="#Arial-BoldMT-63" transform="translate(1539.599609 0)"/>
    <use xlink:href="#Arial-BoldMT-74" transform="translate(1595.214844 0)"/>
    <use xlink:href="#Arial-BoldMT-75" transform="translate(1628.515625 0)"/>
    <use xlink:href="#Arial-BoldMT-61" transform="translate(1689.599609 0)"/>
    <use xlink:href="#Arial-BoldMT-6c" transform="translate(1745.214844 0)"/>
    <use xlink:href="#Arial-BoldMT-20" transform="translate(1772.998047 0)"/>
    <use xlink:href="#Arial-BoldMT-6f" transform="translate(1800.78125 0)"/>
    <use xlink:href="#Arial-BoldMT-62" transform="translate(1861.865234 0)"/>
    <use xlink:href="#Arial-BoldMT-73" transform="translate(1922.949219 0)"/>
    <use xlink:href="#Arial-BoldMT-65" transform="translate(1978.564453 0)"/>
    <use xlink:href="#Arial-BoldMT-72" transform="translate(2034.179688 0)"/>
    <use xlink:href="#Arial-BoldMT-76" transform="translate(2073.095703 0)"/>
    <use xlink:href="#Arial-BoldMT-61" transform="translate(2128.710938 0)"/>
    <use xlink:href="#Arial-BoldMT-74" transform="translate(2184.326172 0)"/>
    <use xlink:href="#Arial-BoldMT-69" transform="translate(2217.626953 0)"/>
    <use xlink:href="#Arial-BoldMT-6f" transform="translate(2245.410156 0)"/>
    <use xlink:href="#Arial-BoldMT-6e" transform="translate(2306.494141 0)"/>
    <use xlink:href="#Arial-BoldMT-73" transform="translate(2367.578125 0)"/>
   </g>
  </g>
 </g>
 <defs>
  <clipPath id="pf85e73fbf0">
   <rect x="38.70625" y="62.81475" width="518.486486" height="325.78525"/>
  </clipPath>
  <clipPath id="p689b09e195">
   <rect x="608.941699" y="62.81475" width="518.486486" height="325.78525"/>
  </clipPath>
 </defs>
</svg>
