<?xml version="1.0" encoding="utf-8" standalone="no"?>
<!DOCTYPE svg PUBLIC "-//W3C//DTD SVG 1.1//EN"
  "http://www.w3.org/Graphics/SVG/1.1/DTD/svg11.dtd">
<svg xmlns:xlink="http://www.w3.org/1999/xlink" width="1143.607553pt" height="442.370625pt" viewBox="0 0 1143.607553 442.370625" xmlns="http://www.w3.org/2000/svg" version="1.1">
 <metadata>
  <rdf:RDF xmlns:dc="http://purl.org/dc/elements/1.1/" xmlns:cc="http://creativecommons.org/ns#" xmlns:rdf="http://www.w3.org/1999/02/22-rdf-syntax-ns#">
   <cc:Work>
    <dc:type rdf:resource="http://purl.org/dc/dcmitype/StillImage"/>
    <dc:date>2026-03-28T21:37:09.211916</dc:date>
    <dc:format>image/svg+xml</dc:format>
    <dc:creator>
     <cc:Agent>
      <dc:title>Matplotlib v3.10.8, https://matplotlib.org/</dc:title>
     </cc:Agent>
    </dc:creator>
   </cc:Work>
  </rdf:RDF>
 </metadata>
 <defs>
  <style type="text/css">*{stroke-linejoin: round; stroke-linecap: butt}</style>
 </defs>
 <g id="figure_1">
  <g id="patch_1">
   <path d="M 0 442.370625 
L 1143.607553 442.370625 
L 1143.607553 -0 
L 0 -0 
z
" style="fill: #ffffff"/>
  </g>
  <g id="axes_1">
   <g id="patch_2">
    <path d="M 38.70625 405.88 
L 557.192736 405.88 
L 557.192736 67.9875 
L 38.70625 67.9875 
z
" style="fill: #ffffff"/>
   </g>
   <g id="matplotlib.axis_1">
    <g id="xtick_1">
     <g id="line2d_1">
      <path d="M 41.780281 405.88 
L 41.780281 67.9875 
" clip-path="url(#p830084880e)" style="fill: none; stroke: #cccccc; stroke-width: 0.8; stroke-linecap: round"/>
     </g>
     <g id="text_1">
      <!-- 2000 -->
      <g style="fill: #262626" transform="translate(30.658406 420.037812) scale(0.1 -0.1)">
       <defs>
        <path id="ArialMT-32" d="M 3222 541 
L 3222 0 
L 194 0 
Q 188 203 259 391 
Q 375 700 629 1000 
Q 884 1300 1366 1694 
Q 2113 2306 2375 2664 
Q 2638 3022 2638 3341 
Q 2638 3675 2398 3904 
Q 2159 4134 1775 4134 
Q 1369 4134 1125 3890 
Q 881 3647 878 3216 
L 300 3275 
Q 359 3922 746 4261 
Q 1134 4600 1788 4600 
Q 2447 4600 2831 4234 
Q 3216 3869 3216 3328 
Q 3216 3053 3103 2787 
Q 2991 2522 2730 2228 
Q 2469 1934 1863 1422 
Q 1356 997 1212 845 
Q 1069 694 975 541 
L 3222 541 
z
" transform="scale(0.015625)"/>
        <path id="ArialMT-30" d="M 266 2259 
Q 266 3072 433 3567 
Q 600 4063 929 4331 
Q 1259 4600 1759 4600 
Q 2128 4600 2406 4451 
Q 2684 4303 2865 4023 
Q 3047 3744 3150 3342 
Q 3253 2941 3253 2259 
Q 3253 1453 3087 958 
Q 2922 463 2592 192 
Q 2263 -78 1759 -78 
Q 1097 -78 719 397 
Q 266 969 266 2259 
z
M 844 2259 
Q 844 1131 1108 757 
Q 1372 384 1759 384 
Q 2147 384 2411 759 
Q 2675 1134 2675 2259 
Q 2675 3391 2411 3762 
Q 2147 4134 1753 4134 
Q 1366 4134 1134 3806 
Q 844 3388 844 2259 
z
" transform="scale(0.015625)"/>
       </defs>
       <use xlink:href="#ArialMT-32"/>
       <use xlink:href="#ArialMT-30" transform="translate(55.615234 0)"/>
       <use xlink:href="#ArialMT-30" transform="translate(111.230469 0)"/>
       <use xlink:href="#ArialMT-30" transform="translate(166.845703 0)"/>
      </g>
     </g>
    </g>
    <g id="xtick_2">
     <g id="line2d_2">
      <path d="M 144.247965 405.88 
L 144.247965 67.9875 
" clip-path="url(#p830084880e)" style="fill: none; stroke: #cccccc; stroke-width: 0.8; stroke-linecap: round"/>
     </g>
     <g id="text_2">
      <!-- 2005 -->
      <g style="fill: #262626" transform="translate(133.12609 420.037812) scale(0.1 -0.1)">
       <defs>
        <path id="ArialMT-35" d="M 266 1200 
L 856 1250 
Q 922 819 1161 601 
Q 1400 384 1738 384 
Q 2144 384 2425 690 
Q 2706 997 2706 1503 
Q 2706 1984 2436 2262 
Q 2166 2541 1728 2541 
Q 1456 2541 1237 2417 
Q 1019 2294 894 2097 
L 366 2166 
L 809 4519 
L 3088 4519 
L 3088 3981 
L 1259 3981 
L 1013 2750 
Q 1425 3038 1878 3038 
Q 2478 3038 2890 2622 
Q 3303 2206 3303 1553 
Q 3303 931 2941 478 
Q 2500 -78 1738 -78 
Q 1113 -78 717 272 
Q 322 622 266 1200 
z
" transform="scale(0.015625)"/>
       </defs>
       <use xlink:href="#ArialMT-32"/>
       <use xlink:href="#ArialMT-30" transform="translate(55.615234 0)"/>
       <use xlink:href="#ArialMT-30" transform="translate(111.230469 0)"/>
       <use xlink:href="#ArialMT-35" transform="translate(166.845703 0)"/>
      </g>
     </g>
    </g>
    <g id="xtick_3">
     <g id="line2d_3">
      <path d="M 246.71565 405.88 
L 246.71565 67.9875 
" clip-path="url(#p830084880e)" style="fill: none; stroke: #cccccc; stroke-width: 0.8; stroke-linecap: round"/>
     </g>
     <g id="text_3">
      <!-- 2010 -->
      <g style="fill: #262626" transform="translate(235.593775 420.037812) scale(0.1 -0.1)">
       <defs>
        <path id="ArialMT-31" d="M 2384 0 
L 1822 0 
L 1822 3584 
Q 1619 3391 1289 3197 
Q 959 3003 697 2906 
L 697 3450 
Q 1169 3672 1522 3987 
Q 1875 4303 2022 4600 
L 2384 4600 
L 2384 0 
z
" transform="scale(0.015625)"/>
       </defs>
       <use xlink:href="#ArialMT-32"/>
       <use xlink:href="#ArialMT-30" transform="translate(55.615234 0)"/>
       <use xlink:href="#ArialMT-31" transform="translate(111.230469 0)"/>
       <use xlink:href="#ArialMT-30" transform="translate(166.845703 0)"/>
      </g>
     </g>
    </g>
    <g id="xtick_4">
     <g id="line2d_4">
      <path d="M 349.183335 405.88 
L 349.183335 67.9875 
" clip-path="url(#p830084880e)" style="fill: none; stroke: #cccccc; stroke-width: 0.8; stroke-linecap: round"/>
     </g>
     <g id="text_4">
      <!-- 2015 -->
      <g style="fill: #262626" transform="translate(338.06146 420.037812) scale(0.1 -0.1)">
       <use xlink:href="#ArialMT-32"/>
       <use xlink:href="#ArialMT-30" transform="translate(55.615234 0)"/>
       <use xlink:href="#ArialMT-31" transform="translate(111.230469 0)"/>
       <use xlink:href="#ArialMT-35" transform="translate(166.845703 0)"/>
      </g>
     </g>
    </g>
    <g id="xtick_5">
     <g id="line2d_5">
      <path d="M 451.65102 405.88 
L 451.65102 67.9875 
" clip-path="url(#p830084880e)" style="fill: none; stroke: #cccccc; stroke-width: 0.8; stroke-linecap: round"/>
     </g>
     <g id="text_5">
      <!-- 2020 -->
      <g style="fill: #262626" transform="translate(440.529145 420.037812) scale(0.1 -0.1)">
       <use xlink:href="#ArialMT-32"/>
       <use xlink:href="#ArialMT-30" transform="translate(55.615234 0)"/>
       <use xlink:href="#ArialMT-32" transform="translate(111.230469 0)"/>
       <use xlink:href="#ArialMT-30" transform="translate(166.845703 0)"/>
      </g>
     </g>
    </g>
    <g id="xtick_6">
     <g id="line2d_6">
      <path d="M 554.118705 405.88 
L 554.118705 67.9875 
" clip-path="url(#p830084880e)" style="fill: none; stroke: #cccccc; stroke-width: 0.8; stroke-linecap: round"/>
     </g>
     <g id="text_6">
      <!-- 2025 -->
      <g style="fill: #262626" transform="translate(542.99683 420.037812) scale(0.1 -0.1)">
       <use xlink:href="#ArialMT-32"/>
       <use xlink:href="#ArialMT-30" transform="translate(55.615234 0)"/>
       <use xlink:href="#ArialMT-32" transform="translate(111.230469 0)"/>
       <use xlink:href="#ArialMT-35" transform="translate(166.845703 0)"/>
      </g>
     </g>
    </g>
    <g id="text_7">
     <!-- Year -->
     <g style="fill: #262626" transform="translate(287.844805 433.183125) scale(0.1 -0.1)">
      <defs>
       <path id="ArialMT-59" d="M 1784 0 
L 1784 1941 
L 19 4581 
L 756 4581 
L 1659 3200 
Q 1909 2813 2125 2425 
Q 2331 2784 2625 3234 
L 3513 4581 
L 4219 4581 
L 2391 1941 
L 2391 0 
L 1784 0 
z
" transform="scale(0.015625)"/>
       <path id="ArialMT-65" d="M 2694 1069 
L 3275 997 
Q 3138 488 2766 206 
Q 2394 -75 1816 -75 
Q 1088 -75 661 373 
Q 234 822 234 1631 
Q 234 2469 665 2931 
Q 1097 3394 1784 3394 
Q 2450 3394 2872 2941 
Q 3294 2488 3294 1666 
Q 3294 1616 3291 1516 
L 816 1516 
Q 847 969 1125 678 
Q 1403 388 1819 388 
Q 2128 388 2347 550 
Q 2566 713 2694 1069 
z
M 847 1978 
L 2700 1978 
Q 2663 2397 2488 2606 
Q 2219 2931 1791 2931 
Q 1403 2931 1139 2672 
Q 875 2413 847 1978 
z
" transform="scale(0.015625)"/>
       <path id="ArialMT-61" d="M 2588 409 
Q 2275 144 1986 34 
Q 1697 -75 1366 -75 
Q 819 -75 525 192 
Q 231 459 231 875 
Q 231 1119 342 1320 
Q 453 1522 633 1644 
Q 813 1766 1038 1828 
Q 1203 1872 1538 1913 
Q 2219 1994 2541 2106 
Q 2544 2222 2544 2253 
Q 2544 2597 2384 2738 
Q 2169 2928 1744 2928 
Q 1347 2928 1158 2789 
Q 969 2650 878 2297 
L 328 2372 
Q 403 2725 575 2942 
Q 747 3159 1072 3276 
Q 1397 3394 1825 3394 
Q 2250 3394 2515 3294 
Q 2781 3194 2906 3042 
Q 3031 2891 3081 2659 
Q 3109 2516 3109 2141 
L 3109 1391 
Q 3109 606 3145 398 
Q 3181 191 3288 0 
L 2700 0 
Q 2613 175 2588 409 
z
M 2541 1666 
Q 2234 1541 1622 1453 
Q 1275 1403 1131 1340 
Q 988 1278 909 1158 
Q 831 1038 831 891 
Q 831 666 1001 516 
Q 1172 366 1500 366 
Q 1825 366 2078 508 
Q 2331 650 2450 897 
Q 2541 1088 2541 1459 
L 2541 1666 
z
" transform="scale(0.015625)"/>
       <path id="ArialMT-72" d="M 416 0 
L 416 3319 
L 922 3319 
L 922 2816 
Q 1116 3169 1280 3281 
Q 1444 3394 1641 3394 
Q 1925 3394 2219 3213 
L 2025 2691 
Q 1819 2813 1613 2813 
Q 1428 2813 1281 2702 
Q 1134 2591 1072 2394 
Q 978 2094 978 1738 
L 978 0 
L 416 0 
z
" transform="scale(0.015625)"/>
      </defs>
      <use xlink:href="#ArialMT-59"/>
      <use xlink:href="#ArialMT-65" transform="translate(57.574219 0)"/>
      <use xlink:href="#ArialMT-61" transform="translate(113.189453 0)"/>
      <use xlink:href="#ArialMT-72" transform="translate(168.804688 0)"/>
     </g>
    </g>
   </g>
   <g id="matplotlib.axis_2">
    <g id="ytick_1">
     <g id="line2d_7">
      <path d="M 38.70625 390.52125 
L 557.192736 390.52125 
" clip-path="url(#p830084880e)" style="fill: none; stroke: #cccccc; stroke-width: 0.8; stroke-linecap: round"/>
     </g>
     <g id="text_8">
      <!-- 0 -->
      <g style="fill: #262626" transform="translate(26.145313 394.100156) scale(0.1 -0.1)">
       <use xlink:href="#ArialMT-30"/>
      </g>
     </g>
    </g>
    <g id="ytick_2">
     <g id="line2d_8">
      <path d="M 38.70625 336.153993 
L 557.192736 336.153993 
" clip-path="url(#p830084880e)" style="fill: none; stroke: #cccccc; stroke-width: 0.8; stroke-linecap: round"/>
     </g>
     <g id="text_9">
      <!-- 10 -->
      <g style="fill: #262626" transform="translate(20.584375 339.7329) scale(0.1 -0.1)">
       <use xlink:href="#ArialMT-31"/>
       <use xlink:href="#ArialMT-30" transform="translate(55.615234 0)"/>
      </g>
     </g>
    </g>
    <g id="ytick_3">
     <g id="line2d_9">
      <path d="M 38.70625 281.786737 
L 557.192736 281.786737 
" clip-path="url(#p830084880e)" style="fill: none; stroke: #cccccc; stroke-width: 0.8; stroke-linecap: round"/>
     </g>
     <g id="text_10">
      <!-- 20 -->
      <g style="fill: #262626" transform="translate(20.584375 285.365643) scale(0.1 -0.1)">
       <use xlink:href="#ArialMT-32"/>
       <use xlink:href="#ArialMT-30" transform="translate(55.615234 0)"/>
      </g>
     </g>
    </g>
    <g id="ytick_4">
     <g id="line2d_10">
      <path d="M 38.70625 227.41948 
L 557.192736 227.41948 
" clip-path="url(#p830084880e)" style="fill: none; stroke: #cccccc; stroke-width: 0.8; stroke-linecap: round"/>
     </g>
     <g id="text_11">
      <!-- 30 -->
      <g style="fill: #262626" transform="translate(20.584375 230.998386) scale(0.1 -0.1)">
       <defs>
        <path id="ArialMT-33" d="M 269 1209 
L 831 1284 
Q 928 806 1161 595 
Q 1394 384 1728 384 
Q 2125 384 2398 659 
Q 2672 934 2672 1341 
Q 2672 1728 2419 1979 
Q 2166 2231 1775 2231 
Q 1616 2231 1378 2169 
L 1441 2663 
Q 1497 2656 1531 2656 
Q 1891 2656 2178 2843 
Q 2466 3031 2466 3422 
Q 2466 3731 2256 3934 
Q 2047 4138 1716 4138 
Q 1388 4138 1169 3931 
Q 950 3725 888 3313 
L 325 3413 
Q 428 3978 793 4289 
Q 1159 4600 1703 4600 
Q 2078 4600 2393 4439 
Q 2709 4278 2876 4000 
Q 3044 3722 3044 3409 
Q 3044 3113 2884 2869 
Q 2725 2625 2413 2481 
Q 2819 2388 3044 2092 
Q 3269 1797 3269 1353 
Q 3269 753 2831 336 
Q 2394 -81 1725 -81 
Q 1122 -81 723 278 
Q 325 638 269 1209 
z
" transform="scale(0.015625)"/>
       </defs>
       <use xlink:href="#ArialMT-33"/>
       <use xlink:href="#ArialMT-30" transform="translate(55.615234 0)"/>
      </g>
     </g>
    </g>
    <g id="ytick_5">
     <g id="line2d_11">
      <path d="M 38.70625 173.052223 
L 557.192736 173.052223 
" clip-path="url(#p830084880e)" style="fill: none; stroke: #cccccc; stroke-width: 0.8; stroke-linecap: round"/>
     </g>
     <g id="text_12">
      <!-- 40 -->
      <g style="fill: #262626" transform="translate(20.584375 176.63113) scale(0.1 -0.1)">
       <defs>
        <path id="ArialMT-34" d="M 2069 0 
L 2069 1097 
L 81 1097 
L 81 1613 
L 2172 4581 
L 2631 4581 
L 2631 1613 
L 3250 1613 
L 3250 1097 
L 2631 1097 
L 2631 0 
L 2069 0 
z
M 2069 1613 
L 2069 3678 
L 634 1613 
L 2069 1613 
z
" transform="scale(0.015625)"/>
       </defs>
       <use xlink:href="#ArialMT-34"/>
       <use xlink:href="#ArialMT-30" transform="translate(55.615234 0)"/>
      </g>
     </g>
    </g>
    <g id="ytick_6">
     <g id="line2d_12">
      <path d="M 38.70625 118.684967 
L 557.192736 118.684967 
" clip-path="url(#p830084880e)" style="fill: none; stroke: #cccccc; stroke-width: 0.8; stroke-linecap: round"/>
     </g>
     <g id="text_13">
      <!-- 50 -->
      <g style="fill: #262626" transform="translate(20.584375 122.263873) scale(0.1 -0.1)">
       <use xlink:href="#ArialMT-35"/>
       <use xlink:href="#ArialMT-30" transform="translate(55.615234 0)"/>
      </g>
     </g>
    </g>
    <g id="text_14">
     <!-- µg/m³ -->
     <g style="fill: #262626" transform="translate(14.479688 249.814219) rotate(-90) scale(0.1 -0.1)">
      <defs>
       <path id="ArialMT-b5" d="M 3181 3319 
L 3181 0 
L 2678 0 
L 2678 394 
Q 2516 144 2356 50 
Q 2138 -78 1847 -78 
Q 1588 -78 1388 25 
Q 1238 103 1056 334 
L 1056 -1272 
L 500 -1272 
L 500 3319 
L 1056 3319 
L 1056 1913 
Q 1056 1147 1137 920 
Q 1219 694 1401 562 
Q 1584 431 1822 431 
Q 2072 431 2269 568 
Q 2466 706 2547 923 
Q 2628 1141 2628 1903 
L 2628 3319 
L 3181 3319 
z
" transform="scale(0.015625)"/>
       <path id="ArialMT-67" d="M 319 -275 
L 866 -356 
Q 900 -609 1056 -725 
Q 1266 -881 1628 -881 
Q 2019 -881 2231 -725 
Q 2444 -569 2519 -288 
Q 2563 -116 2559 434 
Q 2191 0 1641 0 
Q 956 0 581 494 
Q 206 988 206 1678 
Q 206 2153 378 2554 
Q 550 2956 876 3175 
Q 1203 3394 1644 3394 
Q 2231 3394 2613 2919 
L 2613 3319 
L 3131 3319 
L 3131 450 
Q 3131 -325 2973 -648 
Q 2816 -972 2473 -1159 
Q 2131 -1347 1631 -1347 
Q 1038 -1347 672 -1080 
Q 306 -813 319 -275 
z
M 784 1719 
Q 784 1066 1043 766 
Q 1303 466 1694 466 
Q 2081 466 2343 764 
Q 2606 1063 2606 1700 
Q 2606 2309 2336 2618 
Q 2066 2928 1684 2928 
Q 1309 2928 1046 2623 
Q 784 2319 784 1719 
z
" transform="scale(0.015625)"/>
       <path id="ArialMT-2f" d="M 0 -78 
L 1328 4659 
L 1778 4659 
L 453 -78 
L 0 -78 
z
" transform="scale(0.015625)"/>
       <path id="ArialMT-6d" d="M 422 0 
L 422 3319 
L 925 3319 
L 925 2853 
Q 1081 3097 1340 3245 
Q 1600 3394 1931 3394 
Q 2300 3394 2536 3241 
Q 2772 3088 2869 2813 
Q 3263 3394 3894 3394 
Q 4388 3394 4653 3120 
Q 4919 2847 4919 2278 
L 4919 0 
L 4359 0 
L 4359 2091 
Q 4359 2428 4304 2576 
Q 4250 2725 4106 2815 
Q 3963 2906 3769 2906 
Q 3419 2906 3187 2673 
Q 2956 2441 2956 1928 
L 2956 0 
L 2394 0 
L 2394 2156 
Q 2394 2531 2256 2718 
Q 2119 2906 1806 2906 
Q 1569 2906 1367 2781 
Q 1166 2656 1075 2415 
Q 984 2175 984 1722 
L 984 0 
L 422 0 
z
" transform="scale(0.015625)"/>
       <path id="ArialMT-b3" d="M 103 2903 
L 559 2950 
Q 622 2763 722 2694 
Q 856 2600 1041 2600 
Q 1263 2600 1397 2722 
Q 1531 2844 1531 3016 
Q 1531 3172 1418 3265 
Q 1306 3359 1034 3359 
Q 997 3359 931 3353 
Q 888 3350 863 3350 
L 931 3694 
Q 1184 3691 1301 3784 
Q 1419 3878 1419 4013 
Q 1419 4128 1325 4209 
Q 1231 4291 1047 4291 
Q 872 4291 773 4222 
Q 675 4153 603 3972 
L 156 4044 
Q 284 4375 479 4506 
Q 675 4638 1050 4638 
Q 1500 4638 1704 4470 
Q 1909 4303 1909 4053 
Q 1909 3881 1798 3747 
Q 1688 3613 1478 3553 
Q 1756 3484 1887 3326 
Q 2019 3169 2019 2956 
Q 2019 2666 1772 2450 
Q 1525 2234 1069 2234 
Q 631 2234 400 2407 
Q 169 2581 103 2903 
z
" transform="scale(0.015625)"/>
      </defs>
      <use xlink:href="#ArialMT-b5"/>
      <use xlink:href="#ArialMT-67" transform="translate(57.617188 0)"/>
      <use xlink:href="#ArialMT-2f" transform="translate(113.232422 0)"/>
      <use xlink:href="#ArialMT-6d" transform="translate(141.015625 0)"/>
      <use xlink:href="#ArialMT-b3" transform="translate(224.316406 0)"/>
     </g>
    </g>
   </g>
   <g id="FillBetweenPolyCollection_1">
    <defs>
     <path id="m7faba58c78" d="M 62.273818 -51.849375 
L 62.273818 -318.248933 
L 82.767355 -329.122384 
L 103.260891 -359.024375 
L 123.754428 -342.714198 
L 144.247965 -350.869287 
L 164.741502 -331.840747 
L 185.235039 -323.685658 
L 205.728576 -320.967295 
L 226.222113 -337.277472 
L 246.71565 -318.248933 
L 267.209187 -312.812207 
L 287.702724 -304.657118 
L 308.196261 -299.220393 
L 328.689798 -299.220393 
L 349.183335 -296.50203 
L 369.676872 -280.191853 
L 390.170409 -266.600039 
L 410.663946 -269.318402 
L 431.157483 -231.261322 
L 451.65102 -193.204242 
L 472.144557 -185.049154 
L 492.638094 -182.330791 
L 513.131631 -157.865525 
L 533.625168 -157.865525 
L 533.625168 -51.849375 
L 533.625168 -51.849375 
L 513.131631 -51.849375 
L 492.638094 -51.849375 
L 472.144557 -51.849375 
L 451.65102 -51.849375 
L 431.157483 -51.849375 
L 410.663946 -51.849375 
L 390.170409 -51.849375 
L 369.676872 -51.849375 
L 349.183335 -51.849375 
L 328.689798 -51.849375 
L 308.196261 -51.849375 
L 287.702724 -51.849375 
L 267.209187 -51.849375 
L 246.71565 -51.849375 
L 226.222113 -51.849375 
L 205.728576 -51.849375 
L 185.235039 -51.849375 
L 164.741502 -51.849375 
L 144.247965 -51.849375 
L 123.754428 -51.849375 
L 103.260891 -51.849375 
L 82.767355 -51.849375 
L 62.273818 -51.849375 
z
" style="stroke: #e74c3c; stroke-opacity: 0.2"/>
    </defs>
    <g clip-path="url(#p830084880e)">
     <use xlink:href="#m7faba58c78" x="0" y="442.370625" style="fill: #e74c3c; fill-opacity: 0.2; stroke: #e74c3c; stroke-opacity: 0.2"/>
    </g>
   </g>
   <g id="line2d_13">
    <path d="M 62.273818 124.121692 
L 82.767355 113.248241 
L 103.260891 83.34625 
L 123.754428 99.656427 
L 144.247965 91.501338 
L 164.741502 110.529878 
L 185.235039 118.684967 
L 205.728576 121.40333 
L 226.222113 105.093153 
L 246.71565 124.121692 
L 267.209187 129.558418 
L 287.702724 137.713507 
L 308.196261 143.150232 
L 328.689798 143.150232 
L 349.183335 145.868595 
L 369.676872 162.178772 
L 390.170409 175.770586 
L 410.663946 173.052223 
L 431.157483 211.109303 
L 451.65102 249.166383 
L 472.144557 257.321471 
L 492.638094 260.039834 
L 513.131631 284.5051 
L 533.625168 284.5051 
" clip-path="url(#p830084880e)" style="fill: none; stroke: #e74c3c; stroke-width: 2.5; stroke-linecap: round"/>
    <defs>
     <path id="mdb3709d723" d="M 0 2 
C 0.530406 2 1.03916 1.789267 1.414214 1.414214 
C 1.789267 1.03916 2 0.530406 2 0 
C 2 -0.530406 1.789267 -1.03916 1.414214 -1.414214 
C 1.03916 -1.789267 0.530406 -2 0 -2 
C -0.530406 -2 -1.03916 -1.789267 -1.414214 -1.414214 
C -1.789267 -1.03916 -2 -0.530406 -2 0 
C -2 0.530406 -1.789267 1.03916 -1.414214 1.414214 
C -1.03916 1.789267 -0.530406 2 0 2 
z
" style="stroke: #e74c3c"/>
    </defs>
    <g clip-path="url(#p830084880e)">
     <use xlink:href="#mdb3709d723" x="62.273818" y="124.121692" style="fill: #e74c3c; stroke: #e74c3c"/>
     <use xlink:href="#mdb3709d723" x="82.767355" y="113.248241" style="fill: #e74c3c; stroke: #e74c3c"/>
     <use xlink:href="#mdb3709d723" x="103.260891" y="83.34625" style="fill: #e74c3c; stroke: #e74c3c"/>
     <use xlink:href="#mdb3709d723" x="123.754428" y="99.656427" style="fill: #e74c3c; stroke: #e74c3c"/>
     <use xlink:href="#mdb3709d723" x="144.247965" y="91.501338" style="fill: #e74c3c; stroke: #e74c3c"/>
     <use xlink:href="#mdb3709d723" x="164.741502" y="110.529878" style="fill: #e74c3c; stroke: #e74c3c"/>
     <use xlink:href="#mdb3709d723" x="185.235039" y="118.684967" style="fill: #e74c3c; stroke: #e74c3c"/>
     <use xlink:href="#mdb3709d723" x="205.728576" y="121.40333" style="fill: #e74c3c; stroke: #e74c3c"/>
     <use xlink:href="#mdb3709d723" x="226.222113" y="105.093153" style="fill: #e74c3c; stroke: #e74c3c"/>
     <use xlink:href="#mdb3709d723" x="246.71565" y="124.121692" style="fill: #e74c3c; stroke: #e74c3c"/>
     <use xlink:href="#mdb3709d723" x="267.209187" y="129.558418" style="fill: #e74c3c; stroke: #e74c3c"/>
     <use xlink:href="#mdb3709d723" x="287.702724" y="137.713507" style="fill: #e74c3c; stroke: #e74c3c"/>
     <use xlink:href="#mdb3709d723" x="308.196261" y="143.150232" style="fill: #e74c3c; stroke: #e74c3c"/>
     <use xlink:href="#mdb3709d723" x="328.689798" y="143.150232" style="fill: #e74c3c; stroke: #e74c3c"/>
     <use xlink:href="#mdb3709d723" x="349.183335" y="145.868595" style="fill: #e74c3c; stroke: #e74c3c"/>
     <use xlink:href="#mdb3709d723" x="369.676872" y="162.178772" style="fill: #e74c3c; stroke: #e74c3c"/>
     <use xlink:href="#mdb3709d723" x="390.170409" y="175.770586" style="fill: #e74c3c; stroke: #e74c3c"/>
     <use xlink:href="#mdb3709d723" x="410.663946" y="173.052223" style="fill: #e74c3c; stroke: #e74c3c"/>
     <use xlink:href="#mdb3709d723" x="431.157483" y="211.109303" style="fill: #e74c3c; stroke: #e74c3c"/>
     <use xlink:href="#mdb3709d723" x="451.65102" y="249.166383" style="fill: #e74c3c; stroke: #e74c3c"/>
     <use xlink:href="#mdb3709d723" x="472.144557" y="257.321471" style="fill: #e74c3c; stroke: #e74c3c"/>
     <use xlink:href="#mdb3709d723" x="492.638094" y="260.039834" style="fill: #e74c3c; stroke: #e74c3c"/>
     <use xlink:href="#mdb3709d723" x="513.131631" y="284.5051" style="fill: #e74c3c; stroke: #e74c3c"/>
     <use xlink:href="#mdb3709d723" x="533.625168" y="284.5051" style="fill: #e74c3c; stroke: #e74c3c"/>
    </g>
   </g>
   <g id="line2d_14">
    <path d="M 38.70625 173.052223 
L 557.192736 173.052223 
" clip-path="url(#p830084880e)" style="fill: none; stroke-dasharray: 3.7,1.6; stroke-dashoffset: 0; stroke: #dc143c; stroke-opacity: 0.7"/>
   </g>
   <g id="patch_3">
    <path d="M 38.70625 405.88 
L 38.70625 67.9875 
" style="fill: none; stroke: #cccccc; stroke-width: 0.8; stroke-linejoin: miter; stroke-linecap: square"/>
   </g>
   <g id="patch_4">
    <path d="M 557.192736 405.88 
L 557.192736 67.9875 
" style="fill: none; stroke: #cccccc; stroke-width: 0.8; stroke-linejoin: miter; stroke-linecap: square"/>
   </g>
   <g id="patch_5">
    <path d="M 38.70625 405.88 
L 557.192736 405.88 
" style="fill: none; stroke: #cccccc; stroke-width: 0.8; stroke-linejoin: miter; stroke-linecap: square"/>
   </g>
   <g id="patch_6">
    <path d="M 38.70625 67.9875 
L 557.192736 67.9875 
" style="fill: none; stroke: #cccccc; stroke-width: 0.8; stroke-linejoin: miter; stroke-linecap: square"/>
   </g>
   <g id="text_15">
    <!-- NO2 -->
    <g style="fill: #262626" transform="translate(283.556837 61.9875) scale(0.14 -0.14)">
     <defs>
      <path id="Arial-BoldMT-4e" d="M 475 0 
L 475 4581 
L 1375 4581 
L 3250 1522 
L 3250 4581 
L 4109 4581 
L 4109 0 
L 3181 0 
L 1334 2988 
L 1334 0 
L 475 0 
z
" transform="scale(0.015625)"/>
      <path id="Arial-BoldMT-4f" d="M 278 2263 
Q 278 2963 488 3438 
Q 644 3788 914 4066 
Q 1184 4344 1506 4478 
Q 1934 4659 2494 4659 
Q 3506 4659 4114 4031 
Q 4722 3403 4722 2284 
Q 4722 1175 4119 548 
Q 3516 -78 2506 -78 
Q 1484 -78 881 545 
Q 278 1169 278 2263 
z
M 1231 2294 
Q 1231 1516 1590 1114 
Q 1950 713 2503 713 
Q 3056 713 3411 1111 
Q 3766 1509 3766 2306 
Q 3766 3094 3420 3481 
Q 3075 3869 2503 3869 
Q 1931 3869 1581 3476 
Q 1231 3084 1231 2294 
z
" transform="scale(0.015625)"/>
      <path id="Arial-BoldMT-32" d="M 3238 816 
L 3238 0 
L 159 0 
Q 209 463 459 877 
Q 709 1291 1447 1975 
Q 2041 2528 2175 2725 
Q 2356 2997 2356 3263 
Q 2356 3556 2198 3714 
Q 2041 3872 1763 3872 
Q 1488 3872 1325 3706 
Q 1163 3541 1138 3156 
L 263 3244 
Q 341 3969 753 4284 
Q 1166 4600 1784 4600 
Q 2463 4600 2850 4234 
Q 3238 3869 3238 3325 
Q 3238 3016 3127 2736 
Q 3016 2456 2775 2150 
Q 2616 1947 2200 1565 
Q 1784 1184 1673 1059 
Q 1563 934 1494 816 
L 3238 816 
z
" transform="scale(0.015625)"/>
     </defs>
     <use xlink:href="#Arial-BoldMT-4e"/>
     <use xlink:href="#Arial-BoldMT-4f" transform="translate(72.216797 0)"/>
     <use xlink:href="#Arial-BoldMT-32" transform="translate(150 0)"/>
    </g>
   </g>
   <g id="legend_1">
    <g id="patch_7">
     <path d="M 446.904767 88.133437 
L 550.892736 88.133437 
Q 552.692736 88.133437 552.692736 86.333437 
L 552.692736 74.2875 
Q 552.692736 72.4875 550.892736 72.4875 
L 446.904767 72.4875 
Q 445.104767 72.4875 445.104767 74.2875 
L 445.104767 86.333437 
Q 445.104767 88.133437 446.904767 88.133437 
z
" style="fill: #ffffff; opacity: 0.8; stroke: #cccccc; stroke-linejoin: miter"/>
    </g>
    <g id="line2d_15">
     <path d="M 448.704767 79.489219 
L 457.704767 79.489219 
L 466.704767 79.489219 
" style="fill: none; stroke-dasharray: 3.7,1.6; stroke-dashoffset: 0; stroke: #dc143c; stroke-opacity: 0.7"/>
    </g>
    <g id="text_16">
     <!-- EU limit (40 µg/m³) -->
     <g style="fill: #262626" transform="translate(473.904767 82.639219) scale(0.09 -0.09)">
      <defs>
       <path id="ArialMT-45" d="M 506 0 
L 506 4581 
L 3819 4581 
L 3819 4041 
L 1113 4041 
L 1113 2638 
L 3647 2638 
L 3647 2100 
L 1113 2100 
L 1113 541 
L 3925 541 
L 3925 0 
L 506 0 
z
" transform="scale(0.015625)"/>
       <path id="ArialMT-55" d="M 3500 4581 
L 4106 4581 
L 4106 1934 
Q 4106 1244 3950 837 
Q 3794 431 3386 176 
Q 2978 -78 2316 -78 
Q 1672 -78 1262 144 
Q 853 366 678 786 
Q 503 1206 503 1934 
L 503 4581 
L 1109 4581 
L 1109 1938 
Q 1109 1341 1220 1058 
Q 1331 775 1601 622 
Q 1872 469 2263 469 
Q 2931 469 3215 772 
Q 3500 1075 3500 1938 
L 3500 4581 
z
" transform="scale(0.015625)"/>
       <path id="ArialMT-20" transform="scale(0.015625)"/>
       <path id="ArialMT-6c" d="M 409 0 
L 409 4581 
L 972 4581 
L 972 0 
L 409 0 
z
" transform="scale(0.015625)"/>
       <path id="ArialMT-69" d="M 425 3934 
L 425 4581 
L 988 4581 
L 988 3934 
L 425 3934 
z
M 425 0 
L 425 3319 
L 988 3319 
L 988 0 
L 425 0 
z
" transform="scale(0.015625)"/>
       <path id="ArialMT-74" d="M 1650 503 
L 1731 6 
Q 1494 -44 1306 -44 
Q 1000 -44 831 53 
Q 663 150 594 308 
Q 525 466 525 972 
L 525 2881 
L 113 2881 
L 113 3319 
L 525 3319 
L 525 4141 
L 1084 4478 
L 1084 3319 
L 1650 3319 
L 1650 2881 
L 1084 2881 
L 1084 941 
Q 1084 700 1114 631 
Q 1144 563 1211 522 
Q 1278 481 1403 481 
Q 1497 481 1650 503 
z
" transform="scale(0.015625)"/>
       <path id="ArialMT-28" d="M 1497 -1347 
Q 1031 -759 709 28 
Q 388 816 388 1659 
Q 388 2403 628 3084 
Q 909 3875 1497 4659 
L 1900 4659 
Q 1522 4009 1400 3731 
Q 1209 3300 1100 2831 
Q 966 2247 966 1656 
Q 966 153 1900 -1347 
L 1497 -1347 
z
" transform="scale(0.015625)"/>
       <path id="ArialMT-29" d="M 791 -1347 
L 388 -1347 
Q 1322 153 1322 1656 
Q 1322 2244 1188 2822 
Q 1081 3291 891 3722 
Q 769 4003 388 4659 
L 791 4659 
Q 1378 3875 1659 3084 
Q 1900 2403 1900 1659 
Q 1900 816 1576 28 
Q 1253 -759 791 -1347 
z
" transform="scale(0.015625)"/>
      </defs>
      <use xlink:href="#ArialMT-45"/>
      <use xlink:href="#ArialMT-55" transform="translate(66.699219 0)"/>
      <use xlink:href="#ArialMT-20" transform="translate(138.916016 0)"/>
      <use xlink:href="#ArialMT-6c" transform="translate(166.699219 0)"/>
      <use xlink:href="#ArialMT-69" transform="translate(188.916016 0)"/>
      <use xlink:href="#ArialMT-6d" transform="translate(211.132812 0)"/>
      <use xlink:href="#ArialMT-69" transform="translate(294.433594 0)"/>
      <use xlink:href="#ArialMT-74" transform="translate(316.650391 0)"/>
      <use xlink:href="#ArialMT-20" transform="translate(344.433594 0)"/>
      <use xlink:href="#ArialMT-28" transform="translate(372.216797 0)"/>
      <use xlink:href="#ArialMT-34" transform="translate(405.517578 0)"/>
      <use xlink:href="#ArialMT-30" transform="translate(461.132812 0)"/>
      <use xlink:href="#ArialMT-20" transform="translate(516.748047 0)"/>
      <use xlink:href="#ArialMT-b5" transform="translate(544.53125 0)"/>
      <use xlink:href="#ArialMT-67" transform="translate(602.148438 0)"/>
      <use xlink:href="#ArialMT-2f" transform="translate(657.763672 0)"/>
      <use xlink:href="#ArialMT-6d" transform="translate(685.546875 0)"/>
      <use xlink:href="#ArialMT-b3" transform="translate(768.847656 0)"/>
      <use xlink:href="#ArialMT-29" transform="translate(802.148438 0)"/>
     </g>
    </g>
   </g>
  </g>
  <g id="axes_2">
   <g id="patch_8">
    <path d="M 608.941699 405.88 
L 1127.428185 405.88 
L 1127.428185 67.9875 
L 608.941699 67.9875 
z
" style="fill: #ffffff"/>
   </g>
   <g id="matplotlib.axis_3">
    <g id="xtick_7">
     <g id="line2d_16">
      <path d="M 696.784451 405.88 
L 696.784451 67.9875 
" clip-path="url(#pbff4e20ea5)" style="fill: none; stroke: #cccccc; stroke-width: 0.8; stroke-linecap: round"/>
     </g>
     <g id="text_17">
      <!-- 2005 -->
      <g style="fill: #262626" transform="translate(685.662576 420.037812) scale(0.1 -0.1)">
       <use xlink:href="#ArialMT-32"/>
       <use xlink:href="#ArialMT-30" transform="translate(55.615234 0)"/>
       <use xlink:href="#ArialMT-30" transform="translate(111.230469 0)"/>
       <use xlink:href="#ArialMT-35" transform="translate(166.845703 0)"/>
      </g>
     </g>
    </g>
    <g id="xtick_8">
     <g id="line2d_17">
      <path d="M 803.909758 405.88 
L 803.909758 67.9875 
" clip-path="url(#pbff4e20ea5)" style="fill: none; stroke: #cccccc; stroke-width: 0.8; stroke-linecap: round"/>
     </g>
     <g id="text_18">
      <!-- 2010 -->
      <g style="fill: #262626" transform="translate(792.787883 420.037812) scale(0.1 -0.1)">
       <use xlink:href="#ArialMT-32"/>
       <use xlink:href="#ArialMT-30" transform="translate(55.615234 0)"/>
       <use xlink:href="#ArialMT-31" transform="translate(111.230469 0)"/>
       <use xlink:href="#ArialMT-30" transform="translate(166.845703 0)"/>
      </g>
     </g>
    </g>
    <g id="xtick_9">
     <g id="line2d_18">
      <path d="M 911.035065 405.88 
L 911.035065 67.9875 
" clip-path="url(#pbff4e20ea5)" style="fill: none; stroke: #cccccc; stroke-width: 0.8; stroke-linecap: round"/>
     </g>
     <g id="text_19">
      <!-- 2015 -->
      <g style="fill: #262626" transform="translate(899.91319 420.037812) scale(0.1 -0.1)">
       <use xlink:href="#ArialMT-32"/>
       <use xlink:href="#ArialMT-30" transform="translate(55.615234 0)"/>
       <use xlink:href="#ArialMT-31" transform="translate(111.230469 0)"/>
       <use xlink:href="#ArialMT-35" transform="translate(166.845703 0)"/>
      </g>
     </g>
    </g>
    <g id="xtick_10">
     <g id="line2d_19">
      <path d="M 1018.160372 405.88 
L 1018.160372 67.9875 
" clip-path="url(#pbff4e20ea5)" style="fill: none; stroke: #cccccc; stroke-width: 0.8; stroke-linecap: round"/>
     </g>
     <g id="text_20">
      <!-- 2020 -->
      <g style="fill: #262626" transform="translate(1007.038497 420.037812) scale(0.1 -0.1)">
       <use xlink:href="#ArialMT-32"/>
       <use xlink:href="#ArialMT-30" transform="translate(55.615234 0)"/>
       <use xlink:href="#ArialMT-32" transform="translate(111.230469 0)"/>
       <use xlink:href="#ArialMT-30" transform="translate(166.845703 0)"/>
      </g>
     </g>
    </g>
    <g id="xtick_11">
     <g id="line2d_20">
      <path d="M 1125.285678 405.88 
L 1125.285678 67.9875 
" clip-path="url(#pbff4e20ea5)" style="fill: none; stroke: #cccccc; stroke-width: 0.8; stroke-linecap: round"/>
     </g>
     <g id="text_21">
      <!-- 2025 -->
      <g style="fill: #262626" transform="translate(1114.163803 420.037812) scale(0.1 -0.1)">
       <use xlink:href="#ArialMT-32"/>
       <use xlink:href="#ArialMT-30" transform="translate(55.615234 0)"/>
       <use xlink:href="#ArialMT-32" transform="translate(111.230469 0)"/>
       <use xlink:href="#ArialMT-35" transform="translate(166.845703 0)"/>
      </g>
     </g>
    </g>
    <g id="text_22">
     <!-- Year -->
     <g style="fill: #262626" transform="translate(858.080254 433.183125) scale(0.1 -0.1)">
      <use xlink:href="#ArialMT-59"/>
      <use xlink:href="#ArialMT-65" transform="translate(57.574219 0)"/>
      <use xlink:href="#ArialMT-61" transform="translate(113.189453 0)"/>
      <use xlink:href="#ArialMT-72" transform="translate(168.804688 0)"/>
     </g>
    </g>
   </g>
   <g id="matplotlib.axis_4">
    <g id="ytick_7">
     <g id="line2d_21">
      <path d="M 608.941699 390.52125 
L 1127.428185 390.52125 
" clip-path="url(#pbff4e20ea5)" style="fill: none; stroke: #cccccc; stroke-width: 0.8; stroke-linecap: round"/>
     </g>
     <g id="text_23">
      <!-- 0 -->
      <g style="fill: #262626" transform="translate(596.380761 394.100156) scale(0.1 -0.1)">
       <use xlink:href="#ArialMT-30"/>
      </g>
     </g>
    </g>
    <g id="ytick_8">
     <g id="line2d_22">
      <path d="M 608.941699 316.503178 
L 1127.428185 316.503178 
" clip-path="url(#pbff4e20ea5)" style="fill: none; stroke: #cccccc; stroke-width: 0.8; stroke-linecap: round"/>
     </g>
     <g id="text_24">
      <!-- 10 -->
      <g style="fill: #262626" transform="translate(590.819824 320.082084) scale(0.1 -0.1)">
       <use xlink:href="#ArialMT-31"/>
       <use xlink:href="#ArialMT-30" transform="translate(55.615234 0)"/>
      </g>
     </g>
    </g>
    <g id="ytick_9">
     <g id="line2d_23">
      <path d="M 608.941699 242.485105 
L 1127.428185 242.485105 
" clip-path="url(#pbff4e20ea5)" style="fill: none; stroke: #cccccc; stroke-width: 0.8; stroke-linecap: round"/>
     </g>
     <g id="text_25">
      <!-- 20 -->
      <g style="fill: #262626" transform="translate(590.819824 246.064012) scale(0.1 -0.1)">
       <use xlink:href="#ArialMT-32"/>
       <use xlink:href="#ArialMT-30" transform="translate(55.615234 0)"/>
      </g>
     </g>
    </g>
    <g id="ytick_10">
     <g id="line2d_24">
      <path d="M 608.941699 168.467033 
L 1127.428185 168.467033 
" clip-path="url(#pbff4e20ea5)" style="fill: none; stroke: #cccccc; stroke-width: 0.8; stroke-linecap: round"/>
     </g>
     <g id="text_26">
      <!-- 30 -->
      <g style="fill: #262626" transform="translate(590.819824 172.045939) scale(0.1 -0.1)">
       <use xlink:href="#ArialMT-33"/>
       <use xlink:href="#ArialMT-30" transform="translate(55.615234 0)"/>
      </g>
     </g>
    </g>
    <g id="ytick_11">
     <g id="line2d_25">
      <path d="M 608.941699 94.448961 
L 1127.428185 94.448961 
" clip-path="url(#pbff4e20ea5)" style="fill: none; stroke: #cccccc; stroke-width: 0.8; stroke-linecap: round"/>
     </g>
     <g id="text_27">
      <!-- 40 -->
      <g style="fill: #262626" transform="translate(590.819824 98.027867) scale(0.1 -0.1)">
       <use xlink:href="#ArialMT-34"/>
       <use xlink:href="#ArialMT-30" transform="translate(55.615234 0)"/>
      </g>
     </g>
    </g>
    <g id="text_28">
     <!-- µg/m³ -->
     <g style="fill: #262626" transform="translate(584.715136 249.814219) rotate(-90) scale(0.1 -0.1)">
      <use xlink:href="#ArialMT-b5"/>
      <use xlink:href="#ArialMT-67" transform="translate(57.617188 0)"/>
      <use xlink:href="#ArialMT-2f" transform="translate(113.232422 0)"/>
      <use xlink:href="#ArialMT-6d" transform="translate(141.015625 0)"/>
      <use xlink:href="#ArialMT-b3" transform="translate(224.316406 0)"/>
     </g>
    </g>
   </g>
   <g id="FillBetweenPolyCollection_2">
    <defs>
     <path id="m5b79eec8f7" d="M 632.509267 -51.849375 
L 632.509267 -322.015339 
L 653.934328 -359.024375 
L 675.359389 -281.305399 
L 696.784451 -288.707206 
L 718.209512 -266.501785 
L 739.634573 -255.399074 
L 761.059635 -251.69817 
L 782.484696 -273.903592 
L 803.909758 -251.69817 
L 825.334819 -251.69817 
L 846.75988 -225.791845 
L 868.184942 -225.791845 
L 889.610003 -222.090941 
L 911.035065 -225.791845 
L 932.460126 -207.287327 
L 953.885187 -207.287327 
L 975.310249 -199.88552 
L 996.73531 -177.680098 
L 1018.160372 -162.876483 
L 1039.585433 -166.577387 
L 1061.010494 -166.577387 
L 1082.435556 -159.17558 
L 1103.860617 -151.773773 
L 1103.860617 -51.849375 
L 1103.860617 -51.849375 
L 1082.435556 -51.849375 
L 1061.010494 -51.849375 
L 1039.585433 -51.849375 
L 1018.160372 -51.849375 
L 996.73531 -51.849375 
L 975.310249 -51.849375 
L 953.885187 -51.849375 
L 932.460126 -51.849375 
L 911.035065 -51.849375 
L 889.610003 -51.849375 
L 868.184942 -51.849375 
L 846.75988 -51.849375 
L 825.334819 -51.849375 
L 803.909758 -51.849375 
L 782.484696 -51.849375 
L 761.059635 -51.849375 
L 739.634573 -51.849375 
L 718.209512 -51.849375 
L 696.784451 -51.849375 
L 675.359389 -51.849375 
L 653.934328 -51.849375 
L 632.509267 -51.849375 
z
" style="stroke: #3498db; stroke-opacity: 0.2"/>
    </defs>
    <g clip-path="url(#pbff4e20ea5)">
     <use xlink:href="#m5b79eec8f7" x="0" y="442.370625" style="fill: #3498db; fill-opacity: 0.2; stroke: #3498db; stroke-opacity: 0.2"/>
    </g>
   </g>
   <g id="line2d_26">
    <path d="M 632.509267 120.355286 
L 653.934328 83.34625 
L 675.359389 161.065226 
L 696.784451 153.663419 
L 718.209512 175.86884 
L 739.634573 186.971551 
L 761.059635 190.672455 
L 782.484696 168.467033 
L 803.909758 190.672455 
L 825.334819 190.672455 
L 846.75988 216.57878 
L 868.184942 216.57878 
L 889.610003 220.279684 
L 911.035065 216.57878 
L 932.460126 235.083298 
L 953.885187 235.083298 
L 975.310249 242.485105 
L 996.73531 264.690527 
L 1018.160372 279.494142 
L 1039.585433 275.793238 
L 1061.010494 275.793238 
L 1082.435556 283.195045 
L 1103.860617 290.596852 
" clip-path="url(#pbff4e20ea5)" style="fill: none; stroke: #3498db; stroke-width: 2.5; stroke-linecap: round"/>
    <defs>
     <path id="m7ff99f44cb" d="M 0 2 
C 0.530406 2 1.03916 1.789267 1.414214 1.414214 
C 1.789267 1.03916 2 0.530406 2 0 
C 2 -0.530406 1.789267 -1.03916 1.414214 -1.414214 
C 1.03916 -1.789267 0.530406 -2 0 -2 
C -0.530406 -2 -1.03916 -1.789267 -1.414214 -1.414214 
C -1.789267 -1.03916 -2 -0.530406 -2 0 
C -2 0.530406 -1.789267 1.03916 -1.414214 1.414214 
C -1.03916 1.789267 -0.530406 2 0 2 
z
" style="stroke: #3498db"/>
    </defs>
    <g clip-path="url(#pbff4e20ea5)">
     <use xlink:href="#m7ff99f44cb" x="632.509267" y="120.355286" style="fill: #3498db; stroke: #3498db"/>
     <use xlink:href="#m7ff99f44cb" x="653.934328" y="83.34625" style="fill: #3498db; stroke: #3498db"/>
     <use xlink:href="#m7ff99f44cb" x="675.359389" y="161.065226" style="fill: #3498db; stroke: #3498db"/>
     <use xlink:href="#m7ff99f44cb" x="696.784451" y="153.663419" style="fill: #3498db; stroke: #3498db"/>
     <use xlink:href="#m7ff99f44cb" x="718.209512" y="175.86884" style="fill: #3498db; stroke: #3498db"/>
     <use xlink:href="#m7ff99f44cb" x="739.634573" y="186.971551" style="fill: #3498db; stroke: #3498db"/>
     <use xlink:href="#m7ff99f44cb" x="761.059635" y="190.672455" style="fill: #3498db; stroke: #3498db"/>
     <use xlink:href="#m7ff99f44cb" x="782.484696" y="168.467033" style="fill: #3498db; stroke: #3498db"/>
     <use xlink:href="#m7ff99f44cb" x="803.909758" y="190.672455" style="fill: #3498db; stroke: #3498db"/>
     <use xlink:href="#m7ff99f44cb" x="825.334819" y="190.672455" style="fill: #3498db; stroke: #3498db"/>
     <use xlink:href="#m7ff99f44cb" x="846.75988" y="216.57878" style="fill: #3498db; stroke: #3498db"/>
     <use xlink:href="#m7ff99f44cb" x="868.184942" y="216.57878" style="fill: #3498db; stroke: #3498db"/>
     <use xlink:href="#m7ff99f44cb" x="889.610003" y="220.279684" style="fill: #3498db; stroke: #3498db"/>
     <use xlink:href="#m7ff99f44cb" x="911.035065" y="216.57878" style="fill: #3498db; stroke: #3498db"/>
     <use xlink:href="#m7ff99f44cb" x="932.460126" y="235.083298" style="fill: #3498db; stroke: #3498db"/>
     <use xlink:href="#m7ff99f44cb" x="953.885187" y="235.083298" style="fill: #3498db; stroke: #3498db"/>
     <use xlink:href="#m7ff99f44cb" x="975.310249" y="242.485105" style="fill: #3498db; stroke: #3498db"/>
     <use xlink:href="#m7ff99f44cb" x="996.73531" y="264.690527" style="fill: #3498db; stroke: #3498db"/>
     <use xlink:href="#m7ff99f44cb" x="1018.160372" y="279.494142" style="fill: #3498db; stroke: #3498db"/>
     <use xlink:href="#m7ff99f44cb" x="1039.585433" y="275.793238" style="fill: #3498db; stroke: #3498db"/>
     <use xlink:href="#m7ff99f44cb" x="1061.010494" y="275.793238" style="fill: #3498db; stroke: #3498db"/>
     <use xlink:href="#m7ff99f44cb" x="1082.435556" y="283.195045" style="fill: #3498db; stroke: #3498db"/>
     <use xlink:href="#m7ff99f44cb" x="1103.860617" y="290.596852" style="fill: #3498db; stroke: #3498db"/>
    </g>
   </g>
   <g id="line2d_27">
    <path d="M 608.941699 94.448961 
L 1127.428185 94.448961 
" clip-path="url(#pbff4e20ea5)" style="fill: none; stroke-dasharray: 3.7,1.6; stroke-dashoffset: 0; stroke: #dc143c; stroke-opacity: 0.7"/>
   </g>
   <g id="patch_9">
    <path d="M 608.941699 405.88 
L 608.941699 67.9875 
" style="fill: none; stroke: #cccccc; stroke-width: 0.8; stroke-linejoin: miter; stroke-linecap: square"/>
   </g>
   <g id="patch_10">
    <path d="M 1127.428185 405.88 
L 1127.428185 67.9875 
" style="fill: none; stroke: #cccccc; stroke-width: 0.8; stroke-linejoin: miter; stroke-linecap: square"/>
   </g>
   <g id="patch_11">
    <path d="M 608.941699 405.88 
L 1127.428185 405.88 
" style="fill: none; stroke: #cccccc; stroke-width: 0.8; stroke-linejoin: miter; stroke-linecap: square"/>
   </g>
   <g id="patch_12">
    <path d="M 608.941699 67.9875 
L 1127.428185 67.9875 
" style="fill: none; stroke: #cccccc; stroke-width: 0.8; stroke-linejoin: miter; stroke-linecap: square"/>
   </g>
   <g id="text_29">
    <!-- PM10 -->
    <g style="fill: #262626" transform="translate(849.899629 61.9875) scale(0.14 -0.14)">
     <defs>
      <path id="Arial-BoldMT-50" d="M 466 0 
L 466 4581 
L 1950 4581 
Q 2794 4581 3050 4513 
Q 3444 4409 3709 4064 
Q 3975 3719 3975 3172 
Q 3975 2750 3822 2462 
Q 3669 2175 3433 2011 
Q 3197 1847 2953 1794 
Q 2622 1728 1994 1728 
L 1391 1728 
L 1391 0 
L 466 0 
z
M 1391 3806 
L 1391 2506 
L 1897 2506 
Q 2444 2506 2628 2578 
Q 2813 2650 2917 2803 
Q 3022 2956 3022 3159 
Q 3022 3409 2875 3571 
Q 2728 3734 2503 3775 
Q 2338 3806 1838 3806 
L 1391 3806 
z
" transform="scale(0.015625)"/>
      <path id="Arial-BoldMT-4d" d="M 453 0 
L 453 4581 
L 1838 4581 
L 2669 1456 
L 3491 4581 
L 4878 4581 
L 4878 0 
L 4019 0 
L 4019 3606 
L 3109 0 
L 2219 0 
L 1313 3606 
L 1313 0 
L 453 0 
z
" transform="scale(0.015625)"/>
      <path id="Arial-BoldMT-31" d="M 2519 0 
L 1641 0 
L 1641 3309 
Q 1159 2859 506 2644 
L 506 3441 
Q 850 3553 1253 3867 
Q 1656 4181 1806 4600 
L 2519 4600 
L 2519 0 
z
" transform="scale(0.015625)"/>
      <path id="Arial-BoldMT-30" d="M 1756 4600 
Q 2422 4600 2797 4125 
Q 3244 3563 3244 2259 
Q 3244 959 2794 391 
Q 2422 -78 1756 -78 
Q 1088 -78 678 436 
Q 269 950 269 2269 
Q 269 3563 719 4131 
Q 1091 4600 1756 4600 
z
M 1756 3872 
Q 1597 3872 1472 3770 
Q 1347 3669 1278 3406 
Q 1188 3066 1188 2259 
Q 1188 1453 1269 1151 
Q 1350 850 1473 750 
Q 1597 650 1756 650 
Q 1916 650 2041 751 
Q 2166 853 2234 1116 
Q 2325 1453 2325 2259 
Q 2325 3066 2244 3367 
Q 2163 3669 2039 3770 
Q 1916 3872 1756 3872 
z
" transform="scale(0.015625)"/>
     </defs>
     <use xlink:href="#Arial-BoldMT-50"/>
     <use xlink:href="#Arial-BoldMT-4d" transform="translate(66.699219 0)"/>
     <use xlink:href="#Arial-BoldMT-31" transform="translate(150 0)"/>
     <use xlink:href="#Arial-BoldMT-30" transform="translate(205.615234 0)"/>
    </g>
   </g>
   <g id="legend_2">
    <g id="patch_13">
     <path d="M 1017.140216 88.133437 
L 1121.128185 88.133437 
Q 1122.928185 88.133437 1122.928185 86.333437 
L 1122.928185 74.2875 
Q 1122.928185 72.4875 1121.128185 72.4875 
L 1017.140216 72.4875 
Q 1015.340216 72.4875 1015.340216 74.2875 
L 1015.340216 86.333437 
Q 1015.340216 88.133437 1017.140216 88.133437 
z
" style="fill: #ffffff; opacity: 0.8; stroke: #cccccc; stroke-linejoin: miter"/>
    </g>
    <g id="line2d_28">
     <path d="M 1018.940216 79.489219 
L 1027.940216 79.489219 
L 1036.940216 79.489219 
" style="fill: none; stroke-dasharray: 3.7,1.6; stroke-dashoffset: 0; stroke: #dc143c; stroke-opacity: 0.7"/>
    </g>
    <g id="text_30">
     <!-- EU limit (40 µg/m³) -->
     <g style="fill: #262626" transform="translate(1044.140216 82.639219) scale(0.09 -0.09)">
      <use xlink:href="#ArialMT-45"/>
      <use xlink:href="#ArialMT-55" transform="translate(66.699219 0)"/>
      <use xlink:href="#ArialMT-20" transform="translate(138.916016 0)"/>
      <use xlink:href="#ArialMT-6c" transform="translate(166.699219 0)"/>
      <use xlink:href="#ArialMT-69" transform="translate(188.916016 0)"/>
      <use xlink:href="#ArialMT-6d" transform="translate(211.132812 0)"/>
      <use xlink:href="#ArialMT-69" transform="translate(294.433594 0)"/>
      <use xlink:href="#ArialMT-74" transform="translate(316.650391 0)"/>
      <use xlink:href="#ArialMT-20" transform="translate(344.433594 0)"/>
      <use xlink:href="#ArialMT-28" transform="translate(372.216797 0)"/>
      <use xlink:href="#ArialMT-34" transform="translate(405.517578 0)"/>
      <use xlink:href="#ArialMT-30" transform="translate(461.132812 0)"/>
      <use xlink:href="#ArialMT-20" transform="translate(516.748047 0)"/>
      <use xlink:href="#ArialMT-b5" transform="translate(544.53125 0)"/>
      <use xlink:href="#ArialMT-67" transform="translate(602.148438 0)"/>
      <use xlink:href="#ArialMT-2f" transform="translate(657.763672 0)"/>
      <use xlink:href="#ArialMT-6d" transform="translate(685.546875 0)"/>
      <use xlink:href="#ArialMT-b3" transform="translate(768.847656 0)"/>
      <use xlink:href="#ArialMT-29" transform="translate(802.148438 0)"/>
     </g>
    </g>
   </g>
  </g>
  <g id="text_31">
   <!-- Darmstadt — Long-Term Air Quality Trends (Annual Means) -->
   <g style="fill: #262626" transform="translate(360.04375 18.8575) scale(0.16 -0.16)">
    <defs>
     <path id="ArialMT-44" d="M 494 0 
L 494 4581 
L 2072 4581 
Q 2606 4581 2888 4516 
Q 3281 4425 3559 4188 
Q 3922 3881 4101 3404 
Q 4281 2928 4281 2316 
Q 4281 1794 4159 1391 
Q 4038 988 3847 723 
Q 3656 459 3429 307 
Q 3203 156 2883 78 
Q 2563 0 2147 0 
L 494 0 
z
M 1100 541 
L 2078 541 
Q 2531 541 2789 625 
Q 3047 709 3200 863 
Q 3416 1078 3536 1442 
Q 3656 1806 3656 2325 
Q 3656 3044 3420 3430 
Q 3184 3816 2847 3947 
Q 2603 4041 2063 4041 
L 1100 4041 
L 1100 541 
z
" transform="scale(0.015625)"/>
     <path id="ArialMT-73" d="M 197 991 
L 753 1078 
Q 800 744 1014 566 
Q 1228 388 1613 388 
Q 2000 388 2187 545 
Q 2375 703 2375 916 
Q 2375 1106 2209 1216 
Q 2094 1291 1634 1406 
Q 1016 1563 777 1677 
Q 538 1791 414 1992 
Q 291 2194 291 2438 
Q 291 2659 392 2848 
Q 494 3038 669 3163 
Q 800 3259 1026 3326 
Q 1253 3394 1513 3394 
Q 1903 3394 2198 3281 
Q 2494 3169 2634 2976 
Q 2775 2784 2828 2463 
L 2278 2388 
Q 2241 2644 2061 2787 
Q 1881 2931 1553 2931 
Q 1166 2931 1000 2803 
Q 834 2675 834 2503 
Q 834 2394 903 2306 
Q 972 2216 1119 2156 
Q 1203 2125 1616 2013 
Q 2213 1853 2448 1751 
Q 2684 1650 2818 1456 
Q 2953 1263 2953 975 
Q 2953 694 2789 445 
Q 2625 197 2315 61 
Q 2006 -75 1616 -75 
Q 969 -75 630 194 
Q 291 463 197 991 
z
" transform="scale(0.015625)"/>
     <path id="ArialMT-64" d="M 2575 0 
L 2575 419 
Q 2259 -75 1647 -75 
Q 1250 -75 917 144 
Q 584 363 401 755 
Q 219 1147 219 1656 
Q 219 2153 384 2558 
Q 550 2963 881 3178 
Q 1213 3394 1622 3394 
Q 1922 3394 2156 3267 
Q 2391 3141 2538 2938 
L 2538 4581 
L 3097 4581 
L 3097 0 
L 2575 0 
z
M 797 1656 
Q 797 1019 1065 703 
Q 1334 388 1700 388 
Q 2069 388 2326 689 
Q 2584 991 2584 1609 
Q 2584 2291 2321 2609 
Q 2059 2928 1675 2928 
Q 1300 2928 1048 2622 
Q 797 2316 797 1656 
z
" transform="scale(0.015625)"/>
     <path id="ArialMT-2014" d="M 0 1431 
L 0 1884 
L 6400 1884 
L 6400 1431 
L 0 1431 
z
" transform="scale(0.015625)"/>
     <path id="ArialMT-4c" d="M 469 0 
L 469 4581 
L 1075 4581 
L 1075 541 
L 3331 541 
L 3331 0 
L 469 0 
z
" transform="scale(0.015625)"/>
     <path id="ArialMT-6f" d="M 213 1659 
Q 213 2581 725 3025 
Q 1153 3394 1769 3394 
Q 2453 3394 2887 2945 
Q 3322 2497 3322 1706 
Q 3322 1066 3130 698 
Q 2938 331 2570 128 
Q 2203 -75 1769 -75 
Q 1072 -75 642 372 
Q 213 819 213 1659 
z
M 791 1659 
Q 791 1022 1069 705 
Q 1347 388 1769 388 
Q 2188 388 2466 706 
Q 2744 1025 2744 1678 
Q 2744 2294 2464 2611 
Q 2184 2928 1769 2928 
Q 1347 2928 1069 2612 
Q 791 2297 791 1659 
z
" transform="scale(0.015625)"/>
     <path id="ArialMT-6e" d="M 422 0 
L 422 3319 
L 928 3319 
L 928 2847 
Q 1294 3394 1984 3394 
Q 2284 3394 2536 3286 
Q 2788 3178 2913 3003 
Q 3038 2828 3088 2588 
Q 3119 2431 3119 2041 
L 3119 0 
L 2556 0 
L 2556 2019 
Q 2556 2363 2490 2533 
Q 2425 2703 2258 2804 
Q 2091 2906 1866 2906 
Q 1506 2906 1245 2678 
Q 984 2450 984 1813 
L 984 0 
L 422 0 
z
" transform="scale(0.015625)"/>
     <path id="ArialMT-2d" d="M 203 1375 
L 203 1941 
L 1931 1941 
L 1931 1375 
L 203 1375 
z
" transform="scale(0.015625)"/>
     <path id="ArialMT-54" d="M 1659 0 
L 1659 4041 
L 150 4041 
L 150 4581 
L 3781 4581 
L 3781 4041 
L 2266 4041 
L 2266 0 
L 1659 0 
z
" transform="scale(0.015625)"/>
     <path id="ArialMT-41" d="M -9 0 
L 1750 4581 
L 2403 4581 
L 4278 0 
L 3588 0 
L 3053 1388 
L 1138 1388 
L 634 0 
L -9 0 
z
M 1313 1881 
L 2866 1881 
L 2388 3150 
Q 2169 3728 2063 4100 
Q 1975 3659 1816 3225 
L 1313 1881 
z
" transform="scale(0.015625)"/>
     <path id="ArialMT-51" d="M 3966 491 
Q 4388 200 4744 66 
L 4566 -356 
Q 4072 -178 3581 206 
Q 3072 -78 2456 -78 
Q 1834 -78 1328 222 
Q 822 522 548 1065 
Q 275 1609 275 2291 
Q 275 2969 550 3525 
Q 825 4081 1333 4372 
Q 1841 4663 2469 4663 
Q 3103 4663 3612 4361 
Q 4122 4059 4389 3517 
Q 4656 2975 4656 2294 
Q 4656 1728 4484 1276 
Q 4313 825 3966 491 
z
M 2631 1266 
Q 3156 1119 3497 828 
Q 4031 1316 4031 2294 
Q 4031 2850 3842 3265 
Q 3653 3681 3289 3911 
Q 2925 4141 2472 4141 
Q 1794 4141 1347 3677 
Q 900 3213 900 2291 
Q 900 1397 1342 919 
Q 1784 441 2472 441 
Q 2797 441 3084 563 
Q 2800 747 2484 825 
L 2631 1266 
z
" transform="scale(0.015625)"/>
     <path id="ArialMT-75" d="M 2597 0 
L 2597 488 
Q 2209 -75 1544 -75 
Q 1250 -75 995 37 
Q 741 150 617 320 
Q 494 491 444 738 
Q 409 903 409 1263 
L 409 3319 
L 972 3319 
L 972 1478 
Q 972 1038 1006 884 
Q 1059 663 1231 536 
Q 1403 409 1656 409 
Q 1909 409 2131 539 
Q 2353 669 2445 892 
Q 2538 1116 2538 1541 
L 2538 3319 
L 3100 3319 
L 3100 0 
L 2597 0 
z
" transform="scale(0.015625)"/>
     <path id="ArialMT-79" d="M 397 -1278 
L 334 -750 
Q 519 -800 656 -800 
Q 844 -800 956 -737 
Q 1069 -675 1141 -563 
Q 1194 -478 1313 -144 
Q 1328 -97 1363 -6 
L 103 3319 
L 709 3319 
L 1400 1397 
Q 1534 1031 1641 628 
Q 1738 1016 1872 1384 
L 2581 3319 
L 3144 3319 
L 1881 -56 
Q 1678 -603 1566 -809 
Q 1416 -1088 1222 -1217 
Q 1028 -1347 759 -1347 
Q 597 -1347 397 -1278 
z
" transform="scale(0.015625)"/>
     <path id="ArialMT-4d" d="M 475 0 
L 475 4581 
L 1388 4581 
L 2472 1338 
Q 2622 884 2691 659 
Q 2769 909 2934 1394 
L 4031 4581 
L 4847 4581 
L 4847 0 
L 4263 0 
L 4263 3834 
L 2931 0 
L 2384 0 
L 1059 3900 
L 1059 0 
L 475 0 
z
" transform="scale(0.015625)"/>
    </defs>
    <use xlink:href="#ArialMT-44"/>
    <use xlink:href="#ArialMT-61" transform="translate(72.216797 0)"/>
    <use xlink:href="#ArialMT-72" transform="translate(127.832031 0)"/>
    <use xlink:href="#ArialMT-6d" transform="translate(161.132812 0)"/>
    <use xlink:href="#ArialMT-73" transform="translate(244.433594 0)"/>
    <use xlink:href="#ArialMT-74" transform="translate(294.433594 0)"/>
    <use xlink:href="#ArialMT-61" transform="translate(322.216797 0)"/>
    <use xlink:href="#ArialMT-64" transform="translate(377.832031 0)"/>
    <use xlink:href="#ArialMT-74" transform="translate(433.447266 0)"/>
    <use xlink:href="#ArialMT-20" transform="translate(461.230469 0)"/>
    <use xlink:href="#ArialMT-2014" transform="translate(489.013672 0)"/>
    <use xlink:href="#ArialMT-20" transform="translate(589.013672 0)"/>
    <use xlink:href="#ArialMT-4c" transform="translate(616.796875 0)"/>
    <use xlink:href="#ArialMT-6f" transform="translate(672.412109 0)"/>
    <use xlink:href="#ArialMT-6e" transform="translate(728.027344 0)"/>
    <use xlink:href="#ArialMT-67" transform="translate(783.642578 0)"/>
    <use xlink:href="#ArialMT-2d" transform="translate(839.257812 0)"/>
    <use xlink:href="#ArialMT-54" transform="translate(872.558594 0)"/>
    <use xlink:href="#ArialMT-65" transform="translate(922.517578 0)"/>
    <use xlink:href="#ArialMT-72" transform="translate(978.132812 0)"/>
    <use xlink:href="#ArialMT-6d" transform="translate(1011.433594 0)"/>
    <use xlink:href="#ArialMT-20" transform="translate(1094.734375 0)"/>
    <use xlink:href="#ArialMT-41" transform="translate(1117.017578 0)"/>
    <use xlink:href="#ArialMT-69" transform="translate(1183.716797 0)"/>
    <use xlink:href="#ArialMT-72" transform="translate(1205.933594 0)"/>
    <use xlink:href="#ArialMT-20" transform="translate(1239.234375 0)"/>
    <use xlink:href="#ArialMT-51" transform="translate(1267.017578 0)"/>
    <use xlink:href="#ArialMT-75" transform="translate(1344.800781 0)"/>
    <use xlink:href="#ArialMT-61" transform="translate(1400.416016 0)"/>
    <use xlink:href="#ArialMT-6c" transform="translate(1456.03125 0)"/>
    <use xlink:href="#ArialMT-69" transform="translate(1478.248047 0)"/>
    <use xlink:href="#ArialMT-74" transform="translate(1500.464844 0)"/>
    <use xlink:href="#ArialMT-79" transform="translate(1528.248047 0)"/>
    <use xlink:href="#ArialMT-20" transform="translate(1578.248047 0)"/>
    <use xlink:href="#ArialMT-54" transform="translate(1604.28125 0)"/>
    <use xlink:href="#ArialMT-72" transform="translate(1661.615234 0)"/>
    <use xlink:href="#ArialMT-65" transform="translate(1694.916016 0)"/>
    <use xlink:href="#ArialMT-6e" transform="translate(1750.53125 0)"/>
    <use xlink:href="#ArialMT-64" transform="translate(1806.146484 0)"/>
    <use xlink:href="#ArialMT-73" transform="translate(1861.761719 0)"/>
    <use xlink:href="#ArialMT-20" transform="translate(1911.761719 0)"/>
    <use xlink:href="#ArialMT-28" transform="translate(1939.544922 0)"/>
    <use xlink:href="#ArialMT-41" transform="translate(1972.845703 0)"/>
    <use xlink:href="#ArialMT-6e" transform="translate(2039.544922 0)"/>
    <use xlink:href="#ArialMT-6e" transform="translate(2095.160156 0)"/>
    <use xlink:href="#ArialMT-75" transform="translate(2150.775391 0)"/>
    <use xlink:href="#ArialMT-61" transform="translate(2206.390625 0)"/>
    <use xlink:href="#ArialMT-6c" transform="translate(2262.005859 0)"/>
    <use xlink:href="#ArialMT-20" transform="translate(2284.222656 0)"/>
    <use xlink:href="#ArialMT-4d" transform="translate(2312.005859 0)"/>
    <use xlink:href="#ArialMT-65" transform="translate(2395.306641 0)"/>
    <use xlink:href="#ArialMT-61" transform="translate(2450.921875 0)"/>
    <use xlink:href="#ArialMT-6e" transform="translate(2506.537109 0)"/>
    <use xlink:href="#ArialMT-73" transform="translate(2562.152344 0)"/>
    <use xlink:href="#ArialMT-29" transform="translate(2612.152344 0)"/>
   </g>
  </g>
 </g>
 <defs>
  <clipPath id="p830084880e">
   <rect x="38.70625" y="67.9875" width="518.486486" height="337.8925"/>
  </clipPath>
  <clipPath id="pbff4e20ea5">
   <rect x="608.941699" y="67.9875" width="518.486486" height="337.8925"/>
  </clipPath>
 </defs>
</svg>
