<?xml version="1.0" encoding="utf-8" standalone="no"?>
<!DOCTYPE svg PUBLIC "-//W3C//DTD SVG 1.1//EN"
  "http://www.w3.org/Graphics/SVG/1.1/DTD/svg11.dtd">
<svg xmlns:xlink="http://www.w3.org/1999/xlink" width="1144.06625pt" height="423.265312pt" viewBox="0 0 1144.06625 423.265312" xmlns="http://www.w3.org/2000/svg" version="1.1">
 <metadata>
  <rdf:RDF xmlns:dc="http://purl.org/dc/elements/1.1/" xmlns:cc="http://creativecommons.org/ns#" xmlns:rdf="http://www.w3.org/1999/02/22-rdf-syntax-ns#">
   <cc:Work>
    <dc:type rdf:resource="http://purl.org/dc/dcmitype/StillImage"/>
    <dc:date>2026-03-28T21:37:09.429771</dc:date>
    <dc:format>image/svg+xml</dc:format>
    <dc:creator>
     <cc:Agent>
      <dc:title>Matplotlib v3.10.8, https://matplotlib.org/</dc:title>
     </cc:Agent>
    </dc:creator>
   </cc:Work>
  </rdf:RDF>
 </metadata>
 <defs>
  <style type="text/css">*{stroke-linejoin: round; stroke-linecap: butt}</style>
 </defs>
 <g id="figure_1">
  <g id="patch_1">
   <path d="M 0 423.265312 
L 1144.06625 423.265312 
L 1144.06625 0 
L 0 0 
z
" style="fill: #ffffff"/>
  </g>
  <g id="axes_1">
   <g id="patch_2">
    <path d="M 38.70625 386.535625 
L 557.726768 386.535625 
L 557.726768 21.935625 
L 38.70625 21.935625 
z
" style="fill: #ffffff"/>
   </g>
   <g id="matplotlib.axis_1">
    <g id="xtick_1">
     <g id="line2d_1">
      <path d="M 41.783447 386.535625 
L 41.783447 21.935625 
" clip-path="url(#p5d10bf299f)" style="fill: none; stroke: #cccccc; stroke-width: 0.8; stroke-linecap: round"/>
     </g>
     <g id="text_1">
      <!-- 2000 -->
      <g style="fill: #262626" transform="translate(30.661572 400.693437) scale(0.1 -0.1)">
       <defs>
        <path id="ArialMT-32" d="M 3222 541 
L 3222 0 
L 194 0 
Q 188 203 259 391 
Q 375 700 629 1000 
Q 884 1300 1366 1694 
Q 2113 2306 2375 2664 
Q 2638 3022 2638 3341 
Q 2638 3675 2398 3904 
Q 2159 4134 1775 4134 
Q 1369 4134 1125 3890 
Q 881 3647 878 3216 
L 300 3275 
Q 359 3922 746 4261 
Q 1134 4600 1788 4600 
Q 2447 4600 2831 4234 
Q 3216 3869 3216 3328 
Q 3216 3053 3103 2787 
Q 2991 2522 2730 2228 
Q 2469 1934 1863 1422 
Q 1356 997 1212 845 
Q 1069 694 975 541 
L 3222 541 
z
" transform="scale(0.015625)"/>
        <path id="ArialMT-30" d="M 266 2259 
Q 266 3072 433 3567 
Q 600 4063 929 4331 
Q 1259 4600 1759 4600 
Q 2128 4600 2406 4451 
Q 2684 4303 2865 4023 
Q 3047 3744 3150 3342 
Q 3253 2941 3253 2259 
Q 3253 1453 3087 958 
Q 2922 463 2592 192 
Q 2263 -78 1759 -78 
Q 1097 -78 719 397 
Q 266 969 266 2259 
z
M 844 2259 
Q 844 1131 1108 757 
Q 1372 384 1759 384 
Q 2147 384 2411 759 
Q 2675 1134 2675 2259 
Q 2675 3391 2411 3762 
Q 2147 4134 1753 4134 
Q 1366 4134 1134 3806 
Q 844 3388 844 2259 
z
" transform="scale(0.015625)"/>
       </defs>
       <use xlink:href="#ArialMT-32"/>
       <use xlink:href="#ArialMT-30" transform="translate(55.615234 0)"/>
       <use xlink:href="#ArialMT-30" transform="translate(111.230469 0)"/>
       <use xlink:href="#ArialMT-30" transform="translate(166.845703 0)"/>
      </g>
     </g>
    </g>
    <g id="xtick_2">
     <g id="line2d_2">
      <path d="M 144.356672 386.535625 
L 144.356672 21.935625 
" clip-path="url(#p5d10bf299f)" style="fill: none; stroke: #cccccc; stroke-width: 0.8; stroke-linecap: round"/>
     </g>
     <g id="text_2">
      <!-- 2005 -->
      <g style="fill: #262626" transform="translate(133.234797 400.693437) scale(0.1 -0.1)">
       <defs>
        <path id="ArialMT-35" d="M 266 1200 
L 856 1250 
Q 922 819 1161 601 
Q 1400 384 1738 384 
Q 2144 384 2425 690 
Q 2706 997 2706 1503 
Q 2706 1984 2436 2262 
Q 2166 2541 1728 2541 
Q 1456 2541 1237 2417 
Q 1019 2294 894 2097 
L 366 2166 
L 809 4519 
L 3088 4519 
L 3088 3981 
L 1259 3981 
L 1013 2750 
Q 1425 3038 1878 3038 
Q 2478 3038 2890 2622 
Q 3303 2206 3303 1553 
Q 3303 931 2941 478 
Q 2500 -78 1738 -78 
Q 1113 -78 717 272 
Q 322 622 266 1200 
z
" transform="scale(0.015625)"/>
       </defs>
       <use xlink:href="#ArialMT-32"/>
       <use xlink:href="#ArialMT-30" transform="translate(55.615234 0)"/>
       <use xlink:href="#ArialMT-30" transform="translate(111.230469 0)"/>
       <use xlink:href="#ArialMT-35" transform="translate(166.845703 0)"/>
      </g>
     </g>
    </g>
    <g id="xtick_3">
     <g id="line2d_3">
      <path d="M 246.929897 386.535625 
L 246.929897 21.935625 
" clip-path="url(#p5d10bf299f)" style="fill: none; stroke: #cccccc; stroke-width: 0.8; stroke-linecap: round"/>
     </g>
     <g id="text_3">
      <!-- 2010 -->
      <g style="fill: #262626" transform="translate(235.808022 400.693437) scale(0.1 -0.1)">
       <defs>
        <path id="ArialMT-31" d="M 2384 0 
L 1822 0 
L 1822 3584 
Q 1619 3391 1289 3197 
Q 959 3003 697 2906 
L 697 3450 
Q 1169 3672 1522 3987 
Q 1875 4303 2022 4600 
L 2384 4600 
L 2384 0 
z
" transform="scale(0.015625)"/>
       </defs>
       <use xlink:href="#ArialMT-32"/>
       <use xlink:href="#ArialMT-30" transform="translate(55.615234 0)"/>
       <use xlink:href="#ArialMT-31" transform="translate(111.230469 0)"/>
       <use xlink:href="#ArialMT-30" transform="translate(166.845703 0)"/>
      </g>
     </g>
    </g>
    <g id="xtick_4">
     <g id="line2d_4">
      <path d="M 349.503122 386.535625 
L 349.503122 21.935625 
" clip-path="url(#p5d10bf299f)" style="fill: none; stroke: #cccccc; stroke-width: 0.8; stroke-linecap: round"/>
     </g>
     <g id="text_4">
      <!-- 2015 -->
      <g style="fill: #262626" transform="translate(338.381247 400.693437) scale(0.1 -0.1)">
       <use xlink:href="#ArialMT-32"/>
       <use xlink:href="#ArialMT-30" transform="translate(55.615234 0)"/>
       <use xlink:href="#ArialMT-31" transform="translate(111.230469 0)"/>
       <use xlink:href="#ArialMT-35" transform="translate(166.845703 0)"/>
      </g>
     </g>
    </g>
    <g id="xtick_5">
     <g id="line2d_5">
      <path d="M 452.076347 386.535625 
L 452.076347 21.935625 
" clip-path="url(#p5d10bf299f)" style="fill: none; stroke: #cccccc; stroke-width: 0.8; stroke-linecap: round"/>
     </g>
     <g id="text_5">
      <!-- 2020 -->
      <g style="fill: #262626" transform="translate(440.954472 400.693437) scale(0.1 -0.1)">
       <use xlink:href="#ArialMT-32"/>
       <use xlink:href="#ArialMT-30" transform="translate(55.615234 0)"/>
       <use xlink:href="#ArialMT-32" transform="translate(111.230469 0)"/>
       <use xlink:href="#ArialMT-30" transform="translate(166.845703 0)"/>
      </g>
     </g>
    </g>
    <g id="xtick_6">
     <g id="line2d_6">
      <path d="M 554.649572 386.535625 
L 554.649572 21.935625 
" clip-path="url(#p5d10bf299f)" style="fill: none; stroke: #cccccc; stroke-width: 0.8; stroke-linecap: round"/>
     </g>
     <g id="text_6">
      <!-- 2025 -->
      <g style="fill: #262626" transform="translate(543.527697 400.693437) scale(0.1 -0.1)">
       <use xlink:href="#ArialMT-32"/>
       <use xlink:href="#ArialMT-30" transform="translate(55.615234 0)"/>
       <use xlink:href="#ArialMT-32" transform="translate(111.230469 0)"/>
       <use xlink:href="#ArialMT-35" transform="translate(166.845703 0)"/>
      </g>
     </g>
    </g>
    <g id="text_7">
     <!-- Year -->
     <g style="fill: #262626" transform="translate(288.111822 413.83875) scale(0.1 -0.1)">
      <defs>
       <path id="ArialMT-59" d="M 1784 0 
L 1784 1941 
L 19 4581 
L 756 4581 
L 1659 3200 
Q 1909 2813 2125 2425 
Q 2331 2784 2625 3234 
L 3513 4581 
L 4219 4581 
L 2391 1941 
L 2391 0 
L 1784 0 
z
" transform="scale(0.015625)"/>
       <path id="ArialMT-65" d="M 2694 1069 
L 3275 997 
Q 3138 488 2766 206 
Q 2394 -75 1816 -75 
Q 1088 -75 661 373 
Q 234 822 234 1631 
Q 234 2469 665 2931 
Q 1097 3394 1784 3394 
Q 2450 3394 2872 2941 
Q 3294 2488 3294 1666 
Q 3294 1616 3291 1516 
L 816 1516 
Q 847 969 1125 678 
Q 1403 388 1819 388 
Q 2128 388 2347 550 
Q 2566 713 2694 1069 
z
M 847 1978 
L 2700 1978 
Q 2663 2397 2488 2606 
Q 2219 2931 1791 2931 
Q 1403 2931 1139 2672 
Q 875 2413 847 1978 
z
" transform="scale(0.015625)"/>
       <path id="ArialMT-61" d="M 2588 409 
Q 2275 144 1986 34 
Q 1697 -75 1366 -75 
Q 819 -75 525 192 
Q 231 459 231 875 
Q 231 1119 342 1320 
Q 453 1522 633 1644 
Q 813 1766 1038 1828 
Q 1203 1872 1538 1913 
Q 2219 1994 2541 2106 
Q 2544 2222 2544 2253 
Q 2544 2597 2384 2738 
Q 2169 2928 1744 2928 
Q 1347 2928 1158 2789 
Q 969 2650 878 2297 
L 328 2372 
Q 403 2725 575 2942 
Q 747 3159 1072 3276 
Q 1397 3394 1825 3394 
Q 2250 3394 2515 3294 
Q 2781 3194 2906 3042 
Q 3031 2891 3081 2659 
Q 3109 2516 3109 2141 
L 3109 1391 
Q 3109 606 3145 398 
Q 3181 191 3288 0 
L 2700 0 
Q 2613 175 2588 409 
z
M 2541 1666 
Q 2234 1541 1622 1453 
Q 1275 1403 1131 1340 
Q 988 1278 909 1158 
Q 831 1038 831 891 
Q 831 666 1001 516 
Q 1172 366 1500 366 
Q 1825 366 2078 508 
Q 2331 650 2450 897 
Q 2541 1088 2541 1459 
L 2541 1666 
z
" transform="scale(0.015625)"/>
       <path id="ArialMT-72" d="M 416 0 
L 416 3319 
L 922 3319 
L 922 2816 
Q 1116 3169 1280 3281 
Q 1444 3394 1641 3394 
Q 1925 3394 2219 3213 
L 2025 2691 
Q 1819 2813 1613 2813 
Q 1428 2813 1281 2702 
Q 1134 2591 1072 2394 
Q 978 2094 978 1738 
L 978 0 
L 416 0 
z
" transform="scale(0.015625)"/>
      </defs>
      <use xlink:href="#ArialMT-59"/>
      <use xlink:href="#ArialMT-65" transform="translate(57.574219 0)"/>
      <use xlink:href="#ArialMT-61" transform="translate(113.189453 0)"/>
      <use xlink:href="#ArialMT-72" transform="translate(168.804688 0)"/>
     </g>
    </g>
   </g>
   <g id="matplotlib.axis_2">
    <g id="ytick_1">
     <g id="line2d_7">
      <path d="M 38.70625 361.536087 
L 557.726768 361.536087 
" clip-path="url(#p5d10bf299f)" style="fill: none; stroke: #cccccc; stroke-width: 0.8; stroke-linecap: round"/>
     </g>
     <g id="text_8">
      <!-- 20 -->
      <g style="fill: #262626" transform="translate(20.584375 365.114993) scale(0.1 -0.1)">
       <use xlink:href="#ArialMT-32"/>
       <use xlink:href="#ArialMT-30" transform="translate(55.615234 0)"/>
      </g>
     </g>
    </g>
    <g id="ytick_2">
     <g id="line2d_8">
      <path d="M 38.70625 319.402035 
L 557.726768 319.402035 
" clip-path="url(#p5d10bf299f)" style="fill: none; stroke: #cccccc; stroke-width: 0.8; stroke-linecap: round"/>
     </g>
     <g id="text_9">
      <!-- 25 -->
      <g style="fill: #262626" transform="translate(20.584375 322.980941) scale(0.1 -0.1)">
       <use xlink:href="#ArialMT-32"/>
       <use xlink:href="#ArialMT-35" transform="translate(55.615234 0)"/>
      </g>
     </g>
    </g>
    <g id="ytick_3">
     <g id="line2d_9">
      <path d="M 38.70625 277.267982 
L 557.726768 277.267982 
" clip-path="url(#p5d10bf299f)" style="fill: none; stroke: #cccccc; stroke-width: 0.8; stroke-linecap: round"/>
     </g>
     <g id="text_10">
      <!-- 30 -->
      <g style="fill: #262626" transform="translate(20.584375 280.846889) scale(0.1 -0.1)">
       <defs>
        <path id="ArialMT-33" d="M 269 1209 
L 831 1284 
Q 928 806 1161 595 
Q 1394 384 1728 384 
Q 2125 384 2398 659 
Q 2672 934 2672 1341 
Q 2672 1728 2419 1979 
Q 2166 2231 1775 2231 
Q 1616 2231 1378 2169 
L 1441 2663 
Q 1497 2656 1531 2656 
Q 1891 2656 2178 2843 
Q 2466 3031 2466 3422 
Q 2466 3731 2256 3934 
Q 2047 4138 1716 4138 
Q 1388 4138 1169 3931 
Q 950 3725 888 3313 
L 325 3413 
Q 428 3978 793 4289 
Q 1159 4600 1703 4600 
Q 2078 4600 2393 4439 
Q 2709 4278 2876 4000 
Q 3044 3722 3044 3409 
Q 3044 3113 2884 2869 
Q 2725 2625 2413 2481 
Q 2819 2388 3044 2092 
Q 3269 1797 3269 1353 
Q 3269 753 2831 336 
Q 2394 -81 1725 -81 
Q 1122 -81 723 278 
Q 325 638 269 1209 
z
" transform="scale(0.015625)"/>
       </defs>
       <use xlink:href="#ArialMT-33"/>
       <use xlink:href="#ArialMT-30" transform="translate(55.615234 0)"/>
      </g>
     </g>
    </g>
    <g id="ytick_4">
     <g id="line2d_10">
      <path d="M 38.70625 235.13393 
L 557.726768 235.13393 
" clip-path="url(#p5d10bf299f)" style="fill: none; stroke: #cccccc; stroke-width: 0.8; stroke-linecap: round"/>
     </g>
     <g id="text_11">
      <!-- 35 -->
      <g style="fill: #262626" transform="translate(20.584375 238.712836) scale(0.1 -0.1)">
       <use xlink:href="#ArialMT-33"/>
       <use xlink:href="#ArialMT-35" transform="translate(55.615234 0)"/>
      </g>
     </g>
    </g>
    <g id="ytick_5">
     <g id="line2d_11">
      <path d="M 38.70625 192.999878 
L 557.726768 192.999878 
" clip-path="url(#p5d10bf299f)" style="fill: none; stroke: #cccccc; stroke-width: 0.8; stroke-linecap: round"/>
     </g>
     <g id="text_12">
      <!-- 40 -->
      <g style="fill: #262626" transform="translate(20.584375 196.578784) scale(0.1 -0.1)">
       <defs>
        <path id="ArialMT-34" d="M 2069 0 
L 2069 1097 
L 81 1097 
L 81 1613 
L 2172 4581 
L 2631 4581 
L 2631 1613 
L 3250 1613 
L 3250 1097 
L 2631 1097 
L 2631 0 
L 2069 0 
z
M 2069 1613 
L 2069 3678 
L 634 1613 
L 2069 1613 
z
" transform="scale(0.015625)"/>
       </defs>
       <use xlink:href="#ArialMT-34"/>
       <use xlink:href="#ArialMT-30" transform="translate(55.615234 0)"/>
      </g>
     </g>
    </g>
    <g id="ytick_6">
     <g id="line2d_12">
      <path d="M 38.70625 150.865825 
L 557.726768 150.865825 
" clip-path="url(#p5d10bf299f)" style="fill: none; stroke: #cccccc; stroke-width: 0.8; stroke-linecap: round"/>
     </g>
     <g id="text_13">
      <!-- 45 -->
      <g style="fill: #262626" transform="translate(20.584375 154.444732) scale(0.1 -0.1)">
       <use xlink:href="#ArialMT-34"/>
       <use xlink:href="#ArialMT-35" transform="translate(55.615234 0)"/>
      </g>
     </g>
    </g>
    <g id="ytick_7">
     <g id="line2d_13">
      <path d="M 38.70625 108.731773 
L 557.726768 108.731773 
" clip-path="url(#p5d10bf299f)" style="fill: none; stroke: #cccccc; stroke-width: 0.8; stroke-linecap: round"/>
     </g>
     <g id="text_14">
      <!-- 50 -->
      <g style="fill: #262626" transform="translate(20.584375 112.310679) scale(0.1 -0.1)">
       <use xlink:href="#ArialMT-35"/>
       <use xlink:href="#ArialMT-30" transform="translate(55.615234 0)"/>
      </g>
     </g>
    </g>
    <g id="ytick_8">
     <g id="line2d_14">
      <path d="M 38.70625 66.597721 
L 557.726768 66.597721 
" clip-path="url(#p5d10bf299f)" style="fill: none; stroke: #cccccc; stroke-width: 0.8; stroke-linecap: round"/>
     </g>
     <g id="text_15">
      <!-- 55 -->
      <g style="fill: #262626" transform="translate(20.584375 70.176627) scale(0.1 -0.1)">
       <use xlink:href="#ArialMT-35"/>
       <use xlink:href="#ArialMT-35" transform="translate(55.615234 0)"/>
      </g>
     </g>
    </g>
    <g id="ytick_9">
     <g id="line2d_15">
      <path d="M 38.70625 24.463668 
L 557.726768 24.463668 
" clip-path="url(#p5d10bf299f)" style="fill: none; stroke: #cccccc; stroke-width: 0.8; stroke-linecap: round"/>
     </g>
     <g id="text_16">
      <!-- 60 -->
      <g style="fill: #262626" transform="translate(20.584375 28.042574) scale(0.1 -0.1)">
       <defs>
        <path id="ArialMT-36" d="M 3184 3459 
L 2625 3416 
Q 2550 3747 2413 3897 
Q 2184 4138 1850 4138 
Q 1581 4138 1378 3988 
Q 1113 3794 959 3422 
Q 806 3050 800 2363 
Q 1003 2672 1297 2822 
Q 1591 2972 1913 2972 
Q 2475 2972 2870 2558 
Q 3266 2144 3266 1488 
Q 3266 1056 3080 686 
Q 2894 316 2569 119 
Q 2244 -78 1831 -78 
Q 1128 -78 684 439 
Q 241 956 241 2144 
Q 241 3472 731 4075 
Q 1159 4600 1884 4600 
Q 2425 4600 2770 4297 
Q 3116 3994 3184 3459 
z
M 888 1484 
Q 888 1194 1011 928 
Q 1134 663 1356 523 
Q 1578 384 1822 384 
Q 2178 384 2434 671 
Q 2691 959 2691 1453 
Q 2691 1928 2437 2201 
Q 2184 2475 1800 2475 
Q 1419 2475 1153 2201 
Q 888 1928 888 1484 
z
" transform="scale(0.015625)"/>
       </defs>
       <use xlink:href="#ArialMT-36"/>
       <use xlink:href="#ArialMT-30" transform="translate(55.615234 0)"/>
      </g>
     </g>
    </g>
    <g id="text_17">
     <!-- µg/m³ -->
     <g style="fill: #262626" transform="translate(14.479688 217.116094) rotate(-90) scale(0.1 -0.1)">
      <defs>
       <path id="ArialMT-b5" d="M 3181 3319 
L 3181 0 
L 2678 0 
L 2678 394 
Q 2516 144 2356 50 
Q 2138 -78 1847 -78 
Q 1588 -78 1388 25 
Q 1238 103 1056 334 
L 1056 -1272 
L 500 -1272 
L 500 3319 
L 1056 3319 
L 1056 1913 
Q 1056 1147 1137 920 
Q 1219 694 1401 562 
Q 1584 431 1822 431 
Q 2072 431 2269 568 
Q 2466 706 2547 923 
Q 2628 1141 2628 1903 
L 2628 3319 
L 3181 3319 
z
" transform="scale(0.015625)"/>
       <path id="ArialMT-67" d="M 319 -275 
L 866 -356 
Q 900 -609 1056 -725 
Q 1266 -881 1628 -881 
Q 2019 -881 2231 -725 
Q 2444 -569 2519 -288 
Q 2563 -116 2559 434 
Q 2191 0 1641 0 
Q 956 0 581 494 
Q 206 988 206 1678 
Q 206 2153 378 2554 
Q 550 2956 876 3175 
Q 1203 3394 1644 3394 
Q 2231 3394 2613 2919 
L 2613 3319 
L 3131 3319 
L 3131 450 
Q 3131 -325 2973 -648 
Q 2816 -972 2473 -1159 
Q 2131 -1347 1631 -1347 
Q 1038 -1347 672 -1080 
Q 306 -813 319 -275 
z
M 784 1719 
Q 784 1066 1043 766 
Q 1303 466 1694 466 
Q 2081 466 2343 764 
Q 2606 1063 2606 1700 
Q 2606 2309 2336 2618 
Q 2066 2928 1684 2928 
Q 1309 2928 1046 2623 
Q 784 2319 784 1719 
z
" transform="scale(0.015625)"/>
       <path id="ArialMT-2f" d="M 0 -78 
L 1328 4659 
L 1778 4659 
L 453 -78 
L 0 -78 
z
" transform="scale(0.015625)"/>
       <path id="ArialMT-6d" d="M 422 0 
L 422 3319 
L 925 3319 
L 925 2853 
Q 1081 3097 1340 3245 
Q 1600 3394 1931 3394 
Q 2300 3394 2536 3241 
Q 2772 3088 2869 2813 
Q 3263 3394 3894 3394 
Q 4388 3394 4653 3120 
Q 4919 2847 4919 2278 
L 4919 0 
L 4359 0 
L 4359 2091 
Q 4359 2428 4304 2576 
Q 4250 2725 4106 2815 
Q 3963 2906 3769 2906 
Q 3419 2906 3187 2673 
Q 2956 2441 2956 1928 
L 2956 0 
L 2394 0 
L 2394 2156 
Q 2394 2531 2256 2718 
Q 2119 2906 1806 2906 
Q 1569 2906 1367 2781 
Q 1166 2656 1075 2415 
Q 984 2175 984 1722 
L 984 0 
L 422 0 
z
" transform="scale(0.015625)"/>
       <path id="ArialMT-b3" d="M 103 2903 
L 559 2950 
Q 622 2763 722 2694 
Q 856 2600 1041 2600 
Q 1263 2600 1397 2722 
Q 1531 2844 1531 3016 
Q 1531 3172 1418 3265 
Q 1306 3359 1034 3359 
Q 997 3359 931 3353 
Q 888 3350 863 3350 
L 931 3694 
Q 1184 3691 1301 3784 
Q 1419 3878 1419 4013 
Q 1419 4128 1325 4209 
Q 1231 4291 1047 4291 
Q 872 4291 773 4222 
Q 675 4153 603 3972 
L 156 4044 
Q 284 4375 479 4506 
Q 675 4638 1050 4638 
Q 1500 4638 1704 4470 
Q 1909 4303 1909 4053 
Q 1909 3881 1798 3747 
Q 1688 3613 1478 3553 
Q 1756 3484 1887 3326 
Q 2019 3169 2019 2956 
Q 2019 2666 1772 2450 
Q 1525 2234 1069 2234 
Q 631 2234 400 2407 
Q 169 2581 103 2903 
z
" transform="scale(0.015625)"/>
      </defs>
      <use xlink:href="#ArialMT-b5"/>
      <use xlink:href="#ArialMT-67" transform="translate(57.617188 0)"/>
      <use xlink:href="#ArialMT-2f" transform="translate(113.232422 0)"/>
      <use xlink:href="#ArialMT-6d" transform="translate(141.015625 0)"/>
      <use xlink:href="#ArialMT-b3" transform="translate(224.316406 0)"/>
     </g>
    </g>
   </g>
   <g id="line2d_16">
    <path d="M 62.298092 174.039554 
L 82.812737 178.252959 
L 103.327382 161.399338 
L 123.842027 182.466365 
L 144.356672 188.786472 
L 164.871317 192.999878 
L 185.385962 201.426688 
L 205.900607 218.280309 
L 226.415252 216.594947 
L 246.929897 228.392482 
L 267.444542 235.13393 
L 287.959187 246.931465 
L 308.473832 250.302189 
L 328.988477 268.841172 
L 349.503122 285.694793 
L 370.017767 282.324069 
L 390.532412 284.009431 
L 411.047057 290.750879 
L 431.561702 302.548414 
L 452.076347 332.884932 
L 472.590992 341.311742 
L 493.105637 354.794639 
L 513.620282 368.277536 
L 534.134927 369.962898 
" clip-path="url(#p5d10bf299f)" style="fill: none; stroke: #3498db; stroke-width: 2.5; stroke-linecap: round"/>
    <defs>
     <path id="md799c943b0" d="M 0 2 
C 0.530406 2 1.03916 1.789267 1.414214 1.414214 
C 1.789267 1.03916 2 0.530406 2 0 
C 2 -0.530406 1.789267 -1.03916 1.414214 -1.414214 
C 1.03916 -1.789267 0.530406 -2 0 -2 
C -0.530406 -2 -1.03916 -1.789267 -1.414214 -1.414214 
C -1.789267 -1.03916 -2 -0.530406 -2 0 
C -2 0.530406 -1.789267 1.03916 -1.414214 1.414214 
C -1.03916 1.789267 -0.530406 2 0 2 
z
" style="stroke: #3498db"/>
    </defs>
    <g clip-path="url(#p5d10bf299f)">
     <use xlink:href="#md799c943b0" x="62.298092" y="174.039554" style="fill: #3498db; stroke: #3498db"/>
     <use xlink:href="#md799c943b0" x="82.812737" y="178.252959" style="fill: #3498db; stroke: #3498db"/>
     <use xlink:href="#md799c943b0" x="103.327382" y="161.399338" style="fill: #3498db; stroke: #3498db"/>
     <use xlink:href="#md799c943b0" x="123.842027" y="182.466365" style="fill: #3498db; stroke: #3498db"/>
     <use xlink:href="#md799c943b0" x="144.356672" y="188.786472" style="fill: #3498db; stroke: #3498db"/>
     <use xlink:href="#md799c943b0" x="164.871317" y="192.999878" style="fill: #3498db; stroke: #3498db"/>
     <use xlink:href="#md799c943b0" x="185.385962" y="201.426688" style="fill: #3498db; stroke: #3498db"/>
     <use xlink:href="#md799c943b0" x="205.900607" y="218.280309" style="fill: #3498db; stroke: #3498db"/>
     <use xlink:href="#md799c943b0" x="226.415252" y="216.594947" style="fill: #3498db; stroke: #3498db"/>
     <use xlink:href="#md799c943b0" x="246.929897" y="228.392482" style="fill: #3498db; stroke: #3498db"/>
     <use xlink:href="#md799c943b0" x="267.444542" y="235.13393" style="fill: #3498db; stroke: #3498db"/>
     <use xlink:href="#md799c943b0" x="287.959187" y="246.931465" style="fill: #3498db; stroke: #3498db"/>
     <use xlink:href="#md799c943b0" x="308.473832" y="250.302189" style="fill: #3498db; stroke: #3498db"/>
     <use xlink:href="#md799c943b0" x="328.988477" y="268.841172" style="fill: #3498db; stroke: #3498db"/>
     <use xlink:href="#md799c943b0" x="349.503122" y="285.694793" style="fill: #3498db; stroke: #3498db"/>
     <use xlink:href="#md799c943b0" x="370.017767" y="282.324069" style="fill: #3498db; stroke: #3498db"/>
     <use xlink:href="#md799c943b0" x="390.532412" y="284.009431" style="fill: #3498db; stroke: #3498db"/>
     <use xlink:href="#md799c943b0" x="411.047057" y="290.750879" style="fill: #3498db; stroke: #3498db"/>
     <use xlink:href="#md799c943b0" x="431.561702" y="302.548414" style="fill: #3498db; stroke: #3498db"/>
     <use xlink:href="#md799c943b0" x="452.076347" y="332.884932" style="fill: #3498db; stroke: #3498db"/>
     <use xlink:href="#md799c943b0" x="472.590992" y="341.311742" style="fill: #3498db; stroke: #3498db"/>
     <use xlink:href="#md799c943b0" x="493.105637" y="354.794639" style="fill: #3498db; stroke: #3498db"/>
     <use xlink:href="#md799c943b0" x="513.620282" y="368.277536" style="fill: #3498db; stroke: #3498db"/>
     <use xlink:href="#md799c943b0" x="534.134927" y="369.962898" style="fill: #3498db; stroke: #3498db"/>
    </g>
   </g>
   <g id="line2d_17">
    <path d="M 62.298092 100.304962 
L 82.812737 86.260278 
L 103.327382 38.508352 
L 123.842027 60.979847 
L 144.356672 52.553036 
L 164.871317 72.215594 
L 185.385962 91.878152 
L 205.900607 114.349647 
L 226.415252 89.069215 
L 246.929897 105.922836 
L 267.444542 117.158583 
L 287.959187 119.96752 
L 308.473832 139.630078 
L 328.988477 148.056888 
L 349.503122 139.630078 
L 370.017767 162.101573 
L 390.532412 181.76413 
L 411.047057 195.808815 
L 431.561702 237.942867 
L 452.076347 299.739477 
L 472.590992 313.784161 
L 493.105637 325.019909 
L 513.620282 355.918214 
L 534.134927 364.345024 
" clip-path="url(#p5d10bf299f)" style="fill: none; stroke: #e74c3c; stroke-width: 2.5; stroke-linecap: round"/>
    <defs>
     <path id="m6b77a654ce" d="M 0 2 
C 0.530406 2 1.03916 1.789267 1.414214 1.414214 
C 1.789267 1.03916 2 0.530406 2 0 
C 2 -0.530406 1.789267 -1.03916 1.414214 -1.414214 
C 1.03916 -1.789267 0.530406 -2 0 -2 
C -0.530406 -2 -1.03916 -1.789267 -1.414214 -1.414214 
C -1.789267 -1.03916 -2 -0.530406 -2 0 
C -2 0.530406 -1.789267 1.03916 -1.414214 1.414214 
C -1.03916 1.789267 -0.530406 2 0 2 
z
" style="stroke: #e74c3c"/>
    </defs>
    <g clip-path="url(#p5d10bf299f)">
     <use xlink:href="#m6b77a654ce" x="62.298092" y="100.304962" style="fill: #e74c3c; stroke: #e74c3c"/>
     <use xlink:href="#m6b77a654ce" x="82.812737" y="86.260278" style="fill: #e74c3c; stroke: #e74c3c"/>
     <use xlink:href="#m6b77a654ce" x="103.327382" y="38.508352" style="fill: #e74c3c; stroke: #e74c3c"/>
     <use xlink:href="#m6b77a654ce" x="123.842027" y="60.979847" style="fill: #e74c3c; stroke: #e74c3c"/>
     <use xlink:href="#m6b77a654ce" x="144.356672" y="52.553036" style="fill: #e74c3c; stroke: #e74c3c"/>
     <use xlink:href="#m6b77a654ce" x="164.871317" y="72.215594" style="fill: #e74c3c; stroke: #e74c3c"/>
     <use xlink:href="#m6b77a654ce" x="185.385962" y="91.878152" style="fill: #e74c3c; stroke: #e74c3c"/>
     <use xlink:href="#m6b77a654ce" x="205.900607" y="114.349647" style="fill: #e74c3c; stroke: #e74c3c"/>
     <use xlink:href="#m6b77a654ce" x="226.415252" y="89.069215" style="fill: #e74c3c; stroke: #e74c3c"/>
     <use xlink:href="#m6b77a654ce" x="246.929897" y="105.922836" style="fill: #e74c3c; stroke: #e74c3c"/>
     <use xlink:href="#m6b77a654ce" x="267.444542" y="117.158583" style="fill: #e74c3c; stroke: #e74c3c"/>
     <use xlink:href="#m6b77a654ce" x="287.959187" y="119.96752" style="fill: #e74c3c; stroke: #e74c3c"/>
     <use xlink:href="#m6b77a654ce" x="308.473832" y="139.630078" style="fill: #e74c3c; stroke: #e74c3c"/>
     <use xlink:href="#m6b77a654ce" x="328.988477" y="148.056888" style="fill: #e74c3c; stroke: #e74c3c"/>
     <use xlink:href="#m6b77a654ce" x="349.503122" y="139.630078" style="fill: #e74c3c; stroke: #e74c3c"/>
     <use xlink:href="#m6b77a654ce" x="370.017767" y="162.101573" style="fill: #e74c3c; stroke: #e74c3c"/>
     <use xlink:href="#m6b77a654ce" x="390.532412" y="181.76413" style="fill: #e74c3c; stroke: #e74c3c"/>
     <use xlink:href="#m6b77a654ce" x="411.047057" y="195.808815" style="fill: #e74c3c; stroke: #e74c3c"/>
     <use xlink:href="#m6b77a654ce" x="431.561702" y="237.942867" style="fill: #e74c3c; stroke: #e74c3c"/>
     <use xlink:href="#m6b77a654ce" x="452.076347" y="299.739477" style="fill: #e74c3c; stroke: #e74c3c"/>
     <use xlink:href="#m6b77a654ce" x="472.590992" y="313.784161" style="fill: #e74c3c; stroke: #e74c3c"/>
     <use xlink:href="#m6b77a654ce" x="493.105637" y="325.019909" style="fill: #e74c3c; stroke: #e74c3c"/>
     <use xlink:href="#m6b77a654ce" x="513.620282" y="355.918214" style="fill: #e74c3c; stroke: #e74c3c"/>
     <use xlink:href="#m6b77a654ce" x="534.134927" y="364.345024" style="fill: #e74c3c; stroke: #e74c3c"/>
    </g>
   </g>
   <g id="line2d_18">
    <path d="M 38.70625 192.999878 
L 557.726768 192.999878 
" clip-path="url(#p5d10bf299f)" style="fill: none; stroke-dasharray: 5.55,2.4; stroke-dashoffset: 0; stroke: #808080; stroke-opacity: 0.5; stroke-width: 1.5"/>
   </g>
   <g id="patch_3">
    <path d="M 38.70625 386.535625 
L 38.70625 21.935625 
" style="fill: none; stroke: #cccccc; stroke-width: 0.8; stroke-linejoin: miter; stroke-linecap: square"/>
   </g>
   <g id="patch_4">
    <path d="M 557.726768 386.535625 
L 557.726768 21.935625 
" style="fill: none; stroke: #cccccc; stroke-width: 0.8; stroke-linejoin: miter; stroke-linecap: square"/>
   </g>
   <g id="patch_5">
    <path d="M 38.70625 386.535625 
L 557.726768 386.535625 
" style="fill: none; stroke: #cccccc; stroke-width: 0.8; stroke-linejoin: miter; stroke-linecap: square"/>
   </g>
   <g id="patch_6">
    <path d="M 38.70625 21.935625 
L 557.726768 21.935625 
" style="fill: none; stroke: #cccccc; stroke-width: 0.8; stroke-linejoin: miter; stroke-linecap: square"/>
   </g>
   <g id="text_18">
    <!-- NO2 Annual Means: Traffic vs Background -->
    <g style="fill: #262626" transform="translate(177.089634 15.935625) scale(0.12 -0.12)">
     <defs>
      <path id="Arial-BoldMT-4e" d="M 475 0 
L 475 4581 
L 1375 4581 
L 3250 1522 
L 3250 4581 
L 4109 4581 
L 4109 0 
L 3181 0 
L 1334 2988 
L 1334 0 
L 475 0 
z
" transform="scale(0.015625)"/>
      <path id="Arial-BoldMT-4f" d="M 278 2263 
Q 278 2963 488 3438 
Q 644 3788 914 4066 
Q 1184 4344 1506 4478 
Q 1934 4659 2494 4659 
Q 3506 4659 4114 4031 
Q 4722 3403 4722 2284 
Q 4722 1175 4119 548 
Q 3516 -78 2506 -78 
Q 1484 -78 881 545 
Q 278 1169 278 2263 
z
M 1231 2294 
Q 1231 1516 1590 1114 
Q 1950 713 2503 713 
Q 3056 713 3411 1111 
Q 3766 1509 3766 2306 
Q 3766 3094 3420 3481 
Q 3075 3869 2503 3869 
Q 1931 3869 1581 3476 
Q 1231 3084 1231 2294 
z
" transform="scale(0.015625)"/>
      <path id="Arial-BoldMT-32" d="M 3238 816 
L 3238 0 
L 159 0 
Q 209 463 459 877 
Q 709 1291 1447 1975 
Q 2041 2528 2175 2725 
Q 2356 2997 2356 3263 
Q 2356 3556 2198 3714 
Q 2041 3872 1763 3872 
Q 1488 3872 1325 3706 
Q 1163 3541 1138 3156 
L 263 3244 
Q 341 3969 753 4284 
Q 1166 4600 1784 4600 
Q 2463 4600 2850 4234 
Q 3238 3869 3238 3325 
Q 3238 3016 3127 2736 
Q 3016 2456 2775 2150 
Q 2616 1947 2200 1565 
Q 1784 1184 1673 1059 
Q 1563 934 1494 816 
L 3238 816 
z
" transform="scale(0.015625)"/>
      <path id="Arial-BoldMT-20" transform="scale(0.015625)"/>
      <path id="Arial-BoldMT-41" d="M 4597 0 
L 3591 0 
L 3191 1041 
L 1359 1041 
L 981 0 
L 0 0 
L 1784 4581 
L 2763 4581 
L 4597 0 
z
M 2894 1813 
L 2263 3513 
L 1644 1813 
L 2894 1813 
z
" transform="scale(0.015625)"/>
      <path id="Arial-BoldMT-6e" d="M 3478 0 
L 2600 0 
L 2600 1694 
Q 2600 2231 2544 2389 
Q 2488 2547 2361 2634 
Q 2234 2722 2056 2722 
Q 1828 2722 1647 2597 
Q 1466 2472 1398 2265 
Q 1331 2059 1331 1503 
L 1331 0 
L 453 0 
L 453 3319 
L 1269 3319 
L 1269 2831 
Q 1703 3394 2363 3394 
Q 2653 3394 2893 3289 
Q 3134 3184 3257 3021 
Q 3381 2859 3429 2653 
Q 3478 2447 3478 2063 
L 3478 0 
z
" transform="scale(0.015625)"/>
      <path id="Arial-BoldMT-75" d="M 2644 0 
L 2644 497 
Q 2463 231 2167 78 
Q 1872 -75 1544 -75 
Q 1209 -75 943 72 
Q 678 219 559 484 
Q 441 750 441 1219 
L 441 3319 
L 1319 3319 
L 1319 1794 
Q 1319 1094 1367 936 
Q 1416 778 1544 686 
Q 1672 594 1869 594 
Q 2094 594 2272 717 
Q 2450 841 2515 1023 
Q 2581 1206 2581 1919 
L 2581 3319 
L 3459 3319 
L 3459 0 
L 2644 0 
z
" transform="scale(0.015625)"/>
      <path id="Arial-BoldMT-61" d="M 1116 2306 
L 319 2450 
Q 453 2931 781 3162 
Q 1109 3394 1756 3394 
Q 2344 3394 2631 3255 
Q 2919 3116 3036 2902 
Q 3153 2688 3153 2116 
L 3144 1091 
Q 3144 653 3186 445 
Q 3228 238 3344 0 
L 2475 0 
Q 2441 88 2391 259 
Q 2369 338 2359 363 
Q 2134 144 1878 34 
Q 1622 -75 1331 -75 
Q 819 -75 523 203 
Q 228 481 228 906 
Q 228 1188 362 1408 
Q 497 1628 739 1745 
Q 981 1863 1438 1950 
Q 2053 2066 2291 2166 
L 2291 2253 
Q 2291 2506 2166 2614 
Q 2041 2722 1694 2722 
Q 1459 2722 1328 2630 
Q 1197 2538 1116 2306 
z
M 2291 1594 
Q 2122 1538 1756 1459 
Q 1391 1381 1278 1306 
Q 1106 1184 1106 997 
Q 1106 813 1243 678 
Q 1381 544 1594 544 
Q 1831 544 2047 700 
Q 2206 819 2256 991 
Q 2291 1103 2291 1419 
L 2291 1594 
z
" transform="scale(0.015625)"/>
      <path id="Arial-BoldMT-6c" d="M 459 0 
L 459 4581 
L 1338 4581 
L 1338 0 
L 459 0 
z
" transform="scale(0.015625)"/>
      <path id="Arial-BoldMT-4d" d="M 453 0 
L 453 4581 
L 1838 4581 
L 2669 1456 
L 3491 4581 
L 4878 4581 
L 4878 0 
L 4019 0 
L 4019 3606 
L 3109 0 
L 2219 0 
L 1313 3606 
L 1313 0 
L 453 0 
z
" transform="scale(0.015625)"/>
      <path id="Arial-BoldMT-65" d="M 2381 1056 
L 3256 909 
Q 3088 428 2723 176 
Q 2359 -75 1813 -75 
Q 947 -75 531 491 
Q 203 944 203 1634 
Q 203 2459 634 2926 
Q 1066 3394 1725 3394 
Q 2466 3394 2894 2905 
Q 3322 2416 3303 1406 
L 1103 1406 
Q 1113 1016 1316 798 
Q 1519 581 1822 581 
Q 2028 581 2168 693 
Q 2309 806 2381 1056 
z
M 2431 1944 
Q 2422 2325 2234 2523 
Q 2047 2722 1778 2722 
Q 1491 2722 1303 2513 
Q 1116 2303 1119 1944 
L 2431 1944 
z
" transform="scale(0.015625)"/>
      <path id="Arial-BoldMT-73" d="M 150 947 
L 1031 1081 
Q 1088 825 1259 692 
Q 1431 559 1741 559 
Q 2081 559 2253 684 
Q 2369 772 2369 919 
Q 2369 1019 2306 1084 
Q 2241 1147 2013 1200 
Q 950 1434 666 1628 
Q 272 1897 272 2375 
Q 272 2806 612 3100 
Q 953 3394 1669 3394 
Q 2350 3394 2681 3172 
Q 3013 2950 3138 2516 
L 2309 2363 
Q 2256 2556 2107 2659 
Q 1959 2763 1684 2763 
Q 1338 2763 1188 2666 
Q 1088 2597 1088 2488 
Q 1088 2394 1175 2328 
Q 1294 2241 1995 2081 
Q 2697 1922 2975 1691 
Q 3250 1456 3250 1038 
Q 3250 581 2869 253 
Q 2488 -75 1741 -75 
Q 1063 -75 667 200 
Q 272 475 150 947 
z
" transform="scale(0.015625)"/>
      <path id="Arial-BoldMT-3a" d="M 628 2441 
L 628 3319 
L 1506 3319 
L 1506 2441 
L 628 2441 
z
M 628 0 
L 628 878 
L 1506 878 
L 1506 0 
L 628 0 
z
" transform="scale(0.015625)"/>
      <path id="Arial-BoldMT-54" d="M 1497 0 
L 1497 3806 
L 138 3806 
L 138 4581 
L 3778 4581 
L 3778 3806 
L 2422 3806 
L 2422 0 
L 1497 0 
z
" transform="scale(0.015625)"/>
      <path id="Arial-BoldMT-72" d="M 1300 0 
L 422 0 
L 422 3319 
L 1238 3319 
L 1238 2847 
Q 1447 3181 1614 3287 
Q 1781 3394 1994 3394 
Q 2294 3394 2572 3228 
L 2300 2463 
Q 2078 2606 1888 2606 
Q 1703 2606 1575 2504 
Q 1447 2403 1373 2137 
Q 1300 1872 1300 1025 
L 1300 0 
z
" transform="scale(0.015625)"/>
      <path id="Arial-BoldMT-66" d="M 75 3319 
L 563 3319 
L 563 3569 
Q 563 3988 652 4194 
Q 741 4400 980 4529 
Q 1219 4659 1584 4659 
Q 1959 4659 2319 4547 
L 2200 3934 
Q 1991 3984 1797 3984 
Q 1606 3984 1523 3895 
Q 1441 3806 1441 3553 
L 1441 3319 
L 2097 3319 
L 2097 2628 
L 1441 2628 
L 1441 0 
L 563 0 
L 563 2628 
L 75 2628 
L 75 3319 
z
" transform="scale(0.015625)"/>
      <path id="Arial-BoldMT-69" d="M 459 3769 
L 459 4581 
L 1338 4581 
L 1338 3769 
L 459 3769 
z
M 459 0 
L 459 3319 
L 1338 3319 
L 1338 0 
L 459 0 
z
" transform="scale(0.015625)"/>
      <path id="Arial-BoldMT-63" d="M 3353 2338 
L 2488 2181 
Q 2444 2441 2289 2572 
Q 2134 2703 1888 2703 
Q 1559 2703 1364 2476 
Q 1169 2250 1169 1719 
Q 1169 1128 1367 884 
Q 1566 641 1900 641 
Q 2150 641 2309 783 
Q 2469 925 2534 1272 
L 3397 1125 
Q 3263 531 2881 228 
Q 2500 -75 1859 -75 
Q 1131 -75 698 384 
Q 266 844 266 1656 
Q 266 2478 700 2936 
Q 1134 3394 1875 3394 
Q 2481 3394 2839 3133 
Q 3197 2872 3353 2338 
z
" transform="scale(0.015625)"/>
      <path id="Arial-BoldMT-76" d="M 1372 0 
L 34 3319 
L 956 3319 
L 1581 1625 
L 1763 1059 
Q 1834 1275 1853 1344 
Q 1897 1484 1947 1625 
L 2578 3319 
L 3481 3319 
L 2163 0 
L 1372 0 
z
" transform="scale(0.015625)"/>
      <path id="Arial-BoldMT-42" d="M 469 4581 
L 2300 4581 
Q 2844 4581 3111 4536 
Q 3378 4491 3589 4347 
Q 3800 4203 3940 3964 
Q 4081 3725 4081 3428 
Q 4081 3106 3907 2837 
Q 3734 2569 3438 2434 
Q 3856 2313 4081 2019 
Q 4306 1725 4306 1328 
Q 4306 1016 4161 720 
Q 4016 425 3764 248 
Q 3513 72 3144 31 
Q 2913 6 2028 0 
L 469 0 
L 469 4581 
z
M 1394 3819 
L 1394 2759 
L 2000 2759 
Q 2541 2759 2672 2775 
Q 2909 2803 3045 2939 
Q 3181 3075 3181 3297 
Q 3181 3509 3064 3642 
Q 2947 3775 2716 3803 
Q 2578 3819 1925 3819 
L 1394 3819 
z
M 1394 1997 
L 1394 772 
L 2250 772 
Q 2750 772 2884 800 
Q 3091 838 3220 983 
Q 3350 1128 3350 1372 
Q 3350 1578 3250 1722 
Q 3150 1866 2961 1931 
Q 2772 1997 2141 1997 
L 1394 1997 
z
" transform="scale(0.015625)"/>
      <path id="Arial-BoldMT-6b" d="M 428 0 
L 428 4581 
L 1306 4581 
L 1306 2150 
L 2334 3319 
L 3416 3319 
L 2281 2106 
L 3497 0 
L 2550 0 
L 1716 1491 
L 1306 1063 
L 1306 0 
L 428 0 
z
" transform="scale(0.015625)"/>
      <path id="Arial-BoldMT-67" d="M 378 -219 
L 1381 -341 
Q 1406 -516 1497 -581 
Q 1622 -675 1891 -675 
Q 2234 -675 2406 -572 
Q 2522 -503 2581 -350 
Q 2622 -241 2622 53 
L 2622 538 
Q 2228 0 1628 0 
Q 959 0 569 566 
Q 263 1013 263 1678 
Q 263 2513 664 2953 
Q 1066 3394 1663 3394 
Q 2278 3394 2678 2853 
L 2678 3319 
L 3500 3319 
L 3500 341 
Q 3500 -247 3403 -537 
Q 3306 -828 3131 -993 
Q 2956 -1159 2664 -1253 
Q 2372 -1347 1925 -1347 
Q 1081 -1347 728 -1058 
Q 375 -769 375 -325 
Q 375 -281 378 -219 
z
M 1163 1728 
Q 1163 1200 1367 954 
Q 1572 709 1872 709 
Q 2194 709 2416 961 
Q 2638 1213 2638 1706 
Q 2638 2222 2425 2472 
Q 2213 2722 1888 2722 
Q 1572 2722 1367 2476 
Q 1163 2231 1163 1728 
z
" transform="scale(0.015625)"/>
      <path id="Arial-BoldMT-6f" d="M 256 1706 
Q 256 2144 472 2553 
Q 688 2963 1083 3178 
Q 1478 3394 1966 3394 
Q 2719 3394 3200 2905 
Q 3681 2416 3681 1669 
Q 3681 916 3195 420 
Q 2709 -75 1972 -75 
Q 1516 -75 1102 131 
Q 688 338 472 736 
Q 256 1134 256 1706 
z
M 1156 1659 
Q 1156 1166 1390 903 
Q 1625 641 1969 641 
Q 2313 641 2545 903 
Q 2778 1166 2778 1666 
Q 2778 2153 2545 2415 
Q 2313 2678 1969 2678 
Q 1625 2678 1390 2415 
Q 1156 2153 1156 1659 
z
" transform="scale(0.015625)"/>
      <path id="Arial-BoldMT-64" d="M 3503 0 
L 2688 0 
L 2688 488 
Q 2484 203 2207 64 
Q 1931 -75 1650 -75 
Q 1078 -75 670 386 
Q 263 847 263 1672 
Q 263 2516 659 2955 
Q 1056 3394 1663 3394 
Q 2219 3394 2625 2931 
L 2625 4581 
L 3503 4581 
L 3503 0 
z
M 1159 1731 
Q 1159 1200 1306 963 
Q 1519 619 1900 619 
Q 2203 619 2415 876 
Q 2628 1134 2628 1647 
Q 2628 2219 2422 2470 
Q 2216 2722 1894 2722 
Q 1581 2722 1370 2473 
Q 1159 2225 1159 1731 
z
" transform="scale(0.015625)"/>
     </defs>
     <use xlink:href="#Arial-BoldMT-4e"/>
     <use xlink:href="#Arial-BoldMT-4f" transform="translate(72.216797 0)"/>
     <use xlink:href="#Arial-BoldMT-32" transform="translate(150 0)"/>
     <use xlink:href="#Arial-BoldMT-20" transform="translate(205.615234 0)"/>
     <use xlink:href="#Arial-BoldMT-41" transform="translate(229.648438 0)"/>
     <use xlink:href="#Arial-BoldMT-6e" transform="translate(301.865234 0)"/>
     <use xlink:href="#Arial-BoldMT-6e" transform="translate(362.949219 0)"/>
     <use xlink:href="#Arial-BoldMT-75" transform="translate(424.033203 0)"/>
     <use xlink:href="#Arial-BoldMT-61" transform="translate(485.117188 0)"/>
     <use xlink:href="#Arial-BoldMT-6c" transform="translate(540.732422 0)"/>
     <use xlink:href="#Arial-BoldMT-20" transform="translate(568.515625 0)"/>
     <use xlink:href="#Arial-BoldMT-4d" transform="translate(596.298828 0)"/>
     <use xlink:href="#Arial-BoldMT-65" transform="translate(679.599609 0)"/>
     <use xlink:href="#Arial-BoldMT-61" transform="translate(735.214844 0)"/>
     <use xlink:href="#Arial-BoldMT-6e" transform="translate(790.830078 0)"/>
     <use xlink:href="#Arial-BoldMT-73" transform="translate(851.914062 0)"/>
     <use xlink:href="#Arial-BoldMT-3a" transform="translate(907.529297 0)"/>
     <use xlink:href="#Arial-BoldMT-20" transform="translate(940.830078 0)"/>
     <use xlink:href="#Arial-BoldMT-54" transform="translate(968.613281 0)"/>
     <use xlink:href="#Arial-BoldMT-72" transform="translate(1024.197266 0)"/>
     <use xlink:href="#Arial-BoldMT-61" transform="translate(1063.113281 0)"/>
     <use xlink:href="#Arial-BoldMT-66" transform="translate(1118.728516 0)"/>
     <use xlink:href="#Arial-BoldMT-66" transform="translate(1152.029297 0)"/>
     <use xlink:href="#Arial-BoldMT-69" transform="translate(1185.330078 0)"/>
     <use xlink:href="#Arial-BoldMT-63" transform="translate(1213.113281 0)"/>
     <use xlink:href="#Arial-BoldMT-20" transform="translate(1268.728516 0)"/>
     <use xlink:href="#Arial-BoldMT-76" transform="translate(1296.511719 0)"/>
     <use xlink:href="#Arial-BoldMT-73" transform="translate(1352.126953 0)"/>
     <use xlink:href="#Arial-BoldMT-20" transform="translate(1407.742188 0)"/>
     <use xlink:href="#Arial-BoldMT-42" transform="translate(1435.525391 0)"/>
     <use xlink:href="#Arial-BoldMT-61" transform="translate(1507.742188 0)"/>
     <use xlink:href="#Arial-BoldMT-63" transform="translate(1563.357422 0)"/>
     <use xlink:href="#Arial-BoldMT-6b" transform="translate(1618.972656 0)"/>
     <use xlink:href="#Arial-BoldMT-67" transform="translate(1674.587891 0)"/>
     <use xlink:href="#Arial-BoldMT-72" transform="translate(1735.671875 0)"/>
     <use xlink:href="#Arial-BoldMT-6f" transform="translate(1774.587891 0)"/>
     <use xlink:href="#Arial-BoldMT-75" transform="translate(1835.671875 0)"/>
     <use xlink:href="#Arial-BoldMT-6e" transform="translate(1896.755859 0)"/>
     <use xlink:href="#Arial-BoldMT-64" transform="translate(1957.839844 0)"/>
    </g>
   </g>
   <g id="legend_1">
    <g id="patch_7">
     <path d="M 465.361143 72.48875 
L 550.726768 72.48875 
Q 552.726768 72.48875 552.726768 70.48875 
L 552.726768 28.935625 
Q 552.726768 26.935625 550.726768 26.935625 
L 465.361143 26.935625 
Q 463.361143 26.935625 463.361143 28.935625 
L 463.361143 70.48875 
Q 463.361143 72.48875 465.361143 72.48875 
z
" style="fill: #ffffff; opacity: 0.8; stroke: #cccccc; stroke-linejoin: miter"/>
    </g>
    <g id="line2d_19">
     <path d="M 467.361143 34.593437 
L 477.361143 34.593437 
L 487.361143 34.593437 
" style="fill: none; stroke: #3498db; stroke-width: 2.5; stroke-linecap: round"/>
     <g>
      <use xlink:href="#md799c943b0" x="477.361143" y="34.593437" style="fill: #3498db; stroke: #3498db"/>
     </g>
    </g>
    <g id="text_19">
     <!-- Background -->
     <g style="fill: #262626" transform="translate(495.361143 38.093437) scale(0.1 -0.1)">
      <defs>
       <path id="ArialMT-42" d="M 469 0 
L 469 4581 
L 2188 4581 
Q 2713 4581 3030 4442 
Q 3347 4303 3526 4014 
Q 3706 3725 3706 3409 
Q 3706 3116 3547 2856 
Q 3388 2597 3066 2438 
Q 3481 2316 3704 2022 
Q 3928 1728 3928 1328 
Q 3928 1006 3792 729 
Q 3656 453 3456 303 
Q 3256 153 2954 76 
Q 2653 0 2216 0 
L 469 0 
z
M 1075 2656 
L 2066 2656 
Q 2469 2656 2644 2709 
Q 2875 2778 2992 2937 
Q 3109 3097 3109 3338 
Q 3109 3566 3000 3739 
Q 2891 3913 2687 3977 
Q 2484 4041 1991 4041 
L 1075 4041 
L 1075 2656 
z
M 1075 541 
L 2216 541 
Q 2509 541 2628 563 
Q 2838 600 2978 687 
Q 3119 775 3209 942 
Q 3300 1109 3300 1328 
Q 3300 1584 3169 1773 
Q 3038 1963 2805 2039 
Q 2572 2116 2134 2116 
L 1075 2116 
L 1075 541 
z
" transform="scale(0.015625)"/>
       <path id="ArialMT-63" d="M 2588 1216 
L 3141 1144 
Q 3050 572 2676 248 
Q 2303 -75 1759 -75 
Q 1078 -75 664 370 
Q 250 816 250 1647 
Q 250 2184 428 2587 
Q 606 2991 970 3192 
Q 1334 3394 1763 3394 
Q 2303 3394 2647 3120 
Q 2991 2847 3088 2344 
L 2541 2259 
Q 2463 2594 2264 2762 
Q 2066 2931 1784 2931 
Q 1359 2931 1093 2626 
Q 828 2322 828 1663 
Q 828 994 1084 691 
Q 1341 388 1753 388 
Q 2084 388 2306 591 
Q 2528 794 2588 1216 
z
" transform="scale(0.015625)"/>
       <path id="ArialMT-6b" d="M 425 0 
L 425 4581 
L 988 4581 
L 988 1969 
L 2319 3319 
L 3047 3319 
L 1778 2088 
L 3175 0 
L 2481 0 
L 1384 1697 
L 988 1316 
L 988 0 
L 425 0 
z
" transform="scale(0.015625)"/>
       <path id="ArialMT-6f" d="M 213 1659 
Q 213 2581 725 3025 
Q 1153 3394 1769 3394 
Q 2453 3394 2887 2945 
Q 3322 2497 3322 1706 
Q 3322 1066 3130 698 
Q 2938 331 2570 128 
Q 2203 -75 1769 -75 
Q 1072 -75 642 372 
Q 213 819 213 1659 
z
M 791 1659 
Q 791 1022 1069 705 
Q 1347 388 1769 388 
Q 2188 388 2466 706 
Q 2744 1025 2744 1678 
Q 2744 2294 2464 2611 
Q 2184 2928 1769 2928 
Q 1347 2928 1069 2612 
Q 791 2297 791 1659 
z
" transform="scale(0.015625)"/>
       <path id="ArialMT-75" d="M 2597 0 
L 2597 488 
Q 2209 -75 1544 -75 
Q 1250 -75 995 37 
Q 741 150 617 320 
Q 494 491 444 738 
Q 409 903 409 1263 
L 409 3319 
L 972 3319 
L 972 1478 
Q 972 1038 1006 884 
Q 1059 663 1231 536 
Q 1403 409 1656 409 
Q 1909 409 2131 539 
Q 2353 669 2445 892 
Q 2538 1116 2538 1541 
L 2538 3319 
L 3100 3319 
L 3100 0 
L 2597 0 
z
" transform="scale(0.015625)"/>
       <path id="ArialMT-6e" d="M 422 0 
L 422 3319 
L 928 3319 
L 928 2847 
Q 1294 3394 1984 3394 
Q 2284 3394 2536 3286 
Q 2788 3178 2913 3003 
Q 3038 2828 3088 2588 
Q 3119 2431 3119 2041 
L 3119 0 
L 2556 0 
L 2556 2019 
Q 2556 2363 2490 2533 
Q 2425 2703 2258 2804 
Q 2091 2906 1866 2906 
Q 1506 2906 1245 2678 
Q 984 2450 984 1813 
L 984 0 
L 422 0 
z
" transform="scale(0.015625)"/>
       <path id="ArialMT-64" d="M 2575 0 
L 2575 419 
Q 2259 -75 1647 -75 
Q 1250 -75 917 144 
Q 584 363 401 755 
Q 219 1147 219 1656 
Q 219 2153 384 2558 
Q 550 2963 881 3178 
Q 1213 3394 1622 3394 
Q 1922 3394 2156 3267 
Q 2391 3141 2538 2938 
L 2538 4581 
L 3097 4581 
L 3097 0 
L 2575 0 
z
M 797 1656 
Q 797 1019 1065 703 
Q 1334 388 1700 388 
Q 2069 388 2326 689 
Q 2584 991 2584 1609 
Q 2584 2291 2321 2609 
Q 2059 2928 1675 2928 
Q 1300 2928 1048 2622 
Q 797 2316 797 1656 
z
" transform="scale(0.015625)"/>
      </defs>
      <use xlink:href="#ArialMT-42"/>
      <use xlink:href="#ArialMT-61" transform="translate(66.699219 0)"/>
      <use xlink:href="#ArialMT-63" transform="translate(122.314453 0)"/>
      <use xlink:href="#ArialMT-6b" transform="translate(172.314453 0)"/>
      <use xlink:href="#ArialMT-67" transform="translate(222.314453 0)"/>
      <use xlink:href="#ArialMT-72" transform="translate(277.929688 0)"/>
      <use xlink:href="#ArialMT-6f" transform="translate(311.230469 0)"/>
      <use xlink:href="#ArialMT-75" transform="translate(366.845703 0)"/>
      <use xlink:href="#ArialMT-6e" transform="translate(422.460938 0)"/>
      <use xlink:href="#ArialMT-64" transform="translate(478.076172 0)"/>
     </g>
    </g>
    <g id="line2d_20">
     <path d="M 467.361143 48.855937 
L 477.361143 48.855937 
L 487.361143 48.855937 
" style="fill: none; stroke: #e74c3c; stroke-width: 2.5; stroke-linecap: round"/>
     <g>
      <use xlink:href="#m6b77a654ce" x="477.361143" y="48.855937" style="fill: #e74c3c; stroke: #e74c3c"/>
     </g>
    </g>
    <g id="text_20">
     <!-- Traffic -->
     <g style="fill: #262626" transform="translate(495.361143 52.355937) scale(0.1 -0.1)">
      <defs>
       <path id="ArialMT-54" d="M 1659 0 
L 1659 4041 
L 150 4041 
L 150 4581 
L 3781 4581 
L 3781 4041 
L 2266 4041 
L 2266 0 
L 1659 0 
z
" transform="scale(0.015625)"/>
       <path id="ArialMT-66" d="M 556 0 
L 556 2881 
L 59 2881 
L 59 3319 
L 556 3319 
L 556 3672 
Q 556 4006 616 4169 
Q 697 4388 901 4523 
Q 1106 4659 1475 4659 
Q 1713 4659 2000 4603 
L 1916 4113 
Q 1741 4144 1584 4144 
Q 1328 4144 1222 4034 
Q 1116 3925 1116 3625 
L 1116 3319 
L 1763 3319 
L 1763 2881 
L 1116 2881 
L 1116 0 
L 556 0 
z
" transform="scale(0.015625)"/>
       <path id="ArialMT-69" d="M 425 3934 
L 425 4581 
L 988 4581 
L 988 3934 
L 425 3934 
z
M 425 0 
L 425 3319 
L 988 3319 
L 988 0 
L 425 0 
z
" transform="scale(0.015625)"/>
      </defs>
      <use xlink:href="#ArialMT-54"/>
      <use xlink:href="#ArialMT-72" transform="translate(57.333984 0)"/>
      <use xlink:href="#ArialMT-61" transform="translate(90.634766 0)"/>
      <use xlink:href="#ArialMT-66" transform="translate(146.25 0)"/>
      <use xlink:href="#ArialMT-66" transform="translate(172.283203 0)"/>
      <use xlink:href="#ArialMT-69" transform="translate(200.066406 0)"/>
      <use xlink:href="#ArialMT-63" transform="translate(222.283203 0)"/>
     </g>
    </g>
    <g id="line2d_21">
     <path d="M 467.361143 63.00125 
L 477.361143 63.00125 
L 487.361143 63.00125 
" style="fill: none; stroke-dasharray: 5.55,2.4; stroke-dashoffset: 0; stroke: #808080; stroke-opacity: 0.5; stroke-width: 1.5"/>
    </g>
    <g id="text_21">
     <!-- EU limit -->
     <g style="fill: #262626" transform="translate(495.361143 66.50125) scale(0.1 -0.1)">
      <defs>
       <path id="ArialMT-45" d="M 506 0 
L 506 4581 
L 3819 4581 
L 3819 4041 
L 1113 4041 
L 1113 2638 
L 3647 2638 
L 3647 2100 
L 1113 2100 
L 1113 541 
L 3925 541 
L 3925 0 
L 506 0 
z
" transform="scale(0.015625)"/>
       <path id="ArialMT-55" d="M 3500 4581 
L 4106 4581 
L 4106 1934 
Q 4106 1244 3950 837 
Q 3794 431 3386 176 
Q 2978 -78 2316 -78 
Q 1672 -78 1262 144 
Q 853 366 678 786 
Q 503 1206 503 1934 
L 503 4581 
L 1109 4581 
L 1109 1938 
Q 1109 1341 1220 1058 
Q 1331 775 1601 622 
Q 1872 469 2263 469 
Q 2931 469 3215 772 
Q 3500 1075 3500 1938 
L 3500 4581 
z
" transform="scale(0.015625)"/>
       <path id="ArialMT-20" transform="scale(0.015625)"/>
       <path id="ArialMT-6c" d="M 409 0 
L 409 4581 
L 972 4581 
L 972 0 
L 409 0 
z
" transform="scale(0.015625)"/>
       <path id="ArialMT-74" d="M 1650 503 
L 1731 6 
Q 1494 -44 1306 -44 
Q 1000 -44 831 53 
Q 663 150 594 308 
Q 525 466 525 972 
L 525 2881 
L 113 2881 
L 113 3319 
L 525 3319 
L 525 4141 
L 1084 4478 
L 1084 3319 
L 1650 3319 
L 1650 2881 
L 1084 2881 
L 1084 941 
Q 1084 700 1114 631 
Q 1144 563 1211 522 
Q 1278 481 1403 481 
Q 1497 481 1650 503 
z
" transform="scale(0.015625)"/>
      </defs>
      <use xlink:href="#ArialMT-45"/>
      <use xlink:href="#ArialMT-55" transform="translate(66.699219 0)"/>
      <use xlink:href="#ArialMT-20" transform="translate(138.916016 0)"/>
      <use xlink:href="#ArialMT-6c" transform="translate(166.699219 0)"/>
      <use xlink:href="#ArialMT-69" transform="translate(188.916016 0)"/>
      <use xlink:href="#ArialMT-6d" transform="translate(211.132812 0)"/>
      <use xlink:href="#ArialMT-69" transform="translate(294.433594 0)"/>
      <use xlink:href="#ArialMT-74" transform="translate(316.650391 0)"/>
     </g>
    </g>
   </g>
  </g>
  <g id="axes_2">
   <g id="patch_8">
    <path d="M 617.845732 386.535625 
L 1136.86625 386.535625 
L 1136.86625 21.935625 
L 617.845732 21.935625 
z
" style="fill: #ffffff"/>
   </g>
   <g id="matplotlib.axis_3">
    <g id="xtick_7">
     <g id="line2d_22">
      <path d="M 641.437573 386.535625 
L 641.437573 21.935625 
" clip-path="url(#paf54768f46)" style="fill: none; stroke: #cccccc; stroke-width: 0.8; stroke-linecap: round"/>
     </g>
     <g id="text_22">
      <!-- 0 -->
      <g style="fill: #262626" transform="translate(638.657105 400.693437) scale(0.1 -0.1)">
       <use xlink:href="#ArialMT-30"/>
      </g>
     </g>
    </g>
    <g id="xtick_8">
     <g id="line2d_23">
      <path d="M 702.981508 386.535625 
L 702.981508 21.935625 
" clip-path="url(#paf54768f46)" style="fill: none; stroke: #cccccc; stroke-width: 0.8; stroke-linecap: round"/>
     </g>
     <g id="text_23">
      <!-- 3 -->
      <g style="fill: #262626" transform="translate(700.20104 400.693437) scale(0.1 -0.1)">
       <use xlink:href="#ArialMT-33"/>
      </g>
     </g>
    </g>
    <g id="xtick_9">
     <g id="line2d_24">
      <path d="M 764.525443 386.535625 
L 764.525443 21.935625 
" clip-path="url(#paf54768f46)" style="fill: none; stroke: #cccccc; stroke-width: 0.8; stroke-linecap: round"/>
     </g>
     <g id="text_24">
      <!-- 6 -->
      <g style="fill: #262626" transform="translate(761.744975 400.693437) scale(0.1 -0.1)">
       <use xlink:href="#ArialMT-36"/>
      </g>
     </g>
    </g>
    <g id="xtick_10">
     <g id="line2d_25">
      <path d="M 826.069378 386.535625 
L 826.069378 21.935625 
" clip-path="url(#paf54768f46)" style="fill: none; stroke: #cccccc; stroke-width: 0.8; stroke-linecap: round"/>
     </g>
     <g id="text_25">
      <!-- 9 -->
      <g style="fill: #262626" transform="translate(823.28891 400.693437) scale(0.1 -0.1)">
       <defs>
        <path id="ArialMT-39" d="M 350 1059 
L 891 1109 
Q 959 728 1153 556 
Q 1347 384 1650 384 
Q 1909 384 2104 503 
Q 2300 622 2425 820 
Q 2550 1019 2634 1356 
Q 2719 1694 2719 2044 
Q 2719 2081 2716 2156 
Q 2547 1888 2255 1720 
Q 1963 1553 1622 1553 
Q 1053 1553 659 1965 
Q 266 2378 266 3053 
Q 266 3750 677 4175 
Q 1088 4600 1706 4600 
Q 2153 4600 2523 4359 
Q 2894 4119 3086 3673 
Q 3278 3228 3278 2384 
Q 3278 1506 3087 986 
Q 2897 466 2520 194 
Q 2144 -78 1638 -78 
Q 1100 -78 759 220 
Q 419 519 350 1059 
z
M 2653 3081 
Q 2653 3566 2395 3850 
Q 2138 4134 1775 4134 
Q 1400 4134 1122 3828 
Q 844 3522 844 3034 
Q 844 2597 1108 2323 
Q 1372 2050 1759 2050 
Q 2150 2050 2401 2323 
Q 2653 2597 2653 3081 
z
" transform="scale(0.015625)"/>
       </defs>
       <use xlink:href="#ArialMT-39"/>
      </g>
     </g>
    </g>
    <g id="xtick_11">
     <g id="line2d_26">
      <path d="M 887.613313 386.535625 
L 887.613313 21.935625 
" clip-path="url(#paf54768f46)" style="fill: none; stroke: #cccccc; stroke-width: 0.8; stroke-linecap: round"/>
     </g>
     <g id="text_26">
      <!-- 12 -->
      <g style="fill: #262626" transform="translate(882.052376 400.693437) scale(0.1 -0.1)">
       <use xlink:href="#ArialMT-31"/>
       <use xlink:href="#ArialMT-32" transform="translate(55.615234 0)"/>
      </g>
     </g>
    </g>
    <g id="xtick_12">
     <g id="line2d_27">
      <path d="M 949.157248 386.535625 
L 949.157248 21.935625 
" clip-path="url(#paf54768f46)" style="fill: none; stroke: #cccccc; stroke-width: 0.8; stroke-linecap: round"/>
     </g>
     <g id="text_27">
      <!-- 15 -->
      <g style="fill: #262626" transform="translate(943.596311 400.693437) scale(0.1 -0.1)">
       <use xlink:href="#ArialMT-31"/>
       <use xlink:href="#ArialMT-35" transform="translate(55.615234 0)"/>
      </g>
     </g>
    </g>
    <g id="xtick_13">
     <g id="line2d_28">
      <path d="M 1010.701183 386.535625 
L 1010.701183 21.935625 
" clip-path="url(#paf54768f46)" style="fill: none; stroke: #cccccc; stroke-width: 0.8; stroke-linecap: round"/>
     </g>
     <g id="text_28">
      <!-- 18 -->
      <g style="fill: #262626" transform="translate(1005.140246 400.693437) scale(0.1 -0.1)">
       <defs>
        <path id="ArialMT-38" d="M 1131 2484 
Q 781 2613 612 2850 
Q 444 3088 444 3419 
Q 444 3919 803 4259 
Q 1163 4600 1759 4600 
Q 2359 4600 2725 4251 
Q 3091 3903 3091 3403 
Q 3091 3084 2923 2848 
Q 2756 2613 2416 2484 
Q 2838 2347 3058 2040 
Q 3278 1734 3278 1309 
Q 3278 722 2862 322 
Q 2447 -78 1769 -78 
Q 1091 -78 675 323 
Q 259 725 259 1325 
Q 259 1772 486 2073 
Q 713 2375 1131 2484 
z
M 1019 3438 
Q 1019 3113 1228 2906 
Q 1438 2700 1772 2700 
Q 2097 2700 2305 2904 
Q 2513 3109 2513 3406 
Q 2513 3716 2298 3927 
Q 2084 4138 1766 4138 
Q 1444 4138 1231 3931 
Q 1019 3725 1019 3438 
z
M 838 1322 
Q 838 1081 952 856 
Q 1066 631 1291 507 
Q 1516 384 1775 384 
Q 2178 384 2440 643 
Q 2703 903 2703 1303 
Q 2703 1709 2433 1975 
Q 2163 2241 1756 2241 
Q 1359 2241 1098 1978 
Q 838 1716 838 1322 
z
" transform="scale(0.015625)"/>
       </defs>
       <use xlink:href="#ArialMT-31"/>
       <use xlink:href="#ArialMT-38" transform="translate(55.615234 0)"/>
      </g>
     </g>
    </g>
    <g id="xtick_14">
     <g id="line2d_29">
      <path d="M 1072.245118 386.535625 
L 1072.245118 21.935625 
" clip-path="url(#paf54768f46)" style="fill: none; stroke: #cccccc; stroke-width: 0.8; stroke-linecap: round"/>
     </g>
     <g id="text_29">
      <!-- 21 -->
      <g style="fill: #262626" transform="translate(1066.684181 400.693437) scale(0.1 -0.1)">
       <use xlink:href="#ArialMT-32"/>
       <use xlink:href="#ArialMT-31" transform="translate(55.615234 0)"/>
      </g>
     </g>
    </g>
    <g id="text_30">
     <!-- Hour of Day -->
     <g style="fill: #262626" transform="translate(850.68021 413.960625) scale(0.1 -0.1)">
      <defs>
       <path id="ArialMT-48" d="M 513 0 
L 513 4581 
L 1119 4581 
L 1119 2700 
L 3500 2700 
L 3500 4581 
L 4106 4581 
L 4106 0 
L 3500 0 
L 3500 2159 
L 1119 2159 
L 1119 0 
L 513 0 
z
" transform="scale(0.015625)"/>
       <path id="ArialMT-44" d="M 494 0 
L 494 4581 
L 2072 4581 
Q 2606 4581 2888 4516 
Q 3281 4425 3559 4188 
Q 3922 3881 4101 3404 
Q 4281 2928 4281 2316 
Q 4281 1794 4159 1391 
Q 4038 988 3847 723 
Q 3656 459 3429 307 
Q 3203 156 2883 78 
Q 2563 0 2147 0 
L 494 0 
z
M 1100 541 
L 2078 541 
Q 2531 541 2789 625 
Q 3047 709 3200 863 
Q 3416 1078 3536 1442 
Q 3656 1806 3656 2325 
Q 3656 3044 3420 3430 
Q 3184 3816 2847 3947 
Q 2603 4041 2063 4041 
L 1100 4041 
L 1100 541 
z
" transform="scale(0.015625)"/>
       <path id="ArialMT-79" d="M 397 -1278 
L 334 -750 
Q 519 -800 656 -800 
Q 844 -800 956 -737 
Q 1069 -675 1141 -563 
Q 1194 -478 1313 -144 
Q 1328 -97 1363 -6 
L 103 3319 
L 709 3319 
L 1400 1397 
Q 1534 1031 1641 628 
Q 1738 1016 1872 1384 
L 2581 3319 
L 3144 3319 
L 1881 -56 
Q 1678 -603 1566 -809 
Q 1416 -1088 1222 -1217 
Q 1028 -1347 759 -1347 
Q 597 -1347 397 -1278 
z
" transform="scale(0.015625)"/>
      </defs>
      <use xlink:href="#ArialMT-48"/>
      <use xlink:href="#ArialMT-6f" transform="translate(72.216797 0)"/>
      <use xlink:href="#ArialMT-75" transform="translate(127.832031 0)"/>
      <use xlink:href="#ArialMT-72" transform="translate(183.447266 0)"/>
      <use xlink:href="#ArialMT-20" transform="translate(216.748047 0)"/>
      <use xlink:href="#ArialMT-6f" transform="translate(244.53125 0)"/>
      <use xlink:href="#ArialMT-66" transform="translate(300.146484 0)"/>
      <use xlink:href="#ArialMT-20" transform="translate(327.929688 0)"/>
      <use xlink:href="#ArialMT-44" transform="translate(355.712891 0)"/>
      <use xlink:href="#ArialMT-61" transform="translate(427.929688 0)"/>
      <use xlink:href="#ArialMT-79" transform="translate(483.544922 0)"/>
     </g>
    </g>
   </g>
   <g id="matplotlib.axis_4">
    <g id="ytick_10">
     <g id="line2d_30">
      <path d="M 617.845732 379.030969 
L 1136.86625 379.030969 
" clip-path="url(#paf54768f46)" style="fill: none; stroke: #cccccc; stroke-width: 0.8; stroke-linecap: round"/>
     </g>
     <g id="text_31">
      <!-- 12.5 -->
      <g style="fill: #262626" transform="translate(591.384794 382.609875) scale(0.1 -0.1)">
       <defs>
        <path id="ArialMT-2e" d="M 581 0 
L 581 641 
L 1222 641 
L 1222 0 
L 581 0 
z
" transform="scale(0.015625)"/>
       </defs>
       <use xlink:href="#ArialMT-31"/>
       <use xlink:href="#ArialMT-32" transform="translate(55.615234 0)"/>
       <use xlink:href="#ArialMT-2e" transform="translate(111.230469 0)"/>
       <use xlink:href="#ArialMT-35" transform="translate(139.013672 0)"/>
      </g>
     </g>
    </g>
    <g id="ytick_11">
     <g id="line2d_31">
      <path d="M 617.845732 330.64586 
L 1136.86625 330.64586 
" clip-path="url(#paf54768f46)" style="fill: none; stroke: #cccccc; stroke-width: 0.8; stroke-linecap: round"/>
     </g>
     <g id="text_32">
      <!-- 15.0 -->
      <g style="fill: #262626" transform="translate(591.384794 334.224766) scale(0.1 -0.1)">
       <use xlink:href="#ArialMT-31"/>
       <use xlink:href="#ArialMT-35" transform="translate(55.615234 0)"/>
       <use xlink:href="#ArialMT-2e" transform="translate(111.230469 0)"/>
       <use xlink:href="#ArialMT-30" transform="translate(139.013672 0)"/>
      </g>
     </g>
    </g>
    <g id="ytick_12">
     <g id="line2d_32">
      <path d="M 617.845732 282.26075 
L 1136.86625 282.26075 
" clip-path="url(#paf54768f46)" style="fill: none; stroke: #cccccc; stroke-width: 0.8; stroke-linecap: round"/>
     </g>
     <g id="text_33">
      <!-- 17.5 -->
      <g style="fill: #262626" transform="translate(591.384794 285.839657) scale(0.1 -0.1)">
       <defs>
        <path id="ArialMT-37" d="M 303 3981 
L 303 4522 
L 3269 4522 
L 3269 4084 
Q 2831 3619 2401 2847 
Q 1972 2075 1738 1259 
Q 1569 684 1522 0 
L 944 0 
Q 953 541 1156 1306 
Q 1359 2072 1739 2783 
Q 2119 3494 2547 3981 
L 303 3981 
z
" transform="scale(0.015625)"/>
       </defs>
       <use xlink:href="#ArialMT-31"/>
       <use xlink:href="#ArialMT-37" transform="translate(55.615234 0)"/>
       <use xlink:href="#ArialMT-2e" transform="translate(111.230469 0)"/>
       <use xlink:href="#ArialMT-35" transform="translate(139.013672 0)"/>
      </g>
     </g>
    </g>
    <g id="ytick_13">
     <g id="line2d_33">
      <path d="M 617.845732 233.875641 
L 1136.86625 233.875641 
" clip-path="url(#paf54768f46)" style="fill: none; stroke: #cccccc; stroke-width: 0.8; stroke-linecap: round"/>
     </g>
     <g id="text_34">
      <!-- 20.0 -->
      <g style="fill: #262626" transform="translate(591.384794 237.454548) scale(0.1 -0.1)">
       <use xlink:href="#ArialMT-32"/>
       <use xlink:href="#ArialMT-30" transform="translate(55.615234 0)"/>
       <use xlink:href="#ArialMT-2e" transform="translate(111.230469 0)"/>
       <use xlink:href="#ArialMT-30" transform="translate(139.013672 0)"/>
      </g>
     </g>
    </g>
    <g id="ytick_14">
     <g id="line2d_34">
      <path d="M 617.845732 185.490532 
L 1136.86625 185.490532 
" clip-path="url(#paf54768f46)" style="fill: none; stroke: #cccccc; stroke-width: 0.8; stroke-linecap: round"/>
     </g>
     <g id="text_35">
      <!-- 22.5 -->
      <g style="fill: #262626" transform="translate(591.384794 189.069438) scale(0.1 -0.1)">
       <use xlink:href="#ArialMT-32"/>
       <use xlink:href="#ArialMT-32" transform="translate(55.615234 0)"/>
       <use xlink:href="#ArialMT-2e" transform="translate(111.230469 0)"/>
       <use xlink:href="#ArialMT-35" transform="translate(139.013672 0)"/>
      </g>
     </g>
    </g>
    <g id="ytick_15">
     <g id="line2d_35">
      <path d="M 617.845732 137.105423 
L 1136.86625 137.105423 
" clip-path="url(#paf54768f46)" style="fill: none; stroke: #cccccc; stroke-width: 0.8; stroke-linecap: round"/>
     </g>
     <g id="text_36">
      <!-- 25.0 -->
      <g style="fill: #262626" transform="translate(591.384794 140.684329) scale(0.1 -0.1)">
       <use xlink:href="#ArialMT-32"/>
       <use xlink:href="#ArialMT-35" transform="translate(55.615234 0)"/>
       <use xlink:href="#ArialMT-2e" transform="translate(111.230469 0)"/>
       <use xlink:href="#ArialMT-30" transform="translate(139.013672 0)"/>
      </g>
     </g>
    </g>
    <g id="ytick_16">
     <g id="line2d_36">
      <path d="M 617.845732 88.720314 
L 1136.86625 88.720314 
" clip-path="url(#paf54768f46)" style="fill: none; stroke: #cccccc; stroke-width: 0.8; stroke-linecap: round"/>
     </g>
     <g id="text_37">
      <!-- 27.5 -->
      <g style="fill: #262626" transform="translate(591.384794 92.29922) scale(0.1 -0.1)">
       <use xlink:href="#ArialMT-32"/>
       <use xlink:href="#ArialMT-37" transform="translate(55.615234 0)"/>
       <use xlink:href="#ArialMT-2e" transform="translate(111.230469 0)"/>
       <use xlink:href="#ArialMT-35" transform="translate(139.013672 0)"/>
      </g>
     </g>
    </g>
    <g id="ytick_17">
     <g id="line2d_37">
      <path d="M 617.845732 40.335205 
L 1136.86625 40.335205 
" clip-path="url(#paf54768f46)" style="fill: none; stroke: #cccccc; stroke-width: 0.8; stroke-linecap: round"/>
     </g>
     <g id="text_38">
      <!-- 30.0 -->
      <g style="fill: #262626" transform="translate(591.384794 43.914111) scale(0.1 -0.1)">
       <use xlink:href="#ArialMT-33"/>
       <use xlink:href="#ArialMT-30" transform="translate(55.615234 0)"/>
       <use xlink:href="#ArialMT-2e" transform="translate(111.230469 0)"/>
       <use xlink:href="#ArialMT-30" transform="translate(139.013672 0)"/>
      </g>
     </g>
    </g>
    <g id="text_39">
     <!-- µg/m³ -->
     <g style="fill: #262626" transform="translate(585.280107 217.116094) rotate(-90) scale(0.1 -0.1)">
      <use xlink:href="#ArialMT-b5"/>
      <use xlink:href="#ArialMT-67" transform="translate(57.617188 0)"/>
      <use xlink:href="#ArialMT-2f" transform="translate(113.232422 0)"/>
      <use xlink:href="#ArialMT-6d" transform="translate(141.015625 0)"/>
      <use xlink:href="#ArialMT-b3" transform="translate(224.316406 0)"/>
     </g>
    </g>
   </g>
   <g id="line2d_38">
    <path d="M 641.437573 288.63667 
L 661.952218 319.331598 
L 682.466863 336.795494 
L 702.981508 339.058346 
L 723.496153 301.122291 
L 744.010798 239.367285 
L 764.525443 202.455978 
L 785.040088 198.370982 
L 805.554733 225.824786 
L 826.069378 249.100289 
L 846.584023 274.620996 
L 867.098668 284.518722 
L 887.613313 288.029226 
L 908.127958 285.548799 
L 928.642603 274.663089 
L 949.157248 252.617384 
L 969.671893 204.698156 
L 990.186538 157.55096 
L 1010.701183 109.605111 
L 1031.215828 97.705169 
L 1051.730473 118.711084 
L 1072.245118 150.141411 
L 1092.759763 197.993351 
L 1113.274408 247.098239 
" clip-path="url(#paf54768f46)" style="fill: none; stroke: #3498db; stroke-width: 2.5; stroke-linecap: round"/>
   </g>
   <g id="line2d_39">
    <path d="M 641.437573 311.238864 
L 661.952218 338.721076 
L 682.466863 360.987493 
L 702.981508 369.962898 
L 723.496153 343.566206 
L 744.010798 289.607874 
L 764.525443 227.680229 
L 785.040088 199.554116 
L 805.554733 190.674651 
L 826.069378 197.726766 
L 846.584023 192.356801 
L 867.098668 185.878684 
L 887.613313 173.354157 
L 908.127958 160.404408 
L 928.642603 124.317457 
L 949.157248 101.203804 
L 969.671893 70.968075 
L 990.186538 44.968526 
L 1010.701183 38.508352 
L 1031.215828 78.778168 
L 1051.730473 134.39745 
L 1072.245118 174.857755 
L 1092.759763 217.972936 
L 1113.274408 271.576258 
" clip-path="url(#paf54768f46)" style="fill: none; stroke: #e74c3c; stroke-width: 2.5; stroke-linecap: round"/>
   </g>
   <g id="patch_9">
    <path d="M 617.845732 386.535625 
L 617.845732 21.935625 
" style="fill: none; stroke: #cccccc; stroke-width: 0.8; stroke-linejoin: miter; stroke-linecap: square"/>
   </g>
   <g id="patch_10">
    <path d="M 1136.86625 386.535625 
L 1136.86625 21.935625 
" style="fill: none; stroke: #cccccc; stroke-width: 0.8; stroke-linejoin: miter; stroke-linecap: square"/>
   </g>
   <g id="patch_11">
    <path d="M 617.845732 386.535625 
L 1136.86625 386.535625 
" style="fill: none; stroke: #cccccc; stroke-width: 0.8; stroke-linejoin: miter; stroke-linecap: square"/>
   </g>
   <g id="patch_12">
    <path d="M 617.845732 21.935625 
L 1136.86625 21.935625 
" style="fill: none; stroke: #cccccc; stroke-width: 0.8; stroke-linejoin: miter; stroke-linecap: square"/>
   </g>
   <g id="text_40">
    <!-- NO2 Hourly Profile: Traffic vs Background -->
    <g style="fill: #262626" transform="translate(757.335366 15.935625) scale(0.12 -0.12)">
     <defs>
      <path id="Arial-BoldMT-48" d="M 469 0 
L 469 4581 
L 1394 4581 
L 1394 2778 
L 3206 2778 
L 3206 4581 
L 4131 4581 
L 4131 0 
L 3206 0 
L 3206 2003 
L 1394 2003 
L 1394 0 
L 469 0 
z
" transform="scale(0.015625)"/>
      <path id="Arial-BoldMT-79" d="M 44 3319 
L 978 3319 
L 1772 963 
L 2547 3319 
L 3456 3319 
L 2284 125 
L 2075 -453 
Q 1959 -744 1854 -897 
Q 1750 -1050 1614 -1145 
Q 1478 -1241 1279 -1294 
Q 1081 -1347 831 -1347 
Q 578 -1347 334 -1294 
L 256 -606 
Q 463 -647 628 -647 
Q 934 -647 1081 -467 
Q 1228 -288 1306 -9 
L 44 3319 
z
" transform="scale(0.015625)"/>
      <path id="Arial-BoldMT-50" d="M 466 0 
L 466 4581 
L 1950 4581 
Q 2794 4581 3050 4513 
Q 3444 4409 3709 4064 
Q 3975 3719 3975 3172 
Q 3975 2750 3822 2462 
Q 3669 2175 3433 2011 
Q 3197 1847 2953 1794 
Q 2622 1728 1994 1728 
L 1391 1728 
L 1391 0 
L 466 0 
z
M 1391 3806 
L 1391 2506 
L 1897 2506 
Q 2444 2506 2628 2578 
Q 2813 2650 2917 2803 
Q 3022 2956 3022 3159 
Q 3022 3409 2875 3571 
Q 2728 3734 2503 3775 
Q 2338 3806 1838 3806 
L 1391 3806 
z
" transform="scale(0.015625)"/>
     </defs>
     <use xlink:href="#Arial-BoldMT-4e"/>
     <use xlink:href="#Arial-BoldMT-4f" transform="translate(72.216797 0)"/>
     <use xlink:href="#Arial-BoldMT-32" transform="translate(150 0)"/>
     <use xlink:href="#Arial-BoldMT-20" transform="translate(205.615234 0)"/>
     <use xlink:href="#Arial-BoldMT-48" transform="translate(233.398438 0)"/>
     <use xlink:href="#Arial-BoldMT-6f" transform="translate(305.615234 0)"/>
     <use xlink:href="#Arial-BoldMT-75" transform="translate(366.699219 0)"/>
     <use xlink:href="#Arial-BoldMT-72" transform="translate(427.783203 0)"/>
     <use xlink:href="#Arial-BoldMT-6c" transform="translate(466.699219 0)"/>
     <use xlink:href="#Arial-BoldMT-79" transform="translate(494.482422 0)"/>
     <use xlink:href="#Arial-BoldMT-20" transform="translate(550.097656 0)"/>
     <use xlink:href="#Arial-BoldMT-50" transform="translate(577.880859 0)"/>
     <use xlink:href="#Arial-BoldMT-72" transform="translate(644.580078 0)"/>
     <use xlink:href="#Arial-BoldMT-6f" transform="translate(683.496094 0)"/>
     <use xlink:href="#Arial-BoldMT-66" transform="translate(744.580078 0)"/>
     <use xlink:href="#Arial-BoldMT-69" transform="translate(777.880859 0)"/>
     <use xlink:href="#Arial-BoldMT-6c" transform="translate(805.664062 0)"/>
     <use xlink:href="#Arial-BoldMT-65" transform="translate(833.447266 0)"/>
     <use xlink:href="#Arial-BoldMT-3a" transform="translate(889.0625 0)"/>
     <use xlink:href="#Arial-BoldMT-20" transform="translate(922.363281 0)"/>
     <use xlink:href="#Arial-BoldMT-54" transform="translate(950.146484 0)"/>
     <use xlink:href="#Arial-BoldMT-72" transform="translate(1005.730469 0)"/>
     <use xlink:href="#Arial-BoldMT-61" transform="translate(1044.646484 0)"/>
     <use xlink:href="#Arial-BoldMT-66" transform="translate(1100.261719 0)"/>
     <use xlink:href="#Arial-BoldMT-66" transform="translate(1133.5625 0)"/>
     <use xlink:href="#Arial-BoldMT-69" transform="translate(1166.863281 0)"/>
     <use xlink:href="#Arial-BoldMT-63" transform="translate(1194.646484 0)"/>
     <use xlink:href="#Arial-BoldMT-20" transform="translate(1250.261719 0)"/>
     <use xlink:href="#Arial-BoldMT-76" transform="translate(1278.044922 0)"/>
     <use xlink:href="#Arial-BoldMT-73" transform="translate(1333.660156 0)"/>
     <use xlink:href="#Arial-BoldMT-20" transform="translate(1389.275391 0)"/>
     <use xlink:href="#Arial-BoldMT-42" transform="translate(1417.058594 0)"/>
     <use xlink:href="#Arial-BoldMT-61" transform="translate(1489.275391 0)"/>
     <use xlink:href="#Arial-BoldMT-63" transform="translate(1544.890625 0)"/>
     <use xlink:href="#Arial-BoldMT-6b" transform="translate(1600.505859 0)"/>
     <use xlink:href="#Arial-BoldMT-67" transform="translate(1656.121094 0)"/>
     <use xlink:href="#Arial-BoldMT-72" transform="translate(1717.205078 0)"/>
     <use xlink:href="#Arial-BoldMT-6f" transform="translate(1756.121094 0)"/>
     <use xlink:href="#Arial-BoldMT-75" transform="translate(1817.205078 0)"/>
     <use xlink:href="#Arial-BoldMT-6e" transform="translate(1878.289062 0)"/>
     <use xlink:href="#Arial-BoldMT-64" transform="translate(1939.373047 0)"/>
    </g>
   </g>
   <g id="legend_2">
    <g id="patch_13">
     <path d="M 1044.500625 58.343437 
L 1129.86625 58.343437 
Q 1131.86625 58.343437 1131.86625 56.343437 
L 1131.86625 28.935625 
Q 1131.86625 26.935625 1129.86625 26.935625 
L 1044.500625 26.935625 
Q 1042.500625 26.935625 1042.500625 28.935625 
L 1042.500625 56.343437 
Q 1042.500625 58.343437 1044.500625 58.343437 
z
" style="fill: #ffffff; opacity: 0.8; stroke: #cccccc; stroke-linejoin: miter"/>
    </g>
    <g id="line2d_40">
     <path d="M 1046.500625 34.593437 
L 1056.500625 34.593437 
L 1066.500625 34.593437 
" style="fill: none; stroke: #3498db; stroke-width: 2.5; stroke-linecap: round"/>
    </g>
    <g id="text_41">
     <!-- Background -->
     <g style="fill: #262626" transform="translate(1074.500625 38.093437) scale(0.1 -0.1)">
      <use xlink:href="#ArialMT-42"/>
      <use xlink:href="#ArialMT-61" transform="translate(66.699219 0)"/>
      <use xlink:href="#ArialMT-63" transform="translate(122.314453 0)"/>
      <use xlink:href="#ArialMT-6b" transform="translate(172.314453 0)"/>
      <use xlink:href="#ArialMT-67" transform="translate(222.314453 0)"/>
      <use xlink:href="#ArialMT-72" transform="translate(277.929688 0)"/>
      <use xlink:href="#ArialMT-6f" transform="translate(311.230469 0)"/>
      <use xlink:href="#ArialMT-75" transform="translate(366.845703 0)"/>
      <use xlink:href="#ArialMT-6e" transform="translate(422.460938 0)"/>
      <use xlink:href="#ArialMT-64" transform="translate(478.076172 0)"/>
     </g>
    </g>
    <g id="line2d_41">
     <path d="M 1046.500625 48.855937 
L 1056.500625 48.855937 
L 1066.500625 48.855937 
" style="fill: none; stroke: #e74c3c; stroke-width: 2.5; stroke-linecap: round"/>
    </g>
    <g id="text_42">
     <!-- Traffic -->
     <g style="fill: #262626" transform="translate(1074.500625 52.355937) scale(0.1 -0.1)">
      <use xlink:href="#ArialMT-54"/>
      <use xlink:href="#ArialMT-72" transform="translate(57.333984 0)"/>
      <use xlink:href="#ArialMT-61" transform="translate(90.634766 0)"/>
      <use xlink:href="#ArialMT-66" transform="translate(146.25 0)"/>
      <use xlink:href="#ArialMT-66" transform="translate(172.283203 0)"/>
      <use xlink:href="#ArialMT-69" transform="translate(200.066406 0)"/>
      <use xlink:href="#ArialMT-63" transform="translate(222.283203 0)"/>
     </g>
    </g>
   </g>
  </g>
 </g>
 <defs>
  <clipPath id="p5d10bf299f">
   <rect x="38.70625" y="21.935625" width="519.020518" height="364.6"/>
  </clipPath>
  <clipPath id="paf54768f46">
   <rect x="617.845732" y="21.935625" width="519.020518" height="364.6"/>
  </clipPath>
 </defs>
</svg>
