<?xml version="1.0" encoding="utf-8" standalone="no"?>
<!DOCTYPE svg PUBLIC "-//W3C//DTD SVG 1.1//EN"
  "http://www.w3.org/Graphics/SVG/1.1/DTD/svg11.dtd">
<svg xmlns:xlink="http://www.w3.org/1999/xlink" width="1004.076876pt" height="354.769687pt" viewBox="0 0 1004.076876 354.769687" xmlns="http://www.w3.org/2000/svg" version="1.1">
 <metadata>
  <rdf:RDF xmlns:dc="http://purl.org/dc/elements/1.1/" xmlns:cc="http://creativecommons.org/ns#" xmlns:rdf="http://www.w3.org/1999/02/22-rdf-syntax-ns#">
   <cc:Work>
    <dc:type rdf:resource="http://purl.org/dc/dcmitype/StillImage"/>
    <dc:date>2026-03-28T21:39:02.552407</dc:date>
    <dc:format>image/svg+xml</dc:format>
    <dc:creator>
     <cc:Agent>
      <dc:title>Matplotlib v3.10.8, https://matplotlib.org/</dc:title>
     </cc:Agent>
    </dc:creator>
   </cc:Work>
  </rdf:RDF>
 </metadata>
 <defs>
  <style type="text/css">*{stroke-linejoin: round; stroke-linecap: butt}</style>
 </defs>
 <g id="figure_1">
  <g id="patch_1">
   <path d="M 0 354.769687 
L 1004.076876 354.769687 
L 1004.076876 0 
L 0 0 
z
" style="fill: #ffffff"/>
  </g>
  <g id="axes_1">
   <g id="patch_2">
    <path d="M 61.448438 318.04 
L 461.443049 318.04 
L 461.443049 65.616 
L 61.448438 65.616 
z
" style="fill: #ffffff"/>
   </g>
   <g id="matplotlib.axis_1">
    <g id="xtick_1">
     <g id="line2d_1">
      <path d="M 84.325263 318.04 
L 84.325263 65.616 
" clip-path="url(#p946676cef6)" style="fill: none; stroke: #cccccc; stroke-width: 0.8; stroke-linecap: round"/>
     </g>
     <g id="text_1">
      <!-- −5 -->
      <g style="fill: #262626" transform="translate(78.624482 332.197812) scale(0.1 -0.1)">
       <defs>
        <path id="ArialMT-2212" d="M 3381 1997 
L 356 1997 
L 356 2522 
L 3381 2522 
L 3381 1997 
z
" transform="scale(0.015625)"/>
        <path id="ArialMT-35" d="M 266 1200 
L 856 1250 
Q 922 819 1161 601 
Q 1400 384 1738 384 
Q 2144 384 2425 690 
Q 2706 997 2706 1503 
Q 2706 1984 2436 2262 
Q 2166 2541 1728 2541 
Q 1456 2541 1237 2417 
Q 1019 2294 894 2097 
L 366 2166 
L 809 4519 
L 3088 4519 
L 3088 3981 
L 1259 3981 
L 1013 2750 
Q 1425 3038 1878 3038 
Q 2478 3038 2890 2622 
Q 3303 2206 3303 1553 
Q 3303 931 2941 478 
Q 2500 -78 1738 -78 
Q 1113 -78 717 272 
Q 322 622 266 1200 
z
" transform="scale(0.015625)"/>
       </defs>
       <use xlink:href="#ArialMT-2212"/>
       <use xlink:href="#ArialMT-35" transform="translate(58.398438 0)"/>
      </g>
     </g>
    </g>
    <g id="xtick_2">
     <g id="line2d_2">
      <path d="M 154.459384 318.04 
L 154.459384 65.616 
" clip-path="url(#p946676cef6)" style="fill: none; stroke: #cccccc; stroke-width: 0.8; stroke-linecap: round"/>
     </g>
     <g id="text_2">
      <!-- −4 -->
      <g style="fill: #262626" transform="translate(148.758603 332.197812) scale(0.1 -0.1)">
       <defs>
        <path id="ArialMT-34" d="M 2069 0 
L 2069 1097 
L 81 1097 
L 81 1613 
L 2172 4581 
L 2631 4581 
L 2631 1613 
L 3250 1613 
L 3250 1097 
L 2631 1097 
L 2631 0 
L 2069 0 
z
M 2069 1613 
L 2069 3678 
L 634 1613 
L 2069 1613 
z
" transform="scale(0.015625)"/>
       </defs>
       <use xlink:href="#ArialMT-2212"/>
       <use xlink:href="#ArialMT-34" transform="translate(58.398438 0)"/>
      </g>
     </g>
    </g>
    <g id="xtick_3">
     <g id="line2d_3">
      <path d="M 224.593506 318.04 
L 224.593506 65.616 
" clip-path="url(#p946676cef6)" style="fill: none; stroke: #cccccc; stroke-width: 0.8; stroke-linecap: round"/>
     </g>
     <g id="text_3">
      <!-- −3 -->
      <g style="fill: #262626" transform="translate(218.892725 332.197812) scale(0.1 -0.1)">
       <defs>
        <path id="ArialMT-33" d="M 269 1209 
L 831 1284 
Q 928 806 1161 595 
Q 1394 384 1728 384 
Q 2125 384 2398 659 
Q 2672 934 2672 1341 
Q 2672 1728 2419 1979 
Q 2166 2231 1775 2231 
Q 1616 2231 1378 2169 
L 1441 2663 
Q 1497 2656 1531 2656 
Q 1891 2656 2178 2843 
Q 2466 3031 2466 3422 
Q 2466 3731 2256 3934 
Q 2047 4138 1716 4138 
Q 1388 4138 1169 3931 
Q 950 3725 888 3313 
L 325 3413 
Q 428 3978 793 4289 
Q 1159 4600 1703 4600 
Q 2078 4600 2393 4439 
Q 2709 4278 2876 4000 
Q 3044 3722 3044 3409 
Q 3044 3113 2884 2869 
Q 2725 2625 2413 2481 
Q 2819 2388 3044 2092 
Q 3269 1797 3269 1353 
Q 3269 753 2831 336 
Q 2394 -81 1725 -81 
Q 1122 -81 723 278 
Q 325 638 269 1209 
z
" transform="scale(0.015625)"/>
       </defs>
       <use xlink:href="#ArialMT-2212"/>
       <use xlink:href="#ArialMT-33" transform="translate(58.398438 0)"/>
      </g>
     </g>
    </g>
    <g id="xtick_4">
     <g id="line2d_4">
      <path d="M 294.727627 318.04 
L 294.727627 65.616 
" clip-path="url(#p946676cef6)" style="fill: none; stroke: #cccccc; stroke-width: 0.8; stroke-linecap: round"/>
     </g>
     <g id="text_4">
      <!-- −2 -->
      <g style="fill: #262626" transform="translate(289.026846 332.197812) scale(0.1 -0.1)">
       <defs>
        <path id="ArialMT-32" d="M 3222 541 
L 3222 0 
L 194 0 
Q 188 203 259 391 
Q 375 700 629 1000 
Q 884 1300 1366 1694 
Q 2113 2306 2375 2664 
Q 2638 3022 2638 3341 
Q 2638 3675 2398 3904 
Q 2159 4134 1775 4134 
Q 1369 4134 1125 3890 
Q 881 3647 878 3216 
L 300 3275 
Q 359 3922 746 4261 
Q 1134 4600 1788 4600 
Q 2447 4600 2831 4234 
Q 3216 3869 3216 3328 
Q 3216 3053 3103 2787 
Q 2991 2522 2730 2228 
Q 2469 1934 1863 1422 
Q 1356 997 1212 845 
Q 1069 694 975 541 
L 3222 541 
z
" transform="scale(0.015625)"/>
       </defs>
       <use xlink:href="#ArialMT-2212"/>
       <use xlink:href="#ArialMT-32" transform="translate(58.398438 0)"/>
      </g>
     </g>
    </g>
    <g id="xtick_5">
     <g id="line2d_5">
      <path d="M 364.861749 318.04 
L 364.861749 65.616 
" clip-path="url(#p946676cef6)" style="fill: none; stroke: #cccccc; stroke-width: 0.8; stroke-linecap: round"/>
     </g>
     <g id="text_5">
      <!-- −1 -->
      <g style="fill: #262626" transform="translate(359.160967 332.197812) scale(0.1 -0.1)">
       <defs>
        <path id="ArialMT-31" d="M 2384 0 
L 1822 0 
L 1822 3584 
Q 1619 3391 1289 3197 
Q 959 3003 697 2906 
L 697 3450 
Q 1169 3672 1522 3987 
Q 1875 4303 2022 4600 
L 2384 4600 
L 2384 0 
z
" transform="scale(0.015625)"/>
       </defs>
       <use xlink:href="#ArialMT-2212"/>
       <use xlink:href="#ArialMT-31" transform="translate(58.398438 0)"/>
      </g>
     </g>
    </g>
    <g id="xtick_6">
     <g id="line2d_6">
      <path d="M 434.99587 318.04 
L 434.99587 65.616 
" clip-path="url(#p946676cef6)" style="fill: none; stroke: #cccccc; stroke-width: 0.8; stroke-linecap: round"/>
     </g>
     <g id="text_6">
      <!-- 0 -->
      <g style="fill: #262626" transform="translate(432.215401 332.197812) scale(0.1 -0.1)">
       <defs>
        <path id="ArialMT-30" d="M 266 2259 
Q 266 3072 433 3567 
Q 600 4063 929 4331 
Q 1259 4600 1759 4600 
Q 2128 4600 2406 4451 
Q 2684 4303 2865 4023 
Q 3047 3744 3150 3342 
Q 3253 2941 3253 2259 
Q 3253 1453 3087 958 
Q 2922 463 2592 192 
Q 2263 -78 1759 -78 
Q 1097 -78 719 397 
Q 266 969 266 2259 
z
M 844 2259 
Q 844 1131 1108 757 
Q 1372 384 1759 384 
Q 2147 384 2411 759 
Q 2675 1134 2675 2259 
Q 2675 3391 2411 3762 
Q 2147 4134 1753 4134 
Q 1366 4134 1134 3806 
Q 844 3388 844 2259 
z
" transform="scale(0.015625)"/>
       </defs>
       <use xlink:href="#ArialMT-30"/>
      </g>
     </g>
    </g>
    <g id="text_7">
     <!-- Effect (µg/m³) -->
     <g style="fill: #262626" transform="translate(231.151212 345.465) scale(0.1 -0.1)">
      <defs>
       <path id="ArialMT-45" d="M 506 0 
L 506 4581 
L 3819 4581 
L 3819 4041 
L 1113 4041 
L 1113 2638 
L 3647 2638 
L 3647 2100 
L 1113 2100 
L 1113 541 
L 3925 541 
L 3925 0 
L 506 0 
z
" transform="scale(0.015625)"/>
       <path id="ArialMT-66" d="M 556 0 
L 556 2881 
L 59 2881 
L 59 3319 
L 556 3319 
L 556 3672 
Q 556 4006 616 4169 
Q 697 4388 901 4523 
Q 1106 4659 1475 4659 
Q 1713 4659 2000 4603 
L 1916 4113 
Q 1741 4144 1584 4144 
Q 1328 4144 1222 4034 
Q 1116 3925 1116 3625 
L 1116 3319 
L 1763 3319 
L 1763 2881 
L 1116 2881 
L 1116 0 
L 556 0 
z
" transform="scale(0.015625)"/>
       <path id="ArialMT-65" d="M 2694 1069 
L 3275 997 
Q 3138 488 2766 206 
Q 2394 -75 1816 -75 
Q 1088 -75 661 373 
Q 234 822 234 1631 
Q 234 2469 665 2931 
Q 1097 3394 1784 3394 
Q 2450 3394 2872 2941 
Q 3294 2488 3294 1666 
Q 3294 1616 3291 1516 
L 816 1516 
Q 847 969 1125 678 
Q 1403 388 1819 388 
Q 2128 388 2347 550 
Q 2566 713 2694 1069 
z
M 847 1978 
L 2700 1978 
Q 2663 2397 2488 2606 
Q 2219 2931 1791 2931 
Q 1403 2931 1139 2672 
Q 875 2413 847 1978 
z
" transform="scale(0.015625)"/>
       <path id="ArialMT-63" d="M 2588 1216 
L 3141 1144 
Q 3050 572 2676 248 
Q 2303 -75 1759 -75 
Q 1078 -75 664 370 
Q 250 816 250 1647 
Q 250 2184 428 2587 
Q 606 2991 970 3192 
Q 1334 3394 1763 3394 
Q 2303 3394 2647 3120 
Q 2991 2847 3088 2344 
L 2541 2259 
Q 2463 2594 2264 2762 
Q 2066 2931 1784 2931 
Q 1359 2931 1093 2626 
Q 828 2322 828 1663 
Q 828 994 1084 691 
Q 1341 388 1753 388 
Q 2084 388 2306 591 
Q 2528 794 2588 1216 
z
" transform="scale(0.015625)"/>
       <path id="ArialMT-74" d="M 1650 503 
L 1731 6 
Q 1494 -44 1306 -44 
Q 1000 -44 831 53 
Q 663 150 594 308 
Q 525 466 525 972 
L 525 2881 
L 113 2881 
L 113 3319 
L 525 3319 
L 525 4141 
L 1084 4478 
L 1084 3319 
L 1650 3319 
L 1650 2881 
L 1084 2881 
L 1084 941 
Q 1084 700 1114 631 
Q 1144 563 1211 522 
Q 1278 481 1403 481 
Q 1497 481 1650 503 
z
" transform="scale(0.015625)"/>
       <path id="ArialMT-20" transform="scale(0.015625)"/>
       <path id="ArialMT-28" d="M 1497 -1347 
Q 1031 -759 709 28 
Q 388 816 388 1659 
Q 388 2403 628 3084 
Q 909 3875 1497 4659 
L 1900 4659 
Q 1522 4009 1400 3731 
Q 1209 3300 1100 2831 
Q 966 2247 966 1656 
Q 966 153 1900 -1347 
L 1497 -1347 
z
" transform="scale(0.015625)"/>
       <path id="ArialMT-b5" d="M 3181 3319 
L 3181 0 
L 2678 0 
L 2678 394 
Q 2516 144 2356 50 
Q 2138 -78 1847 -78 
Q 1588 -78 1388 25 
Q 1238 103 1056 334 
L 1056 -1272 
L 500 -1272 
L 500 3319 
L 1056 3319 
L 1056 1913 
Q 1056 1147 1137 920 
Q 1219 694 1401 562 
Q 1584 431 1822 431 
Q 2072 431 2269 568 
Q 2466 706 2547 923 
Q 2628 1141 2628 1903 
L 2628 3319 
L 3181 3319 
z
" transform="scale(0.015625)"/>
       <path id="ArialMT-67" d="M 319 -275 
L 866 -356 
Q 900 -609 1056 -725 
Q 1266 -881 1628 -881 
Q 2019 -881 2231 -725 
Q 2444 -569 2519 -288 
Q 2563 -116 2559 434 
Q 2191 0 1641 0 
Q 956 0 581 494 
Q 206 988 206 1678 
Q 206 2153 378 2554 
Q 550 2956 876 3175 
Q 1203 3394 1644 3394 
Q 2231 3394 2613 2919 
L 2613 3319 
L 3131 3319 
L 3131 450 
Q 3131 -325 2973 -648 
Q 2816 -972 2473 -1159 
Q 2131 -1347 1631 -1347 
Q 1038 -1347 672 -1080 
Q 306 -813 319 -275 
z
M 784 1719 
Q 784 1066 1043 766 
Q 1303 466 1694 466 
Q 2081 466 2343 764 
Q 2606 1063 2606 1700 
Q 2606 2309 2336 2618 
Q 2066 2928 1684 2928 
Q 1309 2928 1046 2623 
Q 784 2319 784 1719 
z
" transform="scale(0.015625)"/>
       <path id="ArialMT-2f" d="M 0 -78 
L 1328 4659 
L 1778 4659 
L 453 -78 
L 0 -78 
z
" transform="scale(0.015625)"/>
       <path id="ArialMT-6d" d="M 422 0 
L 422 3319 
L 925 3319 
L 925 2853 
Q 1081 3097 1340 3245 
Q 1600 3394 1931 3394 
Q 2300 3394 2536 3241 
Q 2772 3088 2869 2813 
Q 3263 3394 3894 3394 
Q 4388 3394 4653 3120 
Q 4919 2847 4919 2278 
L 4919 0 
L 4359 0 
L 4359 2091 
Q 4359 2428 4304 2576 
Q 4250 2725 4106 2815 
Q 3963 2906 3769 2906 
Q 3419 2906 3187 2673 
Q 2956 2441 2956 1928 
L 2956 0 
L 2394 0 
L 2394 2156 
Q 2394 2531 2256 2718 
Q 2119 2906 1806 2906 
Q 1569 2906 1367 2781 
Q 1166 2656 1075 2415 
Q 984 2175 984 1722 
L 984 0 
L 422 0 
z
" transform="scale(0.015625)"/>
       <path id="ArialMT-b3" d="M 103 2903 
L 559 2950 
Q 622 2763 722 2694 
Q 856 2600 1041 2600 
Q 1263 2600 1397 2722 
Q 1531 2844 1531 3016 
Q 1531 3172 1418 3265 
Q 1306 3359 1034 3359 
Q 997 3359 931 3353 
Q 888 3350 863 3350 
L 931 3694 
Q 1184 3691 1301 3784 
Q 1419 3878 1419 4013 
Q 1419 4128 1325 4209 
Q 1231 4291 1047 4291 
Q 872 4291 773 4222 
Q 675 4153 603 3972 
L 156 4044 
Q 284 4375 479 4506 
Q 675 4638 1050 4638 
Q 1500 4638 1704 4470 
Q 1909 4303 1909 4053 
Q 1909 3881 1798 3747 
Q 1688 3613 1478 3553 
Q 1756 3484 1887 3326 
Q 2019 3169 2019 2956 
Q 2019 2666 1772 2450 
Q 1525 2234 1069 2234 
Q 631 2234 400 2407 
Q 169 2581 103 2903 
z
" transform="scale(0.015625)"/>
       <path id="ArialMT-29" d="M 791 -1347 
L 388 -1347 
Q 1322 153 1322 1656 
Q 1322 2244 1188 2822 
Q 1081 3291 891 3722 
Q 769 4003 388 4659 
L 791 4659 
Q 1378 3875 1659 3084 
Q 1900 2403 1900 1659 
Q 1900 816 1576 28 
Q 1253 -759 791 -1347 
z
" transform="scale(0.015625)"/>
      </defs>
      <use xlink:href="#ArialMT-45"/>
      <use xlink:href="#ArialMT-66" transform="translate(66.699219 0)"/>
      <use xlink:href="#ArialMT-66" transform="translate(92.732422 0)"/>
      <use xlink:href="#ArialMT-65" transform="translate(120.515625 0)"/>
      <use xlink:href="#ArialMT-63" transform="translate(176.130859 0)"/>
      <use xlink:href="#ArialMT-74" transform="translate(226.130859 0)"/>
      <use xlink:href="#ArialMT-20" transform="translate(253.914062 0)"/>
      <use xlink:href="#ArialMT-28" transform="translate(281.697266 0)"/>
      <use xlink:href="#ArialMT-b5" transform="translate(314.998047 0)"/>
      <use xlink:href="#ArialMT-67" transform="translate(372.615234 0)"/>
      <use xlink:href="#ArialMT-2f" transform="translate(428.230469 0)"/>
      <use xlink:href="#ArialMT-6d" transform="translate(456.013672 0)"/>
      <use xlink:href="#ArialMT-b3" transform="translate(539.314453 0)"/>
      <use xlink:href="#ArialMT-29" transform="translate(572.615234 0)"/>
     </g>
    </g>
   </g>
   <g id="matplotlib.axis_2">
    <g id="ytick_1">
     <g id="line2d_7">
      <path d="M 61.448438 96.212848 
L 461.443049 96.212848 
" clip-path="url(#p946676cef6)" style="fill: none; stroke: #cccccc; stroke-width: 0.8; stroke-linecap: round"/>
     </g>
     <g id="text_8">
      <!-- Diesel ban -->
      <g style="fill: #262626" transform="translate(7.2 99.791755) scale(0.1 -0.1)">
       <defs>
        <path id="ArialMT-44" d="M 494 0 
L 494 4581 
L 2072 4581 
Q 2606 4581 2888 4516 
Q 3281 4425 3559 4188 
Q 3922 3881 4101 3404 
Q 4281 2928 4281 2316 
Q 4281 1794 4159 1391 
Q 4038 988 3847 723 
Q 3656 459 3429 307 
Q 3203 156 2883 78 
Q 2563 0 2147 0 
L 494 0 
z
M 1100 541 
L 2078 541 
Q 2531 541 2789 625 
Q 3047 709 3200 863 
Q 3416 1078 3536 1442 
Q 3656 1806 3656 2325 
Q 3656 3044 3420 3430 
Q 3184 3816 2847 3947 
Q 2603 4041 2063 4041 
L 1100 4041 
L 1100 541 
z
" transform="scale(0.015625)"/>
        <path id="ArialMT-69" d="M 425 3934 
L 425 4581 
L 988 4581 
L 988 3934 
L 425 3934 
z
M 425 0 
L 425 3319 
L 988 3319 
L 988 0 
L 425 0 
z
" transform="scale(0.015625)"/>
        <path id="ArialMT-73" d="M 197 991 
L 753 1078 
Q 800 744 1014 566 
Q 1228 388 1613 388 
Q 2000 388 2187 545 
Q 2375 703 2375 916 
Q 2375 1106 2209 1216 
Q 2094 1291 1634 1406 
Q 1016 1563 777 1677 
Q 538 1791 414 1992 
Q 291 2194 291 2438 
Q 291 2659 392 2848 
Q 494 3038 669 3163 
Q 800 3259 1026 3326 
Q 1253 3394 1513 3394 
Q 1903 3394 2198 3281 
Q 2494 3169 2634 2976 
Q 2775 2784 2828 2463 
L 2278 2388 
Q 2241 2644 2061 2787 
Q 1881 2931 1553 2931 
Q 1166 2931 1000 2803 
Q 834 2675 834 2503 
Q 834 2394 903 2306 
Q 972 2216 1119 2156 
Q 1203 2125 1616 2013 
Q 2213 1853 2448 1751 
Q 2684 1650 2818 1456 
Q 2953 1263 2953 975 
Q 2953 694 2789 445 
Q 2625 197 2315 61 
Q 2006 -75 1616 -75 
Q 969 -75 630 194 
Q 291 463 197 991 
z
" transform="scale(0.015625)"/>
        <path id="ArialMT-6c" d="M 409 0 
L 409 4581 
L 972 4581 
L 972 0 
L 409 0 
z
" transform="scale(0.015625)"/>
        <path id="ArialMT-62" d="M 941 0 
L 419 0 
L 419 4581 
L 981 4581 
L 981 2947 
Q 1338 3394 1891 3394 
Q 2197 3394 2470 3270 
Q 2744 3147 2920 2923 
Q 3097 2700 3197 2384 
Q 3297 2069 3297 1709 
Q 3297 856 2875 390 
Q 2453 -75 1863 -75 
Q 1275 -75 941 416 
L 941 0 
z
M 934 1684 
Q 934 1088 1097 822 
Q 1363 388 1816 388 
Q 2184 388 2453 708 
Q 2722 1028 2722 1663 
Q 2722 2313 2464 2622 
Q 2206 2931 1841 2931 
Q 1472 2931 1203 2611 
Q 934 2291 934 1684 
z
" transform="scale(0.015625)"/>
        <path id="ArialMT-61" d="M 2588 409 
Q 2275 144 1986 34 
Q 1697 -75 1366 -75 
Q 819 -75 525 192 
Q 231 459 231 875 
Q 231 1119 342 1320 
Q 453 1522 633 1644 
Q 813 1766 1038 1828 
Q 1203 1872 1538 1913 
Q 2219 1994 2541 2106 
Q 2544 2222 2544 2253 
Q 2544 2597 2384 2738 
Q 2169 2928 1744 2928 
Q 1347 2928 1158 2789 
Q 969 2650 878 2297 
L 328 2372 
Q 403 2725 575 2942 
Q 747 3159 1072 3276 
Q 1397 3394 1825 3394 
Q 2250 3394 2515 3294 
Q 2781 3194 2906 3042 
Q 3031 2891 3081 2659 
Q 3109 2516 3109 2141 
L 3109 1391 
Q 3109 606 3145 398 
Q 3181 191 3288 0 
L 2700 0 
Q 2613 175 2588 409 
z
M 2541 1666 
Q 2234 1541 1622 1453 
Q 1275 1403 1131 1340 
Q 988 1278 909 1158 
Q 831 1038 831 891 
Q 831 666 1001 516 
Q 1172 366 1500 366 
Q 1825 366 2078 508 
Q 2331 650 2450 897 
Q 2541 1088 2541 1459 
L 2541 1666 
z
" transform="scale(0.015625)"/>
        <path id="ArialMT-6e" d="M 422 0 
L 422 3319 
L 928 3319 
L 928 2847 
Q 1294 3394 1984 3394 
Q 2284 3394 2536 3286 
Q 2788 3178 2913 3003 
Q 3038 2828 3088 2588 
Q 3119 2431 3119 2041 
L 3119 0 
L 2556 0 
L 2556 2019 
Q 2556 2363 2490 2533 
Q 2425 2703 2258 2804 
Q 2091 2906 1866 2906 
Q 1506 2906 1245 2678 
Q 984 2450 984 1813 
L 984 0 
L 422 0 
z
" transform="scale(0.015625)"/>
       </defs>
       <use xlink:href="#ArialMT-44"/>
       <use xlink:href="#ArialMT-69" transform="translate(72.216797 0)"/>
       <use xlink:href="#ArialMT-65" transform="translate(94.433594 0)"/>
       <use xlink:href="#ArialMT-73" transform="translate(150.048828 0)"/>
       <use xlink:href="#ArialMT-65" transform="translate(200.048828 0)"/>
       <use xlink:href="#ArialMT-6c" transform="translate(255.664062 0)"/>
       <use xlink:href="#ArialMT-20" transform="translate(277.880859 0)"/>
       <use xlink:href="#ArialMT-62" transform="translate(305.664062 0)"/>
       <use xlink:href="#ArialMT-61" transform="translate(361.279297 0)"/>
       <use xlink:href="#ArialMT-6e" transform="translate(416.894531 0)"/>
      </g>
     </g>
    </g>
    <g id="ytick_2">
     <g id="line2d_8">
      <path d="M 61.448438 144.020424 
L 461.443049 144.020424 
" clip-path="url(#p946676cef6)" style="fill: none; stroke: #cccccc; stroke-width: 0.8; stroke-linecap: round"/>
     </g>
     <g id="text_9">
      <!-- COVID 1 -->
      <g style="fill: #262626" transform="translate(14.439062 147.59933) scale(0.1 -0.1)">
       <defs>
        <path id="ArialMT-43" d="M 3763 1606 
L 4369 1453 
Q 4178 706 3683 314 
Q 3188 -78 2472 -78 
Q 1731 -78 1267 223 
Q 803 525 561 1097 
Q 319 1669 319 2325 
Q 319 3041 592 3573 
Q 866 4106 1370 4382 
Q 1875 4659 2481 4659 
Q 3169 4659 3637 4309 
Q 4106 3959 4291 3325 
L 3694 3184 
Q 3534 3684 3231 3912 
Q 2928 4141 2469 4141 
Q 1941 4141 1586 3887 
Q 1231 3634 1087 3207 
Q 944 2781 944 2328 
Q 944 1744 1114 1308 
Q 1284 872 1643 656 
Q 2003 441 2422 441 
Q 2931 441 3284 734 
Q 3638 1028 3763 1606 
z
" transform="scale(0.015625)"/>
        <path id="ArialMT-4f" d="M 309 2231 
Q 309 3372 921 4017 
Q 1534 4663 2503 4663 
Q 3138 4663 3647 4359 
Q 4156 4056 4423 3514 
Q 4691 2972 4691 2284 
Q 4691 1588 4409 1038 
Q 4128 488 3612 205 
Q 3097 -78 2500 -78 
Q 1853 -78 1343 234 
Q 834 547 571 1087 
Q 309 1628 309 2231 
z
M 934 2222 
Q 934 1394 1379 917 
Q 1825 441 2497 441 
Q 3181 441 3623 922 
Q 4066 1403 4066 2288 
Q 4066 2847 3877 3264 
Q 3688 3681 3323 3911 
Q 2959 4141 2506 4141 
Q 1863 4141 1398 3698 
Q 934 3256 934 2222 
z
" transform="scale(0.015625)"/>
        <path id="ArialMT-56" d="M 1803 0 
L 28 4581 
L 684 4581 
L 1875 1253 
Q 2019 853 2116 503 
Q 2222 878 2363 1253 
L 3600 4581 
L 4219 4581 
L 2425 0 
L 1803 0 
z
" transform="scale(0.015625)"/>
        <path id="ArialMT-49" d="M 597 0 
L 597 4581 
L 1203 4581 
L 1203 0 
L 597 0 
z
" transform="scale(0.015625)"/>
       </defs>
       <use xlink:href="#ArialMT-43"/>
       <use xlink:href="#ArialMT-4f" transform="translate(72.216797 0)"/>
       <use xlink:href="#ArialMT-56" transform="translate(150 0)"/>
       <use xlink:href="#ArialMT-49" transform="translate(216.699219 0)"/>
       <use xlink:href="#ArialMT-44" transform="translate(244.482422 0)"/>
       <use xlink:href="#ArialMT-20" transform="translate(316.699219 0)"/>
       <use xlink:href="#ArialMT-31" transform="translate(344.482422 0)"/>
      </g>
     </g>
    </g>
    <g id="ytick_3">
     <g id="line2d_9">
      <path d="M 61.448438 191.828 
L 461.443049 191.828 
" clip-path="url(#p946676cef6)" style="fill: none; stroke: #cccccc; stroke-width: 0.8; stroke-linecap: round"/>
     </g>
     <g id="text_10">
      <!-- 9e Ticket -->
      <g style="fill: #262626" transform="translate(14.429688 195.406906) scale(0.1 -0.1)">
       <defs>
        <path id="ArialMT-39" d="M 350 1059 
L 891 1109 
Q 959 728 1153 556 
Q 1347 384 1650 384 
Q 1909 384 2104 503 
Q 2300 622 2425 820 
Q 2550 1019 2634 1356 
Q 2719 1694 2719 2044 
Q 2719 2081 2716 2156 
Q 2547 1888 2255 1720 
Q 1963 1553 1622 1553 
Q 1053 1553 659 1965 
Q 266 2378 266 3053 
Q 266 3750 677 4175 
Q 1088 4600 1706 4600 
Q 2153 4600 2523 4359 
Q 2894 4119 3086 3673 
Q 3278 3228 3278 2384 
Q 3278 1506 3087 986 
Q 2897 466 2520 194 
Q 2144 -78 1638 -78 
Q 1100 -78 759 220 
Q 419 519 350 1059 
z
M 2653 3081 
Q 2653 3566 2395 3850 
Q 2138 4134 1775 4134 
Q 1400 4134 1122 3828 
Q 844 3522 844 3034 
Q 844 2597 1108 2323 
Q 1372 2050 1759 2050 
Q 2150 2050 2401 2323 
Q 2653 2597 2653 3081 
z
" transform="scale(0.015625)"/>
        <path id="ArialMT-54" d="M 1659 0 
L 1659 4041 
L 150 4041 
L 150 4581 
L 3781 4581 
L 3781 4041 
L 2266 4041 
L 2266 0 
L 1659 0 
z
" transform="scale(0.015625)"/>
        <path id="ArialMT-6b" d="M 425 0 
L 425 4581 
L 988 4581 
L 988 1969 
L 2319 3319 
L 3047 3319 
L 1778 2088 
L 3175 0 
L 2481 0 
L 1384 1697 
L 988 1316 
L 988 0 
L 425 0 
z
" transform="scale(0.015625)"/>
       </defs>
       <use xlink:href="#ArialMT-39"/>
       <use xlink:href="#ArialMT-65" transform="translate(55.615234 0)"/>
       <use xlink:href="#ArialMT-20" transform="translate(111.230469 0)"/>
       <use xlink:href="#ArialMT-54" transform="translate(137.263672 0)"/>
       <use xlink:href="#ArialMT-69" transform="translate(194.597656 0)"/>
       <use xlink:href="#ArialMT-63" transform="translate(216.814453 0)"/>
       <use xlink:href="#ArialMT-6b" transform="translate(266.814453 0)"/>
       <use xlink:href="#ArialMT-65" transform="translate(316.814453 0)"/>
       <use xlink:href="#ArialMT-74" transform="translate(372.429688 0)"/>
      </g>
     </g>
    </g>
    <g id="ytick_4">
     <g id="line2d_10">
      <path d="M 61.448438 239.635576 
L 461.443049 239.635576 
" clip-path="url(#p946676cef6)" style="fill: none; stroke: #cccccc; stroke-width: 0.8; stroke-linecap: round"/>
     </g>
     <g id="text_11">
      <!-- COVID 2 -->
      <g style="fill: #262626" transform="translate(14.439062 243.214482) scale(0.1 -0.1)">
       <use xlink:href="#ArialMT-43"/>
       <use xlink:href="#ArialMT-4f" transform="translate(72.216797 0)"/>
       <use xlink:href="#ArialMT-56" transform="translate(150 0)"/>
       <use xlink:href="#ArialMT-49" transform="translate(216.699219 0)"/>
       <use xlink:href="#ArialMT-44" transform="translate(244.482422 0)"/>
       <use xlink:href="#ArialMT-20" transform="translate(316.699219 0)"/>
       <use xlink:href="#ArialMT-32" transform="translate(344.482422 0)"/>
      </g>
     </g>
    </g>
    <g id="ytick_5">
     <g id="line2d_11">
      <path d="M 61.448438 287.443152 
L 461.443049 287.443152 
" clip-path="url(#p946676cef6)" style="fill: none; stroke: #cccccc; stroke-width: 0.8; stroke-linecap: round"/>
     </g>
     <g id="text_12">
      <!-- D Ticket -->
      <g style="fill: #262626" transform="translate(18.329688 291.022058) scale(0.1 -0.1)">
       <use xlink:href="#ArialMT-44"/>
       <use xlink:href="#ArialMT-20" transform="translate(72.216797 0)"/>
       <use xlink:href="#ArialMT-54" transform="translate(98.25 0)"/>
       <use xlink:href="#ArialMT-69" transform="translate(155.583984 0)"/>
       <use xlink:href="#ArialMT-63" transform="translate(177.800781 0)"/>
       <use xlink:href="#ArialMT-6b" transform="translate(227.800781 0)"/>
       <use xlink:href="#ArialMT-65" transform="translate(277.800781 0)"/>
       <use xlink:href="#ArialMT-74" transform="translate(333.416016 0)"/>
      </g>
     </g>
    </g>
   </g>
   <g id="patch_3">
    <path d="M 434.99587 77.089818 
L 79.630011 77.089818 
L 79.630011 115.335879 
L 434.99587 115.335879 
z
" clip-path="url(#p946676cef6)" style="fill: #e74c3c; stroke: #ffffff; stroke-linejoin: miter"/>
   </g>
   <g id="patch_4">
    <path d="M 434.99587 124.897394 
L 259.172057 124.897394 
L 259.172057 163.143455 
L 434.99587 163.143455 
z
" clip-path="url(#p946676cef6)" style="fill: #e74c3c; stroke: #ffffff; stroke-linejoin: miter"/>
   </g>
   <g id="patch_5">
    <path d="M 434.99587 172.70497 
L 336.237852 172.70497 
L 336.237852 210.95103 
L 434.99587 210.95103 
z
" clip-path="url(#p946676cef6)" style="fill: #e74c3c; stroke: #ffffff; stroke-linejoin: miter"/>
   </g>
   <g id="patch_6">
    <path d="M 434.99587 220.512545 
L 349.928597 220.512545 
L 349.928597 258.758606 
L 434.99587 258.758606 
z
" clip-path="url(#p946676cef6)" style="fill: #cccccc; stroke: #ffffff; stroke-linejoin: miter"/>
   </g>
   <g id="patch_7">
    <path d="M 434.99587 268.320121 
L 443.261476 268.320121 
L 443.261476 306.566182 
L 434.99587 306.566182 
z
" clip-path="url(#p946676cef6)" style="fill: #cccccc; stroke: #ffffff; stroke-linejoin: miter"/>
   </g>
   <g id="line2d_12">
    <path d="M 434.99587 318.04 
L 434.99587 65.616 
" clip-path="url(#p946676cef6)" style="fill: none; stroke: #000000; stroke-width: 0.8; stroke-linecap: round"/>
   </g>
   <g id="patch_8">
    <path d="M 61.448438 318.04 
L 61.448438 65.616 
" style="fill: none; stroke: #cccccc; stroke-width: 0.8; stroke-linejoin: miter; stroke-linecap: square"/>
   </g>
   <g id="patch_9">
    <path d="M 461.443049 318.04 
L 461.443049 65.616 
" style="fill: none; stroke: #cccccc; stroke-width: 0.8; stroke-linejoin: miter; stroke-linecap: square"/>
   </g>
   <g id="patch_10">
    <path d="M 61.448438 318.04 
L 461.443049 318.04 
" style="fill: none; stroke: #cccccc; stroke-width: 0.8; stroke-linejoin: miter; stroke-linecap: square"/>
   </g>
   <g id="patch_11">
    <path d="M 61.448438 65.616 
L 461.443049 65.616 
" style="fill: none; stroke: #cccccc; stroke-width: 0.8; stroke-linejoin: miter; stroke-linecap: square"/>
   </g>
   <g id="text_13">
    <!-- -5.1★ -->
    <g style="fill: #262626" transform="translate(36.333056 98.545817) scale(0.09 -0.09)">
     <defs>
      <path id="Arial-BoldMT-2d" d="M 359 1222 
L 359 2100 
L 2084 2100 
L 2084 1222 
L 359 1222 
z
" transform="scale(0.015625)"/>
      <path id="Arial-BoldMT-35" d="M 284 1178 
L 1159 1269 
Q 1197 972 1381 798 
Q 1566 625 1806 625 
Q 2081 625 2272 848 
Q 2463 1072 2463 1522 
Q 2463 1944 2273 2155 
Q 2084 2366 1781 2366 
Q 1403 2366 1103 2031 
L 391 2134 
L 841 4519 
L 3163 4519 
L 3163 3697 
L 1506 3697 
L 1369 2919 
Q 1663 3066 1969 3066 
Q 2553 3066 2959 2641 
Q 3366 2216 3366 1538 
Q 3366 972 3038 528 
Q 2591 -78 1797 -78 
Q 1163 -78 763 262 
Q 363 603 284 1178 
z
" transform="scale(0.015625)"/>
      <path id="Arial-BoldMT-2e" d="M 459 0 
L 459 878 
L 1338 878 
L 1338 0 
L 459 0 
z
" transform="scale(0.015625)"/>
      <path id="Arial-BoldMT-31" d="M 2519 0 
L 1641 0 
L 1641 3309 
Q 1159 2859 506 2644 
L 506 3441 
Q 850 3553 1253 3867 
Q 1656 4181 1806 4600 
L 2519 4600 
L 2519 0 
z
" transform="scale(0.015625)"/>
      <path id="Arial-BoldMT-2605" d="M 800 0 
L 800 4000 
L 4000 4000 
L 4000 0 
L 800 0 
z
M 900 100 
L 3900 100 
L 3900 3900 
L 900 3900 
L 900 100 
z
" transform="scale(0.015625)"/>
     </defs>
     <use xlink:href="#Arial-BoldMT-2d"/>
     <use xlink:href="#Arial-BoldMT-35" transform="translate(33.300781 0)"/>
     <use xlink:href="#Arial-BoldMT-2e" transform="translate(88.916016 0)"/>
     <use xlink:href="#Arial-BoldMT-31" transform="translate(116.699219 0)"/>
     <use xlink:href="#Arial-BoldMT-2605" transform="translate(172.314453 0)"/>
    </g>
   </g>
   <g id="text_14">
    <!-- -2.5★ -->
    <g style="fill: #262626" transform="translate(215.875101 146.353393) scale(0.09 -0.09)">
     <defs>
      <path id="Arial-BoldMT-32" d="M 3238 816 
L 3238 0 
L 159 0 
Q 209 463 459 877 
Q 709 1291 1447 1975 
Q 2041 2528 2175 2725 
Q 2356 2997 2356 3263 
Q 2356 3556 2198 3714 
Q 2041 3872 1763 3872 
Q 1488 3872 1325 3706 
Q 1163 3541 1138 3156 
L 263 3244 
Q 341 3969 753 4284 
Q 1166 4600 1784 4600 
Q 2463 4600 2850 4234 
Q 3238 3869 3238 3325 
Q 3238 3016 3127 2736 
Q 3016 2456 2775 2150 
Q 2616 1947 2200 1565 
Q 1784 1184 1673 1059 
Q 1563 934 1494 816 
L 3238 816 
z
" transform="scale(0.015625)"/>
     </defs>
     <use xlink:href="#Arial-BoldMT-2d"/>
     <use xlink:href="#Arial-BoldMT-32" transform="translate(33.300781 0)"/>
     <use xlink:href="#Arial-BoldMT-2e" transform="translate(88.916016 0)"/>
     <use xlink:href="#Arial-BoldMT-35" transform="translate(116.699219 0)"/>
     <use xlink:href="#Arial-BoldMT-2605" transform="translate(172.314453 0)"/>
    </g>
   </g>
   <g id="text_15">
    <!-- -1.4★ -->
    <g style="fill: #262626" transform="translate(292.940896 194.160969) scale(0.09 -0.09)">
     <defs>
      <path id="Arial-BoldMT-34" d="M 1994 0 
L 1994 922 
L 119 922 
L 119 1691 
L 2106 4600 
L 2844 4600 
L 2844 1694 
L 3413 1694 
L 3413 922 
L 2844 922 
L 2844 0 
L 1994 0 
z
M 1994 1694 
L 1994 3259 
L 941 1694 
L 1994 1694 
z
" transform="scale(0.015625)"/>
     </defs>
     <use xlink:href="#Arial-BoldMT-2d"/>
     <use xlink:href="#Arial-BoldMT-31" transform="translate(33.300781 0)"/>
     <use xlink:href="#Arial-BoldMT-2e" transform="translate(88.916016 0)"/>
     <use xlink:href="#Arial-BoldMT-34" transform="translate(116.699219 0)"/>
     <use xlink:href="#Arial-BoldMT-2605" transform="translate(172.314453 0)"/>
    </g>
   </g>
   <g id="text_16">
    <!-- -1.2 -->
    <g style="fill: #262626" transform="translate(313.381642 241.962216) scale(0.09 -0.09)">
     <defs>
      <path id="ArialMT-2d" d="M 203 1375 
L 203 1941 
L 1931 1941 
L 1931 1375 
L 203 1375 
z
" transform="scale(0.015625)"/>
      <path id="ArialMT-2e" d="M 581 0 
L 581 641 
L 1222 641 
L 1222 0 
L 581 0 
z
" transform="scale(0.015625)"/>
     </defs>
     <use xlink:href="#ArialMT-2d"/>
     <use xlink:href="#ArialMT-31" transform="translate(33.300781 0)"/>
     <use xlink:href="#ArialMT-2e" transform="translate(88.916016 0)"/>
     <use xlink:href="#ArialMT-32" transform="translate(116.699219 0)"/>
    </g>
   </g>
   <g id="text_17">
    <!-- +0.1 -->
    <g style="fill: #262626" transform="translate(464.301712 289.769792) scale(0.09 -0.09)">
     <defs>
      <path id="ArialMT-2b" d="M 1603 741 
L 1603 1997 
L 356 1997 
L 356 2522 
L 1603 2522 
L 1603 3769 
L 2134 3769 
L 2134 2522 
L 3381 2522 
L 3381 1997 
L 2134 1997 
L 2134 741 
L 1603 741 
z
" transform="scale(0.015625)"/>
     </defs>
     <use xlink:href="#ArialMT-2b"/>
     <use xlink:href="#ArialMT-30" transform="translate(58.398438 0)"/>
     <use xlink:href="#ArialMT-2e" transform="translate(114.013672 0)"/>
     <use xlink:href="#ArialMT-31" transform="translate(141.796875 0)"/>
    </g>
   </g>
   <g id="text_18">
    <!-- NO2 -->
    <g style="fill: #262626" transform="translate(247.053087 59.616) scale(0.14 -0.14)">
     <defs>
      <path id="Arial-BoldMT-4e" d="M 475 0 
L 475 4581 
L 1375 4581 
L 3250 1522 
L 3250 4581 
L 4109 4581 
L 4109 0 
L 3181 0 
L 1334 2988 
L 1334 0 
L 475 0 
z
" transform="scale(0.015625)"/>
      <path id="Arial-BoldMT-4f" d="M 278 2263 
Q 278 2963 488 3438 
Q 644 3788 914 4066 
Q 1184 4344 1506 4478 
Q 1934 4659 2494 4659 
Q 3506 4659 4114 4031 
Q 4722 3403 4722 2284 
Q 4722 1175 4119 548 
Q 3516 -78 2506 -78 
Q 1484 -78 881 545 
Q 278 1169 278 2263 
z
M 1231 2294 
Q 1231 1516 1590 1114 
Q 1950 713 2503 713 
Q 3056 713 3411 1111 
Q 3766 1509 3766 2306 
Q 3766 3094 3420 3481 
Q 3075 3869 2503 3869 
Q 1931 3869 1581 3476 
Q 1231 3084 1231 2294 
z
" transform="scale(0.015625)"/>
     </defs>
     <use xlink:href="#Arial-BoldMT-4e"/>
     <use xlink:href="#Arial-BoldMT-4f" transform="translate(72.216797 0)"/>
     <use xlink:href="#Arial-BoldMT-32" transform="translate(150 0)"/>
    </g>
   </g>
  </g>
  <g id="axes_2">
   <g id="patch_12">
    <path d="M 547.030797 318.04 
L 947.025408 318.04 
L 947.025408 65.616 
L 547.030797 65.616 
z
" style="fill: #ffffff"/>
   </g>
   <g id="matplotlib.axis_3">
    <g id="xtick_7">
     <g id="line2d_13">
      <path d="M 567.379716 318.04 
L 567.379716 65.616 
" clip-path="url(#pf7fd45132a)" style="fill: none; stroke: #cccccc; stroke-width: 0.8; stroke-linecap: round"/>
     </g>
     <g id="text_19">
      <!-- −1.5 -->
      <g style="fill: #262626" transform="translate(557.509403 332.197812) scale(0.1 -0.1)">
       <use xlink:href="#ArialMT-2212"/>
       <use xlink:href="#ArialMT-31" transform="translate(58.398438 0)"/>
       <use xlink:href="#ArialMT-2e" transform="translate(114.013672 0)"/>
       <use xlink:href="#ArialMT-35" transform="translate(141.796875 0)"/>
      </g>
     </g>
    </g>
    <g id="xtick_8">
     <g id="line2d_14">
      <path d="M 651.15718 318.04 
L 651.15718 65.616 
" clip-path="url(#pf7fd45132a)" style="fill: none; stroke: #cccccc; stroke-width: 0.8; stroke-linecap: round"/>
     </g>
     <g id="text_20">
      <!-- −1.0 -->
      <g style="fill: #262626" transform="translate(641.286867 332.197812) scale(0.1 -0.1)">
       <use xlink:href="#ArialMT-2212"/>
       <use xlink:href="#ArialMT-31" transform="translate(58.398438 0)"/>
       <use xlink:href="#ArialMT-2e" transform="translate(114.013672 0)"/>
       <use xlink:href="#ArialMT-30" transform="translate(141.796875 0)"/>
      </g>
     </g>
    </g>
    <g id="xtick_9">
     <g id="line2d_15">
      <path d="M 734.934644 318.04 
L 734.934644 65.616 
" clip-path="url(#pf7fd45132a)" style="fill: none; stroke: #cccccc; stroke-width: 0.8; stroke-linecap: round"/>
     </g>
     <g id="text_21">
      <!-- −0.5 -->
      <g style="fill: #262626" transform="translate(725.064332 332.197812) scale(0.1 -0.1)">
       <use xlink:href="#ArialMT-2212"/>
       <use xlink:href="#ArialMT-30" transform="translate(58.398438 0)"/>
       <use xlink:href="#ArialMT-2e" transform="translate(114.013672 0)"/>
       <use xlink:href="#ArialMT-35" transform="translate(141.796875 0)"/>
      </g>
     </g>
    </g>
    <g id="xtick_10">
     <g id="line2d_16">
      <path d="M 818.712108 318.04 
L 818.712108 65.616 
" clip-path="url(#pf7fd45132a)" style="fill: none; stroke: #cccccc; stroke-width: 0.8; stroke-linecap: round"/>
     </g>
     <g id="text_22">
      <!-- 0.0 -->
      <g style="fill: #262626" transform="translate(811.762108 332.197812) scale(0.1 -0.1)">
       <use xlink:href="#ArialMT-30"/>
       <use xlink:href="#ArialMT-2e" transform="translate(55.615234 0)"/>
       <use xlink:href="#ArialMT-30" transform="translate(83.398438 0)"/>
      </g>
     </g>
    </g>
    <g id="xtick_11">
     <g id="line2d_17">
      <path d="M 902.489573 318.04 
L 902.489573 65.616 
" clip-path="url(#pf7fd45132a)" style="fill: none; stroke: #cccccc; stroke-width: 0.8; stroke-linecap: round"/>
     </g>
     <g id="text_23">
      <!-- 0.5 -->
      <g style="fill: #262626" transform="translate(895.539573 332.197812) scale(0.1 -0.1)">
       <use xlink:href="#ArialMT-30"/>
       <use xlink:href="#ArialMT-2e" transform="translate(55.615234 0)"/>
       <use xlink:href="#ArialMT-35" transform="translate(83.398438 0)"/>
      </g>
     </g>
    </g>
    <g id="text_24">
     <!-- Effect (µg/m³) -->
     <g style="fill: #262626" transform="translate(716.733571 345.465) scale(0.1 -0.1)">
      <use xlink:href="#ArialMT-45"/>
      <use xlink:href="#ArialMT-66" transform="translate(66.699219 0)"/>
      <use xlink:href="#ArialMT-66" transform="translate(92.732422 0)"/>
      <use xlink:href="#ArialMT-65" transform="translate(120.515625 0)"/>
      <use xlink:href="#ArialMT-63" transform="translate(176.130859 0)"/>
      <use xlink:href="#ArialMT-74" transform="translate(226.130859 0)"/>
      <use xlink:href="#ArialMT-20" transform="translate(253.914062 0)"/>
      <use xlink:href="#ArialMT-28" transform="translate(281.697266 0)"/>
      <use xlink:href="#ArialMT-b5" transform="translate(314.998047 0)"/>
      <use xlink:href="#ArialMT-67" transform="translate(372.615234 0)"/>
      <use xlink:href="#ArialMT-2f" transform="translate(428.230469 0)"/>
      <use xlink:href="#ArialMT-6d" transform="translate(456.013672 0)"/>
      <use xlink:href="#ArialMT-b3" transform="translate(539.314453 0)"/>
      <use xlink:href="#ArialMT-29" transform="translate(572.615234 0)"/>
     </g>
    </g>
   </g>
   <g id="matplotlib.axis_4">
    <g id="ytick_6">
     <g id="line2d_18">
      <path d="M 547.030797 96.212848 
L 947.025408 96.212848 
" clip-path="url(#pf7fd45132a)" style="fill: none; stroke: #cccccc; stroke-width: 0.8; stroke-linecap: round"/>
     </g>
     <g id="text_25">
      <!-- Diesel ban -->
      <g style="fill: #262626" transform="translate(492.782359 99.791755) scale(0.1 -0.1)">
       <use xlink:href="#ArialMT-44"/>
       <use xlink:href="#ArialMT-69" transform="translate(72.216797 0)"/>
       <use xlink:href="#ArialMT-65" transform="translate(94.433594 0)"/>
       <use xlink:href="#ArialMT-73" transform="translate(150.048828 0)"/>
       <use xlink:href="#ArialMT-65" transform="translate(200.048828 0)"/>
       <use xlink:href="#ArialMT-6c" transform="translate(255.664062 0)"/>
       <use xlink:href="#ArialMT-20" transform="translate(277.880859 0)"/>
       <use xlink:href="#ArialMT-62" transform="translate(305.664062 0)"/>
       <use xlink:href="#ArialMT-61" transform="translate(361.279297 0)"/>
       <use xlink:href="#ArialMT-6e" transform="translate(416.894531 0)"/>
      </g>
     </g>
    </g>
    <g id="ytick_7">
     <g id="line2d_19">
      <path d="M 547.030797 144.020424 
L 947.025408 144.020424 
" clip-path="url(#pf7fd45132a)" style="fill: none; stroke: #cccccc; stroke-width: 0.8; stroke-linecap: round"/>
     </g>
     <g id="text_26">
      <!-- D Ticket -->
      <g style="fill: #262626" transform="translate(503.912047 147.59933) scale(0.1 -0.1)">
       <use xlink:href="#ArialMT-44"/>
       <use xlink:href="#ArialMT-20" transform="translate(72.216797 0)"/>
       <use xlink:href="#ArialMT-54" transform="translate(98.25 0)"/>
       <use xlink:href="#ArialMT-69" transform="translate(155.583984 0)"/>
       <use xlink:href="#ArialMT-63" transform="translate(177.800781 0)"/>
       <use xlink:href="#ArialMT-6b" transform="translate(227.800781 0)"/>
       <use xlink:href="#ArialMT-65" transform="translate(277.800781 0)"/>
       <use xlink:href="#ArialMT-74" transform="translate(333.416016 0)"/>
      </g>
     </g>
    </g>
    <g id="ytick_8">
     <g id="line2d_20">
      <path d="M 547.030797 191.828 
L 947.025408 191.828 
" clip-path="url(#pf7fd45132a)" style="fill: none; stroke: #cccccc; stroke-width: 0.8; stroke-linecap: round"/>
     </g>
     <g id="text_27">
      <!-- 9e Ticket -->
      <g style="fill: #262626" transform="translate(500.012047 195.406906) scale(0.1 -0.1)">
       <use xlink:href="#ArialMT-39"/>
       <use xlink:href="#ArialMT-65" transform="translate(55.615234 0)"/>
       <use xlink:href="#ArialMT-20" transform="translate(111.230469 0)"/>
       <use xlink:href="#ArialMT-54" transform="translate(137.263672 0)"/>
       <use xlink:href="#ArialMT-69" transform="translate(194.597656 0)"/>
       <use xlink:href="#ArialMT-63" transform="translate(216.814453 0)"/>
       <use xlink:href="#ArialMT-6b" transform="translate(266.814453 0)"/>
       <use xlink:href="#ArialMT-65" transform="translate(316.814453 0)"/>
       <use xlink:href="#ArialMT-74" transform="translate(372.429688 0)"/>
      </g>
     </g>
    </g>
    <g id="ytick_9">
     <g id="line2d_21">
      <path d="M 547.030797 239.635576 
L 947.025408 239.635576 
" clip-path="url(#pf7fd45132a)" style="fill: none; stroke: #cccccc; stroke-width: 0.8; stroke-linecap: round"/>
     </g>
     <g id="text_28">
      <!-- COVID 1 -->
      <g style="fill: #262626" transform="translate(500.021422 243.214482) scale(0.1 -0.1)">
       <use xlink:href="#ArialMT-43"/>
       <use xlink:href="#ArialMT-4f" transform="translate(72.216797 0)"/>
       <use xlink:href="#ArialMT-56" transform="translate(150 0)"/>
       <use xlink:href="#ArialMT-49" transform="translate(216.699219 0)"/>
       <use xlink:href="#ArialMT-44" transform="translate(244.482422 0)"/>
       <use xlink:href="#ArialMT-20" transform="translate(316.699219 0)"/>
       <use xlink:href="#ArialMT-31" transform="translate(344.482422 0)"/>
      </g>
     </g>
    </g>
    <g id="ytick_10">
     <g id="line2d_22">
      <path d="M 547.030797 287.443152 
L 947.025408 287.443152 
" clip-path="url(#pf7fd45132a)" style="fill: none; stroke: #cccccc; stroke-width: 0.8; stroke-linecap: round"/>
     </g>
     <g id="text_29">
      <!-- COVID 2 -->
      <g style="fill: #262626" transform="translate(500.021422 291.022058) scale(0.1 -0.1)">
       <use xlink:href="#ArialMT-43"/>
       <use xlink:href="#ArialMT-4f" transform="translate(72.216797 0)"/>
       <use xlink:href="#ArialMT-56" transform="translate(150 0)"/>
       <use xlink:href="#ArialMT-49" transform="translate(216.699219 0)"/>
       <use xlink:href="#ArialMT-44" transform="translate(244.482422 0)"/>
       <use xlink:href="#ArialMT-20" transform="translate(316.699219 0)"/>
       <use xlink:href="#ArialMT-32" transform="translate(344.482422 0)"/>
      </g>
     </g>
    </g>
   </g>
   <g id="patch_13">
    <path d="M 818.712108 77.089818 
L 565.21237 77.089818 
L 565.21237 115.335879 
L 818.712108 115.335879 
z
" clip-path="url(#pf7fd45132a)" style="fill: #3498db; stroke: #ffffff; stroke-linejoin: miter"/>
   </g>
   <g id="patch_14">
    <path d="M 818.712108 124.897394 
L 928.843835 124.897394 
L 928.843835 163.143455 
L 818.712108 163.143455 
z
" clip-path="url(#pf7fd45132a)" style="fill: #cccccc; stroke: #ffffff; stroke-linejoin: miter"/>
   </g>
   <g id="patch_15">
    <path d="M 818.712108 172.70497 
L 737.36942 172.70497 
L 737.36942 210.95103 
L 818.712108 210.95103 
z
" clip-path="url(#pf7fd45132a)" style="fill: #cccccc; stroke: #ffffff; stroke-linejoin: miter"/>
   </g>
   <g id="patch_16">
    <path d="M 818.712108 220.512545 
L 838.967731 220.512545 
L 838.967731 258.758606 
L 818.712108 258.758606 
z
" clip-path="url(#pf7fd45132a)" style="fill: #cccccc; stroke: #ffffff; stroke-linejoin: miter"/>
   </g>
   <g id="patch_17">
    <path d="M 818.712108 268.320121 
L 812.527204 268.320121 
L 812.527204 306.566182 
L 818.712108 306.566182 
z
" clip-path="url(#pf7fd45132a)" style="fill: #cccccc; stroke: #ffffff; stroke-linejoin: miter"/>
   </g>
   <g id="line2d_23">
    <path d="M 818.712108 318.04 
L 818.712108 65.616 
" clip-path="url(#pf7fd45132a)" style="fill: none; stroke: #000000; stroke-width: 0.8; stroke-linecap: round"/>
   </g>
   <g id="patch_18">
    <path d="M 547.030797 318.04 
L 547.030797 65.616 
" style="fill: none; stroke: #cccccc; stroke-width: 0.8; stroke-linejoin: miter; stroke-linecap: square"/>
   </g>
   <g id="patch_19">
    <path d="M 947.025408 318.04 
L 947.025408 65.616 
" style="fill: none; stroke: #cccccc; stroke-width: 0.8; stroke-linejoin: miter; stroke-linecap: square"/>
   </g>
   <g id="patch_20">
    <path d="M 547.030797 318.04 
L 947.025408 318.04 
" style="fill: none; stroke: #cccccc; stroke-width: 0.8; stroke-linejoin: miter; stroke-linecap: square"/>
   </g>
   <g id="patch_21">
    <path d="M 547.030797 65.616 
L 947.025408 65.616 
" style="fill: none; stroke: #cccccc; stroke-width: 0.8; stroke-linejoin: miter; stroke-linecap: square"/>
   </g>
   <g id="text_30">
    <!-- -1.5★ -->
    <g style="fill: #262626" transform="translate(492.689173 98.545817) scale(0.09 -0.09)">
     <use xlink:href="#Arial-BoldMT-2d"/>
     <use xlink:href="#Arial-BoldMT-31" transform="translate(33.300781 0)"/>
     <use xlink:href="#Arial-BoldMT-2e" transform="translate(88.916016 0)"/>
     <use xlink:href="#Arial-BoldMT-35" transform="translate(116.699219 0)"/>
     <use xlink:href="#Arial-BoldMT-2605" transform="translate(172.314453 0)"/>
    </g>
   </g>
   <g id="text_31">
    <!-- +0.7 -->
    <g style="fill: #262626" transform="translate(979.110314 146.347065) scale(0.09 -0.09)">
     <defs>
      <path id="ArialMT-37" d="M 303 3981 
L 303 4522 
L 3269 4522 
L 3269 4084 
Q 2831 3619 2401 2847 
Q 1972 2075 1738 1259 
Q 1569 684 1522 0 
L 944 0 
Q 953 541 1156 1306 
Q 1359 2072 1739 2783 
Q 2119 3494 2547 3981 
L 303 3981 
z
" transform="scale(0.015625)"/>
     </defs>
     <use xlink:href="#ArialMT-2b"/>
     <use xlink:href="#ArialMT-30" transform="translate(58.398438 0)"/>
     <use xlink:href="#ArialMT-2e" transform="translate(114.013672 0)"/>
     <use xlink:href="#ArialMT-37" transform="translate(141.796875 0)"/>
    </g>
   </g>
   <g id="text_32">
    <!-- -0.5 -->
    <g style="fill: #262626" transform="translate(671.596223 194.154641) scale(0.09 -0.09)">
     <use xlink:href="#ArialMT-2d"/>
     <use xlink:href="#ArialMT-30" transform="translate(33.300781 0)"/>
     <use xlink:href="#ArialMT-2e" transform="translate(88.916016 0)"/>
     <use xlink:href="#ArialMT-35" transform="translate(116.699219 0)"/>
    </g>
   </g>
   <g id="text_33">
    <!-- +0.1 -->
    <g style="fill: #262626" transform="translate(889.23421 241.962216) scale(0.09 -0.09)">
     <use xlink:href="#ArialMT-2b"/>
     <use xlink:href="#ArialMT-30" transform="translate(58.398438 0)"/>
     <use xlink:href="#ArialMT-2e" transform="translate(114.013672 0)"/>
     <use xlink:href="#ArialMT-31" transform="translate(141.796875 0)"/>
    </g>
   </g>
   <g id="text_34">
    <!-- -0.0 -->
    <g style="fill: #262626" transform="translate(746.754007 289.769792) scale(0.09 -0.09)">
     <use xlink:href="#ArialMT-2d"/>
     <use xlink:href="#ArialMT-30" transform="translate(33.300781 0)"/>
     <use xlink:href="#ArialMT-2e" transform="translate(88.916016 0)"/>
     <use xlink:href="#ArialMT-30" transform="translate(116.699219 0)"/>
    </g>
   </g>
   <g id="text_35">
    <!-- PM10 -->
    <g style="fill: #262626" transform="translate(728.74279 59.616) scale(0.14 -0.14)">
     <defs>
      <path id="Arial-BoldMT-50" d="M 466 0 
L 466 4581 
L 1950 4581 
Q 2794 4581 3050 4513 
Q 3444 4409 3709 4064 
Q 3975 3719 3975 3172 
Q 3975 2750 3822 2462 
Q 3669 2175 3433 2011 
Q 3197 1847 2953 1794 
Q 2622 1728 1994 1728 
L 1391 1728 
L 1391 0 
L 466 0 
z
M 1391 3806 
L 1391 2506 
L 1897 2506 
Q 2444 2506 2628 2578 
Q 2813 2650 2917 2803 
Q 3022 2956 3022 3159 
Q 3022 3409 2875 3571 
Q 2728 3734 2503 3775 
Q 2338 3806 1838 3806 
L 1391 3806 
z
" transform="scale(0.015625)"/>
      <path id="Arial-BoldMT-4d" d="M 453 0 
L 453 4581 
L 1838 4581 
L 2669 1456 
L 3491 4581 
L 4878 4581 
L 4878 0 
L 4019 0 
L 4019 3606 
L 3109 0 
L 2219 0 
L 1313 3606 
L 1313 0 
L 453 0 
z
" transform="scale(0.015625)"/>
      <path id="Arial-BoldMT-30" d="M 1756 4600 
Q 2422 4600 2797 4125 
Q 3244 3563 3244 2259 
Q 3244 959 2794 391 
Q 2422 -78 1756 -78 
Q 1088 -78 678 436 
Q 269 950 269 2269 
Q 269 3563 719 4131 
Q 1091 4600 1756 4600 
z
M 1756 3872 
Q 1597 3872 1472 3770 
Q 1347 3669 1278 3406 
Q 1188 3066 1188 2259 
Q 1188 1453 1269 1151 
Q 1350 850 1473 750 
Q 1597 650 1756 650 
Q 1916 650 2041 751 
Q 2166 853 2234 1116 
Q 2325 1453 2325 2259 
Q 2325 3066 2244 3367 
Q 2163 3669 2039 3770 
Q 1916 3872 1756 3872 
z
" transform="scale(0.015625)"/>
     </defs>
     <use xlink:href="#Arial-BoldMT-50"/>
     <use xlink:href="#Arial-BoldMT-4d" transform="translate(66.699219 0)"/>
     <use xlink:href="#Arial-BoldMT-31" transform="translate(150 0)"/>
     <use xlink:href="#Arial-BoldMT-30" transform="translate(205.615234 0)"/>
    </g>
   </g>
  </g>
  <g id="text_36">
   <!-- Policy Intervention Effects on Daily Pollution -->
   <g style="fill: #262626" transform="translate(361.903516 16.663594) scale(0.13 -0.13)">
    <defs>
     <path id="Arial-BoldMT-6f" d="M 256 1706 
Q 256 2144 472 2553 
Q 688 2963 1083 3178 
Q 1478 3394 1966 3394 
Q 2719 3394 3200 2905 
Q 3681 2416 3681 1669 
Q 3681 916 3195 420 
Q 2709 -75 1972 -75 
Q 1516 -75 1102 131 
Q 688 338 472 736 
Q 256 1134 256 1706 
z
M 1156 1659 
Q 1156 1166 1390 903 
Q 1625 641 1969 641 
Q 2313 641 2545 903 
Q 2778 1166 2778 1666 
Q 2778 2153 2545 2415 
Q 2313 2678 1969 2678 
Q 1625 2678 1390 2415 
Q 1156 2153 1156 1659 
z
" transform="scale(0.015625)"/>
     <path id="Arial-BoldMT-6c" d="M 459 0 
L 459 4581 
L 1338 4581 
L 1338 0 
L 459 0 
z
" transform="scale(0.015625)"/>
     <path id="Arial-BoldMT-69" d="M 459 3769 
L 459 4581 
L 1338 4581 
L 1338 3769 
L 459 3769 
z
M 459 0 
L 459 3319 
L 1338 3319 
L 1338 0 
L 459 0 
z
" transform="scale(0.015625)"/>
     <path id="Arial-BoldMT-63" d="M 3353 2338 
L 2488 2181 
Q 2444 2441 2289 2572 
Q 2134 2703 1888 2703 
Q 1559 2703 1364 2476 
Q 1169 2250 1169 1719 
Q 1169 1128 1367 884 
Q 1566 641 1900 641 
Q 2150 641 2309 783 
Q 2469 925 2534 1272 
L 3397 1125 
Q 3263 531 2881 228 
Q 2500 -75 1859 -75 
Q 1131 -75 698 384 
Q 266 844 266 1656 
Q 266 2478 700 2936 
Q 1134 3394 1875 3394 
Q 2481 3394 2839 3133 
Q 3197 2872 3353 2338 
z
" transform="scale(0.015625)"/>
     <path id="Arial-BoldMT-79" d="M 44 3319 
L 978 3319 
L 1772 963 
L 2547 3319 
L 3456 3319 
L 2284 125 
L 2075 -453 
Q 1959 -744 1854 -897 
Q 1750 -1050 1614 -1145 
Q 1478 -1241 1279 -1294 
Q 1081 -1347 831 -1347 
Q 578 -1347 334 -1294 
L 256 -606 
Q 463 -647 628 -647 
Q 934 -647 1081 -467 
Q 1228 -288 1306 -9 
L 44 3319 
z
" transform="scale(0.015625)"/>
     <path id="Arial-BoldMT-20" transform="scale(0.015625)"/>
     <path id="Arial-BoldMT-49" d="M 438 0 
L 438 4581 
L 1363 4581 
L 1363 0 
L 438 0 
z
" transform="scale(0.015625)"/>
     <path id="Arial-BoldMT-6e" d="M 3478 0 
L 2600 0 
L 2600 1694 
Q 2600 2231 2544 2389 
Q 2488 2547 2361 2634 
Q 2234 2722 2056 2722 
Q 1828 2722 1647 2597 
Q 1466 2472 1398 2265 
Q 1331 2059 1331 1503 
L 1331 0 
L 453 0 
L 453 3319 
L 1269 3319 
L 1269 2831 
Q 1703 3394 2363 3394 
Q 2653 3394 2893 3289 
Q 3134 3184 3257 3021 
Q 3381 2859 3429 2653 
Q 3478 2447 3478 2063 
L 3478 0 
z
" transform="scale(0.015625)"/>
     <path id="Arial-BoldMT-74" d="M 1981 3319 
L 1981 2619 
L 1381 2619 
L 1381 1281 
Q 1381 875 1398 808 
Q 1416 741 1477 697 
Q 1538 653 1625 653 
Q 1747 653 1978 738 
L 2053 56 
Q 1747 -75 1359 -75 
Q 1122 -75 931 4 
Q 741 84 652 211 
Q 563 338 528 553 
Q 500 706 500 1172 
L 500 2619 
L 97 2619 
L 97 3319 
L 500 3319 
L 500 3978 
L 1381 4491 
L 1381 3319 
L 1981 3319 
z
" transform="scale(0.015625)"/>
     <path id="Arial-BoldMT-65" d="M 2381 1056 
L 3256 909 
Q 3088 428 2723 176 
Q 2359 -75 1813 -75 
Q 947 -75 531 491 
Q 203 944 203 1634 
Q 203 2459 634 2926 
Q 1066 3394 1725 3394 
Q 2466 3394 2894 2905 
Q 3322 2416 3303 1406 
L 1103 1406 
Q 1113 1016 1316 798 
Q 1519 581 1822 581 
Q 2028 581 2168 693 
Q 2309 806 2381 1056 
z
M 2431 1944 
Q 2422 2325 2234 2523 
Q 2047 2722 1778 2722 
Q 1491 2722 1303 2513 
Q 1116 2303 1119 1944 
L 2431 1944 
z
" transform="scale(0.015625)"/>
     <path id="Arial-BoldMT-72" d="M 1300 0 
L 422 0 
L 422 3319 
L 1238 3319 
L 1238 2847 
Q 1447 3181 1614 3287 
Q 1781 3394 1994 3394 
Q 2294 3394 2572 3228 
L 2300 2463 
Q 2078 2606 1888 2606 
Q 1703 2606 1575 2504 
Q 1447 2403 1373 2137 
Q 1300 1872 1300 1025 
L 1300 0 
z
" transform="scale(0.015625)"/>
     <path id="Arial-BoldMT-76" d="M 1372 0 
L 34 3319 
L 956 3319 
L 1581 1625 
L 1763 1059 
Q 1834 1275 1853 1344 
Q 1897 1484 1947 1625 
L 2578 3319 
L 3481 3319 
L 2163 0 
L 1372 0 
z
" transform="scale(0.015625)"/>
     <path id="Arial-BoldMT-45" d="M 466 0 
L 466 4581 
L 3863 4581 
L 3863 3806 
L 1391 3806 
L 1391 2791 
L 3691 2791 
L 3691 2019 
L 1391 2019 
L 1391 772 
L 3950 772 
L 3950 0 
L 466 0 
z
" transform="scale(0.015625)"/>
     <path id="Arial-BoldMT-66" d="M 75 3319 
L 563 3319 
L 563 3569 
Q 563 3988 652 4194 
Q 741 4400 980 4529 
Q 1219 4659 1584 4659 
Q 1959 4659 2319 4547 
L 2200 3934 
Q 1991 3984 1797 3984 
Q 1606 3984 1523 3895 
Q 1441 3806 1441 3553 
L 1441 3319 
L 2097 3319 
L 2097 2628 
L 1441 2628 
L 1441 0 
L 563 0 
L 563 2628 
L 75 2628 
L 75 3319 
z
" transform="scale(0.015625)"/>
     <path id="Arial-BoldMT-73" d="M 150 947 
L 1031 1081 
Q 1088 825 1259 692 
Q 1431 559 1741 559 
Q 2081 559 2253 684 
Q 2369 772 2369 919 
Q 2369 1019 2306 1084 
Q 2241 1147 2013 1200 
Q 950 1434 666 1628 
Q 272 1897 272 2375 
Q 272 2806 612 3100 
Q 953 3394 1669 3394 
Q 2350 3394 2681 3172 
Q 3013 2950 3138 2516 
L 2309 2363 
Q 2256 2556 2107 2659 
Q 1959 2763 1684 2763 
Q 1338 2763 1188 2666 
Q 1088 2597 1088 2488 
Q 1088 2394 1175 2328 
Q 1294 2241 1995 2081 
Q 2697 1922 2975 1691 
Q 3250 1456 3250 1038 
Q 3250 581 2869 253 
Q 2488 -75 1741 -75 
Q 1063 -75 667 200 
Q 272 475 150 947 
z
" transform="scale(0.015625)"/>
     <path id="Arial-BoldMT-44" d="M 463 4581 
L 2153 4581 
Q 2725 4581 3025 4494 
Q 3428 4375 3715 4072 
Q 4003 3769 4153 3330 
Q 4303 2891 4303 2247 
Q 4303 1681 4163 1272 
Q 3991 772 3672 463 
Q 3431 228 3022 97 
Q 2716 0 2203 0 
L 463 0 
L 463 4581 
z
M 1388 3806 
L 1388 772 
L 2078 772 
Q 2466 772 2638 816 
Q 2863 872 3011 1006 
Q 3159 1141 3253 1448 
Q 3347 1756 3347 2288 
Q 3347 2819 3253 3103 
Q 3159 3388 2990 3547 
Q 2822 3706 2563 3763 
Q 2369 3806 1803 3806 
L 1388 3806 
z
" transform="scale(0.015625)"/>
     <path id="Arial-BoldMT-61" d="M 1116 2306 
L 319 2450 
Q 453 2931 781 3162 
Q 1109 3394 1756 3394 
Q 2344 3394 2631 3255 
Q 2919 3116 3036 2902 
Q 3153 2688 3153 2116 
L 3144 1091 
Q 3144 653 3186 445 
Q 3228 238 3344 0 
L 2475 0 
Q 2441 88 2391 259 
Q 2369 338 2359 363 
Q 2134 144 1878 34 
Q 1622 -75 1331 -75 
Q 819 -75 523 203 
Q 228 481 228 906 
Q 228 1188 362 1408 
Q 497 1628 739 1745 
Q 981 1863 1438 1950 
Q 2053 2066 2291 2166 
L 2291 2253 
Q 2291 2506 2166 2614 
Q 2041 2722 1694 2722 
Q 1459 2722 1328 2630 
Q 1197 2538 1116 2306 
z
M 2291 1594 
Q 2122 1538 1756 1459 
Q 1391 1381 1278 1306 
Q 1106 1184 1106 997 
Q 1106 813 1243 678 
Q 1381 544 1594 544 
Q 1831 544 2047 700 
Q 2206 819 2256 991 
Q 2291 1103 2291 1419 
L 2291 1594 
z
" transform="scale(0.015625)"/>
     <path id="Arial-BoldMT-75" d="M 2644 0 
L 2644 497 
Q 2463 231 2167 78 
Q 1872 -75 1544 -75 
Q 1209 -75 943 72 
Q 678 219 559 484 
Q 441 750 441 1219 
L 441 3319 
L 1319 3319 
L 1319 1794 
Q 1319 1094 1367 936 
Q 1416 778 1544 686 
Q 1672 594 1869 594 
Q 2094 594 2272 717 
Q 2450 841 2515 1023 
Q 2581 1206 2581 1919 
L 2581 3319 
L 3459 3319 
L 3459 0 
L 2644 0 
z
" transform="scale(0.015625)"/>
    </defs>
    <use xlink:href="#Arial-BoldMT-50"/>
    <use xlink:href="#Arial-BoldMT-6f" transform="translate(66.699219 0)"/>
    <use xlink:href="#Arial-BoldMT-6c" transform="translate(127.783203 0)"/>
    <use xlink:href="#Arial-BoldMT-69" transform="translate(155.566406 0)"/>
    <use xlink:href="#Arial-BoldMT-63" transform="translate(183.349609 0)"/>
    <use xlink:href="#Arial-BoldMT-79" transform="translate(238.964844 0)"/>
    <use xlink:href="#Arial-BoldMT-20" transform="translate(294.580078 0)"/>
    <use xlink:href="#Arial-BoldMT-49" transform="translate(322.363281 0)"/>
    <use xlink:href="#Arial-BoldMT-6e" transform="translate(350.146484 0)"/>
    <use xlink:href="#Arial-BoldMT-74" transform="translate(411.230469 0)"/>
    <use xlink:href="#Arial-BoldMT-65" transform="translate(444.53125 0)"/>
    <use xlink:href="#Arial-BoldMT-72" transform="translate(500.146484 0)"/>
    <use xlink:href="#Arial-BoldMT-76" transform="translate(539.0625 0)"/>
    <use xlink:href="#Arial-BoldMT-65" transform="translate(594.677734 0)"/>
    <use xlink:href="#Arial-BoldMT-6e" transform="translate(650.292969 0)"/>
    <use xlink:href="#Arial-BoldMT-74" transform="translate(711.376953 0)"/>
    <use xlink:href="#Arial-BoldMT-69" transform="translate(744.677734 0)"/>
    <use xlink:href="#Arial-BoldMT-6f" transform="translate(772.460938 0)"/>
    <use xlink:href="#Arial-BoldMT-6e" transform="translate(833.544922 0)"/>
    <use xlink:href="#Arial-BoldMT-20" transform="translate(894.628906 0)"/>
    <use xlink:href="#Arial-BoldMT-45" transform="translate(922.412109 0)"/>
    <use xlink:href="#Arial-BoldMT-66" transform="translate(989.111328 0)"/>
    <use xlink:href="#Arial-BoldMT-66" transform="translate(1022.412109 0)"/>
    <use xlink:href="#Arial-BoldMT-65" transform="translate(1055.712891 0)"/>
    <use xlink:href="#Arial-BoldMT-63" transform="translate(1111.328125 0)"/>
    <use xlink:href="#Arial-BoldMT-74" transform="translate(1166.943359 0)"/>
    <use xlink:href="#Arial-BoldMT-73" transform="translate(1200.244141 0)"/>
    <use xlink:href="#Arial-BoldMT-20" transform="translate(1255.859375 0)"/>
    <use xlink:href="#Arial-BoldMT-6f" transform="translate(1283.642578 0)"/>
    <use xlink:href="#Arial-BoldMT-6e" transform="translate(1344.726562 0)"/>
    <use xlink:href="#Arial-BoldMT-20" transform="translate(1405.810547 0)"/>
    <use xlink:href="#Arial-BoldMT-44" transform="translate(1433.59375 0)"/>
    <use xlink:href="#Arial-BoldMT-61" transform="translate(1505.810547 0)"/>
    <use xlink:href="#Arial-BoldMT-69" transform="translate(1561.425781 0)"/>
    <use xlink:href="#Arial-BoldMT-6c" transform="translate(1589.208984 0)"/>
    <use xlink:href="#Arial-BoldMT-79" transform="translate(1616.992188 0)"/>
    <use xlink:href="#Arial-BoldMT-20" transform="translate(1672.607422 0)"/>
    <use xlink:href="#Arial-BoldMT-50" transform="translate(1700.390625 0)"/>
    <use xlink:href="#Arial-BoldMT-6f" transform="translate(1767.089844 0)"/>
    <use xlink:href="#Arial-BoldMT-6c" transform="translate(1828.173828 0)"/>
    <use xlink:href="#Arial-BoldMT-6c" transform="translate(1855.957031 0)"/>
    <use xlink:href="#Arial-BoldMT-75" transform="translate(1883.740234 0)"/>
    <use xlink:href="#Arial-BoldMT-74" transform="translate(1944.824219 0)"/>
    <use xlink:href="#Arial-BoldMT-69" transform="translate(1978.125 0)"/>
    <use xlink:href="#Arial-BoldMT-6f" transform="translate(2005.908203 0)"/>
    <use xlink:href="#Arial-BoldMT-6e" transform="translate(2066.992188 0)"/>
   </g>
   <!-- (★ = significant after BY correction, controlling for weather + AR + seasonality) -->
   <g style="fill: #262626" transform="translate(257.509453 30.756) scale(0.13 -0.13)">
    <defs>
     <path id="Arial-BoldMT-28" d="M 1916 -1347 
L 1313 -1347 
Q 834 -625 584 153 
Q 334 931 334 1659 
Q 334 2563 644 3369 
Q 913 4069 1325 4659 
L 1925 4659 
Q 1497 3713 1336 3048 
Q 1175 2384 1175 1641 
Q 1175 1128 1270 590 
Q 1366 53 1531 -431 
Q 1641 -750 1916 -1347 
z
" transform="scale(0.015625)"/>
     <path id="Arial-BoldMT-3d" d="M 266 2550 
L 266 3356 
L 3469 3356 
L 3469 2550 
L 266 2550 
z
M 266 1163 
L 266 1972 
L 3469 1972 
L 3469 1163 
L 266 1163 
z
" transform="scale(0.015625)"/>
     <path id="Arial-BoldMT-67" d="M 378 -219 
L 1381 -341 
Q 1406 -516 1497 -581 
Q 1622 -675 1891 -675 
Q 2234 -675 2406 -572 
Q 2522 -503 2581 -350 
Q 2622 -241 2622 53 
L 2622 538 
Q 2228 0 1628 0 
Q 959 0 569 566 
Q 263 1013 263 1678 
Q 263 2513 664 2953 
Q 1066 3394 1663 3394 
Q 2278 3394 2678 2853 
L 2678 3319 
L 3500 3319 
L 3500 341 
Q 3500 -247 3403 -537 
Q 3306 -828 3131 -993 
Q 2956 -1159 2664 -1253 
Q 2372 -1347 1925 -1347 
Q 1081 -1347 728 -1058 
Q 375 -769 375 -325 
Q 375 -281 378 -219 
z
M 1163 1728 
Q 1163 1200 1367 954 
Q 1572 709 1872 709 
Q 2194 709 2416 961 
Q 2638 1213 2638 1706 
Q 2638 2222 2425 2472 
Q 2213 2722 1888 2722 
Q 1572 2722 1367 2476 
Q 1163 2231 1163 1728 
z
" transform="scale(0.015625)"/>
     <path id="Arial-BoldMT-42" d="M 469 4581 
L 2300 4581 
Q 2844 4581 3111 4536 
Q 3378 4491 3589 4347 
Q 3800 4203 3940 3964 
Q 4081 3725 4081 3428 
Q 4081 3106 3907 2837 
Q 3734 2569 3438 2434 
Q 3856 2313 4081 2019 
Q 4306 1725 4306 1328 
Q 4306 1016 4161 720 
Q 4016 425 3764 248 
Q 3513 72 3144 31 
Q 2913 6 2028 0 
L 469 0 
L 469 4581 
z
M 1394 3819 
L 1394 2759 
L 2000 2759 
Q 2541 2759 2672 2775 
Q 2909 2803 3045 2939 
Q 3181 3075 3181 3297 
Q 3181 3509 3064 3642 
Q 2947 3775 2716 3803 
Q 2578 3819 1925 3819 
L 1394 3819 
z
M 1394 1997 
L 1394 772 
L 2250 772 
Q 2750 772 2884 800 
Q 3091 838 3220 983 
Q 3350 1128 3350 1372 
Q 3350 1578 3250 1722 
Q 3150 1866 2961 1931 
Q 2772 1997 2141 1997 
L 1394 1997 
z
" transform="scale(0.015625)"/>
     <path id="Arial-BoldMT-59" d="M 1669 0 
L 1669 1928 
L -9 4581 
L 1075 4581 
L 2153 2769 
L 3209 4581 
L 4275 4581 
L 2591 1922 
L 2591 0 
L 1669 0 
z
" transform="scale(0.015625)"/>
     <path id="Arial-BoldMT-2c" d="M 438 878 
L 1316 878 
L 1316 250 
Q 1316 -131 1250 -351 
Q 1184 -572 1001 -747 
Q 819 -922 538 -1022 
L 366 -659 
Q 631 -572 743 -419 
Q 856 -266 863 0 
L 438 0 
L 438 878 
z
" transform="scale(0.015625)"/>
     <path id="Arial-BoldMT-77" d="M 1078 0 
L 28 3319 
L 881 3319 
L 1503 1144 
L 2075 3319 
L 2922 3319 
L 3475 1144 
L 4109 3319 
L 4975 3319 
L 3909 0 
L 3066 0 
L 2494 2134 
L 1931 0 
L 1078 0 
z
" transform="scale(0.015625)"/>
     <path id="Arial-BoldMT-68" d="M 1334 4581 
L 1334 2897 
Q 1759 3394 2350 3394 
Q 2653 3394 2897 3281 
Q 3141 3169 3264 2994 
Q 3388 2819 3433 2606 
Q 3478 2394 3478 1947 
L 3478 0 
L 2600 0 
L 2600 1753 
Q 2600 2275 2550 2415 
Q 2500 2556 2373 2639 
Q 2247 2722 2056 2722 
Q 1838 2722 1666 2615 
Q 1494 2509 1414 2295 
Q 1334 2081 1334 1663 
L 1334 0 
L 456 0 
L 456 4581 
L 1334 4581 
z
" transform="scale(0.015625)"/>
     <path id="Arial-BoldMT-2b" d="M 1466 659 
L 1466 1850 
L 266 1850 
L 266 2672 
L 1466 2672 
L 1466 3863 
L 2266 3863 
L 2266 2672 
L 3469 2672 
L 3469 1850 
L 2266 1850 
L 2266 659 
L 1466 659 
z
" transform="scale(0.015625)"/>
     <path id="Arial-BoldMT-41" d="M 4597 0 
L 3591 0 
L 3191 1041 
L 1359 1041 
L 981 0 
L 0 0 
L 1784 4581 
L 2763 4581 
L 4597 0 
z
M 2894 1813 
L 2263 3513 
L 1644 1813 
L 2894 1813 
z
" transform="scale(0.015625)"/>
     <path id="Arial-BoldMT-52" d="M 469 0 
L 469 4581 
L 2416 4581 
Q 3150 4581 3483 4457 
Q 3816 4334 4016 4018 
Q 4216 3703 4216 3297 
Q 4216 2781 3912 2445 
Q 3609 2109 3006 2022 
Q 3306 1847 3501 1637 
Q 3697 1428 4028 894 
L 4588 0 
L 3481 0 
L 2813 997 
Q 2456 1531 2325 1670 
Q 2194 1809 2047 1861 
Q 1900 1913 1581 1913 
L 1394 1913 
L 1394 0 
L 469 0 
z
M 1394 2644 
L 2078 2644 
Q 2744 2644 2909 2700 
Q 3075 2756 3169 2893 
Q 3263 3031 3263 3238 
Q 3263 3469 3139 3611 
Q 3016 3753 2791 3791 
Q 2678 3806 2116 3806 
L 1394 3806 
L 1394 2644 
z
" transform="scale(0.015625)"/>
     <path id="Arial-BoldMT-29" d="M 216 -1347 
Q 475 -791 581 -494 
Q 688 -197 778 190 
Q 869 578 912 926 
Q 956 1275 956 1641 
Q 956 2384 797 3048 
Q 638 3713 209 4659 
L 806 4659 
Q 1278 3988 1539 3234 
Q 1800 2481 1800 1706 
Q 1800 1053 1594 306 
Q 1359 -531 822 -1347 
L 216 -1347 
z
" transform="scale(0.015625)"/>
    </defs>
    <use xlink:href="#Arial-BoldMT-28"/>
    <use xlink:href="#Arial-BoldMT-2605" transform="translate(33.300781 0)"/>
    <use xlink:href="#Arial-BoldMT-20" transform="translate(108.300781 0)"/>
    <use xlink:href="#Arial-BoldMT-3d" transform="translate(136.083984 0)"/>
    <use xlink:href="#Arial-BoldMT-20" transform="translate(194.482422 0)"/>
    <use xlink:href="#Arial-BoldMT-73" transform="translate(222.265625 0)"/>
    <use xlink:href="#Arial-BoldMT-69" transform="translate(277.880859 0)"/>
    <use xlink:href="#Arial-BoldMT-67" transform="translate(305.664062 0)"/>
    <use xlink:href="#Arial-BoldMT-6e" transform="translate(366.748047 0)"/>
    <use xlink:href="#Arial-BoldMT-69" transform="translate(427.832031 0)"/>
    <use xlink:href="#Arial-BoldMT-66" transform="translate(455.615234 0)"/>
    <use xlink:href="#Arial-BoldMT-69" transform="translate(488.916016 0)"/>
    <use xlink:href="#Arial-BoldMT-63" transform="translate(516.699219 0)"/>
    <use xlink:href="#Arial-BoldMT-61" transform="translate(572.314453 0)"/>
    <use xlink:href="#Arial-BoldMT-6e" transform="translate(627.929688 0)"/>
    <use xlink:href="#Arial-BoldMT-74" transform="translate(689.013672 0)"/>
    <use xlink:href="#Arial-BoldMT-20" transform="translate(722.314453 0)"/>
    <use xlink:href="#Arial-BoldMT-61" transform="translate(750.097656 0)"/>
    <use xlink:href="#Arial-BoldMT-66" transform="translate(805.712891 0)"/>
    <use xlink:href="#Arial-BoldMT-74" transform="translate(839.013672 0)"/>
    <use xlink:href="#Arial-BoldMT-65" transform="translate(872.314453 0)"/>
    <use xlink:href="#Arial-BoldMT-72" transform="translate(927.929688 0)"/>
    <use xlink:href="#Arial-BoldMT-20" transform="translate(966.845703 0)"/>
    <use xlink:href="#Arial-BoldMT-42" transform="translate(994.628906 0)"/>
    <use xlink:href="#Arial-BoldMT-59" transform="translate(1066.845703 0)"/>
    <use xlink:href="#Arial-BoldMT-20" transform="translate(1131.794922 0)"/>
    <use xlink:href="#Arial-BoldMT-63" transform="translate(1159.578125 0)"/>
    <use xlink:href="#Arial-BoldMT-6f" transform="translate(1215.193359 0)"/>
    <use xlink:href="#Arial-BoldMT-72" transform="translate(1276.277344 0)"/>
    <use xlink:href="#Arial-BoldMT-72" transform="translate(1315.193359 0)"/>
    <use xlink:href="#Arial-BoldMT-65" transform="translate(1354.109375 0)"/>
    <use xlink:href="#Arial-BoldMT-63" transform="translate(1409.724609 0)"/>
    <use xlink:href="#Arial-BoldMT-74" transform="translate(1465.339844 0)"/>
    <use xlink:href="#Arial-BoldMT-69" transform="translate(1498.640625 0)"/>
    <use xlink:href="#Arial-BoldMT-6f" transform="translate(1526.423828 0)"/>
    <use xlink:href="#Arial-BoldMT-6e" transform="translate(1587.507812 0)"/>
    <use xlink:href="#Arial-BoldMT-2c" transform="translate(1648.591797 0)"/>
    <use xlink:href="#Arial-BoldMT-20" transform="translate(1676.375 0)"/>
    <use xlink:href="#Arial-BoldMT-63" transform="translate(1704.158203 0)"/>
    <use xlink:href="#Arial-BoldMT-6f" transform="translate(1759.773438 0)"/>
    <use xlink:href="#Arial-BoldMT-6e" transform="translate(1820.857422 0)"/>
    <use xlink:href="#Arial-BoldMT-74" transform="translate(1881.941406 0)"/>
    <use xlink:href="#Arial-BoldMT-72" transform="translate(1915.242188 0)"/>
    <use xlink:href="#Arial-BoldMT-6f" transform="translate(1954.158203 0)"/>
    <use xlink:href="#Arial-BoldMT-6c" transform="translate(2015.242188 0)"/>
    <use xlink:href="#Arial-BoldMT-6c" transform="translate(2043.025391 0)"/>
    <use xlink:href="#Arial-BoldMT-69" transform="translate(2070.808594 0)"/>
    <use xlink:href="#Arial-BoldMT-6e" transform="translate(2098.591797 0)"/>
    <use xlink:href="#Arial-BoldMT-67" transform="translate(2159.675781 0)"/>
    <use xlink:href="#Arial-BoldMT-20" transform="translate(2220.759766 0)"/>
    <use xlink:href="#Arial-BoldMT-66" transform="translate(2248.542969 0)"/>
    <use xlink:href="#Arial-BoldMT-6f" transform="translate(2281.84375 0)"/>
    <use xlink:href="#Arial-BoldMT-72" transform="translate(2342.927734 0)"/>
    <use xlink:href="#Arial-BoldMT-20" transform="translate(2381.84375 0)"/>
    <use xlink:href="#Arial-BoldMT-77" transform="translate(2409.626953 0)"/>
    <use xlink:href="#Arial-BoldMT-65" transform="translate(2487.410156 0)"/>
    <use xlink:href="#Arial-BoldMT-61" transform="translate(2543.025391 0)"/>
    <use xlink:href="#Arial-BoldMT-74" transform="translate(2598.640625 0)"/>
    <use xlink:href="#Arial-BoldMT-68" transform="translate(2631.941406 0)"/>
    <use xlink:href="#Arial-BoldMT-65" transform="translate(2693.025391 0)"/>
    <use xlink:href="#Arial-BoldMT-72" transform="translate(2748.640625 0)"/>
    <use xlink:href="#Arial-BoldMT-20" transform="translate(2787.556641 0)"/>
    <use xlink:href="#Arial-BoldMT-2b" transform="translate(2815.339844 0)"/>
    <use xlink:href="#Arial-BoldMT-20" transform="translate(2873.738281 0)"/>
    <use xlink:href="#Arial-BoldMT-41" transform="translate(2897.771484 0)"/>
    <use xlink:href="#Arial-BoldMT-52" transform="translate(2969.988281 0)"/>
    <use xlink:href="#Arial-BoldMT-20" transform="translate(3042.205078 0)"/>
    <use xlink:href="#Arial-BoldMT-2b" transform="translate(3069.988281 0)"/>
    <use xlink:href="#Arial-BoldMT-20" transform="translate(3128.386719 0)"/>
    <use xlink:href="#Arial-BoldMT-73" transform="translate(3156.169922 0)"/>
    <use xlink:href="#Arial-BoldMT-65" transform="translate(3211.785156 0)"/>
    <use xlink:href="#Arial-BoldMT-61" transform="translate(3267.400391 0)"/>
    <use xlink:href="#Arial-BoldMT-73" transform="translate(3323.015625 0)"/>
    <use xlink:href="#Arial-BoldMT-6f" transform="translate(3378.630859 0)"/>
    <use xlink:href="#Arial-BoldMT-6e" transform="translate(3439.714844 0)"/>
    <use xlink:href="#Arial-BoldMT-61" transform="translate(3500.798828 0)"/>
    <use xlink:href="#Arial-BoldMT-6c" transform="translate(3556.414062 0)"/>
    <use xlink:href="#Arial-BoldMT-69" transform="translate(3584.197266 0)"/>
    <use xlink:href="#Arial-BoldMT-74" transform="translate(3611.980469 0)"/>
    <use xlink:href="#Arial-BoldMT-79" transform="translate(3645.28125 0)"/>
    <use xlink:href="#Arial-BoldMT-29" transform="translate(3700.896484 0)"/>
   </g>
  </g>
 </g>
 <defs>
  <clipPath id="p946676cef6">
   <rect x="61.448438" y="65.616" width="399.994612" height="252.424"/>
  </clipPath>
  <clipPath id="pf7fd45132a">
   <rect x="547.030797" y="65.616" width="399.994612" height="252.424"/>
  </clipPath>
 </defs>
</svg>
