<?xml version="1.0" encoding="utf-8" standalone="no"?>
<!DOCTYPE svg PUBLIC "-//W3C//DTD SVG 1.1//EN"
  "http://www.w3.org/Graphics/SVG/1.1/DTD/svg11.dtd">
<svg xmlns:xlink="http://www.w3.org/1999/xlink" width="856.77875pt" height="721.927312pt" viewBox="0 0 856.77875 721.927312" xmlns="http://www.w3.org/2000/svg" version="1.1">
 <metadata>
  <rdf:RDF xmlns:dc="http://purl.org/dc/elements/1.1/" xmlns:cc="http://creativecommons.org/ns#" xmlns:rdf="http://www.w3.org/1999/02/22-rdf-syntax-ns#">
   <cc:Work>
    <dc:type rdf:resource="http://purl.org/dc/dcmitype/StillImage"/>
    <dc:date>2026-03-28T21:39:01.172359</dc:date>
    <dc:format>image/svg+xml</dc:format>
    <dc:creator>
     <cc:Agent>
      <dc:title>Matplotlib v3.10.8, https://matplotlib.org/</dc:title>
     </cc:Agent>
    </dc:creator>
   </cc:Work>
  </rdf:RDF>
 </metadata>
 <defs>
  <style type="text/css">*{stroke-linejoin: round; stroke-linecap: butt}</style>
 </defs>
 <g id="figure_1">
  <g id="patch_1">
   <path d="M 0 721.927312 
L 856.77875 721.927312 
L 856.77875 0 
L 0 0 
z
" style="fill: #ffffff"/>
  </g>
  <g id="axes_1">
   <g id="patch_2">
    <path d="M 80.23875 685.197625 
L 849.57875 685.197625 
L 849.57875 38.213625 
L 80.23875 38.213625 
z
" style="fill: #ffffff"/>
   </g>
   <g id="matplotlib.axis_1">
    <g id="xtick_1">
     <g id="line2d_1">
      <path d="M 192.842678 685.197625 
L 192.842678 38.213625 
" clip-path="url(#p0cbc5a3412)" style="fill: none; stroke: #cccccc; stroke-width: 0.8; stroke-linecap: round"/>
     </g>
     <g id="text_1">
      <!-- −6 -->
      <g style="fill: #262626" transform="translate(187.141896 699.355437) scale(0.1 -0.1)">
       <defs>
        <path id="ArialMT-2212" d="M 3381 1997 
L 356 1997 
L 356 2522 
L 3381 2522 
L 3381 1997 
z
" transform="scale(0.015625)"/>
        <path id="ArialMT-36" d="M 3184 3459 
L 2625 3416 
Q 2550 3747 2413 3897 
Q 2184 4138 1850 4138 
Q 1581 4138 1378 3988 
Q 1113 3794 959 3422 
Q 806 3050 800 2363 
Q 1003 2672 1297 2822 
Q 1591 2972 1913 2972 
Q 2475 2972 2870 2558 
Q 3266 2144 3266 1488 
Q 3266 1056 3080 686 
Q 2894 316 2569 119 
Q 2244 -78 1831 -78 
Q 1128 -78 684 439 
Q 241 956 241 2144 
Q 241 3472 731 4075 
Q 1159 4600 1884 4600 
Q 2425 4600 2770 4297 
Q 3116 3994 3184 3459 
z
M 888 1484 
Q 888 1194 1011 928 
Q 1134 663 1356 523 
Q 1578 384 1822 384 
Q 2178 384 2434 671 
Q 2691 959 2691 1453 
Q 2691 1928 2437 2201 
Q 2184 2475 1800 2475 
Q 1419 2475 1153 2201 
Q 888 1928 888 1484 
z
" transform="scale(0.015625)"/>
       </defs>
       <use xlink:href="#ArialMT-2212"/>
       <use xlink:href="#ArialMT-36" transform="translate(58.398438 0)"/>
      </g>
     </g>
    </g>
    <g id="xtick_2">
     <g id="line2d_2">
      <path d="M 330.849477 685.197625 
L 330.849477 38.213625 
" clip-path="url(#p0cbc5a3412)" style="fill: none; stroke: #cccccc; stroke-width: 0.8; stroke-linecap: round"/>
     </g>
     <g id="text_2">
      <!-- −4 -->
      <g style="fill: #262626" transform="translate(325.148696 699.355437) scale(0.1 -0.1)">
       <defs>
        <path id="ArialMT-34" d="M 2069 0 
L 2069 1097 
L 81 1097 
L 81 1613 
L 2172 4581 
L 2631 4581 
L 2631 1613 
L 3250 1613 
L 3250 1097 
L 2631 1097 
L 2631 0 
L 2069 0 
z
M 2069 1613 
L 2069 3678 
L 634 1613 
L 2069 1613 
z
" transform="scale(0.015625)"/>
       </defs>
       <use xlink:href="#ArialMT-2212"/>
       <use xlink:href="#ArialMT-34" transform="translate(58.398438 0)"/>
      </g>
     </g>
    </g>
    <g id="xtick_3">
     <g id="line2d_3">
      <path d="M 468.856276 685.197625 
L 468.856276 38.213625 
" clip-path="url(#p0cbc5a3412)" style="fill: none; stroke: #cccccc; stroke-width: 0.8; stroke-linecap: round"/>
     </g>
     <g id="text_3">
      <!-- −2 -->
      <g style="fill: #262626" transform="translate(463.155495 699.355437) scale(0.1 -0.1)">
       <defs>
        <path id="ArialMT-32" d="M 3222 541 
L 3222 0 
L 194 0 
Q 188 203 259 391 
Q 375 700 629 1000 
Q 884 1300 1366 1694 
Q 2113 2306 2375 2664 
Q 2638 3022 2638 3341 
Q 2638 3675 2398 3904 
Q 2159 4134 1775 4134 
Q 1369 4134 1125 3890 
Q 881 3647 878 3216 
L 300 3275 
Q 359 3922 746 4261 
Q 1134 4600 1788 4600 
Q 2447 4600 2831 4234 
Q 3216 3869 3216 3328 
Q 3216 3053 3103 2787 
Q 2991 2522 2730 2228 
Q 2469 1934 1863 1422 
Q 1356 997 1212 845 
Q 1069 694 975 541 
L 3222 541 
z
" transform="scale(0.015625)"/>
       </defs>
       <use xlink:href="#ArialMT-2212"/>
       <use xlink:href="#ArialMT-32" transform="translate(58.398438 0)"/>
      </g>
     </g>
    </g>
    <g id="xtick_4">
     <g id="line2d_4">
      <path d="M 606.863075 685.197625 
L 606.863075 38.213625 
" clip-path="url(#p0cbc5a3412)" style="fill: none; stroke: #cccccc; stroke-width: 0.8; stroke-linecap: round"/>
     </g>
     <g id="text_4">
      <!-- 0 -->
      <g style="fill: #262626" transform="translate(604.082607 699.355437) scale(0.1 -0.1)">
       <defs>
        <path id="ArialMT-30" d="M 266 2259 
Q 266 3072 433 3567 
Q 600 4063 929 4331 
Q 1259 4600 1759 4600 
Q 2128 4600 2406 4451 
Q 2684 4303 2865 4023 
Q 3047 3744 3150 3342 
Q 3253 2941 3253 2259 
Q 3253 1453 3087 958 
Q 2922 463 2592 192 
Q 2263 -78 1759 -78 
Q 1097 -78 719 397 
Q 266 969 266 2259 
z
M 844 2259 
Q 844 1131 1108 757 
Q 1372 384 1759 384 
Q 2147 384 2411 759 
Q 2675 1134 2675 2259 
Q 2675 3391 2411 3762 
Q 2147 4134 1753 4134 
Q 1366 4134 1134 3806 
Q 844 3388 844 2259 
z
" transform="scale(0.015625)"/>
       </defs>
       <use xlink:href="#ArialMT-30"/>
      </g>
     </g>
    </g>
    <g id="xtick_5">
     <g id="line2d_5">
      <path d="M 744.869875 685.197625 
L 744.869875 38.213625 
" clip-path="url(#p0cbc5a3412)" style="fill: none; stroke: #cccccc; stroke-width: 0.8; stroke-linecap: round"/>
     </g>
     <g id="text_5">
      <!-- 2 -->
      <g style="fill: #262626" transform="translate(742.089406 699.355437) scale(0.1 -0.1)">
       <use xlink:href="#ArialMT-32"/>
      </g>
     </g>
    </g>
    <g id="text_6">
     <!-- Coefficient (µg/m³ per unit change) -->
     <g style="fill: #262626" transform="translate(387.918906 712.622625) scale(0.1 -0.1)">
      <defs>
       <path id="ArialMT-43" d="M 3763 1606 
L 4369 1453 
Q 4178 706 3683 314 
Q 3188 -78 2472 -78 
Q 1731 -78 1267 223 
Q 803 525 561 1097 
Q 319 1669 319 2325 
Q 319 3041 592 3573 
Q 866 4106 1370 4382 
Q 1875 4659 2481 4659 
Q 3169 4659 3637 4309 
Q 4106 3959 4291 3325 
L 3694 3184 
Q 3534 3684 3231 3912 
Q 2928 4141 2469 4141 
Q 1941 4141 1586 3887 
Q 1231 3634 1087 3207 
Q 944 2781 944 2328 
Q 944 1744 1114 1308 
Q 1284 872 1643 656 
Q 2003 441 2422 441 
Q 2931 441 3284 734 
Q 3638 1028 3763 1606 
z
" transform="scale(0.015625)"/>
       <path id="ArialMT-6f" d="M 213 1659 
Q 213 2581 725 3025 
Q 1153 3394 1769 3394 
Q 2453 3394 2887 2945 
Q 3322 2497 3322 1706 
Q 3322 1066 3130 698 
Q 2938 331 2570 128 
Q 2203 -75 1769 -75 
Q 1072 -75 642 372 
Q 213 819 213 1659 
z
M 791 1659 
Q 791 1022 1069 705 
Q 1347 388 1769 388 
Q 2188 388 2466 706 
Q 2744 1025 2744 1678 
Q 2744 2294 2464 2611 
Q 2184 2928 1769 2928 
Q 1347 2928 1069 2612 
Q 791 2297 791 1659 
z
" transform="scale(0.015625)"/>
       <path id="ArialMT-65" d="M 2694 1069 
L 3275 997 
Q 3138 488 2766 206 
Q 2394 -75 1816 -75 
Q 1088 -75 661 373 
Q 234 822 234 1631 
Q 234 2469 665 2931 
Q 1097 3394 1784 3394 
Q 2450 3394 2872 2941 
Q 3294 2488 3294 1666 
Q 3294 1616 3291 1516 
L 816 1516 
Q 847 969 1125 678 
Q 1403 388 1819 388 
Q 2128 388 2347 550 
Q 2566 713 2694 1069 
z
M 847 1978 
L 2700 1978 
Q 2663 2397 2488 2606 
Q 2219 2931 1791 2931 
Q 1403 2931 1139 2672 
Q 875 2413 847 1978 
z
" transform="scale(0.015625)"/>
       <path id="ArialMT-66" d="M 556 0 
L 556 2881 
L 59 2881 
L 59 3319 
L 556 3319 
L 556 3672 
Q 556 4006 616 4169 
Q 697 4388 901 4523 
Q 1106 4659 1475 4659 
Q 1713 4659 2000 4603 
L 1916 4113 
Q 1741 4144 1584 4144 
Q 1328 4144 1222 4034 
Q 1116 3925 1116 3625 
L 1116 3319 
L 1763 3319 
L 1763 2881 
L 1116 2881 
L 1116 0 
L 556 0 
z
" transform="scale(0.015625)"/>
       <path id="ArialMT-69" d="M 425 3934 
L 425 4581 
L 988 4581 
L 988 3934 
L 425 3934 
z
M 425 0 
L 425 3319 
L 988 3319 
L 988 0 
L 425 0 
z
" transform="scale(0.015625)"/>
       <path id="ArialMT-63" d="M 2588 1216 
L 3141 1144 
Q 3050 572 2676 248 
Q 2303 -75 1759 -75 
Q 1078 -75 664 370 
Q 250 816 250 1647 
Q 250 2184 428 2587 
Q 606 2991 970 3192 
Q 1334 3394 1763 3394 
Q 2303 3394 2647 3120 
Q 2991 2847 3088 2344 
L 2541 2259 
Q 2463 2594 2264 2762 
Q 2066 2931 1784 2931 
Q 1359 2931 1093 2626 
Q 828 2322 828 1663 
Q 828 994 1084 691 
Q 1341 388 1753 388 
Q 2084 388 2306 591 
Q 2528 794 2588 1216 
z
" transform="scale(0.015625)"/>
       <path id="ArialMT-6e" d="M 422 0 
L 422 3319 
L 928 3319 
L 928 2847 
Q 1294 3394 1984 3394 
Q 2284 3394 2536 3286 
Q 2788 3178 2913 3003 
Q 3038 2828 3088 2588 
Q 3119 2431 3119 2041 
L 3119 0 
L 2556 0 
L 2556 2019 
Q 2556 2363 2490 2533 
Q 2425 2703 2258 2804 
Q 2091 2906 1866 2906 
Q 1506 2906 1245 2678 
Q 984 2450 984 1813 
L 984 0 
L 422 0 
z
" transform="scale(0.015625)"/>
       <path id="ArialMT-74" d="M 1650 503 
L 1731 6 
Q 1494 -44 1306 -44 
Q 1000 -44 831 53 
Q 663 150 594 308 
Q 525 466 525 972 
L 525 2881 
L 113 2881 
L 113 3319 
L 525 3319 
L 525 4141 
L 1084 4478 
L 1084 3319 
L 1650 3319 
L 1650 2881 
L 1084 2881 
L 1084 941 
Q 1084 700 1114 631 
Q 1144 563 1211 522 
Q 1278 481 1403 481 
Q 1497 481 1650 503 
z
" transform="scale(0.015625)"/>
       <path id="ArialMT-20" transform="scale(0.015625)"/>
       <path id="ArialMT-28" d="M 1497 -1347 
Q 1031 -759 709 28 
Q 388 816 388 1659 
Q 388 2403 628 3084 
Q 909 3875 1497 4659 
L 1900 4659 
Q 1522 4009 1400 3731 
Q 1209 3300 1100 2831 
Q 966 2247 966 1656 
Q 966 153 1900 -1347 
L 1497 -1347 
z
" transform="scale(0.015625)"/>
       <path id="ArialMT-b5" d="M 3181 3319 
L 3181 0 
L 2678 0 
L 2678 394 
Q 2516 144 2356 50 
Q 2138 -78 1847 -78 
Q 1588 -78 1388 25 
Q 1238 103 1056 334 
L 1056 -1272 
L 500 -1272 
L 500 3319 
L 1056 3319 
L 1056 1913 
Q 1056 1147 1137 920 
Q 1219 694 1401 562 
Q 1584 431 1822 431 
Q 2072 431 2269 568 
Q 2466 706 2547 923 
Q 2628 1141 2628 1903 
L 2628 3319 
L 3181 3319 
z
" transform="scale(0.015625)"/>
       <path id="ArialMT-67" d="M 319 -275 
L 866 -356 
Q 900 -609 1056 -725 
Q 1266 -881 1628 -881 
Q 2019 -881 2231 -725 
Q 2444 -569 2519 -288 
Q 2563 -116 2559 434 
Q 2191 0 1641 0 
Q 956 0 581 494 
Q 206 988 206 1678 
Q 206 2153 378 2554 
Q 550 2956 876 3175 
Q 1203 3394 1644 3394 
Q 2231 3394 2613 2919 
L 2613 3319 
L 3131 3319 
L 3131 450 
Q 3131 -325 2973 -648 
Q 2816 -972 2473 -1159 
Q 2131 -1347 1631 -1347 
Q 1038 -1347 672 -1080 
Q 306 -813 319 -275 
z
M 784 1719 
Q 784 1066 1043 766 
Q 1303 466 1694 466 
Q 2081 466 2343 764 
Q 2606 1063 2606 1700 
Q 2606 2309 2336 2618 
Q 2066 2928 1684 2928 
Q 1309 2928 1046 2623 
Q 784 2319 784 1719 
z
" transform="scale(0.015625)"/>
       <path id="ArialMT-2f" d="M 0 -78 
L 1328 4659 
L 1778 4659 
L 453 -78 
L 0 -78 
z
" transform="scale(0.015625)"/>
       <path id="ArialMT-6d" d="M 422 0 
L 422 3319 
L 925 3319 
L 925 2853 
Q 1081 3097 1340 3245 
Q 1600 3394 1931 3394 
Q 2300 3394 2536 3241 
Q 2772 3088 2869 2813 
Q 3263 3394 3894 3394 
Q 4388 3394 4653 3120 
Q 4919 2847 4919 2278 
L 4919 0 
L 4359 0 
L 4359 2091 
Q 4359 2428 4304 2576 
Q 4250 2725 4106 2815 
Q 3963 2906 3769 2906 
Q 3419 2906 3187 2673 
Q 2956 2441 2956 1928 
L 2956 0 
L 2394 0 
L 2394 2156 
Q 2394 2531 2256 2718 
Q 2119 2906 1806 2906 
Q 1569 2906 1367 2781 
Q 1166 2656 1075 2415 
Q 984 2175 984 1722 
L 984 0 
L 422 0 
z
" transform="scale(0.015625)"/>
       <path id="ArialMT-b3" d="M 103 2903 
L 559 2950 
Q 622 2763 722 2694 
Q 856 2600 1041 2600 
Q 1263 2600 1397 2722 
Q 1531 2844 1531 3016 
Q 1531 3172 1418 3265 
Q 1306 3359 1034 3359 
Q 997 3359 931 3353 
Q 888 3350 863 3350 
L 931 3694 
Q 1184 3691 1301 3784 
Q 1419 3878 1419 4013 
Q 1419 4128 1325 4209 
Q 1231 4291 1047 4291 
Q 872 4291 773 4222 
Q 675 4153 603 3972 
L 156 4044 
Q 284 4375 479 4506 
Q 675 4638 1050 4638 
Q 1500 4638 1704 4470 
Q 1909 4303 1909 4053 
Q 1909 3881 1798 3747 
Q 1688 3613 1478 3553 
Q 1756 3484 1887 3326 
Q 2019 3169 2019 2956 
Q 2019 2666 1772 2450 
Q 1525 2234 1069 2234 
Q 631 2234 400 2407 
Q 169 2581 103 2903 
z
" transform="scale(0.015625)"/>
       <path id="ArialMT-70" d="M 422 -1272 
L 422 3319 
L 934 3319 
L 934 2888 
Q 1116 3141 1344 3267 
Q 1572 3394 1897 3394 
Q 2322 3394 2647 3175 
Q 2972 2956 3137 2557 
Q 3303 2159 3303 1684 
Q 3303 1175 3120 767 
Q 2938 359 2589 142 
Q 2241 -75 1856 -75 
Q 1575 -75 1351 44 
Q 1128 163 984 344 
L 984 -1272 
L 422 -1272 
z
M 931 1641 
Q 931 1000 1190 694 
Q 1450 388 1819 388 
Q 2194 388 2461 705 
Q 2728 1022 2728 1688 
Q 2728 2322 2467 2637 
Q 2206 2953 1844 2953 
Q 1484 2953 1207 2617 
Q 931 2281 931 1641 
z
" transform="scale(0.015625)"/>
       <path id="ArialMT-72" d="M 416 0 
L 416 3319 
L 922 3319 
L 922 2816 
Q 1116 3169 1280 3281 
Q 1444 3394 1641 3394 
Q 1925 3394 2219 3213 
L 2025 2691 
Q 1819 2813 1613 2813 
Q 1428 2813 1281 2702 
Q 1134 2591 1072 2394 
Q 978 2094 978 1738 
L 978 0 
L 416 0 
z
" transform="scale(0.015625)"/>
       <path id="ArialMT-75" d="M 2597 0 
L 2597 488 
Q 2209 -75 1544 -75 
Q 1250 -75 995 37 
Q 741 150 617 320 
Q 494 491 444 738 
Q 409 903 409 1263 
L 409 3319 
L 972 3319 
L 972 1478 
Q 972 1038 1006 884 
Q 1059 663 1231 536 
Q 1403 409 1656 409 
Q 1909 409 2131 539 
Q 2353 669 2445 892 
Q 2538 1116 2538 1541 
L 2538 3319 
L 3100 3319 
L 3100 0 
L 2597 0 
z
" transform="scale(0.015625)"/>
       <path id="ArialMT-68" d="M 422 0 
L 422 4581 
L 984 4581 
L 984 2938 
Q 1378 3394 1978 3394 
Q 2347 3394 2619 3248 
Q 2891 3103 3008 2847 
Q 3125 2591 3125 2103 
L 3125 0 
L 2563 0 
L 2563 2103 
Q 2563 2525 2380 2717 
Q 2197 2909 1863 2909 
Q 1613 2909 1392 2779 
Q 1172 2650 1078 2428 
Q 984 2206 984 1816 
L 984 0 
L 422 0 
z
" transform="scale(0.015625)"/>
       <path id="ArialMT-61" d="M 2588 409 
Q 2275 144 1986 34 
Q 1697 -75 1366 -75 
Q 819 -75 525 192 
Q 231 459 231 875 
Q 231 1119 342 1320 
Q 453 1522 633 1644 
Q 813 1766 1038 1828 
Q 1203 1872 1538 1913 
Q 2219 1994 2541 2106 
Q 2544 2222 2544 2253 
Q 2544 2597 2384 2738 
Q 2169 2928 1744 2928 
Q 1347 2928 1158 2789 
Q 969 2650 878 2297 
L 328 2372 
Q 403 2725 575 2942 
Q 747 3159 1072 3276 
Q 1397 3394 1825 3394 
Q 2250 3394 2515 3294 
Q 2781 3194 2906 3042 
Q 3031 2891 3081 2659 
Q 3109 2516 3109 2141 
L 3109 1391 
Q 3109 606 3145 398 
Q 3181 191 3288 0 
L 2700 0 
Q 2613 175 2588 409 
z
M 2541 1666 
Q 2234 1541 1622 1453 
Q 1275 1403 1131 1340 
Q 988 1278 909 1158 
Q 831 1038 831 891 
Q 831 666 1001 516 
Q 1172 366 1500 366 
Q 1825 366 2078 508 
Q 2331 650 2450 897 
Q 2541 1088 2541 1459 
L 2541 1666 
z
" transform="scale(0.015625)"/>
       <path id="ArialMT-29" d="M 791 -1347 
L 388 -1347 
Q 1322 153 1322 1656 
Q 1322 2244 1188 2822 
Q 1081 3291 891 3722 
Q 769 4003 388 4659 
L 791 4659 
Q 1378 3875 1659 3084 
Q 1900 2403 1900 1659 
Q 1900 816 1576 28 
Q 1253 -759 791 -1347 
z
" transform="scale(0.015625)"/>
      </defs>
      <use xlink:href="#ArialMT-43"/>
      <use xlink:href="#ArialMT-6f" transform="translate(72.216797 0)"/>
      <use xlink:href="#ArialMT-65" transform="translate(127.832031 0)"/>
      <use xlink:href="#ArialMT-66" transform="translate(183.447266 0)"/>
      <use xlink:href="#ArialMT-66" transform="translate(209.480469 0)"/>
      <use xlink:href="#ArialMT-69" transform="translate(237.263672 0)"/>
      <use xlink:href="#ArialMT-63" transform="translate(259.480469 0)"/>
      <use xlink:href="#ArialMT-69" transform="translate(309.480469 0)"/>
      <use xlink:href="#ArialMT-65" transform="translate(331.697266 0)"/>
      <use xlink:href="#ArialMT-6e" transform="translate(387.3125 0)"/>
      <use xlink:href="#ArialMT-74" transform="translate(442.927734 0)"/>
      <use xlink:href="#ArialMT-20" transform="translate(470.710938 0)"/>
      <use xlink:href="#ArialMT-28" transform="translate(498.494141 0)"/>
      <use xlink:href="#ArialMT-b5" transform="translate(531.794922 0)"/>
      <use xlink:href="#ArialMT-67" transform="translate(589.412109 0)"/>
      <use xlink:href="#ArialMT-2f" transform="translate(645.027344 0)"/>
      <use xlink:href="#ArialMT-6d" transform="translate(672.810547 0)"/>
      <use xlink:href="#ArialMT-b3" transform="translate(756.111328 0)"/>
      <use xlink:href="#ArialMT-20" transform="translate(789.412109 0)"/>
      <use xlink:href="#ArialMT-70" transform="translate(817.195312 0)"/>
      <use xlink:href="#ArialMT-65" transform="translate(872.810547 0)"/>
      <use xlink:href="#ArialMT-72" transform="translate(928.425781 0)"/>
      <use xlink:href="#ArialMT-20" transform="translate(961.726562 0)"/>
      <use xlink:href="#ArialMT-75" transform="translate(989.509766 0)"/>
      <use xlink:href="#ArialMT-6e" transform="translate(1045.125 0)"/>
      <use xlink:href="#ArialMT-69" transform="translate(1100.740234 0)"/>
      <use xlink:href="#ArialMT-74" transform="translate(1122.957031 0)"/>
      <use xlink:href="#ArialMT-20" transform="translate(1150.740234 0)"/>
      <use xlink:href="#ArialMT-63" transform="translate(1178.523438 0)"/>
      <use xlink:href="#ArialMT-68" transform="translate(1228.523438 0)"/>
      <use xlink:href="#ArialMT-61" transform="translate(1284.138672 0)"/>
      <use xlink:href="#ArialMT-6e" transform="translate(1339.753906 0)"/>
      <use xlink:href="#ArialMT-67" transform="translate(1395.369141 0)"/>
      <use xlink:href="#ArialMT-65" transform="translate(1450.984375 0)"/>
      <use xlink:href="#ArialMT-29" transform="translate(1506.599609 0)"/>
     </g>
    </g>
   </g>
   <g id="matplotlib.axis_2">
    <g id="ytick_1">
     <g id="line2d_6">
      <path d="M 80.23875 75.790979 
L 849.57875 75.790979 
" clip-path="url(#p0cbc5a3412)" style="fill: none; stroke: #cccccc; stroke-width: 0.8; stroke-linecap: round"/>
     </g>
     <g id="text_7">
      <!-- no2 lag1 ★ -->
      <g style="fill: #262626" transform="translate(34.32375 78.665979) scale(0.08 -0.08)">
       <defs>
        <path id="ArialMT-6c" d="M 409 0 
L 409 4581 
L 972 4581 
L 972 0 
L 409 0 
z
" transform="scale(0.015625)"/>
        <path id="ArialMT-31" d="M 2384 0 
L 1822 0 
L 1822 3584 
Q 1619 3391 1289 3197 
Q 959 3003 697 2906 
L 697 3450 
Q 1169 3672 1522 3987 
Q 1875 4303 2022 4600 
L 2384 4600 
L 2384 0 
z
" transform="scale(0.015625)"/>
        <path id="ArialMT-2605" d="M 800 0 
L 800 4000 
L 4000 4000 
L 4000 0 
L 800 0 
z
M 900 100 
L 3900 100 
L 3900 3900 
L 900 3900 
L 900 100 
z
" transform="scale(0.015625)"/>
       </defs>
       <use xlink:href="#ArialMT-6e"/>
       <use xlink:href="#ArialMT-6f" transform="translate(55.615234 0)"/>
       <use xlink:href="#ArialMT-32" transform="translate(111.230469 0)"/>
       <use xlink:href="#ArialMT-20" transform="translate(166.845703 0)"/>
       <use xlink:href="#ArialMT-6c" transform="translate(194.628906 0)"/>
       <use xlink:href="#ArialMT-61" transform="translate(216.845703 0)"/>
       <use xlink:href="#ArialMT-67" transform="translate(272.460938 0)"/>
       <use xlink:href="#ArialMT-31" transform="translate(328.076172 0)"/>
       <use xlink:href="#ArialMT-20" transform="translate(383.691406 0)"/>
       <use xlink:href="#ArialMT-2605" transform="translate(411.474609 0)"/>
      </g>
     </g>
    </g>
    <g id="ytick_2">
     <g id="line2d_7">
      <path d="M 80.23875 96.213453 
L 849.57875 96.213453 
" clip-path="url(#p0cbc5a3412)" style="fill: none; stroke: #cccccc; stroke-width: 0.8; stroke-linecap: round"/>
     </g>
     <g id="text_8">
      <!-- no2 lag2 -->
      <g style="fill: #262626" transform="translate(42.54625 99.088453) scale(0.08 -0.08)">
       <use xlink:href="#ArialMT-6e"/>
       <use xlink:href="#ArialMT-6f" transform="translate(55.615234 0)"/>
       <use xlink:href="#ArialMT-32" transform="translate(111.230469 0)"/>
       <use xlink:href="#ArialMT-20" transform="translate(166.845703 0)"/>
       <use xlink:href="#ArialMT-6c" transform="translate(194.628906 0)"/>
       <use xlink:href="#ArialMT-61" transform="translate(216.845703 0)"/>
       <use xlink:href="#ArialMT-67" transform="translate(272.460938 0)"/>
       <use xlink:href="#ArialMT-32" transform="translate(328.076172 0)"/>
      </g>
     </g>
    </g>
    <g id="ytick_3">
     <g id="line2d_8">
      <path d="M 80.23875 116.635928 
L 849.57875 116.635928 
" clip-path="url(#p0cbc5a3412)" style="fill: none; stroke: #cccccc; stroke-width: 0.8; stroke-linecap: round"/>
     </g>
     <g id="text_9">
      <!-- Diesel ban ★ -->
      <g style="fill: #262626" transform="translate(27.2175 119.499053) scale(0.08 -0.08)">
       <defs>
        <path id="ArialMT-44" d="M 494 0 
L 494 4581 
L 2072 4581 
Q 2606 4581 2888 4516 
Q 3281 4425 3559 4188 
Q 3922 3881 4101 3404 
Q 4281 2928 4281 2316 
Q 4281 1794 4159 1391 
Q 4038 988 3847 723 
Q 3656 459 3429 307 
Q 3203 156 2883 78 
Q 2563 0 2147 0 
L 494 0 
z
M 1100 541 
L 2078 541 
Q 2531 541 2789 625 
Q 3047 709 3200 863 
Q 3416 1078 3536 1442 
Q 3656 1806 3656 2325 
Q 3656 3044 3420 3430 
Q 3184 3816 2847 3947 
Q 2603 4041 2063 4041 
L 1100 4041 
L 1100 541 
z
" transform="scale(0.015625)"/>
        <path id="ArialMT-73" d="M 197 991 
L 753 1078 
Q 800 744 1014 566 
Q 1228 388 1613 388 
Q 2000 388 2187 545 
Q 2375 703 2375 916 
Q 2375 1106 2209 1216 
Q 2094 1291 1634 1406 
Q 1016 1563 777 1677 
Q 538 1791 414 1992 
Q 291 2194 291 2438 
Q 291 2659 392 2848 
Q 494 3038 669 3163 
Q 800 3259 1026 3326 
Q 1253 3394 1513 3394 
Q 1903 3394 2198 3281 
Q 2494 3169 2634 2976 
Q 2775 2784 2828 2463 
L 2278 2388 
Q 2241 2644 2061 2787 
Q 1881 2931 1553 2931 
Q 1166 2931 1000 2803 
Q 834 2675 834 2503 
Q 834 2394 903 2306 
Q 972 2216 1119 2156 
Q 1203 2125 1616 2013 
Q 2213 1853 2448 1751 
Q 2684 1650 2818 1456 
Q 2953 1263 2953 975 
Q 2953 694 2789 445 
Q 2625 197 2315 61 
Q 2006 -75 1616 -75 
Q 969 -75 630 194 
Q 291 463 197 991 
z
" transform="scale(0.015625)"/>
        <path id="ArialMT-62" d="M 941 0 
L 419 0 
L 419 4581 
L 981 4581 
L 981 2947 
Q 1338 3394 1891 3394 
Q 2197 3394 2470 3270 
Q 2744 3147 2920 2923 
Q 3097 2700 3197 2384 
Q 3297 2069 3297 1709 
Q 3297 856 2875 390 
Q 2453 -75 1863 -75 
Q 1275 -75 941 416 
L 941 0 
z
M 934 1684 
Q 934 1088 1097 822 
Q 1363 388 1816 388 
Q 2184 388 2453 708 
Q 2722 1028 2722 1663 
Q 2722 2313 2464 2622 
Q 2206 2931 1841 2931 
Q 1472 2931 1203 2611 
Q 934 2291 934 1684 
z
" transform="scale(0.015625)"/>
       </defs>
       <use xlink:href="#ArialMT-44"/>
       <use xlink:href="#ArialMT-69" transform="translate(72.216797 0)"/>
       <use xlink:href="#ArialMT-65" transform="translate(94.433594 0)"/>
       <use xlink:href="#ArialMT-73" transform="translate(150.048828 0)"/>
       <use xlink:href="#ArialMT-65" transform="translate(200.048828 0)"/>
       <use xlink:href="#ArialMT-6c" transform="translate(255.664062 0)"/>
       <use xlink:href="#ArialMT-20" transform="translate(277.880859 0)"/>
       <use xlink:href="#ArialMT-62" transform="translate(305.664062 0)"/>
       <use xlink:href="#ArialMT-61" transform="translate(361.279297 0)"/>
       <use xlink:href="#ArialMT-6e" transform="translate(416.894531 0)"/>
       <use xlink:href="#ArialMT-20" transform="translate(472.509766 0)"/>
       <use xlink:href="#ArialMT-2605" transform="translate(500.292969 0)"/>
      </g>
     </g>
    </g>
    <g id="ytick_4">
     <g id="line2d_9">
      <path d="M 80.23875 137.058403 
L 849.57875 137.058403 
" clip-path="url(#p0cbc5a3412)" style="fill: none; stroke: #cccccc; stroke-width: 0.8; stroke-linecap: round"/>
     </g>
     <g id="text_10">
      <!-- COVID 1 ★ -->
      <g style="fill: #262626" transform="translate(33.00875 139.921528) scale(0.08 -0.08)">
       <defs>
        <path id="ArialMT-4f" d="M 309 2231 
Q 309 3372 921 4017 
Q 1534 4663 2503 4663 
Q 3138 4663 3647 4359 
Q 4156 4056 4423 3514 
Q 4691 2972 4691 2284 
Q 4691 1588 4409 1038 
Q 4128 488 3612 205 
Q 3097 -78 2500 -78 
Q 1853 -78 1343 234 
Q 834 547 571 1087 
Q 309 1628 309 2231 
z
M 934 2222 
Q 934 1394 1379 917 
Q 1825 441 2497 441 
Q 3181 441 3623 922 
Q 4066 1403 4066 2288 
Q 4066 2847 3877 3264 
Q 3688 3681 3323 3911 
Q 2959 4141 2506 4141 
Q 1863 4141 1398 3698 
Q 934 3256 934 2222 
z
" transform="scale(0.015625)"/>
        <path id="ArialMT-56" d="M 1803 0 
L 28 4581 
L 684 4581 
L 1875 1253 
Q 2019 853 2116 503 
Q 2222 878 2363 1253 
L 3600 4581 
L 4219 4581 
L 2425 0 
L 1803 0 
z
" transform="scale(0.015625)"/>
        <path id="ArialMT-49" d="M 597 0 
L 597 4581 
L 1203 4581 
L 1203 0 
L 597 0 
z
" transform="scale(0.015625)"/>
       </defs>
       <use xlink:href="#ArialMT-43"/>
       <use xlink:href="#ArialMT-4f" transform="translate(72.216797 0)"/>
       <use xlink:href="#ArialMT-56" transform="translate(150 0)"/>
       <use xlink:href="#ArialMT-49" transform="translate(216.699219 0)"/>
       <use xlink:href="#ArialMT-44" transform="translate(244.482422 0)"/>
       <use xlink:href="#ArialMT-20" transform="translate(316.699219 0)"/>
       <use xlink:href="#ArialMT-31" transform="translate(344.482422 0)"/>
       <use xlink:href="#ArialMT-20" transform="translate(400.097656 0)"/>
       <use xlink:href="#ArialMT-2605" transform="translate(427.880859 0)"/>
      </g>
     </g>
    </g>
    <g id="ytick_5">
     <g id="line2d_10">
      <path d="M 80.23875 157.480878 
L 849.57875 157.480878 
" clip-path="url(#p0cbc5a3412)" style="fill: none; stroke: #cccccc; stroke-width: 0.8; stroke-linecap: round"/>
     </g>
     <g id="text_11">
      <!-- 9e Ticket ★ -->
      <g style="fill: #262626" transform="translate(33.00125 160.344003) scale(0.08 -0.08)">
       <defs>
        <path id="ArialMT-39" d="M 350 1059 
L 891 1109 
Q 959 728 1153 556 
Q 1347 384 1650 384 
Q 1909 384 2104 503 
Q 2300 622 2425 820 
Q 2550 1019 2634 1356 
Q 2719 1694 2719 2044 
Q 2719 2081 2716 2156 
Q 2547 1888 2255 1720 
Q 1963 1553 1622 1553 
Q 1053 1553 659 1965 
Q 266 2378 266 3053 
Q 266 3750 677 4175 
Q 1088 4600 1706 4600 
Q 2153 4600 2523 4359 
Q 2894 4119 3086 3673 
Q 3278 3228 3278 2384 
Q 3278 1506 3087 986 
Q 2897 466 2520 194 
Q 2144 -78 1638 -78 
Q 1100 -78 759 220 
Q 419 519 350 1059 
z
M 2653 3081 
Q 2653 3566 2395 3850 
Q 2138 4134 1775 4134 
Q 1400 4134 1122 3828 
Q 844 3522 844 3034 
Q 844 2597 1108 2323 
Q 1372 2050 1759 2050 
Q 2150 2050 2401 2323 
Q 2653 2597 2653 3081 
z
" transform="scale(0.015625)"/>
        <path id="ArialMT-54" d="M 1659 0 
L 1659 4041 
L 150 4041 
L 150 4581 
L 3781 4581 
L 3781 4041 
L 2266 4041 
L 2266 0 
L 1659 0 
z
" transform="scale(0.015625)"/>
        <path id="ArialMT-6b" d="M 425 0 
L 425 4581 
L 988 4581 
L 988 1969 
L 2319 3319 
L 3047 3319 
L 1778 2088 
L 3175 0 
L 2481 0 
L 1384 1697 
L 988 1316 
L 988 0 
L 425 0 
z
" transform="scale(0.015625)"/>
       </defs>
       <use xlink:href="#ArialMT-39"/>
       <use xlink:href="#ArialMT-65" transform="translate(55.615234 0)"/>
       <use xlink:href="#ArialMT-20" transform="translate(111.230469 0)"/>
       <use xlink:href="#ArialMT-54" transform="translate(137.263672 0)"/>
       <use xlink:href="#ArialMT-69" transform="translate(194.597656 0)"/>
       <use xlink:href="#ArialMT-63" transform="translate(216.814453 0)"/>
       <use xlink:href="#ArialMT-6b" transform="translate(266.814453 0)"/>
       <use xlink:href="#ArialMT-65" transform="translate(316.814453 0)"/>
       <use xlink:href="#ArialMT-74" transform="translate(372.429688 0)"/>
       <use xlink:href="#ArialMT-20" transform="translate(400.212891 0)"/>
       <use xlink:href="#ArialMT-2605" transform="translate(427.996094 0)"/>
      </g>
     </g>
    </g>
    <g id="ytick_6">
     <g id="line2d_11">
      <path d="M 80.23875 177.903352 
L 849.57875 177.903352 
" clip-path="url(#p0cbc5a3412)" style="fill: none; stroke: #cccccc; stroke-width: 0.8; stroke-linecap: round"/>
     </g>
     <g id="text_12">
      <!-- COVID 2 -->
      <g style="fill: #262626" transform="translate(41.23125 180.766477) scale(0.08 -0.08)">
       <use xlink:href="#ArialMT-43"/>
       <use xlink:href="#ArialMT-4f" transform="translate(72.216797 0)"/>
       <use xlink:href="#ArialMT-56" transform="translate(150 0)"/>
       <use xlink:href="#ArialMT-49" transform="translate(216.699219 0)"/>
       <use xlink:href="#ArialMT-44" transform="translate(244.482422 0)"/>
       <use xlink:href="#ArialMT-20" transform="translate(316.699219 0)"/>
       <use xlink:href="#ArialMT-32" transform="translate(344.482422 0)"/>
      </g>
     </g>
    </g>
    <g id="ytick_7">
     <g id="line2d_12">
      <path d="M 80.23875 198.325827 
L 849.57875 198.325827 
" clip-path="url(#p0cbc5a3412)" style="fill: none; stroke: #cccccc; stroke-width: 0.8; stroke-linecap: round"/>
     </g>
     <g id="text_13">
      <!-- D Ticket -->
      <g style="fill: #262626" transform="translate(44.34375 201.188952) scale(0.08 -0.08)">
       <use xlink:href="#ArialMT-44"/>
       <use xlink:href="#ArialMT-20" transform="translate(72.216797 0)"/>
       <use xlink:href="#ArialMT-54" transform="translate(98.25 0)"/>
       <use xlink:href="#ArialMT-69" transform="translate(155.583984 0)"/>
       <use xlink:href="#ArialMT-63" transform="translate(177.800781 0)"/>
       <use xlink:href="#ArialMT-6b" transform="translate(227.800781 0)"/>
       <use xlink:href="#ArialMT-65" transform="translate(277.800781 0)"/>
       <use xlink:href="#ArialMT-74" transform="translate(333.416016 0)"/>
      </g>
     </g>
    </g>
    <g id="ytick_8">
     <g id="line2d_13">
      <path d="M 80.23875 218.748302 
L 849.57875 218.748302 
" clip-path="url(#p0cbc5a3412)" style="fill: none; stroke: #cccccc; stroke-width: 0.8; stroke-linecap: round"/>
     </g>
     <g id="text_14">
      <!-- sahara dust -->
      <g style="fill: #262626" transform="translate(31.4375 221.611427) scale(0.08 -0.08)">
       <defs>
        <path id="ArialMT-64" d="M 2575 0 
L 2575 419 
Q 2259 -75 1647 -75 
Q 1250 -75 917 144 
Q 584 363 401 755 
Q 219 1147 219 1656 
Q 219 2153 384 2558 
Q 550 2963 881 3178 
Q 1213 3394 1622 3394 
Q 1922 3394 2156 3267 
Q 2391 3141 2538 2938 
L 2538 4581 
L 3097 4581 
L 3097 0 
L 2575 0 
z
M 797 1656 
Q 797 1019 1065 703 
Q 1334 388 1700 388 
Q 2069 388 2326 689 
Q 2584 991 2584 1609 
Q 2584 2291 2321 2609 
Q 2059 2928 1675 2928 
Q 1300 2928 1048 2622 
Q 797 2316 797 1656 
z
" transform="scale(0.015625)"/>
       </defs>
       <use xlink:href="#ArialMT-73"/>
       <use xlink:href="#ArialMT-61" transform="translate(50 0)"/>
       <use xlink:href="#ArialMT-68" transform="translate(105.615234 0)"/>
       <use xlink:href="#ArialMT-61" transform="translate(161.230469 0)"/>
       <use xlink:href="#ArialMT-72" transform="translate(216.845703 0)"/>
       <use xlink:href="#ArialMT-61" transform="translate(250.146484 0)"/>
       <use xlink:href="#ArialMT-20" transform="translate(305.761719 0)"/>
       <use xlink:href="#ArialMT-64" transform="translate(333.544922 0)"/>
       <use xlink:href="#ArialMT-75" transform="translate(389.160156 0)"/>
       <use xlink:href="#ArialMT-73" transform="translate(444.775391 0)"/>
       <use xlink:href="#ArialMT-74" transform="translate(494.775391 0)"/>
      </g>
     </g>
    </g>
    <g id="ytick_9">
     <g id="line2d_14">
      <path d="M 80.23875 239.170777 
L 849.57875 239.170777 
" clip-path="url(#p0cbc5a3412)" style="fill: none; stroke: #cccccc; stroke-width: 0.8; stroke-linecap: round"/>
     </g>
     <g id="text_15">
      <!-- Fcos 1 ★ -->
      <g style="fill: #262626" transform="translate(41.01 242.033902) scale(0.08 -0.08)">
       <defs>
        <path id="ArialMT-46" d="M 525 0 
L 525 4581 
L 3616 4581 
L 3616 4041 
L 1131 4041 
L 1131 2622 
L 3281 2622 
L 3281 2081 
L 1131 2081 
L 1131 0 
L 525 0 
z
" transform="scale(0.015625)"/>
       </defs>
       <use xlink:href="#ArialMT-46"/>
       <use xlink:href="#ArialMT-63" transform="translate(61.083984 0)"/>
       <use xlink:href="#ArialMT-6f" transform="translate(111.083984 0)"/>
       <use xlink:href="#ArialMT-73" transform="translate(166.699219 0)"/>
       <use xlink:href="#ArialMT-20" transform="translate(216.699219 0)"/>
       <use xlink:href="#ArialMT-31" transform="translate(244.482422 0)"/>
       <use xlink:href="#ArialMT-20" transform="translate(300.097656 0)"/>
       <use xlink:href="#ArialMT-2605" transform="translate(327.880859 0)"/>
      </g>
     </g>
    </g>
    <g id="ytick_10">
     <g id="line2d_15">
      <path d="M 80.23875 259.593251 
L 849.57875 259.593251 
" clip-path="url(#p0cbc5a3412)" style="fill: none; stroke: #cccccc; stroke-width: 0.8; stroke-linecap: round"/>
     </g>
     <g id="text_16">
      <!-- Fsin 2 ★ -->
      <g style="fill: #262626" transform="translate(43.2325 262.456376) scale(0.08 -0.08)">
       <use xlink:href="#ArialMT-46"/>
       <use xlink:href="#ArialMT-73" transform="translate(61.083984 0)"/>
       <use xlink:href="#ArialMT-69" transform="translate(111.083984 0)"/>
       <use xlink:href="#ArialMT-6e" transform="translate(133.300781 0)"/>
       <use xlink:href="#ArialMT-20" transform="translate(188.916016 0)"/>
       <use xlink:href="#ArialMT-32" transform="translate(216.699219 0)"/>
       <use xlink:href="#ArialMT-20" transform="translate(272.314453 0)"/>
       <use xlink:href="#ArialMT-2605" transform="translate(300.097656 0)"/>
      </g>
     </g>
    </g>
    <g id="ytick_11">
     <g id="line2d_16">
      <path d="M 80.23875 280.015726 
L 849.57875 280.015726 
" clip-path="url(#p0cbc5a3412)" style="fill: none; stroke: #cccccc; stroke-width: 0.8; stroke-linecap: round"/>
     </g>
     <g id="text_17">
      <!-- Fcos 2 -->
      <g style="fill: #262626" transform="translate(49.2325 282.878851) scale(0.08 -0.08)">
       <use xlink:href="#ArialMT-46"/>
       <use xlink:href="#ArialMT-63" transform="translate(61.083984 0)"/>
       <use xlink:href="#ArialMT-6f" transform="translate(111.083984 0)"/>
       <use xlink:href="#ArialMT-73" transform="translate(166.699219 0)"/>
       <use xlink:href="#ArialMT-20" transform="translate(216.699219 0)"/>
       <use xlink:href="#ArialMT-32" transform="translate(244.482422 0)"/>
      </g>
     </g>
    </g>
    <g id="ytick_12">
     <g id="line2d_17">
      <path d="M 80.23875 300.438201 
L 849.57875 300.438201 
" clip-path="url(#p0cbc5a3412)" style="fill: none; stroke: #cccccc; stroke-width: 0.8; stroke-linecap: round"/>
     </g>
     <g id="text_18">
      <!-- Fsin 1 -->
      <g style="fill: #262626" transform="translate(51.455 303.301326) scale(0.08 -0.08)">
       <use xlink:href="#ArialMT-46"/>
       <use xlink:href="#ArialMT-73" transform="translate(61.083984 0)"/>
       <use xlink:href="#ArialMT-69" transform="translate(111.083984 0)"/>
       <use xlink:href="#ArialMT-6e" transform="translate(133.300781 0)"/>
       <use xlink:href="#ArialMT-20" transform="translate(188.916016 0)"/>
       <use xlink:href="#ArialMT-31" transform="translate(216.699219 0)"/>
      </g>
     </g>
    </g>
    <g id="ytick_13">
     <g id="line2d_18">
      <path d="M 80.23875 320.860676 
L 849.57875 320.860676 
" clip-path="url(#p0cbc5a3412)" style="fill: none; stroke: #cccccc; stroke-width: 0.8; stroke-linecap: round"/>
     </g>
     <g id="text_19">
      <!-- Fsin 3 -->
      <g style="fill: #262626" transform="translate(51.455 323.723801) scale(0.08 -0.08)">
       <defs>
        <path id="ArialMT-33" d="M 269 1209 
L 831 1284 
Q 928 806 1161 595 
Q 1394 384 1728 384 
Q 2125 384 2398 659 
Q 2672 934 2672 1341 
Q 2672 1728 2419 1979 
Q 2166 2231 1775 2231 
Q 1616 2231 1378 2169 
L 1441 2663 
Q 1497 2656 1531 2656 
Q 1891 2656 2178 2843 
Q 2466 3031 2466 3422 
Q 2466 3731 2256 3934 
Q 2047 4138 1716 4138 
Q 1388 4138 1169 3931 
Q 950 3725 888 3313 
L 325 3413 
Q 428 3978 793 4289 
Q 1159 4600 1703 4600 
Q 2078 4600 2393 4439 
Q 2709 4278 2876 4000 
Q 3044 3722 3044 3409 
Q 3044 3113 2884 2869 
Q 2725 2625 2413 2481 
Q 2819 2388 3044 2092 
Q 3269 1797 3269 1353 
Q 3269 753 2831 336 
Q 2394 -81 1725 -81 
Q 1122 -81 723 278 
Q 325 638 269 1209 
z
" transform="scale(0.015625)"/>
       </defs>
       <use xlink:href="#ArialMT-46"/>
       <use xlink:href="#ArialMT-73" transform="translate(61.083984 0)"/>
       <use xlink:href="#ArialMT-69" transform="translate(111.083984 0)"/>
       <use xlink:href="#ArialMT-6e" transform="translate(133.300781 0)"/>
       <use xlink:href="#ArialMT-20" transform="translate(188.916016 0)"/>
       <use xlink:href="#ArialMT-33" transform="translate(216.699219 0)"/>
      </g>
     </g>
    </g>
    <g id="ytick_14">
     <g id="line2d_19">
      <path d="M 80.23875 341.28315 
L 849.57875 341.28315 
" clip-path="url(#p0cbc5a3412)" style="fill: none; stroke: #cccccc; stroke-width: 0.8; stroke-linecap: round"/>
     </g>
     <g id="text_20">
      <!-- Fcos 3 -->
      <g style="fill: #262626" transform="translate(49.2325 344.146275) scale(0.08 -0.08)">
       <use xlink:href="#ArialMT-46"/>
       <use xlink:href="#ArialMT-63" transform="translate(61.083984 0)"/>
       <use xlink:href="#ArialMT-6f" transform="translate(111.083984 0)"/>
       <use xlink:href="#ArialMT-73" transform="translate(166.699219 0)"/>
       <use xlink:href="#ArialMT-20" transform="translate(216.699219 0)"/>
       <use xlink:href="#ArialMT-33" transform="translate(244.482422 0)"/>
      </g>
     </g>
    </g>
    <g id="ytick_15">
     <g id="line2d_20">
      <path d="M 80.23875 361.705625 
L 849.57875 361.705625 
" clip-path="url(#p0cbc5a3412)" style="fill: none; stroke: #cccccc; stroke-width: 0.8; stroke-linecap: round"/>
     </g>
     <g id="text_21">
      <!-- is weekend ★ -->
      <g style="fill: #262626" transform="translate(24.995 364.56875) scale(0.08 -0.08)">
       <defs>
        <path id="ArialMT-77" d="M 1034 0 
L 19 3319 
L 600 3319 
L 1128 1403 
L 1325 691 
Q 1338 744 1497 1375 
L 2025 3319 
L 2603 3319 
L 3100 1394 
L 3266 759 
L 3456 1400 
L 4025 3319 
L 4572 3319 
L 3534 0 
L 2950 0 
L 2422 1988 
L 2294 2553 
L 1622 0 
L 1034 0 
z
" transform="scale(0.015625)"/>
       </defs>
       <use xlink:href="#ArialMT-69"/>
       <use xlink:href="#ArialMT-73" transform="translate(22.216797 0)"/>
       <use xlink:href="#ArialMT-20" transform="translate(72.216797 0)"/>
       <use xlink:href="#ArialMT-77" transform="translate(100 0)"/>
       <use xlink:href="#ArialMT-65" transform="translate(172.216797 0)"/>
       <use xlink:href="#ArialMT-65" transform="translate(227.832031 0)"/>
       <use xlink:href="#ArialMT-6b" transform="translate(283.447266 0)"/>
       <use xlink:href="#ArialMT-65" transform="translate(333.447266 0)"/>
       <use xlink:href="#ArialMT-6e" transform="translate(389.0625 0)"/>
       <use xlink:href="#ArialMT-64" transform="translate(444.677734 0)"/>
       <use xlink:href="#ArialMT-20" transform="translate(500.292969 0)"/>
       <use xlink:href="#ArialMT-2605" transform="translate(528.076172 0)"/>
      </g>
     </g>
    </g>
    <g id="ytick_16">
     <g id="line2d_21">
      <path d="M 80.23875 382.1281 
L 849.57875 382.1281 
" clip-path="url(#p0cbc5a3412)" style="fill: none; stroke: #cccccc; stroke-width: 0.8; stroke-linecap: round"/>
     </g>
     <g id="text_22">
      <!-- is holiday ★ -->
      <g style="fill: #262626" transform="translate(31.66625 384.991225) scale(0.08 -0.08)">
       <defs>
        <path id="ArialMT-79" d="M 397 -1278 
L 334 -750 
Q 519 -800 656 -800 
Q 844 -800 956 -737 
Q 1069 -675 1141 -563 
Q 1194 -478 1313 -144 
Q 1328 -97 1363 -6 
L 103 3319 
L 709 3319 
L 1400 1397 
Q 1534 1031 1641 628 
Q 1738 1016 1872 1384 
L 2581 3319 
L 3144 3319 
L 1881 -56 
Q 1678 -603 1566 -809 
Q 1416 -1088 1222 -1217 
Q 1028 -1347 759 -1347 
Q 597 -1347 397 -1278 
z
" transform="scale(0.015625)"/>
       </defs>
       <use xlink:href="#ArialMT-69"/>
       <use xlink:href="#ArialMT-73" transform="translate(22.216797 0)"/>
       <use xlink:href="#ArialMT-20" transform="translate(72.216797 0)"/>
       <use xlink:href="#ArialMT-68" transform="translate(100 0)"/>
       <use xlink:href="#ArialMT-6f" transform="translate(155.615234 0)"/>
       <use xlink:href="#ArialMT-6c" transform="translate(211.230469 0)"/>
       <use xlink:href="#ArialMT-69" transform="translate(233.447266 0)"/>
       <use xlink:href="#ArialMT-64" transform="translate(255.664062 0)"/>
       <use xlink:href="#ArialMT-61" transform="translate(311.279297 0)"/>
       <use xlink:href="#ArialMT-79" transform="translate(366.894531 0)"/>
       <use xlink:href="#ArialMT-20" transform="translate(416.894531 0)"/>
       <use xlink:href="#ArialMT-2605" transform="translate(444.677734 0)"/>
      </g>
     </g>
    </g>
    <g id="ytick_17">
     <g id="line2d_22">
      <path d="M 80.23875 402.550574 
L 849.57875 402.550574 
" clip-path="url(#p0cbc5a3412)" style="fill: none; stroke: #cccccc; stroke-width: 0.8; stroke-linecap: round"/>
     </g>
     <g id="text_23">
      <!-- trend ★ -->
      <g style="fill: #262626" transform="translate(46.78375 405.413699) scale(0.08 -0.08)">
       <use xlink:href="#ArialMT-74"/>
       <use xlink:href="#ArialMT-72" transform="translate(27.783203 0)"/>
       <use xlink:href="#ArialMT-65" transform="translate(61.083984 0)"/>
       <use xlink:href="#ArialMT-6e" transform="translate(116.699219 0)"/>
       <use xlink:href="#ArialMT-64" transform="translate(172.314453 0)"/>
       <use xlink:href="#ArialMT-20" transform="translate(227.929688 0)"/>
       <use xlink:href="#ArialMT-2605" transform="translate(255.712891 0)"/>
      </g>
     </g>
    </g>
    <g id="ytick_18">
     <g id="line2d_23">
      <path d="M 80.23875 422.973049 
L 849.57875 422.973049 
" clip-path="url(#p0cbc5a3412)" style="fill: none; stroke: #cccccc; stroke-width: 0.8; stroke-linecap: round"/>
     </g>
     <g id="text_24">
      <!-- wind speed ★ -->
      <g style="fill: #262626" transform="translate(24.54625 425.836174) scale(0.08 -0.08)">
       <use xlink:href="#ArialMT-77"/>
       <use xlink:href="#ArialMT-69" transform="translate(72.216797 0)"/>
       <use xlink:href="#ArialMT-6e" transform="translate(94.433594 0)"/>
       <use xlink:href="#ArialMT-64" transform="translate(150.048828 0)"/>
       <use xlink:href="#ArialMT-20" transform="translate(205.664062 0)"/>
       <use xlink:href="#ArialMT-73" transform="translate(233.447266 0)"/>
       <use xlink:href="#ArialMT-70" transform="translate(283.447266 0)"/>
       <use xlink:href="#ArialMT-65" transform="translate(339.0625 0)"/>
       <use xlink:href="#ArialMT-65" transform="translate(394.677734 0)"/>
       <use xlink:href="#ArialMT-64" transform="translate(450.292969 0)"/>
       <use xlink:href="#ArialMT-20" transform="translate(505.908203 0)"/>
       <use xlink:href="#ArialMT-2605" transform="translate(533.691406 0)"/>
      </g>
     </g>
    </g>
    <g id="ytick_19">
     <g id="line2d_24">
      <path d="M 80.23875 443.395524 
L 849.57875 443.395524 
" clip-path="url(#p0cbc5a3412)" style="fill: none; stroke: #cccccc; stroke-width: 0.8; stroke-linecap: round"/>
     </g>
     <g id="text_25">
      <!-- wind speed lag1 ★ -->
      <g style="fill: #262626" transform="translate(7.2 446.270524) scale(0.08 -0.08)">
       <use xlink:href="#ArialMT-77"/>
       <use xlink:href="#ArialMT-69" transform="translate(72.216797 0)"/>
       <use xlink:href="#ArialMT-6e" transform="translate(94.433594 0)"/>
       <use xlink:href="#ArialMT-64" transform="translate(150.048828 0)"/>
       <use xlink:href="#ArialMT-20" transform="translate(205.664062 0)"/>
       <use xlink:href="#ArialMT-73" transform="translate(233.447266 0)"/>
       <use xlink:href="#ArialMT-70" transform="translate(283.447266 0)"/>
       <use xlink:href="#ArialMT-65" transform="translate(339.0625 0)"/>
       <use xlink:href="#ArialMT-65" transform="translate(394.677734 0)"/>
       <use xlink:href="#ArialMT-64" transform="translate(450.292969 0)"/>
       <use xlink:href="#ArialMT-20" transform="translate(505.908203 0)"/>
       <use xlink:href="#ArialMT-6c" transform="translate(533.691406 0)"/>
       <use xlink:href="#ArialMT-61" transform="translate(555.908203 0)"/>
       <use xlink:href="#ArialMT-67" transform="translate(611.523438 0)"/>
       <use xlink:href="#ArialMT-31" transform="translate(667.138672 0)"/>
       <use xlink:href="#ArialMT-20" transform="translate(722.753906 0)"/>
       <use xlink:href="#ArialMT-2605" transform="translate(750.537109 0)"/>
      </g>
     </g>
    </g>
    <g id="ytick_20">
     <g id="line2d_25">
      <path d="M 80.23875 463.817999 
L 849.57875 463.817999 
" clip-path="url(#p0cbc5a3412)" style="fill: none; stroke: #cccccc; stroke-width: 0.8; stroke-linecap: round"/>
     </g>
     <g id="text_26">
      <!-- humidity ★ -->
      <g style="fill: #262626" transform="translate(35.22875 466.681124) scale(0.08 -0.08)">
       <use xlink:href="#ArialMT-68"/>
       <use xlink:href="#ArialMT-75" transform="translate(55.615234 0)"/>
       <use xlink:href="#ArialMT-6d" transform="translate(111.230469 0)"/>
       <use xlink:href="#ArialMT-69" transform="translate(194.53125 0)"/>
       <use xlink:href="#ArialMT-64" transform="translate(216.748047 0)"/>
       <use xlink:href="#ArialMT-69" transform="translate(272.363281 0)"/>
       <use xlink:href="#ArialMT-74" transform="translate(294.580078 0)"/>
       <use xlink:href="#ArialMT-79" transform="translate(322.363281 0)"/>
       <use xlink:href="#ArialMT-20" transform="translate(372.363281 0)"/>
       <use xlink:href="#ArialMT-2605" transform="translate(400.146484 0)"/>
      </g>
     </g>
    </g>
    <g id="ytick_21">
     <g id="line2d_26">
      <path d="M 80.23875 484.240473 
L 849.57875 484.240473 
" clip-path="url(#p0cbc5a3412)" style="fill: none; stroke: #cccccc; stroke-width: 0.8; stroke-linecap: round"/>
     </g>
     <g id="text_27">
      <!-- temp mean ★ -->
      <g style="fill: #262626" transform="translate(25 487.103598) scale(0.08 -0.08)">
       <use xlink:href="#ArialMT-74"/>
       <use xlink:href="#ArialMT-65" transform="translate(27.783203 0)"/>
       <use xlink:href="#ArialMT-6d" transform="translate(83.398438 0)"/>
       <use xlink:href="#ArialMT-70" transform="translate(166.699219 0)"/>
       <use xlink:href="#ArialMT-20" transform="translate(222.314453 0)"/>
       <use xlink:href="#ArialMT-6d" transform="translate(250.097656 0)"/>
       <use xlink:href="#ArialMT-65" transform="translate(333.398438 0)"/>
       <use xlink:href="#ArialMT-61" transform="translate(389.013672 0)"/>
       <use xlink:href="#ArialMT-6e" transform="translate(444.628906 0)"/>
       <use xlink:href="#ArialMT-20" transform="translate(500.244141 0)"/>
       <use xlink:href="#ArialMT-2605" transform="translate(528.027344 0)"/>
      </g>
     </g>
    </g>
    <g id="ytick_22">
     <g id="line2d_27">
      <path d="M 80.23875 504.662948 
L 849.57875 504.662948 
" clip-path="url(#p0cbc5a3412)" style="fill: none; stroke: #cccccc; stroke-width: 0.8; stroke-linecap: round"/>
     </g>
     <g id="text_28">
      <!-- precipitation lag1 -->
      <g style="fill: #262626" transform="translate(12.75875 507.537948) scale(0.08 -0.08)">
       <use xlink:href="#ArialMT-70"/>
       <use xlink:href="#ArialMT-72" transform="translate(55.615234 0)"/>
       <use xlink:href="#ArialMT-65" transform="translate(88.916016 0)"/>
       <use xlink:href="#ArialMT-63" transform="translate(144.53125 0)"/>
       <use xlink:href="#ArialMT-69" transform="translate(194.53125 0)"/>
       <use xlink:href="#ArialMT-70" transform="translate(216.748047 0)"/>
       <use xlink:href="#ArialMT-69" transform="translate(272.363281 0)"/>
       <use xlink:href="#ArialMT-74" transform="translate(294.580078 0)"/>
       <use xlink:href="#ArialMT-61" transform="translate(322.363281 0)"/>
       <use xlink:href="#ArialMT-74" transform="translate(377.978516 0)"/>
       <use xlink:href="#ArialMT-69" transform="translate(405.761719 0)"/>
       <use xlink:href="#ArialMT-6f" transform="translate(427.978516 0)"/>
       <use xlink:href="#ArialMT-6e" transform="translate(483.59375 0)"/>
       <use xlink:href="#ArialMT-20" transform="translate(539.208984 0)"/>
       <use xlink:href="#ArialMT-6c" transform="translate(566.992188 0)"/>
       <use xlink:href="#ArialMT-61" transform="translate(589.208984 0)"/>
       <use xlink:href="#ArialMT-67" transform="translate(644.824219 0)"/>
       <use xlink:href="#ArialMT-31" transform="translate(700.439453 0)"/>
      </g>
     </g>
    </g>
    <g id="ytick_23">
     <g id="line2d_28">
      <path d="M 80.23875 525.085423 
L 849.57875 525.085423 
" clip-path="url(#p0cbc5a3412)" style="fill: none; stroke: #cccccc; stroke-width: 0.8; stroke-linecap: round"/>
     </g>
     <g id="text_29">
      <!-- temp mean lag2 -->
      <g style="fill: #262626" transform="translate(15.87625 527.960423) scale(0.08 -0.08)">
       <use xlink:href="#ArialMT-74"/>
       <use xlink:href="#ArialMT-65" transform="translate(27.783203 0)"/>
       <use xlink:href="#ArialMT-6d" transform="translate(83.398438 0)"/>
       <use xlink:href="#ArialMT-70" transform="translate(166.699219 0)"/>
       <use xlink:href="#ArialMT-20" transform="translate(222.314453 0)"/>
       <use xlink:href="#ArialMT-6d" transform="translate(250.097656 0)"/>
       <use xlink:href="#ArialMT-65" transform="translate(333.398438 0)"/>
       <use xlink:href="#ArialMT-61" transform="translate(389.013672 0)"/>
       <use xlink:href="#ArialMT-6e" transform="translate(444.628906 0)"/>
       <use xlink:href="#ArialMT-20" transform="translate(500.244141 0)"/>
       <use xlink:href="#ArialMT-6c" transform="translate(528.027344 0)"/>
       <use xlink:href="#ArialMT-61" transform="translate(550.244141 0)"/>
       <use xlink:href="#ArialMT-67" transform="translate(605.859375 0)"/>
       <use xlink:href="#ArialMT-32" transform="translate(661.474609 0)"/>
      </g>
     </g>
    </g>
    <g id="ytick_24">
     <g id="line2d_29">
      <path d="M 80.23875 545.507898 
L 849.57875 545.507898 
" clip-path="url(#p0cbc5a3412)" style="fill: none; stroke: #cccccc; stroke-width: 0.8; stroke-linecap: round"/>
     </g>
     <g id="text_30">
      <!-- temp mean lag1 -->
      <g style="fill: #262626" transform="translate(15.87625 548.382898) scale(0.08 -0.08)">
       <use xlink:href="#ArialMT-74"/>
       <use xlink:href="#ArialMT-65" transform="translate(27.783203 0)"/>
       <use xlink:href="#ArialMT-6d" transform="translate(83.398438 0)"/>
       <use xlink:href="#ArialMT-70" transform="translate(166.699219 0)"/>
       <use xlink:href="#ArialMT-20" transform="translate(222.314453 0)"/>
       <use xlink:href="#ArialMT-6d" transform="translate(250.097656 0)"/>
       <use xlink:href="#ArialMT-65" transform="translate(333.398438 0)"/>
       <use xlink:href="#ArialMT-61" transform="translate(389.013672 0)"/>
       <use xlink:href="#ArialMT-6e" transform="translate(444.628906 0)"/>
       <use xlink:href="#ArialMT-20" transform="translate(500.244141 0)"/>
       <use xlink:href="#ArialMT-6c" transform="translate(528.027344 0)"/>
       <use xlink:href="#ArialMT-61" transform="translate(550.244141 0)"/>
       <use xlink:href="#ArialMT-67" transform="translate(605.859375 0)"/>
       <use xlink:href="#ArialMT-31" transform="translate(661.474609 0)"/>
      </g>
     </g>
    </g>
    <g id="ytick_25">
     <g id="line2d_30">
      <path d="M 80.23875 565.930372 
L 849.57875 565.930372 
" clip-path="url(#p0cbc5a3412)" style="fill: none; stroke: #cccccc; stroke-width: 0.8; stroke-linecap: round"/>
     </g>
     <g id="text_31">
      <!-- wind speed lag2 -->
      <g style="fill: #262626" transform="translate(15.4225 568.805372) scale(0.08 -0.08)">
       <use xlink:href="#ArialMT-77"/>
       <use xlink:href="#ArialMT-69" transform="translate(72.216797 0)"/>
       <use xlink:href="#ArialMT-6e" transform="translate(94.433594 0)"/>
       <use xlink:href="#ArialMT-64" transform="translate(150.048828 0)"/>
       <use xlink:href="#ArialMT-20" transform="translate(205.664062 0)"/>
       <use xlink:href="#ArialMT-73" transform="translate(233.447266 0)"/>
       <use xlink:href="#ArialMT-70" transform="translate(283.447266 0)"/>
       <use xlink:href="#ArialMT-65" transform="translate(339.0625 0)"/>
       <use xlink:href="#ArialMT-65" transform="translate(394.677734 0)"/>
       <use xlink:href="#ArialMT-64" transform="translate(450.292969 0)"/>
       <use xlink:href="#ArialMT-20" transform="translate(505.908203 0)"/>
       <use xlink:href="#ArialMT-6c" transform="translate(533.691406 0)"/>
       <use xlink:href="#ArialMT-61" transform="translate(555.908203 0)"/>
       <use xlink:href="#ArialMT-67" transform="translate(611.523438 0)"/>
       <use xlink:href="#ArialMT-32" transform="translate(667.138672 0)"/>
      </g>
     </g>
    </g>
    <g id="ytick_26">
     <g id="line2d_31">
      <path d="M 80.23875 586.352847 
L 849.57875 586.352847 
" clip-path="url(#p0cbc5a3412)" style="fill: none; stroke: #cccccc; stroke-width: 0.8; stroke-linecap: round"/>
     </g>
     <g id="text_32">
      <!-- humidity lag1 -->
      <g style="fill: #262626" transform="translate(26.105 589.227847) scale(0.08 -0.08)">
       <use xlink:href="#ArialMT-68"/>
       <use xlink:href="#ArialMT-75" transform="translate(55.615234 0)"/>
       <use xlink:href="#ArialMT-6d" transform="translate(111.230469 0)"/>
       <use xlink:href="#ArialMT-69" transform="translate(194.53125 0)"/>
       <use xlink:href="#ArialMT-64" transform="translate(216.748047 0)"/>
       <use xlink:href="#ArialMT-69" transform="translate(272.363281 0)"/>
       <use xlink:href="#ArialMT-74" transform="translate(294.580078 0)"/>
       <use xlink:href="#ArialMT-79" transform="translate(322.363281 0)"/>
       <use xlink:href="#ArialMT-20" transform="translate(372.363281 0)"/>
       <use xlink:href="#ArialMT-6c" transform="translate(400.146484 0)"/>
       <use xlink:href="#ArialMT-61" transform="translate(422.363281 0)"/>
       <use xlink:href="#ArialMT-67" transform="translate(477.978516 0)"/>
       <use xlink:href="#ArialMT-31" transform="translate(533.59375 0)"/>
      </g>
     </g>
    </g>
    <g id="ytick_27">
     <g id="line2d_32">
      <path d="M 80.23875 606.775322 
L 849.57875 606.775322 
" clip-path="url(#p0cbc5a3412)" style="fill: none; stroke: #cccccc; stroke-width: 0.8; stroke-linecap: round"/>
     </g>
     <g id="text_33">
      <!-- humidity lag2 -->
      <g style="fill: #262626" transform="translate(26.105 609.650322) scale(0.08 -0.08)">
       <use xlink:href="#ArialMT-68"/>
       <use xlink:href="#ArialMT-75" transform="translate(55.615234 0)"/>
       <use xlink:href="#ArialMT-6d" transform="translate(111.230469 0)"/>
       <use xlink:href="#ArialMT-69" transform="translate(194.53125 0)"/>
       <use xlink:href="#ArialMT-64" transform="translate(216.748047 0)"/>
       <use xlink:href="#ArialMT-69" transform="translate(272.363281 0)"/>
       <use xlink:href="#ArialMT-74" transform="translate(294.580078 0)"/>
       <use xlink:href="#ArialMT-79" transform="translate(322.363281 0)"/>
       <use xlink:href="#ArialMT-20" transform="translate(372.363281 0)"/>
       <use xlink:href="#ArialMT-6c" transform="translate(400.146484 0)"/>
       <use xlink:href="#ArialMT-61" transform="translate(422.363281 0)"/>
       <use xlink:href="#ArialMT-67" transform="translate(477.978516 0)"/>
       <use xlink:href="#ArialMT-32" transform="translate(533.59375 0)"/>
      </g>
     </g>
    </g>
    <g id="ytick_28">
     <g id="line2d_33">
      <path d="M 80.23875 627.197797 
L 849.57875 627.197797 
" clip-path="url(#p0cbc5a3412)" style="fill: none; stroke: #cccccc; stroke-width: 0.8; stroke-linecap: round"/>
     </g>
     <g id="text_34">
      <!-- precipitation -->
      <g style="fill: #262626" transform="translate(30.105 630.060922) scale(0.08 -0.08)">
       <use xlink:href="#ArialMT-70"/>
       <use xlink:href="#ArialMT-72" transform="translate(55.615234 0)"/>
       <use xlink:href="#ArialMT-65" transform="translate(88.916016 0)"/>
       <use xlink:href="#ArialMT-63" transform="translate(144.53125 0)"/>
       <use xlink:href="#ArialMT-69" transform="translate(194.53125 0)"/>
       <use xlink:href="#ArialMT-70" transform="translate(216.748047 0)"/>
       <use xlink:href="#ArialMT-69" transform="translate(272.363281 0)"/>
       <use xlink:href="#ArialMT-74" transform="translate(294.580078 0)"/>
       <use xlink:href="#ArialMT-61" transform="translate(322.363281 0)"/>
       <use xlink:href="#ArialMT-74" transform="translate(377.978516 0)"/>
       <use xlink:href="#ArialMT-69" transform="translate(405.761719 0)"/>
       <use xlink:href="#ArialMT-6f" transform="translate(427.978516 0)"/>
       <use xlink:href="#ArialMT-6e" transform="translate(483.59375 0)"/>
      </g>
     </g>
    </g>
    <g id="ytick_29">
     <g id="line2d_34">
      <path d="M 80.23875 647.620271 
L 849.57875 647.620271 
" clip-path="url(#p0cbc5a3412)" style="fill: none; stroke: #cccccc; stroke-width: 0.8; stroke-linecap: round"/>
     </g>
     <g id="text_35">
      <!-- precipitation lag2 -->
      <g style="fill: #262626" transform="translate(12.75875 650.495271) scale(0.08 -0.08)">
       <use xlink:href="#ArialMT-70"/>
       <use xlink:href="#ArialMT-72" transform="translate(55.615234 0)"/>
       <use xlink:href="#ArialMT-65" transform="translate(88.916016 0)"/>
       <use xlink:href="#ArialMT-63" transform="translate(144.53125 0)"/>
       <use xlink:href="#ArialMT-69" transform="translate(194.53125 0)"/>
       <use xlink:href="#ArialMT-70" transform="translate(216.748047 0)"/>
       <use xlink:href="#ArialMT-69" transform="translate(272.363281 0)"/>
       <use xlink:href="#ArialMT-74" transform="translate(294.580078 0)"/>
       <use xlink:href="#ArialMT-61" transform="translate(322.363281 0)"/>
       <use xlink:href="#ArialMT-74" transform="translate(377.978516 0)"/>
       <use xlink:href="#ArialMT-69" transform="translate(405.761719 0)"/>
       <use xlink:href="#ArialMT-6f" transform="translate(427.978516 0)"/>
       <use xlink:href="#ArialMT-6e" transform="translate(483.59375 0)"/>
       <use xlink:href="#ArialMT-20" transform="translate(539.208984 0)"/>
       <use xlink:href="#ArialMT-6c" transform="translate(566.992188 0)"/>
       <use xlink:href="#ArialMT-61" transform="translate(589.208984 0)"/>
       <use xlink:href="#ArialMT-67" transform="translate(644.824219 0)"/>
       <use xlink:href="#ArialMT-32" transform="translate(700.439453 0)"/>
      </g>
     </g>
    </g>
   </g>
   <g id="patch_3">
    <path d="M 606.863075 67.621989 
L 637.455936 67.621989 
L 637.455936 83.959968 
L 606.863075 83.959968 
z
" clip-path="url(#p0cbc5a3412)" style="fill: #1a1a2e; stroke: #ffffff; stroke-width: 0.5; stroke-linejoin: miter"/>
   </g>
   <g id="patch_4">
    <path d="M 606.863075 88.044463 
L 604.89375 88.044463 
L 604.89375 104.382443 
L 606.863075 104.382443 
z
" clip-path="url(#p0cbc5a3412)" style="fill: #cccccc; stroke: #ffffff; stroke-width: 0.5; stroke-linejoin: miter"/>
   </g>
   <g id="patch_5">
    <path d="M 606.863075 108.466938 
L 257.226523 108.466938 
L 257.226523 124.804918 
L 606.863075 124.804918 
z
" clip-path="url(#p0cbc5a3412)" style="fill: #e74c3c; stroke: #ffffff; stroke-width: 0.5; stroke-linejoin: miter"/>
   </g>
   <g id="patch_6">
    <path d="M 606.863075 128.889413 
L 433.873942 128.889413 
L 433.873942 145.227393 
L 606.863075 145.227393 
z
" clip-path="url(#p0cbc5a3412)" style="fill: #e74c3c; stroke: #ffffff; stroke-width: 0.5; stroke-linejoin: miter"/>
   </g>
   <g id="patch_7">
    <path d="M 606.863075 149.311888 
L 509.697261 149.311888 
L 509.697261 165.649867 
L 606.863075 165.649867 
z
" clip-path="url(#p0cbc5a3412)" style="fill: #e74c3c; stroke: #ffffff; stroke-width: 0.5; stroke-linejoin: miter"/>
   </g>
   <g id="patch_8">
    <path d="M 606.863075 169.734362 
L 523.167281 169.734362 
L 523.167281 186.072342 
L 606.863075 186.072342 
z
" clip-path="url(#p0cbc5a3412)" style="fill: #cccccc; stroke: #ffffff; stroke-width: 0.5; stroke-linejoin: miter"/>
   </g>
   <g id="patch_9">
    <path d="M 606.863075 190.156837 
L 614.995421 190.156837 
L 614.995421 206.494817 
L 606.863075 206.494817 
z
" clip-path="url(#p0cbc5a3412)" style="fill: #cccccc; stroke: #ffffff; stroke-width: 0.5; stroke-linejoin: miter"/>
   </g>
   <g id="patch_10">
    <path d="M 606.863075 210.579312 
L 634.359287 210.579312 
L 634.359287 226.917292 
L 606.863075 226.917292 
z
" clip-path="url(#p0cbc5a3412)" style="fill: #cccccc; stroke: #ffffff; stroke-width: 0.5; stroke-linejoin: miter"/>
   </g>
   <g id="patch_11">
    <path d="M 606.863075 231.001787 
L 814.60875 231.001787 
L 814.60875 247.339766 
L 606.863075 247.339766 
z
" clip-path="url(#p0cbc5a3412)" style="fill: #2ecc71; stroke: #ffffff; stroke-width: 0.5; stroke-linejoin: miter"/>
   </g>
   <g id="patch_12">
    <path d="M 606.863075 251.424261 
L 648.583441 251.424261 
L 648.583441 267.762241 
L 606.863075 267.762241 
z
" clip-path="url(#p0cbc5a3412)" style="fill: #2ecc71; stroke: #ffffff; stroke-width: 0.5; stroke-linejoin: miter"/>
   </g>
   <g id="patch_13">
    <path d="M 606.863075 271.846736 
L 590.667268 271.846736 
L 590.667268 288.184716 
L 606.863075 288.184716 
z
" clip-path="url(#p0cbc5a3412)" style="fill: #cccccc; stroke: #ffffff; stroke-width: 0.5; stroke-linejoin: miter"/>
   </g>
   <g id="patch_14">
    <path d="M 606.863075 292.269211 
L 623.559463 292.269211 
L 623.559463 308.607191 
L 606.863075 308.607191 
z
" clip-path="url(#p0cbc5a3412)" style="fill: #cccccc; stroke: #ffffff; stroke-width: 0.5; stroke-linejoin: miter"/>
   </g>
   <g id="patch_15">
    <path d="M 606.863075 312.691686 
L 608.013458 312.691686 
L 608.013458 329.029665 
L 606.863075 329.029665 
z
" clip-path="url(#p0cbc5a3412)" style="fill: #cccccc; stroke: #ffffff; stroke-width: 0.5; stroke-linejoin: miter"/>
   </g>
   <g id="patch_16">
    <path d="M 606.863075 333.11416 
L 602.361909 333.11416 
L 602.361909 349.45214 
L 606.863075 349.45214 
z
" clip-path="url(#p0cbc5a3412)" style="fill: #cccccc; stroke: #ffffff; stroke-width: 0.5; stroke-linejoin: miter"/>
   </g>
   <g id="patch_17">
    <path d="M 606.863075 353.536635 
L 115.20875 353.536635 
L 115.20875 369.874615 
L 606.863075 369.874615 
z
" clip-path="url(#p0cbc5a3412)" style="fill: #9b59b6; stroke: #ffffff; stroke-width: 0.5; stroke-linejoin: miter"/>
   </g>
   <g id="patch_18">
    <path d="M 606.863075 373.95911 
L 150.232422 373.95911 
L 150.232422 390.29709 
L 606.863075 390.29709 
z
" clip-path="url(#p0cbc5a3412)" style="fill: #9b59b6; stroke: #ffffff; stroke-width: 0.5; stroke-linejoin: miter"/>
   </g>
   <g id="patch_19">
    <path d="M 606.863075 394.381585 
L 538.881436 394.381585 
L 538.881436 410.719564 
L 606.863075 410.719564 
z
" clip-path="url(#p0cbc5a3412)" style="fill: #9b59b6; stroke: #ffffff; stroke-width: 0.5; stroke-linejoin: miter"/>
   </g>
   <g id="patch_20">
    <path d="M 606.863075 414.804059 
L 534.444755 414.804059 
L 534.444755 431.142039 
L 606.863075 431.142039 
z
" clip-path="url(#p0cbc5a3412)" style="fill: #3498db; stroke: #ffffff; stroke-width: 0.5; stroke-linejoin: miter"/>
   </g>
   <g id="patch_21">
    <path d="M 606.863075 435.226534 
L 625.719867 435.226534 
L 625.719867 451.564514 
L 606.863075 451.564514 
z
" clip-path="url(#p0cbc5a3412)" style="fill: #3498db; stroke: #ffffff; stroke-width: 0.5; stroke-linejoin: miter"/>
   </g>
   <g id="patch_22">
    <path d="M 606.863075 455.649009 
L 597.253068 455.649009 
L 597.253068 471.986989 
L 606.863075 471.986989 
z
" clip-path="url(#p0cbc5a3412)" style="fill: #3498db; stroke: #ffffff; stroke-width: 0.5; stroke-linejoin: miter"/>
   </g>
   <g id="patch_23">
    <path d="M 606.863075 476.071484 
L 624.703435 476.071484 
L 624.703435 492.409463 
L 606.863075 492.409463 
z
" clip-path="url(#p0cbc5a3412)" style="fill: #3498db; stroke: #ffffff; stroke-width: 0.5; stroke-linejoin: miter"/>
   </g>
   <g id="patch_24">
    <path d="M 606.863075 496.493958 
L 610.992061 496.493958 
L 610.992061 512.831938 
L 606.863075 512.831938 
z
" clip-path="url(#p0cbc5a3412)" style="fill: #cccccc; stroke: #ffffff; stroke-width: 0.5; stroke-linejoin: miter"/>
   </g>
   <g id="patch_25">
    <path d="M 606.863075 516.916433 
L 598.465868 516.916433 
L 598.465868 533.254413 
L 606.863075 533.254413 
z
" clip-path="url(#p0cbc5a3412)" style="fill: #cccccc; stroke: #ffffff; stroke-width: 0.5; stroke-linejoin: miter"/>
   </g>
   <g id="patch_26">
    <path d="M 606.863075 537.338908 
L 596.654509 537.338908 
L 596.654509 553.676888 
L 606.863075 553.676888 
z
" clip-path="url(#p0cbc5a3412)" style="fill: #cccccc; stroke: #ffffff; stroke-width: 0.5; stroke-linejoin: miter"/>
   </g>
   <g id="patch_27">
    <path d="M 606.863075 557.761383 
L 609.747119 557.761383 
L 609.747119 574.099362 
L 606.863075 574.099362 
z
" clip-path="url(#p0cbc5a3412)" style="fill: #cccccc; stroke: #ffffff; stroke-width: 0.5; stroke-linejoin: miter"/>
   </g>
   <g id="patch_28">
    <path d="M 606.863075 578.183857 
L 605.662158 578.183857 
L 605.662158 594.521837 
L 606.863075 594.521837 
z
" clip-path="url(#p0cbc5a3412)" style="fill: #cccccc; stroke: #ffffff; stroke-width: 0.5; stroke-linejoin: miter"/>
   </g>
   <g id="patch_29">
    <path d="M 606.863075 598.606332 
L 606.998064 598.606332 
L 606.998064 614.944312 
L 606.863075 614.944312 
z
" clip-path="url(#p0cbc5a3412)" style="fill: #cccccc; stroke: #ffffff; stroke-width: 0.5; stroke-linejoin: miter"/>
   </g>
   <g id="patch_30">
    <path d="M 606.863075 619.028807 
L 606.494399 619.028807 
L 606.494399 635.366787 
L 606.863075 635.366787 
z
" clip-path="url(#p0cbc5a3412)" style="fill: #cccccc; stroke: #ffffff; stroke-width: 0.5; stroke-linejoin: miter"/>
   </g>
   <g id="patch_31">
    <path d="M 606.863075 639.451282 
L 605.015817 639.451282 
L 605.015817 655.789261 
L 606.863075 655.789261 
z
" clip-path="url(#p0cbc5a3412)" style="fill: #cccccc; stroke: #ffffff; stroke-width: 0.5; stroke-linejoin: miter"/>
   </g>
   <g id="line2d_35">
    <path d="M 606.863075 685.197625 
L 606.863075 38.213625 
" clip-path="url(#p0cbc5a3412)" style="fill: none; stroke: #000000; stroke-width: 0.8; stroke-linecap: round"/>
   </g>
   <g id="patch_32">
    <path d="M 80.23875 685.197625 
L 80.23875 38.213625 
" style="fill: none; stroke: #cccccc; stroke-width: 0.8; stroke-linejoin: miter; stroke-linecap: square"/>
   </g>
   <g id="patch_33">
    <path d="M 849.57875 685.197625 
L 849.57875 38.213625 
" style="fill: none; stroke: #cccccc; stroke-width: 0.8; stroke-linejoin: miter; stroke-linecap: square"/>
   </g>
   <g id="patch_34">
    <path d="M 80.23875 685.197625 
L 849.57875 685.197625 
" style="fill: none; stroke: #cccccc; stroke-width: 0.8; stroke-linejoin: miter; stroke-linecap: square"/>
   </g>
   <g id="patch_35">
    <path d="M 80.23875 38.213625 
L 849.57875 38.213625 
" style="fill: none; stroke: #cccccc; stroke-width: 0.8; stroke-linejoin: miter; stroke-linecap: square"/>
   </g>
   <g id="text_36">
    <!-- NO2 — ARX Model Coefficients -->
    <g style="fill: #262626" transform="translate(360.942344 17.220937) scale(0.14 -0.14)">
     <defs>
      <path id="Arial-BoldMT-4e" d="M 475 0 
L 475 4581 
L 1375 4581 
L 3250 1522 
L 3250 4581 
L 4109 4581 
L 4109 0 
L 3181 0 
L 1334 2988 
L 1334 0 
L 475 0 
z
" transform="scale(0.015625)"/>
      <path id="Arial-BoldMT-4f" d="M 278 2263 
Q 278 2963 488 3438 
Q 644 3788 914 4066 
Q 1184 4344 1506 4478 
Q 1934 4659 2494 4659 
Q 3506 4659 4114 4031 
Q 4722 3403 4722 2284 
Q 4722 1175 4119 548 
Q 3516 -78 2506 -78 
Q 1484 -78 881 545 
Q 278 1169 278 2263 
z
M 1231 2294 
Q 1231 1516 1590 1114 
Q 1950 713 2503 713 
Q 3056 713 3411 1111 
Q 3766 1509 3766 2306 
Q 3766 3094 3420 3481 
Q 3075 3869 2503 3869 
Q 1931 3869 1581 3476 
Q 1231 3084 1231 2294 
z
" transform="scale(0.015625)"/>
      <path id="Arial-BoldMT-32" d="M 3238 816 
L 3238 0 
L 159 0 
Q 209 463 459 877 
Q 709 1291 1447 1975 
Q 2041 2528 2175 2725 
Q 2356 2997 2356 3263 
Q 2356 3556 2198 3714 
Q 2041 3872 1763 3872 
Q 1488 3872 1325 3706 
Q 1163 3541 1138 3156 
L 263 3244 
Q 341 3969 753 4284 
Q 1166 4600 1784 4600 
Q 2463 4600 2850 4234 
Q 3238 3869 3238 3325 
Q 3238 3016 3127 2736 
Q 3016 2456 2775 2150 
Q 2616 1947 2200 1565 
Q 1784 1184 1673 1059 
Q 1563 934 1494 816 
L 3238 816 
z
" transform="scale(0.015625)"/>
      <path id="Arial-BoldMT-20" transform="scale(0.015625)"/>
      <path id="Arial-BoldMT-2014" d="M 0 1331 
L 0 1988 
L 6400 1988 
L 6400 1331 
L 0 1331 
z
" transform="scale(0.015625)"/>
      <path id="Arial-BoldMT-41" d="M 4597 0 
L 3591 0 
L 3191 1041 
L 1359 1041 
L 981 0 
L 0 0 
L 1784 4581 
L 2763 4581 
L 4597 0 
z
M 2894 1813 
L 2263 3513 
L 1644 1813 
L 2894 1813 
z
" transform="scale(0.015625)"/>
      <path id="Arial-BoldMT-52" d="M 469 0 
L 469 4581 
L 2416 4581 
Q 3150 4581 3483 4457 
Q 3816 4334 4016 4018 
Q 4216 3703 4216 3297 
Q 4216 2781 3912 2445 
Q 3609 2109 3006 2022 
Q 3306 1847 3501 1637 
Q 3697 1428 4028 894 
L 4588 0 
L 3481 0 
L 2813 997 
Q 2456 1531 2325 1670 
Q 2194 1809 2047 1861 
Q 1900 1913 1581 1913 
L 1394 1913 
L 1394 0 
L 469 0 
z
M 1394 2644 
L 2078 2644 
Q 2744 2644 2909 2700 
Q 3075 2756 3169 2893 
Q 3263 3031 3263 3238 
Q 3263 3469 3139 3611 
Q 3016 3753 2791 3791 
Q 2678 3806 2116 3806 
L 1394 3806 
L 1394 2644 
z
" transform="scale(0.015625)"/>
      <path id="Arial-BoldMT-58" d="M 0 0 
L 1566 2391 
L 147 4581 
L 1228 4581 
L 2147 3109 
L 3047 4581 
L 4119 4581 
L 2694 2356 
L 4259 0 
L 3144 0 
L 2128 1584 
L 1109 0 
L 0 0 
z
" transform="scale(0.015625)"/>
      <path id="Arial-BoldMT-4d" d="M 453 0 
L 453 4581 
L 1838 4581 
L 2669 1456 
L 3491 4581 
L 4878 4581 
L 4878 0 
L 4019 0 
L 4019 3606 
L 3109 0 
L 2219 0 
L 1313 3606 
L 1313 0 
L 453 0 
z
" transform="scale(0.015625)"/>
      <path id="Arial-BoldMT-6f" d="M 256 1706 
Q 256 2144 472 2553 
Q 688 2963 1083 3178 
Q 1478 3394 1966 3394 
Q 2719 3394 3200 2905 
Q 3681 2416 3681 1669 
Q 3681 916 3195 420 
Q 2709 -75 1972 -75 
Q 1516 -75 1102 131 
Q 688 338 472 736 
Q 256 1134 256 1706 
z
M 1156 1659 
Q 1156 1166 1390 903 
Q 1625 641 1969 641 
Q 2313 641 2545 903 
Q 2778 1166 2778 1666 
Q 2778 2153 2545 2415 
Q 2313 2678 1969 2678 
Q 1625 2678 1390 2415 
Q 1156 2153 1156 1659 
z
" transform="scale(0.015625)"/>
      <path id="Arial-BoldMT-64" d="M 3503 0 
L 2688 0 
L 2688 488 
Q 2484 203 2207 64 
Q 1931 -75 1650 -75 
Q 1078 -75 670 386 
Q 263 847 263 1672 
Q 263 2516 659 2955 
Q 1056 3394 1663 3394 
Q 2219 3394 2625 2931 
L 2625 4581 
L 3503 4581 
L 3503 0 
z
M 1159 1731 
Q 1159 1200 1306 963 
Q 1519 619 1900 619 
Q 2203 619 2415 876 
Q 2628 1134 2628 1647 
Q 2628 2219 2422 2470 
Q 2216 2722 1894 2722 
Q 1581 2722 1370 2473 
Q 1159 2225 1159 1731 
z
" transform="scale(0.015625)"/>
      <path id="Arial-BoldMT-65" d="M 2381 1056 
L 3256 909 
Q 3088 428 2723 176 
Q 2359 -75 1813 -75 
Q 947 -75 531 491 
Q 203 944 203 1634 
Q 203 2459 634 2926 
Q 1066 3394 1725 3394 
Q 2466 3394 2894 2905 
Q 3322 2416 3303 1406 
L 1103 1406 
Q 1113 1016 1316 798 
Q 1519 581 1822 581 
Q 2028 581 2168 693 
Q 2309 806 2381 1056 
z
M 2431 1944 
Q 2422 2325 2234 2523 
Q 2047 2722 1778 2722 
Q 1491 2722 1303 2513 
Q 1116 2303 1119 1944 
L 2431 1944 
z
" transform="scale(0.015625)"/>
      <path id="Arial-BoldMT-6c" d="M 459 0 
L 459 4581 
L 1338 4581 
L 1338 0 
L 459 0 
z
" transform="scale(0.015625)"/>
      <path id="Arial-BoldMT-43" d="M 3397 1684 
L 4294 1400 
Q 4088 650 3608 286 
Q 3128 -78 2391 -78 
Q 1478 -78 890 545 
Q 303 1169 303 2250 
Q 303 3394 893 4026 
Q 1484 4659 2447 4659 
Q 3288 4659 3813 4163 
Q 4125 3869 4281 3319 
L 3366 3100 
Q 3284 3456 3026 3662 
Q 2769 3869 2400 3869 
Q 1891 3869 1573 3503 
Q 1256 3138 1256 2319 
Q 1256 1450 1568 1081 
Q 1881 713 2381 713 
Q 2750 713 3015 947 
Q 3281 1181 3397 1684 
z
" transform="scale(0.015625)"/>
      <path id="Arial-BoldMT-66" d="M 75 3319 
L 563 3319 
L 563 3569 
Q 563 3988 652 4194 
Q 741 4400 980 4529 
Q 1219 4659 1584 4659 
Q 1959 4659 2319 4547 
L 2200 3934 
Q 1991 3984 1797 3984 
Q 1606 3984 1523 3895 
Q 1441 3806 1441 3553 
L 1441 3319 
L 2097 3319 
L 2097 2628 
L 1441 2628 
L 1441 0 
L 563 0 
L 563 2628 
L 75 2628 
L 75 3319 
z
" transform="scale(0.015625)"/>
      <path id="Arial-BoldMT-69" d="M 459 3769 
L 459 4581 
L 1338 4581 
L 1338 3769 
L 459 3769 
z
M 459 0 
L 459 3319 
L 1338 3319 
L 1338 0 
L 459 0 
z
" transform="scale(0.015625)"/>
      <path id="Arial-BoldMT-63" d="M 3353 2338 
L 2488 2181 
Q 2444 2441 2289 2572 
Q 2134 2703 1888 2703 
Q 1559 2703 1364 2476 
Q 1169 2250 1169 1719 
Q 1169 1128 1367 884 
Q 1566 641 1900 641 
Q 2150 641 2309 783 
Q 2469 925 2534 1272 
L 3397 1125 
Q 3263 531 2881 228 
Q 2500 -75 1859 -75 
Q 1131 -75 698 384 
Q 266 844 266 1656 
Q 266 2478 700 2936 
Q 1134 3394 1875 3394 
Q 2481 3394 2839 3133 
Q 3197 2872 3353 2338 
z
" transform="scale(0.015625)"/>
      <path id="Arial-BoldMT-6e" d="M 3478 0 
L 2600 0 
L 2600 1694 
Q 2600 2231 2544 2389 
Q 2488 2547 2361 2634 
Q 2234 2722 2056 2722 
Q 1828 2722 1647 2597 
Q 1466 2472 1398 2265 
Q 1331 2059 1331 1503 
L 1331 0 
L 453 0 
L 453 3319 
L 1269 3319 
L 1269 2831 
Q 1703 3394 2363 3394 
Q 2653 3394 2893 3289 
Q 3134 3184 3257 3021 
Q 3381 2859 3429 2653 
Q 3478 2447 3478 2063 
L 3478 0 
z
" transform="scale(0.015625)"/>
      <path id="Arial-BoldMT-74" d="M 1981 3319 
L 1981 2619 
L 1381 2619 
L 1381 1281 
Q 1381 875 1398 808 
Q 1416 741 1477 697 
Q 1538 653 1625 653 
Q 1747 653 1978 738 
L 2053 56 
Q 1747 -75 1359 -75 
Q 1122 -75 931 4 
Q 741 84 652 211 
Q 563 338 528 553 
Q 500 706 500 1172 
L 500 2619 
L 97 2619 
L 97 3319 
L 500 3319 
L 500 3978 
L 1381 4491 
L 1381 3319 
L 1981 3319 
z
" transform="scale(0.015625)"/>
      <path id="Arial-BoldMT-73" d="M 150 947 
L 1031 1081 
Q 1088 825 1259 692 
Q 1431 559 1741 559 
Q 2081 559 2253 684 
Q 2369 772 2369 919 
Q 2369 1019 2306 1084 
Q 2241 1147 2013 1200 
Q 950 1434 666 1628 
Q 272 1897 272 2375 
Q 272 2806 612 3100 
Q 953 3394 1669 3394 
Q 2350 3394 2681 3172 
Q 3013 2950 3138 2516 
L 2309 2363 
Q 2256 2556 2107 2659 
Q 1959 2763 1684 2763 
Q 1338 2763 1188 2666 
Q 1088 2597 1088 2488 
Q 1088 2394 1175 2328 
Q 1294 2241 1995 2081 
Q 2697 1922 2975 1691 
Q 3250 1456 3250 1038 
Q 3250 581 2869 253 
Q 2488 -75 1741 -75 
Q 1063 -75 667 200 
Q 272 475 150 947 
z
" transform="scale(0.015625)"/>
     </defs>
     <use xlink:href="#Arial-BoldMT-4e"/>
     <use xlink:href="#Arial-BoldMT-4f" transform="translate(72.216797 0)"/>
     <use xlink:href="#Arial-BoldMT-32" transform="translate(150 0)"/>
     <use xlink:href="#Arial-BoldMT-20" transform="translate(205.615234 0)"/>
     <use xlink:href="#Arial-BoldMT-2014" transform="translate(233.398438 0)"/>
     <use xlink:href="#Arial-BoldMT-20" transform="translate(333.398438 0)"/>
     <use xlink:href="#Arial-BoldMT-41" transform="translate(357.431641 0)"/>
     <use xlink:href="#Arial-BoldMT-52" transform="translate(429.648438 0)"/>
     <use xlink:href="#Arial-BoldMT-58" transform="translate(501.865234 0)"/>
     <use xlink:href="#Arial-BoldMT-20" transform="translate(568.564453 0)"/>
     <use xlink:href="#Arial-BoldMT-4d" transform="translate(596.347656 0)"/>
     <use xlink:href="#Arial-BoldMT-6f" transform="translate(679.648438 0)"/>
     <use xlink:href="#Arial-BoldMT-64" transform="translate(740.732422 0)"/>
     <use xlink:href="#Arial-BoldMT-65" transform="translate(801.816406 0)"/>
     <use xlink:href="#Arial-BoldMT-6c" transform="translate(857.431641 0)"/>
     <use xlink:href="#Arial-BoldMT-20" transform="translate(885.214844 0)"/>
     <use xlink:href="#Arial-BoldMT-43" transform="translate(912.998047 0)"/>
     <use xlink:href="#Arial-BoldMT-6f" transform="translate(985.214844 0)"/>
     <use xlink:href="#Arial-BoldMT-65" transform="translate(1046.298828 0)"/>
     <use xlink:href="#Arial-BoldMT-66" transform="translate(1101.914062 0)"/>
     <use xlink:href="#Arial-BoldMT-66" transform="translate(1135.214844 0)"/>
     <use xlink:href="#Arial-BoldMT-69" transform="translate(1168.515625 0)"/>
     <use xlink:href="#Arial-BoldMT-63" transform="translate(1196.298828 0)"/>
     <use xlink:href="#Arial-BoldMT-69" transform="translate(1251.914062 0)"/>
     <use xlink:href="#Arial-BoldMT-65" transform="translate(1279.697266 0)"/>
     <use xlink:href="#Arial-BoldMT-6e" transform="translate(1335.3125 0)"/>
     <use xlink:href="#Arial-BoldMT-74" transform="translate(1396.396484 0)"/>
     <use xlink:href="#Arial-BoldMT-73" transform="translate(1429.697266 0)"/>
    </g>
    <!-- (Newey-West SEs, BY-corrected α=0.05, ★ = significant) -->
    <g style="fill: #262626" transform="translate(280.424844 32.213625) scale(0.14 -0.14)">
     <defs>
      <path id="Arial-BoldMT-28" d="M 1916 -1347 
L 1313 -1347 
Q 834 -625 584 153 
Q 334 931 334 1659 
Q 334 2563 644 3369 
Q 913 4069 1325 4659 
L 1925 4659 
Q 1497 3713 1336 3048 
Q 1175 2384 1175 1641 
Q 1175 1128 1270 590 
Q 1366 53 1531 -431 
Q 1641 -750 1916 -1347 
z
" transform="scale(0.015625)"/>
      <path id="Arial-BoldMT-77" d="M 1078 0 
L 28 3319 
L 881 3319 
L 1503 1144 
L 2075 3319 
L 2922 3319 
L 3475 1144 
L 4109 3319 
L 4975 3319 
L 3909 0 
L 3066 0 
L 2494 2134 
L 1931 0 
L 1078 0 
z
" transform="scale(0.015625)"/>
      <path id="Arial-BoldMT-79" d="M 44 3319 
L 978 3319 
L 1772 963 
L 2547 3319 
L 3456 3319 
L 2284 125 
L 2075 -453 
Q 1959 -744 1854 -897 
Q 1750 -1050 1614 -1145 
Q 1478 -1241 1279 -1294 
Q 1081 -1347 831 -1347 
Q 578 -1347 334 -1294 
L 256 -606 
Q 463 -647 628 -647 
Q 934 -647 1081 -467 
Q 1228 -288 1306 -9 
L 44 3319 
z
" transform="scale(0.015625)"/>
      <path id="Arial-BoldMT-2d" d="M 359 1222 
L 359 2100 
L 2084 2100 
L 2084 1222 
L 359 1222 
z
" transform="scale(0.015625)"/>
      <path id="Arial-BoldMT-57" d="M 1116 0 
L 22 4581 
L 969 4581 
L 1659 1434 
L 2497 4581 
L 3597 4581 
L 4400 1381 
L 5103 4581 
L 6034 4581 
L 4922 0 
L 3941 0 
L 3028 3425 
L 2119 0 
L 1116 0 
z
" transform="scale(0.015625)"/>
      <path id="Arial-BoldMT-53" d="M 231 1491 
L 1131 1578 
Q 1213 1125 1461 912 
Q 1709 700 2131 700 
Q 2578 700 2804 889 
Q 3031 1078 3031 1331 
Q 3031 1494 2936 1608 
Q 2841 1722 2603 1806 
Q 2441 1863 1863 2006 
Q 1119 2191 819 2459 
Q 397 2838 397 3381 
Q 397 3731 595 4036 
Q 794 4341 1167 4500 
Q 1541 4659 2069 4659 
Q 2931 4659 3367 4281 
Q 3803 3903 3825 3272 
L 2900 3231 
Q 2841 3584 2645 3739 
Q 2450 3894 2059 3894 
Q 1656 3894 1428 3728 
Q 1281 3622 1281 3444 
Q 1281 3281 1419 3166 
Q 1594 3019 2269 2859 
Q 2944 2700 3267 2529 
Q 3591 2359 3773 2064 
Q 3956 1769 3956 1334 
Q 3956 941 3737 597 
Q 3519 253 3119 86 
Q 2719 -81 2122 -81 
Q 1253 -81 787 320 
Q 322 722 231 1491 
z
" transform="scale(0.015625)"/>
      <path id="Arial-BoldMT-45" d="M 466 0 
L 466 4581 
L 3863 4581 
L 3863 3806 
L 1391 3806 
L 1391 2791 
L 3691 2791 
L 3691 2019 
L 1391 2019 
L 1391 772 
L 3950 772 
L 3950 0 
L 466 0 
z
" transform="scale(0.015625)"/>
      <path id="Arial-BoldMT-2c" d="M 438 878 
L 1316 878 
L 1316 250 
Q 1316 -131 1250 -351 
Q 1184 -572 1001 -747 
Q 819 -922 538 -1022 
L 366 -659 
Q 631 -572 743 -419 
Q 856 -266 863 0 
L 438 0 
L 438 878 
z
" transform="scale(0.015625)"/>
      <path id="Arial-BoldMT-42" d="M 469 4581 
L 2300 4581 
Q 2844 4581 3111 4536 
Q 3378 4491 3589 4347 
Q 3800 4203 3940 3964 
Q 4081 3725 4081 3428 
Q 4081 3106 3907 2837 
Q 3734 2569 3438 2434 
Q 3856 2313 4081 2019 
Q 4306 1725 4306 1328 
Q 4306 1016 4161 720 
Q 4016 425 3764 248 
Q 3513 72 3144 31 
Q 2913 6 2028 0 
L 469 0 
L 469 4581 
z
M 1394 3819 
L 1394 2759 
L 2000 2759 
Q 2541 2759 2672 2775 
Q 2909 2803 3045 2939 
Q 3181 3075 3181 3297 
Q 3181 3509 3064 3642 
Q 2947 3775 2716 3803 
Q 2578 3819 1925 3819 
L 1394 3819 
z
M 1394 1997 
L 1394 772 
L 2250 772 
Q 2750 772 2884 800 
Q 3091 838 3220 983 
Q 3350 1128 3350 1372 
Q 3350 1578 3250 1722 
Q 3150 1866 2961 1931 
Q 2772 1997 2141 1997 
L 1394 1997 
z
" transform="scale(0.015625)"/>
      <path id="Arial-BoldMT-59" d="M 1669 0 
L 1669 1928 
L -9 4581 
L 1075 4581 
L 2153 2769 
L 3209 4581 
L 4275 4581 
L 2591 1922 
L 2591 0 
L 1669 0 
z
" transform="scale(0.015625)"/>
      <path id="Arial-BoldMT-72" d="M 1300 0 
L 422 0 
L 422 3319 
L 1238 3319 
L 1238 2847 
Q 1447 3181 1614 3287 
Q 1781 3394 1994 3394 
Q 2294 3394 2572 3228 
L 2300 2463 
Q 2078 2606 1888 2606 
Q 1703 2606 1575 2504 
Q 1447 2403 1373 2137 
Q 1300 1872 1300 1025 
L 1300 0 
z
" transform="scale(0.015625)"/>
      <path id="Arial-BoldMT-3b1" d="M 2972 3319 
L 3725 3319 
Q 3547 2956 3426 2392 
Q 3306 1828 3306 1603 
Q 3306 1313 3415 844 
Q 3525 375 3691 0 
L 2953 0 
Q 2938 63 2897 175 
Q 2831 363 2784 550 
Q 2400 -75 1688 -75 
Q 1016 -75 630 470 
Q 244 1016 244 1744 
Q 244 2431 628 2912 
Q 1013 3394 1697 3394 
Q 2372 3394 2788 2747 
Q 2844 2975 2972 3319 
z
M 1144 1650 
Q 1144 1191 1339 905 
Q 1534 619 1847 619 
Q 2147 619 2337 872 
Q 2528 1125 2528 1650 
Q 2528 2166 2325 2431 
Q 2122 2697 1834 2697 
Q 1534 2697 1339 2422 
Q 1144 2147 1144 1650 
z
" transform="scale(0.015625)"/>
      <path id="Arial-BoldMT-3d" d="M 266 2550 
L 266 3356 
L 3469 3356 
L 3469 2550 
L 266 2550 
z
M 266 1163 
L 266 1972 
L 3469 1972 
L 3469 1163 
L 266 1163 
z
" transform="scale(0.015625)"/>
      <path id="Arial-BoldMT-30" d="M 1756 4600 
Q 2422 4600 2797 4125 
Q 3244 3563 3244 2259 
Q 3244 959 2794 391 
Q 2422 -78 1756 -78 
Q 1088 -78 678 436 
Q 269 950 269 2269 
Q 269 3563 719 4131 
Q 1091 4600 1756 4600 
z
M 1756 3872 
Q 1597 3872 1472 3770 
Q 1347 3669 1278 3406 
Q 1188 3066 1188 2259 
Q 1188 1453 1269 1151 
Q 1350 850 1473 750 
Q 1597 650 1756 650 
Q 1916 650 2041 751 
Q 2166 853 2234 1116 
Q 2325 1453 2325 2259 
Q 2325 3066 2244 3367 
Q 2163 3669 2039 3770 
Q 1916 3872 1756 3872 
z
" transform="scale(0.015625)"/>
      <path id="Arial-BoldMT-2e" d="M 459 0 
L 459 878 
L 1338 878 
L 1338 0 
L 459 0 
z
" transform="scale(0.015625)"/>
      <path id="Arial-BoldMT-35" d="M 284 1178 
L 1159 1269 
Q 1197 972 1381 798 
Q 1566 625 1806 625 
Q 2081 625 2272 848 
Q 2463 1072 2463 1522 
Q 2463 1944 2273 2155 
Q 2084 2366 1781 2366 
Q 1403 2366 1103 2031 
L 391 2134 
L 841 4519 
L 3163 4519 
L 3163 3697 
L 1506 3697 
L 1369 2919 
Q 1663 3066 1969 3066 
Q 2553 3066 2959 2641 
Q 3366 2216 3366 1538 
Q 3366 972 3038 528 
Q 2591 -78 1797 -78 
Q 1163 -78 763 262 
Q 363 603 284 1178 
z
" transform="scale(0.015625)"/>
      <path id="Arial-BoldMT-2605" d="M 800 0 
L 800 4000 
L 4000 4000 
L 4000 0 
L 800 0 
z
M 900 100 
L 3900 100 
L 3900 3900 
L 900 3900 
L 900 100 
z
" transform="scale(0.015625)"/>
      <path id="Arial-BoldMT-67" d="M 378 -219 
L 1381 -341 
Q 1406 -516 1497 -581 
Q 1622 -675 1891 -675 
Q 2234 -675 2406 -572 
Q 2522 -503 2581 -350 
Q 2622 -241 2622 53 
L 2622 538 
Q 2228 0 1628 0 
Q 959 0 569 566 
Q 263 1013 263 1678 
Q 263 2513 664 2953 
Q 1066 3394 1663 3394 
Q 2278 3394 2678 2853 
L 2678 3319 
L 3500 3319 
L 3500 341 
Q 3500 -247 3403 -537 
Q 3306 -828 3131 -993 
Q 2956 -1159 2664 -1253 
Q 2372 -1347 1925 -1347 
Q 1081 -1347 728 -1058 
Q 375 -769 375 -325 
Q 375 -281 378 -219 
z
M 1163 1728 
Q 1163 1200 1367 954 
Q 1572 709 1872 709 
Q 2194 709 2416 961 
Q 2638 1213 2638 1706 
Q 2638 2222 2425 2472 
Q 2213 2722 1888 2722 
Q 1572 2722 1367 2476 
Q 1163 2231 1163 1728 
z
" transform="scale(0.015625)"/>
      <path id="Arial-BoldMT-61" d="M 1116 2306 
L 319 2450 
Q 453 2931 781 3162 
Q 1109 3394 1756 3394 
Q 2344 3394 2631 3255 
Q 2919 3116 3036 2902 
Q 3153 2688 3153 2116 
L 3144 1091 
Q 3144 653 3186 445 
Q 3228 238 3344 0 
L 2475 0 
Q 2441 88 2391 259 
Q 2369 338 2359 363 
Q 2134 144 1878 34 
Q 1622 -75 1331 -75 
Q 819 -75 523 203 
Q 228 481 228 906 
Q 228 1188 362 1408 
Q 497 1628 739 1745 
Q 981 1863 1438 1950 
Q 2053 2066 2291 2166 
L 2291 2253 
Q 2291 2506 2166 2614 
Q 2041 2722 1694 2722 
Q 1459 2722 1328 2630 
Q 1197 2538 1116 2306 
z
M 2291 1594 
Q 2122 1538 1756 1459 
Q 1391 1381 1278 1306 
Q 1106 1184 1106 997 
Q 1106 813 1243 678 
Q 1381 544 1594 544 
Q 1831 544 2047 700 
Q 2206 819 2256 991 
Q 2291 1103 2291 1419 
L 2291 1594 
z
" transform="scale(0.015625)"/>
      <path id="Arial-BoldMT-29" d="M 216 -1347 
Q 475 -791 581 -494 
Q 688 -197 778 190 
Q 869 578 912 926 
Q 956 1275 956 1641 
Q 956 2384 797 3048 
Q 638 3713 209 4659 
L 806 4659 
Q 1278 3988 1539 3234 
Q 1800 2481 1800 1706 
Q 1800 1053 1594 306 
Q 1359 -531 822 -1347 
L 216 -1347 
z
" transform="scale(0.015625)"/>
     </defs>
     <use xlink:href="#Arial-BoldMT-28"/>
     <use xlink:href="#Arial-BoldMT-4e" transform="translate(33.300781 0)"/>
     <use xlink:href="#Arial-BoldMT-65" transform="translate(105.517578 0)"/>
     <use xlink:href="#Arial-BoldMT-77" transform="translate(161.132812 0)"/>
     <use xlink:href="#Arial-BoldMT-65" transform="translate(238.916016 0)"/>
     <use xlink:href="#Arial-BoldMT-79" transform="translate(294.53125 0)"/>
     <use xlink:href="#Arial-BoldMT-2d" transform="translate(350.146484 0)"/>
     <use xlink:href="#Arial-BoldMT-57" transform="translate(383.447266 0)"/>
     <use xlink:href="#Arial-BoldMT-65" transform="translate(476.082031 0)"/>
     <use xlink:href="#Arial-BoldMT-73" transform="translate(531.697266 0)"/>
     <use xlink:href="#Arial-BoldMT-74" transform="translate(587.3125 0)"/>
     <use xlink:href="#Arial-BoldMT-20" transform="translate(620.613281 0)"/>
     <use xlink:href="#Arial-BoldMT-53" transform="translate(648.396484 0)"/>
     <use xlink:href="#Arial-BoldMT-45" transform="translate(715.095703 0)"/>
     <use xlink:href="#Arial-BoldMT-73" transform="translate(781.794922 0)"/>
     <use xlink:href="#Arial-BoldMT-2c" transform="translate(837.410156 0)"/>
     <use xlink:href="#Arial-BoldMT-20" transform="translate(865.193359 0)"/>
     <use xlink:href="#Arial-BoldMT-42" transform="translate(892.976562 0)"/>
     <use xlink:href="#Arial-BoldMT-59" transform="translate(965.193359 0)"/>
     <use xlink:href="#Arial-BoldMT-2d" transform="translate(1026.392578 0)"/>
     <use xlink:href="#Arial-BoldMT-63" transform="translate(1059.693359 0)"/>
     <use xlink:href="#Arial-BoldMT-6f" transform="translate(1115.308594 0)"/>
     <use xlink:href="#Arial-BoldMT-72" transform="translate(1176.392578 0)"/>
     <use xlink:href="#Arial-BoldMT-72" transform="translate(1215.308594 0)"/>
     <use xlink:href="#Arial-BoldMT-65" transform="translate(1254.224609 0)"/>
     <use xlink:href="#Arial-BoldMT-63" transform="translate(1309.839844 0)"/>
     <use xlink:href="#Arial-BoldMT-74" transform="translate(1365.455078 0)"/>
     <use xlink:href="#Arial-BoldMT-65" transform="translate(1398.755859 0)"/>
     <use xlink:href="#Arial-BoldMT-64" transform="translate(1454.371094 0)"/>
     <use xlink:href="#Arial-BoldMT-20" transform="translate(1515.455078 0)"/>
     <use xlink:href="#Arial-BoldMT-3b1" transform="translate(1543.238281 0)"/>
     <use xlink:href="#Arial-BoldMT-3d" transform="translate(1604.712891 0)"/>
     <use xlink:href="#Arial-BoldMT-30" transform="translate(1663.111328 0)"/>
     <use xlink:href="#Arial-BoldMT-2e" transform="translate(1718.726562 0)"/>
     <use xlink:href="#Arial-BoldMT-30" transform="translate(1746.509766 0)"/>
     <use xlink:href="#Arial-BoldMT-35" transform="translate(1802.125 0)"/>
     <use xlink:href="#Arial-BoldMT-2c" transform="translate(1857.740234 0)"/>
     <use xlink:href="#Arial-BoldMT-20" transform="translate(1885.523438 0)"/>
     <use xlink:href="#Arial-BoldMT-2605" transform="translate(1913.306641 0)"/>
     <use xlink:href="#Arial-BoldMT-20" transform="translate(1988.306641 0)"/>
     <use xlink:href="#Arial-BoldMT-3d" transform="translate(2016.089844 0)"/>
     <use xlink:href="#Arial-BoldMT-20" transform="translate(2074.488281 0)"/>
     <use xlink:href="#Arial-BoldMT-73" transform="translate(2102.271484 0)"/>
     <use xlink:href="#Arial-BoldMT-69" transform="translate(2157.886719 0)"/>
     <use xlink:href="#Arial-BoldMT-67" transform="translate(2185.669922 0)"/>
     <use xlink:href="#Arial-BoldMT-6e" transform="translate(2246.753906 0)"/>
     <use xlink:href="#Arial-BoldMT-69" transform="translate(2307.837891 0)"/>
     <use xlink:href="#Arial-BoldMT-66" transform="translate(2335.621094 0)"/>
     <use xlink:href="#Arial-BoldMT-69" transform="translate(2368.921875 0)"/>
     <use xlink:href="#Arial-BoldMT-63" transform="translate(2396.705078 0)"/>
     <use xlink:href="#Arial-BoldMT-61" transform="translate(2452.320312 0)"/>
     <use xlink:href="#Arial-BoldMT-6e" transform="translate(2507.935547 0)"/>
     <use xlink:href="#Arial-BoldMT-74" transform="translate(2569.019531 0)"/>
     <use xlink:href="#Arial-BoldMT-29" transform="translate(2602.320312 0)"/>
    </g>
   </g>
   <g id="legend_1">
    <g id="patch_36">
     <path d="M 698.02875 681.697625 
L 844.67875 681.697625 
Q 846.07875 681.697625 846.07875 680.297625 
L 846.07875 641.141375 
Q 846.07875 639.741375 844.67875 639.741375 
L 698.02875 639.741375 
Q 696.62875 639.741375 696.62875 641.141375 
L 696.62875 680.297625 
Q 696.62875 681.697625 698.02875 681.697625 
z
" style="fill: #ffffff; opacity: 0.8; stroke: #cccccc; stroke-linejoin: miter"/>
    </g>
    <g id="patch_37">
     <path d="M 699.42875 647.551844 
L 713.42875 647.551844 
L 713.42875 642.651844 
L 699.42875 642.651844 
z
" style="fill: #1a1a2e; stroke: #1a1a2e; stroke-linejoin: miter"/>
    </g>
    <g id="text_37">
     <!-- Autoregressive -->
     <g style="fill: #262626" transform="translate(719.02875 647.551844) scale(0.07 -0.07)">
      <defs>
       <path id="ArialMT-41" d="M -9 0 
L 1750 4581 
L 2403 4581 
L 4278 0 
L 3588 0 
L 3053 1388 
L 1138 1388 
L 634 0 
L -9 0 
z
M 1313 1881 
L 2866 1881 
L 2388 3150 
Q 2169 3728 2063 4100 
Q 1975 3659 1816 3225 
L 1313 1881 
z
" transform="scale(0.015625)"/>
       <path id="ArialMT-76" d="M 1344 0 
L 81 3319 
L 675 3319 
L 1388 1331 
Q 1503 1009 1600 663 
Q 1675 925 1809 1294 
L 2547 3319 
L 3125 3319 
L 1869 0 
L 1344 0 
z
" transform="scale(0.015625)"/>
      </defs>
      <use xlink:href="#ArialMT-41"/>
      <use xlink:href="#ArialMT-75" transform="translate(66.699219 0)"/>
      <use xlink:href="#ArialMT-74" transform="translate(122.314453 0)"/>
      <use xlink:href="#ArialMT-6f" transform="translate(150.097656 0)"/>
      <use xlink:href="#ArialMT-72" transform="translate(205.712891 0)"/>
      <use xlink:href="#ArialMT-65" transform="translate(239.013672 0)"/>
      <use xlink:href="#ArialMT-67" transform="translate(294.628906 0)"/>
      <use xlink:href="#ArialMT-72" transform="translate(350.244141 0)"/>
      <use xlink:href="#ArialMT-65" transform="translate(383.544922 0)"/>
      <use xlink:href="#ArialMT-73" transform="translate(439.160156 0)"/>
      <use xlink:href="#ArialMT-73" transform="translate(489.160156 0)"/>
      <use xlink:href="#ArialMT-69" transform="translate(539.160156 0)"/>
      <use xlink:href="#ArialMT-76" transform="translate(561.376953 0)"/>
      <use xlink:href="#ArialMT-65" transform="translate(611.376953 0)"/>
     </g>
    </g>
    <g id="patch_38">
     <path d="M 699.42875 657.535594 
L 713.42875 657.535594 
L 713.42875 652.635594 
L 699.42875 652.635594 
z
" style="fill: #3498db; stroke: #3498db; stroke-linejoin: miter"/>
    </g>
    <g id="text_38">
     <!-- Weather -->
     <g style="fill: #262626" transform="translate(719.02875 657.535594) scale(0.07 -0.07)">
      <defs>
       <path id="ArialMT-57" d="M 1294 0 
L 78 4581 
L 700 4581 
L 1397 1578 
Q 1509 1106 1591 641 
Q 1766 1375 1797 1488 
L 2669 4581 
L 3400 4581 
L 4056 2263 
Q 4303 1400 4413 641 
Q 4500 1075 4641 1638 
L 5359 4581 
L 5969 4581 
L 4713 0 
L 4128 0 
L 3163 3491 
Q 3041 3928 3019 4028 
Q 2947 3713 2884 3491 
L 1913 0 
L 1294 0 
z
" transform="scale(0.015625)"/>
      </defs>
      <use xlink:href="#ArialMT-57"/>
      <use xlink:href="#ArialMT-65" transform="translate(92.634766 0)"/>
      <use xlink:href="#ArialMT-61" transform="translate(148.25 0)"/>
      <use xlink:href="#ArialMT-74" transform="translate(203.865234 0)"/>
      <use xlink:href="#ArialMT-68" transform="translate(231.648438 0)"/>
      <use xlink:href="#ArialMT-65" transform="translate(287.263672 0)"/>
      <use xlink:href="#ArialMT-72" transform="translate(342.878906 0)"/>
     </g>
    </g>
    <g id="patch_39">
     <path d="M 699.42875 667.522625 
L 713.42875 667.522625 
L 713.42875 662.622625 
L 699.42875 662.622625 
z
" style="fill: #2ecc71; stroke: #2ecc71; stroke-linejoin: miter"/>
    </g>
    <g id="text_39">
     <!-- Seasonality -->
     <g style="fill: #262626" transform="translate(719.02875 667.522625) scale(0.07 -0.07)">
      <defs>
       <path id="ArialMT-53" d="M 288 1472 
L 859 1522 
Q 900 1178 1048 958 
Q 1197 738 1509 602 
Q 1822 466 2213 466 
Q 2559 466 2825 569 
Q 3091 672 3220 851 
Q 3350 1031 3350 1244 
Q 3350 1459 3225 1620 
Q 3100 1781 2813 1891 
Q 2628 1963 1997 2114 
Q 1366 2266 1113 2400 
Q 784 2572 623 2826 
Q 463 3081 463 3397 
Q 463 3744 659 4045 
Q 856 4347 1234 4503 
Q 1613 4659 2075 4659 
Q 2584 4659 2973 4495 
Q 3363 4331 3572 4012 
Q 3781 3694 3797 3291 
L 3216 3247 
Q 3169 3681 2898 3903 
Q 2628 4125 2100 4125 
Q 1550 4125 1298 3923 
Q 1047 3722 1047 3438 
Q 1047 3191 1225 3031 
Q 1400 2872 2139 2705 
Q 2878 2538 3153 2413 
Q 3553 2228 3743 1945 
Q 3934 1663 3934 1294 
Q 3934 928 3725 604 
Q 3516 281 3123 101 
Q 2731 -78 2241 -78 
Q 1619 -78 1198 103 
Q 778 284 539 648 
Q 300 1013 288 1472 
z
" transform="scale(0.015625)"/>
      </defs>
      <use xlink:href="#ArialMT-53"/>
      <use xlink:href="#ArialMT-65" transform="translate(66.699219 0)"/>
      <use xlink:href="#ArialMT-61" transform="translate(122.314453 0)"/>
      <use xlink:href="#ArialMT-73" transform="translate(177.929688 0)"/>
      <use xlink:href="#ArialMT-6f" transform="translate(227.929688 0)"/>
      <use xlink:href="#ArialMT-6e" transform="translate(283.544922 0)"/>
      <use xlink:href="#ArialMT-61" transform="translate(339.160156 0)"/>
      <use xlink:href="#ArialMT-6c" transform="translate(394.775391 0)"/>
      <use xlink:href="#ArialMT-69" transform="translate(416.992188 0)"/>
      <use xlink:href="#ArialMT-74" transform="translate(439.208984 0)"/>
      <use xlink:href="#ArialMT-79" transform="translate(466.992188 0)"/>
     </g>
    </g>
    <g id="patch_40">
     <path d="M 699.42875 677.506375 
L 713.42875 677.506375 
L 713.42875 672.606375 
L 699.42875 672.606375 
z
" style="fill: #9b59b6; stroke: #9b59b6; stroke-linejoin: miter"/>
    </g>
    <g id="text_40">
     <!-- Temporal -->
     <g style="fill: #262626" transform="translate(719.02875 677.506375) scale(0.07 -0.07)">
      <use xlink:href="#ArialMT-54"/>
      <use xlink:href="#ArialMT-65" transform="translate(49.958984 0)"/>
      <use xlink:href="#ArialMT-6d" transform="translate(105.574219 0)"/>
      <use xlink:href="#ArialMT-70" transform="translate(188.875 0)"/>
      <use xlink:href="#ArialMT-6f" transform="translate(244.490234 0)"/>
      <use xlink:href="#ArialMT-72" transform="translate(300.105469 0)"/>
      <use xlink:href="#ArialMT-61" transform="translate(333.40625 0)"/>
      <use xlink:href="#ArialMT-6c" transform="translate(389.021484 0)"/>
     </g>
    </g>
    <g id="patch_41">
     <path d="M 779.715469 647.551844 
L 793.715469 647.551844 
L 793.715469 642.651844 
L 779.715469 642.651844 
z
" style="fill: #e74c3c; stroke: #e74c3c; stroke-linejoin: miter"/>
    </g>
    <g id="text_41">
     <!-- Intervention -->
     <g style="fill: #262626" transform="translate(799.315469 647.551844) scale(0.07 -0.07)">
      <use xlink:href="#ArialMT-49"/>
      <use xlink:href="#ArialMT-6e" transform="translate(27.783203 0)"/>
      <use xlink:href="#ArialMT-74" transform="translate(83.398438 0)"/>
      <use xlink:href="#ArialMT-65" transform="translate(111.181641 0)"/>
      <use xlink:href="#ArialMT-72" transform="translate(166.796875 0)"/>
      <use xlink:href="#ArialMT-76" transform="translate(200.097656 0)"/>
      <use xlink:href="#ArialMT-65" transform="translate(250.097656 0)"/>
      <use xlink:href="#ArialMT-6e" transform="translate(305.712891 0)"/>
      <use xlink:href="#ArialMT-74" transform="translate(361.328125 0)"/>
      <use xlink:href="#ArialMT-69" transform="translate(389.111328 0)"/>
      <use xlink:href="#ArialMT-6f" transform="translate(411.328125 0)"/>
      <use xlink:href="#ArialMT-6e" transform="translate(466.943359 0)"/>
     </g>
    </g>
    <g id="patch_42">
     <path d="M 779.715469 657.453562 
L 793.715469 657.453562 
L 793.715469 652.553562 
L 779.715469 652.553562 
z
" style="fill: #f39c12; stroke: #f39c12; stroke-linejoin: miter"/>
    </g>
    <g id="text_42">
     <!-- Natural event -->
     <g style="fill: #262626" transform="translate(799.315469 657.453562) scale(0.07 -0.07)">
      <defs>
       <path id="ArialMT-4e" d="M 488 0 
L 488 4581 
L 1109 4581 
L 3516 984 
L 3516 4581 
L 4097 4581 
L 4097 0 
L 3475 0 
L 1069 3600 
L 1069 0 
L 488 0 
z
" transform="scale(0.015625)"/>
      </defs>
      <use xlink:href="#ArialMT-4e"/>
      <use xlink:href="#ArialMT-61" transform="translate(72.216797 0)"/>
      <use xlink:href="#ArialMT-74" transform="translate(127.832031 0)"/>
      <use xlink:href="#ArialMT-75" transform="translate(155.615234 0)"/>
      <use xlink:href="#ArialMT-72" transform="translate(211.230469 0)"/>
      <use xlink:href="#ArialMT-61" transform="translate(244.53125 0)"/>
      <use xlink:href="#ArialMT-6c" transform="translate(300.146484 0)"/>
      <use xlink:href="#ArialMT-20" transform="translate(322.363281 0)"/>
      <use xlink:href="#ArialMT-65" transform="translate(350.146484 0)"/>
      <use xlink:href="#ArialMT-76" transform="translate(405.761719 0)"/>
      <use xlink:href="#ArialMT-65" transform="translate(455.761719 0)"/>
      <use xlink:href="#ArialMT-6e" transform="translate(511.376953 0)"/>
      <use xlink:href="#ArialMT-74" transform="translate(566.992188 0)"/>
     </g>
    </g>
    <g id="patch_43">
     <path d="M 779.715469 667.440594 
L 793.715469 667.440594 
L 793.715469 662.540594 
L 779.715469 662.540594 
z
" style="fill: #cccccc; stroke: #cccccc; stroke-linejoin: miter"/>
    </g>
    <g id="text_43">
     <!-- Not significant -->
     <g style="fill: #262626" transform="translate(799.315469 667.440594) scale(0.07 -0.07)">
      <use xlink:href="#ArialMT-4e"/>
      <use xlink:href="#ArialMT-6f" transform="translate(72.216797 0)"/>
      <use xlink:href="#ArialMT-74" transform="translate(127.832031 0)"/>
      <use xlink:href="#ArialMT-20" transform="translate(155.615234 0)"/>
      <use xlink:href="#ArialMT-73" transform="translate(183.398438 0)"/>
      <use xlink:href="#ArialMT-69" transform="translate(233.398438 0)"/>
      <use xlink:href="#ArialMT-67" transform="translate(255.615234 0)"/>
      <use xlink:href="#ArialMT-6e" transform="translate(311.230469 0)"/>
      <use xlink:href="#ArialMT-69" transform="translate(366.845703 0)"/>
      <use xlink:href="#ArialMT-66" transform="translate(389.0625 0)"/>
      <use xlink:href="#ArialMT-69" transform="translate(416.845703 0)"/>
      <use xlink:href="#ArialMT-63" transform="translate(439.0625 0)"/>
      <use xlink:href="#ArialMT-61" transform="translate(489.0625 0)"/>
      <use xlink:href="#ArialMT-6e" transform="translate(544.677734 0)"/>
      <use xlink:href="#ArialMT-74" transform="translate(600.292969 0)"/>
     </g>
    </g>
   </g>
  </g>
 </g>
 <defs>
  <clipPath id="p0cbc5a3412">
   <rect x="80.23875" y="38.213625" width="769.34" height="646.984"/>
  </clipPath>
 </defs>
</svg>
