<?xml version="1.0" encoding="utf-8" standalone="no"?>
<!DOCTYPE svg PUBLIC "-//W3C//DTD SVG 1.1//EN"
  "http://www.w3.org/Graphics/SVG/1.1/DTD/svg11.dtd">
<svg xmlns:xlink="http://www.w3.org/1999/xlink" width="1142.122761pt" height="494.863125pt" viewBox="0 0 1142.122761 494.863125" xmlns="http://www.w3.org/2000/svg" version="1.1">
 <metadata>
  <rdf:RDF xmlns:dc="http://purl.org/dc/elements/1.1/" xmlns:cc="http://creativecommons.org/ns#" xmlns:rdf="http://www.w3.org/1999/02/22-rdf-syntax-ns#">
   <cc:Work>
    <dc:type rdf:resource="http://purl.org/dc/dcmitype/StillImage"/>
    <dc:date>2026-03-28T21:50:08.927280</dc:date>
    <dc:format>image/svg+xml</dc:format>
    <dc:creator>
     <cc:Agent>
      <dc:title>Matplotlib v3.10.8, https://matplotlib.org/</dc:title>
     </cc:Agent>
    </dc:creator>
   </cc:Work>
  </rdf:RDF>
 </metadata>
 <defs>
  <style type="text/css">*{stroke-linejoin: round; stroke-linecap: butt}</style>
 </defs>
 <g id="figure_1">
  <g id="patch_1">
   <path d="M 0 494.863125 
L 1142.122761 494.863125 
L 1142.122761 0 
L 0 0 
z
" style="fill: #ffffff"/>
  </g>
  <g id="axes_1">
   <g id="patch_2">
    <path d="M 38.70625 458.3725 
L 1134.336202 458.3725 
L 1134.336202 24.6525 
L 38.70625 24.6525 
z
" style="fill: #ffffff"/>
   </g>
   <g id="matplotlib.axis_1">
    <g id="xtick_1">
     <g id="line2d_1">
      <path d="M 183.346912 458.3725 
L 183.346912 24.6525 
" clip-path="url(#p832ed544e2)" style="fill: none; stroke: #cccccc; stroke-width: 0.8; stroke-linecap: round"/>
     </g>
     <g id="text_1">
      <!-- 2004 -->
      <g style="fill: #262626" transform="translate(172.225037 472.530312) scale(0.1 -0.1)">
       <defs>
        <path id="ArialMT-32" d="M 3222 541 
L 3222 0 
L 194 0 
Q 188 203 259 391 
Q 375 700 629 1000 
Q 884 1300 1366 1694 
Q 2113 2306 2375 2664 
Q 2638 3022 2638 3341 
Q 2638 3675 2398 3904 
Q 2159 4134 1775 4134 
Q 1369 4134 1125 3890 
Q 881 3647 878 3216 
L 300 3275 
Q 359 3922 746 4261 
Q 1134 4600 1788 4600 
Q 2447 4600 2831 4234 
Q 3216 3869 3216 3328 
Q 3216 3053 3103 2787 
Q 2991 2522 2730 2228 
Q 2469 1934 1863 1422 
Q 1356 997 1212 845 
Q 1069 694 975 541 
L 3222 541 
z
" transform="scale(0.015625)"/>
        <path id="ArialMT-30" d="M 266 2259 
Q 266 3072 433 3567 
Q 600 4063 929 4331 
Q 1259 4600 1759 4600 
Q 2128 4600 2406 4451 
Q 2684 4303 2865 4023 
Q 3047 3744 3150 3342 
Q 3253 2941 3253 2259 
Q 3253 1453 3087 958 
Q 2922 463 2592 192 
Q 2263 -78 1759 -78 
Q 1097 -78 719 397 
Q 266 969 266 2259 
z
M 844 2259 
Q 844 1131 1108 757 
Q 1372 384 1759 384 
Q 2147 384 2411 759 
Q 2675 1134 2675 2259 
Q 2675 3391 2411 3762 
Q 2147 4134 1753 4134 
Q 1366 4134 1134 3806 
Q 844 3388 844 2259 
z
" transform="scale(0.015625)"/>
        <path id="ArialMT-34" d="M 2069 0 
L 2069 1097 
L 81 1097 
L 81 1613 
L 2172 4581 
L 2631 4581 
L 2631 1613 
L 3250 1613 
L 3250 1097 
L 2631 1097 
L 2631 0 
L 2069 0 
z
M 2069 1613 
L 2069 3678 
L 634 1613 
L 2069 1613 
z
" transform="scale(0.015625)"/>
       </defs>
       <use xlink:href="#ArialMT-32"/>
       <use xlink:href="#ArialMT-30" transform="translate(55.615234 0)"/>
       <use xlink:href="#ArialMT-30" transform="translate(111.230469 0)"/>
       <use xlink:href="#ArialMT-34" transform="translate(166.845703 0)"/>
      </g>
     </g>
    </g>
    <g id="xtick_2">
     <g id="line2d_2">
      <path d="M 340.089241 458.3725 
L 340.089241 24.6525 
" clip-path="url(#p832ed544e2)" style="fill: none; stroke: #cccccc; stroke-width: 0.8; stroke-linecap: round"/>
     </g>
     <g id="text_2">
      <!-- 2008 -->
      <g style="fill: #262626" transform="translate(328.967366 472.530312) scale(0.1 -0.1)">
       <defs>
        <path id="ArialMT-38" d="M 1131 2484 
Q 781 2613 612 2850 
Q 444 3088 444 3419 
Q 444 3919 803 4259 
Q 1163 4600 1759 4600 
Q 2359 4600 2725 4251 
Q 3091 3903 3091 3403 
Q 3091 3084 2923 2848 
Q 2756 2613 2416 2484 
Q 2838 2347 3058 2040 
Q 3278 1734 3278 1309 
Q 3278 722 2862 322 
Q 2447 -78 1769 -78 
Q 1091 -78 675 323 
Q 259 725 259 1325 
Q 259 1772 486 2073 
Q 713 2375 1131 2484 
z
M 1019 3438 
Q 1019 3113 1228 2906 
Q 1438 2700 1772 2700 
Q 2097 2700 2305 2904 
Q 2513 3109 2513 3406 
Q 2513 3716 2298 3927 
Q 2084 4138 1766 4138 
Q 1444 4138 1231 3931 
Q 1019 3725 1019 3438 
z
M 838 1322 
Q 838 1081 952 856 
Q 1066 631 1291 507 
Q 1516 384 1775 384 
Q 2178 384 2440 643 
Q 2703 903 2703 1303 
Q 2703 1709 2433 1975 
Q 2163 2241 1756 2241 
Q 1359 2241 1098 1978 
Q 838 1716 838 1322 
z
" transform="scale(0.015625)"/>
       </defs>
       <use xlink:href="#ArialMT-32"/>
       <use xlink:href="#ArialMT-30" transform="translate(55.615234 0)"/>
       <use xlink:href="#ArialMT-30" transform="translate(111.230469 0)"/>
       <use xlink:href="#ArialMT-38" transform="translate(166.845703 0)"/>
      </g>
     </g>
    </g>
    <g id="xtick_3">
     <g id="line2d_3">
      <path d="M 496.83157 458.3725 
L 496.83157 24.6525 
" clip-path="url(#p832ed544e2)" style="fill: none; stroke: #cccccc; stroke-width: 0.8; stroke-linecap: round"/>
     </g>
     <g id="text_3">
      <!-- 2012 -->
      <g style="fill: #262626" transform="translate(485.709695 472.530312) scale(0.1 -0.1)">
       <defs>
        <path id="ArialMT-31" d="M 2384 0 
L 1822 0 
L 1822 3584 
Q 1619 3391 1289 3197 
Q 959 3003 697 2906 
L 697 3450 
Q 1169 3672 1522 3987 
Q 1875 4303 2022 4600 
L 2384 4600 
L 2384 0 
z
" transform="scale(0.015625)"/>
       </defs>
       <use xlink:href="#ArialMT-32"/>
       <use xlink:href="#ArialMT-30" transform="translate(55.615234 0)"/>
       <use xlink:href="#ArialMT-31" transform="translate(111.230469 0)"/>
       <use xlink:href="#ArialMT-32" transform="translate(166.845703 0)"/>
      </g>
     </g>
    </g>
    <g id="xtick_4">
     <g id="line2d_4">
      <path d="M 653.573899 458.3725 
L 653.573899 24.6525 
" clip-path="url(#p832ed544e2)" style="fill: none; stroke: #cccccc; stroke-width: 0.8; stroke-linecap: round"/>
     </g>
     <g id="text_4">
      <!-- 2016 -->
      <g style="fill: #262626" transform="translate(642.452024 472.530312) scale(0.1 -0.1)">
       <defs>
        <path id="ArialMT-36" d="M 3184 3459 
L 2625 3416 
Q 2550 3747 2413 3897 
Q 2184 4138 1850 4138 
Q 1581 4138 1378 3988 
Q 1113 3794 959 3422 
Q 806 3050 800 2363 
Q 1003 2672 1297 2822 
Q 1591 2972 1913 2972 
Q 2475 2972 2870 2558 
Q 3266 2144 3266 1488 
Q 3266 1056 3080 686 
Q 2894 316 2569 119 
Q 2244 -78 1831 -78 
Q 1128 -78 684 439 
Q 241 956 241 2144 
Q 241 3472 731 4075 
Q 1159 4600 1884 4600 
Q 2425 4600 2770 4297 
Q 3116 3994 3184 3459 
z
M 888 1484 
Q 888 1194 1011 928 
Q 1134 663 1356 523 
Q 1578 384 1822 384 
Q 2178 384 2434 671 
Q 2691 959 2691 1453 
Q 2691 1928 2437 2201 
Q 2184 2475 1800 2475 
Q 1419 2475 1153 2201 
Q 888 1928 888 1484 
z
" transform="scale(0.015625)"/>
       </defs>
       <use xlink:href="#ArialMT-32"/>
       <use xlink:href="#ArialMT-30" transform="translate(55.615234 0)"/>
       <use xlink:href="#ArialMT-31" transform="translate(111.230469 0)"/>
       <use xlink:href="#ArialMT-36" transform="translate(166.845703 0)"/>
      </g>
     </g>
    </g>
    <g id="xtick_5">
     <g id="line2d_5">
      <path d="M 810.316228 458.3725 
L 810.316228 24.6525 
" clip-path="url(#p832ed544e2)" style="fill: none; stroke: #cccccc; stroke-width: 0.8; stroke-linecap: round"/>
     </g>
     <g id="text_5">
      <!-- 2020 -->
      <g style="fill: #262626" transform="translate(799.194353 472.530312) scale(0.1 -0.1)">
       <use xlink:href="#ArialMT-32"/>
       <use xlink:href="#ArialMT-30" transform="translate(55.615234 0)"/>
       <use xlink:href="#ArialMT-32" transform="translate(111.230469 0)"/>
       <use xlink:href="#ArialMT-30" transform="translate(166.845703 0)"/>
      </g>
     </g>
    </g>
    <g id="xtick_6">
     <g id="line2d_6">
      <path d="M 967.058557 458.3725 
L 967.058557 24.6525 
" clip-path="url(#p832ed544e2)" style="fill: none; stroke: #cccccc; stroke-width: 0.8; stroke-linecap: round"/>
     </g>
     <g id="text_6">
      <!-- 2024 -->
      <g style="fill: #262626" transform="translate(955.936682 472.530312) scale(0.1 -0.1)">
       <use xlink:href="#ArialMT-32"/>
       <use xlink:href="#ArialMT-30" transform="translate(55.615234 0)"/>
       <use xlink:href="#ArialMT-32" transform="translate(111.230469 0)"/>
       <use xlink:href="#ArialMT-34" transform="translate(166.845703 0)"/>
      </g>
     </g>
    </g>
    <g id="xtick_7">
     <g id="line2d_7">
      <path d="M 1123.800886 458.3725 
L 1123.800886 24.6525 
" clip-path="url(#p832ed544e2)" style="fill: none; stroke: #cccccc; stroke-width: 0.8; stroke-linecap: round"/>
     </g>
     <g id="text_7">
      <!-- 2028 -->
      <g style="fill: #262626" transform="translate(1112.679011 472.530312) scale(0.1 -0.1)">
       <use xlink:href="#ArialMT-32"/>
       <use xlink:href="#ArialMT-30" transform="translate(55.615234 0)"/>
       <use xlink:href="#ArialMT-32" transform="translate(111.230469 0)"/>
       <use xlink:href="#ArialMT-38" transform="translate(166.845703 0)"/>
      </g>
     </g>
    </g>
    <g id="text_8">
     <!-- Year -->
     <g style="fill: #262626" transform="translate(576.416538 485.675625) scale(0.1 -0.1)">
      <defs>
       <path id="ArialMT-59" d="M 1784 0 
L 1784 1941 
L 19 4581 
L 756 4581 
L 1659 3200 
Q 1909 2813 2125 2425 
Q 2331 2784 2625 3234 
L 3513 4581 
L 4219 4581 
L 2391 1941 
L 2391 0 
L 1784 0 
z
" transform="scale(0.015625)"/>
       <path id="ArialMT-65" d="M 2694 1069 
L 3275 997 
Q 3138 488 2766 206 
Q 2394 -75 1816 -75 
Q 1088 -75 661 373 
Q 234 822 234 1631 
Q 234 2469 665 2931 
Q 1097 3394 1784 3394 
Q 2450 3394 2872 2941 
Q 3294 2488 3294 1666 
Q 3294 1616 3291 1516 
L 816 1516 
Q 847 969 1125 678 
Q 1403 388 1819 388 
Q 2128 388 2347 550 
Q 2566 713 2694 1069 
z
M 847 1978 
L 2700 1978 
Q 2663 2397 2488 2606 
Q 2219 2931 1791 2931 
Q 1403 2931 1139 2672 
Q 875 2413 847 1978 
z
" transform="scale(0.015625)"/>
       <path id="ArialMT-61" d="M 2588 409 
Q 2275 144 1986 34 
Q 1697 -75 1366 -75 
Q 819 -75 525 192 
Q 231 459 231 875 
Q 231 1119 342 1320 
Q 453 1522 633 1644 
Q 813 1766 1038 1828 
Q 1203 1872 1538 1913 
Q 2219 1994 2541 2106 
Q 2544 2222 2544 2253 
Q 2544 2597 2384 2738 
Q 2169 2928 1744 2928 
Q 1347 2928 1158 2789 
Q 969 2650 878 2297 
L 328 2372 
Q 403 2725 575 2942 
Q 747 3159 1072 3276 
Q 1397 3394 1825 3394 
Q 2250 3394 2515 3294 
Q 2781 3194 2906 3042 
Q 3031 2891 3081 2659 
Q 3109 2516 3109 2141 
L 3109 1391 
Q 3109 606 3145 398 
Q 3181 191 3288 0 
L 2700 0 
Q 2613 175 2588 409 
z
M 2541 1666 
Q 2234 1541 1622 1453 
Q 1275 1403 1131 1340 
Q 988 1278 909 1158 
Q 831 1038 831 891 
Q 831 666 1001 516 
Q 1172 366 1500 366 
Q 1825 366 2078 508 
Q 2331 650 2450 897 
Q 2541 1088 2541 1459 
L 2541 1666 
z
" transform="scale(0.015625)"/>
       <path id="ArialMT-72" d="M 416 0 
L 416 3319 
L 922 3319 
L 922 2816 
Q 1116 3169 1280 3281 
Q 1444 3394 1641 3394 
Q 1925 3394 2219 3213 
L 2025 2691 
Q 1819 2813 1613 2813 
Q 1428 2813 1281 2702 
Q 1134 2591 1072 2394 
Q 978 2094 978 1738 
L 978 0 
L 416 0 
z
" transform="scale(0.015625)"/>
      </defs>
      <use xlink:href="#ArialMT-59"/>
      <use xlink:href="#ArialMT-65" transform="translate(57.574219 0)"/>
      <use xlink:href="#ArialMT-61" transform="translate(113.189453 0)"/>
      <use xlink:href="#ArialMT-72" transform="translate(168.804688 0)"/>
     </g>
    </g>
   </g>
   <g id="matplotlib.axis_2">
    <g id="ytick_1">
     <g id="line2d_8">
      <path d="M 38.70625 438.657955 
L 1134.336202 438.657955 
" clip-path="url(#p832ed544e2)" style="fill: none; stroke: #cccccc; stroke-width: 0.8; stroke-linecap: round"/>
     </g>
     <g id="text_9">
      <!-- 0 -->
      <g style="fill: #262626" transform="translate(26.145313 442.236861) scale(0.1 -0.1)">
       <use xlink:href="#ArialMT-30"/>
      </g>
     </g>
    </g>
    <g id="ytick_2">
     <g id="line2d_9">
      <path d="M 38.70625 368.871953 
L 1134.336202 368.871953 
" clip-path="url(#p832ed544e2)" style="fill: none; stroke: #cccccc; stroke-width: 0.8; stroke-linecap: round"/>
     </g>
     <g id="text_10">
      <!-- 10 -->
      <g style="fill: #262626" transform="translate(20.584375 372.450859) scale(0.1 -0.1)">
       <use xlink:href="#ArialMT-31"/>
       <use xlink:href="#ArialMT-30" transform="translate(55.615234 0)"/>
      </g>
     </g>
    </g>
    <g id="ytick_3">
     <g id="line2d_10">
      <path d="M 38.70625 299.085951 
L 1134.336202 299.085951 
" clip-path="url(#p832ed544e2)" style="fill: none; stroke: #cccccc; stroke-width: 0.8; stroke-linecap: round"/>
     </g>
     <g id="text_11">
      <!-- 20 -->
      <g style="fill: #262626" transform="translate(20.584375 302.664858) scale(0.1 -0.1)">
       <use xlink:href="#ArialMT-32"/>
       <use xlink:href="#ArialMT-30" transform="translate(55.615234 0)"/>
      </g>
     </g>
    </g>
    <g id="ytick_4">
     <g id="line2d_11">
      <path d="M 38.70625 229.29995 
L 1134.336202 229.29995 
" clip-path="url(#p832ed544e2)" style="fill: none; stroke: #cccccc; stroke-width: 0.8; stroke-linecap: round"/>
     </g>
     <g id="text_12">
      <!-- 30 -->
      <g style="fill: #262626" transform="translate(20.584375 232.878856) scale(0.1 -0.1)">
       <defs>
        <path id="ArialMT-33" d="M 269 1209 
L 831 1284 
Q 928 806 1161 595 
Q 1394 384 1728 384 
Q 2125 384 2398 659 
Q 2672 934 2672 1341 
Q 2672 1728 2419 1979 
Q 2166 2231 1775 2231 
Q 1616 2231 1378 2169 
L 1441 2663 
Q 1497 2656 1531 2656 
Q 1891 2656 2178 2843 
Q 2466 3031 2466 3422 
Q 2466 3731 2256 3934 
Q 2047 4138 1716 4138 
Q 1388 4138 1169 3931 
Q 950 3725 888 3313 
L 325 3413 
Q 428 3978 793 4289 
Q 1159 4600 1703 4600 
Q 2078 4600 2393 4439 
Q 2709 4278 2876 4000 
Q 3044 3722 3044 3409 
Q 3044 3113 2884 2869 
Q 2725 2625 2413 2481 
Q 2819 2388 3044 2092 
Q 3269 1797 3269 1353 
Q 3269 753 2831 336 
Q 2394 -81 1725 -81 
Q 1122 -81 723 278 
Q 325 638 269 1209 
z
" transform="scale(0.015625)"/>
       </defs>
       <use xlink:href="#ArialMT-33"/>
       <use xlink:href="#ArialMT-30" transform="translate(55.615234 0)"/>
      </g>
     </g>
    </g>
    <g id="ytick_5">
     <g id="line2d_12">
      <path d="M 38.70625 159.513948 
L 1134.336202 159.513948 
" clip-path="url(#p832ed544e2)" style="fill: none; stroke: #cccccc; stroke-width: 0.8; stroke-linecap: round"/>
     </g>
     <g id="text_13">
      <!-- 40 -->
      <g style="fill: #262626" transform="translate(20.584375 163.092854) scale(0.1 -0.1)">
       <use xlink:href="#ArialMT-34"/>
       <use xlink:href="#ArialMT-30" transform="translate(55.615234 0)"/>
      </g>
     </g>
    </g>
    <g id="ytick_6">
     <g id="line2d_13">
      <path d="M 38.70625 89.727947 
L 1134.336202 89.727947 
" clip-path="url(#p832ed544e2)" style="fill: none; stroke: #cccccc; stroke-width: 0.8; stroke-linecap: round"/>
     </g>
     <g id="text_14">
      <!-- 50 -->
      <g style="fill: #262626" transform="translate(20.584375 93.306853) scale(0.1 -0.1)">
       <defs>
        <path id="ArialMT-35" d="M 266 1200 
L 856 1250 
Q 922 819 1161 601 
Q 1400 384 1738 384 
Q 2144 384 2425 690 
Q 2706 997 2706 1503 
Q 2706 1984 2436 2262 
Q 2166 2541 1728 2541 
Q 1456 2541 1237 2417 
Q 1019 2294 894 2097 
L 366 2166 
L 809 4519 
L 3088 4519 
L 3088 3981 
L 1259 3981 
L 1013 2750 
Q 1425 3038 1878 3038 
Q 2478 3038 2890 2622 
Q 3303 2206 3303 1553 
Q 3303 931 2941 478 
Q 2500 -78 1738 -78 
Q 1113 -78 717 272 
Q 322 622 266 1200 
z
" transform="scale(0.015625)"/>
       </defs>
       <use xlink:href="#ArialMT-35"/>
       <use xlink:href="#ArialMT-30" transform="translate(55.615234 0)"/>
      </g>
     </g>
    </g>
    <g id="text_15">
     <!-- Concentration (µg/m³) -->
     <g style="fill: #262626" transform="translate(14.479688 290.239844) rotate(-90) scale(0.1 -0.1)">
      <defs>
       <path id="ArialMT-43" d="M 3763 1606 
L 4369 1453 
Q 4178 706 3683 314 
Q 3188 -78 2472 -78 
Q 1731 -78 1267 223 
Q 803 525 561 1097 
Q 319 1669 319 2325 
Q 319 3041 592 3573 
Q 866 4106 1370 4382 
Q 1875 4659 2481 4659 
Q 3169 4659 3637 4309 
Q 4106 3959 4291 3325 
L 3694 3184 
Q 3534 3684 3231 3912 
Q 2928 4141 2469 4141 
Q 1941 4141 1586 3887 
Q 1231 3634 1087 3207 
Q 944 2781 944 2328 
Q 944 1744 1114 1308 
Q 1284 872 1643 656 
Q 2003 441 2422 441 
Q 2931 441 3284 734 
Q 3638 1028 3763 1606 
z
" transform="scale(0.015625)"/>
       <path id="ArialMT-6f" d="M 213 1659 
Q 213 2581 725 3025 
Q 1153 3394 1769 3394 
Q 2453 3394 2887 2945 
Q 3322 2497 3322 1706 
Q 3322 1066 3130 698 
Q 2938 331 2570 128 
Q 2203 -75 1769 -75 
Q 1072 -75 642 372 
Q 213 819 213 1659 
z
M 791 1659 
Q 791 1022 1069 705 
Q 1347 388 1769 388 
Q 2188 388 2466 706 
Q 2744 1025 2744 1678 
Q 2744 2294 2464 2611 
Q 2184 2928 1769 2928 
Q 1347 2928 1069 2612 
Q 791 2297 791 1659 
z
" transform="scale(0.015625)"/>
       <path id="ArialMT-6e" d="M 422 0 
L 422 3319 
L 928 3319 
L 928 2847 
Q 1294 3394 1984 3394 
Q 2284 3394 2536 3286 
Q 2788 3178 2913 3003 
Q 3038 2828 3088 2588 
Q 3119 2431 3119 2041 
L 3119 0 
L 2556 0 
L 2556 2019 
Q 2556 2363 2490 2533 
Q 2425 2703 2258 2804 
Q 2091 2906 1866 2906 
Q 1506 2906 1245 2678 
Q 984 2450 984 1813 
L 984 0 
L 422 0 
z
" transform="scale(0.015625)"/>
       <path id="ArialMT-63" d="M 2588 1216 
L 3141 1144 
Q 3050 572 2676 248 
Q 2303 -75 1759 -75 
Q 1078 -75 664 370 
Q 250 816 250 1647 
Q 250 2184 428 2587 
Q 606 2991 970 3192 
Q 1334 3394 1763 3394 
Q 2303 3394 2647 3120 
Q 2991 2847 3088 2344 
L 2541 2259 
Q 2463 2594 2264 2762 
Q 2066 2931 1784 2931 
Q 1359 2931 1093 2626 
Q 828 2322 828 1663 
Q 828 994 1084 691 
Q 1341 388 1753 388 
Q 2084 388 2306 591 
Q 2528 794 2588 1216 
z
" transform="scale(0.015625)"/>
       <path id="ArialMT-74" d="M 1650 503 
L 1731 6 
Q 1494 -44 1306 -44 
Q 1000 -44 831 53 
Q 663 150 594 308 
Q 525 466 525 972 
L 525 2881 
L 113 2881 
L 113 3319 
L 525 3319 
L 525 4141 
L 1084 4478 
L 1084 3319 
L 1650 3319 
L 1650 2881 
L 1084 2881 
L 1084 941 
Q 1084 700 1114 631 
Q 1144 563 1211 522 
Q 1278 481 1403 481 
Q 1497 481 1650 503 
z
" transform="scale(0.015625)"/>
       <path id="ArialMT-69" d="M 425 3934 
L 425 4581 
L 988 4581 
L 988 3934 
L 425 3934 
z
M 425 0 
L 425 3319 
L 988 3319 
L 988 0 
L 425 0 
z
" transform="scale(0.015625)"/>
       <path id="ArialMT-20" transform="scale(0.015625)"/>
       <path id="ArialMT-28" d="M 1497 -1347 
Q 1031 -759 709 28 
Q 388 816 388 1659 
Q 388 2403 628 3084 
Q 909 3875 1497 4659 
L 1900 4659 
Q 1522 4009 1400 3731 
Q 1209 3300 1100 2831 
Q 966 2247 966 1656 
Q 966 153 1900 -1347 
L 1497 -1347 
z
" transform="scale(0.015625)"/>
       <path id="ArialMT-b5" d="M 3181 3319 
L 3181 0 
L 2678 0 
L 2678 394 
Q 2516 144 2356 50 
Q 2138 -78 1847 -78 
Q 1588 -78 1388 25 
Q 1238 103 1056 334 
L 1056 -1272 
L 500 -1272 
L 500 3319 
L 1056 3319 
L 1056 1913 
Q 1056 1147 1137 920 
Q 1219 694 1401 562 
Q 1584 431 1822 431 
Q 2072 431 2269 568 
Q 2466 706 2547 923 
Q 2628 1141 2628 1903 
L 2628 3319 
L 3181 3319 
z
" transform="scale(0.015625)"/>
       <path id="ArialMT-67" d="M 319 -275 
L 866 -356 
Q 900 -609 1056 -725 
Q 1266 -881 1628 -881 
Q 2019 -881 2231 -725 
Q 2444 -569 2519 -288 
Q 2563 -116 2559 434 
Q 2191 0 1641 0 
Q 956 0 581 494 
Q 206 988 206 1678 
Q 206 2153 378 2554 
Q 550 2956 876 3175 
Q 1203 3394 1644 3394 
Q 2231 3394 2613 2919 
L 2613 3319 
L 3131 3319 
L 3131 450 
Q 3131 -325 2973 -648 
Q 2816 -972 2473 -1159 
Q 2131 -1347 1631 -1347 
Q 1038 -1347 672 -1080 
Q 306 -813 319 -275 
z
M 784 1719 
Q 784 1066 1043 766 
Q 1303 466 1694 466 
Q 2081 466 2343 764 
Q 2606 1063 2606 1700 
Q 2606 2309 2336 2618 
Q 2066 2928 1684 2928 
Q 1309 2928 1046 2623 
Q 784 2319 784 1719 
z
" transform="scale(0.015625)"/>
       <path id="ArialMT-2f" d="M 0 -78 
L 1328 4659 
L 1778 4659 
L 453 -78 
L 0 -78 
z
" transform="scale(0.015625)"/>
       <path id="ArialMT-6d" d="M 422 0 
L 422 3319 
L 925 3319 
L 925 2853 
Q 1081 3097 1340 3245 
Q 1600 3394 1931 3394 
Q 2300 3394 2536 3241 
Q 2772 3088 2869 2813 
Q 3263 3394 3894 3394 
Q 4388 3394 4653 3120 
Q 4919 2847 4919 2278 
L 4919 0 
L 4359 0 
L 4359 2091 
Q 4359 2428 4304 2576 
Q 4250 2725 4106 2815 
Q 3963 2906 3769 2906 
Q 3419 2906 3187 2673 
Q 2956 2441 2956 1928 
L 2956 0 
L 2394 0 
L 2394 2156 
Q 2394 2531 2256 2718 
Q 2119 2906 1806 2906 
Q 1569 2906 1367 2781 
Q 1166 2656 1075 2415 
Q 984 2175 984 1722 
L 984 0 
L 422 0 
z
" transform="scale(0.015625)"/>
       <path id="ArialMT-b3" d="M 103 2903 
L 559 2950 
Q 622 2763 722 2694 
Q 856 2600 1041 2600 
Q 1263 2600 1397 2722 
Q 1531 2844 1531 3016 
Q 1531 3172 1418 3265 
Q 1306 3359 1034 3359 
Q 997 3359 931 3353 
Q 888 3350 863 3350 
L 931 3694 
Q 1184 3691 1301 3784 
Q 1419 3878 1419 4013 
Q 1419 4128 1325 4209 
Q 1231 4291 1047 4291 
Q 872 4291 773 4222 
Q 675 4153 603 3972 
L 156 4044 
Q 284 4375 479 4506 
Q 675 4638 1050 4638 
Q 1500 4638 1704 4470 
Q 1909 4303 1909 4053 
Q 1909 3881 1798 3747 
Q 1688 3613 1478 3553 
Q 1756 3484 1887 3326 
Q 2019 3169 2019 2956 
Q 2019 2666 1772 2450 
Q 1525 2234 1069 2234 
Q 631 2234 400 2407 
Q 169 2581 103 2903 
z
" transform="scale(0.015625)"/>
       <path id="ArialMT-29" d="M 791 -1347 
L 388 -1347 
Q 1322 153 1322 1656 
Q 1322 2244 1188 2822 
Q 1081 3291 891 3722 
Q 769 4003 388 4659 
L 791 4659 
Q 1378 3875 1659 3084 
Q 1900 2403 1900 1659 
Q 1900 816 1576 28 
Q 1253 -759 791 -1347 
z
" transform="scale(0.015625)"/>
      </defs>
      <use xlink:href="#ArialMT-43"/>
      <use xlink:href="#ArialMT-6f" transform="translate(72.216797 0)"/>
      <use xlink:href="#ArialMT-6e" transform="translate(127.832031 0)"/>
      <use xlink:href="#ArialMT-63" transform="translate(183.447266 0)"/>
      <use xlink:href="#ArialMT-65" transform="translate(233.447266 0)"/>
      <use xlink:href="#ArialMT-6e" transform="translate(289.0625 0)"/>
      <use xlink:href="#ArialMT-74" transform="translate(344.677734 0)"/>
      <use xlink:href="#ArialMT-72" transform="translate(372.460938 0)"/>
      <use xlink:href="#ArialMT-61" transform="translate(405.761719 0)"/>
      <use xlink:href="#ArialMT-74" transform="translate(461.376953 0)"/>
      <use xlink:href="#ArialMT-69" transform="translate(489.160156 0)"/>
      <use xlink:href="#ArialMT-6f" transform="translate(511.376953 0)"/>
      <use xlink:href="#ArialMT-6e" transform="translate(566.992188 0)"/>
      <use xlink:href="#ArialMT-20" transform="translate(622.607422 0)"/>
      <use xlink:href="#ArialMT-28" transform="translate(650.390625 0)"/>
      <use xlink:href="#ArialMT-b5" transform="translate(683.691406 0)"/>
      <use xlink:href="#ArialMT-67" transform="translate(741.308594 0)"/>
      <use xlink:href="#ArialMT-2f" transform="translate(796.923828 0)"/>
      <use xlink:href="#ArialMT-6d" transform="translate(824.707031 0)"/>
      <use xlink:href="#ArialMT-b3" transform="translate(908.007812 0)"/>
      <use xlink:href="#ArialMT-29" transform="translate(941.308594 0)"/>
     </g>
    </g>
   </g>
   <g id="FillBetweenPolyCollection_1">
    <defs>
     <path id="m66df397e70" d="M 88.507611 -56.20517 
L 88.507611 -398.156578 
L 127.666373 -412.113779 
L 166.825134 -450.49608 
L 206.091179 -429.560279 
L 245.24994 -440.028179 
L 284.408701 -415.603079 
L 323.567463 -405.135178 
L 362.833508 -401.645878 
L 401.992269 -422.581679 
L 441.15103 -398.156578 
L 480.309791 -391.177978 
L 519.575837 -380.710078 
L 558.734598 -373.731478 
L 597.893359 -373.731478 
L 637.05212 -370.242178 
L 656.792427 -344.452311 
L 659.903671 -316.109855 
L 663.229484 -367.241241 
L 666.448012 -363.419117 
L 669.773825 -345.52797 
L 672.992353 -326.071257 
L 676.318166 -354.44423 
L 679.643978 -351.54953 
L 682.862507 -411.474495 
L 686.188319 -332.215029 
L 689.406848 -359.773741 
L 692.73266 -357.924589 
L 696.058473 -417.80102 
L 699.062433 -351.310196 
L 702.388245 -368.082399 
L 705.606773 -373.501176 
L 708.932586 -368.092267 
L 712.151114 -322.668184 
L 715.476927 -296.735643 
L 718.802739 -333.069468 
L 722.021268 -297.885499 
L 725.34708 -293.716762 
L 728.565609 -313.26606 
L 731.891421 -279.633545 
L 735.217234 -285.520914 
L 738.221194 -330.92592 
L 741.547006 -344.255334 
L 744.765535 -358.068187 
L 748.091347 -336.043693 
L 751.309875 -293.353661 
L 754.635688 -357.471546 
L 757.961501 -353.358041 
L 761.180029 -364.308471 
L 764.505842 -363.88489 
L 767.72437 -330.523423 
L 771.050182 -282.672391 
L 774.375995 -301.895221 
L 777.379955 -406.469669 
L 780.705767 -288.548267 
L 783.924296 -302.984482 
L 787.250108 -285.814248 
L 790.468637 -261.622293 
L 793.794449 -264.852116 
L 797.120262 -276.35633 
L 800.33879 -259.554879 
L 803.664603 -248.346229 
L 806.883131 -269.984833 
L 810.208944 -288.111289 
L 813.534756 -280.8142 
L 816.646 -226.980994 
L 819.971813 -231.781278 
L 823.190341 -241.687597 
L 826.516154 -208.921794 
L 829.734682 -209.458693 
L 833.060495 -207.293484 
L 836.386307 -241.6259 
L 839.604836 -267.355445 
L 842.930648 -208.935809 
L 846.149176 -246.477378 
L 849.474989 -249.561596 
L 852.800802 -220.286285 
L 855.804761 -287.633179 
L 859.130574 -265.972273 
L 862.349102 -228.479708 
L 865.674915 -180.741292 
L 868.893443 -226.488531 
L 872.219256 -193.263377 
L 875.545068 -191.184816 
L 878.763597 -232.884977 
L 882.089409 -241.357352 
L 885.307938 -249.056637 
L 888.63375 -253.796488 
L 891.959563 -232.949883 
L 894.963523 -217.057404 
L 898.289335 -292.935677 
L 901.507863 -208.823279 
L 904.833676 -202.100742 
L 908.052204 -203.073309 
L 911.378017 -210.063947 
L 914.70383 -226.046387 
L 917.922358 -212.557658 
L 921.24817 -215.953024 
L 924.466699 -228.152037 
L 927.792511 -227.643137 
L 931.118324 -182.505234 
L 934.122284 -231.563043 
L 937.448096 -213.256504 
L 940.666625 -196.209333 
L 943.992437 -174.854192 
L 947.210965 -192.912348 
L 950.536778 -173.590388 
L 953.862591 -171.449868 
L 957.081119 -211.588381 
L 960.406932 -196.85997 
L 963.62546 -177.502934 
L 966.951272 -191.546866 
L 970.277085 -225.075712 
L 973.388329 -189.16648 
L 976.714142 -229.376572 
L 979.93267 -194.123127 
L 983.258483 -175.773518 
L 986.477011 -168.575172 
L 989.802823 -175.057342 
L 993.128636 -180.843343 
L 996.347164 -179.4725 
L 999.672977 -193.834268 
L 1002.891505 -200.016589 
L 1006.217318 -194.993957 
L 1009.54313 -225.496266 
L 1012.54709 -248.824423 
L 1015.872903 -274.138739 
L 1019.091431 -208.337141 
L 1022.417244 -175.787847 
L 1025.635772 -163.122824 
L 1028.961585 -170.816199 
L 1032.287397 -185.334558 
L 1035.505926 -169.335404 
L 1038.831738 -180.839131 
L 1042.050266 -244.286873 
L 1045.376079 -232.00936 
L 1048.701892 -238.437089 
L 1051.705851 -217.063698 
L 1055.031664 -247.997746 
L 1055.031664 -56.20517 
L 1055.031664 -56.20517 
L 1051.705851 -56.20517 
L 1048.701892 -56.20517 
L 1045.376079 -56.20517 
L 1042.050266 -56.20517 
L 1038.831738 -56.20517 
L 1035.505926 -56.20517 
L 1032.287397 -56.20517 
L 1028.961585 -56.20517 
L 1025.635772 -56.20517 
L 1022.417244 -56.20517 
L 1019.091431 -56.20517 
L 1015.872903 -56.20517 
L 1012.54709 -56.20517 
L 1009.54313 -56.20517 
L 1006.217318 -56.20517 
L 1002.891505 -56.20517 
L 999.672977 -56.20517 
L 996.347164 -56.20517 
L 993.128636 -56.20517 
L 989.802823 -56.20517 
L 986.477011 -56.20517 
L 983.258483 -56.20517 
L 979.93267 -56.20517 
L 976.714142 -56.20517 
L 973.388329 -56.20517 
L 970.277085 -56.20517 
L 966.951272 -56.20517 
L 963.62546 -56.20517 
L 960.406932 -56.20517 
L 957.081119 -56.20517 
L 953.862591 -56.20517 
L 950.536778 -56.20517 
L 947.210965 -56.20517 
L 943.992437 -56.20517 
L 940.666625 -56.20517 
L 937.448096 -56.20517 
L 934.122284 -56.20517 
L 931.118324 -56.20517 
L 927.792511 -56.20517 
L 924.466699 -56.20517 
L 921.24817 -56.20517 
L 917.922358 -56.20517 
L 914.70383 -56.20517 
L 911.378017 -56.20517 
L 908.052204 -56.20517 
L 904.833676 -56.20517 
L 901.507863 -56.20517 
L 898.289335 -56.20517 
L 894.963523 -56.20517 
L 891.959563 -56.20517 
L 888.63375 -56.20517 
L 885.307938 -56.20517 
L 882.089409 -56.20517 
L 878.763597 -56.20517 
L 875.545068 -56.20517 
L 872.219256 -56.20517 
L 868.893443 -56.20517 
L 865.674915 -56.20517 
L 862.349102 -56.20517 
L 859.130574 -56.20517 
L 855.804761 -56.20517 
L 852.800802 -56.20517 
L 849.474989 -56.20517 
L 846.149176 -56.20517 
L 842.930648 -56.20517 
L 839.604836 -56.20517 
L 836.386307 -56.20517 
L 833.060495 -56.20517 
L 829.734682 -56.20517 
L 826.516154 -56.20517 
L 823.190341 -56.20517 
L 819.971813 -56.20517 
L 816.646 -56.20517 
L 813.534756 -56.20517 
L 810.208944 -56.20517 
L 806.883131 -56.20517 
L 803.664603 -56.20517 
L 800.33879 -56.20517 
L 797.120262 -56.20517 
L 793.794449 -56.20517 
L 790.468637 -56.20517 
L 787.250108 -56.20517 
L 783.924296 -56.20517 
L 780.705767 -56.20517 
L 777.379955 -56.20517 
L 774.375995 -56.20517 
L 771.050182 -56.20517 
L 767.72437 -56.20517 
L 764.505842 -56.20517 
L 761.180029 -56.20517 
L 757.961501 -56.20517 
L 754.635688 -56.20517 
L 751.309875 -56.20517 
L 748.091347 -56.20517 
L 744.765535 -56.20517 
L 741.547006 -56.20517 
L 738.221194 -56.20517 
L 735.217234 -56.20517 
L 731.891421 -56.20517 
L 728.565609 -56.20517 
L 725.34708 -56.20517 
L 722.021268 -56.20517 
L 718.802739 -56.20517 
L 715.476927 -56.20517 
L 712.151114 -56.20517 
L 708.932586 -56.20517 
L 705.606773 -56.20517 
L 702.388245 -56.20517 
L 699.062433 -56.20517 
L 696.058473 -56.20517 
L 692.73266 -56.20517 
L 689.406848 -56.20517 
L 686.188319 -56.20517 
L 682.862507 -56.20517 
L 679.643978 -56.20517 
L 676.318166 -56.20517 
L 672.992353 -56.20517 
L 669.773825 -56.20517 
L 666.448012 -56.20517 
L 663.229484 -56.20517 
L 659.903671 -56.20517 
L 656.792427 -56.20517 
L 637.05212 -56.20517 
L 597.893359 -56.20517 
L 558.734598 -56.20517 
L 519.575837 -56.20517 
L 480.309791 -56.20517 
L 441.15103 -56.20517 
L 401.992269 -56.20517 
L 362.833508 -56.20517 
L 323.567463 -56.20517 
L 284.408701 -56.20517 
L 245.24994 -56.20517 
L 206.091179 -56.20517 
L 166.825134 -56.20517 
L 127.666373 -56.20517 
L 88.507611 -56.20517 
z
" style="stroke: #4682b4; stroke-opacity: 0.15"/>
    </defs>
    <g clip-path="url(#p832ed544e2)">
     <use xlink:href="#m66df397e70" x="0" y="494.863125" style="fill: #4682b4; fill-opacity: 0.15; stroke: #4682b4; stroke-opacity: 0.15"/>
    </g>
   </g>
   <g id="line2d_14">
    <path d="M 88.507611 96.706547 
L 127.666373 82.749346 
L 166.825134 44.367045 
L 206.091179 65.302846 
L 245.24994 54.834946 
L 284.408701 79.260046 
L 323.567463 89.727947 
L 362.833508 93.217247 
L 401.992269 72.281446 
L 441.15103 96.706547 
L 480.309791 103.685147 
L 519.575837 114.153047 
L 558.734598 121.131647 
L 597.893359 121.131647 
L 637.05212 124.620947 
L 656.792427 150.410814 
L 659.903671 178.75327 
L 663.229484 127.621884 
L 666.448012 131.444008 
L 669.773825 149.335155 
L 672.992353 168.791868 
L 676.318166 140.418895 
L 679.643978 143.313595 
L 682.862507 83.38863 
L 686.188319 162.648096 
L 689.406848 135.089384 
L 692.73266 136.938536 
L 696.058473 77.062105 
L 699.062433 143.552929 
L 702.388245 126.780726 
L 705.606773 121.361949 
L 708.932586 126.770858 
L 712.151114 172.194941 
L 715.476927 198.127482 
L 718.802739 161.793657 
L 722.021268 196.977626 
L 725.34708 201.146363 
L 728.565609 181.597065 
L 731.891421 215.22958 
L 735.217234 209.342211 
L 738.221194 163.937205 
L 741.547006 150.607791 
L 744.765535 136.794938 
L 748.091347 158.819432 
L 751.309875 201.509464 
L 754.635688 137.391579 
L 757.961501 141.505084 
L 761.180029 130.554654 
L 764.505842 130.978235 
L 767.72437 164.339702 
L 771.050182 212.190734 
L 774.375995 192.967904 
L 777.379955 88.393456 
L 780.705767 206.314858 
L 783.924296 191.878643 
L 787.250108 209.048877 
L 790.468637 233.240832 
L 793.794449 230.011009 
L 797.120262 218.506795 
L 800.33879 235.308246 
L 803.664603 246.516896 
L 806.883131 224.878292 
L 810.208944 206.751836 
L 813.534756 214.048925 
L 816.646 267.882131 
L 819.971813 263.081847 
L 823.190341 253.175528 
L 826.516154 285.941331 
L 829.734682 285.404432 
L 833.060495 287.569641 
L 836.386307 253.237225 
L 839.604836 227.50768 
L 842.930648 285.927316 
L 846.149176 248.385747 
L 849.474989 245.301529 
L 852.800802 274.57684 
L 855.804761 207.229946 
L 859.130574 228.890852 
L 862.349102 266.383417 
L 865.674915 314.121833 
L 868.893443 268.374594 
L 872.219256 301.599748 
L 875.545068 303.678309 
L 878.763597 261.978148 
L 882.089409 253.505773 
L 885.307938 245.806488 
L 888.63375 241.066637 
L 891.959563 261.913242 
L 894.963523 277.805721 
L 898.289335 201.927448 
L 901.507863 286.039846 
L 904.833676 292.762383 
L 908.052204 291.789816 
L 911.378017 284.799178 
L 914.70383 268.816738 
L 917.922358 282.305467 
L 921.24817 278.910101 
L 924.466699 266.711088 
L 927.792511 267.219988 
L 931.118324 312.357891 
L 934.122284 263.300082 
L 937.448096 281.606621 
L 940.666625 298.653792 
L 943.992437 320.008933 
L 947.210965 301.950777 
L 950.536778 321.272737 
L 953.862591 323.413257 
L 957.081119 283.274744 
L 960.406932 298.003155 
L 963.62546 317.360191 
L 966.951272 303.316259 
L 970.277085 269.787413 
L 973.388329 305.696645 
L 976.714142 265.486553 
L 979.93267 300.739998 
L 983.258483 319.089607 
L 986.477011 326.287953 
L 989.802823 319.805783 
L 993.128636 314.019782 
L 996.347164 315.390625 
L 999.672977 301.028857 
L 1002.891505 294.846536 
L 1006.217318 299.869168 
L 1009.54313 269.366859 
L 1015.872903 220.724386 
L 1019.091431 286.525984 
L 1022.417244 319.075278 
L 1025.635772 331.740301 
L 1028.961585 324.046926 
L 1032.287397 309.528567 
L 1035.505926 325.527721 
L 1038.831738 314.023994 
L 1042.050266 250.576252 
L 1045.376079 262.853765 
L 1048.701892 256.426036 
L 1051.705851 277.799427 
L 1055.031664 246.865379 
L 1055.031664 246.865379 
" clip-path="url(#p832ed544e2)" style="fill: none; stroke: #4682b4; stroke-opacity: 0.4; stroke-width: 0.8; stroke-linecap: round"/>
   </g>
   <g id="line2d_15">
    <path d="M 104.922106 96.706547 
L 144.080867 82.749346 
L 183.239628 44.367045 
L 222.505674 65.302846 
L 261.664435 54.834946 
L 300.823196 79.260046 
L 339.981957 89.727947 
L 379.248002 93.217247 
L 418.406764 72.281446 
L 457.565525 96.706547 
L 496.724286 103.685147 
L 535.990331 114.153047 
L 575.149092 121.131647 
L 614.307854 121.131647 
L 653.466615 124.620947 
L 692.73266 142.285677 
L 731.891421 160.267571 
L 771.050182 161.51258 
L 810.208944 207.802358 
L 849.474989 259.811819 
L 888.63375 264.44335 
L 927.792511 271.591145 
L 966.951272 302.380635 
L 1006.217318 302.53439 
L 1045.376079 288.570971 
L 1084.53484 260.227835 
" clip-path="url(#p832ed544e2)" style="fill: none; stroke: #000080; stroke-width: 3; stroke-linecap: round"/>
    <defs>
     <path id="m4d59fcb60b" d="M 0 2.5 
C 0.663008 2.5 1.29895 2.236584 1.767767 1.767767 
C 2.236584 1.29895 2.5 0.663008 2.5 0 
C 2.5 -0.663008 2.236584 -1.29895 1.767767 -1.767767 
C 1.29895 -2.236584 0.663008 -2.5 0 -2.5 
C -0.663008 -2.5 -1.29895 -2.236584 -1.767767 -1.767767 
C -2.236584 -1.29895 -2.5 -0.663008 -2.5 0 
C -2.5 0.663008 -2.236584 1.29895 -1.767767 1.767767 
C -1.29895 2.236584 -0.663008 2.5 0 2.5 
z
" style="stroke: #000080"/>
    </defs>
    <g clip-path="url(#p832ed544e2)">
     <use xlink:href="#m4d59fcb60b" x="104.922106" y="96.706547" style="fill: #000080; stroke: #000080"/>
     <use xlink:href="#m4d59fcb60b" x="144.080867" y="82.749346" style="fill: #000080; stroke: #000080"/>
     <use xlink:href="#m4d59fcb60b" x="183.239628" y="44.367045" style="fill: #000080; stroke: #000080"/>
     <use xlink:href="#m4d59fcb60b" x="222.505674" y="65.302846" style="fill: #000080; stroke: #000080"/>
     <use xlink:href="#m4d59fcb60b" x="261.664435" y="54.834946" style="fill: #000080; stroke: #000080"/>
     <use xlink:href="#m4d59fcb60b" x="300.823196" y="79.260046" style="fill: #000080; stroke: #000080"/>
     <use xlink:href="#m4d59fcb60b" x="339.981957" y="89.727947" style="fill: #000080; stroke: #000080"/>
     <use xlink:href="#m4d59fcb60b" x="379.248002" y="93.217247" style="fill: #000080; stroke: #000080"/>
     <use xlink:href="#m4d59fcb60b" x="418.406764" y="72.281446" style="fill: #000080; stroke: #000080"/>
     <use xlink:href="#m4d59fcb60b" x="457.565525" y="96.706547" style="fill: #000080; stroke: #000080"/>
     <use xlink:href="#m4d59fcb60b" x="496.724286" y="103.685147" style="fill: #000080; stroke: #000080"/>
     <use xlink:href="#m4d59fcb60b" x="535.990331" y="114.153047" style="fill: #000080; stroke: #000080"/>
     <use xlink:href="#m4d59fcb60b" x="575.149092" y="121.131647" style="fill: #000080; stroke: #000080"/>
     <use xlink:href="#m4d59fcb60b" x="614.307854" y="121.131647" style="fill: #000080; stroke: #000080"/>
     <use xlink:href="#m4d59fcb60b" x="653.466615" y="124.620947" style="fill: #000080; stroke: #000080"/>
     <use xlink:href="#m4d59fcb60b" x="692.73266" y="142.285677" style="fill: #000080; stroke: #000080"/>
     <use xlink:href="#m4d59fcb60b" x="731.891421" y="160.267571" style="fill: #000080; stroke: #000080"/>
     <use xlink:href="#m4d59fcb60b" x="771.050182" y="161.51258" style="fill: #000080; stroke: #000080"/>
     <use xlink:href="#m4d59fcb60b" x="810.208944" y="207.802358" style="fill: #000080; stroke: #000080"/>
     <use xlink:href="#m4d59fcb60b" x="849.474989" y="259.811819" style="fill: #000080; stroke: #000080"/>
     <use xlink:href="#m4d59fcb60b" x="888.63375" y="264.44335" style="fill: #000080; stroke: #000080"/>
     <use xlink:href="#m4d59fcb60b" x="927.792511" y="271.591145" style="fill: #000080; stroke: #000080"/>
     <use xlink:href="#m4d59fcb60b" x="966.951272" y="302.380635" style="fill: #000080; stroke: #000080"/>
     <use xlink:href="#m4d59fcb60b" x="1006.217318" y="302.53439" style="fill: #000080; stroke: #000080"/>
     <use xlink:href="#m4d59fcb60b" x="1045.376079" y="288.570971" style="fill: #000080; stroke: #000080"/>
     <use xlink:href="#m4d59fcb60b" x="1084.53484" y="260.227835" style="fill: #000080; stroke: #000080"/>
    </g>
   </g>
   <g id="line2d_16">
    <path d="M 38.70625 159.513948 
L 1134.336202 159.513948 
" clip-path="url(#p832ed544e2)" style="fill: none; stroke-dasharray: 5.55,2.4; stroke-dashoffset: 0; stroke: #dc143c; stroke-width: 1.5"/>
   </g>
   <g id="patch_3">
    <path d="M 38.70625 458.3725 
L 38.70625 24.6525 
" style="fill: none; stroke: #cccccc; stroke-width: 0.8; stroke-linejoin: miter; stroke-linecap: square"/>
   </g>
   <g id="patch_4">
    <path d="M 1134.336202 458.3725 
L 1134.336202 24.6525 
" style="fill: none; stroke: #cccccc; stroke-width: 0.8; stroke-linejoin: miter; stroke-linecap: square"/>
   </g>
   <g id="patch_5">
    <path d="M 38.70625 458.3725 
L 1134.336202 458.3725 
" style="fill: none; stroke: #cccccc; stroke-width: 0.8; stroke-linejoin: miter; stroke-linecap: square"/>
   </g>
   <g id="patch_6">
    <path d="M 38.70625 24.6525 
L 1134.336202 24.6525 
" style="fill: none; stroke: #cccccc; stroke-width: 0.8; stroke-linejoin: miter; stroke-linecap: square"/>
   </g>
   <g id="text_16">
    <!-- Darmstadt NO2 — 2001–2026 Combined Trend -->
    <g style="fill: #262626" transform="translate(417.106226 18.6525) scale(0.16 -0.16)">
     <defs>
      <path id="ArialMT-44" d="M 494 0 
L 494 4581 
L 2072 4581 
Q 2606 4581 2888 4516 
Q 3281 4425 3559 4188 
Q 3922 3881 4101 3404 
Q 4281 2928 4281 2316 
Q 4281 1794 4159 1391 
Q 4038 988 3847 723 
Q 3656 459 3429 307 
Q 3203 156 2883 78 
Q 2563 0 2147 0 
L 494 0 
z
M 1100 541 
L 2078 541 
Q 2531 541 2789 625 
Q 3047 709 3200 863 
Q 3416 1078 3536 1442 
Q 3656 1806 3656 2325 
Q 3656 3044 3420 3430 
Q 3184 3816 2847 3947 
Q 2603 4041 2063 4041 
L 1100 4041 
L 1100 541 
z
" transform="scale(0.015625)"/>
      <path id="ArialMT-73" d="M 197 991 
L 753 1078 
Q 800 744 1014 566 
Q 1228 388 1613 388 
Q 2000 388 2187 545 
Q 2375 703 2375 916 
Q 2375 1106 2209 1216 
Q 2094 1291 1634 1406 
Q 1016 1563 777 1677 
Q 538 1791 414 1992 
Q 291 2194 291 2438 
Q 291 2659 392 2848 
Q 494 3038 669 3163 
Q 800 3259 1026 3326 
Q 1253 3394 1513 3394 
Q 1903 3394 2198 3281 
Q 2494 3169 2634 2976 
Q 2775 2784 2828 2463 
L 2278 2388 
Q 2241 2644 2061 2787 
Q 1881 2931 1553 2931 
Q 1166 2931 1000 2803 
Q 834 2675 834 2503 
Q 834 2394 903 2306 
Q 972 2216 1119 2156 
Q 1203 2125 1616 2013 
Q 2213 1853 2448 1751 
Q 2684 1650 2818 1456 
Q 2953 1263 2953 975 
Q 2953 694 2789 445 
Q 2625 197 2315 61 
Q 2006 -75 1616 -75 
Q 969 -75 630 194 
Q 291 463 197 991 
z
" transform="scale(0.015625)"/>
      <path id="ArialMT-64" d="M 2575 0 
L 2575 419 
Q 2259 -75 1647 -75 
Q 1250 -75 917 144 
Q 584 363 401 755 
Q 219 1147 219 1656 
Q 219 2153 384 2558 
Q 550 2963 881 3178 
Q 1213 3394 1622 3394 
Q 1922 3394 2156 3267 
Q 2391 3141 2538 2938 
L 2538 4581 
L 3097 4581 
L 3097 0 
L 2575 0 
z
M 797 1656 
Q 797 1019 1065 703 
Q 1334 388 1700 388 
Q 2069 388 2326 689 
Q 2584 991 2584 1609 
Q 2584 2291 2321 2609 
Q 2059 2928 1675 2928 
Q 1300 2928 1048 2622 
Q 797 2316 797 1656 
z
" transform="scale(0.015625)"/>
      <path id="ArialMT-4e" d="M 488 0 
L 488 4581 
L 1109 4581 
L 3516 984 
L 3516 4581 
L 4097 4581 
L 4097 0 
L 3475 0 
L 1069 3600 
L 1069 0 
L 488 0 
z
" transform="scale(0.015625)"/>
      <path id="ArialMT-4f" d="M 309 2231 
Q 309 3372 921 4017 
Q 1534 4663 2503 4663 
Q 3138 4663 3647 4359 
Q 4156 4056 4423 3514 
Q 4691 2972 4691 2284 
Q 4691 1588 4409 1038 
Q 4128 488 3612 205 
Q 3097 -78 2500 -78 
Q 1853 -78 1343 234 
Q 834 547 571 1087 
Q 309 1628 309 2231 
z
M 934 2222 
Q 934 1394 1379 917 
Q 1825 441 2497 441 
Q 3181 441 3623 922 
Q 4066 1403 4066 2288 
Q 4066 2847 3877 3264 
Q 3688 3681 3323 3911 
Q 2959 4141 2506 4141 
Q 1863 4141 1398 3698 
Q 934 3256 934 2222 
z
" transform="scale(0.015625)"/>
      <path id="ArialMT-2014" d="M 0 1431 
L 0 1884 
L 6400 1884 
L 6400 1431 
L 0 1431 
z
" transform="scale(0.015625)"/>
      <path id="ArialMT-2013" d="M -13 1431 
L -13 1884 
L 3547 1884 
L 3547 1431 
L -13 1431 
z
" transform="scale(0.015625)"/>
      <path id="ArialMT-62" d="M 941 0 
L 419 0 
L 419 4581 
L 981 4581 
L 981 2947 
Q 1338 3394 1891 3394 
Q 2197 3394 2470 3270 
Q 2744 3147 2920 2923 
Q 3097 2700 3197 2384 
Q 3297 2069 3297 1709 
Q 3297 856 2875 390 
Q 2453 -75 1863 -75 
Q 1275 -75 941 416 
L 941 0 
z
M 934 1684 
Q 934 1088 1097 822 
Q 1363 388 1816 388 
Q 2184 388 2453 708 
Q 2722 1028 2722 1663 
Q 2722 2313 2464 2622 
Q 2206 2931 1841 2931 
Q 1472 2931 1203 2611 
Q 934 2291 934 1684 
z
" transform="scale(0.015625)"/>
      <path id="ArialMT-54" d="M 1659 0 
L 1659 4041 
L 150 4041 
L 150 4581 
L 3781 4581 
L 3781 4041 
L 2266 4041 
L 2266 0 
L 1659 0 
z
" transform="scale(0.015625)"/>
     </defs>
     <use xlink:href="#ArialMT-44"/>
     <use xlink:href="#ArialMT-61" transform="translate(72.216797 0)"/>
     <use xlink:href="#ArialMT-72" transform="translate(127.832031 0)"/>
     <use xlink:href="#ArialMT-6d" transform="translate(161.132812 0)"/>
     <use xlink:href="#ArialMT-73" transform="translate(244.433594 0)"/>
     <use xlink:href="#ArialMT-74" transform="translate(294.433594 0)"/>
     <use xlink:href="#ArialMT-61" transform="translate(322.216797 0)"/>
     <use xlink:href="#ArialMT-64" transform="translate(377.832031 0)"/>
     <use xlink:href="#ArialMT-74" transform="translate(433.447266 0)"/>
     <use xlink:href="#ArialMT-20" transform="translate(461.230469 0)"/>
     <use xlink:href="#ArialMT-4e" transform="translate(489.013672 0)"/>
     <use xlink:href="#ArialMT-4f" transform="translate(561.230469 0)"/>
     <use xlink:href="#ArialMT-32" transform="translate(639.013672 0)"/>
     <use xlink:href="#ArialMT-20" transform="translate(694.628906 0)"/>
     <use xlink:href="#ArialMT-2014" transform="translate(722.412109 0)"/>
     <use xlink:href="#ArialMT-20" transform="translate(822.412109 0)"/>
     <use xlink:href="#ArialMT-32" transform="translate(850.195312 0)"/>
     <use xlink:href="#ArialMT-30" transform="translate(905.810547 0)"/>
     <use xlink:href="#ArialMT-30" transform="translate(961.425781 0)"/>
     <use xlink:href="#ArialMT-31" transform="translate(1017.041016 0)"/>
     <use xlink:href="#ArialMT-2013" transform="translate(1072.65625 0)"/>
     <use xlink:href="#ArialMT-32" transform="translate(1128.271484 0)"/>
     <use xlink:href="#ArialMT-30" transform="translate(1183.886719 0)"/>
     <use xlink:href="#ArialMT-32" transform="translate(1239.501953 0)"/>
     <use xlink:href="#ArialMT-36" transform="translate(1295.117188 0)"/>
     <use xlink:href="#ArialMT-20" transform="translate(1350.732422 0)"/>
     <use xlink:href="#ArialMT-43" transform="translate(1378.515625 0)"/>
     <use xlink:href="#ArialMT-6f" transform="translate(1450.732422 0)"/>
     <use xlink:href="#ArialMT-6d" transform="translate(1506.347656 0)"/>
     <use xlink:href="#ArialMT-62" transform="translate(1589.648438 0)"/>
     <use xlink:href="#ArialMT-69" transform="translate(1645.263672 0)"/>
     <use xlink:href="#ArialMT-6e" transform="translate(1667.480469 0)"/>
     <use xlink:href="#ArialMT-65" transform="translate(1723.095703 0)"/>
     <use xlink:href="#ArialMT-64" transform="translate(1778.710938 0)"/>
     <use xlink:href="#ArialMT-20" transform="translate(1834.326172 0)"/>
     <use xlink:href="#ArialMT-54" transform="translate(1860.359375 0)"/>
     <use xlink:href="#ArialMT-72" transform="translate(1917.693359 0)"/>
     <use xlink:href="#ArialMT-65" transform="translate(1950.994141 0)"/>
     <use xlink:href="#ArialMT-6e" transform="translate(2006.609375 0)"/>
     <use xlink:href="#ArialMT-64" transform="translate(2062.224609 0)"/>
    </g>
   </g>
   <g id="legend_1">
    <g id="patch_7">
     <path d="M 1008.454952 75.561875 
L 1127.336202 75.561875 
Q 1129.336202 75.561875 1129.336202 73.561875 
L 1129.336202 31.6525 
Q 1129.336202 29.6525 1127.336202 29.6525 
L 1008.454952 29.6525 
Q 1006.454952 29.6525 1006.454952 31.6525 
L 1006.454952 73.561875 
Q 1006.454952 75.561875 1008.454952 75.561875 
z
" style="fill: #ffffff; opacity: 0.8; stroke: #cccccc; stroke-linejoin: miter"/>
    </g>
    <g id="line2d_17">
     <path d="M 1010.454952 37.310312 
L 1020.454952 37.310312 
L 1030.454952 37.310312 
" style="fill: none; stroke: #4682b4; stroke-opacity: 0.4; stroke-width: 0.8; stroke-linecap: round"/>
    </g>
    <g id="text_17">
     <!-- Monthly mean -->
     <g style="fill: #262626" transform="translate(1038.454952 40.810312) scale(0.1 -0.1)">
      <defs>
       <path id="ArialMT-4d" d="M 475 0 
L 475 4581 
L 1388 4581 
L 2472 1338 
Q 2622 884 2691 659 
Q 2769 909 2934 1394 
L 4031 4581 
L 4847 4581 
L 4847 0 
L 4263 0 
L 4263 3834 
L 2931 0 
L 2384 0 
L 1059 3900 
L 1059 0 
L 475 0 
z
" transform="scale(0.015625)"/>
       <path id="ArialMT-68" d="M 422 0 
L 422 4581 
L 984 4581 
L 984 2938 
Q 1378 3394 1978 3394 
Q 2347 3394 2619 3248 
Q 2891 3103 3008 2847 
Q 3125 2591 3125 2103 
L 3125 0 
L 2563 0 
L 2563 2103 
Q 2563 2525 2380 2717 
Q 2197 2909 1863 2909 
Q 1613 2909 1392 2779 
Q 1172 2650 1078 2428 
Q 984 2206 984 1816 
L 984 0 
L 422 0 
z
" transform="scale(0.015625)"/>
       <path id="ArialMT-6c" d="M 409 0 
L 409 4581 
L 972 4581 
L 972 0 
L 409 0 
z
" transform="scale(0.015625)"/>
       <path id="ArialMT-79" d="M 397 -1278 
L 334 -750 
Q 519 -800 656 -800 
Q 844 -800 956 -737 
Q 1069 -675 1141 -563 
Q 1194 -478 1313 -144 
Q 1328 -97 1363 -6 
L 103 3319 
L 709 3319 
L 1400 1397 
Q 1534 1031 1641 628 
Q 1738 1016 1872 1384 
L 2581 3319 
L 3144 3319 
L 1881 -56 
Q 1678 -603 1566 -809 
Q 1416 -1088 1222 -1217 
Q 1028 -1347 759 -1347 
Q 597 -1347 397 -1278 
z
" transform="scale(0.015625)"/>
      </defs>
      <use xlink:href="#ArialMT-4d"/>
      <use xlink:href="#ArialMT-6f" transform="translate(83.300781 0)"/>
      <use xlink:href="#ArialMT-6e" transform="translate(138.916016 0)"/>
      <use xlink:href="#ArialMT-74" transform="translate(194.53125 0)"/>
      <use xlink:href="#ArialMT-68" transform="translate(222.314453 0)"/>
      <use xlink:href="#ArialMT-6c" transform="translate(277.929688 0)"/>
      <use xlink:href="#ArialMT-79" transform="translate(300.146484 0)"/>
      <use xlink:href="#ArialMT-20" transform="translate(350.146484 0)"/>
      <use xlink:href="#ArialMT-6d" transform="translate(377.929688 0)"/>
      <use xlink:href="#ArialMT-65" transform="translate(461.230469 0)"/>
      <use xlink:href="#ArialMT-61" transform="translate(516.845703 0)"/>
      <use xlink:href="#ArialMT-6e" transform="translate(572.460938 0)"/>
     </g>
    </g>
    <g id="line2d_18">
     <path d="M 1010.454952 51.572812 
L 1020.454952 51.572812 
L 1030.454952 51.572812 
" style="fill: none; stroke: #000080; stroke-width: 3; stroke-linecap: round"/>
     <g>
      <use xlink:href="#m4d59fcb60b" x="1020.454952" y="51.572812" style="fill: #000080; stroke: #000080"/>
     </g>
    </g>
    <g id="text_18">
     <!-- Yearly mean -->
     <g style="fill: #262626" transform="translate(1038.454952 55.072812) scale(0.1 -0.1)">
      <use xlink:href="#ArialMT-59"/>
      <use xlink:href="#ArialMT-65" transform="translate(57.574219 0)"/>
      <use xlink:href="#ArialMT-61" transform="translate(113.189453 0)"/>
      <use xlink:href="#ArialMT-72" transform="translate(168.804688 0)"/>
      <use xlink:href="#ArialMT-6c" transform="translate(202.105469 0)"/>
      <use xlink:href="#ArialMT-79" transform="translate(224.322266 0)"/>
      <use xlink:href="#ArialMT-20" transform="translate(274.322266 0)"/>
      <use xlink:href="#ArialMT-6d" transform="translate(302.105469 0)"/>
      <use xlink:href="#ArialMT-65" transform="translate(385.40625 0)"/>
      <use xlink:href="#ArialMT-61" transform="translate(441.021484 0)"/>
      <use xlink:href="#ArialMT-6e" transform="translate(496.636719 0)"/>
     </g>
    </g>
    <g id="line2d_19">
     <path d="M 1010.454952 65.957187 
L 1020.454952 65.957187 
L 1030.454952 65.957187 
" style="fill: none; stroke-dasharray: 5.55,2.4; stroke-dashoffset: 0; stroke: #dc143c; stroke-width: 1.5"/>
    </g>
    <g id="text_19">
     <!-- EU Limit (40 µg/m³) -->
     <g style="fill: #262626" transform="translate(1038.454952 69.457187) scale(0.1 -0.1)">
      <defs>
       <path id="ArialMT-45" d="M 506 0 
L 506 4581 
L 3819 4581 
L 3819 4041 
L 1113 4041 
L 1113 2638 
L 3647 2638 
L 3647 2100 
L 1113 2100 
L 1113 541 
L 3925 541 
L 3925 0 
L 506 0 
z
" transform="scale(0.015625)"/>
       <path id="ArialMT-55" d="M 3500 4581 
L 4106 4581 
L 4106 1934 
Q 4106 1244 3950 837 
Q 3794 431 3386 176 
Q 2978 -78 2316 -78 
Q 1672 -78 1262 144 
Q 853 366 678 786 
Q 503 1206 503 1934 
L 503 4581 
L 1109 4581 
L 1109 1938 
Q 1109 1341 1220 1058 
Q 1331 775 1601 622 
Q 1872 469 2263 469 
Q 2931 469 3215 772 
Q 3500 1075 3500 1938 
L 3500 4581 
z
" transform="scale(0.015625)"/>
       <path id="ArialMT-4c" d="M 469 0 
L 469 4581 
L 1075 4581 
L 1075 541 
L 3331 541 
L 3331 0 
L 469 0 
z
" transform="scale(0.015625)"/>
      </defs>
      <use xlink:href="#ArialMT-45"/>
      <use xlink:href="#ArialMT-55" transform="translate(66.699219 0)"/>
      <use xlink:href="#ArialMT-20" transform="translate(138.916016 0)"/>
      <use xlink:href="#ArialMT-4c" transform="translate(166.699219 0)"/>
      <use xlink:href="#ArialMT-69" transform="translate(222.314453 0)"/>
      <use xlink:href="#ArialMT-6d" transform="translate(244.53125 0)"/>
      <use xlink:href="#ArialMT-69" transform="translate(327.832031 0)"/>
      <use xlink:href="#ArialMT-74" transform="translate(350.048828 0)"/>
      <use xlink:href="#ArialMT-20" transform="translate(377.832031 0)"/>
      <use xlink:href="#ArialMT-28" transform="translate(405.615234 0)"/>
      <use xlink:href="#ArialMT-34" transform="translate(438.916016 0)"/>
      <use xlink:href="#ArialMT-30" transform="translate(494.53125 0)"/>
      <use xlink:href="#ArialMT-20" transform="translate(550.146484 0)"/>
      <use xlink:href="#ArialMT-b5" transform="translate(577.929688 0)"/>
      <use xlink:href="#ArialMT-67" transform="translate(635.546875 0)"/>
      <use xlink:href="#ArialMT-2f" transform="translate(691.162109 0)"/>
      <use xlink:href="#ArialMT-6d" transform="translate(718.945312 0)"/>
      <use xlink:href="#ArialMT-b3" transform="translate(802.246094 0)"/>
      <use xlink:href="#ArialMT-29" transform="translate(835.546875 0)"/>
     </g>
    </g>
   </g>
  </g>
 </g>
 <defs>
  <clipPath id="p832ed544e2">
   <rect x="38.70625" y="24.6525" width="1095.629952" height="433.72"/>
  </clipPath>
 </defs>
</svg>
